<?xml version="1.0" encoding="UTF-8" standalone="no"?>
<!DOCTYPE svg PUBLIC "-//W3C//DTD SVG 1.1//EN"
 "http://www.w3.org/Graphics/SVG/1.1/DTD/svg11.dtd">
<!-- Generated by graphviz version 2.26.3 (20100126.1600)
 -->
<!-- Title: AWS CloudFormation Sample Template AutoScalingMultiAZSample: Create a multi&#45;az, load balanced and Auto Scaled sample web site running on an Apache Web Serever with PHP. The application is configured to span all Availability Zones in the region and is Auto&#45;Scaled based on the CPU utilization of the web servers. The instances are load balanced with a simple health check against the default web page. The web site is available on port 80, however, the instances can be configured to listen on any port (8888 by default). **WARNING** This template creates one or more Amazon EC2 instances and an Elastic Load Balancer. You will be billed for the AWS resources used if you create a stack from this template. Pages: 1 -->
<svg width="1019pt" height="548pt"
 viewBox="0.00 0.00 1019.00 548.00" xmlns="http://www.w3.org/2000/svg" xmlns:xlink="http://www.w3.org/1999/xlink">
<g id="graph1" class="graph" transform="scale(1 1) rotate(0) translate(4 544)">
<title>AWS CloudFormation Sample Template AutoScalingMultiAZSample: Create a multi&#45;az, load balanced and Auto Scaled sample web site running on an Apache Web Serever with PHP. The application is configured to span all Availability Zones in the region and is Auto&#45;Scaled based on the CPU utilization of the web servers. The instances are load balanced with a simple health check against the default web page. The web site is available on port 80, however, the instances can be configured to listen on any port (8888 by default). **WARNING** This template creates one or more Amazon EC2 instances and an Elastic Load Balancer. You will be billed for the AWS resources used if you create a stack from this template.</title>
<polygon fill="white" stroke="white" points="-4,5 -4,-544 1016,-544 1016,5 -4,5"/>
<!-- WebServerGroup -->
<g id="node1" class="node"><title>WebServerGroup</title>
<polygon fill="none" stroke="black" points="773,-252 637,-252 637,-216 773,-216 773,-252"/>
<text text-anchor="middle" x="705" y="-230.4" font-family="Times Roman,serif" font-size="14.00">WebServerGroup</text>
</g>
<!-- CPUAlarmLow -->
<g id="node2" class="node"><title>CPUAlarmLow</title>
<polygon fill="none" stroke="black" points="763,-108 647,-108 647,-72 763,-72 763,-108"/>
<text text-anchor="middle" x="705" y="-86.4" font-family="Times Roman,serif" font-size="14.00">CPUAlarmLow</text>
</g>
<!-- WebServerGroup&#45;&gt;CPUAlarmLow -->
<g id="edge8" class="edge"><title>WebServerGroup&#45;&gt;CPUAlarmLow</title>
<path fill="none" stroke="black" d="M726.767,-215.816C736.472,-206.282 746.86,-193.735 752,-180 757.608,-165.015 757.608,-158.985 752,-144 748.105,-133.591 741.196,-123.865 733.854,-115.615"/>
<polygon fill="black" stroke="black" points="736.201,-113.005 726.767,-108.184 731.136,-117.836 736.201,-113.005"/>
</g>
<!-- WebServerScaleUpPolicy -->
<g id="node4" class="node"><title>WebServerScaleUpPolicy</title>
<polygon fill="none" stroke="black" points="985,-180 799,-180 799,-144 985,-144 985,-180"/>
<text text-anchor="middle" x="892" y="-158.4" font-family="Times Roman,serif" font-size="14.00">WebServerScaleUpPolicy</text>
</g>
<!-- WebServerGroup&#45;&gt;WebServerScaleUpPolicy -->
<g id="edge24" class="edge"><title>WebServerGroup&#45;&gt;WebServerScaleUpPolicy</title>
<path fill="none" stroke="black" d="M752.188,-215.831C777.532,-206.073 808.948,-193.977 835.577,-183.724"/>
<polygon fill="black" stroke="black" points="837.077,-186.897 845.151,-180.038 834.562,-180.365 837.077,-186.897"/>
</g>
<!-- CPUAlarmHigh -->
<g id="node6" class="node"><title>CPUAlarmHigh</title>
<polygon fill="none" stroke="black" points="1011,-108 893,-108 893,-72 1011,-72 1011,-108"/>
<text text-anchor="middle" x="952" y="-86.4" font-family="Times Roman,serif" font-size="14.00">CPUAlarmHigh</text>
</g>
<!-- WebServerGroup&#45;&gt;CPUAlarmHigh -->
<g id="edge30" class="edge"><title>WebServerGroup&#45;&gt;CPUAlarmHigh</title>
<path fill="none" stroke="black" d="M773.239,-231.003C849.669,-226.048 966.486,-213.132 994,-180 1009.88,-160.88 994.561,-134.759 978.144,-115.582"/>
<polygon fill="black" stroke="black" points="980.674,-113.162 971.374,-108.087 975.48,-117.854 980.674,-113.162"/>
</g>
<!-- WebServerScaleDownPolicy -->
<g id="node8" class="node"><title>WebServerScaleDownPolicy</title>
<polygon fill="none" stroke="black" points="743,-180 535,-180 535,-144 743,-144 743,-180"/>
<text text-anchor="middle" x="639" y="-158.4" font-family="Times Roman,serif" font-size="14.00">WebServerScaleDownPolicy</text>
</g>
<!-- WebServerGroup&#45;&gt;WebServerScaleDownPolicy -->
<g id="edge44" class="edge"><title>WebServerGroup&#45;&gt;WebServerScaleDownPolicy</title>
<path fill="none" stroke="black" d="M688.345,-215.831C680.589,-207.369 671.22,-197.149 662.739,-187.897"/>
<polygon fill="black" stroke="black" points="665.216,-185.42 655.879,-180.413 660.056,-190.15 665.216,-185.42"/>
</g>
<!-- LaunchConfig -->
<g id="node3" class="node"><title>LaunchConfig</title>
<polygon fill="none" stroke="black" points="273,-324 163,-324 163,-288 273,-288 273,-324"/>
<text text-anchor="middle" x="218" y="-302.4" font-family="Times Roman,serif" font-size="14.00">LaunchConfig</text>
</g>
<!-- LaunchConfig&#45;&gt;WebServerGroup -->
<g id="edge6" class="edge"><title>LaunchConfig&#45;&gt;WebServerGroup</title>
<path fill="none" stroke="black" d="M273.391,-297.811C360.039,-285 527.94,-260.177 626.851,-245.554"/>
<polygon fill="black" stroke="black" points="627.411,-249.009 636.792,-244.084 626.387,-242.084 627.411,-249.009"/>
</g>
<!-- WebServerScaleUpPolicy&#45;&gt;CPUAlarmHigh -->
<g id="edge32" class="edge"><title>WebServerScaleUpPolicy&#45;&gt;CPUAlarmHigh</title>
<path fill="none" stroke="black" d="M907.141,-143.831C914.122,-135.454 922.539,-125.353 930.188,-116.175"/>
<polygon fill="black" stroke="black" points="932.943,-118.336 936.656,-108.413 927.565,-113.855 932.943,-118.336"/>
</g>
<!-- ElasticLoadBalancer -->
<g id="node5" class="node"><title>ElasticLoadBalancer</title>
<polygon fill="none" stroke="black" points="583,-468 429,-468 429,-432 583,-432 583,-468"/>
<text text-anchor="middle" x="506" y="-446.4" font-family="Times Roman,serif" font-size="14.00">ElasticLoadBalancer</text>
</g>
<!-- ElasticLoadBalancer&#45;&gt;WebServerGroup -->
<g id="edge4" class="edge"><title>ElasticLoadBalancer&#45;&gt;WebServerGroup</title>
<path fill="none" stroke="black" d="M522.624,-431.955C557.961,-393.6 640.638,-303.86 681.411,-259.604"/>
<polygon fill="black" stroke="black" points="684.081,-261.871 688.283,-252.145 678.933,-257.128 684.081,-261.871"/>
</g>
<!-- InstanceSecurityGroup -->
<g id="node7" class="node"><title>InstanceSecurityGroup</title>
<polygon fill="none" stroke="black" points="479,-396 305,-396 305,-360 479,-360 479,-396"/>
<text text-anchor="middle" x="392" y="-374.4" font-family="Times Roman,serif" font-size="14.00">InstanceSecurityGroup</text>
</g>
<!-- ElasticLoadBalancer&#45;&gt;InstanceSecurityGroup -->
<g id="edge38" class="edge"><title>ElasticLoadBalancer&#45;&gt;InstanceSecurityGroup</title>
<path fill="none" stroke="black" d="M471.281,-431.831C455.945,-422.707 438.116,-411.539 423.206,-401.745"/>
<polygon fill="black" stroke="black" points="425.072,-398.782 414.806,-396.163 421.198,-404.612 425.072,-398.782"/>
</g>
<!-- ElasticLoadBalancer&#45;&gt;InstanceSecurityGroup -->
<g id="edge40" class="edge"><title>ElasticLoadBalancer&#45;&gt;InstanceSecurityGroup</title>
<path fill="none" stroke="black" d="M483.185,-431.831C469.502,-422.622 451.763,-411.33 435.534,-401.471"/>
<polygon fill="black" stroke="black" points="437.083,-398.318 426.71,-396.163 433.475,-404.316 437.083,-398.318"/>
</g>
<!-- URL -->
<g id="node15" class="node"><title>URL</title>
<polygon fill="lightgrey" stroke="lightgrey" points="522,-36 492,-36 480,-24 480,-12 492,-1.46056e-14 522,-6.71068e-15 534,-12 534,-24 522,-36"/>
<path fill="lightgrey" stroke="lightgrey" d="M492,-36C486,-36 480,-30 480,-24"/>
<path fill="lightgrey" stroke="lightgrey" d="M480,-12C480,-6 486,-1.61846e-14 492,-1.46056e-14"/>
<path fill="lightgrey" stroke="lightgrey" d="M522,-6.71068e-15C528,-5.1317e-15 534,-6 534,-12"/>
<path fill="lightgrey" stroke="lightgrey" d="M534,-24C534,-30 528,-36 522,-36"/>
<polyline fill="none" stroke="black" points="522,-36 492,-36 "/>
<path fill="none" stroke="black" d="M492,-36C486,-36 480,-30 480,-24"/>
<polyline fill="none" stroke="black" points="480,-24 480,-12 "/>
<path fill="none" stroke="black" d="M480,-12C480,-6 486,-1.61846e-14 492,-1.46056e-14"/>
<polyline fill="none" stroke="black" points="492,-1.46056e-14 522,-6.71068e-15 "/>
<path fill="none" stroke="black" d="M522,-6.71068e-15C528,-5.1317e-15 534,-6 534,-12"/>
<polyline fill="none" stroke="black" points="534,-12 534,-24 "/>
<path fill="none" stroke="black" d="M534,-24C534,-30 528,-36 522,-36"/>
<text text-anchor="middle" x="507" y="-14.4" font-family="Times Roman,serif" font-size="14.00">URL</text>
</g>
<!-- ElasticLoadBalancer&#45;&gt;URL -->
<g id="edge46" class="edge"><title>ElasticLoadBalancer&#45;&gt;URL</title>
<path fill="none" stroke="black" d="M506.207,-431.815C506.5,-404.499 507,-351.251 507,-306 507,-306 507,-306 507,-162 507,-121.876 507,-75.4631 507,-46.4177"/>
<polygon fill="black" stroke="black" points="510.5,-46.1853 507,-36.1854 503.5,-46.1854 510.5,-46.1853"/>
</g>
<!-- InstanceSecurityGroup&#45;&gt;LaunchConfig -->
<g id="edge16" class="edge"><title>InstanceSecurityGroup&#45;&gt;LaunchConfig</title>
<path fill="none" stroke="black" d="M348.092,-359.831C324.718,-350.159 295.79,-338.189 271.153,-327.994"/>
<polygon fill="black" stroke="black" points="272.17,-324.628 261.592,-324.038 269.494,-331.096 272.17,-324.628"/>
</g>
<!-- WebServerScaleDownPolicy&#45;&gt;CPUAlarmLow -->
<g id="edge10" class="edge"><title>WebServerScaleDownPolicy&#45;&gt;CPUAlarmLow</title>
<path fill="none" stroke="black" d="M655.655,-143.831C663.411,-135.369 672.78,-125.149 681.261,-115.897"/>
<polygon fill="black" stroke="black" points="683.944,-118.15 688.121,-108.413 678.784,-113.42 683.944,-118.15"/>
</g>
<!-- SSHLocation -->
<g id="node10" class="node"><title>SSHLocation</title>
<polygon fill="lightgrey" stroke="lightgrey" points="314,-540 234,-540 222,-528 222,-516 234,-504 314,-504 326,-516 326,-528 314,-540"/>
<path fill="lightgrey" stroke="lightgrey" d="M234,-540C228,-540 222,-534 222,-528"/>
<path fill="lightgrey" stroke="lightgrey" d="M222,-516C222,-510 228,-504 234,-504"/>
<path fill="lightgrey" stroke="lightgrey" d="M314,-504C320,-504 326,-510 326,-516"/>
<path fill="lightgrey" stroke="lightgrey" d="M326,-528C326,-534 320,-540 314,-540"/>
<polyline fill="none" stroke="black" points="314,-540 234,-540 "/>
<path fill="none" stroke="black" d="M234,-540C228,-540 222,-534 222,-528"/>
<polyline fill="none" stroke="black" points="222,-528 222,-516 "/>
<path fill="none" stroke="black" d="M222,-516C222,-510 228,-504 234,-504"/>
<polyline fill="none" stroke="black" points="234,-504 314,-504 "/>
<path fill="none" stroke="black" d="M314,-504C320,-504 326,-510 326,-516"/>
<polyline fill="none" stroke="black" points="326,-516 326,-528 "/>
<path fill="none" stroke="black" d="M326,-528C326,-534 320,-540 314,-540"/>
<text text-anchor="middle" x="274" y="-518.4" font-family="Times Roman,serif" font-size="14.00">SSHLocation</text>
</g>
<!-- SSHLocation&#45;&gt;InstanceSecurityGroup -->
<g id="edge34" class="edge"><title>SSHLocation&#45;&gt;InstanceSecurityGroup</title>
<path fill="none" stroke="black" d="M288.945,-503.762C309.603,-478.552 347.004,-432.91 370.616,-404.095"/>
<polygon fill="black" stroke="black" points="373.545,-406.043 377.177,-396.09 368.131,-401.606 373.545,-406.043"/>
</g>
<!-- KeyName -->
<g id="node11" class="node"><title>KeyName</title>
<polygon fill="lightgrey" stroke="lightgrey" points="68,-540 12,-540 2.84217e-14,-528 1.42109e-14,-516 12,-504 68,-504 80,-516 80,-528 68,-540"/>
<path fill="lightgrey" stroke="lightgrey" d="M12,-540C6,-540 3.55271e-14,-534 2.84217e-14,-528"/>
<path fill="lightgrey" stroke="lightgrey" d="M1.42109e-14,-516C7.10543e-15,-510 6,-504 12,-504"/>
<path fill="lightgrey" stroke="lightgrey" d="M68,-504C74,-504 80,-510 80,-516"/>
<path fill="lightgrey" stroke="lightgrey" d="M80,-528C80,-534 74,-540 68,-540"/>
<polyline fill="none" stroke="black" points="68,-540 12,-540 "/>
<path fill="none" stroke="black" d="M12,-540C6,-540 3.55271e-14,-534 2.84217e-14,-528"/>
<polyline fill="none" stroke="black" points="2.84217e-14,-528 1.42109e-14,-516 "/>
<path fill="none" stroke="black" d="M1.42109e-14,-516C7.10543e-15,-510 6,-504 12,-504"/>
<polyline fill="none" stroke="black" points="12,-504 68,-504 "/>
<path fill="none" stroke="black" d="M68,-504C74,-504 80,-510 80,-516"/>
<polyline fill="none" stroke="black" points="80,-516 80,-528 "/>
<path fill="none" stroke="black" d="M80,-528C80,-534 74,-540 68,-540"/>
<text text-anchor="middle" x="40" y="-518.4" font-family="Times Roman,serif" font-size="14.00">KeyName</text>
</g>
<!-- KeyName&#45;&gt;LaunchConfig -->
<g id="edge14" class="edge"><title>KeyName&#45;&gt;LaunchConfig</title>
<path fill="none" stroke="black" d="M37.6966,-503.791C34.6092,-471.02 33.0474,-401.65 68,-360 79.5469,-346.241 117.945,-332.552 152.998,-322.4"/>
<polygon fill="black" stroke="black" points="154.102,-325.725 162.771,-319.633 152.196,-318.989 154.102,-325.725"/>
</g>
<!-- WebServerPort -->
<g id="node12" class="node"><title>WebServerPort</title>
<polygon fill="lightgrey" stroke="lightgrey" points="454,-540 356,-540 344,-528 344,-516 356,-504 454,-504 466,-516 466,-528 454,-540"/>
<path fill="lightgrey" stroke="lightgrey" d="M356,-540C350,-540 344,-534 344,-528"/>
<path fill="lightgrey" stroke="lightgrey" d="M344,-516C344,-510 350,-504 356,-504"/>
<path fill="lightgrey" stroke="lightgrey" d="M454,-504C460,-504 466,-510 466,-516"/>
<path fill="lightgrey" stroke="lightgrey" d="M466,-528C466,-534 460,-540 454,-540"/>
<polyline fill="none" stroke="black" points="454,-540 356,-540 "/>
<path fill="none" stroke="black" d="M356,-540C350,-540 344,-534 344,-528"/>
<polyline fill="none" stroke="black" points="344,-528 344,-516 "/>
<path fill="none" stroke="black" d="M344,-516C344,-510 350,-504 356,-504"/>
<polyline fill="none" stroke="black" points="356,-504 454,-504 "/>
<path fill="none" stroke="black" d="M454,-504C460,-504 466,-510 466,-516"/>
<polyline fill="none" stroke="black" points="466,-516 466,-528 "/>
<path fill="none" stroke="black" d="M466,-528C466,-534 460,-540 454,-540"/>
<text text-anchor="middle" x="405" y="-518.4" font-family="Times Roman,serif" font-size="14.00">WebServerPort</text>
</g>
<!-- WebServerPort&#45;&gt;LaunchConfig -->
<g id="edge12" class="edge"><title>WebServerPort&#45;&gt;LaunchConfig</title>
<path fill="none" stroke="black" d="M389.378,-503.955C356.241,-465.679 278.802,-376.232 240.405,-331.879"/>
<polygon fill="black" stroke="black" points="242.9,-329.415 233.709,-324.145 237.608,-333.996 242.9,-329.415"/>
</g>
<!-- WebServerPort&#45;&gt;ElasticLoadBalancer -->
<g id="edge26" class="edge"><title>WebServerPort&#45;&gt;ElasticLoadBalancer</title>
<path fill="none" stroke="black" d="M424.534,-503.831C436.333,-494.793 451.675,-483.748 465.899,-474.02"/>
<polygon fill="black" stroke="black" points="468.242,-476.661 474.57,-468.163 464.324,-470.86 468.242,-476.661"/>
</g>
<!-- WebServerPort&#45;&gt;ElasticLoadBalancer -->
<g id="edge28" class="edge"><title>WebServerPort&#45;&gt;ElasticLoadBalancer</title>
<path fill="none" stroke="black" d="M436.439,-503.831C449.871,-494.878 465.349,-483.956 478.341,-474.295"/>
<polygon fill="black" stroke="black" points="480.597,-476.978 486.473,-468.163 476.382,-471.389 480.597,-476.978"/>
</g>
<!-- WebServerPort&#45;&gt;InstanceSecurityGroup -->
<g id="edge36" class="edge"><title>WebServerPort&#45;&gt;InstanceSecurityGroup</title>
<path fill="none" stroke="black" d="M398.68,-503.762C394.003,-479.201 389.76,-435.247 389.062,-406.354"/>
<polygon fill="black" stroke="black" points="392.56,-406.059 388.975,-396.09 385.56,-406.119 392.56,-406.059"/>
</g>
<!-- WebServerPort&#45;&gt;InstanceSecurityGroup -->
<g id="edge42" class="edge"><title>WebServerPort&#45;&gt;InstanceSecurityGroup</title>
<path fill="none" stroke="black" d="M408.027,-503.762C408.27,-479.093 404.543,-434.86 399.997,-405.973"/>
<polygon fill="black" stroke="black" points="403.441,-405.349 398.291,-396.09 396.543,-406.539 403.441,-405.349"/>
</g>
<!-- InstanceType -->
<g id="node13" class="node"><title>InstanceType</title>
<polygon fill="lightgrey" stroke="lightgrey" points="192,-540 110,-540 98,-528 98,-516 110,-504 192,-504 204,-516 204,-528 192,-540"/>
<path fill="lightgrey" stroke="lightgrey" d="M110,-540C104,-540 98,-534 98,-528"/>
<path fill="lightgrey" stroke="lightgrey" d="M98,-516C98,-510 104,-504 110,-504"/>
<path fill="lightgrey" stroke="lightgrey" d="M192,-504C198,-504 204,-510 204,-516"/>
<path fill="lightgrey" stroke="lightgrey" d="M204,-528C204,-534 198,-540 192,-540"/>
<polyline fill="none" stroke="black" points="192,-540 110,-540 "/>
<path fill="none" stroke="black" d="M110,-540C104,-540 98,-534 98,-528"/>
<polyline fill="none" stroke="black" points="98,-528 98,-516 "/>
<path fill="none" stroke="black" d="M98,-516C98,-510 104,-504 110,-504"/>
<polyline fill="none" stroke="black" points="110,-504 192,-504 "/>
<path fill="none" stroke="black" d="M192,-504C198,-504 204,-510 204,-516"/>
<polyline fill="none" stroke="black" points="204,-516 204,-528 "/>
<path fill="none" stroke="black" d="M204,-528C204,-534 198,-540 192,-540"/>
<text text-anchor="middle" x="151" y="-518.4" font-family="Times Roman,serif" font-size="14.00">InstanceType</text>
</g>
<!-- InstanceType&#45;&gt;LaunchConfig -->
<g id="edge18" class="edge"><title>InstanceType&#45;&gt;LaunchConfig</title>
<path fill="none" stroke="black" d="M152.651,-503.955C160.903,-466.156 187.861,-378.451 204.766,-333.556"/>
<polygon fill="black" stroke="black" points="208.063,-334.734 208.417,-324.145 201.537,-332.202 208.063,-334.734"/>
</g>
<!-- InstanceType&#45;&gt;LaunchConfig -->
<g id="edge22" class="edge"><title>InstanceType&#45;&gt;LaunchConfig</title>
<path fill="none" stroke="black" d="M160.543,-503.955C175.677,-466.314 202.962,-379.187 214,-334.125"/>
<polygon fill="black" stroke="black" points="217.465,-334.679 216.327,-324.145 210.648,-333.089 217.465,-334.679"/>
</g>
<!-- AWS::Region -->
<g id="node24" class="node"><title>AWS::Region</title>
<polygon fill="none" stroke="black" points="181,-396 77,-396 77,-360 181,-360 181,-396"/>
<text text-anchor="middle" x="129" y="-374.4" font-family="Times Roman,serif" font-size="14.00">AWS::Region</text>
</g>
<!-- AWS::Region&#45;&gt;LaunchConfig -->
<g id="edge20" class="edge"><title>AWS::Region&#45;&gt;LaunchConfig</title>
<path fill="none" stroke="black" d="M151.458,-359.831C162.42,-350.963 175.77,-340.164 187.626,-330.572"/>
<polygon fill="black" stroke="black" points="189.976,-333.173 195.549,-324.163 185.573,-327.731 189.976,-333.173"/>
</g>
</g>
</svg>
