<?xml version="1.0" encoding="UTF-8" standalone="no"?>
<!DOCTYPE svg PUBLIC "-//W3C//DTD SVG 1.1//EN"
 "http://www.w3.org/Graphics/SVG/1.1/DTD/svg11.dtd">
<!-- Generated by graphviz version 2.26.3 (20100126.1600)
 -->
<!-- Title: AWS CloudFormation Sample Template auto_scaling_with_instance_profile: Create an Auto Scaling group with an associated instance profile. **WARNING** This template creates one or more Amazon EC2 instances and an Amazon SQS queue. You will be billed for the AWS resources used if you create a stack from this template. Pages: 1 -->
<svg width="448pt" height="332pt"
 viewBox="0.00 0.00 448.00 332.00" xmlns="http://www.w3.org/2000/svg" xmlns:xlink="http://www.w3.org/1999/xlink">
<g id="graph1" class="graph" transform="scale(1 1) rotate(0) translate(4 328)">
<title>AWS CloudFormation Sample Template auto_scaling_with_instance_profile: Create an Auto Scaling group with an associated instance profile. **WARNING** This template creates one or more Amazon EC2 instances and an Amazon SQS queue. You will be billed for the AWS resources used if you create a stack from this template.</title>
<polygon fill="white" stroke="white" points="-4,5 -4,-328 445,-328 445,5 -4,5"/>
<!-- RootRole -->
<g id="node1" class="node"><title>RootRole</title>
<polygon fill="none" stroke="black" points="155,-252 79,-252 79,-216 155,-216 155,-252"/>
<text text-anchor="middle" x="117" y="-230.4" font-family="Times Roman,serif" font-size="14.00">RootRole</text>
</g>
<!-- RolePolicies -->
<g id="node2" class="node"><title>RolePolicies</title>
<polygon fill="none" stroke="black" points="94,-180 4.9738e-14,-180 0,-144 94,-144 94,-180"/>
<text text-anchor="middle" x="47" y="-158.4" font-family="Times Roman,serif" font-size="14.00">RolePolicies</text>
</g>
<!-- RootRole&#45;&gt;RolePolicies -->
<g id="edge3" class="edge"><title>RootRole&#45;&gt;RolePolicies</title>
<path fill="none" stroke="black" d="M99.336,-215.831C91.0268,-207.285 80.9736,-196.944 71.9082,-187.62"/>
<polygon fill="black" stroke="black" points="74.3821,-185.143 64.9018,-180.413 69.3631,-190.023 74.3821,-185.143"/>
</g>
<!-- RootInstanceProfile -->
<g id="node5" class="node"><title>RootInstanceProfile</title>
<polygon fill="none" stroke="black" points="262,-180 112,-180 112,-144 262,-144 262,-180"/>
<text text-anchor="middle" x="187" y="-158.4" font-family="Times Roman,serif" font-size="14.00">RootInstanceProfile</text>
</g>
<!-- RootRole&#45;&gt;RootInstanceProfile -->
<g id="edge15" class="edge"><title>RootRole&#45;&gt;RootInstanceProfile</title>
<path fill="none" stroke="black" d="M134.664,-215.831C142.973,-207.285 153.026,-196.944 162.092,-187.62"/>
<polygon fill="black" stroke="black" points="164.637,-190.023 169.098,-180.413 159.618,-185.143 164.637,-190.023"/>
</g>
<!-- myASGrpOne -->
<g id="node3" class="node"><title>myASGrpOne</title>
<polygon fill="none" stroke="black" points="354,-36 244,-36 244,-1.77636e-14 354,-3.55271e-15 354,-36"/>
<text text-anchor="middle" x="299" y="-14.4" font-family="Times Roman,serif" font-size="14.00">myASGrpOne</text>
</g>
<!-- myLCOne -->
<g id="node4" class="node"><title>myLCOne</title>
<polygon fill="none" stroke="black" points="341,-108 257,-108 257,-72 341,-72 341,-108"/>
<text text-anchor="middle" x="299" y="-86.4" font-family="Times Roman,serif" font-size="14.00">myLCOne</text>
</g>
<!-- myLCOne&#45;&gt;myASGrpOne -->
<g id="edge5" class="edge"><title>myLCOne&#45;&gt;myASGrpOne</title>
<path fill="none" stroke="black" d="M299,-71.8314C299,-64.131 299,-54.9743 299,-46.4166"/>
<polygon fill="black" stroke="black" points="302.5,-46.4132 299,-36.4133 295.5,-46.4133 302.5,-46.4132"/>
</g>
<!-- RootInstanceProfile&#45;&gt;myLCOne -->
<g id="edge7" class="edge"><title>RootInstanceProfile&#45;&gt;myLCOne</title>
<path fill="none" stroke="black" d="M215.262,-143.831C229.455,-134.707 246.828,-123.539 262.064,-113.745"/>
<polygon fill="black" stroke="black" points="264.228,-116.515 270.747,-108.163 260.442,-110.626 264.228,-116.515"/>
</g>
<!-- InstanceType -->
<g id="node7" class="node"><title>InstanceType</title>
<polygon fill="lightgrey" stroke="lightgrey" points="340,-324 258,-324 246,-312 246,-300 258,-288 340,-288 352,-300 352,-312 340,-324"/>
<path fill="lightgrey" stroke="lightgrey" d="M258,-324C252,-324 246,-318 246,-312"/>
<path fill="lightgrey" stroke="lightgrey" d="M246,-300C246,-294 252,-288 258,-288"/>
<path fill="lightgrey" stroke="lightgrey" d="M340,-288C346,-288 352,-294 352,-300"/>
<path fill="lightgrey" stroke="lightgrey" d="M352,-312C352,-318 346,-324 340,-324"/>
<polyline fill="none" stroke="black" points="340,-324 258,-324 "/>
<path fill="none" stroke="black" d="M258,-324C252,-324 246,-318 246,-312"/>
<polyline fill="none" stroke="black" points="246,-312 246,-300 "/>
<path fill="none" stroke="black" d="M246,-300C246,-294 252,-288 258,-288"/>
<polyline fill="none" stroke="black" points="258,-288 340,-288 "/>
<path fill="none" stroke="black" d="M340,-288C346,-288 352,-294 352,-300"/>
<polyline fill="none" stroke="black" points="352,-300 352,-312 "/>
<path fill="none" stroke="black" d="M352,-312C352,-318 346,-324 340,-324"/>
<text text-anchor="middle" x="299" y="-302.4" font-family="Times Roman,serif" font-size="14.00">InstanceType</text>
</g>
<!-- InstanceType&#45;&gt;myLCOne -->
<g id="edge9" class="edge"><title>InstanceType&#45;&gt;myLCOne</title>
<path fill="none" stroke="black" d="M295.054,-287.955C291.596,-250.314 291.336,-163.187 294.276,-118.125"/>
<polygon fill="black" stroke="black" points="297.766,-118.384 295.045,-108.145 290.787,-117.847 297.766,-118.384"/>
</g>
<!-- InstanceType&#45;&gt;myLCOne -->
<g id="edge13" class="edge"><title>InstanceType&#45;&gt;myLCOne</title>
<path fill="none" stroke="black" d="M302.946,-287.955C306.404,-250.314 306.664,-163.187 303.724,-118.125"/>
<polygon fill="black" stroke="black" points="307.213,-117.847 302.955,-108.145 300.234,-118.384 307.213,-117.847"/>
</g>
<!-- AWS::Region -->
<g id="node12" class="node"><title>AWS::Region</title>
<polygon fill="none" stroke="black" points="440,-252 336,-252 336,-216 440,-216 440,-252"/>
<text text-anchor="middle" x="388" y="-230.4" font-family="Times Roman,serif" font-size="14.00">AWS::Region</text>
</g>
<!-- AWS::Region&#45;&gt;myLCOne -->
<g id="edge11" class="edge"><title>AWS::Region&#45;&gt;myLCOne</title>
<path fill="none" stroke="black" d="M376.728,-215.762C361.28,-190.768 333.421,-145.692 315.589,-116.841"/>
<polygon fill="black" stroke="black" points="318.415,-114.756 310.18,-108.09 312.461,-118.436 318.415,-114.756"/>
</g>
</g>
</svg>
