<?xml version="1.0" encoding="UTF-8" standalone="no"?>
<!DOCTYPE svg PUBLIC "-//W3C//DTD SVG 1.1//EN"
 "http://www.w3.org/Graphics/SVG/1.1/DTD/svg11.dtd">
<!-- Generated by graphviz version 2.26.3 (20100126.1600)
 -->
<!-- Title: AWS CloudFormation Sample Template AutoScalingRollingUpdates: Create a load balanced, Auto Scaled sample website. This example creates an Auto Scaling group behind a load balancer with a simple health check using a basic getting start AMI that has a simple Apache Web Server&#45;based PHP page. The autoscaling launch configuration includes an update policy that will keep 2 instances running while doing an autoscaling rolling upgrade. **WARNING** This template creates one or more Amazon EC2 instances and an Elastic Load Balancer. You will be billed for the AWS resources used if you create a stack from this template. Pages: 1 -->
<svg width="550pt" height="332pt"
 viewBox="0.00 0.00 550.00 332.00" xmlns="http://www.w3.org/2000/svg" xmlns:xlink="http://www.w3.org/1999/xlink">
<g id="graph1" class="graph" transform="scale(1 1) rotate(0) translate(4 328)">
<title>AWS CloudFormation Sample Template AutoScalingRollingUpdates: Create a load balanced, Auto Scaled sample website. This example creates an Auto Scaling group behind a load balancer with a simple health check using a basic getting start AMI that has a simple Apache Web Server&#45;based PHP page. The autoscaling launch configuration includes an update policy that will keep 2 instances running while doing an autoscaling rolling upgrade. **WARNING** This template creates one or more Amazon EC2 instances and an Elastic Load Balancer. You will be billed for the AWS resources used if you create a stack from this template.</title>
<polygon fill="white" stroke="white" points="-4,5 -4,-328 547,-328 547,5 -4,5"/>
<!-- ElasticLoadBalancer -->
<g id="node1" class="node"><title>ElasticLoadBalancer</title>
<polygon fill="none" stroke="black" points="154,-180 8.52651e-14,-180 0,-144 154,-144 154,-180"/>
<text text-anchor="middle" x="77" y="-158.4" font-family="Times Roman,serif" font-size="14.00">ElasticLoadBalancer</text>
</g>
<!-- WebServerGroup -->
<g id="node3" class="node"><title>WebServerGroup</title>
<polygon fill="none" stroke="black" points="331,-108 195,-108 195,-72 331,-72 331,-108"/>
<text text-anchor="middle" x="263" y="-86.4" font-family="Times Roman,serif" font-size="14.00">WebServerGroup</text>
</g>
<!-- ElasticLoadBalancer&#45;&gt;WebServerGroup -->
<g id="edge14" class="edge"><title>ElasticLoadBalancer&#45;&gt;WebServerGroup</title>
<path fill="none" stroke="black" d="M123.936,-143.831C149.144,-134.073 180.393,-121.977 206.879,-111.724"/>
<polygon fill="black" stroke="black" points="208.34,-114.912 216.402,-108.038 205.813,-108.384 208.34,-114.912"/>
</g>
<!-- URL -->
<g id="node10" class="node"><title>URL</title>
<polygon fill="lightgrey" stroke="lightgrey" points="92,-36 62,-36 50,-24 50,-12 62,-1.46056e-14 92,-6.71068e-15 104,-12 104,-24 92,-36"/>
<path fill="lightgrey" stroke="lightgrey" d="M62,-36C56,-36 50,-30 50,-24"/>
<path fill="lightgrey" stroke="lightgrey" d="M50,-12C50,-6 56,-1.61846e-14 62,-1.46056e-14"/>
<path fill="lightgrey" stroke="lightgrey" d="M92,-6.71068e-15C98,-5.1317e-15 104,-6 104,-12"/>
<path fill="lightgrey" stroke="lightgrey" d="M104,-24C104,-30 98,-36 92,-36"/>
<polyline fill="none" stroke="black" points="92,-36 62,-36 "/>
<path fill="none" stroke="black" d="M62,-36C56,-36 50,-30 50,-24"/>
<polyline fill="none" stroke="black" points="50,-24 50,-12 "/>
<path fill="none" stroke="black" d="M50,-12C50,-6 56,-1.61846e-14 62,-1.46056e-14"/>
<polyline fill="none" stroke="black" points="62,-1.46056e-14 92,-6.71068e-15 "/>
<path fill="none" stroke="black" d="M92,-6.71068e-15C98,-5.1317e-15 104,-6 104,-12"/>
<polyline fill="none" stroke="black" points="104,-12 104,-24 "/>
<path fill="none" stroke="black" d="M104,-24C104,-30 98,-36 92,-36"/>
<text text-anchor="middle" x="77" y="-14.4" font-family="Times Roman,serif" font-size="14.00">URL</text>
</g>
<!-- ElasticLoadBalancer&#45;&gt;URL -->
<g id="edge28" class="edge"><title>ElasticLoadBalancer&#45;&gt;URL</title>
<path fill="none" stroke="black" d="M77,-143.762C77,-119.201 77,-75.2474 77,-46.3541"/>
<polygon fill="black" stroke="black" points="80.5001,-46.0896 77,-36.0896 73.5001,-46.0897 80.5001,-46.0896"/>
</g>
<!-- InstanceSecurityGroup -->
<g id="node2" class="node"><title>InstanceSecurityGroup</title>
<polygon fill="none" stroke="black" points="288,-252 114,-252 114,-216 288,-216 288,-252"/>
<text text-anchor="middle" x="201" y="-230.4" font-family="Times Roman,serif" font-size="14.00">InstanceSecurityGroup</text>
</g>
<!-- LaunchConfig -->
<g id="node4" class="node"><title>LaunchConfig</title>
<polygon fill="none" stroke="black" points="409,-180 299,-180 299,-144 409,-144 409,-180"/>
<text text-anchor="middle" x="354" y="-158.4" font-family="Times Roman,serif" font-size="14.00">LaunchConfig</text>
</g>
<!-- InstanceSecurityGroup&#45;&gt;LaunchConfig -->
<g id="edge20" class="edge"><title>InstanceSecurityGroup&#45;&gt;LaunchConfig</title>
<path fill="none" stroke="black" d="M239.608,-215.831C259.889,-206.287 284.924,-194.506 306.397,-184.401"/>
<polygon fill="black" stroke="black" points="308.111,-187.463 315.669,-180.038 305.131,-181.129 308.111,-187.463"/>
</g>
<!-- LaunchConfig&#45;&gt;WebServerGroup -->
<g id="edge12" class="edge"><title>LaunchConfig&#45;&gt;WebServerGroup</title>
<path fill="none" stroke="black" d="M331.037,-143.831C319.828,-134.963 306.179,-124.164 294.056,-114.572"/>
<polygon fill="black" stroke="black" points="295.97,-111.623 285.956,-108.163 291.626,-117.112 295.97,-111.623"/>
</g>
<!-- KeyName -->
<g id="node6" class="node"><title>KeyName</title>
<polygon fill="lightgrey" stroke="lightgrey" points="365,-324 309,-324 297,-312 297,-300 309,-288 365,-288 377,-300 377,-312 365,-324"/>
<path fill="lightgrey" stroke="lightgrey" d="M309,-324C303,-324 297,-318 297,-312"/>
<path fill="lightgrey" stroke="lightgrey" d="M297,-300C297,-294 303,-288 309,-288"/>
<path fill="lightgrey" stroke="lightgrey" d="M365,-288C371,-288 377,-294 377,-300"/>
<path fill="lightgrey" stroke="lightgrey" d="M377,-312C377,-318 371,-324 365,-324"/>
<polyline fill="none" stroke="black" points="365,-324 309,-324 "/>
<path fill="none" stroke="black" d="M309,-324C303,-324 297,-318 297,-312"/>
<polyline fill="none" stroke="black" points="297,-312 297,-300 "/>
<path fill="none" stroke="black" d="M297,-300C297,-294 303,-288 309,-288"/>
<polyline fill="none" stroke="black" points="309,-288 365,-288 "/>
<path fill="none" stroke="black" d="M365,-288C371,-288 377,-294 377,-300"/>
<polyline fill="none" stroke="black" points="377,-300 377,-312 "/>
<path fill="none" stroke="black" d="M377,-312C377,-318 371,-324 365,-324"/>
<text text-anchor="middle" x="337" y="-302.4" font-family="Times Roman,serif" font-size="14.00">KeyName</text>
</g>
<!-- KeyName&#45;&gt;LaunchConfig -->
<g id="edge18" class="edge"><title>KeyName&#45;&gt;LaunchConfig</title>
<path fill="none" stroke="black" d="M339.153,-287.762C342.053,-263.201 347.242,-219.247 350.653,-190.354"/>
<polygon fill="black" stroke="black" points="354.168,-190.431 351.864,-180.09 347.216,-189.61 354.168,-190.431"/>
</g>
<!-- WebServerPort -->
<g id="node7" class="node"><title>WebServerPort</title>
<polygon fill="lightgrey" stroke="lightgrey" points="250,-324 152,-324 140,-312 140,-300 152,-288 250,-288 262,-300 262,-312 250,-324"/>
<path fill="lightgrey" stroke="lightgrey" d="M152,-324C146,-324 140,-318 140,-312"/>
<path fill="lightgrey" stroke="lightgrey" d="M140,-300C140,-294 146,-288 152,-288"/>
<path fill="lightgrey" stroke="lightgrey" d="M250,-288C256,-288 262,-294 262,-300"/>
<path fill="lightgrey" stroke="lightgrey" d="M262,-312C262,-318 256,-324 250,-324"/>
<polyline fill="none" stroke="black" points="250,-324 152,-324 "/>
<path fill="none" stroke="black" d="M152,-324C146,-324 140,-318 140,-312"/>
<polyline fill="none" stroke="black" points="140,-312 140,-300 "/>
<path fill="none" stroke="black" d="M140,-300C140,-294 146,-288 152,-288"/>
<polyline fill="none" stroke="black" points="152,-288 250,-288 "/>
<path fill="none" stroke="black" d="M250,-288C256,-288 262,-294 262,-300"/>
<polyline fill="none" stroke="black" points="262,-300 262,-312 "/>
<path fill="none" stroke="black" d="M262,-312C262,-318 256,-324 250,-324"/>
<text text-anchor="middle" x="201" y="-302.4" font-family="Times Roman,serif" font-size="14.00">WebServerPort</text>
</g>
<!-- WebServerPort&#45;&gt;ElasticLoadBalancer -->
<g id="edge4" class="edge"><title>WebServerPort&#45;&gt;ElasticLoadBalancer</title>
<path fill="none" stroke="black" d="M144.744,-287.973C126.869,-279.389 108.565,-267.538 96,-252 81.7413,-234.368 74.7149,-209.454 72.6965,-190.307"/>
<polygon fill="black" stroke="black" points="76.1747,-189.842 72.0727,-180.073 69.1877,-190.268 76.1747,-189.842"/>
</g>
<!-- WebServerPort&#45;&gt;ElasticLoadBalancer -->
<g id="edge6" class="edge"><title>WebServerPort&#45;&gt;ElasticLoadBalancer</title>
<path fill="none" stroke="black" d="M161.281,-287.85C144.694,-279.275 126.505,-267.464 114,-252 99.6087,-234.204 92.5848,-208.989 87.7061,-189.774"/>
<polygon fill="black" stroke="black" points="91.0978,-188.91 85.2532,-180.073 84.3114,-190.626 91.0978,-188.91"/>
</g>
<!-- WebServerPort&#45;&gt;InstanceSecurityGroup -->
<g id="edge8" class="edge"><title>WebServerPort&#45;&gt;InstanceSecurityGroup</title>
<path fill="none" stroke="black" d="M195.048,-287.831C194.297,-280.131 194.076,-270.974 194.385,-262.417"/>
<polygon fill="black" stroke="black" points="197.879,-262.616 195.024,-252.413 190.893,-262.17 197.879,-262.616"/>
</g>
<!-- WebServerPort&#45;&gt;InstanceSecurityGroup -->
<g id="edge10" class="edge"><title>WebServerPort&#45;&gt;InstanceSecurityGroup</title>
<path fill="none" stroke="black" d="M206.952,-287.831C207.703,-280.131 207.924,-270.974 207.615,-262.417"/>
<polygon fill="black" stroke="black" points="211.107,-262.17 206.976,-252.413 204.121,-262.616 211.107,-262.17"/>
</g>
<!-- WebServerPort&#45;&gt;LaunchConfig -->
<g id="edge16" class="edge"><title>WebServerPort&#45;&gt;LaunchConfig</title>
<path fill="none" stroke="black" d="M243.208,-287.959C261.149,-278.923 281.466,-266.744 297,-252 315.935,-234.028 331.318,-208.513 341.31,-189.237"/>
<polygon fill="black" stroke="black" points="344.554,-190.576 345.904,-180.068 338.295,-187.441 344.554,-190.576"/>
</g>
<!-- InstanceType -->
<g id="node8" class="node"><title>InstanceType</title>
<polygon fill="lightgrey" stroke="lightgrey" points="489,-324 407,-324 395,-312 395,-300 407,-288 489,-288 501,-300 501,-312 489,-324"/>
<path fill="lightgrey" stroke="lightgrey" d="M407,-324C401,-324 395,-318 395,-312"/>
<path fill="lightgrey" stroke="lightgrey" d="M395,-300C395,-294 401,-288 407,-288"/>
<path fill="lightgrey" stroke="lightgrey" d="M489,-288C495,-288 501,-294 501,-300"/>
<path fill="lightgrey" stroke="lightgrey" d="M501,-312C501,-318 495,-324 489,-324"/>
<polyline fill="none" stroke="black" points="489,-324 407,-324 "/>
<path fill="none" stroke="black" d="M407,-324C401,-324 395,-318 395,-312"/>
<polyline fill="none" stroke="black" points="395,-312 395,-300 "/>
<path fill="none" stroke="black" d="M395,-300C395,-294 401,-288 407,-288"/>
<polyline fill="none" stroke="black" points="407,-288 489,-288 "/>
<path fill="none" stroke="black" d="M489,-288C495,-288 501,-294 501,-300"/>
<polyline fill="none" stroke="black" points="501,-300 501,-312 "/>
<path fill="none" stroke="black" d="M501,-312C501,-318 495,-324 489,-324"/>
<text text-anchor="middle" x="448" y="-302.4" font-family="Times Roman,serif" font-size="14.00">InstanceType</text>
</g>
<!-- InstanceType&#45;&gt;LaunchConfig -->
<g id="edge26" class="edge"><title>InstanceType&#45;&gt;LaunchConfig</title>
<path fill="none" stroke="black" d="M431.422,-287.762C412.603,-262.768 382.938,-217.692 366.127,-188.841"/>
<polygon fill="black" stroke="black" points="369.136,-187.052 361.15,-180.09 363.051,-190.513 369.136,-187.052"/>
</g>
<!-- InstanceType&#45;&gt;LaunchConfig -->
<g id="edge22" class="edge"><title>InstanceType&#45;&gt;LaunchConfig</title>
<path fill="none" stroke="black" d="M440.768,-287.762C426.896,-262.66 397.519,-217.302 376.645,-188.467"/>
<polygon fill="black" stroke="black" points="379.219,-186.06 370.467,-180.09 373.585,-190.215 379.219,-186.06"/>
</g>
<!-- AWS::Region -->
<g id="node21" class="node"><title>AWS::Region</title>
<polygon fill="none" stroke="black" points="542,-252 438,-252 438,-216 542,-216 542,-252"/>
<text text-anchor="middle" x="490" y="-230.4" font-family="Times Roman,serif" font-size="14.00">AWS::Region</text>
</g>
<!-- AWS::Region&#45;&gt;LaunchConfig -->
<g id="edge24" class="edge"><title>AWS::Region&#45;&gt;LaunchConfig</title>
<path fill="none" stroke="black" d="M455.681,-215.831C437.964,-206.452 416.166,-194.911 397.302,-184.924"/>
<polygon fill="black" stroke="black" points="398.783,-181.748 388.308,-180.163 395.508,-187.935 398.783,-181.748"/>
</g>
</g>
</svg>
