<?xml version="1.0" encoding="UTF-8" standalone="no"?>
<!DOCTYPE svg PUBLIC "-//W3C//DTD SVG 1.1//EN"
 "http://www.w3.org/Graphics/SVG/1.1/DTD/svg11.dtd">
<!-- Generated by graphviz version 2.26.3 (20100126.1600)
 -->
<!-- Title: AWS CloudFormation Sample Template AutoScalingKeepAtNSample: Create a load balanced, Auto Scaled sample website. This example creates an Auto Scaling group behind a load balancer with a simple health check using a basic getting start AMI that has a simple Apache Web Server&#45;based PHP page. The web site is available on port 80, however, the instances can be configured to listen on any port (8888 by default). **WARNING** This template creates one or more Amazon EC2 instances and an Elastic Load Balancer. You will be billed for the AWS resources used if you create a stack from this template. Pages: 1 -->
<svg width="584pt" height="332pt"
 viewBox="0.00 0.00 584.00 332.00" xmlns="http://www.w3.org/2000/svg" xmlns:xlink="http://www.w3.org/1999/xlink">
<g id="graph1" class="graph" transform="scale(1 1) rotate(0) translate(4 328)">
<title>AWS CloudFormation Sample Template AutoScalingKeepAtNSample: Create a load balanced, Auto Scaled sample website. This example creates an Auto Scaling group behind a load balancer with a simple health check using a basic getting start AMI that has a simple Apache Web Server&#45;based PHP page. The web site is available on port 80, however, the instances can be configured to listen on any port (8888 by default). **WARNING** This template creates one or more Amazon EC2 instances and an Elastic Load Balancer. You will be billed for the AWS resources used if you create a stack from this template.</title>
<polygon fill="white" stroke="white" points="-4,5 -4,-328 581,-328 581,5 -4,5"/>
<!-- ElasticLoadBalancer -->
<g id="node1" class="node"><title>ElasticLoadBalancer</title>
<polygon fill="none" stroke="black" points="154,-180 8.52651e-14,-180 0,-144 154,-144 154,-180"/>
<text text-anchor="middle" x="77" y="-158.4" font-family="Times Roman,serif" font-size="14.00">ElasticLoadBalancer</text>
</g>
<!-- WebServerGroup -->
<g id="node3" class="node"><title>WebServerGroup</title>
<polygon fill="none" stroke="black" points="331,-108 195,-108 195,-72 331,-72 331,-108"/>
<text text-anchor="middle" x="263" y="-86.4" font-family="Times Roman,serif" font-size="14.00">WebServerGroup</text>
</g>
<!-- ElasticLoadBalancer&#45;&gt;WebServerGroup -->
<g id="edge14" class="edge"><title>ElasticLoadBalancer&#45;&gt;WebServerGroup</title>
<path fill="none" stroke="black" d="M123.936,-143.831C149.144,-134.073 180.393,-121.977 206.879,-111.724"/>
<polygon fill="black" stroke="black" points="208.34,-114.912 216.402,-108.038 205.813,-108.384 208.34,-114.912"/>
</g>
<!-- URL -->
<g id="node11" class="node"><title>URL</title>
<polygon fill="lightgrey" stroke="lightgrey" points="92,-36 62,-36 50,-24 50,-12 62,-1.46056e-14 92,-6.71068e-15 104,-12 104,-24 92,-36"/>
<path fill="lightgrey" stroke="lightgrey" d="M62,-36C56,-36 50,-30 50,-24"/>
<path fill="lightgrey" stroke="lightgrey" d="M50,-12C50,-6 56,-1.61846e-14 62,-1.46056e-14"/>
<path fill="lightgrey" stroke="lightgrey" d="M92,-6.71068e-15C98,-5.1317e-15 104,-6 104,-12"/>
<path fill="lightgrey" stroke="lightgrey" d="M104,-24C104,-30 98,-36 92,-36"/>
<polyline fill="none" stroke="black" points="92,-36 62,-36 "/>
<path fill="none" stroke="black" d="M62,-36C56,-36 50,-30 50,-24"/>
<polyline fill="none" stroke="black" points="50,-24 50,-12 "/>
<path fill="none" stroke="black" d="M50,-12C50,-6 56,-1.61846e-14 62,-1.46056e-14"/>
<polyline fill="none" stroke="black" points="62,-1.46056e-14 92,-6.71068e-15 "/>
<path fill="none" stroke="black" d="M92,-6.71068e-15C98,-5.1317e-15 104,-6 104,-12"/>
<polyline fill="none" stroke="black" points="104,-12 104,-24 "/>
<path fill="none" stroke="black" d="M104,-24C104,-30 98,-36 92,-36"/>
<text text-anchor="middle" x="77" y="-14.4" font-family="Times Roman,serif" font-size="14.00">URL</text>
</g>
<!-- ElasticLoadBalancer&#45;&gt;URL -->
<g id="edge30" class="edge"><title>ElasticLoadBalancer&#45;&gt;URL</title>
<path fill="none" stroke="black" d="M77,-143.762C77,-119.201 77,-75.2474 77,-46.3541"/>
<polygon fill="black" stroke="black" points="80.5001,-46.0896 77,-36.0896 73.5001,-46.0897 80.5001,-46.0896"/>
</g>
<!-- InstanceSecurityGroup -->
<g id="node2" class="node"><title>InstanceSecurityGroup</title>
<polygon fill="none" stroke="black" points="326,-252 152,-252 152,-216 326,-216 326,-252"/>
<text text-anchor="middle" x="239" y="-230.4" font-family="Times Roman,serif" font-size="14.00">InstanceSecurityGroup</text>
</g>
<!-- LaunchConfig -->
<g id="node4" class="node"><title>LaunchConfig</title>
<polygon fill="none" stroke="black" points="409,-180 299,-180 299,-144 409,-144 409,-180"/>
<text text-anchor="middle" x="354" y="-158.4" font-family="Times Roman,serif" font-size="14.00">LaunchConfig</text>
</g>
<!-- InstanceSecurityGroup&#45;&gt;LaunchConfig -->
<g id="edge22" class="edge"><title>InstanceSecurityGroup&#45;&gt;LaunchConfig</title>
<path fill="none" stroke="black" d="M268.019,-215.831C282.729,-206.622 300.764,-195.33 316.512,-185.471"/>
<polygon fill="black" stroke="black" points="318.371,-188.436 324.99,-180.163 314.657,-182.503 318.371,-188.436"/>
</g>
<!-- LaunchConfig&#45;&gt;WebServerGroup -->
<g id="edge16" class="edge"><title>LaunchConfig&#45;&gt;WebServerGroup</title>
<path fill="none" stroke="black" d="M331.037,-143.831C319.828,-134.963 306.179,-124.164 294.056,-114.572"/>
<polygon fill="black" stroke="black" points="295.97,-111.623 285.956,-108.163 291.626,-117.112 295.97,-111.623"/>
</g>
<!-- SSHLocation -->
<g id="node6" class="node"><title>SSHLocation</title>
<polygon fill="lightgrey" stroke="lightgrey" points="281,-324 201,-324 189,-312 189,-300 201,-288 281,-288 293,-300 293,-312 281,-324"/>
<path fill="lightgrey" stroke="lightgrey" d="M201,-324C195,-324 189,-318 189,-312"/>
<path fill="lightgrey" stroke="lightgrey" d="M189,-300C189,-294 195,-288 201,-288"/>
<path fill="lightgrey" stroke="lightgrey" d="M281,-288C287,-288 293,-294 293,-300"/>
<path fill="lightgrey" stroke="lightgrey" d="M293,-312C293,-318 287,-324 281,-324"/>
<polyline fill="none" stroke="black" points="281,-324 201,-324 "/>
<path fill="none" stroke="black" d="M201,-324C195,-324 189,-318 189,-312"/>
<polyline fill="none" stroke="black" points="189,-312 189,-300 "/>
<path fill="none" stroke="black" d="M189,-300C189,-294 195,-288 201,-288"/>
<polyline fill="none" stroke="black" points="201,-288 281,-288 "/>
<path fill="none" stroke="black" d="M281,-288C287,-288 293,-294 293,-300"/>
<polyline fill="none" stroke="black" points="293,-300 293,-312 "/>
<path fill="none" stroke="black" d="M293,-312C293,-318 287,-324 281,-324"/>
<text text-anchor="middle" x="241" y="-302.4" font-family="Times Roman,serif" font-size="14.00">SSHLocation</text>
</g>
<!-- SSHLocation&#45;&gt;InstanceSecurityGroup -->
<g id="edge8" class="edge"><title>SSHLocation&#45;&gt;InstanceSecurityGroup</title>
<path fill="none" stroke="black" d="M240.495,-287.831C240.281,-280.131 240.027,-270.974 239.789,-262.417"/>
<polygon fill="black" stroke="black" points="243.288,-262.312 239.511,-252.413 236.291,-262.507 243.288,-262.312"/>
</g>
<!-- KeyName -->
<g id="node7" class="node"><title>KeyName</title>
<polygon fill="lightgrey" stroke="lightgrey" points="382,-324 326,-324 314,-312 314,-300 326,-288 382,-288 394,-300 394,-312 382,-324"/>
<path fill="lightgrey" stroke="lightgrey" d="M326,-324C320,-324 314,-318 314,-312"/>
<path fill="lightgrey" stroke="lightgrey" d="M314,-300C314,-294 320,-288 326,-288"/>
<path fill="lightgrey" stroke="lightgrey" d="M382,-288C388,-288 394,-294 394,-300"/>
<path fill="lightgrey" stroke="lightgrey" d="M394,-312C394,-318 388,-324 382,-324"/>
<polyline fill="none" stroke="black" points="382,-324 326,-324 "/>
<path fill="none" stroke="black" d="M326,-324C320,-324 314,-318 314,-312"/>
<polyline fill="none" stroke="black" points="314,-312 314,-300 "/>
<path fill="none" stroke="black" d="M314,-300C314,-294 320,-288 326,-288"/>
<polyline fill="none" stroke="black" points="326,-288 382,-288 "/>
<path fill="none" stroke="black" d="M382,-288C388,-288 394,-294 394,-300"/>
<polyline fill="none" stroke="black" points="394,-300 394,-312 "/>
<path fill="none" stroke="black" d="M394,-312C394,-318 388,-324 382,-324"/>
<text text-anchor="middle" x="354" y="-302.4" font-family="Times Roman,serif" font-size="14.00">KeyName</text>
</g>
<!-- KeyName&#45;&gt;LaunchConfig -->
<g id="edge20" class="edge"><title>KeyName&#45;&gt;LaunchConfig</title>
<path fill="none" stroke="black" d="M354,-287.762C354,-263.201 354,-219.247 354,-190.354"/>
<polygon fill="black" stroke="black" points="357.5,-190.09 354,-180.09 350.5,-190.09 357.5,-190.09"/>
</g>
<!-- WebServerPort -->
<g id="node8" class="node"><title>WebServerPort</title>
<polygon fill="lightgrey" stroke="lightgrey" points="159,-324 61,-324 49,-312 49,-300 61,-288 159,-288 171,-300 171,-312 159,-324"/>
<path fill="lightgrey" stroke="lightgrey" d="M61,-324C55,-324 49,-318 49,-312"/>
<path fill="lightgrey" stroke="lightgrey" d="M49,-300C49,-294 55,-288 61,-288"/>
<path fill="lightgrey" stroke="lightgrey" d="M159,-288C165,-288 171,-294 171,-300"/>
<path fill="lightgrey" stroke="lightgrey" d="M171,-312C171,-318 165,-324 159,-324"/>
<polyline fill="none" stroke="black" points="159,-324 61,-324 "/>
<path fill="none" stroke="black" d="M61,-324C55,-324 49,-318 49,-312"/>
<polyline fill="none" stroke="black" points="49,-312 49,-300 "/>
<path fill="none" stroke="black" d="M49,-300C49,-294 55,-288 61,-288"/>
<polyline fill="none" stroke="black" points="61,-288 159,-288 "/>
<path fill="none" stroke="black" d="M159,-288C165,-288 171,-294 171,-300"/>
<polyline fill="none" stroke="black" points="171,-300 171,-312 "/>
<path fill="none" stroke="black" d="M171,-312C171,-318 165,-324 159,-324"/>
<text text-anchor="middle" x="110" y="-302.4" font-family="Times Roman,serif" font-size="14.00">WebServerPort</text>
</g>
<!-- WebServerPort&#45;&gt;ElasticLoadBalancer -->
<g id="edge4" class="edge"><title>WebServerPort&#45;&gt;ElasticLoadBalancer</title>
<path fill="none" stroke="black" d="M101.147,-287.762C93.0589,-263.201 82.7115,-219.247 78.0004,-190.354"/>
<polygon fill="black" stroke="black" points="81.4083,-189.472 76.4872,-180.09 74.4831,-190.493 81.4083,-189.472"/>
</g>
<!-- WebServerPort&#45;&gt;ElasticLoadBalancer -->
<g id="edge6" class="edge"><title>WebServerPort&#45;&gt;ElasticLoadBalancer</title>
<path fill="none" stroke="black" d="M110.494,-287.762C107.311,-263.093 97.4405,-218.86 88.8825,-189.973"/>
<polygon fill="black" stroke="black" points="92.1196,-188.596 85.8038,-180.09 85.4363,-190.678 92.1196,-188.596"/>
</g>
<!-- WebServerPort&#45;&gt;InstanceSecurityGroup -->
<g id="edge10" class="edge"><title>WebServerPort&#45;&gt;InstanceSecurityGroup</title>
<path fill="none" stroke="black" d="M136.6,-287.831C152.491,-278.452 173.039,-266.911 191.59,-256.924"/>
<polygon fill="black" stroke="black" points="193.334,-259.961 200.506,-252.163 190.037,-253.786 193.334,-259.961"/>
</g>
<!-- WebServerPort&#45;&gt;InstanceSecurityGroup -->
<g id="edge12" class="edge"><title>WebServerPort&#45;&gt;InstanceSecurityGroup</title>
<path fill="none" stroke="black" d="M148.505,-287.831C165.902,-278.622 186.274,-267.33 203.321,-257.471"/>
<polygon fill="black" stroke="black" points="205.54,-260.228 212.41,-252.163 202.01,-254.183 205.54,-260.228"/>
</g>
<!-- WebServerPort&#45;&gt;LaunchConfig -->
<g id="edge18" class="edge"><title>WebServerPort&#45;&gt;LaunchConfig</title>
<path fill="none" stroke="black" d="M111.716,-287.687C114.621,-267.258 122.382,-234.636 143,-216 164.379,-196.676 235.103,-181.22 288.831,-171.876"/>
<polygon fill="black" stroke="black" points="289.719,-175.275 298.99,-170.146 288.544,-168.374 289.719,-175.275"/>
</g>
<!-- InstanceType -->
<g id="node9" class="node"><title>InstanceType</title>
<polygon fill="lightgrey" stroke="lightgrey" points="564,-324 482,-324 470,-312 470,-300 482,-288 564,-288 576,-300 576,-312 564,-324"/>
<path fill="lightgrey" stroke="lightgrey" d="M482,-324C476,-324 470,-318 470,-312"/>
<path fill="lightgrey" stroke="lightgrey" d="M470,-300C470,-294 476,-288 482,-288"/>
<path fill="lightgrey" stroke="lightgrey" d="M564,-288C570,-288 576,-294 576,-300"/>
<path fill="lightgrey" stroke="lightgrey" d="M576,-312C576,-318 570,-324 564,-324"/>
<polyline fill="none" stroke="black" points="564,-324 482,-324 "/>
<path fill="none" stroke="black" d="M482,-324C476,-324 470,-318 470,-312"/>
<polyline fill="none" stroke="black" points="470,-312 470,-300 "/>
<path fill="none" stroke="black" d="M470,-300C470,-294 476,-288 482,-288"/>
<polyline fill="none" stroke="black" points="482,-288 564,-288 "/>
<path fill="none" stroke="black" d="M564,-288C570,-288 576,-294 576,-300"/>
<polyline fill="none" stroke="black" points="576,-300 576,-312 "/>
<path fill="none" stroke="black" d="M576,-312C576,-318 570,-324 564,-324"/>
<text text-anchor="middle" x="523" y="-302.4" font-family="Times Roman,serif" font-size="14.00">InstanceType</text>
</g>
<!-- InstanceType&#45;&gt;LaunchConfig -->
<g id="edge24" class="edge"><title>InstanceType&#45;&gt;LaunchConfig</title>
<path fill="none" stroke="black" d="M515.395,-287.797C510.839,-267.774 504.582,-235.814 486,-216 468.112,-196.927 442.755,-184.518 418.999,-176.477"/>
<polygon fill="black" stroke="black" points="419.884,-173.086 409.294,-173.396 417.766,-179.758 419.884,-173.086"/>
</g>
<!-- InstanceType&#45;&gt;LaunchConfig -->
<g id="edge28" class="edge"><title>InstanceType&#45;&gt;LaunchConfig</title>
<path fill="none" stroke="black" d="M528.487,-287.797C528.839,-267.774 522.582,-235.814 504,-216 482.009,-192.552 448.73,-179.177 419.035,-171.605"/>
<polygon fill="black" stroke="black" points="419.661,-168.157 409.123,-169.254 418.045,-174.968 419.661,-168.157"/>
</g>
<!-- AWS::Region -->
<g id="node23" class="node"><title>AWS::Region</title>
<polygon fill="none" stroke="black" points="486,-252 382,-252 382,-216 486,-216 486,-252"/>
<text text-anchor="middle" x="434" y="-230.4" font-family="Times Roman,serif" font-size="14.00">AWS::Region</text>
</g>
<!-- AWS::Region&#45;&gt;LaunchConfig -->
<g id="edge26" class="edge"><title>AWS::Region&#45;&gt;LaunchConfig</title>
<path fill="none" stroke="black" d="M413.813,-215.831C404.149,-207.134 392.42,-196.578 381.918,-187.127"/>
<polygon fill="black" stroke="black" points="383.955,-184.251 374.181,-180.163 379.272,-189.454 383.955,-184.251"/>
</g>
</g>
</svg>
