<?xml version="1.0" encoding="UTF-8" standalone="no"?>
<!DOCTYPE svg PUBLIC "-//W3C//DTD SVG 1.1//EN"
 "http://www.w3.org/Graphics/SVG/1.1/DTD/svg11.dtd">
<!-- Generated by graphviz version 2.26.3 (20100126.1600)
 -->
<!-- Title: Sample template to bring up an Auto Scaling group running an application deployed via Opscode Chef solo. This template is a building block template, designed to be called from a parent template. A WaitCondition is used to hold up the stack creation until the application is deployed. **WARNING** This template creates one or more Amazon EC2 instances and CloudWatch alarms. You will be billed for the AWS resources used if you create a stack from this template. Pages: 1 -->
<svg width="1588pt" height="476pt"
 viewBox="0.00 0.00 1588.00 476.00" xmlns="http://www.w3.org/2000/svg" xmlns:xlink="http://www.w3.org/1999/xlink">
<g id="graph1" class="graph" transform="scale(1 1) rotate(0) translate(4 472)">
<title>Sample template to bring up an Auto Scaling group running an application deployed via Opscode Chef solo. This template is a building block template, designed to be called from a parent template. A WaitCondition is used to hold up the stack creation until the application is deployed. **WARNING** This template creates one or more Amazon EC2 instances and CloudWatch alarms. You will be billed for the AWS resources used if you create a stack from this template.</title>
<polygon fill="white" stroke="white" points="-4,5 -4,-472 1585,-472 1585,5 -4,5"/>
<!-- CfnUser -->
<g id="node1" class="node"><title>CfnUser</title>
<polygon fill="none" stroke="black" points="1073,-396 1003,-396 1003,-360 1073,-360 1073,-396"/>
<text text-anchor="middle" x="1038" y="-374.4" font-family="Times Roman,serif" font-size="14.00">CfnUser</text>
</g>
<!-- HostKeys -->
<g id="node7" class="node"><title>HostKeys</title>
<polygon fill="none" stroke="black" points="1073,-324 993,-324 993,-288 1073,-288 1073,-324"/>
<text text-anchor="middle" x="1033" y="-302.4" font-family="Times Roman,serif" font-size="14.00">HostKeys</text>
</g>
<!-- CfnUser&#45;&gt;HostKeys -->
<g id="edge68" class="edge"><title>CfnUser&#45;&gt;HostKeys</title>
<path fill="none" stroke="black" d="M1036.74,-359.831C1036.2,-352.131 1035.57,-342.974 1034.97,-334.417"/>
<polygon fill="black" stroke="black" points="1038.46,-334.147 1034.28,-324.413 1031.48,-334.632 1038.46,-334.147"/>
</g>
<!-- WebServerGroup -->
<g id="node2" class="node"><title>WebServerGroup</title>
<polygon fill="none" stroke="black" points="959,-180 823,-180 823,-144 959,-144 959,-180"/>
<text text-anchor="middle" x="891" y="-158.4" font-family="Times Roman,serif" font-size="14.00">WebServerGroup</text>
</g>
<!-- CPUAlarmHigh -->
<g id="node8" class="node"><title>CPUAlarmHigh</title>
<polygon fill="none" stroke="black" points="798,-108 680,-108 680,-72 798,-72 798,-108"/>
<text text-anchor="middle" x="739" y="-86.4" font-family="Times Roman,serif" font-size="14.00">CPUAlarmHigh</text>
</g>
<!-- WebServerGroup&#45;&gt;CPUAlarmHigh -->
<g id="edge70" class="edge"><title>WebServerGroup&#45;&gt;CPUAlarmHigh</title>
<path fill="none" stroke="black" d="M852.644,-143.831C832.496,-134.287 807.625,-122.506 786.292,-112.401"/>
<polygon fill="black" stroke="black" points="787.616,-109.156 777.08,-108.038 784.619,-115.482 787.616,-109.156"/>
</g>
<!-- LaunchConfig -->
<g id="node3" class="node"><title>LaunchConfig</title>
<polygon fill="none" stroke="black" points="1088,-252 978,-252 978,-216 1088,-216 1088,-252"/>
<text text-anchor="middle" x="1033" y="-230.4" font-family="Times Roman,serif" font-size="14.00">LaunchConfig</text>
</g>
<!-- LaunchConfig&#45;&gt;WebServerGroup -->
<g id="edge8" class="edge"><title>LaunchConfig&#45;&gt;WebServerGroup</title>
<path fill="none" stroke="black" d="M997.167,-215.831C978.584,-206.409 955.701,-194.806 935.944,-184.788"/>
<polygon fill="black" stroke="black" points="937.323,-181.564 926.821,-180.163 934.157,-187.807 937.323,-181.564"/>
</g>
<!-- LockInstancesDown -->
<g id="node4" class="node"><title>LockInstancesDown</title>
<polygon fill="none" stroke="black" points="720,-252 566,-252 566,-216 720,-216 720,-252"/>
<text text-anchor="middle" x="643" y="-230.4" font-family="Times Roman,serif" font-size="14.00">LockInstancesDown</text>
</g>
<!-- TooManyUnhealthyHostsAlarm -->
<g id="node5" class="node"><title>TooManyUnhealthyHostsAlarm</title>
<polygon fill="none" stroke="black" points="256,-252 28,-252 28,-216 256,-216 256,-252"/>
<text text-anchor="middle" x="142" y="-230.4" font-family="Times Roman,serif" font-size="14.00">TooManyUnhealthyHostsAlarm</text>
</g>
<!-- ElasticLoadBalancer -->
<g id="node6" class="node"><title>ElasticLoadBalancer</title>
<polygon fill="none" stroke="black" points="577,-324 423,-324 423,-288 577,-288 577,-324"/>
<text text-anchor="middle" x="500" y="-302.4" font-family="Times Roman,serif" font-size="14.00">ElasticLoadBalancer</text>
</g>
<!-- ElasticLoadBalancer&#45;&gt;WebServerGroup -->
<g id="edge6" class="edge"><title>ElasticLoadBalancer&#45;&gt;WebServerGroup</title>
<path fill="none" stroke="black" d="M506.236,-287.846C514.427,-266.923 530.911,-233.215 557,-216 597.929,-188.993 727.542,-174.245 812.75,-167.252"/>
<polygon fill="black" stroke="black" points="813.223,-170.725 822.912,-166.437 812.664,-163.748 813.223,-170.725"/>
</g>
<!-- ElasticLoadBalancer&#45;&gt;LockInstancesDown -->
<g id="edge50" class="edge"><title>ElasticLoadBalancer&#45;&gt;LockInstancesDown</title>
<path fill="none" stroke="black" d="M530.133,-287.831C548.158,-278.287 571.439,-266.506 592.206,-256.401"/>
<polygon fill="black" stroke="black" points="593.754,-259.541 601.235,-252.038 590.708,-253.238 593.754,-259.541"/>
</g>
<!-- ElasticLoadBalancer&#45;&gt;LockInstancesDown -->
<g id="edge52" class="edge"><title>ElasticLoadBalancer&#45;&gt;LockInstancesDown</title>
<path fill="none" stroke="black" d="M542.037,-287.831C561.581,-278.452 584.63,-266.911 603.807,-256.924"/>
<polygon fill="black" stroke="black" points="605.651,-259.91 612.878,-252.163 602.397,-253.712 605.651,-259.91"/>
</g>
<!-- ElasticLoadBalancer&#45;&gt;TooManyUnhealthyHostsAlarm -->
<g id="edge56" class="edge"><title>ElasticLoadBalancer&#45;&gt;TooManyUnhealthyHostsAlarm</title>
<path fill="none" stroke="black" d="M422.76,-290.466C369.823,-279.819 299.105,-265.597 241.888,-254.089"/>
<polygon fill="black" stroke="black" points="242.229,-250.588 231.735,-252.047 240.848,-257.45 242.229,-250.588"/>
</g>
<!-- RequestLatencyAlarmHigh -->
<g id="node9" class="node"><title>RequestLatencyAlarmHigh</title>
<polygon fill="none" stroke="black" points="472,-252 274,-252 274,-216 472,-216 472,-252"/>
<text text-anchor="middle" x="373" y="-230.4" font-family="Times Roman,serif" font-size="14.00">RequestLatencyAlarmHigh</text>
</g>
<!-- ElasticLoadBalancer&#45;&gt;RequestLatencyAlarmHigh -->
<g id="edge74" class="edge"><title>ElasticLoadBalancer&#45;&gt;RequestLatencyAlarmHigh</title>
<path fill="none" stroke="black" d="M467.953,-287.831C451.558,-278.537 431.421,-267.121 413.917,-257.197"/>
<polygon fill="black" stroke="black" points="415.463,-254.05 405.037,-252.163 412.01,-260.139 415.463,-254.05"/>
</g>
<!-- URL -->
<g id="node24" class="node"><title>URL</title>
<polygon fill="lightgrey" stroke="lightgrey" points="515,-36 485,-36 473,-24 473,-12 485,-1.46056e-14 515,-6.71068e-15 527,-12 527,-24 515,-36"/>
<path fill="lightgrey" stroke="lightgrey" d="M485,-36C479,-36 473,-30 473,-24"/>
<path fill="lightgrey" stroke="lightgrey" d="M473,-12C473,-6 479,-1.61846e-14 485,-1.46056e-14"/>
<path fill="lightgrey" stroke="lightgrey" d="M515,-6.71068e-15C521,-5.1317e-15 527,-6 527,-12"/>
<path fill="lightgrey" stroke="lightgrey" d="M527,-24C527,-30 521,-36 515,-36"/>
<polyline fill="none" stroke="black" points="515,-36 485,-36 "/>
<path fill="none" stroke="black" d="M485,-36C479,-36 473,-30 473,-24"/>
<polyline fill="none" stroke="black" points="473,-24 473,-12 "/>
<path fill="none" stroke="black" d="M473,-12C473,-6 479,-1.61846e-14 485,-1.46056e-14"/>
<polyline fill="none" stroke="black" points="485,-1.46056e-14 515,-6.71068e-15 "/>
<path fill="none" stroke="black" d="M515,-6.71068e-15C521,-5.1317e-15 527,-6 527,-12"/>
<polyline fill="none" stroke="black" points="527,-12 527,-24 "/>
<path fill="none" stroke="black" d="M527,-24C527,-30 521,-36 515,-36"/>
<text text-anchor="middle" x="500" y="-14.4" font-family="Times Roman,serif" font-size="14.00">URL</text>
</g>
<!-- ElasticLoadBalancer&#45;&gt;URL -->
<g id="edge82" class="edge"><title>ElasticLoadBalancer&#45;&gt;URL</title>
<path fill="none" stroke="black" d="M500,-287.984C500,-239.294 500,-104.796 500,-46.0573"/>
<polygon fill="black" stroke="black" points="503.5,-46.0088 500,-36.0089 496.5,-46.0089 503.5,-46.0088"/>
</g>
<!-- HostKeys&#45;&gt;LaunchConfig -->
<g id="edge26" class="edge"><title>HostKeys&#45;&gt;LaunchConfig</title>
<path fill="none" stroke="black" d="M1015.14,-287.831C1012.89,-280.131 1012.23,-270.974 1013.15,-262.417"/>
<polygon fill="black" stroke="black" points="1016.63,-262.893 1015.07,-252.413 1009.75,-261.576 1016.63,-262.893"/>
</g>
<!-- HostKeys&#45;&gt;LaunchConfig -->
<g id="edge28" class="edge"><title>HostKeys&#45;&gt;LaunchConfig</title>
<path fill="none" stroke="black" d="M1050.86,-287.831C1053.11,-280.131 1053.77,-270.974 1052.85,-262.417"/>
<polygon fill="black" stroke="black" points="1056.25,-261.576 1050.93,-252.413 1049.37,-262.893 1056.25,-261.576"/>
</g>
<!-- HostKeys&#45;&gt;LaunchConfig -->
<g id="edge16" class="edge"><title>HostKeys&#45;&gt;LaunchConfig</title>
<path fill="none" stroke="black" d="M1027.05,-287.831C1026.3,-280.131 1026.08,-270.974 1026.38,-262.417"/>
<polygon fill="black" stroke="black" points="1029.88,-262.616 1027.02,-252.413 1022.89,-262.17 1029.88,-262.616"/>
</g>
<!-- HostKeys&#45;&gt;LaunchConfig -->
<g id="edge18" class="edge"><title>HostKeys&#45;&gt;LaunchConfig</title>
<path fill="none" stroke="black" d="M1038.95,-287.831C1039.7,-280.131 1039.92,-270.974 1039.62,-262.417"/>
<polygon fill="black" stroke="black" points="1043.11,-262.17 1038.98,-252.413 1036.12,-262.616 1043.11,-262.17"/>
</g>
<!-- WaitCondition -->
<g id="node10" class="node"><title>WaitCondition</title>
<polygon fill="none" stroke="black" points="1450,-252 1336,-252 1336,-216 1450,-216 1450,-252"/>
<text text-anchor="middle" x="1393" y="-230.4" font-family="Times Roman,serif" font-size="14.00">WaitCondition</text>
</g>
<!-- WaitHandle -->
<g id="node11" class="node"><title>WaitHandle</title>
<polygon fill="none" stroke="black" points="1411,-324 1315,-324 1315,-288 1411,-288 1411,-324"/>
<text text-anchor="middle" x="1363" y="-302.4" font-family="Times Roman,serif" font-size="14.00">WaitHandle</text>
</g>
<!-- WaitHandle&#45;&gt;LaunchConfig -->
<g id="edge32" class="edge"><title>WaitHandle&#45;&gt;LaunchConfig</title>
<path fill="none" stroke="black" d="M1314.94,-294.075C1307.25,-291.938 1299.4,-289.817 1292,-288 1226.29,-271.871 1150.65,-256.959 1098.08,-246.911"/>
<polygon fill="black" stroke="black" points="1098.69,-243.464 1088.21,-245.03 1097.38,-250.341 1098.69,-243.464"/>
</g>
<!-- WaitHandle&#45;&gt;LaunchConfig -->
<g id="edge12" class="edge"><title>WaitHandle&#45;&gt;LaunchConfig</title>
<path fill="none" stroke="black" d="M1314.95,-289.244C1313.29,-288.816 1311.63,-288.401 1310,-288 1238.14,-270.363 1154.42,-254.182 1097.9,-244.224"/>
<polygon fill="black" stroke="black" points="1098.47,-240.771 1088.02,-242.498 1097.27,-247.667 1098.47,-240.771"/>
</g>
<!-- WaitHandle&#45;&gt;WaitCondition -->
<g id="edge80" class="edge"><title>WaitHandle&#45;&gt;WaitCondition</title>
<path fill="none" stroke="black" d="M1370.57,-287.831C1373.85,-279.962 1377.76,-270.571 1381.39,-261.853"/>
<polygon fill="black" stroke="black" points="1384.71,-262.99 1385.33,-252.413 1378.25,-260.298 1384.71,-262.99"/>
</g>
<!-- HealthCheckPath -->
<g id="node13" class="node"><title>HealthCheckPath</title>
<polygon fill="lightgrey" stroke="lightgrey" points="457,-468 345,-468 333,-456 333,-444 345,-432 457,-432 469,-444 469,-456 457,-468"/>
<path fill="lightgrey" stroke="lightgrey" d="M345,-468C339,-468 333,-462 333,-456"/>
<path fill="lightgrey" stroke="lightgrey" d="M333,-444C333,-438 339,-432 345,-432"/>
<path fill="lightgrey" stroke="lightgrey" d="M457,-432C463,-432 469,-438 469,-444"/>
<path fill="lightgrey" stroke="lightgrey" d="M469,-456C469,-462 463,-468 457,-468"/>
<polyline fill="none" stroke="black" points="457,-468 345,-468 "/>
<path fill="none" stroke="black" d="M345,-468C339,-468 333,-462 333,-456"/>
<polyline fill="none" stroke="black" points="333,-456 333,-444 "/>
<path fill="none" stroke="black" d="M333,-444C333,-438 339,-432 345,-432"/>
<polyline fill="none" stroke="black" points="345,-432 457,-432 "/>
<path fill="none" stroke="black" d="M457,-432C463,-432 469,-438 469,-444"/>
<polyline fill="none" stroke="black" points="469,-444 469,-456 "/>
<path fill="none" stroke="black" d="M469,-456C469,-462 463,-468 457,-468"/>
<text text-anchor="middle" x="401" y="-446.4" font-family="Times Roman,serif" font-size="14.00">HealthCheckPath</text>
</g>
<!-- HealthCheckPath&#45;&gt;ElasticLoadBalancer -->
<g id="edge62" class="edge"><title>HealthCheckPath&#45;&gt;ElasticLoadBalancer</title>
<path fill="none" stroke="black" d="M413.538,-431.762C430.796,-406.66 461.98,-361.302 481.804,-332.467"/>
<polygon fill="black" stroke="black" points="484.782,-334.313 487.563,-324.09 479.014,-330.347 484.782,-334.313"/>
</g>
<!-- EC2SecurityGroup -->
<g id="node14" class="node"><title>EC2SecurityGroup</title>
<polygon fill="lightgrey" stroke="lightgrey" points="759,-468 639,-468 627,-456 627,-444 639,-432 759,-432 771,-444 771,-456 759,-468"/>
<path fill="lightgrey" stroke="lightgrey" d="M639,-468C633,-468 627,-462 627,-456"/>
<path fill="lightgrey" stroke="lightgrey" d="M627,-444C627,-438 633,-432 639,-432"/>
<path fill="lightgrey" stroke="lightgrey" d="M759,-432C765,-432 771,-438 771,-444"/>
<path fill="lightgrey" stroke="lightgrey" d="M771,-456C771,-462 765,-468 759,-468"/>
<polyline fill="none" stroke="black" points="759,-468 639,-468 "/>
<path fill="none" stroke="black" d="M639,-468C633,-468 627,-462 627,-456"/>
<polyline fill="none" stroke="black" points="627,-456 627,-444 "/>
<path fill="none" stroke="black" d="M627,-444C627,-438 633,-432 639,-432"/>
<polyline fill="none" stroke="black" points="639,-432 759,-432 "/>
<path fill="none" stroke="black" d="M759,-432C765,-432 771,-438 771,-444"/>
<polyline fill="none" stroke="black" points="771,-444 771,-456 "/>
<path fill="none" stroke="black" d="M771,-456C771,-462 765,-468 759,-468"/>
<text text-anchor="middle" x="699" y="-446.4" font-family="Times Roman,serif" font-size="14.00">EC2SecurityGroup</text>
</g>
<!-- EC2SecurityGroup&#45;&gt;LaunchConfig -->
<g id="edge36" class="edge"><title>EC2SecurityGroup&#45;&gt;LaunchConfig</title>
<path fill="none" stroke="black" d="M698.204,-431.726C698.307,-411.937 701.402,-380.465 718,-360 780.013,-283.542 895.323,-253.212 967.903,-241.368"/>
<polygon fill="black" stroke="black" points="968.509,-244.816 977.85,-239.817 967.43,-237.9 968.509,-244.816"/>
</g>
<!-- EC2SecurityGroup&#45;&gt;LockInstancesDown -->
<g id="edge48" class="edge"><title>EC2SecurityGroup&#45;&gt;LockInstancesDown</title>
<path fill="none" stroke="black" d="M694.322,-431.955C684.542,-394.235 661.879,-306.819 650.218,-261.84"/>
<polygon fill="black" stroke="black" points="653.602,-260.947 647.704,-252.145 646.826,-262.703 653.602,-260.947"/>
</g>
<!-- StackNameOrId -->
<g id="node15" class="node"><title>StackNameOrId</title>
<polygon fill="lightgrey" stroke="lightgrey" points="958,-468 858,-468 846,-456 846,-444 858,-432 958,-432 970,-444 970,-456 958,-468"/>
<path fill="lightgrey" stroke="lightgrey" d="M858,-468C852,-468 846,-462 846,-456"/>
<path fill="lightgrey" stroke="lightgrey" d="M846,-444C846,-438 852,-432 858,-432"/>
<path fill="lightgrey" stroke="lightgrey" d="M958,-432C964,-432 970,-438 970,-444"/>
<path fill="lightgrey" stroke="lightgrey" d="M970,-456C970,-462 964,-468 958,-468"/>
<polyline fill="none" stroke="black" points="958,-468 858,-468 "/>
<path fill="none" stroke="black" d="M858,-468C852,-468 846,-462 846,-456"/>
<polyline fill="none" stroke="black" points="846,-456 846,-444 "/>
<path fill="none" stroke="black" d="M846,-444C846,-438 852,-432 858,-432"/>
<polyline fill="none" stroke="black" points="858,-432 958,-432 "/>
<path fill="none" stroke="black" d="M958,-432C964,-432 970,-438 970,-444"/>
<polyline fill="none" stroke="black" points="970,-444 970,-456 "/>
<path fill="none" stroke="black" d="M970,-456C970,-462 964,-468 958,-468"/>
<text text-anchor="middle" x="908" y="-446.4" font-family="Times Roman,serif" font-size="14.00">StackNameOrId</text>
</g>
<!-- StackNameOrId&#45;&gt;LaunchConfig -->
<g id="edge22" class="edge"><title>StackNameOrId&#45;&gt;LaunchConfig</title>
<path fill="none" stroke="black" d="M970.016,-432.625C1018.56,-418.73 1078.46,-400.807 1082,-396 1110.47,-357.355 1099.29,-332.779 1082,-288 1077.88,-277.331 1070.57,-267.467 1062.83,-259.168"/>
<polygon fill="black" stroke="black" points="1065.22,-256.611 1055.68,-252.009 1060.27,-261.558 1065.22,-256.611"/>
</g>
<!-- KeyName -->
<g id="node16" class="node"><title>KeyName</title>
<polygon fill="lightgrey" stroke="lightgrey" points="1056,-468 1000,-468 988,-456 988,-444 1000,-432 1056,-432 1068,-444 1068,-456 1056,-468"/>
<path fill="lightgrey" stroke="lightgrey" d="M1000,-468C994,-468 988,-462 988,-456"/>
<path fill="lightgrey" stroke="lightgrey" d="M988,-444C988,-438 994,-432 1000,-432"/>
<path fill="lightgrey" stroke="lightgrey" d="M1056,-432C1062,-432 1068,-438 1068,-444"/>
<path fill="lightgrey" stroke="lightgrey" d="M1068,-456C1068,-462 1062,-468 1056,-468"/>
<polyline fill="none" stroke="black" points="1056,-468 1000,-468 "/>
<path fill="none" stroke="black" d="M1000,-468C994,-468 988,-462 988,-456"/>
<polyline fill="none" stroke="black" points="988,-456 988,-444 "/>
<path fill="none" stroke="black" d="M988,-444C988,-438 994,-432 1000,-432"/>
<polyline fill="none" stroke="black" points="1000,-432 1056,-432 "/>
<path fill="none" stroke="black" d="M1056,-432C1062,-432 1068,-438 1068,-444"/>
<polyline fill="none" stroke="black" points="1068,-444 1068,-456 "/>
<path fill="none" stroke="black" d="M1068,-456C1068,-462 1062,-468 1056,-468"/>
<text text-anchor="middle" x="1028" y="-446.4" font-family="Times Roman,serif" font-size="14.00">KeyName</text>
</g>
<!-- KeyName&#45;&gt;LaunchConfig -->
<g id="edge34" class="edge"><title>KeyName&#45;&gt;LaunchConfig</title>
<path fill="none" stroke="black" d="M1068.15,-435.604C1085.85,-427.018 1104.89,-414.176 1115,-396 1138.33,-354.053 1137.77,-330.256 1115,-288 1108.3,-275.563 1097.34,-265.518 1085.59,-257.621"/>
<polygon fill="black" stroke="black" points="1087.28,-254.551 1076.93,-252.247 1083.58,-260.497 1087.28,-254.551"/>
</g>
<!-- ResourceName -->
<g id="node17" class="node"><title>ResourceName</title>
<polygon fill="lightgrey" stroke="lightgrey" points="1192,-468 1098,-468 1086,-456 1086,-444 1098,-432 1192,-432 1204,-444 1204,-456 1192,-468"/>
<path fill="lightgrey" stroke="lightgrey" d="M1098,-468C1092,-468 1086,-462 1086,-456"/>
<path fill="lightgrey" stroke="lightgrey" d="M1086,-444C1086,-438 1092,-432 1098,-432"/>
<path fill="lightgrey" stroke="lightgrey" d="M1192,-432C1198,-432 1204,-438 1204,-444"/>
<path fill="lightgrey" stroke="lightgrey" d="M1204,-456C1204,-462 1198,-468 1192,-468"/>
<polyline fill="none" stroke="black" points="1192,-468 1098,-468 "/>
<path fill="none" stroke="black" d="M1098,-468C1092,-468 1086,-462 1086,-456"/>
<polyline fill="none" stroke="black" points="1086,-456 1086,-444 "/>
<path fill="none" stroke="black" d="M1086,-444C1086,-438 1092,-432 1098,-432"/>
<polyline fill="none" stroke="black" points="1098,-432 1192,-432 "/>
<path fill="none" stroke="black" d="M1192,-432C1198,-432 1204,-438 1204,-444"/>
<polyline fill="none" stroke="black" points="1204,-444 1204,-456 "/>
<path fill="none" stroke="black" d="M1204,-456C1204,-462 1198,-468 1192,-468"/>
<text text-anchor="middle" x="1145" y="-446.4" font-family="Times Roman,serif" font-size="14.00">ResourceName</text>
</g>
<!-- ResourceName&#45;&gt;LaunchConfig -->
<g id="edge24" class="edge"><title>ResourceName&#45;&gt;LaunchConfig</title>
<path fill="none" stroke="black" d="M1149.34,-431.972C1155.94,-400.089 1164.88,-332.891 1136,-288 1126.82,-273.728 1112.56,-263.006 1097.55,-255.042"/>
<polygon fill="black" stroke="black" points="1098.67,-251.692 1088.15,-250.433 1095.59,-257.977 1098.67,-251.692"/>
</g>
<!-- WebServerPort -->
<g id="node18" class="node"><title>WebServerPort</title>
<polygon fill="lightgrey" stroke="lightgrey" points="597,-468 499,-468 487,-456 487,-444 499,-432 597,-432 609,-444 609,-456 597,-468"/>
<path fill="lightgrey" stroke="lightgrey" d="M499,-468C493,-468 487,-462 487,-456"/>
<path fill="lightgrey" stroke="lightgrey" d="M487,-444C487,-438 493,-432 499,-432"/>
<path fill="lightgrey" stroke="lightgrey" d="M597,-432C603,-432 609,-438 609,-444"/>
<path fill="lightgrey" stroke="lightgrey" d="M609,-456C609,-462 603,-468 597,-468"/>
<polyline fill="none" stroke="black" points="597,-468 499,-468 "/>
<path fill="none" stroke="black" d="M499,-468C493,-468 487,-462 487,-456"/>
<polyline fill="none" stroke="black" points="487,-456 487,-444 "/>
<path fill="none" stroke="black" d="M487,-444C487,-438 493,-432 499,-432"/>
<polyline fill="none" stroke="black" points="499,-432 597,-432 "/>
<path fill="none" stroke="black" d="M597,-432C603,-432 609,-438 609,-444"/>
<polyline fill="none" stroke="black" points="609,-444 609,-456 "/>
<path fill="none" stroke="black" d="M609,-456C609,-462 603,-468 597,-468"/>
<text text-anchor="middle" x="548" y="-446.4" font-family="Times Roman,serif" font-size="14.00">WebServerPort</text>
</g>
<!-- WebServerPort&#45;&gt;LockInstancesDown -->
<g id="edge46" class="edge"><title>WebServerPort&#45;&gt;LockInstancesDown</title>
<path fill="none" stroke="black" d="M551.99,-431.955C565.17,-394.076 603.631,-306.082 626.337,-261.274"/>
<polygon fill="black" stroke="black" points="629.574,-262.635 631.064,-252.145 623.358,-259.415 629.574,-262.635"/>
</g>
<!-- WebServerPort&#45;&gt;LockInstancesDown -->
<g id="edge54" class="edge"><title>WebServerPort&#45;&gt;LockInstancesDown</title>
<path fill="none" stroke="black" d="M559.882,-431.955C579.98,-394.156 618.801,-306.451 635.567,-261.556"/>
<polygon fill="black" stroke="black" points="638.861,-262.739 638.975,-252.145 632.279,-260.356 638.861,-262.739"/>
</g>
<!-- WebServerPort&#45;&gt;ElasticLoadBalancer -->
<g id="edge60" class="edge"><title>WebServerPort&#45;&gt;ElasticLoadBalancer</title>
<path fill="none" stroke="black" d="M537.248,-431.762C526.554,-407.093 511.543,-362.86 503.852,-333.973"/>
<polygon fill="black" stroke="black" points="507.201,-332.937 501.372,-324.09 500.411,-334.641 507.201,-332.937"/>
</g>
<!-- WebServerPort&#45;&gt;ElasticLoadBalancer -->
<g id="edge64" class="edge"><title>WebServerPort&#45;&gt;ElasticLoadBalancer</title>
<path fill="none" stroke="black" d="M546.594,-431.762C540.816,-406.985 526.236,-362.471 514.644,-333.594"/>
<polygon fill="black" stroke="black" points="517.762,-331.977 510.688,-324.09 511.3,-334.667 517.762,-331.977"/>
</g>
<!-- RecipeURL -->
<g id="node19" class="node"><title>RecipeURL</title>
<polygon fill="lightgrey" stroke="lightgrey" points="1298,-468 1234,-468 1222,-456 1222,-444 1234,-432 1298,-432 1310,-444 1310,-456 1298,-468"/>
<path fill="lightgrey" stroke="lightgrey" d="M1234,-468C1228,-468 1222,-462 1222,-456"/>
<path fill="lightgrey" stroke="lightgrey" d="M1222,-444C1222,-438 1228,-432 1234,-432"/>
<path fill="lightgrey" stroke="lightgrey" d="M1298,-432C1304,-432 1310,-438 1310,-444"/>
<path fill="lightgrey" stroke="lightgrey" d="M1310,-456C1310,-462 1304,-468 1298,-468"/>
<polyline fill="none" stroke="black" points="1298,-468 1234,-468 "/>
<path fill="none" stroke="black" d="M1234,-468C1228,-468 1222,-462 1222,-456"/>
<polyline fill="none" stroke="black" points="1222,-456 1222,-444 "/>
<path fill="none" stroke="black" d="M1222,-444C1222,-438 1228,-432 1234,-432"/>
<polyline fill="none" stroke="black" points="1234,-432 1298,-432 "/>
<path fill="none" stroke="black" d="M1298,-432C1304,-432 1310,-438 1310,-444"/>
<polyline fill="none" stroke="black" points="1310,-444 1310,-456 "/>
<path fill="none" stroke="black" d="M1310,-456C1310,-462 1304,-468 1298,-468"/>
<text text-anchor="middle" x="1266" y="-446.4" font-family="Times Roman,serif" font-size="14.00">RecipeURL</text>
</g>
<!-- RecipeURL&#45;&gt;LaunchConfig -->
<g id="edge44" class="edge"><title>RecipeURL&#45;&gt;LaunchConfig</title>
<path fill="none" stroke="black" d="M1258.11,-431.987C1242.94,-399.224 1206.74,-329.444 1157,-288 1139.71,-273.598 1117.99,-262.411 1097.58,-254.051"/>
<polygon fill="black" stroke="black" points="1098.59,-250.688 1088.01,-250.291 1096.04,-257.204 1098.59,-250.688"/>
</g>
<!-- InstanceType -->
<g id="node20" class="node"><title>InstanceType</title>
<polygon fill="lightgrey" stroke="lightgrey" points="1422,-468 1340,-468 1328,-456 1328,-444 1340,-432 1422,-432 1434,-444 1434,-456 1422,-468"/>
<path fill="lightgrey" stroke="lightgrey" d="M1340,-468C1334,-468 1328,-462 1328,-456"/>
<path fill="lightgrey" stroke="lightgrey" d="M1328,-444C1328,-438 1334,-432 1340,-432"/>
<path fill="lightgrey" stroke="lightgrey" d="M1422,-432C1428,-432 1434,-438 1434,-444"/>
<path fill="lightgrey" stroke="lightgrey" d="M1434,-456C1434,-462 1428,-468 1422,-468"/>
<polyline fill="none" stroke="black" points="1422,-468 1340,-468 "/>
<path fill="none" stroke="black" d="M1340,-468C1334,-468 1328,-462 1328,-456"/>
<polyline fill="none" stroke="black" points="1328,-456 1328,-444 "/>
<path fill="none" stroke="black" d="M1328,-444C1328,-438 1334,-432 1340,-432"/>
<polyline fill="none" stroke="black" points="1340,-432 1422,-432 "/>
<path fill="none" stroke="black" d="M1422,-432C1428,-432 1434,-438 1434,-444"/>
<polyline fill="none" stroke="black" points="1434,-444 1434,-456 "/>
<path fill="none" stroke="black" d="M1434,-456C1434,-462 1428,-468 1422,-468"/>
<text text-anchor="middle" x="1381" y="-446.4" font-family="Times Roman,serif" font-size="14.00">InstanceType</text>
</g>
<!-- InstanceType&#45;&gt;LaunchConfig -->
<g id="edge38" class="edge"><title>InstanceType&#45;&gt;LaunchConfig</title>
<path fill="none" stroke="black" d="M1358.78,-431.956C1323.32,-399.142 1251.64,-329.282 1179,-288 1163.61,-279.254 1126.65,-266.279 1093.71,-255.24"/>
<polygon fill="black" stroke="black" points="1094.7,-251.878 1084.1,-252.033 1092.48,-258.518 1094.7,-251.878"/>
</g>
<!-- InstanceType&#45;&gt;LaunchConfig -->
<g id="edge42" class="edge"><title>InstanceType&#45;&gt;LaunchConfig</title>
<path fill="none" stroke="black" d="M1369.3,-431.956C1341.32,-399.142 1269.64,-329.282 1197,-288 1179.94,-278.307 1136.39,-263.419 1098.38,-251.728"/>
<polygon fill="black" stroke="black" points="1098.93,-248.237 1088.35,-248.677 1096.9,-254.935 1098.93,-248.237"/>
</g>
<!-- AlarmTopic -->
<g id="node21" class="node"><title>AlarmTopic</title>
<polygon fill="lightgrey" stroke="lightgrey" points="175,-468 109,-468 97,-456 97,-444 109,-432 175,-432 187,-444 187,-456 175,-468"/>
<path fill="lightgrey" stroke="lightgrey" d="M109,-468C103,-468 97,-462 97,-456"/>
<path fill="lightgrey" stroke="lightgrey" d="M97,-444C97,-438 103,-432 109,-432"/>
<path fill="lightgrey" stroke="lightgrey" d="M175,-432C181,-432 187,-438 187,-444"/>
<path fill="lightgrey" stroke="lightgrey" d="M187,-456C187,-462 181,-468 175,-468"/>
<polyline fill="none" stroke="black" points="175,-468 109,-468 "/>
<path fill="none" stroke="black" d="M109,-468C103,-468 97,-462 97,-456"/>
<polyline fill="none" stroke="black" points="97,-456 97,-444 "/>
<path fill="none" stroke="black" d="M97,-444C97,-438 103,-432 109,-432"/>
<polyline fill="none" stroke="black" points="109,-432 175,-432 "/>
<path fill="none" stroke="black" d="M175,-432C181,-432 187,-438 187,-444"/>
<polyline fill="none" stroke="black" points="187,-444 187,-456 "/>
<path fill="none" stroke="black" d="M187,-456C187,-462 181,-468 175,-468"/>
<text text-anchor="middle" x="142" y="-446.4" font-family="Times Roman,serif" font-size="14.00">AlarmTopic</text>
</g>
<!-- AlarmTopic&#45;&gt;TooManyUnhealthyHostsAlarm -->
<g id="edge58" class="edge"><title>AlarmTopic&#45;&gt;TooManyUnhealthyHostsAlarm</title>
<path fill="none" stroke="black" d="M142,-431.955C142,-394.394 142,-307.554 142,-262.41"/>
<polygon fill="black" stroke="black" points="145.5,-262.145 142,-252.145 138.5,-262.145 145.5,-262.145"/>
</g>
<!-- AlarmTopic&#45;&gt;CPUAlarmHigh -->
<g id="edge72" class="edge"><title>AlarmTopic&#45;&gt;CPUAlarmHigh</title>
<path fill="none" stroke="black" d="M103.947,-431.97C61.8845,-409.087 0,-365.337 0,-306 0,-306 0,-306 0,-234 0,-166.169 485.867,-113.663 669.678,-96.2268"/>
<polygon fill="black" stroke="black" points="670.146,-99.6983 679.774,-95.2756 669.489,-92.7292 670.146,-99.6983"/>
</g>
<!-- AlarmTopic&#45;&gt;RequestLatencyAlarmHigh -->
<g id="edge76" class="edge"><title>AlarmTopic&#45;&gt;RequestLatencyAlarmHigh</title>
<path fill="none" stroke="black" d="M161.298,-431.955C202.487,-393.441 299.084,-303.116 346.204,-259.056"/>
<polygon fill="black" stroke="black" points="348.681,-261.532 353.595,-252.145 343.9,-256.419 348.681,-261.532"/>
</g>
<!-- DesiredCapacity -->
<g id="node22" class="node"><title>DesiredCapacity</title>
<polygon fill="lightgrey" stroke="lightgrey" points="1568,-468 1464,-468 1452,-456 1452,-444 1464,-432 1568,-432 1580,-444 1580,-456 1568,-468"/>
<path fill="lightgrey" stroke="lightgrey" d="M1464,-468C1458,-468 1452,-462 1452,-456"/>
<path fill="lightgrey" stroke="lightgrey" d="M1452,-444C1452,-438 1458,-432 1464,-432"/>
<path fill="lightgrey" stroke="lightgrey" d="M1568,-432C1574,-432 1580,-438 1580,-444"/>
<path fill="lightgrey" stroke="lightgrey" d="M1580,-456C1580,-462 1574,-468 1568,-468"/>
<polyline fill="none" stroke="black" points="1568,-468 1464,-468 "/>
<path fill="none" stroke="black" d="M1464,-468C1458,-468 1452,-462 1452,-456"/>
<polyline fill="none" stroke="black" points="1452,-456 1452,-444 "/>
<path fill="none" stroke="black" d="M1452,-444C1452,-438 1458,-432 1464,-432"/>
<polyline fill="none" stroke="black" points="1464,-432 1568,-432 "/>
<path fill="none" stroke="black" d="M1568,-432C1574,-432 1580,-438 1580,-444"/>
<polyline fill="none" stroke="black" points="1580,-444 1580,-456 "/>
<path fill="none" stroke="black" d="M1580,-456C1580,-462 1574,-468 1568,-468"/>
<text text-anchor="middle" x="1516" y="-446.4" font-family="Times Roman,serif" font-size="14.00">DesiredCapacity</text>
</g>
<!-- DesiredCapacity&#45;&gt;WebServerGroup -->
<g id="edge4" class="edge"><title>DesiredCapacity&#45;&gt;WebServerGroup</title>
<path fill="none" stroke="black" d="M1517.88,-431.867C1521.4,-387.267 1523.5,-271.815 1459,-216 1422.75,-184.628 1116.47,-169.823 969.32,-164.469"/>
<polygon fill="black" stroke="black" points="969.125,-160.96 959.006,-164.1 968.874,-167.955 969.125,-160.96"/>
</g>
<!-- DesiredCapacity&#45;&gt;WaitCondition -->
<g id="edge78" class="edge"><title>DesiredCapacity&#45;&gt;WaitCondition</title>
<path fill="none" stroke="black" d="M1505.72,-431.955C1484.11,-393.997 1433.84,-305.713 1408.37,-260.993"/>
<polygon fill="black" stroke="black" points="1411.32,-259.103 1403.33,-252.145 1405.24,-262.567 1411.32,-259.103"/>
</g>
<!-- AWS::Region -->
<g id="node28" class="node"><title>AWS::Region</title>
<polygon fill="none" stroke="black" points="985,-396 881,-396 881,-360 985,-360 985,-396"/>
<text text-anchor="middle" x="933" y="-374.4" font-family="Times Roman,serif" font-size="14.00">AWS::Region</text>
</g>
<!-- AWS::Region&#45;&gt;WebServerGroup -->
<g id="edge10" class="edge"><title>AWS::Region&#45;&gt;WebServerGroup</title>
<path fill="none" stroke="black" d="M929.491,-359.955C922.172,-322.314 905.231,-235.187 896.469,-190.125"/>
<polygon fill="black" stroke="black" points="899.873,-189.293 894.528,-180.145 893.001,-190.629 899.873,-189.293"/>
</g>
<!-- AWS::Region&#45;&gt;LaunchConfig -->
<g id="edge30" class="edge"><title>AWS::Region&#45;&gt;LaunchConfig</title>
<path fill="none" stroke="black" d="M928.334,-359.696C933.251,-340.985 949.054,-311.428 966,-288 973.259,-277.964 982.128,-267.711 991.319,-258.874"/>
<polygon fill="black" stroke="black" points="993.698,-261.441 998.736,-252.12 988.985,-256.265 993.698,-261.441"/>
</g>
<!-- AWS::Region&#45;&gt;LaunchConfig -->
<g id="edge40" class="edge"><title>AWS::Region&#45;&gt;LaunchConfig</title>
<path fill="none" stroke="black" d="M955.379,-359.696C969.251,-340.985 985.054,-311.428 1002,-288 1008.9,-278.461 1017.25,-268.726 1024.23,-260.196"/>
<polygon fill="black" stroke="black" points="1027.17,-262.128 1030.64,-252.12 1021.68,-257.775 1027.17,-262.128"/>
</g>
<!-- AWS::Region&#45;&gt;LaunchConfig -->
<g id="edge20" class="edge"><title>AWS::Region&#45;&gt;LaunchConfig</title>
<path fill="none" stroke="black" d="M941.856,-359.696C951.251,-340.985 967.054,-311.428 984,-288 991.116,-278.163 999.777,-268.117 1007.83,-259.4"/>
<polygon fill="black" stroke="black" points="1010.38,-261.798 1014.69,-252.12 1005.28,-256.996 1010.38,-261.798"/>
</g>
<!-- AWS::Region&#45;&gt;ElasticLoadBalancer -->
<g id="edge66" class="edge"><title>AWS::Region&#45;&gt;ElasticLoadBalancer</title>
<path fill="none" stroke="black" d="M880.884,-362.089C877.889,-361.341 874.912,-360.638 872,-360 775.45,-338.861 662.941,-323.834 587.148,-315.086"/>
<polygon fill="black" stroke="black" points="587.498,-311.603 577.165,-313.945 586.704,-318.558 587.498,-311.603"/>
</g>
<!-- AWS::StackName -->
<g id="node31" class="node"><title>AWS::StackName</title>
<polygon fill="none" stroke="black" points="863,-396 727,-396 727,-360 863,-360 863,-396"/>
<text text-anchor="middle" x="795" y="-374.4" font-family="Times Roman,serif" font-size="14.00">AWS::StackName</text>
</g>
<!-- AWS::StackName&#45;&gt;LaunchConfig -->
<g id="edge14" class="edge"><title>AWS::StackName&#45;&gt;LaunchConfig</title>
<path fill="none" stroke="black" d="M825.143,-359.762C868.151,-333.74 947.137,-285.951 994.381,-257.366"/>
<polygon fill="black" stroke="black" points="996.358,-260.261 1003.1,-252.09 992.734,-254.272 996.358,-260.261"/>
</g>
</g>
</svg>
