<?xml version="1.0" encoding="UTF-8" standalone="no"?>
<!DOCTYPE svg PUBLIC "-//W3C//DTD SVG 1.1//EN"
 "http://www.w3.org/Graphics/SVG/1.1/DTD/svg11.dtd">
<!-- Generated by graphviz version 2.26.3 (20100126.1600)
 -->
<!-- Title: Sample template to bring up an Opscode Chef Server using the BootStrap Chef RubyGems installation. This configuration creates and starts the Chef Server with the WebUI enabled, initializes knife and uploads specified cookbooks and roles to the chef server. A WaitCondition is used to hold up the stack creation until the application is deployed. **WARNING** This template creates one or more Amazon EC2 instances. You will be billed for the AWS resources used if you create a stack from this template. Pages: 1 -->
<svg width="1261pt" height="332pt"
 viewBox="0.00 0.00 1261.00 332.00" xmlns="http://www.w3.org/2000/svg" xmlns:xlink="http://www.w3.org/1999/xlink">
<g id="graph1" class="graph" transform="scale(1 1) rotate(0) translate(4 328)">
<title>Sample template to bring up an Opscode Chef Server using the BootStrap Chef RubyGems installation. This configuration creates and starts the Chef Server with the WebUI enabled, initializes knife and uploads specified cookbooks and roles to the chef server. A WaitCondition is used to hold up the stack creation until the application is deployed. **WARNING** This template creates one or more Amazon EC2 instances. You will be billed for the AWS resources used if you create a stack from this template.</title>
<polygon fill="white" stroke="white" points="-4,5 -4,-328 1258,-328 1258,5 -4,5"/>
<!-- ChefServerWaitCondition -->
<g id="node1" class="node"><title>ChefServerWaitCondition</title>
<polygon fill="none" stroke="black" points="375,-108 183,-108 183,-72 375,-72 375,-108"/>
<text text-anchor="middle" x="279" y="-86.4" font-family="Times Roman,serif" font-size="14.00">ChefServerWaitCondition</text>
</g>
<!-- BucketPolicy -->
<g id="node2" class="node"><title>BucketPolicy</title>
<polygon fill="none" stroke="black" points="102,-108 4.26326e-14,-108 0,-72 102,-72 102,-108"/>
<text text-anchor="middle" x="51" y="-86.4" font-family="Times Roman,serif" font-size="14.00">BucketPolicy</text>
</g>
<!-- ChefServerUser -->
<g id="node3" class="node"><title>ChefServerUser</title>
<polygon fill="none" stroke="black" points="267,-252 143,-252 143,-216 267,-216 267,-252"/>
<text text-anchor="middle" x="205" y="-230.4" font-family="Times Roman,serif" font-size="14.00">ChefServerUser</text>
</g>
<!-- ChefServerUser&#45;&gt;BucketPolicy -->
<g id="edge6" class="edge"><title>ChefServerUser&#45;&gt;BucketPolicy</title>
<path fill="none" stroke="black" d="M142.895,-223.241C97.3473,-213.938 41.0911,-199 27,-180 13.4236,-161.694 22.07,-136.266 32.5852,-117.106"/>
<polygon fill="black" stroke="black" points="35.7364,-118.653 37.8081,-108.263 29.7091,-115.093 35.7364,-118.653"/>
</g>
<!-- HostKeys -->
<g id="node5" class="node"><title>HostKeys</title>
<polygon fill="none" stroke="black" points="464,-180 384,-180 384,-144 464,-144 464,-180"/>
<text text-anchor="middle" x="424" y="-158.4" font-family="Times Roman,serif" font-size="14.00">HostKeys</text>
</g>
<!-- ChefServerUser&#45;&gt;HostKeys -->
<g id="edge44" class="edge"><title>ChefServerUser&#45;&gt;HostKeys</title>
<path fill="none" stroke="black" d="M264.218,-215.899C294.684,-206.421 332.6,-194.373 374.393,-180.146"/>
<polygon fill="black" stroke="black" points="375.611,-183.428 383.94,-176.88 373.346,-176.805 375.611,-183.428"/>
</g>
<!-- ChefServer -->
<g id="node4" class="node"><title>ChefServer</title>
<polygon fill="none" stroke="black" points="548,-108 454,-108 454,-72 548,-72 548,-108"/>
<text text-anchor="middle" x="501" y="-86.4" font-family="Times Roman,serif" font-size="14.00">ChefServer</text>
</g>
<!-- WebUI -->
<g id="node18" class="node"><title>WebUI</title>
<polygon fill="lightgrey" stroke="lightgrey" points="473,-36 435,-36 423,-24 423,-12 435,-1.50131e-14 473,-6.3032e-15 485,-12 485,-24 473,-36"/>
<path fill="lightgrey" stroke="lightgrey" d="M435,-36C429,-36 423,-30 423,-24"/>
<path fill="lightgrey" stroke="lightgrey" d="M423,-12C423,-6 429,-1.63883e-14 435,-1.50131e-14"/>
<path fill="lightgrey" stroke="lightgrey" d="M473,-6.3032e-15C479,-4.92796e-15 485,-6 485,-12"/>
<path fill="lightgrey" stroke="lightgrey" d="M485,-24C485,-30 479,-36 473,-36"/>
<polyline fill="none" stroke="black" points="473,-36 435,-36 "/>
<path fill="none" stroke="black" d="M435,-36C429,-36 423,-30 423,-24"/>
<polyline fill="none" stroke="black" points="423,-24 423,-12 "/>
<path fill="none" stroke="black" d="M423,-12C423,-6 429,-1.63883e-14 435,-1.50131e-14"/>
<polyline fill="none" stroke="black" points="435,-1.50131e-14 473,-6.3032e-15 "/>
<path fill="none" stroke="black" d="M473,-6.3032e-15C479,-4.92796e-15 485,-6 485,-12"/>
<polyline fill="none" stroke="black" points="485,-12 485,-24 "/>
<path fill="none" stroke="black" d="M485,-24C485,-30 479,-36 473,-36"/>
<text text-anchor="middle" x="454" y="-14.4" font-family="Times Roman,serif" font-size="14.00">WebUI</text>
</g>
<!-- ChefServer&#45;&gt;WebUI -->
<g id="edge52" class="edge"><title>ChefServer&#45;&gt;WebUI</title>
<path fill="none" stroke="black" d="M489.14,-71.8314C483.837,-63.7079 477.476,-53.9637 471.633,-45.0118"/>
<polygon fill="black" stroke="black" points="474.417,-42.8739 466.02,-36.4133 468.555,-46.7003 474.417,-42.8739"/>
</g>
<!-- ServerURL -->
<g id="node20" class="node"><title>ServerURL</title>
<polygon fill="lightgrey" stroke="lightgrey" points="581,-36 515,-36 503,-24 503,-12 515,-1.58688e-14 581,-5.44749e-15 593,-12 593,-24 581,-36"/>
<path fill="lightgrey" stroke="lightgrey" d="M515,-36C509,-36 503,-30 503,-24"/>
<path fill="lightgrey" stroke="lightgrey" d="M503,-12C503,-6 509,-1.68162e-14 515,-1.58688e-14"/>
<path fill="lightgrey" stroke="lightgrey" d="M581,-5.44749e-15C587,-4.5001e-15 593,-6 593,-12"/>
<path fill="lightgrey" stroke="lightgrey" d="M593,-24C593,-30 587,-36 581,-36"/>
<polyline fill="none" stroke="black" points="581,-36 515,-36 "/>
<path fill="none" stroke="black" d="M515,-36C509,-36 503,-30 503,-24"/>
<polyline fill="none" stroke="black" points="503,-24 503,-12 "/>
<path fill="none" stroke="black" d="M503,-12C503,-6 509,-1.68162e-14 515,-1.58688e-14"/>
<polyline fill="none" stroke="black" points="515,-1.58688e-14 581,-5.44749e-15 "/>
<path fill="none" stroke="black" d="M581,-5.44749e-15C587,-4.5001e-15 593,-6 593,-12"/>
<polyline fill="none" stroke="black" points="593,-12 593,-24 "/>
<path fill="none" stroke="black" d="M593,-24C593,-30 587,-36 581,-36"/>
<text text-anchor="middle" x="548" y="-14.4" font-family="Times Roman,serif" font-size="14.00">ServerURL</text>
</g>
<!-- ChefServer&#45;&gt;ServerURL -->
<g id="edge56" class="edge"><title>ChefServer&#45;&gt;ServerURL</title>
<path fill="none" stroke="black" d="M512.86,-71.8314C518.163,-63.7079 524.524,-53.9637 530.367,-45.0118"/>
<polygon fill="black" stroke="black" points="533.445,-46.7003 535.98,-36.4133 527.583,-42.8739 533.445,-46.7003"/>
</g>
<!-- HostKeys&#45;&gt;ChefServer -->
<g id="edge36" class="edge"><title>HostKeys&#45;&gt;ChefServer</title>
<path fill="none" stroke="black" d="M425.573,-143.831C432.531,-134.878 443.741,-123.956 455.75,-114.295"/>
<polygon fill="black" stroke="black" points="457.929,-117.035 463.72,-108.163 453.661,-111.487 457.929,-117.035"/>
</g>
<!-- HostKeys&#45;&gt;ChefServer -->
<g id="edge38" class="edge"><title>HostKeys&#45;&gt;ChefServer</title>
<path fill="none" stroke="black" d="M461.288,-143.831C472.696,-135.454 484.067,-125.353 492.572,-116.175"/>
<polygon fill="black" stroke="black" points="495.377,-118.28 499.236,-108.413 490.066,-113.72 495.377,-118.28"/>
</g>
<!-- HostKeys&#45;&gt;ChefServer -->
<g id="edge18" class="edge"><title>HostKeys&#45;&gt;ChefServer</title>
<path fill="none" stroke="black" d="M437.478,-143.831C446.015,-135.048 457.267,-124.371 467.972,-114.849"/>
<polygon fill="black" stroke="black" points="470.397,-117.378 475.624,-108.163 465.791,-112.107 470.397,-117.378"/>
</g>
<!-- HostKeys&#45;&gt;ChefServer -->
<g id="edge20" class="edge"><title>HostKeys&#45;&gt;ChefServer</title>
<path fill="none" stroke="black" d="M449.383,-143.831C459.356,-135.285 470.595,-124.944 480.095,-115.62"/>
<polygon fill="black" stroke="black" points="482.7,-117.965 487.284,-108.413 477.744,-113.021 482.7,-117.965"/>
</g>
<!-- ChefServerWaitHandle -->
<g id="node6" class="node"><title>ChefServerWaitHandle</title>
<polygon fill="none" stroke="black" points="366,-180 192,-180 192,-144 366,-144 366,-180"/>
<text text-anchor="middle" x="279" y="-158.4" font-family="Times Roman,serif" font-size="14.00">ChefServerWaitHandle</text>
</g>
<!-- ChefServerWaitHandle&#45;&gt;ChefServerWaitCondition -->
<g id="edge4" class="edge"><title>ChefServerWaitHandle&#45;&gt;ChefServerWaitCondition</title>
<path fill="none" stroke="black" d="M279,-143.831C279,-136.131 279,-126.974 279,-118.417"/>
<polygon fill="black" stroke="black" points="282.5,-118.413 279,-108.413 275.5,-118.413 282.5,-118.413"/>
</g>
<!-- ChefServerWaitHandle&#45;&gt;ChefServer -->
<g id="edge24" class="edge"><title>ChefServerWaitHandle&#45;&gt;ChefServer</title>
<path fill="none" stroke="black" d="M328.79,-143.924C363.003,-132.463 408.425,-117.749 444.07,-106.586"/>
<polygon fill="black" stroke="black" points="445.343,-109.856 453.847,-103.538 443.259,-103.173 445.343,-109.856"/>
</g>
<!-- ChefServerWaitHandle&#45;&gt;ChefServer -->
<g id="edge12" class="edge"><title>ChefServerWaitHandle&#45;&gt;ChefServer</title>
<path fill="none" stroke="black" d="M340.677,-143.924C373.105,-133.732 412.537,-120.965 444.212,-110.413"/>
<polygon fill="black" stroke="black" points="445.403,-113.705 453.777,-107.215 443.183,-107.067 445.403,-113.705"/>
</g>
<!-- ChefServerSecurityGroup -->
<g id="node7" class="node"><title>ChefServerSecurityGroup</title>
<polygon fill="none" stroke="black" points="1133,-180 939,-180 939,-144 1133,-144 1133,-180"/>
<text text-anchor="middle" x="1036" y="-158.4" font-family="Times Roman,serif" font-size="14.00">ChefServerSecurityGroup</text>
</g>
<!-- ChefServerSecurityGroup&#45;&gt;ChefServer -->
<g id="edge28" class="edge"><title>ChefServerSecurityGroup&#45;&gt;ChefServer</title>
<path fill="none" stroke="black" d="M938.87,-146.053C934.183,-145.345 929.541,-144.657 925,-144 794.003,-125.042 639.711,-106.287 558.182,-96.6554"/>
<polygon fill="black" stroke="black" points="558.469,-93.165 548.128,-95.4703 557.65,-100.117 558.469,-93.165"/>
</g>
<!-- ChefClientSecurityGroup -->
<g id="node8" class="node"><title>ChefClientSecurityGroup</title>
<polygon fill="none" stroke="black" points="1253,-252 1065,-252 1065,-216 1253,-216 1253,-252"/>
<text text-anchor="middle" x="1159" y="-230.4" font-family="Times Roman,serif" font-size="14.00">ChefClientSecurityGroup</text>
</g>
<!-- ChefClientSecurityGroup&#45;&gt;ChefServerSecurityGroup -->
<g id="edge48" class="edge"><title>ChefClientSecurityGroup&#45;&gt;ChefServerSecurityGroup</title>
<path fill="none" stroke="black" d="M1127.96,-215.831C1112.23,-206.622 1092.94,-195.33 1076.1,-185.471"/>
<polygon fill="black" stroke="black" points="1077.43,-182.194 1067.03,-180.163 1073.89,-188.235 1077.43,-182.194"/>
</g>
<!-- ChefSecurityGroup -->
<g id="node19" class="node"><title>ChefSecurityGroup</title>
<polygon fill="lightgrey" stroke="lightgrey" points="1223,-36 1099,-36 1087,-24 1087,-12 1099,-1.66113e-14 1223,-4.70495e-15 1235,-12 1235,-24 1223,-36"/>
<path fill="lightgrey" stroke="lightgrey" d="M1099,-36C1093,-36 1087,-30 1087,-24"/>
<path fill="lightgrey" stroke="lightgrey" d="M1087,-12C1087,-6 1093,-1.71875e-14 1099,-1.66113e-14"/>
<path fill="lightgrey" stroke="lightgrey" d="M1223,-4.70495e-15C1229,-4.12883e-15 1235,-6 1235,-12"/>
<path fill="lightgrey" stroke="lightgrey" d="M1235,-24C1235,-30 1229,-36 1223,-36"/>
<polyline fill="none" stroke="black" points="1223,-36 1099,-36 "/>
<path fill="none" stroke="black" d="M1099,-36C1093,-36 1087,-30 1087,-24"/>
<polyline fill="none" stroke="black" points="1087,-24 1087,-12 "/>
<path fill="none" stroke="black" d="M1087,-12C1087,-6 1093,-1.71875e-14 1099,-1.66113e-14"/>
<polyline fill="none" stroke="black" points="1099,-1.66113e-14 1223,-4.70495e-15 "/>
<path fill="none" stroke="black" d="M1223,-4.70495e-15C1229,-4.12883e-15 1235,-6 1235,-12"/>
<polyline fill="none" stroke="black" points="1235,-12 1235,-24 "/>
<path fill="none" stroke="black" d="M1235,-24C1235,-30 1229,-36 1223,-36"/>
<text text-anchor="middle" x="1161" y="-14.4" font-family="Times Roman,serif" font-size="14.00">ChefSecurityGroup</text>
</g>
<!-- ChefClientSecurityGroup&#45;&gt;ChefSecurityGroup -->
<g id="edge54" class="edge"><title>ChefClientSecurityGroup&#45;&gt;ChefSecurityGroup</title>
<path fill="none" stroke="black" d="M1159.17,-215.955C1159.51,-178.394 1160.32,-91.5541 1160.74,-46.4103"/>
<polygon fill="black" stroke="black" points="1164.24,-46.1771 1160.83,-36.1451 1157.24,-46.1122 1164.24,-46.1771"/>
</g>
<!-- PrivateKeyBucket -->
<g id="node9" class="node"><title>PrivateKeyBucket</title>
<polygon fill="none" stroke="black" points="174,-180 36,-180 36,-144 174,-144 174,-180"/>
<text text-anchor="middle" x="105" y="-158.4" font-family="Times Roman,serif" font-size="14.00">PrivateKeyBucket</text>
</g>
<!-- PrivateKeyBucket&#45;&gt;BucketPolicy -->
<g id="edge8" class="edge"><title>PrivateKeyBucket&#45;&gt;BucketPolicy</title>
<path fill="none" stroke="black" d="M85.4211,-143.831C78.4651,-135.623 70.8699,-125.761 64.5021,-116.732"/>
<polygon fill="black" stroke="black" points="67.3571,-114.707 58.8339,-108.413 61.5723,-118.648 67.3571,-114.707"/>
</g>
<!-- PrivateKeyBucket&#45;&gt;BucketPolicy -->
<g id="edge10" class="edge"><title>PrivateKeyBucket&#45;&gt;BucketPolicy</title>
<path fill="none" stroke="black" d="M97.3259,-143.831C91.8593,-135.454 84.4733,-125.353 77.1526,-116.175"/>
<polygon fill="black" stroke="black" points="79.8341,-113.925 70.786,-108.413 74.4219,-118.365 79.8341,-113.925"/>
</g>
<!-- PrivateKeyBucket&#45;&gt;ChefServer -->
<g id="edge22" class="edge"><title>PrivateKeyBucket&#45;&gt;ChefServer</title>
<path fill="none" stroke="black" d="M174.277,-145.791C177.221,-145.173 180.138,-144.573 183,-144 273.765,-125.837 379.898,-108.616 443.711,-98.6926"/>
<polygon fill="black" stroke="black" points="444.619,-102.094 453.965,-97.1042 443.547,-95.1763 444.619,-102.094"/>
</g>
<!-- ValidationKeyBucket -->
<g id="node17" class="node"><title>ValidationKeyBucket</title>
<polygon fill="lightgrey" stroke="lightgrey" points="196,-36 64,-36 52,-24 52,-12 64,-1.66704e-14 196,-4.64586e-15 208,-12 208,-24 196,-36"/>
<path fill="lightgrey" stroke="lightgrey" d="M64,-36C58,-36 52,-30 52,-24"/>
<path fill="lightgrey" stroke="lightgrey" d="M52,-12C52,-6 58,-1.7217e-14 64,-1.66704e-14"/>
<path fill="lightgrey" stroke="lightgrey" d="M196,-4.64586e-15C202,-4.09929e-15 208,-6 208,-12"/>
<path fill="lightgrey" stroke="lightgrey" d="M208,-24C208,-30 202,-36 196,-36"/>
<polyline fill="none" stroke="black" points="196,-36 64,-36 "/>
<path fill="none" stroke="black" d="M64,-36C58,-36 52,-30 52,-24"/>
<polyline fill="none" stroke="black" points="52,-24 52,-12 "/>
<path fill="none" stroke="black" d="M52,-12C52,-6 58,-1.7217e-14 64,-1.66704e-14"/>
<polyline fill="none" stroke="black" points="64,-1.66704e-14 196,-4.64586e-15 "/>
<path fill="none" stroke="black" d="M196,-4.64586e-15C202,-4.09929e-15 208,-6 208,-12"/>
<polyline fill="none" stroke="black" points="208,-12 208,-24 "/>
<path fill="none" stroke="black" d="M208,-24C208,-30 202,-36 196,-36"/>
<text text-anchor="middle" x="130" y="-14.4" font-family="Times Roman,serif" font-size="14.00">ValidationKeyBucket</text>
</g>
<!-- PrivateKeyBucket&#45;&gt;ValidationKeyBucket -->
<g id="edge50" class="edge"><title>PrivateKeyBucket&#45;&gt;ValidationKeyBucket</title>
<path fill="none" stroke="black" d="M108.166,-143.762C112.449,-119.093 120.129,-74.8598 125.144,-45.9731"/>
<polygon fill="black" stroke="black" points="128.597,-46.541 126.859,-36.0896 121.7,-45.3435 128.597,-46.541"/>
</g>
<!-- SSHLocation -->
<g id="node11" class="node"><title>SSHLocation</title>
<polygon fill="lightgrey" stroke="lightgrey" points="1076,-324 996,-324 984,-312 984,-300 996,-288 1076,-288 1088,-300 1088,-312 1076,-324"/>
<path fill="lightgrey" stroke="lightgrey" d="M996,-324C990,-324 984,-318 984,-312"/>
<path fill="lightgrey" stroke="lightgrey" d="M984,-300C984,-294 990,-288 996,-288"/>
<path fill="lightgrey" stroke="lightgrey" d="M1076,-288C1082,-288 1088,-294 1088,-300"/>
<path fill="lightgrey" stroke="lightgrey" d="M1088,-312C1088,-318 1082,-324 1076,-324"/>
<polyline fill="none" stroke="black" points="1076,-324 996,-324 "/>
<path fill="none" stroke="black" d="M996,-324C990,-324 984,-318 984,-312"/>
<polyline fill="none" stroke="black" points="984,-312 984,-300 "/>
<path fill="none" stroke="black" d="M984,-300C984,-294 990,-288 996,-288"/>
<polyline fill="none" stroke="black" points="996,-288 1076,-288 "/>
<path fill="none" stroke="black" d="M1076,-288C1082,-288 1088,-294 1088,-300"/>
<polyline fill="none" stroke="black" points="1088,-300 1088,-312 "/>
<path fill="none" stroke="black" d="M1088,-312C1088,-318 1082,-324 1076,-324"/>
<text text-anchor="middle" x="1036" y="-302.4" font-family="Times Roman,serif" font-size="14.00">SSHLocation</text>
</g>
<!-- SSHLocation&#45;&gt;ChefServerSecurityGroup -->
<g id="edge46" class="edge"><title>SSHLocation&#45;&gt;ChefServerSecurityGroup</title>
<path fill="none" stroke="black" d="M1036,-287.762C1036,-263.201 1036,-219.247 1036,-190.354"/>
<polygon fill="black" stroke="black" points="1039.5,-190.09 1036,-180.09 1032.5,-190.09 1039.5,-190.09"/>
</g>
<!-- RoleLocation -->
<g id="node12" class="node"><title>RoleLocation</title>
<polygon fill="lightgrey" stroke="lightgrey" points="849,-324 769,-324 757,-312 757,-300 769,-288 849,-288 861,-300 861,-312 849,-324"/>
<path fill="lightgrey" stroke="lightgrey" d="M769,-324C763,-324 757,-318 757,-312"/>
<path fill="lightgrey" stroke="lightgrey" d="M757,-300C757,-294 763,-288 769,-288"/>
<path fill="lightgrey" stroke="lightgrey" d="M849,-288C855,-288 861,-294 861,-300"/>
<path fill="lightgrey" stroke="lightgrey" d="M861,-312C861,-318 855,-324 849,-324"/>
<polyline fill="none" stroke="black" points="849,-324 769,-324 "/>
<path fill="none" stroke="black" d="M769,-324C763,-324 757,-318 757,-312"/>
<polyline fill="none" stroke="black" points="757,-312 757,-300 "/>
<path fill="none" stroke="black" d="M757,-300C757,-294 763,-288 769,-288"/>
<polyline fill="none" stroke="black" points="769,-288 849,-288 "/>
<path fill="none" stroke="black" d="M849,-288C855,-288 861,-294 861,-300"/>
<polyline fill="none" stroke="black" points="861,-300 861,-312 "/>
<path fill="none" stroke="black" d="M861,-312C861,-318 855,-324 849,-324"/>
<text text-anchor="middle" x="809" y="-302.4" font-family="Times Roman,serif" font-size="14.00">RoleLocation</text>
</g>
<!-- RoleLocation&#45;&gt;ChefServer -->
<g id="edge42" class="edge"><title>RoleLocation&#45;&gt;ChefServer</title>
<path fill="none" stroke="black" d="M811.902,-287.942C814.062,-268.903 814.878,-238.593 803,-216 779.002,-170.351 758.213,-166.893 712,-144 662.963,-119.707 601.933,-105.623 558.144,-97.9688"/>
<polygon fill="black" stroke="black" points="558.682,-94.5102 548.239,-96.2954 557.516,-101.412 558.682,-94.5102"/>
</g>
<!-- KeyName -->
<g id="node13" class="node"><title>KeyName</title>
<polygon fill="lightgrey" stroke="lightgrey" points="947,-324 891,-324 879,-312 879,-300 891,-288 947,-288 959,-300 959,-312 947,-324"/>
<path fill="lightgrey" stroke="lightgrey" d="M891,-324C885,-324 879,-318 879,-312"/>
<path fill="lightgrey" stroke="lightgrey" d="M879,-300C879,-294 885,-288 891,-288"/>
<path fill="lightgrey" stroke="lightgrey" d="M947,-288C953,-288 959,-294 959,-300"/>
<path fill="lightgrey" stroke="lightgrey" d="M959,-312C959,-318 953,-324 947,-324"/>
<polyline fill="none" stroke="black" points="947,-324 891,-324 "/>
<path fill="none" stroke="black" d="M891,-324C885,-324 879,-318 879,-312"/>
<polyline fill="none" stroke="black" points="879,-312 879,-300 "/>
<path fill="none" stroke="black" d="M879,-300C879,-294 885,-288 891,-288"/>
<polyline fill="none" stroke="black" points="891,-288 947,-288 "/>
<path fill="none" stroke="black" d="M947,-288C953,-288 959,-294 959,-300"/>
<polyline fill="none" stroke="black" points="959,-300 959,-312 "/>
<path fill="none" stroke="black" d="M959,-312C959,-318 953,-324 947,-324"/>
<text text-anchor="middle" x="919" y="-302.4" font-family="Times Roman,serif" font-size="14.00">KeyName</text>
</g>
<!-- KeyName&#45;&gt;ChefServer -->
<g id="edge26" class="edge"><title>KeyName&#45;&gt;ChefServer</title>
<path fill="none" stroke="black" d="M906.576,-287.77C882.306,-253.681 825.067,-180.447 758,-144 724.158,-125.609 623.037,-107.971 558.188,-98.1041"/>
<polygon fill="black" stroke="black" points="558.517,-94.6143 548.107,-96.5883 557.476,-101.536 558.517,-94.6143"/>
</g>
<!-- InstanceType -->
<g id="node14" class="node"><title>InstanceType</title>
<polygon fill="lightgrey" stroke="lightgrey" points="542,-324 460,-324 448,-312 448,-300 460,-288 542,-288 554,-300 554,-312 542,-324"/>
<path fill="lightgrey" stroke="lightgrey" d="M460,-324C454,-324 448,-318 448,-312"/>
<path fill="lightgrey" stroke="lightgrey" d="M448,-300C448,-294 454,-288 460,-288"/>
<path fill="lightgrey" stroke="lightgrey" d="M542,-288C548,-288 554,-294 554,-300"/>
<path fill="lightgrey" stroke="lightgrey" d="M554,-312C554,-318 548,-324 542,-324"/>
<polyline fill="none" stroke="black" points="542,-324 460,-324 "/>
<path fill="none" stroke="black" d="M460,-324C454,-324 448,-318 448,-312"/>
<polyline fill="none" stroke="black" points="448,-312 448,-300 "/>
<path fill="none" stroke="black" d="M448,-300C448,-294 454,-288 460,-288"/>
<polyline fill="none" stroke="black" points="460,-288 542,-288 "/>
<path fill="none" stroke="black" d="M542,-288C548,-288 554,-294 554,-300"/>
<polyline fill="none" stroke="black" points="554,-300 554,-312 "/>
<path fill="none" stroke="black" d="M554,-312C554,-318 548,-324 542,-324"/>
<text text-anchor="middle" x="501" y="-302.4" font-family="Times Roman,serif" font-size="14.00">InstanceType</text>
</g>
<!-- InstanceType&#45;&gt;ChefServer -->
<g id="edge30" class="edge"><title>InstanceType&#45;&gt;ChefServer</title>
<path fill="none" stroke="black" d="M497.054,-287.955C493.596,-250.314 493.336,-163.187 496.276,-118.125"/>
<polygon fill="black" stroke="black" points="499.766,-118.384 497.045,-108.145 492.787,-117.847 499.766,-118.384"/>
</g>
<!-- InstanceType&#45;&gt;ChefServer -->
<g id="edge34" class="edge"><title>InstanceType&#45;&gt;ChefServer</title>
<path fill="none" stroke="black" d="M504.946,-287.955C508.404,-250.314 508.664,-163.187 505.724,-118.125"/>
<polygon fill="black" stroke="black" points="509.213,-117.847 504.955,-108.145 502.234,-118.384 509.213,-117.847"/>
</g>
<!-- CookbookLocation -->
<g id="node15" class="node"><title>CookbookLocation</title>
<polygon fill="lightgrey" stroke="lightgrey" points="715,-324 597,-324 585,-312 585,-300 597,-288 715,-288 727,-300 727,-312 715,-324"/>
<path fill="lightgrey" stroke="lightgrey" d="M597,-324C591,-324 585,-318 585,-312"/>
<path fill="lightgrey" stroke="lightgrey" d="M585,-300C585,-294 591,-288 597,-288"/>
<path fill="lightgrey" stroke="lightgrey" d="M715,-288C721,-288 727,-294 727,-300"/>
<path fill="lightgrey" stroke="lightgrey" d="M727,-312C727,-318 721,-324 715,-324"/>
<polyline fill="none" stroke="black" points="715,-324 597,-324 "/>
<path fill="none" stroke="black" d="M597,-324C591,-324 585,-318 585,-312"/>
<polyline fill="none" stroke="black" points="585,-312 585,-300 "/>
<path fill="none" stroke="black" d="M585,-300C585,-294 591,-288 597,-288"/>
<polyline fill="none" stroke="black" points="597,-288 715,-288 "/>
<path fill="none" stroke="black" d="M715,-288C721,-288 727,-294 727,-300"/>
<polyline fill="none" stroke="black" points="727,-300 727,-312 "/>
<path fill="none" stroke="black" d="M727,-312C727,-318 721,-324 715,-324"/>
<text text-anchor="middle" x="656" y="-302.4" font-family="Times Roman,serif" font-size="14.00">CookbookLocation</text>
</g>
<!-- CookbookLocation&#45;&gt;ChefServer -->
<g id="edge40" class="edge"><title>CookbookLocation&#45;&gt;ChefServer</title>
<path fill="none" stroke="black" d="M661.438,-287.875C669.952,-255.543 682.413,-187.261 651,-144 639.58,-128.272 595.541,-113.548 558.113,-103.461"/>
<polygon fill="black" stroke="black" points="558.826,-100.029 548.265,-100.87 557.045,-106.799 558.826,-100.029"/>
</g>
<!-- AWS::Region -->
<g id="node26" class="node"><title>AWS::Region</title>
<polygon fill="none" stroke="black" points="642,-180 538,-180 538,-144 642,-144 642,-180"/>
<text text-anchor="middle" x="590" y="-158.4" font-family="Times Roman,serif" font-size="14.00">AWS::Region</text>
</g>
<!-- AWS::Region&#45;&gt;ChefServer -->
<g id="edge32" class="edge"><title>AWS::Region&#45;&gt;ChefServer</title>
<path fill="none" stroke="black" d="M561.589,-143.831C549.877,-135.048 536.511,-124.371 525.262,-114.849"/>
<polygon fill="black" stroke="black" points="527.361,-112.037 517.499,-108.163 522.792,-117.341 527.361,-112.037"/>
</g>
<!-- AWS::Region&#45;&gt;ChefServer -->
<g id="edge14" class="edge"><title>AWS::Region&#45;&gt;ChefServer</title>
<path fill="none" stroke="black" d="M573.494,-143.831C563.299,-134.878 549.955,-123.956 537.454,-114.295"/>
<polygon fill="black" stroke="black" points="539.479,-111.438 529.403,-108.163 535.237,-117.007 539.479,-111.438"/>
</g>
<!-- AWS::StackId -->
<g id="node28" class="node"><title>AWS::StackId</title>
<polygon fill="none" stroke="black" points="794,-252 684,-252 684,-216 794,-216 794,-252"/>
<text text-anchor="middle" x="739" y="-230.4" font-family="Times Roman,serif" font-size="14.00">AWS::StackId</text>
</g>
<!-- AWS::StackId&#45;&gt;ChefServer -->
<g id="edge16" class="edge"><title>AWS::StackId&#45;&gt;ChefServer</title>
<path fill="none" stroke="black" d="M732.476,-215.681C724.273,-195.245 708.259,-162.618 684,-144 647.575,-116.045 596.944,-102.531 558.17,-96.0159"/>
<polygon fill="black" stroke="black" points="558.499,-92.5249 548.078,-94.4316 557.414,-99.4402 558.499,-92.5249"/>
</g>
</g>
</svg>
