<?xml version="1.0" encoding="UTF-8" standalone="no"?>
<!DOCTYPE svg PUBLIC "-//W3C//DTD SVG 1.1//EN"
 "http://www.w3.org/Graphics/SVG/1.1/DTD/svg11.dtd">
<!-- Generated by graphviz version 2.26.3 (20100126.1600)
 -->
<!-- Title: AWS CloudFormation Sample Template CloudFront_S3: Sample template showing how to create an Amazon CloudFront distribution using an S3 origin. **WARNING** This template creates one or more AWS resources. You will be billed for the AWS resources used if you create a stack from this template. Pages: 1 -->
<svg width="274pt" height="188pt"
 viewBox="0.00 0.00 274.00 188.00" xmlns="http://www.w3.org/2000/svg" xmlns:xlink="http://www.w3.org/1999/xlink">
<g id="graph1" class="graph" transform="scale(1 1) rotate(0) translate(4 184)">
<title>AWS CloudFormation Sample Template CloudFront_S3: Sample template showing how to create an Amazon CloudFront distribution using an S3 origin. **WARNING** This template creates one or more AWS resources. You will be billed for the AWS resources used if you create a stack from this template.</title>
<polygon fill="white" stroke="white" points="-4,5 -4,-184 271,-184 271,5 -4,5"/>
<!-- myDistribution -->
<g id="node1" class="node"><title>myDistribution</title>
<polygon fill="none" stroke="black" points="199,-108 81,-108 81,-72 199,-72 199,-108"/>
<text text-anchor="middle" x="140" y="-86.4" font-family="Times Roman,serif" font-size="14.00">myDistribution</text>
</g>
<!-- DistributionName -->
<g id="node5" class="node"><title>DistributionName</title>
<polygon fill="lightgrey" stroke="lightgrey" points="126,-36 12,-36 4.73695e-14,-24 2.36848e-14,-12 12,-1.65278e-14 126,-4.78844e-15 138,-12 138,-24 126,-36"/>
<path fill="lightgrey" stroke="lightgrey" d="M12,-36C6,-36 5.92119e-14,-30 4.73695e-14,-24"/>
<path fill="lightgrey" stroke="lightgrey" d="M2.36848e-14,-12C1.18424e-14,-6 6,-1.71457e-14 12,-1.65278e-14"/>
<path fill="lightgrey" stroke="lightgrey" d="M126,-4.78844e-15C132,-4.17058e-15 138,-6 138,-12"/>
<path fill="lightgrey" stroke="lightgrey" d="M138,-24C138,-30 132,-36 126,-36"/>
<polyline fill="none" stroke="black" points="126,-36 12,-36 "/>
<path fill="none" stroke="black" d="M12,-36C6,-36 5.92119e-14,-30 4.73695e-14,-24"/>
<polyline fill="none" stroke="black" points="4.73695e-14,-24 2.36848e-14,-12 "/>
<path fill="none" stroke="black" d="M2.36848e-14,-12C1.18424e-14,-6 6,-1.71457e-14 12,-1.65278e-14"/>
<polyline fill="none" stroke="black" points="12,-1.65278e-14 126,-4.78844e-15 "/>
<path fill="none" stroke="black" d="M126,-4.78844e-15C132,-4.17058e-15 138,-6 138,-12"/>
<polyline fill="none" stroke="black" points="138,-12 138,-24 "/>
<path fill="none" stroke="black" d="M138,-24C138,-30 132,-36 126,-36"/>
<text text-anchor="middle" x="69" y="-14.4" font-family="Times Roman,serif" font-size="14.00">DistributionName</text>
</g>
<!-- myDistribution&#45;&gt;DistributionName -->
<g id="edge6" class="edge"><title>myDistribution&#45;&gt;DistributionName</title>
<path fill="none" stroke="black" d="M122.084,-71.8314C113.656,-63.2848 103.459,-52.9443 94.264,-43.6198"/>
<polygon fill="black" stroke="black" points="96.6711,-41.0761 87.1575,-36.4133 91.6869,-45.9912 96.6711,-41.0761"/>
</g>
<!-- DistributionId -->
<g id="node6" class="node"><title>DistributionId</title>
<polygon fill="lightgrey" stroke="lightgrey" points="254,-36 168,-36 156,-24 156,-12 168,-1.62133e-14 254,-5.10299e-15 266,-12 266,-24 254,-36"/>
<path fill="lightgrey" stroke="lightgrey" d="M168,-36C162,-36 156,-30 156,-24"/>
<path fill="lightgrey" stroke="lightgrey" d="M156,-12C156,-6 162,-1.69884e-14 168,-1.62133e-14"/>
<path fill="lightgrey" stroke="lightgrey" d="M254,-5.10299e-15C260,-4.32785e-15 266,-6 266,-12"/>
<path fill="lightgrey" stroke="lightgrey" d="M266,-24C266,-30 260,-36 254,-36"/>
<polyline fill="none" stroke="black" points="254,-36 168,-36 "/>
<path fill="none" stroke="black" d="M168,-36C162,-36 156,-30 156,-24"/>
<polyline fill="none" stroke="black" points="156,-24 156,-12 "/>
<path fill="none" stroke="black" d="M156,-12C156,-6 162,-1.69884e-14 168,-1.62133e-14"/>
<polyline fill="none" stroke="black" points="168,-1.62133e-14 254,-5.10299e-15 "/>
<path fill="none" stroke="black" d="M254,-5.10299e-15C260,-4.32785e-15 266,-6 266,-12"/>
<polyline fill="none" stroke="black" points="266,-12 266,-24 "/>
<path fill="none" stroke="black" d="M266,-24C266,-30 260,-36 254,-36"/>
<text text-anchor="middle" x="211" y="-14.4" font-family="Times Roman,serif" font-size="14.00">DistributionId</text>
</g>
<!-- myDistribution&#45;&gt;DistributionId -->
<g id="edge8" class="edge"><title>myDistribution&#45;&gt;DistributionId</title>
<path fill="none" stroke="black" d="M157.916,-71.8314C166.344,-63.2848 176.541,-52.9443 185.736,-43.6198"/>
<polygon fill="black" stroke="black" points="188.313,-45.9912 192.842,-36.4133 183.329,-41.0761 188.313,-45.9912"/>
</g>
<!-- S3DNSName -->
<g id="node3" class="node"><title>S3DNSName</title>
<polygon fill="lightgrey" stroke="lightgrey" points="180,-180 100,-180 88,-168 88,-156 100,-144 180,-144 192,-156 192,-168 180,-180"/>
<path fill="lightgrey" stroke="lightgrey" d="M100,-180C94,-180 88,-174 88,-168"/>
<path fill="lightgrey" stroke="lightgrey" d="M88,-156C88,-150 94,-144 100,-144"/>
<path fill="lightgrey" stroke="lightgrey" d="M180,-144C186,-144 192,-150 192,-156"/>
<path fill="lightgrey" stroke="lightgrey" d="M192,-168C192,-174 186,-180 180,-180"/>
<polyline fill="none" stroke="black" points="180,-180 100,-180 "/>
<path fill="none" stroke="black" d="M100,-180C94,-180 88,-174 88,-168"/>
<polyline fill="none" stroke="black" points="88,-168 88,-156 "/>
<path fill="none" stroke="black" d="M88,-156C88,-150 94,-144 100,-144"/>
<polyline fill="none" stroke="black" points="100,-144 180,-144 "/>
<path fill="none" stroke="black" d="M180,-144C186,-144 192,-150 192,-156"/>
<polyline fill="none" stroke="black" points="192,-156 192,-168 "/>
<path fill="none" stroke="black" d="M192,-168C192,-174 186,-180 180,-180"/>
<text text-anchor="middle" x="140" y="-158.4" font-family="Times Roman,serif" font-size="14.00">S3DNSName</text>
</g>
<!-- S3DNSName&#45;&gt;myDistribution -->
<g id="edge4" class="edge"><title>S3DNSName&#45;&gt;myDistribution</title>
<path fill="none" stroke="black" d="M140,-143.831C140,-136.131 140,-126.974 140,-118.417"/>
<polygon fill="black" stroke="black" points="143.5,-118.413 140,-108.413 136.5,-118.413 143.5,-118.413"/>
</g>
</g>
</svg>
