<?xml version="1.0" encoding="UTF-8" standalone="no"?>
<!DOCTYPE svg PUBLIC "-//W3C//DTD SVG 1.1//EN"
 "http://www.w3.org/Graphics/SVG/1.1/DTD/svg11.dtd">
<!-- Generated by graphviz version 2.26.3 (20100126.1600)
 -->
<!-- Title: AWS CloudFormation Sample Template Drupal_Single_Instance. Drupal is an open source content management platform powering millions of websites and applications. This template installs a singe instance deployment with a local MySQL database for storage. It uses the AWS CloudFormation bootstrap scripts to install packages and files at instance launch time. **WARNING** This template creates an Amazon EC2 instance. You will be billed for the AWS resources used if you create a stack from this template. Pages: 1 -->
<svg width="1357pt" height="260pt"
 viewBox="0.00 0.00 1357.00 260.00" xmlns="http://www.w3.org/2000/svg" xmlns:xlink="http://www.w3.org/1999/xlink">
<g id="graph1" class="graph" transform="scale(1 1) rotate(0) translate(4 256)">
<title>AWS CloudFormation Sample Template Drupal_Single_Instance. Drupal is an open source content management platform powering millions of websites and applications. This template installs a singe instance deployment with a local MySQL database for storage. It uses the AWS CloudFormation bootstrap scripts to install packages and files at instance launch time. **WARNING** This template creates an Amazon EC2 instance. You will be billed for the AWS resources used if you create a stack from this template.</title>
<polygon fill="white" stroke="white" points="-4,5 -4,-256 1354,-256 1354,5 -4,5"/>
<!-- WebServer -->
<g id="node1" class="node"><title>WebServer</title>
<polygon fill="none" stroke="black" points="806,-108 714,-108 714,-72 806,-72 806,-108"/>
<text text-anchor="middle" x="760" y="-86.4" font-family="Times Roman,serif" font-size="14.00">WebServer</text>
</g>
<!-- WebsiteURL -->
<g id="node18" class="node"><title>WebsiteURL</title>
<polygon fill="lightgrey" stroke="lightgrey" points="798,-36 722,-36 710,-24 710,-12 722,-1.60583e-14 798,-5.25802e-15 810,-12 810,-24 798,-36"/>
<path fill="lightgrey" stroke="lightgrey" d="M722,-36C716,-36 710,-30 710,-24"/>
<path fill="lightgrey" stroke="lightgrey" d="M710,-12C710,-6 716,-1.69109e-14 722,-1.60583e-14"/>
<path fill="lightgrey" stroke="lightgrey" d="M798,-5.25802e-15C804,-4.40536e-15 810,-6 810,-12"/>
<path fill="lightgrey" stroke="lightgrey" d="M810,-24C810,-30 804,-36 798,-36"/>
<polyline fill="none" stroke="black" points="798,-36 722,-36 "/>
<path fill="none" stroke="black" d="M722,-36C716,-36 710,-30 710,-24"/>
<polyline fill="none" stroke="black" points="710,-24 710,-12 "/>
<path fill="none" stroke="black" d="M710,-12C710,-6 716,-1.69109e-14 722,-1.60583e-14"/>
<polyline fill="none" stroke="black" points="722,-1.60583e-14 798,-5.25802e-15 "/>
<path fill="none" stroke="black" d="M798,-5.25802e-15C804,-4.40536e-15 810,-6 810,-12"/>
<polyline fill="none" stroke="black" points="810,-12 810,-24 "/>
<path fill="none" stroke="black" d="M810,-24C810,-30 804,-36 798,-36"/>
<text text-anchor="middle" x="760" y="-14.4" font-family="Times Roman,serif" font-size="14.00">WebsiteURL</text>
</g>
<!-- WebServer&#45;&gt;WebsiteURL -->
<g id="edge54" class="edge"><title>WebServer&#45;&gt;WebsiteURL</title>
<path fill="none" stroke="black" d="M760,-71.8314C760,-64.131 760,-54.9743 760,-46.4166"/>
<polygon fill="black" stroke="black" points="763.5,-46.4132 760,-36.4133 756.5,-46.4133 763.5,-46.4132"/>
</g>
<!-- WaitCondition -->
<g id="node2" class="node"><title>WaitCondition</title>
<polygon fill="none" stroke="black" points="1349,-108 1235,-108 1235,-72 1349,-72 1349,-108"/>
<text text-anchor="middle" x="1292" y="-86.4" font-family="Times Roman,serif" font-size="14.00">WaitCondition</text>
</g>
<!-- WebServerSecurityGroup -->
<g id="node3" class="node"><title>WebServerSecurityGroup</title>
<polygon fill="none" stroke="black" points="192,-180 7.10543e-14,-180 0,-144 192,-144 192,-180"/>
<text text-anchor="middle" x="96" y="-158.4" font-family="Times Roman,serif" font-size="14.00">WebServerSecurityGroup</text>
</g>
<!-- WebServerSecurityGroup&#45;&gt;WebServer -->
<g id="edge32" class="edge"><title>WebServerSecurityGroup&#45;&gt;WebServer</title>
<path fill="none" stroke="black" d="M192.296,-147.478C201.316,-146.247 210.325,-145.067 219,-144 395.666,-122.268 605.615,-103.251 703.95,-94.7418"/>
<polygon fill="black" stroke="black" points="704.302,-98.2245 713.965,-93.8782 703.701,-91.2504 704.302,-98.2245"/>
</g>
<!-- WaitHandle -->
<g id="node4" class="node"><title>WaitHandle</title>
<polygon fill="none" stroke="black" points="1340,-180 1244,-180 1244,-144 1340,-144 1340,-180"/>
<text text-anchor="middle" x="1292" y="-158.4" font-family="Times Roman,serif" font-size="14.00">WaitHandle</text>
</g>
<!-- WaitHandle&#45;&gt;WebServer -->
<g id="edge4" class="edge"><title>WaitHandle&#45;&gt;WebServer</title>
<path fill="none" stroke="black" d="M1243.81,-148.51C1237.82,-146.805 1231.79,-145.23 1226,-144 1079.78,-112.904 904.174,-98.8338 816.054,-93.2245"/>
<polygon fill="black" stroke="black" points="816.204,-89.7272 806.005,-92.5975 815.768,-96.7136 816.204,-89.7272"/>
</g>
<!-- WaitHandle&#45;&gt;WebServer -->
<g id="edge28" class="edge"><title>WaitHandle&#45;&gt;WebServer</title>
<path fill="none" stroke="black" d="M1244.3,-144.065C1244.2,-144.043 1244.1,-144.022 1244,-144 1091.57,-111.585 907.214,-97.67 816.212,-92.5553"/>
<polygon fill="black" stroke="black" points="816.29,-89.0545 806.114,-92.0026 815.908,-96.044 816.29,-89.0545"/>
</g>
<!-- WaitHandle&#45;&gt;WaitCondition -->
<g id="edge50" class="edge"><title>WaitHandle&#45;&gt;WaitCondition</title>
<path fill="none" stroke="black" d="M1292,-143.831C1292,-136.131 1292,-126.974 1292,-118.417"/>
<polygon fill="black" stroke="black" points="1295.5,-118.413 1292,-108.413 1288.5,-118.413 1295.5,-118.413"/>
</g>
<!-- DBUsername -->
<g id="node6" class="node"><title>DBUsername</title>
<polygon fill="lightgrey" stroke="lightgrey" points="248,-252 166,-252 154,-240 154,-228 166,-216 248,-216 260,-228 260,-240 248,-252"/>
<path fill="lightgrey" stroke="lightgrey" d="M166,-252C160,-252 154,-246 154,-240"/>
<path fill="lightgrey" stroke="lightgrey" d="M154,-228C154,-222 160,-216 166,-216"/>
<path fill="lightgrey" stroke="lightgrey" d="M248,-216C254,-216 260,-222 260,-228"/>
<path fill="lightgrey" stroke="lightgrey" d="M260,-240C260,-246 254,-252 248,-252"/>
<polyline fill="none" stroke="black" points="248,-252 166,-252 "/>
<path fill="none" stroke="black" d="M166,-252C160,-252 154,-246 154,-240"/>
<polyline fill="none" stroke="black" points="154,-240 154,-228 "/>
<path fill="none" stroke="black" d="M154,-228C154,-222 160,-216 166,-216"/>
<polyline fill="none" stroke="black" points="166,-216 248,-216 "/>
<path fill="none" stroke="black" d="M248,-216C254,-216 260,-222 260,-228"/>
<polyline fill="none" stroke="black" points="260,-228 260,-240 "/>
<path fill="none" stroke="black" d="M260,-240C260,-246 254,-252 248,-252"/>
<text text-anchor="middle" x="207" y="-230.4" font-family="Times Roman,serif" font-size="14.00">DBUsername</text>
</g>
<!-- DBUsername&#45;&gt;WebServer -->
<g id="edge42" class="edge"><title>DBUsername&#45;&gt;WebServer</title>
<path fill="none" stroke="black" d="M236.317,-215.893C279.809,-195.805 361.873,-163.643 435,-144 527.027,-119.28 637.697,-103.019 703.684,-95.275"/>
<polygon fill="black" stroke="black" points="704.346,-98.7222 713.882,-94.1053 703.548,-91.7678 704.346,-98.7222"/>
</g>
<!-- DBUsername&#45;&gt;WebServer -->
<g id="edge48" class="edge"><title>DBUsername&#45;&gt;WebServer</title>
<path fill="none" stroke="black" d="M260.027,-216.79C313.342,-196.774 396.775,-163.938 471,-144 550.872,-122.545 644.788,-107.462 703.687,-98.7889"/>
<polygon fill="black" stroke="black" points="704.518,-102.205 713.907,-97.2961 703.506,-95.2783 704.518,-102.205"/>
</g>
<!-- DBUsername&#45;&gt;WebServer -->
<g id="edge22" class="edge"><title>DBUsername&#45;&gt;WebServer</title>
<path fill="none" stroke="black" d="M249.365,-215.893C297.809,-195.805 379.873,-163.643 453,-144 539.268,-120.827 641.918,-105.087 703.961,-96.8289"/>
<polygon fill="black" stroke="black" points="704.477,-100.291 713.936,-95.5192 703.565,-93.3509 704.477,-100.291"/>
</g>
<!-- SitePassword -->
<g id="node7" class="node"><title>SitePassword</title>
<polygon fill="lightgrey" stroke="lightgrey" points="374,-252 290,-252 278,-240 278,-228 290,-216 374,-216 386,-228 386,-240 374,-252"/>
<path fill="lightgrey" stroke="lightgrey" d="M290,-252C284,-252 278,-246 278,-240"/>
<path fill="lightgrey" stroke="lightgrey" d="M278,-228C278,-222 284,-216 290,-216"/>
<path fill="lightgrey" stroke="lightgrey" d="M374,-216C380,-216 386,-222 386,-228"/>
<path fill="lightgrey" stroke="lightgrey" d="M386,-240C386,-246 380,-252 374,-252"/>
<polyline fill="none" stroke="black" points="374,-252 290,-252 "/>
<path fill="none" stroke="black" d="M290,-252C284,-252 278,-246 278,-240"/>
<polyline fill="none" stroke="black" points="278,-240 278,-228 "/>
<path fill="none" stroke="black" d="M278,-228C278,-222 284,-216 290,-216"/>
<polyline fill="none" stroke="black" points="290,-216 374,-216 "/>
<path fill="none" stroke="black" d="M374,-216C380,-216 386,-222 386,-228"/>
<polyline fill="none" stroke="black" points="386,-228 386,-240 "/>
<path fill="none" stroke="black" d="M386,-240C386,-246 380,-252 374,-252"/>
<text text-anchor="middle" x="332" y="-230.4" font-family="Times Roman,serif" font-size="14.00">SitePassword</text>
</g>
<!-- SitePassword&#45;&gt;WebServer -->
<g id="edge20" class="edge"><title>SitePassword&#45;&gt;WebServer</title>
<path fill="none" stroke="black" d="M369.797,-215.937C411.858,-196.332 482.185,-165.02 545,-144 597.989,-126.268 660.03,-111.279 703.81,-101.627"/>
<polygon fill="black" stroke="black" points="704.671,-105.021 713.695,-99.4692 703.179,-98.1819 704.671,-105.021"/>
</g>
<!-- SiteName -->
<g id="node8" class="node"><title>SiteName</title>
<polygon fill="lightgrey" stroke="lightgrey" points="474,-252 416,-252 404,-240 404,-228 416,-216 474,-216 486,-228 486,-240 474,-252"/>
<path fill="lightgrey" stroke="lightgrey" d="M416,-252C410,-252 404,-246 404,-240"/>
<path fill="lightgrey" stroke="lightgrey" d="M404,-228C404,-222 410,-216 416,-216"/>
<path fill="lightgrey" stroke="lightgrey" d="M474,-216C480,-216 486,-222 486,-228"/>
<path fill="lightgrey" stroke="lightgrey" d="M486,-240C486,-246 480,-252 474,-252"/>
<polyline fill="none" stroke="black" points="474,-252 416,-252 "/>
<path fill="none" stroke="black" d="M416,-252C410,-252 404,-246 404,-240"/>
<polyline fill="none" stroke="black" points="404,-240 404,-228 "/>
<path fill="none" stroke="black" d="M404,-228C404,-222 410,-216 416,-216"/>
<polyline fill="none" stroke="black" points="416,-216 474,-216 "/>
<path fill="none" stroke="black" d="M474,-216C480,-216 486,-222 486,-228"/>
<polyline fill="none" stroke="black" points="486,-228 486,-240 "/>
<path fill="none" stroke="black" d="M486,-240C486,-246 480,-252 474,-252"/>
<text text-anchor="middle" x="445" y="-230.4" font-family="Times Roman,serif" font-size="14.00">SiteName</text>
</g>
<!-- SiteName&#45;&gt;WebServer -->
<g id="edge14" class="edge"><title>SiteName&#45;&gt;WebServer</title>
<path fill="none" stroke="black" d="M478.344,-215.972C513.777,-197.092 571.661,-167.037 623,-144 649.474,-132.12 679.403,-120.16 704.519,-110.526"/>
<polygon fill="black" stroke="black" points="705.795,-113.785 713.892,-106.952 703.301,-107.244 705.795,-113.785"/>
</g>
<!-- SiteEMail -->
<g id="node9" class="node"><title>SiteEMail</title>
<polygon fill="lightgrey" stroke="lightgrey" points="572,-252 516,-252 504,-240 504,-228 516,-216 572,-216 584,-228 584,-240 572,-252"/>
<path fill="lightgrey" stroke="lightgrey" d="M516,-252C510,-252 504,-246 504,-240"/>
<path fill="lightgrey" stroke="lightgrey" d="M504,-228C504,-222 510,-216 516,-216"/>
<path fill="lightgrey" stroke="lightgrey" d="M572,-216C578,-216 584,-222 584,-228"/>
<path fill="lightgrey" stroke="lightgrey" d="M584,-240C584,-246 578,-252 572,-252"/>
<polyline fill="none" stroke="black" points="572,-252 516,-252 "/>
<path fill="none" stroke="black" d="M516,-252C510,-252 504,-246 504,-240"/>
<polyline fill="none" stroke="black" points="504,-240 504,-228 "/>
<path fill="none" stroke="black" d="M504,-228C504,-222 510,-216 516,-216"/>
<polyline fill="none" stroke="black" points="516,-216 572,-216 "/>
<path fill="none" stroke="black" d="M572,-216C578,-216 584,-222 584,-228"/>
<polyline fill="none" stroke="black" points="584,-228 584,-240 "/>
<path fill="none" stroke="black" d="M584,-240C584,-246 578,-252 572,-252"/>
<text text-anchor="middle" x="544" y="-230.4" font-family="Times Roman,serif" font-size="14.00">SiteEMail</text>
</g>
<!-- SiteEMail&#45;&gt;WebServer -->
<g id="edge16" class="edge"><title>SiteEMail&#45;&gt;WebServer</title>
<path fill="none" stroke="black" d="M571.357,-215.762C610.227,-189.849 681.478,-142.348 724.414,-113.724"/>
<polygon fill="black" stroke="black" points="726.487,-116.549 732.866,-108.09 722.604,-110.724 726.487,-116.549"/>
</g>
<!-- DBPassword -->
<g id="node10" class="node"><title>DBPassword</title>
<polygon fill="lightgrey" stroke="lightgrey" points="692,-252 614,-252 602,-240 602,-228 614,-216 692,-216 704,-228 704,-240 692,-252"/>
<path fill="lightgrey" stroke="lightgrey" d="M614,-252C608,-252 602,-246 602,-240"/>
<path fill="lightgrey" stroke="lightgrey" d="M602,-228C602,-222 608,-216 614,-216"/>
<path fill="lightgrey" stroke="lightgrey" d="M692,-216C698,-216 704,-222 704,-228"/>
<path fill="lightgrey" stroke="lightgrey" d="M704,-240C704,-246 698,-252 692,-252"/>
<polyline fill="none" stroke="black" points="692,-252 614,-252 "/>
<path fill="none" stroke="black" d="M614,-252C608,-252 602,-246 602,-240"/>
<polyline fill="none" stroke="black" points="602,-240 602,-228 "/>
<path fill="none" stroke="black" d="M602,-228C602,-222 608,-216 614,-216"/>
<polyline fill="none" stroke="black" points="614,-216 692,-216 "/>
<path fill="none" stroke="black" d="M692,-216C698,-216 704,-222 704,-228"/>
<polyline fill="none" stroke="black" points="704,-228 704,-240 "/>
<path fill="none" stroke="black" d="M704,-240C704,-246 698,-252 692,-252"/>
<text text-anchor="middle" x="653" y="-230.4" font-family="Times Roman,serif" font-size="14.00">DBPassword</text>
</g>
<!-- DBPassword&#45;&gt;WebServer -->
<g id="edge24" class="edge"><title>DBPassword&#45;&gt;WebServer</title>
<path fill="none" stroke="black" d="M661.878,-215.762C678.086,-190.552 711.778,-144.91 735.268,-116.095"/>
<polygon fill="black" stroke="black" points="738.216,-118.023 741.9,-108.09 732.825,-113.558 738.216,-118.023"/>
</g>
<!-- DBPassword&#45;&gt;WebServer -->
<g id="edge44" class="edge"><title>DBPassword&#45;&gt;WebServer</title>
<path fill="none" stroke="black" d="M671.225,-215.762C692.391,-190.66 726.327,-145.302 745.701,-116.467"/>
<polygon fill="black" stroke="black" points="748.641,-118.367 751.217,-108.09 742.795,-114.518 748.641,-118.367"/>
</g>
<!-- DBName -->
<g id="node11" class="node"><title>DBName</title>
<polygon fill="lightgrey" stroke="lightgrey" points="786,-252 734,-252 722,-240 722,-228 734,-216 786,-216 798,-228 798,-240 786,-252"/>
<path fill="lightgrey" stroke="lightgrey" d="M734,-252C728,-252 722,-246 722,-240"/>
<path fill="lightgrey" stroke="lightgrey" d="M722,-228C722,-222 728,-216 734,-216"/>
<path fill="lightgrey" stroke="lightgrey" d="M786,-216C792,-216 798,-222 798,-228"/>
<path fill="lightgrey" stroke="lightgrey" d="M798,-240C798,-246 792,-252 786,-252"/>
<polyline fill="none" stroke="black" points="786,-252 734,-252 "/>
<path fill="none" stroke="black" d="M734,-252C728,-252 722,-246 722,-240"/>
<polyline fill="none" stroke="black" points="722,-240 722,-228 "/>
<path fill="none" stroke="black" d="M722,-228C722,-222 728,-216 734,-216"/>
<polyline fill="none" stroke="black" points="734,-216 786,-216 "/>
<path fill="none" stroke="black" d="M786,-216C792,-216 798,-222 798,-228"/>
<polyline fill="none" stroke="black" points="798,-228 798,-240 "/>
<path fill="none" stroke="black" d="M798,-240C798,-246 792,-252 786,-252"/>
<text text-anchor="middle" x="760" y="-230.4" font-family="Times Roman,serif" font-size="14.00">DBName</text>
</g>
<!-- DBName&#45;&gt;WebServer -->
<g id="edge26" class="edge"><title>DBName&#45;&gt;WebServer</title>
<path fill="none" stroke="black" d="M750.654,-215.762C745.712,-191.093 745.18,-146.86 749.056,-117.973"/>
<polygon fill="black" stroke="black" points="752.512,-118.525 750.683,-108.09 745.605,-117.388 752.512,-118.525"/>
</g>
<!-- DBName&#45;&gt;WebServer -->
<g id="edge40" class="edge"><title>DBName&#45;&gt;WebServer</title>
<path fill="none" stroke="black" d="M760,-215.762C760,-191.201 760,-147.247 760,-118.354"/>
<polygon fill="black" stroke="black" points="763.5,-118.09 760,-108.09 756.5,-118.09 763.5,-118.09"/>
</g>
<!-- DBName&#45;&gt;WebServer -->
<g id="edge46" class="edge"><title>DBName&#45;&gt;WebServer</title>
<path fill="none" stroke="black" d="M769.346,-215.762C774.288,-191.093 774.82,-146.86 770.944,-117.973"/>
<polygon fill="black" stroke="black" points="774.395,-117.388 769.317,-108.09 767.488,-118.525 774.395,-117.388"/>
</g>
<!-- SSHLocation -->
<g id="node12" class="node"><title>SSHLocation</title>
<polygon fill="lightgrey" stroke="lightgrey" points="124,-252 44,-252 32,-240 32,-228 44,-216 124,-216 136,-228 136,-240 124,-252"/>
<path fill="lightgrey" stroke="lightgrey" d="M44,-252C38,-252 32,-246 32,-240"/>
<path fill="lightgrey" stroke="lightgrey" d="M32,-228C32,-222 38,-216 44,-216"/>
<path fill="lightgrey" stroke="lightgrey" d="M124,-216C130,-216 136,-222 136,-228"/>
<path fill="lightgrey" stroke="lightgrey" d="M136,-240C136,-246 130,-252 124,-252"/>
<polyline fill="none" stroke="black" points="124,-252 44,-252 "/>
<path fill="none" stroke="black" d="M44,-252C38,-252 32,-246 32,-240"/>
<polyline fill="none" stroke="black" points="32,-240 32,-228 "/>
<path fill="none" stroke="black" d="M32,-228C32,-222 38,-216 44,-216"/>
<polyline fill="none" stroke="black" points="44,-216 124,-216 "/>
<path fill="none" stroke="black" d="M124,-216C130,-216 136,-222 136,-228"/>
<polyline fill="none" stroke="black" points="136,-228 136,-240 "/>
<path fill="none" stroke="black" d="M136,-240C136,-246 130,-252 124,-252"/>
<text text-anchor="middle" x="84" y="-230.4" font-family="Times Roman,serif" font-size="14.00">SSHLocation</text>
</g>
<!-- SSHLocation&#45;&gt;WebServerSecurityGroup -->
<g id="edge52" class="edge"><title>SSHLocation&#45;&gt;WebServerSecurityGroup</title>
<path fill="none" stroke="black" d="M87.0281,-215.831C88.3115,-208.131 89.8376,-198.974 91.2639,-190.417"/>
<polygon fill="black" stroke="black" points="94.7394,-190.853 92.9311,-180.413 87.8347,-189.702 94.7394,-190.853"/>
</g>
<!-- KeyName -->
<g id="node13" class="node"><title>KeyName</title>
<polygon fill="lightgrey" stroke="lightgrey" points="884,-252 828,-252 816,-240 816,-228 828,-216 884,-216 896,-228 896,-240 884,-252"/>
<path fill="lightgrey" stroke="lightgrey" d="M828,-252C822,-252 816,-246 816,-240"/>
<path fill="lightgrey" stroke="lightgrey" d="M816,-228C816,-222 822,-216 828,-216"/>
<path fill="lightgrey" stroke="lightgrey" d="M884,-216C890,-216 896,-222 896,-228"/>
<path fill="lightgrey" stroke="lightgrey" d="M896,-240C896,-246 890,-252 884,-252"/>
<polyline fill="none" stroke="black" points="884,-252 828,-252 "/>
<path fill="none" stroke="black" d="M828,-252C822,-252 816,-246 816,-240"/>
<polyline fill="none" stroke="black" points="816,-240 816,-228 "/>
<path fill="none" stroke="black" d="M816,-228C816,-222 822,-216 828,-216"/>
<polyline fill="none" stroke="black" points="828,-216 884,-216 "/>
<path fill="none" stroke="black" d="M884,-216C890,-216 896,-222 896,-228"/>
<polyline fill="none" stroke="black" points="896,-228 896,-240 "/>
<path fill="none" stroke="black" d="M896,-240C896,-246 890,-252 884,-252"/>
<text text-anchor="middle" x="856" y="-230.4" font-family="Times Roman,serif" font-size="14.00">KeyName</text>
</g>
<!-- KeyName&#45;&gt;WebServer -->
<g id="edge30" class="edge"><title>KeyName&#45;&gt;WebServer</title>
<path fill="none" stroke="black" d="M843.842,-215.762C827.107,-190.66 796.868,-145.302 777.645,-116.467"/>
<polygon fill="black" stroke="black" points="780.519,-114.469 772.06,-108.09 774.695,-118.352 780.519,-114.469"/>
</g>
<!-- SiteAdmin -->
<g id="node14" class="node"><title>SiteAdmin</title>
<polygon fill="lightgrey" stroke="lightgrey" points="988,-252 926,-252 914,-240 914,-228 926,-216 988,-216 1000,-228 1000,-240 988,-252"/>
<path fill="lightgrey" stroke="lightgrey" d="M926,-252C920,-252 914,-246 914,-240"/>
<path fill="lightgrey" stroke="lightgrey" d="M914,-228C914,-222 920,-216 926,-216"/>
<path fill="lightgrey" stroke="lightgrey" d="M988,-216C994,-216 1000,-222 1000,-228"/>
<path fill="lightgrey" stroke="lightgrey" d="M1000,-240C1000,-246 994,-252 988,-252"/>
<polyline fill="none" stroke="black" points="988,-252 926,-252 "/>
<path fill="none" stroke="black" d="M926,-252C920,-252 914,-246 914,-240"/>
<polyline fill="none" stroke="black" points="914,-240 914,-228 "/>
<path fill="none" stroke="black" d="M914,-228C914,-222 920,-216 926,-216"/>
<polyline fill="none" stroke="black" points="926,-216 988,-216 "/>
<path fill="none" stroke="black" d="M988,-216C994,-216 1000,-222 1000,-228"/>
<polyline fill="none" stroke="black" points="1000,-228 1000,-240 "/>
<path fill="none" stroke="black" d="M1000,-240C1000,-246 994,-252 988,-252"/>
<text text-anchor="middle" x="957" y="-230.4" font-family="Times Roman,serif" font-size="14.00">SiteAdmin</text>
</g>
<!-- SiteAdmin&#45;&gt;WebServer -->
<g id="edge18" class="edge"><title>SiteAdmin&#45;&gt;WebServer</title>
<path fill="none" stroke="black" d="M929.701,-215.85C914.371,-205.531 894.968,-192.258 878,-180 848.108,-158.406 814.756,-132.826 791.157,-114.467"/>
<polygon fill="black" stroke="black" points="793.277,-111.681 783.238,-108.293 788.972,-117.202 793.277,-111.681"/>
</g>
<!-- DBRootPassword -->
<g id="node15" class="node"><title>DBRootPassword</title>
<polygon fill="lightgrey" stroke="lightgrey" points="1140,-252 1030,-252 1018,-240 1018,-228 1030,-216 1140,-216 1152,-228 1152,-240 1140,-252"/>
<path fill="lightgrey" stroke="lightgrey" d="M1030,-252C1024,-252 1018,-246 1018,-240"/>
<path fill="lightgrey" stroke="lightgrey" d="M1018,-228C1018,-222 1024,-216 1030,-216"/>
<path fill="lightgrey" stroke="lightgrey" d="M1140,-216C1146,-216 1152,-222 1152,-228"/>
<path fill="lightgrey" stroke="lightgrey" d="M1152,-240C1152,-246 1146,-252 1140,-252"/>
<polyline fill="none" stroke="black" points="1140,-252 1030,-252 "/>
<path fill="none" stroke="black" d="M1030,-252C1024,-252 1018,-246 1018,-240"/>
<polyline fill="none" stroke="black" points="1018,-240 1018,-228 "/>
<path fill="none" stroke="black" d="M1018,-228C1018,-222 1024,-216 1030,-216"/>
<polyline fill="none" stroke="black" points="1030,-216 1140,-216 "/>
<path fill="none" stroke="black" d="M1140,-216C1146,-216 1152,-222 1152,-228"/>
<polyline fill="none" stroke="black" points="1152,-228 1152,-240 "/>
<path fill="none" stroke="black" d="M1152,-240C1152,-246 1146,-252 1140,-252"/>
<text text-anchor="middle" x="1085" y="-230.4" font-family="Times Roman,serif" font-size="14.00">DBRootPassword</text>
</g>
<!-- DBRootPassword&#45;&gt;WebServer -->
<g id="edge10" class="edge"><title>DBRootPassword&#45;&gt;WebServer</title>
<path fill="none" stroke="black" d="M1019.39,-215.884C989.94,-206.277 955.189,-193.649 925,-180 894.909,-166.395 889.248,-159.334 860,-144 839.839,-133.43 817.332,-122.188 798.7,-112.713"/>
<polygon fill="black" stroke="black" points="800.116,-109.506 789.618,-108.074 796.932,-115.74 800.116,-109.506"/>
</g>
<!-- DBRootPassword&#45;&gt;WebServer -->
<g id="edge12" class="edge"><title>DBRootPassword&#45;&gt;WebServer</title>
<path fill="none" stroke="black" d="M1035.58,-215.884C1007.94,-206.277 973.189,-193.649 943,-180 912.909,-166.395 907.248,-159.334 878,-144 857.563,-133.285 834.715,-121.88 814.537,-112.325"/>
<polygon fill="black" stroke="black" points="816.012,-109.151 805.472,-108.074 813.04,-115.489 816.012,-109.151"/>
</g>
<!-- InstanceType -->
<g id="node16" class="node"><title>InstanceType</title>
<polygon fill="lightgrey" stroke="lightgrey" points="1264,-252 1182,-252 1170,-240 1170,-228 1182,-216 1264,-216 1276,-228 1276,-240 1264,-252"/>
<path fill="lightgrey" stroke="lightgrey" d="M1182,-252C1176,-252 1170,-246 1170,-240"/>
<path fill="lightgrey" stroke="lightgrey" d="M1170,-228C1170,-222 1176,-216 1182,-216"/>
<path fill="lightgrey" stroke="lightgrey" d="M1264,-216C1270,-216 1276,-222 1276,-228"/>
<path fill="lightgrey" stroke="lightgrey" d="M1276,-240C1276,-246 1270,-252 1264,-252"/>
<polyline fill="none" stroke="black" points="1264,-252 1182,-252 "/>
<path fill="none" stroke="black" d="M1182,-252C1176,-252 1170,-246 1170,-240"/>
<polyline fill="none" stroke="black" points="1170,-240 1170,-228 "/>
<path fill="none" stroke="black" d="M1170,-228C1170,-222 1176,-216 1182,-216"/>
<polyline fill="none" stroke="black" points="1182,-216 1264,-216 "/>
<path fill="none" stroke="black" d="M1264,-216C1270,-216 1276,-222 1276,-228"/>
<polyline fill="none" stroke="black" points="1276,-228 1276,-240 "/>
<path fill="none" stroke="black" d="M1276,-240C1276,-246 1270,-252 1264,-252"/>
<text text-anchor="middle" x="1223" y="-230.4" font-family="Times Roman,serif" font-size="14.00">InstanceType</text>
</g>
<!-- InstanceType&#45;&gt;WebServer -->
<g id="edge34" class="edge"><title>InstanceType&#45;&gt;WebServer</title>
<path fill="none" stroke="black" d="M1169.83,-220.682C1163.8,-219.031 1157.77,-217.425 1152,-216 1074.49,-196.854 1050.51,-208.683 976,-180 946.621,-168.691 943.672,-156.998 915,-144 882.99,-129.489 845.9,-116.943 815.963,-107.606"/>
<polygon fill="black" stroke="black" points="816.69,-104.167 806.102,-104.564 814.626,-110.856 816.69,-104.167"/>
</g>
<!-- InstanceType&#45;&gt;WebServer -->
<g id="edge38" class="edge"><title>InstanceType&#45;&gt;WebServer</title>
<path fill="none" stroke="black" d="M1170.33,-216.081C1170.22,-216.054 1170.11,-216.027 1170,-216 1092.49,-196.854 1068.51,-208.683 994,-180 964.621,-168.691 961.672,-156.998 933,-144 895.354,-126.934 850.683,-112.586 816.07,-102.979"/>
<polygon fill="black" stroke="black" points="816.698,-99.5229 806.13,-100.275 814.86,-106.277 816.698,-99.5229"/>
</g>
<!-- AWS::StackId -->
<g id="node20" class="node"><title>AWS::StackId</title>
<polygon fill="none" stroke="black" points="1104,-180 994,-180 994,-144 1104,-144 1104,-180"/>
<text text-anchor="middle" x="1049" y="-158.4" font-family="Times Roman,serif" font-size="14.00">AWS::StackId</text>
</g>
<!-- AWS::StackId&#45;&gt;WebServer -->
<g id="edge6" class="edge"><title>AWS::StackId&#45;&gt;WebServer</title>
<path fill="none" stroke="black" d="M993.657,-147.487C989.039,-146.299 984.441,-145.124 980,-144 924.352,-129.913 860.642,-114.335 816.154,-103.546"/>
<polygon fill="black" stroke="black" points="816.945,-100.136 806.402,-101.183 815.296,-106.939 816.945,-100.136"/>
</g>
<!-- AWS::Region -->
<g id="node22" class="node"><title>AWS::Region</title>
<polygon fill="none" stroke="black" points="1226,-180 1122,-180 1122,-144 1226,-144 1226,-180"/>
<text text-anchor="middle" x="1174" y="-158.4" font-family="Times Roman,serif" font-size="14.00">AWS::Region</text>
</g>
<!-- AWS::Region&#45;&gt;WebServer -->
<g id="edge36" class="edge"><title>AWS::Region&#45;&gt;WebServer</title>
<path fill="none" stroke="black" d="M1121.95,-148.488C1115.9,-146.849 1109.82,-145.298 1104,-144 1003.42,-121.575 884.634,-105.505 816.151,-96.9922"/>
<polygon fill="black" stroke="black" points="816.364,-93.4921 806.011,-95.7411 815.507,-100.439 816.364,-93.4921"/>
</g>
<!-- AWS::Region&#45;&gt;WebServer -->
<g id="edge8" class="edge"><title>AWS::Region&#45;&gt;WebServer</title>
<path fill="none" stroke="black" d="M1122.32,-144.072C1122.22,-144.048 1122.11,-144.024 1122,-144 1015.3,-120.211 888.116,-103.574 816.345,-95.5228"/>
<polygon fill="black" stroke="black" points="816.491,-92.0177 806.167,-94.3974 815.722,-98.9753 816.491,-92.0177"/>
</g>
</g>
</svg>
