<?xml version="1.0" encoding="UTF-8" standalone="no"?>
<!DOCTYPE svg PUBLIC "-//W3C//DTD SVG 1.1//EN"
 "http://www.w3.org/Graphics/SVG/1.1/DTD/svg11.dtd">
<!-- Generated by graphviz version 2.26.3 (20100126.1600)
 -->
<!-- Title: AWS CloudFormation Sample Template Drupal_Single_Instance_With_RDS. Drupal is an open source content management platform powering millions of websites and applications. This template installs a singe instance deployment using an Amazon RDS database instance for storage. It uses the AWS CloudFormation bootstrap scripts to install packages and files at instance launch time. **WARNING** This template creates an Amazon EC2 instance and an Amazon RDS database instance. You will be billed for the AWS resources used if you create a stack from this template. Pages: 1 -->
<svg width="1362pt" height="404pt"
 viewBox="0.00 0.00 1362.00 404.00" xmlns="http://www.w3.org/2000/svg" xmlns:xlink="http://www.w3.org/1999/xlink">
<g id="graph1" class="graph" transform="scale(1 1) rotate(0) translate(4 400)">
<title>AWS CloudFormation Sample Template Drupal_Single_Instance_With_RDS. Drupal is an open source content management platform powering millions of websites and applications. This template installs a singe instance deployment using an Amazon RDS database instance for storage. It uses the AWS CloudFormation bootstrap scripts to install packages and files at instance launch time. **WARNING** This template creates an Amazon EC2 instance and an Amazon RDS database instance. You will be billed for the AWS resources used if you create a stack from this template.</title>
<polygon fill="white" stroke="white" points="-4,5 -4,-400 1359,-400 1359,5 -4,5"/>
<!-- DBSecurityGroup -->
<g id="node1" class="node"><title>DBSecurityGroup</title>
<polygon fill="none" stroke="black" points="781,-252 645,-252 645,-216 781,-216 781,-252"/>
<text text-anchor="middle" x="713" y="-230.4" font-family="Times Roman,serif" font-size="14.00">DBSecurityGroup</text>
</g>
<!-- DBInstance -->
<g id="node5" class="node"><title>DBInstance</title>
<polygon fill="none" stroke="black" points="570,-180 474,-180 474,-144 570,-144 570,-180"/>
<text text-anchor="middle" x="522" y="-158.4" font-family="Times Roman,serif" font-size="14.00">DBInstance</text>
</g>
<!-- DBSecurityGroup&#45;&gt;DBInstance -->
<g id="edge46" class="edge"><title>DBSecurityGroup&#45;&gt;DBInstance</title>
<path fill="none" stroke="black" d="M664.803,-215.831C638.803,-206.031 606.546,-193.871 579.272,-183.589"/>
<polygon fill="black" stroke="black" points="580.443,-180.29 569.851,-180.038 577.973,-186.84 580.443,-180.29"/>
</g>
<!-- WebServerSecurityGroup -->
<g id="node2" class="node"><title>WebServerSecurityGroup</title>
<polygon fill="none" stroke="black" points="832,-324 640,-324 640,-288 832,-288 832,-324"/>
<text text-anchor="middle" x="736" y="-302.4" font-family="Times Roman,serif" font-size="14.00">WebServerSecurityGroup</text>
</g>
<!-- WebServerSecurityGroup&#45;&gt;DBSecurityGroup -->
<g id="edge4" class="edge"><title>WebServerSecurityGroup&#45;&gt;DBSecurityGroup</title>
<path fill="none" stroke="black" d="M730.196,-287.831C727.709,-280.046 724.747,-270.773 721.987,-262.135"/>
<polygon fill="black" stroke="black" points="725.259,-260.874 718.882,-252.413 718.591,-263.004 725.259,-260.874"/>
</g>
<!-- WebServer -->
<g id="node3" class="node"><title>WebServer</title>
<polygon fill="none" stroke="black" points="963,-108 871,-108 871,-72 963,-72 963,-108"/>
<text text-anchor="middle" x="917" y="-86.4" font-family="Times Roman,serif" font-size="14.00">WebServer</text>
</g>
<!-- WebServerSecurityGroup&#45;&gt;WebServer -->
<g id="edge36" class="edge"><title>WebServerSecurityGroup&#45;&gt;WebServer</title>
<path fill="none" stroke="black" d="M757.044,-287.831C767.734,-277.928 780.446,-265.052 790,-252 821.936,-208.371 811.19,-185.373 846,-144 855.387,-132.843 867.472,-122.589 879.002,-114.083"/>
<polygon fill="black" stroke="black" points="881.135,-116.86 887.252,-108.209 877.076,-111.157 881.135,-116.86"/>
</g>
<!-- WebsiteURL -->
<g id="node21" class="node"><title>WebsiteURL</title>
<polygon fill="lightgrey" stroke="lightgrey" points="955,-36 879,-36 867,-24 867,-12 879,-1.60583e-14 955,-5.25802e-15 967,-12 967,-24 955,-36"/>
<path fill="lightgrey" stroke="lightgrey" d="M879,-36C873,-36 867,-30 867,-24"/>
<path fill="lightgrey" stroke="lightgrey" d="M867,-12C867,-6 873,-1.69109e-14 879,-1.60583e-14"/>
<path fill="lightgrey" stroke="lightgrey" d="M955,-5.25802e-15C961,-4.40536e-15 967,-6 967,-12"/>
<path fill="lightgrey" stroke="lightgrey" d="M967,-24C967,-30 961,-36 955,-36"/>
<polyline fill="none" stroke="black" points="955,-36 879,-36 "/>
<path fill="none" stroke="black" d="M879,-36C873,-36 867,-30 867,-24"/>
<polyline fill="none" stroke="black" points="867,-24 867,-12 "/>
<path fill="none" stroke="black" d="M867,-12C867,-6 873,-1.69109e-14 879,-1.60583e-14"/>
<polyline fill="none" stroke="black" points="879,-1.60583e-14 955,-5.25802e-15 "/>
<path fill="none" stroke="black" d="M955,-5.25802e-15C961,-4.40536e-15 967,-6 967,-12"/>
<polyline fill="none" stroke="black" points="967,-12 967,-24 "/>
<path fill="none" stroke="black" d="M967,-24C967,-30 961,-36 955,-36"/>
<text text-anchor="middle" x="917" y="-14.4" font-family="Times Roman,serif" font-size="14.00">WebsiteURL</text>
</g>
<!-- WebServer&#45;&gt;WebsiteURL -->
<g id="edge58" class="edge"><title>WebServer&#45;&gt;WebsiteURL</title>
<path fill="none" stroke="black" d="M917,-71.8314C917,-64.131 917,-54.9743 917,-46.4166"/>
<polygon fill="black" stroke="black" points="920.5,-46.4132 917,-36.4133 913.5,-46.4133 920.5,-46.4132"/>
</g>
<!-- WaitCondition -->
<g id="node4" class="node"><title>WaitCondition</title>
<polygon fill="none" stroke="black" points="1347,-108 1233,-108 1233,-72 1347,-72 1347,-108"/>
<text text-anchor="middle" x="1290" y="-86.4" font-family="Times Roman,serif" font-size="14.00">WaitCondition</text>
</g>
<!-- DBInstance&#45;&gt;WebServer -->
<g id="edge26" class="edge"><title>DBInstance&#45;&gt;WebServer</title>
<path fill="none" stroke="black" d="M570.232,-148.038C576.517,-146.615 582.887,-145.24 589,-144 683.579,-124.816 794.89,-107.059 860.596,-97.4552"/>
<polygon fill="black" stroke="black" points="861.346,-100.883 870.74,-95.9848 860.341,-93.9556 861.346,-100.883"/>
</g>
<!-- DBInstance&#45;&gt;WebServer -->
<g id="edge28" class="edge"><title>DBInstance&#45;&gt;WebServer</title>
<path fill="none" stroke="black" d="M570.352,-152.077C582.384,-149.305 595.173,-146.399 607,-144 695.518,-126.045 798.692,-109.341 860.958,-99.4003"/>
<polygon fill="black" stroke="black" points="861.643,-102.835 870.967,-97.8039 860.54,-95.9227 861.643,-102.835"/>
</g>
<!-- WaitHandle -->
<g id="node6" class="node"><title>WaitHandle</title>
<polygon fill="none" stroke="black" points="1338,-180 1242,-180 1242,-144 1338,-144 1338,-180"/>
<text text-anchor="middle" x="1290" y="-158.4" font-family="Times Roman,serif" font-size="14.00">WaitHandle</text>
</g>
<!-- WaitHandle&#45;&gt;WebServer -->
<g id="edge32" class="edge"><title>WaitHandle&#45;&gt;WebServer</title>
<path fill="none" stroke="black" d="M1241.98,-149.913C1234.28,-147.792 1226.43,-145.717 1219,-144 1133.95,-124.335 1034.34,-108.236 973.378,-98.878"/>
<polygon fill="black" stroke="black" points="973.611,-95.373 963.197,-97.3223 972.553,-102.293 973.611,-95.373"/>
</g>
<!-- WaitHandle&#45;&gt;WebServer -->
<g id="edge8" class="edge"><title>WaitHandle&#45;&gt;WebServer</title>
<path fill="none" stroke="black" d="M1241.97,-145.185C1240.3,-144.775 1238.64,-144.379 1237,-144 1145.65,-122.877 1037.49,-105.868 973.103,-96.9088"/>
<polygon fill="black" stroke="black" points="973.538,-93.4359 963.155,-95.5408 972.584,-100.371 973.538,-93.4359"/>
</g>
<!-- WaitHandle&#45;&gt;WaitCondition -->
<g id="edge44" class="edge"><title>WaitHandle&#45;&gt;WaitCondition</title>
<path fill="none" stroke="black" d="M1290,-143.831C1290,-136.131 1290,-126.974 1290,-118.417"/>
<polygon fill="black" stroke="black" points="1293.5,-118.413 1290,-108.413 1286.5,-118.413 1293.5,-118.413"/>
</g>
<!-- DBUsername -->
<g id="node8" class="node"><title>DBUsername</title>
<polygon fill="lightgrey" stroke="lightgrey" points="192,-396 110,-396 98,-384 98,-372 110,-360 192,-360 204,-372 204,-384 192,-396"/>
<path fill="lightgrey" stroke="lightgrey" d="M110,-396C104,-396 98,-390 98,-384"/>
<path fill="lightgrey" stroke="lightgrey" d="M98,-372C98,-366 104,-360 110,-360"/>
<path fill="lightgrey" stroke="lightgrey" d="M192,-360C198,-360 204,-366 204,-372"/>
<path fill="lightgrey" stroke="lightgrey" d="M204,-384C204,-390 198,-396 192,-396"/>
<polyline fill="none" stroke="black" points="192,-396 110,-396 "/>
<path fill="none" stroke="black" d="M110,-396C104,-396 98,-390 98,-384"/>
<polyline fill="none" stroke="black" points="98,-384 98,-372 "/>
<path fill="none" stroke="black" d="M98,-372C98,-366 104,-360 110,-360"/>
<polyline fill="none" stroke="black" points="110,-360 192,-360 "/>
<path fill="none" stroke="black" d="M192,-360C198,-360 204,-366 204,-372"/>
<polyline fill="none" stroke="black" points="204,-372 204,-384 "/>
<path fill="none" stroke="black" d="M204,-384C204,-390 198,-396 192,-396"/>
<text text-anchor="middle" x="151" y="-374.4" font-family="Times Roman,serif" font-size="14.00">DBUsername</text>
</g>
<!-- DBUsername&#45;&gt;WebServer -->
<g id="edge22" class="edge"><title>DBUsername&#45;&gt;WebServer</title>
<path fill="none" stroke="black" d="M164.1,-359.874C198.238,-314.246 295.158,-194.682 408,-144 487.77,-108.172 745.725,-95.5163 860.745,-91.5794"/>
<polygon fill="black" stroke="black" points="860.881,-95.0769 870.76,-91.2464 860.649,-88.0808 860.881,-95.0769"/>
</g>
<!-- DBUsername&#45;&gt;DBInstance -->
<g id="edge48" class="edge"><title>DBUsername&#45;&gt;DBInstance</title>
<path fill="none" stroke="black" d="M178.407,-359.866C225.538,-328.954 325.335,-264.677 413,-216 432.754,-205.031 455.036,-193.799 474.281,-184.439"/>
<polygon fill="black" stroke="black" points="475.979,-187.505 483.461,-180.004 472.934,-181.203 475.979,-187.505"/>
</g>
<!-- SitePassword -->
<g id="node9" class="node"><title>SitePassword</title>
<polygon fill="lightgrey" stroke="lightgrey" points="1242,-396 1158,-396 1146,-384 1146,-372 1158,-360 1242,-360 1254,-372 1254,-384 1242,-396"/>
<path fill="lightgrey" stroke="lightgrey" d="M1158,-396C1152,-396 1146,-390 1146,-384"/>
<path fill="lightgrey" stroke="lightgrey" d="M1146,-372C1146,-366 1152,-360 1158,-360"/>
<path fill="lightgrey" stroke="lightgrey" d="M1242,-360C1248,-360 1254,-366 1254,-372"/>
<path fill="lightgrey" stroke="lightgrey" d="M1254,-384C1254,-390 1248,-396 1242,-396"/>
<polyline fill="none" stroke="black" points="1242,-396 1158,-396 "/>
<path fill="none" stroke="black" d="M1158,-396C1152,-396 1146,-390 1146,-384"/>
<polyline fill="none" stroke="black" points="1146,-384 1146,-372 "/>
<path fill="none" stroke="black" d="M1146,-372C1146,-366 1152,-360 1158,-360"/>
<polyline fill="none" stroke="black" points="1158,-360 1242,-360 "/>
<path fill="none" stroke="black" d="M1242,-360C1248,-360 1254,-366 1254,-372"/>
<polyline fill="none" stroke="black" points="1254,-372 1254,-384 "/>
<path fill="none" stroke="black" d="M1254,-384C1254,-390 1248,-396 1242,-396"/>
<text text-anchor="middle" x="1200" y="-374.4" font-family="Times Roman,serif" font-size="14.00">SitePassword</text>
</g>
<!-- SitePassword&#45;&gt;WebServer -->
<g id="edge20" class="edge"><title>SitePassword&#45;&gt;WebServer</title>
<path fill="none" stroke="black" d="M1198.25,-359.712C1193.05,-315.768 1173.68,-203.48 1108,-144 1088.17,-126.039 1022.1,-109.997 973.203,-100.156"/>
<polygon fill="black" stroke="black" points="973.85,-96.7159 963.361,-98.2114 972.493,-103.583 973.85,-96.7159"/>
</g>
<!-- SiteName -->
<g id="node10" class="node"><title>SiteName</title>
<polygon fill="lightgrey" stroke="lightgrey" points="1342,-396 1284,-396 1272,-384 1272,-372 1284,-360 1342,-360 1354,-372 1354,-384 1342,-396"/>
<path fill="lightgrey" stroke="lightgrey" d="M1284,-396C1278,-396 1272,-390 1272,-384"/>
<path fill="lightgrey" stroke="lightgrey" d="M1272,-372C1272,-366 1278,-360 1284,-360"/>
<path fill="lightgrey" stroke="lightgrey" d="M1342,-360C1348,-360 1354,-366 1354,-372"/>
<path fill="lightgrey" stroke="lightgrey" d="M1354,-384C1354,-390 1348,-396 1342,-396"/>
<polyline fill="none" stroke="black" points="1342,-396 1284,-396 "/>
<path fill="none" stroke="black" d="M1284,-396C1278,-396 1272,-390 1272,-384"/>
<polyline fill="none" stroke="black" points="1272,-384 1272,-372 "/>
<path fill="none" stroke="black" d="M1272,-372C1272,-366 1278,-360 1284,-360"/>
<polyline fill="none" stroke="black" points="1284,-360 1342,-360 "/>
<path fill="none" stroke="black" d="M1342,-360C1348,-360 1354,-366 1354,-372"/>
<polyline fill="none" stroke="black" points="1354,-372 1354,-384 "/>
<path fill="none" stroke="black" d="M1354,-384C1354,-390 1348,-396 1342,-396"/>
<text text-anchor="middle" x="1313" y="-374.4" font-family="Times Roman,serif" font-size="14.00">SiteName</text>
</g>
<!-- SiteName&#45;&gt;WebServer -->
<g id="edge14" class="edge"><title>SiteName&#45;&gt;WebServer</title>
<path fill="none" stroke="black" d="M1304.64,-359.707C1283.35,-315.253 1222.57,-201.022 1136,-144 1109.52,-126.56 1028.93,-109.578 973.264,-99.4522"/>
<polygon fill="black" stroke="black" points="973.64,-95.9639 963.179,-97.6427 972.404,-102.854 973.64,-95.9639"/>
</g>
<!-- DBClass -->
<g id="node11" class="node"><title>DBClass</title>
<polygon fill="lightgrey" stroke="lightgrey" points="402,-396 354,-396 342,-384 342,-372 354,-360 402,-360 414,-372 414,-384 402,-396"/>
<path fill="lightgrey" stroke="lightgrey" d="M354,-396C348,-396 342,-390 342,-384"/>
<path fill="lightgrey" stroke="lightgrey" d="M342,-372C342,-366 348,-360 354,-360"/>
<path fill="lightgrey" stroke="lightgrey" d="M402,-360C408,-360 414,-366 414,-372"/>
<path fill="lightgrey" stroke="lightgrey" d="M414,-384C414,-390 408,-396 402,-396"/>
<polyline fill="none" stroke="black" points="402,-396 354,-396 "/>
<path fill="none" stroke="black" d="M354,-396C348,-396 342,-390 342,-384"/>
<polyline fill="none" stroke="black" points="342,-384 342,-372 "/>
<path fill="none" stroke="black" d="M342,-372C342,-366 348,-360 354,-360"/>
<polyline fill="none" stroke="black" points="354,-360 402,-360 "/>
<path fill="none" stroke="black" d="M402,-360C408,-360 414,-366 414,-372"/>
<polyline fill="none" stroke="black" points="414,-372 414,-384 "/>
<path fill="none" stroke="black" d="M414,-384C414,-390 408,-396 402,-396"/>
<text text-anchor="middle" x="378" y="-374.4" font-family="Times Roman,serif" font-size="14.00">DBClass</text>
</g>
<!-- DBClass&#45;&gt;DBInstance -->
<g id="edge54" class="edge"><title>DBClass&#45;&gt;DBInstance</title>
<path fill="none" stroke="black" d="M390.03,-359.955C415.388,-321.917 474.438,-233.343 504.192,-188.713"/>
<polygon fill="black" stroke="black" points="507.268,-190.407 509.903,-180.145 501.444,-186.524 507.268,-190.407"/>
</g>
<!-- SiteEMail -->
<g id="node12" class="node"><title>SiteEMail</title>
<polygon fill="lightgrey" stroke="lightgrey" points="68,-396 12,-396 2.36848e-14,-384 1.18424e-14,-372 12,-360 68,-360 80,-372 80,-384 68,-396"/>
<path fill="lightgrey" stroke="lightgrey" d="M12,-396C6,-396 2.96059e-14,-390 2.36848e-14,-384"/>
<path fill="lightgrey" stroke="lightgrey" d="M1.18424e-14,-372C5.92119e-15,-366 6,-360 12,-360"/>
<path fill="lightgrey" stroke="lightgrey" d="M68,-360C74,-360 80,-366 80,-372"/>
<path fill="lightgrey" stroke="lightgrey" d="M80,-384C80,-390 74,-396 68,-396"/>
<polyline fill="none" stroke="black" points="68,-396 12,-396 "/>
<path fill="none" stroke="black" d="M12,-396C6,-396 2.96059e-14,-390 2.36848e-14,-384"/>
<polyline fill="none" stroke="black" points="2.36848e-14,-384 1.18424e-14,-372 "/>
<path fill="none" stroke="black" d="M1.18424e-14,-372C5.92119e-15,-366 6,-360 12,-360"/>
<polyline fill="none" stroke="black" points="12,-360 68,-360 "/>
<path fill="none" stroke="black" d="M68,-360C74,-360 80,-366 80,-372"/>
<polyline fill="none" stroke="black" points="80,-372 80,-384 "/>
<path fill="none" stroke="black" d="M80,-384C80,-390 74,-396 68,-396"/>
<text text-anchor="middle" x="40" y="-374.4" font-family="Times Roman,serif" font-size="14.00">SiteEMail</text>
</g>
<!-- SiteEMail&#45;&gt;WebServer -->
<g id="edge16" class="edge"><title>SiteEMail&#45;&gt;WebServer</title>
<path fill="none" stroke="black" d="M56.2615,-359.793C98.4394,-313.978 216.953,-194.008 344,-144 437.147,-107.336 735.502,-94.9845 860.777,-91.3477"/>
<polygon fill="black" stroke="black" points="861.026,-94.8422 870.923,-91.0613 860.828,-87.845 861.026,-94.8422"/>
</g>
<!-- DBPassword -->
<g id="node13" class="node"><title>DBPassword</title>
<polygon fill="lightgrey" stroke="lightgrey" points="312,-396 234,-396 222,-384 222,-372 234,-360 312,-360 324,-372 324,-384 312,-396"/>
<path fill="lightgrey" stroke="lightgrey" d="M234,-396C228,-396 222,-390 222,-384"/>
<path fill="lightgrey" stroke="lightgrey" d="M222,-372C222,-366 228,-360 234,-360"/>
<path fill="lightgrey" stroke="lightgrey" d="M312,-360C318,-360 324,-366 324,-372"/>
<path fill="lightgrey" stroke="lightgrey" d="M324,-384C324,-390 318,-396 312,-396"/>
<polyline fill="none" stroke="black" points="312,-396 234,-396 "/>
<path fill="none" stroke="black" d="M234,-396C228,-396 222,-390 222,-384"/>
<polyline fill="none" stroke="black" points="222,-384 222,-372 "/>
<path fill="none" stroke="black" d="M222,-372C222,-366 228,-360 234,-360"/>
<polyline fill="none" stroke="black" points="234,-360 312,-360 "/>
<path fill="none" stroke="black" d="M312,-360C318,-360 324,-366 324,-372"/>
<polyline fill="none" stroke="black" points="324,-372 324,-384 "/>
<path fill="none" stroke="black" d="M324,-384C324,-390 318,-396 312,-396"/>
<text text-anchor="middle" x="273" y="-374.4" font-family="Times Roman,serif" font-size="14.00">DBPassword</text>
</g>
<!-- DBPassword&#45;&gt;WebServer -->
<g id="edge24" class="edge"><title>DBPassword&#45;&gt;WebServer</title>
<path fill="none" stroke="black" d="M281.217,-359.965C303.26,-314.015 368.635,-192.741 465,-144 533.079,-109.566 755.564,-96.3562 860.831,-91.9426"/>
<polygon fill="black" stroke="black" points="861.098,-95.4348 870.947,-91.5305 860.813,-88.4406 861.098,-95.4348"/>
</g>
<!-- DBPassword&#45;&gt;DBInstance -->
<g id="edge50" class="edge"><title>DBPassword&#45;&gt;DBInstance</title>
<path fill="none" stroke="black" d="M293.425,-359.897C327.408,-329.826 397.783,-267.762 458,-216 469.157,-206.409 481.495,-195.962 492.336,-186.835"/>
<polygon fill="black" stroke="black" points="494.888,-189.262 500.291,-180.148 490.384,-183.904 494.888,-189.262"/>
</g>
<!-- DBAllocatedStorage -->
<g id="node14" class="node"><title>DBAllocatedStorage</title>
<polygon fill="lightgrey" stroke="lightgrey" points="574,-396 444,-396 432,-384 432,-372 444,-360 574,-360 586,-372 586,-384 574,-396"/>
<path fill="lightgrey" stroke="lightgrey" d="M444,-396C438,-396 432,-390 432,-384"/>
<path fill="lightgrey" stroke="lightgrey" d="M432,-372C432,-366 438,-360 444,-360"/>
<path fill="lightgrey" stroke="lightgrey" d="M574,-360C580,-360 586,-366 586,-372"/>
<path fill="lightgrey" stroke="lightgrey" d="M586,-384C586,-390 580,-396 574,-396"/>
<polyline fill="none" stroke="black" points="574,-396 444,-396 "/>
<path fill="none" stroke="black" d="M444,-396C438,-396 432,-390 432,-384"/>
<polyline fill="none" stroke="black" points="432,-384 432,-372 "/>
<path fill="none" stroke="black" d="M432,-372C432,-366 438,-360 444,-360"/>
<polyline fill="none" stroke="black" points="444,-360 574,-360 "/>
<path fill="none" stroke="black" d="M574,-360C580,-360 586,-366 586,-372"/>
<polyline fill="none" stroke="black" points="586,-372 586,-384 "/>
<path fill="none" stroke="black" d="M586,-384C586,-390 580,-396 574,-396"/>
<text text-anchor="middle" x="509" y="-374.4" font-family="Times Roman,serif" font-size="14.00">DBAllocatedStorage</text>
</g>
<!-- DBAllocatedStorage&#45;&gt;DBInstance -->
<g id="edge52" class="edge"><title>DBAllocatedStorage&#45;&gt;DBInstance</title>
<path fill="none" stroke="black" d="M510.086,-359.955C512.347,-322.394 517.573,-235.554 520.29,-190.41"/>
<polygon fill="black" stroke="black" points="523.801,-190.337 520.908,-180.145 516.813,-189.917 523.801,-190.337"/>
</g>
<!-- DBName -->
<g id="node15" class="node"><title>DBName</title>
<polygon fill="lightgrey" stroke="lightgrey" points="668,-396 616,-396 604,-384 604,-372 616,-360 668,-360 680,-372 680,-384 668,-396"/>
<path fill="lightgrey" stroke="lightgrey" d="M616,-396C610,-396 604,-390 604,-384"/>
<path fill="lightgrey" stroke="lightgrey" d="M604,-372C604,-366 610,-360 616,-360"/>
<path fill="lightgrey" stroke="lightgrey" d="M668,-360C674,-360 680,-366 680,-372"/>
<path fill="lightgrey" stroke="lightgrey" d="M680,-384C680,-390 674,-396 668,-396"/>
<polyline fill="none" stroke="black" points="668,-396 616,-396 "/>
<path fill="none" stroke="black" d="M616,-396C610,-396 604,-390 604,-384"/>
<polyline fill="none" stroke="black" points="604,-384 604,-372 "/>
<path fill="none" stroke="black" d="M604,-372C604,-366 610,-360 616,-360"/>
<polyline fill="none" stroke="black" points="616,-360 668,-360 "/>
<path fill="none" stroke="black" d="M668,-360C674,-360 680,-366 680,-372"/>
<polyline fill="none" stroke="black" points="680,-372 680,-384 "/>
<path fill="none" stroke="black" d="M680,-384C680,-390 674,-396 668,-396"/>
<text text-anchor="middle" x="642" y="-374.4" font-family="Times Roman,serif" font-size="14.00">DBName</text>
</g>
<!-- DBName&#45;&gt;WebServer -->
<g id="edge30" class="edge"><title>DBName&#45;&gt;WebServer</title>
<path fill="none" stroke="black" d="M634.907,-359.993C623.525,-327.847 605.397,-259.851 636,-216 687.988,-141.505 794.75,-110.392 860.677,-97.8905"/>
<polygon fill="black" stroke="black" points="861.676,-101.266 870.892,-96.0401 860.428,-94.3786 861.676,-101.266"/>
</g>
<!-- DBName&#45;&gt;DBInstance -->
<g id="edge56" class="edge"><title>DBName&#45;&gt;DBInstance</title>
<path fill="none" stroke="black" d="M625.334,-359.861C616.553,-349.762 605.98,-336.696 598,-324 569.982,-279.427 545.754,-222.875 532.576,-189.737"/>
<polygon fill="black" stroke="black" points="535.761,-188.273 528.849,-180.243 529.246,-190.831 535.761,-188.273"/>
</g>
<!-- SSHLocation -->
<g id="node16" class="node"><title>SSHLocation</title>
<polygon fill="lightgrey" stroke="lightgrey" points="790,-396 710,-396 698,-384 698,-372 710,-360 790,-360 802,-372 802,-384 790,-396"/>
<path fill="lightgrey" stroke="lightgrey" d="M710,-396C704,-396 698,-390 698,-384"/>
<path fill="lightgrey" stroke="lightgrey" d="M698,-372C698,-366 704,-360 710,-360"/>
<path fill="lightgrey" stroke="lightgrey" d="M790,-360C796,-360 802,-366 802,-372"/>
<path fill="lightgrey" stroke="lightgrey" d="M802,-384C802,-390 796,-396 790,-396"/>
<polyline fill="none" stroke="black" points="790,-396 710,-396 "/>
<path fill="none" stroke="black" d="M710,-396C704,-396 698,-390 698,-384"/>
<polyline fill="none" stroke="black" points="698,-384 698,-372 "/>
<path fill="none" stroke="black" d="M698,-372C698,-366 704,-360 710,-360"/>
<polyline fill="none" stroke="black" points="710,-360 790,-360 "/>
<path fill="none" stroke="black" d="M790,-360C796,-360 802,-366 802,-372"/>
<polyline fill="none" stroke="black" points="802,-372 802,-384 "/>
<path fill="none" stroke="black" d="M802,-384C802,-390 796,-396 790,-396"/>
<text text-anchor="middle" x="750" y="-374.4" font-family="Times Roman,serif" font-size="14.00">SSHLocation</text>
</g>
<!-- SSHLocation&#45;&gt;WebServerSecurityGroup -->
<g id="edge6" class="edge"><title>SSHLocation&#45;&gt;WebServerSecurityGroup</title>
<path fill="none" stroke="black" d="M746.467,-359.831C744.97,-352.131 743.189,-342.974 741.525,-334.417"/>
<polygon fill="black" stroke="black" points="744.925,-333.561 739.58,-324.413 738.053,-334.897 744.925,-333.561"/>
</g>
<!-- KeyName -->
<g id="node17" class="node"><title>KeyName</title>
<polygon fill="lightgrey" stroke="lightgrey" points="888,-396 832,-396 820,-384 820,-372 832,-360 888,-360 900,-372 900,-384 888,-396"/>
<path fill="lightgrey" stroke="lightgrey" d="M832,-396C826,-396 820,-390 820,-384"/>
<path fill="lightgrey" stroke="lightgrey" d="M820,-372C820,-366 826,-360 832,-360"/>
<path fill="lightgrey" stroke="lightgrey" d="M888,-360C894,-360 900,-366 900,-372"/>
<path fill="lightgrey" stroke="lightgrey" d="M900,-384C900,-390 894,-396 888,-396"/>
<polyline fill="none" stroke="black" points="888,-396 832,-396 "/>
<path fill="none" stroke="black" d="M832,-396C826,-396 820,-390 820,-384"/>
<polyline fill="none" stroke="black" points="820,-384 820,-372 "/>
<path fill="none" stroke="black" d="M820,-372C820,-366 826,-360 832,-360"/>
<polyline fill="none" stroke="black" points="832,-360 888,-360 "/>
<path fill="none" stroke="black" d="M888,-360C894,-360 900,-366 900,-372"/>
<polyline fill="none" stroke="black" points="900,-372 900,-384 "/>
<path fill="none" stroke="black" d="M900,-384C900,-390 894,-396 888,-396"/>
<text text-anchor="middle" x="860" y="-374.4" font-family="Times Roman,serif" font-size="14.00">KeyName</text>
</g>
<!-- KeyName&#45;&gt;WebServer -->
<g id="edge34" class="edge"><title>KeyName&#45;&gt;WebServer</title>
<path fill="none" stroke="black" d="M863.566,-359.984C873.202,-311.294 899.822,-176.796 911.447,-118.057"/>
<polygon fill="black" stroke="black" points="914.928,-118.498 913.436,-108.009 908.061,-117.139 914.928,-118.498"/>
</g>
<!-- SiteAdmin -->
<g id="node18" class="node"><title>SiteAdmin</title>
<polygon fill="lightgrey" stroke="lightgrey" points="992,-396 930,-396 918,-384 918,-372 930,-360 992,-360 1004,-372 1004,-384 992,-396"/>
<path fill="lightgrey" stroke="lightgrey" d="M930,-396C924,-396 918,-390 918,-384"/>
<path fill="lightgrey" stroke="lightgrey" d="M918,-372C918,-366 924,-360 930,-360"/>
<path fill="lightgrey" stroke="lightgrey" d="M992,-360C998,-360 1004,-366 1004,-372"/>
<path fill="lightgrey" stroke="lightgrey" d="M1004,-384C1004,-390 998,-396 992,-396"/>
<polyline fill="none" stroke="black" points="992,-396 930,-396 "/>
<path fill="none" stroke="black" d="M930,-396C924,-396 918,-390 918,-384"/>
<polyline fill="none" stroke="black" points="918,-384 918,-372 "/>
<path fill="none" stroke="black" d="M918,-372C918,-366 924,-360 930,-360"/>
<polyline fill="none" stroke="black" points="930,-360 992,-360 "/>
<path fill="none" stroke="black" d="M992,-360C998,-360 1004,-366 1004,-372"/>
<polyline fill="none" stroke="black" points="1004,-372 1004,-384 "/>
<path fill="none" stroke="black" d="M1004,-384C1004,-390 998,-396 992,-396"/>
<text text-anchor="middle" x="961" y="-374.4" font-family="Times Roman,serif" font-size="14.00">SiteAdmin</text>
</g>
<!-- SiteAdmin&#45;&gt;WebServer -->
<g id="edge18" class="edge"><title>SiteAdmin&#45;&gt;WebServer</title>
<path fill="none" stroke="black" d="M952.424,-359.734C941.645,-335.673 923.741,-291.749 917,-252 909.142,-205.662 911.543,-150.79 914.158,-118.271"/>
<polygon fill="black" stroke="black" points="917.659,-118.41 915.038,-108.145 910.685,-117.804 917.659,-118.41"/>
</g>
<!-- InstanceType -->
<g id="node19" class="node"><title>InstanceType</title>
<polygon fill="lightgrey" stroke="lightgrey" points="1116,-396 1034,-396 1022,-384 1022,-372 1034,-360 1116,-360 1128,-372 1128,-384 1116,-396"/>
<path fill="lightgrey" stroke="lightgrey" d="M1034,-396C1028,-396 1022,-390 1022,-384"/>
<path fill="lightgrey" stroke="lightgrey" d="M1022,-372C1022,-366 1028,-360 1034,-360"/>
<path fill="lightgrey" stroke="lightgrey" d="M1116,-360C1122,-360 1128,-366 1128,-372"/>
<path fill="lightgrey" stroke="lightgrey" d="M1128,-384C1128,-390 1122,-396 1116,-396"/>
<polyline fill="none" stroke="black" points="1116,-396 1034,-396 "/>
<path fill="none" stroke="black" d="M1034,-396C1028,-396 1022,-390 1022,-384"/>
<polyline fill="none" stroke="black" points="1022,-384 1022,-372 "/>
<path fill="none" stroke="black" d="M1022,-372C1022,-366 1028,-360 1034,-360"/>
<polyline fill="none" stroke="black" points="1034,-360 1116,-360 "/>
<path fill="none" stroke="black" d="M1116,-360C1122,-360 1128,-366 1128,-372"/>
<polyline fill="none" stroke="black" points="1128,-372 1128,-384 "/>
<path fill="none" stroke="black" d="M1128,-384C1128,-390 1122,-396 1116,-396"/>
<text text-anchor="middle" x="1075" y="-374.4" font-family="Times Roman,serif" font-size="14.00">InstanceType</text>
</g>
<!-- InstanceType&#45;&gt;WebServer -->
<g id="edge38" class="edge"><title>InstanceType&#45;&gt;WebServer</title>
<path fill="none" stroke="black" d="M1077.11,-359.741C1087.09,-317.287 1115.74,-210.5 1068,-144 1056.27,-127.658 1011.13,-113.319 973.168,-103.531"/>
<polygon fill="black" stroke="black" points="973.742,-100.067 963.19,-101.018 972.032,-106.855 973.742,-100.067"/>
</g>
<!-- InstanceType&#45;&gt;WebServer -->
<g id="edge42" class="edge"><title>InstanceType&#45;&gt;WebServer</title>
<path fill="none" stroke="black" d="M1086.34,-359.741C1105.09,-317.287 1133.74,-210.5 1086,-144 1072.79,-125.606 1017.27,-109.75 973.332,-100.065"/>
<polygon fill="black" stroke="black" points="973.811,-96.5882 963.299,-97.9158 972.344,-103.433 973.811,-96.5882"/>
</g>
<!-- AWS::StackId -->
<g id="node25" class="node"><title>AWS::StackId</title>
<polygon fill="none" stroke="black" points="1036,-252 926,-252 926,-216 1036,-216 1036,-252"/>
<text text-anchor="middle" x="981" y="-230.4" font-family="Times Roman,serif" font-size="14.00">AWS::StackId</text>
</g>
<!-- AWS::StackId&#45;&gt;WebServer -->
<g id="edge10" class="edge"><title>AWS::StackId&#45;&gt;WebServer</title>
<path fill="none" stroke="black" d="M971.869,-215.611C966.778,-205.217 960.395,-191.949 955,-180 945.578,-159.132 935.525,-135.245 928.128,-117.326"/>
<polygon fill="black" stroke="black" points="931.351,-115.961 924.312,-108.042 924.877,-118.622 931.351,-115.961"/>
</g>
<!-- AWS::Region -->
<g id="node27" class="node"><title>AWS::Region</title>
<polygon fill="none" stroke="black" points="1068,-180 964,-180 964,-144 1068,-144 1068,-180"/>
<text text-anchor="middle" x="1016" y="-158.4" font-family="Times Roman,serif" font-size="14.00">AWS::Region</text>
</g>
<!-- AWS::Region&#45;&gt;WebServer -->
<g id="edge40" class="edge"><title>AWS::Region&#45;&gt;WebServer</title>
<path fill="none" stroke="black" d="M985.066,-143.831C971.882,-134.878 956.708,-123.956 943.984,-114.295"/>
<polygon fill="black" stroke="black" points="946.08,-111.492 936.022,-108.163 941.809,-117.038 946.08,-111.492"/>
</g>
<!-- AWS::Region&#45;&gt;WebServer -->
<g id="edge12" class="edge"><title>AWS::Region&#45;&gt;WebServer</title>
<path fill="none" stroke="black" d="M996.971,-143.831C985.423,-134.793 970.387,-123.748 956.433,-114.02"/>
<polygon fill="black" stroke="black" points="958.147,-110.95 947.926,-108.163 954.178,-116.716 958.147,-110.95"/>
</g>
</g>
</svg>
