<?xml version="1.0" encoding="UTF-8" standalone="no"?>
<!DOCTYPE svg PUBLIC "-//W3C//DTD SVG 1.1//EN"
 "http://www.w3.org/Graphics/SVG/1.1/DTD/svg11.dtd">
<!-- Generated by graphviz version 2.26.3 (20100126.1600)
 -->
<!-- Title: AWS CloudFormation Sample Template Drupal_Multi_AZ. Drupal is an open source content management platform powering millions of websites and applications. This template installs a highly&#45;available, scalable Drupal deployment using a multi&#45;az Amazon RDS database instance for storage. It uses the AWS CloudFormation bootstrap scripts to install packages and files at instance launch time. **WARNING** This template creates one or more Amazon EC2 instances, an Elastic Load Balancer and an Amazon RDS database. You will be billed for the AWS resources used if you create a stack from this template. Pages: 1 -->
<svg width="1741pt" height="548pt"
 viewBox="0.00 0.00 1741.00 548.00" xmlns="http://www.w3.org/2000/svg" xmlns:xlink="http://www.w3.org/1999/xlink">
<g id="graph1" class="graph" transform="scale(1 1) rotate(0) translate(4 544)">
<title>AWS CloudFormation Sample Template Drupal_Multi_AZ. Drupal is an open source content management platform powering millions of websites and applications. This template installs a highly&#45;available, scalable Drupal deployment using a multi&#45;az Amazon RDS database instance for storage. It uses the AWS CloudFormation bootstrap scripts to install packages and files at instance launch time. **WARNING** This template creates one or more Amazon EC2 instances, an Elastic Load Balancer and an Amazon RDS database. You will be billed for the AWS resources used if you create a stack from this template.</title>
<polygon fill="white" stroke="white" points="-4,5 -4,-544 1738,-544 1738,5 -4,5"/>
<!-- S3Keys -->
<g id="node1" class="node"><title>S3Keys</title>
<polygon fill="none" stroke="black" points="634,-252 568,-252 568,-216 634,-216 634,-252"/>
<text text-anchor="middle" x="601" y="-230.4" font-family="Times Roman,serif" font-size="14.00">S3Keys</text>
</g>
<!-- LaunchConfig -->
<g id="node5" class="node"><title>LaunchConfig</title>
<polygon fill="none" stroke="black" points="887,-180 777,-180 777,-144 887,-144 887,-180"/>
<text text-anchor="middle" x="832" y="-158.4" font-family="Times Roman,serif" font-size="14.00">LaunchConfig</text>
</g>
<!-- S3Keys&#45;&gt;LaunchConfig -->
<g id="edge68" class="edge"><title>S3Keys&#45;&gt;LaunchConfig</title>
<path fill="none" stroke="black" d="M634.221,-217.648C635.829,-217.082 637.427,-216.531 639,-216 680.985,-201.825 729.053,-187.792 766.793,-177.585"/>
<polygon fill="black" stroke="black" points="767.899,-180.913 776.652,-174.943 766.087,-174.151 767.899,-180.913"/>
</g>
<!-- S3Keys&#45;&gt;LaunchConfig -->
<g id="edge70" class="edge"><title>S3Keys&#45;&gt;LaunchConfig</title>
<path fill="none" stroke="black" d="M634.123,-224.19C641.707,-221.421 649.632,-218.488 657,-216 693.16,-203.791 733.834,-191.688 766.918,-182.044"/>
<polygon fill="black" stroke="black" points="768.304,-185.286 776.928,-179.133 766.349,-178.565 768.304,-185.286"/>
</g>
<!-- DBSecurityGroup -->
<g id="node2" class="node"><title>DBSecurityGroup</title>
<polygon fill="none" stroke="black" points="1110,-324 974,-324 974,-288 1110,-288 1110,-324"/>
<text text-anchor="middle" x="1042" y="-302.4" font-family="Times Roman,serif" font-size="14.00">DBSecurityGroup</text>
</g>
<!-- DBInstance -->
<g id="node10" class="node"><title>DBInstance</title>
<polygon fill="none" stroke="black" points="880,-252 784,-252 784,-216 880,-216 880,-252"/>
<text text-anchor="middle" x="832" y="-230.4" font-family="Times Roman,serif" font-size="14.00">DBInstance</text>
</g>
<!-- DBSecurityGroup&#45;&gt;DBInstance -->
<g id="edge82" class="edge"><title>DBSecurityGroup&#45;&gt;DBInstance</title>
<path fill="none" stroke="black" d="M989.279,-287.924C959.021,-277.55 920.986,-264.51 889.899,-253.851"/>
<polygon fill="black" stroke="black" points="890.664,-250.413 880.069,-250.481 888.394,-257.035 890.664,-250.413"/>
</g>
<!-- WebServerSecurityGroup -->
<g id="node3" class="node"><title>WebServerSecurityGroup</title>
<polygon fill="none" stroke="black" points="1313,-396 1121,-396 1121,-360 1313,-360 1313,-396"/>
<text text-anchor="middle" x="1217" y="-374.4" font-family="Times Roman,serif" font-size="14.00">WebServerSecurityGroup</text>
</g>
<!-- WebServerSecurityGroup&#45;&gt;DBSecurityGroup -->
<g id="edge6" class="edge"><title>WebServerSecurityGroup&#45;&gt;DBSecurityGroup</title>
<path fill="none" stroke="black" d="M1172.84,-359.831C1149.23,-350.116 1119.98,-338.083 1095.13,-327.859"/>
<polygon fill="black" stroke="black" points="1096.42,-324.606 1085.84,-324.038 1093.76,-331.08 1096.42,-324.606"/>
</g>
<!-- WebServerSecurityGroup&#45;&gt;LaunchConfig -->
<g id="edge50" class="edge"><title>WebServerSecurityGroup&#45;&gt;LaunchConfig</title>
<path fill="none" stroke="black" d="M1217.56,-359.93C1217.54,-326.113 1212.25,-253.317 1170,-216 1130.53,-181.141 983.707,-168.667 897.094,-164.29"/>
<polygon fill="black" stroke="black" points="897.257,-160.794 887.1,-163.808 896.919,-167.786 897.257,-160.794"/>
</g>
<!-- WebServerGroup -->
<g id="node4" class="node"><title>WebServerGroup</title>
<polygon fill="none" stroke="black" points="900,-108 764,-108 764,-72 900,-72 900,-108"/>
<text text-anchor="middle" x="832" y="-86.4" font-family="Times Roman,serif" font-size="14.00">WebServerGroup</text>
</g>
<!-- LaunchConfig&#45;&gt;WebServerGroup -->
<g id="edge16" class="edge"><title>LaunchConfig&#45;&gt;WebServerGroup</title>
<path fill="none" stroke="black" d="M832,-143.831C832,-136.131 832,-126.974 832,-118.417"/>
<polygon fill="black" stroke="black" points="835.5,-118.413 832,-108.413 828.5,-118.413 835.5,-118.413"/>
</g>
<!-- S3User -->
<g id="node6" class="node"><title>S3User</title>
<polygon fill="none" stroke="black" points="596,-324 530,-324 530,-288 596,-288 596,-324"/>
<text text-anchor="middle" x="563" y="-302.4" font-family="Times Roman,serif" font-size="14.00">S3User</text>
</g>
<!-- S3User&#45;&gt;S3Keys -->
<g id="edge4" class="edge"><title>S3User&#45;&gt;S3Keys</title>
<path fill="none" stroke="black" d="M572.589,-287.831C576.832,-279.792 581.912,-270.167 586.596,-261.292"/>
<polygon fill="black" stroke="black" points="589.71,-262.891 591.282,-252.413 583.519,-259.623 589.71,-262.891"/>
</g>
<!-- BucketPolicy -->
<g id="node9" class="node"><title>BucketPolicy</title>
<polygon fill="none" stroke="black" points="550,-252 448,-252 448,-216 550,-216 550,-252"/>
<text text-anchor="middle" x="499" y="-230.4" font-family="Times Roman,serif" font-size="14.00">BucketPolicy</text>
</g>
<!-- S3User&#45;&gt;BucketPolicy -->
<g id="edge74" class="edge"><title>S3User&#45;&gt;BucketPolicy</title>
<path fill="none" stroke="black" d="M546.85,-287.831C539.328,-279.369 530.243,-269.149 522.02,-259.897"/>
<polygon fill="black" stroke="black" points="524.627,-257.562 515.367,-252.413 519.395,-262.213 524.627,-257.562"/>
</g>
<!-- S3Bucket -->
<g id="node7" class="node"><title>S3Bucket</title>
<polygon fill="none" stroke="black" points="512,-324 430,-324 430,-288 512,-288 512,-324"/>
<text text-anchor="middle" x="471" y="-302.4" font-family="Times Roman,serif" font-size="14.00">S3Bucket</text>
</g>
<!-- S3Bucket&#45;&gt;LaunchConfig -->
<g id="edge26" class="edge"><title>S3Bucket&#45;&gt;LaunchConfig</title>
<path fill="none" stroke="black" d="M454.927,-287.786C439.509,-268.05 421.017,-236.623 439,-216 460.163,-191.73 660.153,-174.101 766.389,-166.363"/>
<polygon fill="black" stroke="black" points="766.957,-169.831 776.68,-165.623 766.455,-162.849 766.957,-169.831"/>
</g>
<!-- S3Bucket&#45;&gt;BucketPolicy -->
<g id="edge76" class="edge"><title>S3Bucket&#45;&gt;BucketPolicy</title>
<path fill="none" stroke="black" d="M472.113,-287.831C474.431,-279.877 477.919,-270.369 481.695,-261.572"/>
<polygon fill="black" stroke="black" points="484.906,-262.965 485.863,-252.413 478.535,-260.065 484.906,-262.965"/>
</g>
<!-- S3Bucket&#45;&gt;BucketPolicy -->
<g id="edge78" class="edge"><title>S3Bucket&#45;&gt;BucketPolicy</title>
<path fill="none" stroke="black" d="M484.018,-287.831C487.804,-280.046 491.628,-270.773 494.663,-262.135"/>
<polygon fill="black" stroke="black" points="498.06,-263.005 497.815,-252.413 491.402,-260.846 498.06,-263.005"/>
</g>
<!-- WaitCondition -->
<g id="node8" class="node"><title>WaitCondition</title>
<polygon fill="none" stroke="black" points="1635,-108 1521,-108 1521,-72 1635,-72 1635,-108"/>
<text text-anchor="middle" x="1578" y="-86.4" font-family="Times Roman,serif" font-size="14.00">WaitCondition</text>
</g>
<!-- DBInstance&#45;&gt;LaunchConfig -->
<g id="edge40" class="edge"><title>DBInstance&#45;&gt;LaunchConfig</title>
<path fill="none" stroke="black" d="M814.143,-215.831C811.892,-208.131 811.229,-198.974 812.155,-190.417"/>
<polygon fill="black" stroke="black" points="815.627,-190.893 814.072,-180.413 808.752,-189.576 815.627,-190.893"/>
</g>
<!-- DBInstance&#45;&gt;LaunchConfig -->
<g id="edge42" class="edge"><title>DBInstance&#45;&gt;LaunchConfig</title>
<path fill="none" stroke="black" d="M826.048,-215.831C825.297,-208.131 825.076,-198.974 825.385,-190.417"/>
<polygon fill="black" stroke="black" points="828.879,-190.616 826.024,-180.413 821.893,-190.17 828.879,-190.616"/>
</g>
<!-- DBInstance&#45;&gt;LaunchConfig -->
<g id="edge64" class="edge"><title>DBInstance&#45;&gt;LaunchConfig</title>
<path fill="none" stroke="black" d="M837.952,-215.831C838.703,-208.131 838.924,-198.974 838.615,-190.417"/>
<polygon fill="black" stroke="black" points="842.107,-190.17 837.976,-180.413 835.121,-190.616 842.107,-190.17"/>
</g>
<!-- DBInstance&#45;&gt;LaunchConfig -->
<g id="edge66" class="edge"><title>DBInstance&#45;&gt;LaunchConfig</title>
<path fill="none" stroke="black" d="M849.857,-215.831C852.108,-208.131 852.771,-198.974 851.845,-190.417"/>
<polygon fill="black" stroke="black" points="855.248,-189.576 849.928,-180.413 848.373,-190.893 855.248,-189.576"/>
</g>
<!-- ElasticLoadBalancer -->
<g id="node11" class="node"><title>ElasticLoadBalancer</title>
<polygon fill="none" stroke="black" points="1579,-468 1425,-468 1425,-432 1579,-432 1579,-468"/>
<text text-anchor="middle" x="1502" y="-446.4" font-family="Times Roman,serif" font-size="14.00">ElasticLoadBalancer</text>
</g>
<!-- ElasticLoadBalancer&#45;&gt;WebServerSecurityGroup -->
<g id="edge8" class="edge"><title>ElasticLoadBalancer&#45;&gt;WebServerSecurityGroup</title>
<path fill="none" stroke="black" d="M1424.88,-432.017C1383.67,-421.859 1333.17,-409.121 1292.24,-398.567"/>
<polygon fill="black" stroke="black" points="1292.88,-395.117 1282.33,-396.003 1291.13,-401.894 1292.88,-395.117"/>
</g>
<!-- ElasticLoadBalancer&#45;&gt;WebServerSecurityGroup -->
<g id="edge10" class="edge"><title>ElasticLoadBalancer&#45;&gt;WebServerSecurityGroup</title>
<path fill="none" stroke="black" d="M1436.39,-431.924C1397.09,-421.741 1346.68,-408.989 1304.07,-398.443"/>
<polygon fill="black" stroke="black" points="1304.82,-395.021 1294.27,-396.021 1303.14,-401.817 1304.82,-395.021"/>
</g>
<!-- ElasticLoadBalancer&#45;&gt;WebServerGroup -->
<g id="edge18" class="edge"><title>ElasticLoadBalancer&#45;&gt;WebServerGroup</title>
<path fill="none" stroke="black" d="M1504.16,-431.764C1508.72,-399.848 1521.77,-332.988 1555,-288 1571.48,-265.682 1593.24,-276.634 1606,-252 1613.36,-237.794 1616.37,-228.189 1606,-216 1561.1,-163.202 1097.92,-114.678 910.288,-97.0333"/>
<polygon fill="black" stroke="black" points="910.498,-93.5377 900.216,-96.0909 909.846,-100.507 910.498,-93.5377"/>
</g>
<!-- WebsiteURL -->
<g id="node29" class="node"><title>WebsiteURL</title>
<polygon fill="lightgrey" stroke="lightgrey" points="1701,-36 1625,-36 1613,-24 1613,-12 1625,-1.60583e-14 1701,-5.25802e-15 1713,-12 1713,-24 1701,-36"/>
<path fill="lightgrey" stroke="lightgrey" d="M1625,-36C1619,-36 1613,-30 1613,-24"/>
<path fill="lightgrey" stroke="lightgrey" d="M1613,-12C1613,-6 1619,-1.69109e-14 1625,-1.60583e-14"/>
<path fill="lightgrey" stroke="lightgrey" d="M1701,-5.25802e-15C1707,-4.40536e-15 1713,-6 1713,-12"/>
<path fill="lightgrey" stroke="lightgrey" d="M1713,-24C1713,-30 1707,-36 1701,-36"/>
<polyline fill="none" stroke="black" points="1701,-36 1625,-36 "/>
<path fill="none" stroke="black" d="M1625,-36C1619,-36 1613,-30 1613,-24"/>
<polyline fill="none" stroke="black" points="1613,-24 1613,-12 "/>
<path fill="none" stroke="black" d="M1613,-12C1613,-6 1619,-1.69109e-14 1625,-1.60583e-14"/>
<polyline fill="none" stroke="black" points="1625,-1.60583e-14 1701,-5.25802e-15 "/>
<path fill="none" stroke="black" d="M1701,-5.25802e-15C1707,-4.40536e-15 1713,-6 1713,-12"/>
<polyline fill="none" stroke="black" points="1713,-12 1713,-24 "/>
<path fill="none" stroke="black" d="M1713,-24C1713,-30 1707,-36 1701,-36"/>
<text text-anchor="middle" x="1663" y="-14.4" font-family="Times Roman,serif" font-size="14.00">WebsiteURL</text>
</g>
<!-- ElasticLoadBalancer&#45;&gt;WebsiteURL -->
<g id="edge94" class="edge"><title>ElasticLoadBalancer&#45;&gt;WebsiteURL</title>
<path fill="none" stroke="black" d="M1516.42,-431.859C1542.2,-398.41 1596.04,-323.854 1623,-252 1649.62,-181.059 1658.63,-91.3312 1661.6,-46.3845"/>
<polygon fill="black" stroke="black" points="1665.11,-46.4093 1662.22,-36.2155 1658.12,-45.985 1665.11,-46.4093"/>
</g>
<!-- WaitHandle -->
<g id="node12" class="node"><title>WaitHandle</title>
<polygon fill="none" stroke="black" points="1597,-252 1501,-252 1501,-216 1597,-216 1597,-252"/>
<text text-anchor="middle" x="1549" y="-230.4" font-family="Times Roman,serif" font-size="14.00">WaitHandle</text>
</g>
<!-- WaitHandle&#45;&gt;LaunchConfig -->
<g id="edge46" class="edge"><title>WaitHandle&#45;&gt;LaunchConfig</title>
<path fill="none" stroke="black" d="M1500.75,-221.281C1493.15,-219.244 1485.39,-217.362 1478,-216 1268.06,-177.274 1015.11,-166.31 897.684,-163.214"/>
<polygon fill="black" stroke="black" points="897.512,-159.708 887.427,-162.954 897.335,-166.706 897.512,-159.708"/>
</g>
<!-- WaitHandle&#45;&gt;LaunchConfig -->
<g id="edge20" class="edge"><title>WaitHandle&#45;&gt;LaunchConfig</title>
<path fill="none" stroke="black" d="M1500.67,-216.919C1499.1,-216.592 1497.54,-216.285 1496,-216 1279.57,-176.079 1017.46,-165.66 897.504,-162.949"/>
<polygon fill="black" stroke="black" points="897.456,-159.447 887.383,-162.731 897.305,-166.446 897.456,-159.447"/>
</g>
<!-- WaitHandle&#45;&gt;WaitCondition -->
<g id="edge72" class="edge"><title>WaitHandle&#45;&gt;WaitCondition</title>
<path fill="none" stroke="black" d="M1552.67,-215.762C1557.64,-191.093 1566.55,-146.86 1572.37,-117.973"/>
<polygon fill="black" stroke="black" points="1575.81,-118.584 1574.36,-108.09 1568.95,-117.202 1575.81,-118.584"/>
</g>
<!-- DBUsername -->
<g id="node14" class="node"><title>DBUsername</title>
<polygon fill="lightgrey" stroke="lightgrey" points="1143,-540 1061,-540 1049,-528 1049,-516 1061,-504 1143,-504 1155,-516 1155,-528 1143,-540"/>
<path fill="lightgrey" stroke="lightgrey" d="M1061,-540C1055,-540 1049,-534 1049,-528"/>
<path fill="lightgrey" stroke="lightgrey" d="M1049,-516C1049,-510 1055,-504 1061,-504"/>
<path fill="lightgrey" stroke="lightgrey" d="M1143,-504C1149,-504 1155,-510 1155,-516"/>
<path fill="lightgrey" stroke="lightgrey" d="M1155,-528C1155,-534 1149,-540 1143,-540"/>
<polyline fill="none" stroke="black" points="1143,-540 1061,-540 "/>
<path fill="none" stroke="black" d="M1061,-540C1055,-540 1049,-534 1049,-528"/>
<polyline fill="none" stroke="black" points="1049,-528 1049,-516 "/>
<path fill="none" stroke="black" d="M1049,-516C1049,-510 1055,-504 1061,-504"/>
<polyline fill="none" stroke="black" points="1061,-504 1143,-504 "/>
<path fill="none" stroke="black" d="M1143,-504C1149,-504 1155,-510 1155,-516"/>
<polyline fill="none" stroke="black" points="1155,-516 1155,-528 "/>
<path fill="none" stroke="black" d="M1155,-528C1155,-534 1149,-540 1143,-540"/>
<text text-anchor="middle" x="1102" y="-518.4" font-family="Times Roman,serif" font-size="14.00">DBUsername</text>
</g>
<!-- DBUsername&#45;&gt;LaunchConfig -->
<g id="edge36" class="edge"><title>DBUsername&#45;&gt;LaunchConfig</title>
<path fill="none" stroke="black" d="M1096.8,-503.948C1094.09,-473.951 1096.37,-411.991 1103,-360 1105.06,-343.831 1108.44,-340.225 1110,-324 1111.53,-308.074 1118.75,-301.396 1110,-288 1062.66,-215.52 963.33,-184.465 897.063,-171.339"/>
<polygon fill="black" stroke="black" points="897.607,-167.88 887.13,-169.456 896.303,-174.757 897.607,-167.88"/>
</g>
<!-- DBUsername&#45;&gt;LaunchConfig -->
<g id="edge60" class="edge"><title>DBUsername&#45;&gt;LaunchConfig</title>
<path fill="none" stroke="black" d="M1107.89,-503.948C1112.09,-473.951 1114.37,-411.991 1121,-360 1123.06,-343.831 1126.44,-340.225 1128,-324 1129.53,-308.074 1136.75,-301.396 1128,-288 1077.59,-210.812 968.205,-180.605 897.373,-169.001"/>
<polygon fill="black" stroke="black" points="897.633,-165.5 887.214,-167.421 896.557,-172.416 897.633,-165.5"/>
</g>
<!-- DBUsername&#45;&gt;DBInstance -->
<g id="edge84" class="edge"><title>DBUsername&#45;&gt;DBInstance</title>
<path fill="none" stroke="black" d="M1084.43,-503.714C1060.98,-479.266 1018.19,-434.537 982,-396 937.009,-348.089 884.993,-291.682 855.547,-259.653"/>
<polygon fill="black" stroke="black" points="857.909,-257.051 848.565,-252.056 852.755,-261.787 857.909,-257.051"/>
</g>
<!-- SitePassword -->
<g id="node15" class="node"><title>SitePassword</title>
<polygon fill="lightgrey" stroke="lightgrey" points="1391,-540 1307,-540 1295,-528 1295,-516 1307,-504 1391,-504 1403,-516 1403,-528 1391,-540"/>
<path fill="lightgrey" stroke="lightgrey" d="M1307,-540C1301,-540 1295,-534 1295,-528"/>
<path fill="lightgrey" stroke="lightgrey" d="M1295,-516C1295,-510 1301,-504 1307,-504"/>
<path fill="lightgrey" stroke="lightgrey" d="M1391,-504C1397,-504 1403,-510 1403,-516"/>
<path fill="lightgrey" stroke="lightgrey" d="M1403,-528C1403,-534 1397,-540 1391,-540"/>
<polyline fill="none" stroke="black" points="1391,-540 1307,-540 "/>
<path fill="none" stroke="black" d="M1307,-540C1301,-540 1295,-534 1295,-528"/>
<polyline fill="none" stroke="black" points="1295,-528 1295,-516 "/>
<path fill="none" stroke="black" d="M1295,-516C1295,-510 1301,-504 1307,-504"/>
<polyline fill="none" stroke="black" points="1307,-504 1391,-504 "/>
<path fill="none" stroke="black" d="M1391,-504C1397,-504 1403,-510 1403,-516"/>
<polyline fill="none" stroke="black" points="1403,-516 1403,-528 "/>
<path fill="none" stroke="black" d="M1403,-528C1403,-534 1397,-540 1391,-540"/>
<text text-anchor="middle" x="1349" y="-518.4" font-family="Times Roman,serif" font-size="14.00">SitePassword</text>
</g>
<!-- SitePassword&#45;&gt;LaunchConfig -->
<g id="edge34" class="edge"><title>SitePassword&#45;&gt;LaunchConfig</title>
<path fill="none" stroke="black" d="M1347.34,-503.833C1345,-476.539 1341,-423.32 1341,-378 1341,-378 1341,-378 1341,-306 1341,-214.838 1034.88,-178.466 897.435,-166.73"/>
<polygon fill="black" stroke="black" points="897.698,-163.24 887.441,-165.895 897.115,-170.216 897.698,-163.24"/>
</g>
<!-- SiteName -->
<g id="node16" class="node"><title>SiteName</title>
<polygon fill="lightgrey" stroke="lightgrey" points="1623,-540 1565,-540 1553,-528 1553,-516 1565,-504 1623,-504 1635,-516 1635,-528 1623,-540"/>
<path fill="lightgrey" stroke="lightgrey" d="M1565,-540C1559,-540 1553,-534 1553,-528"/>
<path fill="lightgrey" stroke="lightgrey" d="M1553,-516C1553,-510 1559,-504 1565,-504"/>
<path fill="lightgrey" stroke="lightgrey" d="M1623,-504C1629,-504 1635,-510 1635,-516"/>
<path fill="lightgrey" stroke="lightgrey" d="M1635,-528C1635,-534 1629,-540 1623,-540"/>
<polyline fill="none" stroke="black" points="1623,-540 1565,-540 "/>
<path fill="none" stroke="black" d="M1565,-540C1559,-540 1553,-534 1553,-528"/>
<polyline fill="none" stroke="black" points="1553,-528 1553,-516 "/>
<path fill="none" stroke="black" d="M1553,-516C1553,-510 1559,-504 1565,-504"/>
<polyline fill="none" stroke="black" points="1565,-504 1623,-504 "/>
<path fill="none" stroke="black" d="M1623,-504C1629,-504 1635,-510 1635,-516"/>
<polyline fill="none" stroke="black" points="1635,-516 1635,-528 "/>
<path fill="none" stroke="black" d="M1635,-528C1635,-534 1629,-540 1623,-540"/>
<text text-anchor="middle" x="1594" y="-518.4" font-family="Times Roman,serif" font-size="14.00">SiteName</text>
</g>
<!-- SiteName&#45;&gt;LaunchConfig -->
<g id="edge28" class="edge"><title>SiteName&#45;&gt;LaunchConfig</title>
<path fill="none" stroke="black" d="M1596.74,-503.696C1598.7,-484.723 1599.29,-454.716 1588,-432 1522.78,-300.817 1473.34,-274.442 1339,-216 1261.21,-182.161 1015.71,-168.723 897.23,-164.106"/>
<polygon fill="black" stroke="black" points="897.327,-160.607 887.202,-163.724 897.061,-167.602 897.327,-160.607"/>
</g>
<!-- DBClass -->
<g id="node17" class="node"><title>DBClass</title>
<polygon fill="lightgrey" stroke="lightgrey" points="847,-540 799,-540 787,-528 787,-516 799,-504 847,-504 859,-516 859,-528 847,-540"/>
<path fill="lightgrey" stroke="lightgrey" d="M799,-540C793,-540 787,-534 787,-528"/>
<path fill="lightgrey" stroke="lightgrey" d="M787,-516C787,-510 793,-504 799,-504"/>
<path fill="lightgrey" stroke="lightgrey" d="M847,-504C853,-504 859,-510 859,-516"/>
<path fill="lightgrey" stroke="lightgrey" d="M859,-528C859,-534 853,-540 847,-540"/>
<polyline fill="none" stroke="black" points="847,-540 799,-540 "/>
<path fill="none" stroke="black" d="M799,-540C793,-540 787,-534 787,-528"/>
<polyline fill="none" stroke="black" points="787,-528 787,-516 "/>
<path fill="none" stroke="black" d="M787,-516C787,-510 793,-504 799,-504"/>
<polyline fill="none" stroke="black" points="799,-504 847,-504 "/>
<path fill="none" stroke="black" d="M847,-504C853,-504 859,-510 859,-516"/>
<polyline fill="none" stroke="black" points="859,-516 859,-528 "/>
<path fill="none" stroke="black" d="M859,-528C859,-534 853,-540 847,-540"/>
<text text-anchor="middle" x="823" y="-518.4" font-family="Times Roman,serif" font-size="14.00">DBClass</text>
</g>
<!-- DBClass&#45;&gt;DBInstance -->
<g id="edge90" class="edge"><title>DBClass&#45;&gt;DBInstance</title>
<path fill="none" stroke="black" d="M823.563,-503.984C825.085,-455.294 829.288,-320.796 831.123,-262.057"/>
<polygon fill="black" stroke="black" points="834.623,-262.113 831.437,-252.009 827.626,-261.895 834.623,-262.113"/>
</g>
<!-- SiteEMail -->
<g id="node18" class="node"><title>SiteEMail</title>
<polygon fill="lightgrey" stroke="lightgrey" points="1721,-540 1665,-540 1653,-528 1653,-516 1665,-504 1721,-504 1733,-516 1733,-528 1721,-540"/>
<path fill="lightgrey" stroke="lightgrey" d="M1665,-540C1659,-540 1653,-534 1653,-528"/>
<path fill="lightgrey" stroke="lightgrey" d="M1653,-516C1653,-510 1659,-504 1665,-504"/>
<path fill="lightgrey" stroke="lightgrey" d="M1721,-504C1727,-504 1733,-510 1733,-516"/>
<path fill="lightgrey" stroke="lightgrey" d="M1733,-528C1733,-534 1727,-540 1721,-540"/>
<polyline fill="none" stroke="black" points="1721,-540 1665,-540 "/>
<path fill="none" stroke="black" d="M1665,-540C1659,-540 1653,-534 1653,-528"/>
<polyline fill="none" stroke="black" points="1653,-528 1653,-516 "/>
<path fill="none" stroke="black" d="M1653,-516C1653,-510 1659,-504 1665,-504"/>
<polyline fill="none" stroke="black" points="1665,-504 1721,-504 "/>
<path fill="none" stroke="black" d="M1721,-504C1727,-504 1733,-510 1733,-516"/>
<polyline fill="none" stroke="black" points="1733,-516 1733,-528 "/>
<path fill="none" stroke="black" d="M1733,-528C1733,-534 1727,-540 1721,-540"/>
<text text-anchor="middle" x="1693" y="-518.4" font-family="Times Roman,serif" font-size="14.00">SiteEMail</text>
</g>
<!-- SiteEMail&#45;&gt;LaunchConfig -->
<g id="edge30" class="edge"><title>SiteEMail&#45;&gt;LaunchConfig</title>
<path fill="none" stroke="black" d="M1683.31,-503.601C1651.33,-445.302 1542.44,-265.604 1391,-216 1300.79,-186.451 1024.38,-170.611 897.238,-164.721"/>
<polygon fill="black" stroke="black" points="897.392,-161.225 887.243,-164.265 897.073,-168.218 897.392,-161.225"/>
</g>
<!-- DBPassword -->
<g id="node19" class="node"><title>DBPassword</title>
<polygon fill="lightgrey" stroke="lightgrey" points="1511,-540 1433,-540 1421,-528 1421,-516 1433,-504 1511,-504 1523,-516 1523,-528 1511,-540"/>
<path fill="lightgrey" stroke="lightgrey" d="M1433,-540C1427,-540 1421,-534 1421,-528"/>
<path fill="lightgrey" stroke="lightgrey" d="M1421,-516C1421,-510 1427,-504 1433,-504"/>
<path fill="lightgrey" stroke="lightgrey" d="M1511,-504C1517,-504 1523,-510 1523,-516"/>
<path fill="lightgrey" stroke="lightgrey" d="M1523,-528C1523,-534 1517,-540 1511,-540"/>
<polyline fill="none" stroke="black" points="1511,-540 1433,-540 "/>
<path fill="none" stroke="black" d="M1433,-540C1427,-540 1421,-534 1421,-528"/>
<polyline fill="none" stroke="black" points="1421,-528 1421,-516 "/>
<path fill="none" stroke="black" d="M1421,-516C1421,-510 1427,-504 1433,-504"/>
<polyline fill="none" stroke="black" points="1433,-504 1511,-504 "/>
<path fill="none" stroke="black" d="M1511,-504C1517,-504 1523,-510 1523,-516"/>
<polyline fill="none" stroke="black" points="1523,-516 1523,-528 "/>
<path fill="none" stroke="black" d="M1523,-528C1523,-534 1517,-540 1511,-540"/>
<text text-anchor="middle" x="1472" y="-518.4" font-family="Times Roman,serif" font-size="14.00">DBPassword</text>
</g>
<!-- DBPassword&#45;&gt;LaunchConfig -->
<g id="edge38" class="edge"><title>DBPassword&#45;&gt;LaunchConfig</title>
<path fill="none" stroke="black" d="M1440.2,-503.911C1428.13,-494.31 1415.44,-481.68 1407,-468 1385.01,-432.344 1379,-419.891 1379,-378 1379,-378 1379,-378 1379,-306 1379,-240.395 1322.7,-240.884 1262,-216 1197.02,-189.362 1000.79,-173.223 897.315,-166.178"/>
<polygon fill="black" stroke="black" points="897.507,-162.683 887.295,-165.504 897.037,-169.667 897.507,-162.683"/>
</g>
<!-- DBPassword&#45;&gt;LaunchConfig -->
<g id="edge62" class="edge"><title>DBPassword&#45;&gt;LaunchConfig</title>
<path fill="none" stroke="black" d="M1456.4,-503.911C1446.13,-494.31 1433.44,-481.68 1425,-468 1403.01,-432.344 1397,-419.891 1397,-378 1397,-378 1397,-378 1397,-306 1397,-240.395 1340.7,-240.884 1280,-216 1212.72,-188.418 1004.72,-172.092 897.386,-165.463"/>
<polygon fill="black" stroke="black" points="897.515,-161.965 887.322,-164.852 897.091,-168.952 897.515,-161.965"/>
</g>
<!-- DBPassword&#45;&gt;DBInstance -->
<g id="edge86" class="edge"><title>DBPassword&#45;&gt;DBInstance</title>
<path fill="none" stroke="black" d="M1420.9,-506.232C1350.46,-484.019 1219.98,-441.153 1112,-396 1044.88,-367.934 1027.95,-360.474 965,-324 959.961,-321.08 904.832,-283.625 867.152,-257.964"/>
<polygon fill="black" stroke="black" points="868.696,-254.781 858.461,-252.044 864.755,-260.567 868.696,-254.781"/>
</g>
<!-- DBAllocatedStorage -->
<g id="node20" class="node"><title>DBAllocatedStorage</title>
<polygon fill="lightgrey" stroke="lightgrey" points="1019,-540 889,-540 877,-528 877,-516 889,-504 1019,-504 1031,-516 1031,-528 1019,-540"/>
<path fill="lightgrey" stroke="lightgrey" d="M889,-540C883,-540 877,-534 877,-528"/>
<path fill="lightgrey" stroke="lightgrey" d="M877,-516C877,-510 883,-504 889,-504"/>
<path fill="lightgrey" stroke="lightgrey" d="M1019,-504C1025,-504 1031,-510 1031,-516"/>
<path fill="lightgrey" stroke="lightgrey" d="M1031,-528C1031,-534 1025,-540 1019,-540"/>
<polyline fill="none" stroke="black" points="1019,-540 889,-540 "/>
<path fill="none" stroke="black" d="M889,-540C883,-540 877,-534 877,-528"/>
<polyline fill="none" stroke="black" points="877,-528 877,-516 "/>
<path fill="none" stroke="black" d="M877,-516C877,-510 883,-504 889,-504"/>
<polyline fill="none" stroke="black" points="889,-504 1019,-504 "/>
<path fill="none" stroke="black" d="M1019,-504C1025,-504 1031,-510 1031,-516"/>
<polyline fill="none" stroke="black" points="1031,-516 1031,-528 "/>
<path fill="none" stroke="black" d="M1031,-528C1031,-534 1025,-540 1019,-540"/>
<text text-anchor="middle" x="954" y="-518.4" font-family="Times Roman,serif" font-size="14.00">DBAllocatedStorage</text>
</g>
<!-- DBAllocatedStorage&#45;&gt;DBInstance -->
<g id="edge88" class="edge"><title>DBAllocatedStorage&#45;&gt;DBInstance</title>
<path fill="none" stroke="black" d="M927.704,-503.903C915.817,-494.473 902.549,-481.991 894,-468 883.17,-450.276 852.092,-320.377 838.498,-262.127"/>
<polygon fill="black" stroke="black" points="841.846,-261.074 836.172,-252.127 835.029,-262.66 841.846,-261.074"/>
</g>
<!-- DBName -->
<g id="node21" class="node"><title>DBName</title>
<polygon fill="lightgrey" stroke="lightgrey" points="277,-540 225,-540 213,-528 213,-516 225,-504 277,-504 289,-516 289,-528 277,-540"/>
<path fill="lightgrey" stroke="lightgrey" d="M225,-540C219,-540 213,-534 213,-528"/>
<path fill="lightgrey" stroke="lightgrey" d="M213,-516C213,-510 219,-504 225,-504"/>
<path fill="lightgrey" stroke="lightgrey" d="M277,-504C283,-504 289,-510 289,-516"/>
<path fill="lightgrey" stroke="lightgrey" d="M289,-528C289,-534 283,-540 277,-540"/>
<polyline fill="none" stroke="black" points="277,-540 225,-540 "/>
<path fill="none" stroke="black" d="M225,-540C219,-540 213,-534 213,-528"/>
<polyline fill="none" stroke="black" points="213,-528 213,-516 "/>
<path fill="none" stroke="black" d="M213,-516C213,-510 219,-504 225,-504"/>
<polyline fill="none" stroke="black" points="225,-504 277,-504 "/>
<path fill="none" stroke="black" d="M277,-504C283,-504 289,-510 289,-516"/>
<polyline fill="none" stroke="black" points="289,-516 289,-528 "/>
<path fill="none" stroke="black" d="M289,-528C289,-534 283,-540 277,-540"/>
<text text-anchor="middle" x="251" y="-518.4" font-family="Times Roman,serif" font-size="14.00">DBName</text>
</g>
<!-- DBName&#45;&gt;LaunchConfig -->
<g id="edge44" class="edge"><title>DBName&#45;&gt;LaunchConfig</title>
<path fill="none" stroke="black" d="M245.181,-503.815C242,-476.498 242,-423.25 242,-378 242,-378 242,-378 242,-306 242,-264.109 237.513,-242.447 270,-216 307.541,-185.439 626.193,-169.604 766.382,-164.191"/>
<polygon fill="black" stroke="black" points="766.705,-167.681 776.565,-163.804 766.439,-160.686 766.705,-167.681"/>
</g>
<!-- DBName&#45;&gt;LaunchConfig -->
<g id="edge58" class="edge"><title>DBName&#45;&gt;LaunchConfig</title>
<path fill="none" stroke="black" d="M256.819,-503.815C260,-476.498 260,-423.25 260,-378 260,-378 260,-378 260,-306 260,-264.109 255.513,-242.447 288,-216 324.683,-186.138 629.777,-170.336 766.402,-164.578"/>
<polygon fill="black" stroke="black" points="766.884,-168.062 776.73,-164.149 766.593,-161.068 766.884,-168.062"/>
</g>
<!-- DBName&#45;&gt;DBInstance -->
<g id="edge92" class="edge"><title>DBName&#45;&gt;DBInstance</title>
<path fill="none" stroke="black" d="M287.344,-503.984C388.831,-453.678 675.105,-311.772 786.682,-256.464"/>
<polygon fill="black" stroke="black" points="788.264,-259.586 795.67,-252.009 785.155,-253.314 788.264,-259.586"/>
</g>
<!-- SSHLocation -->
<g id="node22" class="node"><title>SSHLocation</title>
<polygon fill="lightgrey" stroke="lightgrey" points="1265,-540 1185,-540 1173,-528 1173,-516 1185,-504 1265,-504 1277,-516 1277,-528 1265,-540"/>
<path fill="lightgrey" stroke="lightgrey" d="M1185,-540C1179,-540 1173,-534 1173,-528"/>
<path fill="lightgrey" stroke="lightgrey" d="M1173,-516C1173,-510 1179,-504 1185,-504"/>
<path fill="lightgrey" stroke="lightgrey" d="M1265,-504C1271,-504 1277,-510 1277,-516"/>
<path fill="lightgrey" stroke="lightgrey" d="M1277,-528C1277,-534 1271,-540 1265,-540"/>
<polyline fill="none" stroke="black" points="1265,-540 1185,-540 "/>
<path fill="none" stroke="black" d="M1185,-540C1179,-540 1173,-534 1173,-528"/>
<polyline fill="none" stroke="black" points="1173,-528 1173,-516 "/>
<path fill="none" stroke="black" d="M1173,-516C1173,-510 1179,-504 1185,-504"/>
<polyline fill="none" stroke="black" points="1185,-504 1265,-504 "/>
<path fill="none" stroke="black" d="M1265,-504C1271,-504 1277,-510 1277,-516"/>
<polyline fill="none" stroke="black" points="1277,-516 1277,-528 "/>
<path fill="none" stroke="black" d="M1277,-528C1277,-534 1271,-540 1265,-540"/>
<text text-anchor="middle" x="1225" y="-518.4" font-family="Times Roman,serif" font-size="14.00">SSHLocation</text>
</g>
<!-- SSHLocation&#45;&gt;WebServerSecurityGroup -->
<g id="edge12" class="edge"><title>SSHLocation&#45;&gt;WebServerSecurityGroup</title>
<path fill="none" stroke="black" d="M1223.99,-503.762C1222.62,-479.201 1220.18,-435.247 1218.58,-406.354"/>
<polygon fill="black" stroke="black" points="1222.05,-405.88 1218,-396.09 1215.07,-406.268 1222.05,-405.88"/>
</g>
<!-- KeyName -->
<g id="node23" class="node"><title>KeyName</title>
<polygon fill="lightgrey" stroke="lightgrey" points="375,-540 319,-540 307,-528 307,-516 319,-504 375,-504 387,-516 387,-528 375,-540"/>
<path fill="lightgrey" stroke="lightgrey" d="M319,-540C313,-540 307,-534 307,-528"/>
<path fill="lightgrey" stroke="lightgrey" d="M307,-516C307,-510 313,-504 319,-504"/>
<path fill="lightgrey" stroke="lightgrey" d="M375,-504C381,-504 387,-510 387,-516"/>
<path fill="lightgrey" stroke="lightgrey" d="M387,-528C387,-534 381,-540 375,-540"/>
<polyline fill="none" stroke="black" points="375,-540 319,-540 "/>
<path fill="none" stroke="black" d="M319,-540C313,-540 307,-534 307,-528"/>
<polyline fill="none" stroke="black" points="307,-528 307,-516 "/>
<path fill="none" stroke="black" d="M307,-516C307,-510 313,-504 319,-504"/>
<polyline fill="none" stroke="black" points="319,-504 375,-504 "/>
<path fill="none" stroke="black" d="M375,-504C381,-504 387,-510 387,-516"/>
<polyline fill="none" stroke="black" points="387,-516 387,-528 "/>
<path fill="none" stroke="black" d="M387,-528C387,-534 381,-540 375,-540"/>
<text text-anchor="middle" x="347" y="-518.4" font-family="Times Roman,serif" font-size="14.00">KeyName</text>
</g>
<!-- KeyName&#45;&gt;LaunchConfig -->
<g id="edge48" class="edge"><title>KeyName&#45;&gt;LaunchConfig</title>
<path fill="none" stroke="black" d="M372.708,-503.868C420.045,-470.138 523.597,-394.735 605,-324 656.716,-279.061 658.621,-254.929 715,-216 733.035,-203.547 754.402,-192.716 773.908,-184.091"/>
<polygon fill="black" stroke="black" points="775.515,-187.21 783.312,-180.036 772.743,-180.782 775.515,-187.21"/>
</g>
<!-- SiteAdmin -->
<g id="node24" class="node"><title>SiteAdmin</title>
<polygon fill="lightgrey" stroke="lightgrey" points="479,-540 417,-540 405,-528 405,-516 417,-504 479,-504 491,-516 491,-528 479,-540"/>
<path fill="lightgrey" stroke="lightgrey" d="M417,-540C411,-540 405,-534 405,-528"/>
<path fill="lightgrey" stroke="lightgrey" d="M405,-516C405,-510 411,-504 417,-504"/>
<path fill="lightgrey" stroke="lightgrey" d="M479,-504C485,-504 491,-510 491,-516"/>
<path fill="lightgrey" stroke="lightgrey" d="M491,-528C491,-534 485,-540 479,-540"/>
<polyline fill="none" stroke="black" points="479,-540 417,-540 "/>
<path fill="none" stroke="black" d="M417,-540C411,-540 405,-534 405,-528"/>
<polyline fill="none" stroke="black" points="405,-528 405,-516 "/>
<path fill="none" stroke="black" d="M405,-516C405,-510 411,-504 417,-504"/>
<polyline fill="none" stroke="black" points="417,-504 479,-504 "/>
<path fill="none" stroke="black" d="M479,-504C485,-504 491,-510 491,-516"/>
<polyline fill="none" stroke="black" points="491,-516 491,-528 "/>
<path fill="none" stroke="black" d="M491,-528C491,-534 485,-540 479,-540"/>
<text text-anchor="middle" x="448" y="-518.4" font-family="Times Roman,serif" font-size="14.00">SiteAdmin</text>
</g>
<!-- SiteAdmin&#45;&gt;LaunchConfig -->
<g id="edge32" class="edge"><title>SiteAdmin&#45;&gt;LaunchConfig</title>
<path fill="none" stroke="black" d="M491.034,-507.254C563.008,-481.266 700,-425.555 700,-378 700,-378 700,-378 700,-306 700,-252.468 750.183,-210.204 788.665,-185.665"/>
<polygon fill="black" stroke="black" points="790.994,-188.341 797.663,-180.108 787.316,-182.385 790.994,-188.341"/>
</g>
<!-- MultiAZDatabase -->
<g id="node25" class="node"><title>MultiAZDatabase</title>
<polygon fill="lightgrey" stroke="lightgrey" points="757,-540 645,-540 633,-528 633,-516 645,-504 757,-504 769,-516 769,-528 757,-540"/>
<path fill="lightgrey" stroke="lightgrey" d="M645,-540C639,-540 633,-534 633,-528"/>
<path fill="lightgrey" stroke="lightgrey" d="M633,-516C633,-510 639,-504 645,-504"/>
<path fill="lightgrey" stroke="lightgrey" d="M757,-504C763,-504 769,-510 769,-516"/>
<path fill="lightgrey" stroke="lightgrey" d="M769,-528C769,-534 763,-540 757,-540"/>
<polyline fill="none" stroke="black" points="757,-540 645,-540 "/>
<path fill="none" stroke="black" d="M645,-540C639,-540 633,-534 633,-528"/>
<polyline fill="none" stroke="black" points="633,-528 633,-516 "/>
<path fill="none" stroke="black" d="M633,-516C633,-510 639,-504 645,-504"/>
<polyline fill="none" stroke="black" points="645,-504 757,-504 "/>
<path fill="none" stroke="black" d="M757,-504C763,-504 769,-510 769,-516"/>
<polyline fill="none" stroke="black" points="769,-516 769,-528 "/>
<path fill="none" stroke="black" d="M769,-528C769,-534 763,-540 757,-540"/>
<text text-anchor="middle" x="701" y="-518.4" font-family="Times Roman,serif" font-size="14.00">MultiAZDatabase</text>
</g>
<!-- MultiAZDatabase&#45;&gt;DBInstance -->
<g id="edge80" class="edge"><title>MultiAZDatabase&#45;&gt;DBInstance</title>
<path fill="none" stroke="black" d="M732.327,-503.952C745.728,-494.77 760.455,-482.478 770,-468 792.5,-433.872 816.606,-316.492 826.885,-262.091"/>
<polygon fill="black" stroke="black" points="830.356,-262.567 828.751,-252.094 823.475,-261.282 830.356,-262.567"/>
</g>
<!-- InstanceType -->
<g id="node26" class="node"><title>InstanceType</title>
<polygon fill="lightgrey" stroke="lightgrey" points="603,-540 521,-540 509,-528 509,-516 521,-504 603,-504 615,-516 615,-528 603,-540"/>
<path fill="lightgrey" stroke="lightgrey" d="M521,-540C515,-540 509,-534 509,-528"/>
<path fill="lightgrey" stroke="lightgrey" d="M509,-516C509,-510 515,-504 521,-504"/>
<path fill="lightgrey" stroke="lightgrey" d="M603,-504C609,-504 615,-510 615,-516"/>
<path fill="lightgrey" stroke="lightgrey" d="M615,-528C615,-534 609,-540 603,-540"/>
<polyline fill="none" stroke="black" points="603,-540 521,-540 "/>
<path fill="none" stroke="black" d="M521,-540C515,-540 509,-534 509,-528"/>
<polyline fill="none" stroke="black" points="509,-528 509,-516 "/>
<path fill="none" stroke="black" d="M509,-516C509,-510 515,-504 521,-504"/>
<polyline fill="none" stroke="black" points="521,-504 603,-504 "/>
<path fill="none" stroke="black" d="M603,-504C609,-504 615,-510 615,-516"/>
<polyline fill="none" stroke="black" points="615,-516 615,-528 "/>
<path fill="none" stroke="black" d="M615,-528C615,-534 609,-540 603,-540"/>
<text text-anchor="middle" x="562" y="-518.4" font-family="Times Roman,serif" font-size="14.00">InstanceType</text>
</g>
<!-- InstanceType&#45;&gt;LaunchConfig -->
<g id="edge52" class="edge"><title>InstanceType&#45;&gt;LaunchConfig</title>
<path fill="none" stroke="black" d="M612.711,-503.975C650.964,-491.18 697.86,-475.068 705,-468 735.277,-438.027 738,-420.604 738,-378 738,-378 738,-378 738,-306 738,-264.109 743.854,-251.559 766,-216 772.767,-205.135 782.238,-194.976 791.964,-186.466"/>
<polygon fill="black" stroke="black" points="794.293,-189.081 799.771,-180.013 789.833,-183.686 794.293,-189.081"/>
</g>
<!-- InstanceType&#45;&gt;LaunchConfig -->
<g id="edge56" class="edge"><title>InstanceType&#45;&gt;LaunchConfig</title>
<path fill="none" stroke="black" d="M615.198,-507.74C659.081,-494.528 715.139,-475.782 723,-468 753.277,-438.027 756,-420.604 756,-378 756,-378 756,-378 756,-306 756,-264.109 761.854,-251.559 784,-216 790.633,-205.35 799.864,-195.378 808.55,-186.973"/>
<polygon fill="black" stroke="black" points="811.069,-189.409 815.963,-180.013 806.277,-184.306 811.069,-189.409"/>
</g>
<!-- WebServerCapacity -->
<g id="node27" class="node"><title>WebServerCapacity</title>
<polygon fill="lightgrey" stroke="lightgrey" points="140,-540 12,-540 4.73695e-14,-528 2.36848e-14,-516 12,-504 140,-504 152,-516 152,-528 140,-540"/>
<path fill="lightgrey" stroke="lightgrey" d="M12,-540C6,-540 5.92119e-14,-534 4.73695e-14,-528"/>
<path fill="lightgrey" stroke="lightgrey" d="M2.36848e-14,-516C1.18424e-14,-510 6,-504 12,-504"/>
<path fill="lightgrey" stroke="lightgrey" d="M140,-504C146,-504 152,-510 152,-516"/>
<path fill="lightgrey" stroke="lightgrey" d="M152,-528C152,-534 146,-540 140,-540"/>
<polyline fill="none" stroke="black" points="140,-540 12,-540 "/>
<path fill="none" stroke="black" d="M12,-540C6,-540 5.92119e-14,-534 4.73695e-14,-528"/>
<polyline fill="none" stroke="black" points="4.73695e-14,-528 2.36848e-14,-516 "/>
<path fill="none" stroke="black" d="M2.36848e-14,-516C1.18424e-14,-510 6,-504 12,-504"/>
<polyline fill="none" stroke="black" points="12,-504 140,-504 "/>
<path fill="none" stroke="black" d="M140,-504C146,-504 152,-510 152,-516"/>
<polyline fill="none" stroke="black" points="152,-516 152,-528 "/>
<path fill="none" stroke="black" d="M152,-528C152,-534 146,-540 140,-540"/>
<text text-anchor="middle" x="76" y="-518.4" font-family="Times Roman,serif" font-size="14.00">WebServerCapacity</text>
</g>
<!-- WebServerCapacity&#45;&gt;WebServerGroup -->
<g id="edge14" class="edge"><title>WebServerCapacity&#45;&gt;WebServerGroup</title>
<path fill="none" stroke="black" d="M76,-503.815C76,-476.498 76,-423.25 76,-378 76,-378 76,-378 76,-234 76,-165.539 560.586,-114.398 753.823,-96.7262"/>
<polygon fill="black" stroke="black" points="754.269,-100.2 763.911,-95.8098 753.635,-93.2288 754.269,-100.2"/>
</g>
<!-- AWS::StackId -->
<g id="node39" class="node"><title>AWS::StackId</title>
<polygon fill="none" stroke="black" points="214,-396 104,-396 104,-360 214,-360 214,-396"/>
<text text-anchor="middle" x="159" y="-374.4" font-family="Times Roman,serif" font-size="14.00">AWS::StackId</text>
</g>
<!-- AWS::StackId&#45;&gt;LaunchConfig -->
<g id="edge22" class="edge"><title>AWS::StackId&#45;&gt;LaunchConfig</title>
<path fill="none" stroke="black" d="M160.775,-359.967C165.217,-325.539 180.156,-250.785 228,-216 270.825,-184.863 619.329,-169.316 766.645,-164.085"/>
<polygon fill="black" stroke="black" points="767.025,-167.574 776.897,-163.726 766.78,-160.578 767.025,-167.574"/>
</g>
<!-- AWS::Region -->
<g id="node41" class="node"><title>AWS::Region</title>
<polygon fill="none" stroke="black" points="392,-252 288,-252 288,-216 392,-216 392,-252"/>
<text text-anchor="middle" x="340" y="-230.4" font-family="Times Roman,serif" font-size="14.00">AWS::Region</text>
</g>
<!-- AWS::Region&#45;&gt;LaunchConfig -->
<g id="edge24" class="edge"><title>AWS::Region&#45;&gt;LaunchConfig</title>
<path fill="none" stroke="black" d="M392.059,-217.024C393.719,-216.667 395.369,-216.324 397,-216 526.637,-190.238 681.035,-174.259 766.709,-166.869"/>
<polygon fill="black" stroke="black" points="767.142,-170.345 776.81,-166.01 766.549,-163.37 767.142,-170.345"/>
</g>
<!-- AWS::Region&#45;&gt;LaunchConfig -->
<g id="edge54" class="edge"><title>AWS::Region&#45;&gt;LaunchConfig</title>
<path fill="none" stroke="black" d="M392.328,-221.221C399.937,-219.289 407.661,-217.458 415,-216 538.539,-191.45 684.564,-175.784 766.998,-167.969"/>
<polygon fill="black" stroke="black" points="767.345,-171.452 776.974,-167.032 766.691,-164.482 767.345,-171.452"/>
</g>
</g>
</svg>
