<?xml version="1.0" encoding="UTF-8" standalone="no"?>
<!DOCTYPE svg PUBLIC "-//W3C//DTD SVG 1.1//EN"
 "http://www.w3.org/Graphics/SVG/1.1/DTD/svg11.dtd">
<!-- Generated by graphviz version 2.26.3 (20100126.1600)
 -->
<!-- Title: AWS CloudFormation Sample Template: This template demonstrates the creation of a DynamoDB table. Pages: 1 -->
<svg width="694pt" height="188pt"
 viewBox="0.00 0.00 694.00 188.00" xmlns="http://www.w3.org/2000/svg" xmlns:xlink="http://www.w3.org/1999/xlink">
<g id="graph1" class="graph" transform="scale(1 1) rotate(0) translate(4 184)">
<title>AWS CloudFormation Sample Template: This template demonstrates the creation of a DynamoDB table.</title>
<polygon fill="white" stroke="white" points="-4,5 -4,-184 691,-184 691,5 -4,5"/>
<!-- myDynamoDBTable -->
<g id="node1" class="node"><title>myDynamoDBTable</title>
<polygon fill="none" stroke="black" points="419,-108 267,-108 267,-72 419,-72 419,-108"/>
<text text-anchor="middle" x="343" y="-86.4" font-family="Times Roman,serif" font-size="14.00">myDynamoDBTable</text>
</g>
<!-- TableName -->
<g id="node8" class="node"><title>TableName</title>
<polygon fill="lightgrey" stroke="lightgrey" points="377,-36 309,-36 297,-24 297,-12 309,-1.591e-14 377,-5.4063e-15 389,-12 389,-24 377,-36"/>
<path fill="lightgrey" stroke="lightgrey" d="M309,-36C303,-36 297,-30 297,-24"/>
<path fill="lightgrey" stroke="lightgrey" d="M297,-12C297,-6 303,-1.68368e-14 309,-1.591e-14"/>
<path fill="lightgrey" stroke="lightgrey" d="M377,-5.4063e-15C383,-4.47951e-15 389,-6 389,-12"/>
<path fill="lightgrey" stroke="lightgrey" d="M389,-24C389,-30 383,-36 377,-36"/>
<polyline fill="none" stroke="black" points="377,-36 309,-36 "/>
<path fill="none" stroke="black" d="M309,-36C303,-36 297,-30 297,-24"/>
<polyline fill="none" stroke="black" points="297,-24 297,-12 "/>
<path fill="none" stroke="black" d="M297,-12C297,-6 303,-1.68368e-14 309,-1.591e-14"/>
<polyline fill="none" stroke="black" points="309,-1.591e-14 377,-5.4063e-15 "/>
<path fill="none" stroke="black" d="M377,-5.4063e-15C383,-4.47951e-15 389,-6 389,-12"/>
<polyline fill="none" stroke="black" points="389,-12 389,-24 "/>
<path fill="none" stroke="black" d="M389,-24C389,-30 383,-36 377,-36"/>
<text text-anchor="middle" x="343" y="-14.4" font-family="Times Roman,serif" font-size="14.00">TableName</text>
</g>
<!-- myDynamoDBTable&#45;&gt;TableName -->
<g id="edge12" class="edge"><title>myDynamoDBTable&#45;&gt;TableName</title>
<path fill="none" stroke="black" d="M343,-71.8314C343,-64.131 343,-54.9743 343,-46.4166"/>
<polygon fill="black" stroke="black" points="346.5,-46.4132 343,-36.4133 339.5,-46.4133 346.5,-46.4132"/>
</g>
<!-- WriteCapacityUnits -->
<g id="node3" class="node"><title>WriteCapacityUnits</title>
<polygon fill="lightgrey" stroke="lightgrey" points="138,-180 12,-180 4.73695e-14,-168 2.36848e-14,-156 12,-144 138,-144 150,-156 150,-168 138,-180"/>
<path fill="lightgrey" stroke="lightgrey" d="M12,-180C6,-180 5.92119e-14,-174 4.73695e-14,-168"/>
<path fill="lightgrey" stroke="lightgrey" d="M2.36848e-14,-156C1.18424e-14,-150 6,-144 12,-144"/>
<path fill="lightgrey" stroke="lightgrey" d="M138,-144C144,-144 150,-150 150,-156"/>
<path fill="lightgrey" stroke="lightgrey" d="M150,-168C150,-174 144,-180 138,-180"/>
<polyline fill="none" stroke="black" points="138,-180 12,-180 "/>
<path fill="none" stroke="black" d="M12,-180C6,-180 5.92119e-14,-174 4.73695e-14,-168"/>
<polyline fill="none" stroke="black" points="4.73695e-14,-168 2.36848e-14,-156 "/>
<path fill="none" stroke="black" d="M2.36848e-14,-156C1.18424e-14,-150 6,-144 12,-144"/>
<polyline fill="none" stroke="black" points="12,-144 138,-144 "/>
<path fill="none" stroke="black" d="M138,-144C144,-144 150,-150 150,-156"/>
<polyline fill="none" stroke="black" points="150,-156 150,-168 "/>
<path fill="none" stroke="black" d="M150,-168C150,-174 144,-180 138,-180"/>
<text text-anchor="middle" x="75" y="-158.4" font-family="Times Roman,serif" font-size="14.00">WriteCapacityUnits</text>
</g>
<!-- WriteCapacityUnits&#45;&gt;myDynamoDBTable -->
<g id="edge8" class="edge"><title>WriteCapacityUnits&#45;&gt;myDynamoDBTable</title>
<path fill="none" stroke="black" d="M142.282,-143.924C179.875,-133.825 226.873,-121.198 265.94,-110.703"/>
<polygon fill="black" stroke="black" points="266.941,-114.058 275.691,-108.083 265.125,-107.298 266.941,-114.058"/>
</g>
<!-- HaskKeyElementType -->
<g id="node4" class="node"><title>HaskKeyElementType</title>
<polygon fill="lightgrey" stroke="lightgrey" points="320,-180 180,-180 168,-168 168,-156 180,-144 320,-144 332,-156 332,-168 320,-180"/>
<path fill="lightgrey" stroke="lightgrey" d="M180,-180C174,-180 168,-174 168,-168"/>
<path fill="lightgrey" stroke="lightgrey" d="M168,-156C168,-150 174,-144 180,-144"/>
<path fill="lightgrey" stroke="lightgrey" d="M320,-144C326,-144 332,-150 332,-156"/>
<path fill="lightgrey" stroke="lightgrey" d="M332,-168C332,-174 326,-180 320,-180"/>
<polyline fill="none" stroke="black" points="320,-180 180,-180 "/>
<path fill="none" stroke="black" d="M180,-180C174,-180 168,-174 168,-168"/>
<polyline fill="none" stroke="black" points="168,-168 168,-156 "/>
<path fill="none" stroke="black" d="M168,-156C168,-150 174,-144 180,-144"/>
<polyline fill="none" stroke="black" points="180,-144 320,-144 "/>
<path fill="none" stroke="black" d="M320,-144C326,-144 332,-150 332,-156"/>
<polyline fill="none" stroke="black" points="332,-156 332,-168 "/>
<path fill="none" stroke="black" d="M332,-168C332,-174 326,-180 320,-180"/>
<text text-anchor="middle" x="250" y="-158.4" font-family="Times Roman,serif" font-size="14.00">HaskKeyElementType</text>
</g>
<!-- HaskKeyElementType&#45;&gt;myDynamoDBTable -->
<g id="edge6" class="edge"><title>HaskKeyElementType&#45;&gt;myDynamoDBTable</title>
<path fill="none" stroke="black" d="M273.468,-143.831C285.033,-134.878 299.14,-123.956 311.618,-114.295"/>
<polygon fill="black" stroke="black" points="313.775,-117.052 319.54,-108.163 309.49,-111.517 313.775,-117.052"/>
</g>
<!-- HaskKeyElementName -->
<g id="node5" class="node"><title>HaskKeyElementName</title>
<polygon fill="lightgrey" stroke="lightgrey" points="510,-180 362,-180 350,-168 350,-156 362,-144 510,-144 522,-156 522,-168 510,-180"/>
<path fill="lightgrey" stroke="lightgrey" d="M362,-180C356,-180 350,-174 350,-168"/>
<path fill="lightgrey" stroke="lightgrey" d="M350,-156C350,-150 356,-144 362,-144"/>
<path fill="lightgrey" stroke="lightgrey" d="M510,-144C516,-144 522,-150 522,-156"/>
<path fill="lightgrey" stroke="lightgrey" d="M522,-168C522,-174 516,-180 510,-180"/>
<polyline fill="none" stroke="black" points="510,-180 362,-180 "/>
<path fill="none" stroke="black" d="M362,-180C356,-180 350,-174 350,-168"/>
<polyline fill="none" stroke="black" points="350,-168 350,-156 "/>
<path fill="none" stroke="black" d="M350,-156C350,-150 356,-144 362,-144"/>
<polyline fill="none" stroke="black" points="362,-144 510,-144 "/>
<path fill="none" stroke="black" d="M510,-144C516,-144 522,-150 522,-156"/>
<polyline fill="none" stroke="black" points="522,-156 522,-168 "/>
<path fill="none" stroke="black" d="M522,-168C522,-174 516,-180 510,-180"/>
<text text-anchor="middle" x="436" y="-158.4" font-family="Times Roman,serif" font-size="14.00">HaskKeyElementName</text>
</g>
<!-- HaskKeyElementName&#45;&gt;myDynamoDBTable -->
<g id="edge4" class="edge"><title>HaskKeyElementName&#45;&gt;myDynamoDBTable</title>
<path fill="none" stroke="black" d="M412.532,-143.831C400.967,-134.878 386.86,-123.956 374.382,-114.295"/>
<polygon fill="black" stroke="black" points="376.51,-111.517 366.46,-108.163 372.225,-117.052 376.51,-111.517"/>
</g>
<!-- ReadCapacityUnits -->
<g id="node6" class="node"><title>ReadCapacityUnits</title>
<polygon fill="lightgrey" stroke="lightgrey" points="674,-180 552,-180 540,-168 540,-156 552,-144 674,-144 686,-156 686,-168 674,-180"/>
<path fill="lightgrey" stroke="lightgrey" d="M552,-180C546,-180 540,-174 540,-168"/>
<path fill="lightgrey" stroke="lightgrey" d="M540,-156C540,-150 546,-144 552,-144"/>
<path fill="lightgrey" stroke="lightgrey" d="M674,-144C680,-144 686,-150 686,-156"/>
<path fill="lightgrey" stroke="lightgrey" d="M686,-168C686,-174 680,-180 674,-180"/>
<polyline fill="none" stroke="black" points="674,-180 552,-180 "/>
<path fill="none" stroke="black" d="M552,-180C546,-180 540,-174 540,-168"/>
<polyline fill="none" stroke="black" points="540,-168 540,-156 "/>
<path fill="none" stroke="black" d="M540,-156C540,-150 546,-144 552,-144"/>
<polyline fill="none" stroke="black" points="552,-144 674,-144 "/>
<path fill="none" stroke="black" d="M674,-144C680,-144 686,-150 686,-156"/>
<polyline fill="none" stroke="black" points="686,-156 686,-168 "/>
<path fill="none" stroke="black" d="M686,-168C686,-174 680,-180 674,-180"/>
<text text-anchor="middle" x="613" y="-158.4" font-family="Times Roman,serif" font-size="14.00">ReadCapacityUnits</text>
</g>
<!-- ReadCapacityUnits&#45;&gt;myDynamoDBTable -->
<g id="edge10" class="edge"><title>ReadCapacityUnits&#45;&gt;myDynamoDBTable</title>
<path fill="none" stroke="black" d="M545.216,-143.924C507.343,-133.825 459.993,-121.198 420.635,-110.703"/>
<polygon fill="black" stroke="black" points="421.376,-107.278 410.812,-108.083 419.572,-114.042 421.376,-107.278"/>
</g>
</g>
</svg>
