<?xml version="1.0" encoding="UTF-8" standalone="no"?>
<!DOCTYPE svg PUBLIC "-//W3C//DTD SVG 1.1//EN"
 "http://www.w3.org/Graphics/SVG/1.1/DTD/svg11.dtd">
<!-- Generated by graphviz version 2.26.3 (20100126.1600)
 -->
<!-- Title: AWS CloudFormation Sample Template EBS_Snapshot_On_Delete: Create an Amazon EC2 instance running the Amazon Linux AMI with a new EBS volume attached. The samples shows how to do an untargeted launch and create an EBS volume in the same availability zone as the EC2 instance. The EBS volume is set to create a snaphot on delete to preserve the contents when the stack is deleted. The AMI is chosen based on the region in which the stack is run. **WARNING** This template creates an Amazon EC2 instance and an EBS volume. You will be billed for the AWS resources used if you create a stack from this template. Pages: 1 -->
<svg width="410pt" height="404pt"
 viewBox="0.00 0.00 410.00 404.00" xmlns="http://www.w3.org/2000/svg" xmlns:xlink="http://www.w3.org/1999/xlink">
<g id="graph1" class="graph" transform="scale(1 1) rotate(0) translate(4 400)">
<title>AWS CloudFormation Sample Template EBS_Snapshot_On_Delete: Create an Amazon EC2 instance running the Amazon Linux AMI with a new EBS volume attached. The samples shows how to do an untargeted launch and create an EBS volume in the same availability zone as the EC2 instance. The EBS volume is set to create a snaphot on delete to preserve the contents when the stack is deleted. The AMI is chosen based on the region in which the stack is run. **WARNING** This template creates an Amazon EC2 instance and an EBS volume. You will be billed for the AWS resources used if you create a stack from this template.</title>
<polygon fill="white" stroke="white" points="-4,5 -4,-400 407,-400 407,5 -4,5"/>
<!-- MountPoint -->
<g id="node1" class="node"><title>MountPoint</title>
<polygon fill="none" stroke="black" points="96,-108 3.55271e-14,-108 0,-72 96,-72 96,-108"/>
<text text-anchor="middle" x="48" y="-86.4" font-family="Times Roman,serif" font-size="14.00">MountPoint</text>
</g>
<!-- InstanceSecurityGroup -->
<g id="node2" class="node"><title>InstanceSecurityGroup</title>
<polygon fill="none" stroke="black" points="178,-324 4,-324 4,-288 178,-288 178,-324"/>
<text text-anchor="middle" x="91" y="-302.4" font-family="Times Roman,serif" font-size="14.00">InstanceSecurityGroup</text>
</g>
<!-- Ec2Instance -->
<g id="node3" class="node"><title>Ec2Instance</title>
<polygon fill="none" stroke="black" points="219,-252 119,-252 119,-216 219,-216 219,-252"/>
<text text-anchor="middle" x="169" y="-230.4" font-family="Times Roman,serif" font-size="14.00">Ec2Instance</text>
</g>
<!-- InstanceSecurityGroup&#45;&gt;Ec2Instance -->
<g id="edge10" class="edge"><title>InstanceSecurityGroup&#45;&gt;Ec2Instance</title>
<path fill="none" stroke="black" d="M110.683,-287.831C120.105,-279.134 131.54,-268.578 141.78,-259.127"/>
<polygon fill="black" stroke="black" points="144.35,-261.517 149.324,-252.163 139.602,-256.374 144.35,-261.517"/>
</g>
<!-- Ec2Instance&#45;&gt;MountPoint -->
<g id="edge4" class="edge"><title>Ec2Instance&#45;&gt;MountPoint</title>
<path fill="none" stroke="black" d="M118.942,-217.932C100.029,-209.476 79.9664,-197.2 67,-180 53.6785,-162.329 49.2118,-137.418 47.9169,-118.283"/>
<polygon fill="black" stroke="black" points="51.4039,-117.898 47.4828,-108.056 44.4102,-118.195 51.4039,-117.898"/>
</g>
<!-- NewVolume -->
<g id="node4" class="node"><title>NewVolume</title>
<polygon fill="none" stroke="black" points="174,-180 76,-180 76,-144 174,-144 174,-180"/>
<text text-anchor="middle" x="125" y="-158.4" font-family="Times Roman,serif" font-size="14.00">NewVolume</text>
</g>
<!-- Ec2Instance&#45;&gt;NewVolume -->
<g id="edge14" class="edge"><title>Ec2Instance&#45;&gt;NewVolume</title>
<path fill="none" stroke="black" d="M157.897,-215.831C152.933,-207.708 146.978,-197.964 141.507,-189.012"/>
<polygon fill="black" stroke="black" points="144.454,-187.121 136.253,-180.413 138.481,-190.771 144.454,-187.121"/>
</g>
<!-- InstanceId -->
<g id="node8" class="node"><title>InstanceId</title>
<polygon fill="lightgrey" stroke="lightgrey" points="246,-36 182,-36 170,-24 170,-12 182,-1.58257e-14 246,-5.49056e-15 258,-12 258,-24 246,-36"/>
<path fill="lightgrey" stroke="lightgrey" d="M182,-36C176,-36 170,-30 170,-24"/>
<path fill="lightgrey" stroke="lightgrey" d="M170,-12C170,-6 176,-1.67946e-14 182,-1.58257e-14"/>
<path fill="lightgrey" stroke="lightgrey" d="M246,-5.49056e-15C252,-4.52164e-15 258,-6 258,-12"/>
<path fill="lightgrey" stroke="lightgrey" d="M258,-24C258,-30 252,-36 246,-36"/>
<polyline fill="none" stroke="black" points="246,-36 182,-36 "/>
<path fill="none" stroke="black" d="M182,-36C176,-36 170,-30 170,-24"/>
<polyline fill="none" stroke="black" points="170,-24 170,-12 "/>
<path fill="none" stroke="black" d="M170,-12C170,-6 176,-1.67946e-14 182,-1.58257e-14"/>
<polyline fill="none" stroke="black" points="182,-1.58257e-14 246,-5.49056e-15 "/>
<path fill="none" stroke="black" d="M246,-5.49056e-15C252,-4.52164e-15 258,-6 258,-12"/>
<polyline fill="none" stroke="black" points="258,-12 258,-24 "/>
<path fill="none" stroke="black" d="M258,-24C258,-30 252,-36 246,-36"/>
<text text-anchor="middle" x="214" y="-14.4" font-family="Times Roman,serif" font-size="14.00">InstanceId</text>
</g>
<!-- Ec2Instance&#45;&gt;InstanceId -->
<g id="edge16" class="edge"><title>Ec2Instance&#45;&gt;InstanceId</title>
<path fill="none" stroke="black" d="M174.091,-215.577C176.887,-205.173 180.321,-191.905 183,-180 193.507,-133.315 203.506,-78.5497 209.183,-46.1459"/>
<polygon fill="black" stroke="black" points="212.672,-46.5098 210.937,-36.058 205.776,-45.3106 212.672,-46.5098"/>
</g>
<!-- AvailabilityZone -->
<g id="node9" class="node"><title>AvailabilityZone</title>
<polygon fill="lightgrey" stroke="lightgrey" points="390,-36 288,-36 276,-24 276,-12 288,-1.64102e-14 390,-4.90613e-15 402,-12 402,-24 390,-36"/>
<path fill="lightgrey" stroke="lightgrey" d="M288,-36C282,-36 276,-30 276,-24"/>
<path fill="lightgrey" stroke="lightgrey" d="M276,-12C276,-6 282,-1.70869e-14 288,-1.64102e-14"/>
<path fill="lightgrey" stroke="lightgrey" d="M390,-4.90613e-15C396,-4.22942e-15 402,-6 402,-12"/>
<path fill="lightgrey" stroke="lightgrey" d="M402,-24C402,-30 396,-36 390,-36"/>
<polyline fill="none" stroke="black" points="390,-36 288,-36 "/>
<path fill="none" stroke="black" d="M288,-36C282,-36 276,-30 276,-24"/>
<polyline fill="none" stroke="black" points="276,-24 276,-12 "/>
<path fill="none" stroke="black" d="M276,-12C276,-6 282,-1.70869e-14 288,-1.64102e-14"/>
<polyline fill="none" stroke="black" points="288,-1.64102e-14 390,-4.90613e-15 "/>
<path fill="none" stroke="black" d="M390,-4.90613e-15C396,-4.22942e-15 402,-6 402,-12"/>
<polyline fill="none" stroke="black" points="402,-12 402,-24 "/>
<path fill="none" stroke="black" d="M402,-24C402,-30 396,-36 390,-36"/>
<text text-anchor="middle" x="339" y="-14.4" font-family="Times Roman,serif" font-size="14.00">AvailabilityZone</text>
</g>
<!-- Ec2Instance&#45;&gt;AvailabilityZone -->
<g id="edge18" class="edge"><title>Ec2Instance&#45;&gt;AvailabilityZone</title>
<path fill="none" stroke="black" d="M183.202,-215.955C213.264,-177.759 283.433,-88.6025 318.414,-44.1559"/>
<polygon fill="black" stroke="black" points="321.285,-46.1679 324.719,-36.1451 315.784,-41.8386 321.285,-46.1679"/>
</g>
<!-- NewVolume&#45;&gt;MountPoint -->
<g id="edge6" class="edge"><title>NewVolume&#45;&gt;MountPoint</title>
<path fill="none" stroke="black" d="M105.57,-143.831C96.268,-135.134 84.9796,-124.578 74.8714,-115.127"/>
<polygon fill="black" stroke="black" points="77.1189,-112.436 67.4241,-108.163 72.3379,-117.549 77.1189,-112.436"/>
</g>
<!-- VolumeId -->
<g id="node10" class="node"><title>VolumeId</title>
<polygon fill="lightgrey" stroke="lightgrey" points="140,-36 84,-36 72,-24 72,-12 84,-1.56319e-14 140,-5.68434e-15 152,-12 152,-24 140,-36"/>
<path fill="lightgrey" stroke="lightgrey" d="M84,-36C78,-36 72,-30 72,-24"/>
<path fill="lightgrey" stroke="lightgrey" d="M72,-12C72,-6 78,-1.66978e-14 84,-1.56319e-14"/>
<path fill="lightgrey" stroke="lightgrey" d="M140,-5.68434e-15C146,-4.61853e-15 152,-6 152,-12"/>
<path fill="lightgrey" stroke="lightgrey" d="M152,-24C152,-30 146,-36 140,-36"/>
<polyline fill="none" stroke="black" points="140,-36 84,-36 "/>
<path fill="none" stroke="black" d="M84,-36C78,-36 72,-30 72,-24"/>
<polyline fill="none" stroke="black" points="72,-24 72,-12 "/>
<path fill="none" stroke="black" d="M72,-12C72,-6 78,-1.66978e-14 84,-1.56319e-14"/>
<polyline fill="none" stroke="black" points="84,-1.56319e-14 140,-5.68434e-15 "/>
<path fill="none" stroke="black" d="M140,-5.68434e-15C146,-4.61853e-15 152,-6 152,-12"/>
<polyline fill="none" stroke="black" points="152,-12 152,-24 "/>
<path fill="none" stroke="black" d="M152,-24C152,-30 146,-36 140,-36"/>
<text text-anchor="middle" x="112" y="-14.4" font-family="Times Roman,serif" font-size="14.00">VolumeId</text>
</g>
<!-- NewVolume&#45;&gt;VolumeId -->
<g id="edge20" class="edge"><title>NewVolume&#45;&gt;VolumeId</title>
<path fill="none" stroke="black" d="M123.354,-143.762C121.136,-119.201 117.168,-75.2474 114.56,-46.3541"/>
<polygon fill="black" stroke="black" points="118.018,-45.7344 113.633,-36.0896 111.046,-46.3638 118.018,-45.7344"/>
</g>
<!-- SSHLocation -->
<g id="node6" class="node"><title>SSHLocation</title>
<polygon fill="lightgrey" stroke="lightgrey" points="131,-396 51,-396 39,-384 39,-372 51,-360 131,-360 143,-372 143,-384 131,-396"/>
<path fill="lightgrey" stroke="lightgrey" d="M51,-396C45,-396 39,-390 39,-384"/>
<path fill="lightgrey" stroke="lightgrey" d="M39,-372C39,-366 45,-360 51,-360"/>
<path fill="lightgrey" stroke="lightgrey" d="M131,-360C137,-360 143,-366 143,-372"/>
<path fill="lightgrey" stroke="lightgrey" d="M143,-384C143,-390 137,-396 131,-396"/>
<polyline fill="none" stroke="black" points="131,-396 51,-396 "/>
<path fill="none" stroke="black" d="M51,-396C45,-396 39,-390 39,-384"/>
<polyline fill="none" stroke="black" points="39,-384 39,-372 "/>
<path fill="none" stroke="black" d="M39,-372C39,-366 45,-360 51,-360"/>
<polyline fill="none" stroke="black" points="51,-360 131,-360 "/>
<path fill="none" stroke="black" d="M131,-360C137,-360 143,-366 143,-372"/>
<polyline fill="none" stroke="black" points="143,-372 143,-384 "/>
<path fill="none" stroke="black" d="M143,-384C143,-390 137,-396 131,-396"/>
<text text-anchor="middle" x="91" y="-374.4" font-family="Times Roman,serif" font-size="14.00">SSHLocation</text>
</g>
<!-- SSHLocation&#45;&gt;InstanceSecurityGroup -->
<g id="edge8" class="edge"><title>SSHLocation&#45;&gt;InstanceSecurityGroup</title>
<path fill="none" stroke="black" d="M91,-359.831C91,-352.131 91,-342.974 91,-334.417"/>
<polygon fill="black" stroke="black" points="94.5001,-334.413 91,-324.413 87.5001,-334.413 94.5001,-334.413"/>
</g>
<!-- AWS::Region -->
<g id="node15" class="node"><title>AWS::Region</title>
<polygon fill="none" stroke="black" points="300,-324 196,-324 196,-288 300,-288 300,-324"/>
<text text-anchor="middle" x="248" y="-302.4" font-family="Times Roman,serif" font-size="14.00">AWS::Region</text>
</g>
<!-- AWS::Region&#45;&gt;Ec2Instance -->
<g id="edge12" class="edge"><title>AWS::Region&#45;&gt;Ec2Instance</title>
<path fill="none" stroke="black" d="M228.065,-287.831C218.522,-279.134 206.94,-268.578 196.569,-259.127"/>
<polygon fill="black" stroke="black" points="198.677,-256.312 188.929,-252.163 193.962,-261.486 198.677,-256.312"/>
</g>
</g>
</svg>
