<?xml version="1.0" encoding="UTF-8" standalone="no"?>
<!DOCTYPE svg PUBLIC "-//W3C//DTD SVG 1.1//EN"
 "http://www.w3.org/Graphics/SVG/1.1/DTD/svg11.dtd">
<!-- Generated by graphviz version 2.26.3 (20100126.1600)
 -->
<!-- Title: AWS CloudFormation Sample Template EC2_Instance_With_Ephemeral_Drives: Example to show how to attach ephemeral drives using EC2 block device mappings. **WARNING** This template creates an Amazon EC2 instance. You will be billed for the AWS resources used if you create a stack from this template. Pages: 1 -->
<svg width="308pt" height="260pt"
 viewBox="0.00 0.00 308.00 260.00" xmlns="http://www.w3.org/2000/svg" xmlns:xlink="http://www.w3.org/1999/xlink">
<g id="graph1" class="graph" transform="scale(1 1) rotate(0) translate(4 256)">
<title>AWS CloudFormation Sample Template EC2_Instance_With_Ephemeral_Drives: Example to show how to attach ephemeral drives using EC2 block device mappings. **WARNING** This template creates an Amazon EC2 instance. You will be billed for the AWS resources used if you create a stack from this template.</title>
<polygon fill="white" stroke="white" points="-4,5 -4,-256 305,-256 305,5 -4,5"/>
<!-- Ec2Instance -->
<g id="node1" class="node"><title>Ec2Instance</title>
<polygon fill="none" stroke="black" points="218,-108 118,-108 118,-72 218,-72 218,-108"/>
<text text-anchor="middle" x="168" y="-86.4" font-family="Times Roman,serif" font-size="14.00">Ec2Instance</text>
</g>
<!-- Instance -->
<g id="node7" class="node"><title>Instance</title>
<polygon fill="lightgrey" stroke="lightgrey" points="193,-36 143,-36 131,-24 131,-12 143,-1.54591e-14 193,-5.85718e-15 205,-12 205,-24 193,-36"/>
<path fill="lightgrey" stroke="lightgrey" d="M143,-36C137,-36 131,-30 131,-24"/>
<path fill="lightgrey" stroke="lightgrey" d="M131,-12C131,-6 137,-1.66113e-14 143,-1.54591e-14"/>
<path fill="lightgrey" stroke="lightgrey" d="M193,-5.85718e-15C199,-4.70495e-15 205,-6 205,-12"/>
<path fill="lightgrey" stroke="lightgrey" d="M205,-24C205,-30 199,-36 193,-36"/>
<polyline fill="none" stroke="black" points="193,-36 143,-36 "/>
<path fill="none" stroke="black" d="M143,-36C137,-36 131,-30 131,-24"/>
<polyline fill="none" stroke="black" points="131,-24 131,-12 "/>
<path fill="none" stroke="black" d="M131,-12C131,-6 137,-1.66113e-14 143,-1.54591e-14"/>
<polyline fill="none" stroke="black" points="143,-1.54591e-14 193,-5.85718e-15 "/>
<path fill="none" stroke="black" d="M193,-5.85718e-15C199,-4.70495e-15 205,-6 205,-12"/>
<polyline fill="none" stroke="black" points="205,-12 205,-24 "/>
<path fill="none" stroke="black" d="M205,-24C205,-30 199,-36 193,-36"/>
<text text-anchor="middle" x="168" y="-14.4" font-family="Times Roman,serif" font-size="14.00">Instance</text>
</g>
<!-- Ec2Instance&#45;&gt;Instance -->
<g id="edge12" class="edge"><title>Ec2Instance&#45;&gt;Instance</title>
<path fill="none" stroke="black" d="M168,-71.8314C168,-64.131 168,-54.9743 168,-46.4166"/>
<polygon fill="black" stroke="black" points="171.5,-46.4132 168,-36.4133 164.5,-46.4133 171.5,-46.4132"/>
</g>
<!-- Ec2SecurityGroup -->
<g id="node2" class="node"><title>Ec2SecurityGroup</title>
<polygon fill="none" stroke="black" points="140,-180 7.10543e-14,-180 0,-144 140,-144 140,-180"/>
<text text-anchor="middle" x="70" y="-158.4" font-family="Times Roman,serif" font-size="14.00">Ec2SecurityGroup</text>
</g>
<!-- Ec2SecurityGroup&#45;&gt;Ec2Instance -->
<g id="edge6" class="edge"><title>Ec2SecurityGroup&#45;&gt;Ec2Instance</title>
<path fill="none" stroke="black" d="M94.7295,-143.831C106.916,-134.878 121.782,-123.956 134.931,-114.295"/>
<polygon fill="black" stroke="black" points="137.292,-116.904 143.278,-108.163 133.147,-111.263 137.292,-116.904"/>
</g>
<!-- KeyName -->
<g id="node4" class="node"><title>KeyName</title>
<polygon fill="lightgrey" stroke="lightgrey" points="196,-252 140,-252 128,-240 128,-228 140,-216 196,-216 208,-228 208,-240 196,-252"/>
<path fill="lightgrey" stroke="lightgrey" d="M140,-252C134,-252 128,-246 128,-240"/>
<path fill="lightgrey" stroke="lightgrey" d="M128,-228C128,-222 134,-216 140,-216"/>
<path fill="lightgrey" stroke="lightgrey" d="M196,-216C202,-216 208,-222 208,-228"/>
<path fill="lightgrey" stroke="lightgrey" d="M208,-240C208,-246 202,-252 196,-252"/>
<polyline fill="none" stroke="black" points="196,-252 140,-252 "/>
<path fill="none" stroke="black" d="M140,-252C134,-252 128,-246 128,-240"/>
<polyline fill="none" stroke="black" points="128,-240 128,-228 "/>
<path fill="none" stroke="black" d="M128,-228C128,-222 134,-216 140,-216"/>
<polyline fill="none" stroke="black" points="140,-216 196,-216 "/>
<path fill="none" stroke="black" d="M196,-216C202,-216 208,-222 208,-228"/>
<polyline fill="none" stroke="black" points="208,-228 208,-240 "/>
<path fill="none" stroke="black" d="M208,-240C208,-246 202,-252 196,-252"/>
<text text-anchor="middle" x="168" y="-230.4" font-family="Times Roman,serif" font-size="14.00">KeyName</text>
</g>
<!-- KeyName&#45;&gt;Ec2Instance -->
<g id="edge4" class="edge"><title>KeyName&#45;&gt;Ec2Instance</title>
<path fill="none" stroke="black" d="M168,-215.762C168,-191.201 168,-147.247 168,-118.354"/>
<polygon fill="black" stroke="black" points="171.5,-118.09 168,-108.09 164.5,-118.09 171.5,-118.09"/>
</g>
<!-- SSHFrom -->
<g id="node5" class="node"><title>SSHFrom</title>
<polygon fill="lightgrey" stroke="lightgrey" points="98,-252 42,-252 30,-240 30,-228 42,-216 98,-216 110,-228 110,-240 98,-252"/>
<path fill="lightgrey" stroke="lightgrey" d="M42,-252C36,-252 30,-246 30,-240"/>
<path fill="lightgrey" stroke="lightgrey" d="M30,-228C30,-222 36,-216 42,-216"/>
<path fill="lightgrey" stroke="lightgrey" d="M98,-216C104,-216 110,-222 110,-228"/>
<path fill="lightgrey" stroke="lightgrey" d="M110,-240C110,-246 104,-252 98,-252"/>
<polyline fill="none" stroke="black" points="98,-252 42,-252 "/>
<path fill="none" stroke="black" d="M42,-252C36,-252 30,-246 30,-240"/>
<polyline fill="none" stroke="black" points="30,-240 30,-228 "/>
<path fill="none" stroke="black" d="M30,-228C30,-222 36,-216 42,-216"/>
<polyline fill="none" stroke="black" points="42,-216 98,-216 "/>
<path fill="none" stroke="black" d="M98,-216C104,-216 110,-222 110,-228"/>
<polyline fill="none" stroke="black" points="110,-228 110,-240 "/>
<path fill="none" stroke="black" d="M110,-240C110,-246 104,-252 98,-252"/>
<text text-anchor="middle" x="70" y="-230.4" font-family="Times Roman,serif" font-size="14.00">SSHFrom</text>
</g>
<!-- SSHFrom&#45;&gt;Ec2SecurityGroup -->
<g id="edge10" class="edge"><title>SSHFrom&#45;&gt;Ec2SecurityGroup</title>
<path fill="none" stroke="black" d="M70,-215.831C70,-208.131 70,-198.974 70,-190.417"/>
<polygon fill="black" stroke="black" points="73.5001,-190.413 70,-180.413 66.5001,-190.413 73.5001,-190.413"/>
</g>
<!-- AWS::Region -->
<g id="node10" class="node"><title>AWS::Region</title>
<polygon fill="none" stroke="black" points="300,-180 196,-180 196,-144 300,-144 300,-180"/>
<text text-anchor="middle" x="248" y="-158.4" font-family="Times Roman,serif" font-size="14.00">AWS::Region</text>
</g>
<!-- AWS::Region&#45;&gt;Ec2Instance -->
<g id="edge8" class="edge"><title>AWS::Region&#45;&gt;Ec2Instance</title>
<path fill="none" stroke="black" d="M227.813,-143.831C218.149,-135.134 206.42,-124.578 195.918,-115.127"/>
<polygon fill="black" stroke="black" points="197.955,-112.251 188.181,-108.163 193.272,-117.454 197.955,-112.251"/>
</g>
</g>
</svg>
