<?xml version="1.0" encoding="UTF-8" standalone="no"?>
<!DOCTYPE svg PUBLIC "-//W3C//DTD SVG 1.1//EN"
 "http://www.w3.org/Graphics/SVG/1.1/DTD/svg11.dtd">
<!-- Generated by graphviz version 2.26.3 (20100126.1600)
 -->
<!-- Title: AWS CloudFormation Sample Template EC2_Instance_With_Block_Device_Mapping: Example to show how to attach EBS volumes and modify the root device using EC2 block device mappings. **WARNING** This template creates an Amazon EC2 instance. You will be billed for the AWS resources used if you create a stack from this template. Pages: 1 -->
<svg width="396pt" height="260pt"
 viewBox="0.00 0.00 396.00 260.00" xmlns="http://www.w3.org/2000/svg" xmlns:xlink="http://www.w3.org/1999/xlink">
<g id="graph1" class="graph" transform="scale(1 1) rotate(0) translate(4 256)">
<title>AWS CloudFormation Sample Template EC2_Instance_With_Block_Device_Mapping: Example to show how to attach EBS volumes and modify the root device using EC2 block device mappings. **WARNING** This template creates an Amazon EC2 instance. You will be billed for the AWS resources used if you create a stack from this template.</title>
<polygon fill="white" stroke="white" points="-4,5 -4,-256 393,-256 393,5 -4,5"/>
<!-- Ec2Instance -->
<g id="node1" class="node"><title>Ec2Instance</title>
<polygon fill="none" stroke="black" points="297,-108 197,-108 197,-72 297,-72 297,-108"/>
<text text-anchor="middle" x="247" y="-86.4" font-family="Times Roman,serif" font-size="14.00">Ec2Instance</text>
</g>
<!-- Instance -->
<g id="node8" class="node"><title>Instance</title>
<polygon fill="lightgrey" stroke="lightgrey" points="272,-36 222,-36 210,-24 210,-12 222,-1.54591e-14 272,-5.85718e-15 284,-12 284,-24 272,-36"/>
<path fill="lightgrey" stroke="lightgrey" d="M222,-36C216,-36 210,-30 210,-24"/>
<path fill="lightgrey" stroke="lightgrey" d="M210,-12C210,-6 216,-1.66113e-14 222,-1.54591e-14"/>
<path fill="lightgrey" stroke="lightgrey" d="M272,-5.85718e-15C278,-4.70495e-15 284,-6 284,-12"/>
<path fill="lightgrey" stroke="lightgrey" d="M284,-24C284,-30 278,-36 272,-36"/>
<polyline fill="none" stroke="black" points="272,-36 222,-36 "/>
<path fill="none" stroke="black" d="M222,-36C216,-36 210,-30 210,-24"/>
<polyline fill="none" stroke="black" points="210,-24 210,-12 "/>
<path fill="none" stroke="black" d="M210,-12C210,-6 216,-1.66113e-14 222,-1.54591e-14"/>
<polyline fill="none" stroke="black" points="222,-1.54591e-14 272,-5.85718e-15 "/>
<path fill="none" stroke="black" d="M272,-5.85718e-15C278,-4.70495e-15 284,-6 284,-12"/>
<polyline fill="none" stroke="black" points="284,-12 284,-24 "/>
<path fill="none" stroke="black" d="M284,-24C284,-30 278,-36 272,-36"/>
<text text-anchor="middle" x="247" y="-14.4" font-family="Times Roman,serif" font-size="14.00">Instance</text>
</g>
<!-- Ec2Instance&#45;&gt;Instance -->
<g id="edge16" class="edge"><title>Ec2Instance&#45;&gt;Instance</title>
<path fill="none" stroke="black" d="M247,-71.8314C247,-64.131 247,-54.9743 247,-46.4166"/>
<polygon fill="black" stroke="black" points="250.5,-46.4132 247,-36.4133 243.5,-46.4133 250.5,-46.4132"/>
</g>
<!-- Ec2SecurityGroup -->
<g id="node2" class="node"><title>Ec2SecurityGroup</title>
<polygon fill="none" stroke="black" points="140,-180 7.10543e-14,-180 0,-144 140,-144 140,-180"/>
<text text-anchor="middle" x="70" y="-158.4" font-family="Times Roman,serif" font-size="14.00">Ec2SecurityGroup</text>
</g>
<!-- Ec2SecurityGroup&#45;&gt;Ec2Instance -->
<g id="edge6" class="edge"><title>Ec2SecurityGroup&#45;&gt;Ec2Instance</title>
<path fill="none" stroke="black" d="M114.665,-143.831C138.548,-134.116 168.129,-122.083 193.263,-111.859"/>
<polygon fill="black" stroke="black" points="194.712,-115.048 202.657,-108.038 192.075,-108.564 194.712,-115.048"/>
</g>
<!-- KeyName -->
<g id="node4" class="node"><title>KeyName</title>
<polygon fill="lightgrey" stroke="lightgrey" points="196,-252 140,-252 128,-240 128,-228 140,-216 196,-216 208,-228 208,-240 196,-252"/>
<path fill="lightgrey" stroke="lightgrey" d="M140,-252C134,-252 128,-246 128,-240"/>
<path fill="lightgrey" stroke="lightgrey" d="M128,-228C128,-222 134,-216 140,-216"/>
<path fill="lightgrey" stroke="lightgrey" d="M196,-216C202,-216 208,-222 208,-228"/>
<path fill="lightgrey" stroke="lightgrey" d="M208,-240C208,-246 202,-252 196,-252"/>
<polyline fill="none" stroke="black" points="196,-252 140,-252 "/>
<path fill="none" stroke="black" d="M140,-252C134,-252 128,-246 128,-240"/>
<polyline fill="none" stroke="black" points="128,-240 128,-228 "/>
<path fill="none" stroke="black" d="M128,-228C128,-222 134,-216 140,-216"/>
<polyline fill="none" stroke="black" points="140,-216 196,-216 "/>
<path fill="none" stroke="black" d="M196,-216C202,-216 208,-222 208,-228"/>
<polyline fill="none" stroke="black" points="208,-228 208,-240 "/>
<path fill="none" stroke="black" d="M208,-240C208,-246 202,-252 196,-252"/>
<text text-anchor="middle" x="168" y="-230.4" font-family="Times Roman,serif" font-size="14.00">KeyName</text>
</g>
<!-- KeyName&#45;&gt;Ec2Instance -->
<g id="edge4" class="edge"><title>KeyName&#45;&gt;Ec2Instance</title>
<path fill="none" stroke="black" d="M178.005,-215.762C191.658,-190.876 216.233,-146.082 232.069,-117.216"/>
<polygon fill="black" stroke="black" points="235.335,-118.54 237.076,-108.09 229.197,-115.173 235.335,-118.54"/>
</g>
<!-- InstanceType -->
<g id="node5" class="node"><title>InstanceType</title>
<polygon fill="lightgrey" stroke="lightgrey" points="320,-252 238,-252 226,-240 226,-228 238,-216 320,-216 332,-228 332,-240 320,-252"/>
<path fill="lightgrey" stroke="lightgrey" d="M238,-252C232,-252 226,-246 226,-240"/>
<path fill="lightgrey" stroke="lightgrey" d="M226,-228C226,-222 232,-216 238,-216"/>
<path fill="lightgrey" stroke="lightgrey" d="M320,-216C326,-216 332,-222 332,-228"/>
<path fill="lightgrey" stroke="lightgrey" d="M332,-240C332,-246 326,-252 320,-252"/>
<polyline fill="none" stroke="black" points="320,-252 238,-252 "/>
<path fill="none" stroke="black" d="M238,-252C232,-252 226,-246 226,-240"/>
<polyline fill="none" stroke="black" points="226,-240 226,-228 "/>
<path fill="none" stroke="black" d="M226,-228C226,-222 232,-216 238,-216"/>
<polyline fill="none" stroke="black" points="238,-216 320,-216 "/>
<path fill="none" stroke="black" d="M320,-216C326,-216 332,-222 332,-228"/>
<polyline fill="none" stroke="black" points="332,-228 332,-240 "/>
<path fill="none" stroke="black" d="M332,-240C332,-246 326,-252 320,-252"/>
<text text-anchor="middle" x="279" y="-230.4" font-family="Times Roman,serif" font-size="14.00">InstanceType</text>
</g>
<!-- InstanceType&#45;&gt;Ec2Instance -->
<g id="edge8" class="edge"><title>InstanceType&#45;&gt;Ec2Instance</title>
<path fill="none" stroke="black" d="M270.274,-215.762C262.356,-191.201 252.314,-147.247 247.803,-118.354"/>
<polygon fill="black" stroke="black" points="251.219,-117.505 246.362,-108.09 244.287,-118.479 251.219,-117.505"/>
</g>
<!-- InstanceType&#45;&gt;Ec2Instance -->
<g id="edge12" class="edge"><title>InstanceType&#45;&gt;Ec2Instance</title>
<path fill="none" stroke="black" d="M279.62,-215.762C276.609,-191.093 267.046,-146.86 258.688,-117.973"/>
<polygon fill="black" stroke="black" points="261.94,-116.636 255.678,-108.09 255.244,-118.676 261.94,-116.636"/>
</g>
<!-- SSHFrom -->
<g id="node6" class="node"><title>SSHFrom</title>
<polygon fill="lightgrey" stroke="lightgrey" points="98,-252 42,-252 30,-240 30,-228 42,-216 98,-216 110,-228 110,-240 98,-252"/>
<path fill="lightgrey" stroke="lightgrey" d="M42,-252C36,-252 30,-246 30,-240"/>
<path fill="lightgrey" stroke="lightgrey" d="M30,-228C30,-222 36,-216 42,-216"/>
<path fill="lightgrey" stroke="lightgrey" d="M98,-216C104,-216 110,-222 110,-228"/>
<path fill="lightgrey" stroke="lightgrey" d="M110,-240C110,-246 104,-252 98,-252"/>
<polyline fill="none" stroke="black" points="98,-252 42,-252 "/>
<path fill="none" stroke="black" d="M42,-252C36,-252 30,-246 30,-240"/>
<polyline fill="none" stroke="black" points="30,-240 30,-228 "/>
<path fill="none" stroke="black" d="M30,-228C30,-222 36,-216 42,-216"/>
<polyline fill="none" stroke="black" points="42,-216 98,-216 "/>
<path fill="none" stroke="black" d="M98,-216C104,-216 110,-222 110,-228"/>
<polyline fill="none" stroke="black" points="110,-228 110,-240 "/>
<path fill="none" stroke="black" d="M110,-240C110,-246 104,-252 98,-252"/>
<text text-anchor="middle" x="70" y="-230.4" font-family="Times Roman,serif" font-size="14.00">SSHFrom</text>
</g>
<!-- SSHFrom&#45;&gt;Ec2SecurityGroup -->
<g id="edge14" class="edge"><title>SSHFrom&#45;&gt;Ec2SecurityGroup</title>
<path fill="none" stroke="black" d="M70,-215.831C70,-208.131 70,-198.974 70,-190.417"/>
<polygon fill="black" stroke="black" points="73.5001,-190.413 70,-180.413 66.5001,-190.413 73.5001,-190.413"/>
</g>
<!-- AWS::Region -->
<g id="node12" class="node"><title>AWS::Region</title>
<polygon fill="none" stroke="black" points="388,-180 284,-180 284,-144 388,-144 388,-180"/>
<text text-anchor="middle" x="336" y="-158.4" font-family="Times Roman,serif" font-size="14.00">AWS::Region</text>
</g>
<!-- AWS::Region&#45;&gt;Ec2Instance -->
<g id="edge10" class="edge"><title>AWS::Region&#45;&gt;Ec2Instance</title>
<path fill="none" stroke="black" d="M313.542,-143.831C302.58,-134.963 289.23,-124.164 277.374,-114.572"/>
<polygon fill="black" stroke="black" points="279.427,-111.731 269.451,-108.163 275.024,-117.173 279.427,-111.731"/>
</g>
</g>
</svg>
