<?xml version="1.0" encoding="UTF-8" standalone="no"?>
<!DOCTYPE svg PUBLIC "-//W3C//DTD SVG 1.1//EN"
 "http://www.w3.org/Graphics/SVG/1.1/DTD/svg11.dtd">
<!-- Generated by graphviz version 2.26.3 (20100126.1600)
 -->
<!-- Title: AWS CloudFormation Sample Template ec2_instance_with_instance_profile: Create an EC2 instance with an associated instance profile. **WARNING** This template creates one or more Amazon EC2 instances and an Amazon SQS queue. You will be billed for the AWS resources used if you create a stack from this template. Pages: 1 -->
<svg width="392pt" height="188pt"
 viewBox="0.00 0.00 392.00 188.00" xmlns="http://www.w3.org/2000/svg" xmlns:xlink="http://www.w3.org/1999/xlink">
<g id="graph1" class="graph" transform="scale(1 1) rotate(0) translate(4 184)">
<title>AWS CloudFormation Sample Template ec2_instance_with_instance_profile: Create an EC2 instance with an associated instance profile. **WARNING** This template creates one or more Amazon EC2 instances and an Amazon SQS queue. You will be billed for the AWS resources used if you create a stack from this template.</title>
<polygon fill="white" stroke="white" points="-4,5 -4,-184 389,-184 389,5 -4,5"/>
<!-- RootRole -->
<g id="node1" class="node"><title>RootRole</title>
<polygon fill="none" stroke="black" points="155,-180 79,-180 79,-144 155,-144 155,-180"/>
<text text-anchor="middle" x="117" y="-158.4" font-family="Times Roman,serif" font-size="14.00">RootRole</text>
</g>
<!-- RolePolicies -->
<g id="node2" class="node"><title>RolePolicies</title>
<polygon fill="none" stroke="black" points="94,-108 4.9738e-14,-108 0,-72 94,-72 94,-108"/>
<text text-anchor="middle" x="47" y="-86.4" font-family="Times Roman,serif" font-size="14.00">RolePolicies</text>
</g>
<!-- RootRole&#45;&gt;RolePolicies -->
<g id="edge2" class="edge"><title>RootRole&#45;&gt;RolePolicies</title>
<path fill="none" stroke="black" d="M99.336,-143.831C91.0268,-135.285 80.9736,-124.944 71.9082,-115.62"/>
<polygon fill="black" stroke="black" points="74.3821,-113.143 64.9018,-108.413 69.3631,-118.023 74.3821,-113.143"/>
</g>
<!-- RootInstanceProfile -->
<g id="node4" class="node"><title>RootInstanceProfile</title>
<polygon fill="none" stroke="black" points="262,-108 112,-108 112,-72 262,-72 262,-108"/>
<text text-anchor="middle" x="187" y="-86.4" font-family="Times Roman,serif" font-size="14.00">RootInstanceProfile</text>
</g>
<!-- RootRole&#45;&gt;RootInstanceProfile -->
<g id="edge8" class="edge"><title>RootRole&#45;&gt;RootInstanceProfile</title>
<path fill="none" stroke="black" d="M134.664,-143.831C142.973,-135.285 153.026,-124.944 162.092,-115.62"/>
<polygon fill="black" stroke="black" points="164.637,-118.023 169.098,-108.413 159.618,-113.143 164.637,-118.023"/>
</g>
<!-- myEC2Instance -->
<g id="node3" class="node"><title>myEC2Instance</title>
<polygon fill="none" stroke="black" points="321,-36 197,-36 197,-1.77636e-14 321,-3.55271e-15 321,-36"/>
<text text-anchor="middle" x="259" y="-14.4" font-family="Times Roman,serif" font-size="14.00">myEC2Instance</text>
</g>
<!-- RootInstanceProfile&#45;&gt;myEC2Instance -->
<g id="edge4" class="edge"><title>RootInstanceProfile&#45;&gt;myEC2Instance</title>
<path fill="none" stroke="black" d="M205.169,-71.8314C213.715,-63.2848 224.056,-52.9443 233.38,-43.6198"/>
<polygon fill="black" stroke="black" points="235.991,-45.9592 240.587,-36.4133 231.041,-41.0095 235.991,-45.9592"/>
</g>
<!-- AWS::Region -->
<g id="node7" class="node"><title>AWS::Region</title>
<polygon fill="none" stroke="black" points="384,-108 280,-108 280,-72 384,-72 384,-108"/>
<text text-anchor="middle" x="332" y="-86.4" font-family="Times Roman,serif" font-size="14.00">AWS::Region</text>
</g>
<!-- AWS::Region&#45;&gt;myEC2Instance -->
<g id="edge6" class="edge"><title>AWS::Region&#45;&gt;myEC2Instance</title>
<path fill="none" stroke="black" d="M313.579,-71.8314C304.847,-63.219 294.268,-52.7851 284.758,-43.4048"/>
<polygon fill="black" stroke="black" points="286.993,-40.6931 277.415,-36.1628 282.077,-45.6769 286.993,-40.6931"/>
</g>
</g>
</svg>
