<?xml version="1.0" encoding="UTF-8" standalone="no"?>
<!DOCTYPE svg PUBLIC "-//W3C//DTD SVG 1.1//EN"
 "http://www.w3.org/Graphics/SVG/1.1/DTD/svg11.dtd">
<!-- Generated by graphviz version 2.26.3 (20100126.1600)
 -->
<!-- Title: AWS CloudFormation Sample Template EC2ChooseAMI: Example to show how to chose an AMI based on the region and the architecture type. **WARNING** This template creates an Amazon EC2 instance. You will be billed for the AWS resources used if you create a stack from this template. Pages: 1 -->
<svg width="402pt" height="260pt"
 viewBox="0.00 0.00 402.00 260.00" xmlns="http://www.w3.org/2000/svg" xmlns:xlink="http://www.w3.org/1999/xlink">
<g id="graph1" class="graph" transform="scale(1 1) rotate(0) translate(4 256)">
<title>AWS CloudFormation Sample Template EC2ChooseAMI: Example to show how to chose an AMI based on the region and the architecture type. **WARNING** This template creates an Amazon EC2 instance. You will be billed for the AWS resources used if you create a stack from this template.</title>
<polygon fill="white" stroke="white" points="-4,5 -4,-256 399,-256 399,5 -4,5"/>
<!-- Ec2Instance -->
<g id="node1" class="node"><title>Ec2Instance</title>
<polygon fill="none" stroke="black" points="303,-108 203,-108 203,-72 303,-72 303,-108"/>
<text text-anchor="middle" x="253" y="-86.4" font-family="Times Roman,serif" font-size="14.00">Ec2Instance</text>
</g>
<!-- Instance -->
<g id="node8" class="node"><title>Instance</title>
<polygon fill="lightgrey" stroke="lightgrey" points="278,-36 228,-36 216,-24 216,-12 228,-1.54591e-14 278,-5.85718e-15 290,-12 290,-24 278,-36"/>
<path fill="lightgrey" stroke="lightgrey" d="M228,-36C222,-36 216,-30 216,-24"/>
<path fill="lightgrey" stroke="lightgrey" d="M216,-12C216,-6 222,-1.66113e-14 228,-1.54591e-14"/>
<path fill="lightgrey" stroke="lightgrey" d="M278,-5.85718e-15C284,-4.70495e-15 290,-6 290,-12"/>
<path fill="lightgrey" stroke="lightgrey" d="M290,-24C290,-30 284,-36 278,-36"/>
<polyline fill="none" stroke="black" points="278,-36 228,-36 "/>
<path fill="none" stroke="black" d="M228,-36C222,-36 216,-30 216,-24"/>
<polyline fill="none" stroke="black" points="216,-24 216,-12 "/>
<path fill="none" stroke="black" d="M216,-12C216,-6 222,-1.66113e-14 228,-1.54591e-14"/>
<polyline fill="none" stroke="black" points="228,-1.54591e-14 278,-5.85718e-15 "/>
<path fill="none" stroke="black" d="M278,-5.85718e-15C284,-4.70495e-15 290,-6 290,-12"/>
<polyline fill="none" stroke="black" points="290,-12 290,-24 "/>
<path fill="none" stroke="black" d="M290,-24C290,-30 284,-36 278,-36"/>
<text text-anchor="middle" x="253" y="-14.4" font-family="Times Roman,serif" font-size="14.00">Instance</text>
</g>
<!-- Ec2Instance&#45;&gt;Instance -->
<g id="edge16" class="edge"><title>Ec2Instance&#45;&gt;Instance</title>
<path fill="none" stroke="black" d="M253,-71.8314C253,-64.131 253,-54.9743 253,-46.4166"/>
<polygon fill="black" stroke="black" points="256.5,-46.4132 253,-36.4133 249.5,-46.4133 256.5,-46.4132"/>
</g>
<!-- Ec2SecurityGroup -->
<g id="node2" class="node"><title>Ec2SecurityGroup</title>
<polygon fill="none" stroke="black" points="140,-180 7.10543e-14,-180 0,-144 140,-144 140,-180"/>
<text text-anchor="middle" x="70" y="-158.4" font-family="Times Roman,serif" font-size="14.00">Ec2SecurityGroup</text>
</g>
<!-- Ec2SecurityGroup&#45;&gt;Ec2Instance -->
<g id="edge6" class="edge"><title>Ec2SecurityGroup&#45;&gt;Ec2Instance</title>
<path fill="none" stroke="black" d="M116.179,-143.831C140.98,-134.073 171.725,-121.977 197.784,-111.724"/>
<polygon fill="black" stroke="black" points="199.129,-114.956 207.153,-108.038 196.566,-108.442 199.129,-114.956"/>
</g>
<!-- SSHLocation -->
<g id="node4" class="node"><title>SSHLocation</title>
<polygon fill="lightgrey" stroke="lightgrey" points="104,-252 24,-252 12,-240 12,-228 24,-216 104,-216 116,-228 116,-240 104,-252"/>
<path fill="lightgrey" stroke="lightgrey" d="M24,-252C18,-252 12,-246 12,-240"/>
<path fill="lightgrey" stroke="lightgrey" d="M12,-228C12,-222 18,-216 24,-216"/>
<path fill="lightgrey" stroke="lightgrey" d="M104,-216C110,-216 116,-222 116,-228"/>
<path fill="lightgrey" stroke="lightgrey" d="M116,-240C116,-246 110,-252 104,-252"/>
<polyline fill="none" stroke="black" points="104,-252 24,-252 "/>
<path fill="none" stroke="black" d="M24,-252C18,-252 12,-246 12,-240"/>
<polyline fill="none" stroke="black" points="12,-240 12,-228 "/>
<path fill="none" stroke="black" d="M12,-228C12,-222 18,-216 24,-216"/>
<polyline fill="none" stroke="black" points="24,-216 104,-216 "/>
<path fill="none" stroke="black" d="M104,-216C110,-216 116,-222 116,-228"/>
<polyline fill="none" stroke="black" points="116,-228 116,-240 "/>
<path fill="none" stroke="black" d="M116,-240C116,-246 110,-252 104,-252"/>
<text text-anchor="middle" x="64" y="-230.4" font-family="Times Roman,serif" font-size="14.00">SSHLocation</text>
</g>
<!-- SSHLocation&#45;&gt;Ec2SecurityGroup -->
<g id="edge14" class="edge"><title>SSHLocation&#45;&gt;Ec2SecurityGroup</title>
<path fill="none" stroke="black" d="M65.5141,-215.831C66.1558,-208.131 66.9188,-198.974 67.6319,-190.417"/>
<polygon fill="black" stroke="black" points="71.1229,-190.669 68.4656,-180.413 64.1471,-190.088 71.1229,-190.669"/>
</g>
<!-- KeyName -->
<g id="node5" class="node"><title>KeyName</title>
<polygon fill="lightgrey" stroke="lightgrey" points="202,-252 146,-252 134,-240 134,-228 146,-216 202,-216 214,-228 214,-240 202,-252"/>
<path fill="lightgrey" stroke="lightgrey" d="M146,-252C140,-252 134,-246 134,-240"/>
<path fill="lightgrey" stroke="lightgrey" d="M134,-228C134,-222 140,-216 146,-216"/>
<path fill="lightgrey" stroke="lightgrey" d="M202,-216C208,-216 214,-222 214,-228"/>
<path fill="lightgrey" stroke="lightgrey" d="M214,-240C214,-246 208,-252 202,-252"/>
<polyline fill="none" stroke="black" points="202,-252 146,-252 "/>
<path fill="none" stroke="black" d="M146,-252C140,-252 134,-246 134,-240"/>
<polyline fill="none" stroke="black" points="134,-240 134,-228 "/>
<path fill="none" stroke="black" d="M134,-228C134,-222 140,-216 146,-216"/>
<polyline fill="none" stroke="black" points="146,-216 202,-216 "/>
<path fill="none" stroke="black" d="M202,-216C208,-216 214,-222 214,-228"/>
<polyline fill="none" stroke="black" points="214,-228 214,-240 "/>
<path fill="none" stroke="black" d="M214,-240C214,-246 208,-252 202,-252"/>
<text text-anchor="middle" x="174" y="-230.4" font-family="Times Roman,serif" font-size="14.00">KeyName</text>
</g>
<!-- KeyName&#45;&gt;Ec2Instance -->
<g id="edge4" class="edge"><title>KeyName&#45;&gt;Ec2Instance</title>
<path fill="none" stroke="black" d="M184.005,-215.762C197.658,-190.876 222.233,-146.082 238.069,-117.216"/>
<polygon fill="black" stroke="black" points="241.335,-118.54 243.076,-108.09 235.197,-115.173 241.335,-118.54"/>
</g>
<!-- InstanceType -->
<g id="node6" class="node"><title>InstanceType</title>
<polygon fill="lightgrey" stroke="lightgrey" points="326,-252 244,-252 232,-240 232,-228 244,-216 326,-216 338,-228 338,-240 326,-252"/>
<path fill="lightgrey" stroke="lightgrey" d="M244,-252C238,-252 232,-246 232,-240"/>
<path fill="lightgrey" stroke="lightgrey" d="M232,-228C232,-222 238,-216 244,-216"/>
<path fill="lightgrey" stroke="lightgrey" d="M326,-216C332,-216 338,-222 338,-228"/>
<path fill="lightgrey" stroke="lightgrey" d="M338,-240C338,-246 332,-252 326,-252"/>
<polyline fill="none" stroke="black" points="326,-252 244,-252 "/>
<path fill="none" stroke="black" d="M244,-252C238,-252 232,-246 232,-240"/>
<polyline fill="none" stroke="black" points="232,-240 232,-228 "/>
<path fill="none" stroke="black" d="M232,-228C232,-222 238,-216 244,-216"/>
<polyline fill="none" stroke="black" points="244,-216 326,-216 "/>
<path fill="none" stroke="black" d="M326,-216C332,-216 338,-222 338,-228"/>
<polyline fill="none" stroke="black" points="338,-228 338,-240 "/>
<path fill="none" stroke="black" d="M338,-240C338,-246 332,-252 326,-252"/>
<text text-anchor="middle" x="285" y="-230.4" font-family="Times Roman,serif" font-size="14.00">InstanceType</text>
</g>
<!-- InstanceType&#45;&gt;Ec2Instance -->
<g id="edge8" class="edge"><title>InstanceType&#45;&gt;Ec2Instance</title>
<path fill="none" stroke="black" d="M276.274,-215.762C268.356,-191.201 258.314,-147.247 253.803,-118.354"/>
<polygon fill="black" stroke="black" points="257.219,-117.505 252.362,-108.09 250.287,-118.479 257.219,-117.505"/>
</g>
<!-- InstanceType&#45;&gt;Ec2Instance -->
<g id="edge12" class="edge"><title>InstanceType&#45;&gt;Ec2Instance</title>
<path fill="none" stroke="black" d="M285.62,-215.762C282.609,-191.093 273.046,-146.86 264.688,-117.973"/>
<polygon fill="black" stroke="black" points="267.94,-116.636 261.678,-108.09 261.244,-118.676 267.94,-116.636"/>
</g>
<!-- AWS::Region -->
<g id="node12" class="node"><title>AWS::Region</title>
<polygon fill="none" stroke="black" points="394,-180 290,-180 290,-144 394,-144 394,-180"/>
<text text-anchor="middle" x="342" y="-158.4" font-family="Times Roman,serif" font-size="14.00">AWS::Region</text>
</g>
<!-- AWS::Region&#45;&gt;Ec2Instance -->
<g id="edge10" class="edge"><title>AWS::Region&#45;&gt;Ec2Instance</title>
<path fill="none" stroke="black" d="M319.542,-143.831C308.58,-134.963 295.23,-124.164 283.374,-114.572"/>
<polygon fill="black" stroke="black" points="285.427,-111.731 275.451,-108.163 281.024,-117.173 285.427,-111.731"/>
</g>
</g>
</svg>
