<?xml version="1.0" encoding="UTF-8" standalone="no"?>
<!DOCTYPE svg PUBLIC "-//W3C//DTD SVG 1.1//EN"
 "http://www.w3.org/Graphics/SVG/1.1/DTD/svg11.dtd">
<!-- Generated by graphviz version 2.26.3 (20100126.1600)
 -->
<!-- Title: AWS CloudFormation Sample Template EC2InstanceSample: Create an Amazon EC2 instance running the Amazon Linux AMI. The AMI is chosen based on the region in which the stack is run. This example uses the default security group, so to SSH to the new instance using the KeyPair you enter, you will need to have port 22 open in your default security group. **WARNING** This template an Amazon EC2 instances. You will be billed for the AWS resources used if you create a stack from this template. Pages: 1 -->
<svg width="574pt" height="260pt"
 viewBox="0.00 0.00 574.00 260.00" xmlns="http://www.w3.org/2000/svg" xmlns:xlink="http://www.w3.org/1999/xlink">
<g id="graph1" class="graph" transform="scale(1 1) rotate(0) translate(4 256)">
<title>AWS CloudFormation Sample Template EC2InstanceSample: Create an Amazon EC2 instance running the Amazon Linux AMI. The AMI is chosen based on the region in which the stack is run. This example uses the default security group, so to SSH to the new instance using the KeyPair you enter, you will need to have port 22 open in your default security group. **WARNING** This template an Amazon EC2 instances. You will be billed for the AWS resources used if you create a stack from this template.</title>
<polygon fill="white" stroke="white" points="-4,5 -4,-256 571,-256 571,5 -4,5"/>
<!-- Ec2Instance -->
<g id="node1" class="node"><title>Ec2Instance</title>
<polygon fill="none" stroke="black" points="365,-108 265,-108 265,-72 365,-72 365,-108"/>
<text text-anchor="middle" x="315" y="-86.4" font-family="Times Roman,serif" font-size="14.00">Ec2Instance</text>
</g>
<!-- PrivateDNS -->
<g id="node5" class="node"><title>PrivateDNS</title>
<polygon fill="lightgrey" stroke="lightgrey" points="84,-36 12,-36 1.89478e-14,-24 9.4739e-15,-12 12,-1.59872e-14 84,-5.32907e-15 96,-12 96,-24 84,-36"/>
<path fill="lightgrey" stroke="lightgrey" d="M12,-36C6,-36 2.36848e-14,-30 1.89478e-14,-24"/>
<path fill="lightgrey" stroke="lightgrey" d="M9.4739e-15,-12C4.73695e-15,-6 6,-1.68754e-14 12,-1.59872e-14"/>
<path fill="lightgrey" stroke="lightgrey" d="M84,-5.32907e-15C90,-4.44089e-15 96,-6 96,-12"/>
<path fill="lightgrey" stroke="lightgrey" d="M96,-24C96,-30 90,-36 84,-36"/>
<polyline fill="none" stroke="black" points="84,-36 12,-36 "/>
<path fill="none" stroke="black" d="M12,-36C6,-36 2.36848e-14,-30 1.89478e-14,-24"/>
<polyline fill="none" stroke="black" points="1.89478e-14,-24 9.4739e-15,-12 "/>
<path fill="none" stroke="black" d="M9.4739e-15,-12C4.73695e-15,-6 6,-1.68754e-14 12,-1.59872e-14"/>
<polyline fill="none" stroke="black" points="12,-1.59872e-14 84,-5.32907e-15 "/>
<path fill="none" stroke="black" d="M84,-5.32907e-15C90,-4.44089e-15 96,-6 96,-12"/>
<polyline fill="none" stroke="black" points="96,-12 96,-24 "/>
<path fill="none" stroke="black" d="M96,-24C96,-30 90,-36 84,-36"/>
<text text-anchor="middle" x="48" y="-14.4" font-family="Times Roman,serif" font-size="14.00">PrivateDNS</text>
</g>
<!-- Ec2Instance&#45;&gt;PrivateDNS -->
<g id="edge8" class="edge"><title>Ec2Instance&#45;&gt;PrivateDNS</title>
<path fill="none" stroke="black" d="M264.726,-77.8847C224.304,-67.9601 165.851,-53.1975 106.13,-36.2552"/>
<polygon fill="black" stroke="black" points="106.723,-32.785 96.1466,-33.4059 104.802,-39.5162 106.723,-32.785"/>
</g>
<!-- InstanceId -->
<g id="node6" class="node"><title>InstanceId</title>
<polygon fill="lightgrey" stroke="lightgrey" points="190,-36 126,-36 114,-24 114,-12 126,-1.58257e-14 190,-5.49056e-15 202,-12 202,-24 190,-36"/>
<path fill="lightgrey" stroke="lightgrey" d="M126,-36C120,-36 114,-30 114,-24"/>
<path fill="lightgrey" stroke="lightgrey" d="M114,-12C114,-6 120,-1.67946e-14 126,-1.58257e-14"/>
<path fill="lightgrey" stroke="lightgrey" d="M190,-5.49056e-15C196,-4.52164e-15 202,-6 202,-12"/>
<path fill="lightgrey" stroke="lightgrey" d="M202,-24C202,-30 196,-36 190,-36"/>
<polyline fill="none" stroke="black" points="190,-36 126,-36 "/>
<path fill="none" stroke="black" d="M126,-36C120,-36 114,-30 114,-24"/>
<polyline fill="none" stroke="black" points="114,-24 114,-12 "/>
<path fill="none" stroke="black" d="M114,-12C114,-6 120,-1.67946e-14 126,-1.58257e-14"/>
<polyline fill="none" stroke="black" points="126,-1.58257e-14 190,-5.49056e-15 "/>
<path fill="none" stroke="black" d="M190,-5.49056e-15C196,-4.52164e-15 202,-6 202,-12"/>
<polyline fill="none" stroke="black" points="202,-12 202,-24 "/>
<path fill="none" stroke="black" d="M202,-24C202,-30 196,-36 190,-36"/>
<text text-anchor="middle" x="158" y="-14.4" font-family="Times Roman,serif" font-size="14.00">InstanceId</text>
</g>
<!-- Ec2Instance&#45;&gt;InstanceId -->
<g id="edge10" class="edge"><title>Ec2Instance&#45;&gt;InstanceId</title>
<path fill="none" stroke="black" d="M275.382,-71.8314C254.478,-62.2446 228.652,-50.4008 206.551,-40.2655"/>
<polygon fill="black" stroke="black" points="207.882,-37.0252 197.333,-36.038 204.964,-43.388 207.882,-37.0252"/>
</g>
<!-- PublicDNS -->
<g id="node7" class="node"><title>PublicDNS</title>
<polygon fill="lightgrey" stroke="lightgrey" points="296,-36 232,-36 220,-24 220,-12 232,-1.58257e-14 296,-5.49056e-15 308,-12 308,-24 296,-36"/>
<path fill="lightgrey" stroke="lightgrey" d="M232,-36C226,-36 220,-30 220,-24"/>
<path fill="lightgrey" stroke="lightgrey" d="M220,-12C220,-6 226,-1.67946e-14 232,-1.58257e-14"/>
<path fill="lightgrey" stroke="lightgrey" d="M296,-5.49056e-15C302,-4.52164e-15 308,-6 308,-12"/>
<path fill="lightgrey" stroke="lightgrey" d="M308,-24C308,-30 302,-36 296,-36"/>
<polyline fill="none" stroke="black" points="296,-36 232,-36 "/>
<path fill="none" stroke="black" d="M232,-36C226,-36 220,-30 220,-24"/>
<polyline fill="none" stroke="black" points="220,-24 220,-12 "/>
<path fill="none" stroke="black" d="M220,-12C220,-6 226,-1.67946e-14 232,-1.58257e-14"/>
<polyline fill="none" stroke="black" points="232,-1.58257e-14 296,-5.49056e-15 "/>
<path fill="none" stroke="black" d="M296,-5.49056e-15C302,-4.52164e-15 308,-6 308,-12"/>
<polyline fill="none" stroke="black" points="308,-12 308,-24 "/>
<path fill="none" stroke="black" d="M308,-24C308,-30 302,-36 296,-36"/>
<text text-anchor="middle" x="264" y="-14.4" font-family="Times Roman,serif" font-size="14.00">PublicDNS</text>
</g>
<!-- Ec2Instance&#45;&gt;PublicDNS -->
<g id="edge12" class="edge"><title>Ec2Instance&#45;&gt;PublicDNS</title>
<path fill="none" stroke="black" d="M302.131,-71.8314C296.316,-63.6232 289.33,-53.7606 282.935,-44.7323"/>
<polygon fill="black" stroke="black" points="285.679,-42.5505 277.043,-36.4133 279.967,-46.5966 285.679,-42.5505"/>
</g>
<!-- PrivateIP -->
<g id="node8" class="node"><title>PrivateIP</title>
<polygon fill="lightgrey" stroke="lightgrey" points="394,-36 338,-36 326,-24 326,-12 338,-1.56319e-14 394,-5.68434e-15 406,-12 406,-24 394,-36"/>
<path fill="lightgrey" stroke="lightgrey" d="M338,-36C332,-36 326,-30 326,-24"/>
<path fill="lightgrey" stroke="lightgrey" d="M326,-12C326,-6 332,-1.66978e-14 338,-1.56319e-14"/>
<path fill="lightgrey" stroke="lightgrey" d="M394,-5.68434e-15C400,-4.61853e-15 406,-6 406,-12"/>
<path fill="lightgrey" stroke="lightgrey" d="M406,-24C406,-30 400,-36 394,-36"/>
<polyline fill="none" stroke="black" points="394,-36 338,-36 "/>
<path fill="none" stroke="black" d="M338,-36C332,-36 326,-30 326,-24"/>
<polyline fill="none" stroke="black" points="326,-24 326,-12 "/>
<path fill="none" stroke="black" d="M326,-12C326,-6 332,-1.66978e-14 338,-1.56319e-14"/>
<polyline fill="none" stroke="black" points="338,-1.56319e-14 394,-5.68434e-15 "/>
<path fill="none" stroke="black" d="M394,-5.68434e-15C400,-4.61853e-15 406,-6 406,-12"/>
<polyline fill="none" stroke="black" points="406,-12 406,-24 "/>
<path fill="none" stroke="black" d="M406,-24C406,-30 400,-36 394,-36"/>
<text text-anchor="middle" x="366" y="-14.4" font-family="Times Roman,serif" font-size="14.00">PrivateIP</text>
</g>
<!-- Ec2Instance&#45;&gt;PrivateIP -->
<g id="edge14" class="edge"><title>Ec2Instance&#45;&gt;PrivateIP</title>
<path fill="none" stroke="black" d="M327.869,-71.8314C333.684,-63.6232 340.67,-53.7606 347.065,-44.7323"/>
<polygon fill="black" stroke="black" points="350.033,-46.5966 352.957,-36.4133 344.321,-42.5505 350.033,-46.5966"/>
</g>
<!-- PublicIP -->
<g id="node9" class="node"><title>PublicIP</title>
<polygon fill="lightgrey" stroke="lightgrey" points="482,-36 436,-36 424,-24 424,-12 436,-1.53274e-14 482,-5.98886e-15 494,-12 494,-24 482,-36"/>
<path fill="lightgrey" stroke="lightgrey" d="M436,-36C430,-36 424,-30 424,-24"/>
<path fill="lightgrey" stroke="lightgrey" d="M424,-12C424,-6 430,-1.65455e-14 436,-1.53274e-14"/>
<path fill="lightgrey" stroke="lightgrey" d="M482,-5.98886e-15C488,-4.77079e-15 494,-6 494,-12"/>
<path fill="lightgrey" stroke="lightgrey" d="M494,-24C494,-30 488,-36 482,-36"/>
<polyline fill="none" stroke="black" points="482,-36 436,-36 "/>
<path fill="none" stroke="black" d="M436,-36C430,-36 424,-30 424,-24"/>
<polyline fill="none" stroke="black" points="424,-24 424,-12 "/>
<path fill="none" stroke="black" d="M424,-12C424,-6 430,-1.65455e-14 436,-1.53274e-14"/>
<polyline fill="none" stroke="black" points="436,-1.53274e-14 482,-5.98886e-15 "/>
<path fill="none" stroke="black" d="M482,-5.98886e-15C488,-4.77079e-15 494,-6 494,-12"/>
<polyline fill="none" stroke="black" points="494,-12 494,-24 "/>
<path fill="none" stroke="black" d="M494,-24C494,-30 488,-36 482,-36"/>
<text text-anchor="middle" x="459" y="-14.4" font-family="Times Roman,serif" font-size="14.00">PublicIP</text>
</g>
<!-- Ec2Instance&#45;&gt;PublicIP -->
<g id="edge16" class="edge"><title>Ec2Instance&#45;&gt;PublicIP</title>
<path fill="none" stroke="black" d="M351.337,-71.8314C370.556,-62.2218 394.311,-50.3445 414.613,-40.1933"/>
<polygon fill="black" stroke="black" points="416.291,-43.2677 423.67,-35.665 413.16,-37.0067 416.291,-43.2677"/>
</g>
<!-- AZ -->
<g id="node10" class="node"><title>AZ</title>
<polygon fill="lightgrey" stroke="lightgrey" points="554,-36 524,-36 512,-24 512,-12 524,-1.46056e-14 554,-6.71068e-15 566,-12 566,-24 554,-36"/>
<path fill="lightgrey" stroke="lightgrey" d="M524,-36C518,-36 512,-30 512,-24"/>
<path fill="lightgrey" stroke="lightgrey" d="M512,-12C512,-6 518,-1.61846e-14 524,-1.46056e-14"/>
<path fill="lightgrey" stroke="lightgrey" d="M554,-6.71068e-15C560,-5.1317e-15 566,-6 566,-12"/>
<path fill="lightgrey" stroke="lightgrey" d="M566,-24C566,-30 560,-36 554,-36"/>
<polyline fill="none" stroke="black" points="554,-36 524,-36 "/>
<path fill="none" stroke="black" d="M524,-36C518,-36 512,-30 512,-24"/>
<polyline fill="none" stroke="black" points="512,-24 512,-12 "/>
<path fill="none" stroke="black" d="M512,-12C512,-6 518,-1.61846e-14 524,-1.46056e-14"/>
<polyline fill="none" stroke="black" points="524,-1.46056e-14 554,-6.71068e-15 "/>
<path fill="none" stroke="black" d="M554,-6.71068e-15C560,-5.1317e-15 566,-6 566,-12"/>
<polyline fill="none" stroke="black" points="566,-12 566,-24 "/>
<path fill="none" stroke="black" d="M566,-24C566,-30 560,-36 554,-36"/>
<text text-anchor="middle" x="539" y="-14.4" font-family="Times Roman,serif" font-size="14.00">AZ</text>
</g>
<!-- Ec2Instance&#45;&gt;AZ -->
<g id="edge18" class="edge"><title>Ec2Instance&#45;&gt;AZ</title>
<path fill="none" stroke="black" d="M365.305,-78.234C401.403,-69.1885 451.188,-55.4836 502.185,-35.9964"/>
<polygon fill="black" stroke="black" points="503.666,-39.1759 511.719,-32.2903 501.13,-32.6516 503.666,-39.1759"/>
</g>
<!-- KeyName -->
<g id="node3" class="node"><title>KeyName</title>
<polygon fill="lightgrey" stroke="lightgrey" points="303,-252 247,-252 235,-240 235,-228 247,-216 303,-216 315,-228 315,-240 303,-252"/>
<path fill="lightgrey" stroke="lightgrey" d="M247,-252C241,-252 235,-246 235,-240"/>
<path fill="lightgrey" stroke="lightgrey" d="M235,-228C235,-222 241,-216 247,-216"/>
<path fill="lightgrey" stroke="lightgrey" d="M303,-216C309,-216 315,-222 315,-228"/>
<path fill="lightgrey" stroke="lightgrey" d="M315,-240C315,-246 309,-252 303,-252"/>
<polyline fill="none" stroke="black" points="303,-252 247,-252 "/>
<path fill="none" stroke="black" d="M247,-252C241,-252 235,-246 235,-240"/>
<polyline fill="none" stroke="black" points="235,-240 235,-228 "/>
<path fill="none" stroke="black" d="M235,-228C235,-222 241,-216 247,-216"/>
<polyline fill="none" stroke="black" points="247,-216 303,-216 "/>
<path fill="none" stroke="black" d="M303,-216C309,-216 315,-222 315,-228"/>
<polyline fill="none" stroke="black" points="315,-228 315,-240 "/>
<path fill="none" stroke="black" d="M315,-240C315,-246 309,-252 303,-252"/>
<text text-anchor="middle" x="275" y="-230.4" font-family="Times Roman,serif" font-size="14.00">KeyName</text>
</g>
<!-- KeyName&#45;&gt;Ec2Instance -->
<g id="edge4" class="edge"><title>KeyName&#45;&gt;Ec2Instance</title>
<path fill="none" stroke="black" d="M277.935,-215.854C281.108,-197.522 286.707,-168.488 294,-144 296.6,-135.269 299.989,-125.958 303.283,-117.569"/>
<polygon fill="black" stroke="black" points="306.553,-118.819 307.053,-108.236 300.062,-116.197 306.553,-118.819"/>
</g>
<!-- AWS::Region -->
<g id="node12" class="node"><title>AWS::Region</title>
<polygon fill="none" stroke="black" points="407,-180 303,-180 303,-144 407,-144 407,-180"/>
<text text-anchor="middle" x="355" y="-158.4" font-family="Times Roman,serif" font-size="14.00">AWS::Region</text>
</g>
<!-- AWS::Region&#45;&gt;Ec2Instance -->
<g id="edge6" class="edge"><title>AWS::Region&#45;&gt;Ec2Instance</title>
<path fill="none" stroke="black" d="M344.906,-143.831C340.44,-135.792 335.093,-126.167 330.162,-117.292"/>
<polygon fill="black" stroke="black" points="333.146,-115.455 325.23,-108.413 327.027,-118.855 333.146,-115.455"/>
</g>
</g>
</svg>
