<?xml version="1.0" encoding="UTF-8" standalone="no"?>
<!DOCTYPE svg PUBLIC "-//W3C//DTD SVG 1.1//EN"
 "http://www.w3.org/Graphics/SVG/1.1/DTD/svg11.dtd">
<!-- Generated by graphviz version 2.26.3 (20100126.1600)
 -->
<!-- Title: AWS CloudFormation Sample Template EC2WithEBSSample: Create an Amazon EC2 instance running the Amazon Linux AMI with a new EBS volume attached. The instance and the volume are pinned to the same availability zone. We recommend that you do untargeted launches rather than pinning instances this way.The AMI is chosen based on the region in which the stack is run. **WARNING** This template creates an Amazon EC2 instance and an EBS Volume. You will be billed for the AWS resources used if you create a stack from this template. Pages: 1 -->
<svg width="428pt" height="332pt"
 viewBox="0.00 0.00 428.00 332.00" xmlns="http://www.w3.org/2000/svg" xmlns:xlink="http://www.w3.org/1999/xlink">
<g id="graph1" class="graph" transform="scale(1 1) rotate(0) translate(4 328)">
<title>AWS CloudFormation Sample Template EC2WithEBSSample: Create an Amazon EC2 instance running the Amazon Linux AMI with a new EBS volume attached. The instance and the volume are pinned to the same availability zone. We recommend that you do untargeted launches rather than pinning instances this way.The AMI is chosen based on the region in which the stack is run. **WARNING** This template creates an Amazon EC2 instance and an EBS Volume. You will be billed for the AWS resources used if you create a stack from this template.</title>
<polygon fill="white" stroke="white" points="-4,5 -4,-328 425,-328 425,5 -4,5"/>
<!-- InstanceSecurityGroup -->
<g id="node1" class="node"><title>InstanceSecurityGroup</title>
<polygon fill="none" stroke="black" points="420,-180 246,-180 246,-144 420,-144 420,-180"/>
<text text-anchor="middle" x="333" y="-158.4" font-family="Times Roman,serif" font-size="14.00">InstanceSecurityGroup</text>
</g>
<!-- Ec2Instance -->
<g id="node2" class="node"><title>Ec2Instance</title>
<polygon fill="none" stroke="black" points="191,-108 91,-108 91,-72 191,-72 191,-108"/>
<text text-anchor="middle" x="141" y="-86.4" font-family="Times Roman,serif" font-size="14.00">Ec2Instance</text>
</g>
<!-- InstanceSecurityGroup&#45;&gt;Ec2Instance -->
<g id="edge10" class="edge"><title>InstanceSecurityGroup&#45;&gt;Ec2Instance</title>
<path fill="none" stroke="black" d="M284.55,-143.831C258.415,-134.031 225.989,-121.871 198.572,-111.589"/>
<polygon fill="black" stroke="black" points="199.694,-108.272 189.101,-108.038 197.236,-114.826 199.694,-108.272"/>
</g>
<!-- InstanceId -->
<g id="node8" class="node"><title>InstanceId</title>
<polygon fill="lightgrey" stroke="lightgrey" points="76,-36 12,-36 2.84217e-14,-24 1.42109e-14,-12 12,-1.58257e-14 76,-5.49056e-15 88,-12 88,-24 76,-36"/>
<path fill="lightgrey" stroke="lightgrey" d="M12,-36C6,-36 3.55271e-14,-30 2.84217e-14,-24"/>
<path fill="lightgrey" stroke="lightgrey" d="M1.42109e-14,-12C7.10543e-15,-6 6,-1.67946e-14 12,-1.58257e-14"/>
<path fill="lightgrey" stroke="lightgrey" d="M76,-5.49056e-15C82,-4.52164e-15 88,-6 88,-12"/>
<path fill="lightgrey" stroke="lightgrey" d="M88,-24C88,-30 82,-36 76,-36"/>
<polyline fill="none" stroke="black" points="76,-36 12,-36 "/>
<path fill="none" stroke="black" d="M12,-36C6,-36 3.55271e-14,-30 2.84217e-14,-24"/>
<polyline fill="none" stroke="black" points="2.84217e-14,-24 1.42109e-14,-12 "/>
<path fill="none" stroke="black" d="M1.42109e-14,-12C7.10543e-15,-6 6,-1.67946e-14 12,-1.58257e-14"/>
<polyline fill="none" stroke="black" points="12,-1.58257e-14 76,-5.49056e-15 "/>
<path fill="none" stroke="black" d="M76,-5.49056e-15C82,-4.52164e-15 88,-6 88,-12"/>
<polyline fill="none" stroke="black" points="88,-12 88,-24 "/>
<path fill="none" stroke="black" d="M88,-24C88,-30 82,-36 76,-36"/>
<text text-anchor="middle" x="44" y="-14.4" font-family="Times Roman,serif" font-size="14.00">InstanceId</text>
</g>
<!-- Ec2Instance&#45;&gt;InstanceId -->
<g id="edge18" class="edge"><title>Ec2Instance&#45;&gt;InstanceId</title>
<path fill="none" stroke="black" d="M116.523,-71.8314C104.461,-62.8779 89.746,-51.9558 76.7314,-42.2955"/>
<polygon fill="black" stroke="black" points="78.5852,-39.3127 68.4694,-36.1628 74.413,-44.9335 78.5852,-39.3127"/>
</g>
<!-- PublicIP -->
<g id="node9" class="node"><title>PublicIP</title>
<polygon fill="lightgrey" stroke="lightgrey" points="164,-36 118,-36 106,-24 106,-12 118,-1.53274e-14 164,-5.98886e-15 176,-12 176,-24 164,-36"/>
<path fill="lightgrey" stroke="lightgrey" d="M118,-36C112,-36 106,-30 106,-24"/>
<path fill="lightgrey" stroke="lightgrey" d="M106,-12C106,-6 112,-1.65455e-14 118,-1.53274e-14"/>
<path fill="lightgrey" stroke="lightgrey" d="M164,-5.98886e-15C170,-4.77079e-15 176,-6 176,-12"/>
<path fill="lightgrey" stroke="lightgrey" d="M176,-24C176,-30 170,-36 164,-36"/>
<polyline fill="none" stroke="black" points="164,-36 118,-36 "/>
<path fill="none" stroke="black" d="M118,-36C112,-36 106,-30 106,-24"/>
<polyline fill="none" stroke="black" points="106,-24 106,-12 "/>
<path fill="none" stroke="black" d="M106,-12C106,-6 112,-1.65455e-14 118,-1.53274e-14"/>
<polyline fill="none" stroke="black" points="118,-1.53274e-14 164,-5.98886e-15 "/>
<path fill="none" stroke="black" d="M164,-5.98886e-15C170,-4.77079e-15 176,-6 176,-12"/>
<polyline fill="none" stroke="black" points="176,-12 176,-24 "/>
<path fill="none" stroke="black" d="M176,-24C176,-30 170,-36 164,-36"/>
<text text-anchor="middle" x="141" y="-14.4" font-family="Times Roman,serif" font-size="14.00">PublicIP</text>
</g>
<!-- Ec2Instance&#45;&gt;PublicIP -->
<g id="edge20" class="edge"><title>Ec2Instance&#45;&gt;PublicIP</title>
<path fill="none" stroke="black" d="M141,-71.8314C141,-64.131 141,-54.9743 141,-46.4166"/>
<polygon fill="black" stroke="black" points="144.5,-46.4132 141,-36.4133 137.5,-46.4133 144.5,-46.4132"/>
</g>
<!-- PublicDNS -->
<g id="node10" class="node"><title>PublicDNS</title>
<polygon fill="lightgrey" stroke="lightgrey" points="270,-36 206,-36 194,-24 194,-12 206,-1.58257e-14 270,-5.49056e-15 282,-12 282,-24 270,-36"/>
<path fill="lightgrey" stroke="lightgrey" d="M206,-36C200,-36 194,-30 194,-24"/>
<path fill="lightgrey" stroke="lightgrey" d="M194,-12C194,-6 200,-1.67946e-14 206,-1.58257e-14"/>
<path fill="lightgrey" stroke="lightgrey" d="M270,-5.49056e-15C276,-4.52164e-15 282,-6 282,-12"/>
<path fill="lightgrey" stroke="lightgrey" d="M282,-24C282,-30 276,-36 270,-36"/>
<polyline fill="none" stroke="black" points="270,-36 206,-36 "/>
<path fill="none" stroke="black" d="M206,-36C200,-36 194,-30 194,-24"/>
<polyline fill="none" stroke="black" points="194,-24 194,-12 "/>
<path fill="none" stroke="black" d="M194,-12C194,-6 200,-1.67946e-14 206,-1.58257e-14"/>
<polyline fill="none" stroke="black" points="206,-1.58257e-14 270,-5.49056e-15 "/>
<path fill="none" stroke="black" d="M270,-5.49056e-15C276,-4.52164e-15 282,-6 282,-12"/>
<polyline fill="none" stroke="black" points="282,-12 282,-24 "/>
<path fill="none" stroke="black" d="M282,-24C282,-30 276,-36 270,-36"/>
<text text-anchor="middle" x="238" y="-14.4" font-family="Times Roman,serif" font-size="14.00">PublicDNS</text>
</g>
<!-- Ec2Instance&#45;&gt;PublicDNS -->
<g id="edge22" class="edge"><title>Ec2Instance&#45;&gt;PublicDNS</title>
<path fill="none" stroke="black" d="M165.477,-71.8314C177.539,-62.8779 192.254,-51.9558 205.269,-42.2955"/>
<polygon fill="black" stroke="black" points="207.587,-44.9335 213.531,-36.1628 203.415,-39.3127 207.587,-44.9335"/>
</g>
<!-- NewVolume -->
<g id="node3" class="node"><title>NewVolume</title>
<polygon fill="none" stroke="black" points="190,-180 92,-180 92,-144 190,-144 190,-180"/>
<text text-anchor="middle" x="141" y="-158.4" font-family="Times Roman,serif" font-size="14.00">NewVolume</text>
</g>
<!-- NewVolume&#45;&gt;Ec2Instance -->
<g id="edge12" class="edge"><title>NewVolume&#45;&gt;Ec2Instance</title>
<path fill="none" stroke="black" d="M141,-143.831C141,-136.131 141,-126.974 141,-118.417"/>
<polygon fill="black" stroke="black" points="144.5,-118.413 141,-108.413 137.5,-118.413 144.5,-118.413"/>
</g>
<!-- SSHLocation -->
<g id="node5" class="node"><title>SSHLocation</title>
<polygon fill="lightgrey" stroke="lightgrey" points="373,-324 293,-324 281,-312 281,-300 293,-288 373,-288 385,-300 385,-312 373,-324"/>
<path fill="lightgrey" stroke="lightgrey" d="M293,-324C287,-324 281,-318 281,-312"/>
<path fill="lightgrey" stroke="lightgrey" d="M281,-300C281,-294 287,-288 293,-288"/>
<path fill="lightgrey" stroke="lightgrey" d="M373,-288C379,-288 385,-294 385,-300"/>
<path fill="lightgrey" stroke="lightgrey" d="M385,-312C385,-318 379,-324 373,-324"/>
<polyline fill="none" stroke="black" points="373,-324 293,-324 "/>
<path fill="none" stroke="black" d="M293,-324C287,-324 281,-318 281,-312"/>
<polyline fill="none" stroke="black" points="281,-312 281,-300 "/>
<path fill="none" stroke="black" d="M281,-300C281,-294 287,-288 293,-288"/>
<polyline fill="none" stroke="black" points="293,-288 373,-288 "/>
<path fill="none" stroke="black" d="M373,-288C379,-288 385,-294 385,-300"/>
<polyline fill="none" stroke="black" points="385,-300 385,-312 "/>
<path fill="none" stroke="black" d="M385,-312C385,-318 379,-324 373,-324"/>
<text text-anchor="middle" x="333" y="-302.4" font-family="Times Roman,serif" font-size="14.00">SSHLocation</text>
</g>
<!-- SSHLocation&#45;&gt;InstanceSecurityGroup -->
<g id="edge4" class="edge"><title>SSHLocation&#45;&gt;InstanceSecurityGroup</title>
<path fill="none" stroke="black" d="M333,-287.762C333,-263.201 333,-219.247 333,-190.354"/>
<polygon fill="black" stroke="black" points="336.5,-190.09 333,-180.09 329.5,-190.09 336.5,-190.09"/>
</g>
<!-- KeyName -->
<g id="node6" class="node"><title>KeyName</title>
<polygon fill="lightgrey" stroke="lightgrey" points="246,-324 190,-324 178,-312 178,-300 190,-288 246,-288 258,-300 258,-312 246,-324"/>
<path fill="lightgrey" stroke="lightgrey" d="M190,-324C184,-324 178,-318 178,-312"/>
<path fill="lightgrey" stroke="lightgrey" d="M178,-300C178,-294 184,-288 190,-288"/>
<path fill="lightgrey" stroke="lightgrey" d="M246,-288C252,-288 258,-294 258,-300"/>
<path fill="lightgrey" stroke="lightgrey" d="M258,-312C258,-318 252,-324 246,-324"/>
<polyline fill="none" stroke="black" points="246,-324 190,-324 "/>
<path fill="none" stroke="black" d="M190,-324C184,-324 178,-318 178,-312"/>
<polyline fill="none" stroke="black" points="178,-312 178,-300 "/>
<path fill="none" stroke="black" d="M178,-300C178,-294 184,-288 190,-288"/>
<polyline fill="none" stroke="black" points="190,-288 246,-288 "/>
<path fill="none" stroke="black" d="M246,-288C252,-288 258,-294 258,-300"/>
<polyline fill="none" stroke="black" points="258,-300 258,-312 "/>
<path fill="none" stroke="black" d="M258,-312C258,-318 252,-324 246,-324"/>
<text text-anchor="middle" x="218" y="-302.4" font-family="Times Roman,serif" font-size="14.00">KeyName</text>
</g>
<!-- KeyName&#45;&gt;Ec2Instance -->
<g id="edge6" class="edge"><title>KeyName&#45;&gt;Ec2Instance</title>
<path fill="none" stroke="black" d="M219.783,-287.834C222.028,-256.597 223.059,-191.491 199,-144 193.365,-132.878 184.451,-122.863 175.286,-114.565"/>
<polygon fill="black" stroke="black" points="177.477,-111.833 167.595,-108.012 172.937,-117.162 177.477,-111.833"/>
</g>
<!-- AWS::Region -->
<g id="node13" class="node"><title>AWS::Region</title>
<polygon fill="none" stroke="black" points="107,-252 3,-252 3,-216 107,-216 107,-252"/>
<text text-anchor="middle" x="55" y="-230.4" font-family="Times Roman,serif" font-size="14.00">AWS::Region</text>
</g>
<!-- AWS::Region&#45;&gt;Ec2Instance -->
<g id="edge8" class="edge"><title>AWS::Region&#45;&gt;Ec2Instance</title>
<path fill="none" stroke="black" d="M51.1025,-215.937C52.3321,-196.892 59.8011,-166.579 74,-144 80.8193,-133.156 90.3505,-123.057 100.152,-114.595"/>
<polygon fill="black" stroke="black" points="102.485,-117.209 108.024,-108.177 98.0617,-111.783 102.485,-117.209"/>
</g>
<!-- AWS::Region&#45;&gt;Ec2Instance -->
<g id="edge14" class="edge"><title>AWS::Region&#45;&gt;Ec2Instance</title>
<path fill="none" stroke="black" d="M64.4561,-215.937C70.3321,-196.892 77.8011,-166.579 92,-144 98.6842,-133.371 107.974,-123.457 116.754,-115.1"/>
<polygon fill="black" stroke="black" points="119.283,-117.529 124.261,-108.177 114.537,-112.383 119.283,-117.529"/>
</g>
<!-- AWS::Region&#45;&gt;NewVolume -->
<g id="edge16" class="edge"><title>AWS::Region&#45;&gt;NewVolume</title>
<path fill="none" stroke="black" d="M76.7014,-215.831C87.1921,-207.048 99.9455,-196.371 111.319,-186.849"/>
<polygon fill="black" stroke="black" points="113.885,-189.266 119.306,-180.163 109.391,-183.899 113.885,-189.266"/>
</g>
</g>
</svg>
