<?xml version="1.0" encoding="UTF-8" standalone="no"?>
<!DOCTYPE svg PUBLIC "-//W3C//DTD SVG 1.1//EN"
 "http://www.w3.org/Graphics/SVG/1.1/DTD/svg11.dtd">
<!-- Generated by graphviz version 2.26.3 (20100126.1600)
 -->
<!-- Title: AWS CloudFormation Sample Template ElasticBeanstalk_Simple: Configure and launch an AWS Elastic Beanstalk application that connects to an Amazon RDS database instance. Monitoring is setup on the database. **WARNING** This template creates one or more Amazon EC2 instances and an Amazon Relational Database Service database instance. You will be billed for the AWS resources used if you create a stack from this template. Pages: 1 -->
<svg width="504pt" height="404pt"
 viewBox="0.00 0.00 504.00 404.00" xmlns="http://www.w3.org/2000/svg" xmlns:xlink="http://www.w3.org/1999/xlink">
<g id="graph1" class="graph" transform="scale(1 1) rotate(0) translate(4 400)">
<title>AWS CloudFormation Sample Template ElasticBeanstalk_Simple: Configure and launch an AWS Elastic Beanstalk application that connects to an Amazon RDS database instance. Monitoring is setup on the database. **WARNING** This template creates one or more Amazon EC2 instances and an Amazon Relational Database Service database instance. You will be billed for the AWS resources used if you create a stack from this template.</title>
<polygon fill="white" stroke="white" points="-4,5 -4,-400 501,-400 501,5 -4,5"/>
<!-- SampleApplication -->
<g id="node1" class="node"><title>SampleApplication</title>
<polygon fill="none" stroke="black" points="279,-180 137,-180 137,-144 279,-144 279,-180"/>
<text text-anchor="middle" x="208" y="-158.4" font-family="Times Roman,serif" font-size="14.00">SampleApplication</text>
</g>
<!-- SampleEnvironment -->
<g id="node3" class="node"><title>SampleEnvironment</title>
<polygon fill="none" stroke="black" points="286,-108 130,-108 130,-72 286,-72 286,-108"/>
<text text-anchor="middle" x="208" y="-86.4" font-family="Times Roman,serif" font-size="14.00">SampleEnvironment</text>
</g>
<!-- SampleApplication&#45;&gt;SampleEnvironment -->
<g id="edge14" class="edge"><title>SampleApplication&#45;&gt;SampleEnvironment</title>
<path fill="none" stroke="black" d="M208,-143.831C208,-136.131 208,-126.974 208,-118.417"/>
<polygon fill="black" stroke="black" points="211.5,-118.413 208,-108.413 204.5,-118.413 211.5,-118.413"/>
</g>
<!-- DBSecurityGroup -->
<g id="node2" class="node"><title>DBSecurityGroup</title>
<polygon fill="none" stroke="black" points="372,-324 236,-324 236,-288 372,-288 372,-324"/>
<text text-anchor="middle" x="304" y="-302.4" font-family="Times Roman,serif" font-size="14.00">DBSecurityGroup</text>
</g>
<!-- SampleDB -->
<g id="node5" class="node"><title>SampleDB</title>
<polygon fill="none" stroke="black" points="336,-252 248,-252 248,-216 336,-216 336,-252"/>
<text text-anchor="middle" x="292" y="-230.4" font-family="Times Roman,serif" font-size="14.00">SampleDB</text>
</g>
<!-- DBSecurityGroup&#45;&gt;SampleDB -->
<g id="edge22" class="edge"><title>DBSecurityGroup&#45;&gt;SampleDB</title>
<path fill="none" stroke="black" d="M300.972,-287.831C299.688,-280.131 298.162,-270.974 296.736,-262.417"/>
<polygon fill="black" stroke="black" points="300.165,-261.702 295.069,-252.413 293.261,-262.853 300.165,-261.702"/>
</g>
<!-- URL -->
<g id="node12" class="node"><title>URL</title>
<polygon fill="lightgrey" stroke="lightgrey" points="223,-36 193,-36 181,-24 181,-12 193,-1.46056e-14 223,-6.71068e-15 235,-12 235,-24 223,-36"/>
<path fill="lightgrey" stroke="lightgrey" d="M193,-36C187,-36 181,-30 181,-24"/>
<path fill="lightgrey" stroke="lightgrey" d="M181,-12C181,-6 187,-1.61846e-14 193,-1.46056e-14"/>
<path fill="lightgrey" stroke="lightgrey" d="M223,-6.71068e-15C229,-5.1317e-15 235,-6 235,-12"/>
<path fill="lightgrey" stroke="lightgrey" d="M235,-24C235,-30 229,-36 223,-36"/>
<polyline fill="none" stroke="black" points="223,-36 193,-36 "/>
<path fill="none" stroke="black" d="M193,-36C187,-36 181,-30 181,-24"/>
<polyline fill="none" stroke="black" points="181,-24 181,-12 "/>
<path fill="none" stroke="black" d="M181,-12C181,-6 187,-1.61846e-14 193,-1.46056e-14"/>
<polyline fill="none" stroke="black" points="193,-1.46056e-14 223,-6.71068e-15 "/>
<path fill="none" stroke="black" d="M223,-6.71068e-15C229,-5.1317e-15 235,-6 235,-12"/>
<polyline fill="none" stroke="black" points="235,-12 235,-24 "/>
<path fill="none" stroke="black" d="M235,-24C235,-30 229,-36 223,-36"/>
<text text-anchor="middle" x="208" y="-14.4" font-family="Times Roman,serif" font-size="14.00">URL</text>
</g>
<!-- SampleEnvironment&#45;&gt;URL -->
<g id="edge30" class="edge"><title>SampleEnvironment&#45;&gt;URL</title>
<path fill="none" stroke="black" d="M208,-71.8314C208,-64.131 208,-54.9743 208,-46.4166"/>
<polygon fill="black" stroke="black" points="211.5,-46.4132 208,-36.4133 204.5,-46.4133 211.5,-46.4132"/>
</g>
<!-- CPUAlarmHigh -->
<g id="node4" class="node"><title>CPUAlarmHigh</title>
<polygon fill="none" stroke="black" points="477,-180 359,-180 359,-144 477,-144 477,-180"/>
<text text-anchor="middle" x="418" y="-158.4" font-family="Times Roman,serif" font-size="14.00">CPUAlarmHigh</text>
</g>
<!-- SampleDB&#45;&gt;SampleApplication -->
<g id="edge4" class="edge"><title>SampleDB&#45;&gt;SampleApplication</title>
<path fill="none" stroke="black" d="M264.851,-215.831C253.856,-207.134 241.369,-196.578 230.846,-187.127"/>
<polygon fill="black" stroke="black" points="232.978,-184.333 223.238,-180.163 228.251,-189.497 232.978,-184.333"/>
</g>
<!-- SampleDB&#45;&gt;SampleApplication -->
<g id="edge6" class="edge"><title>SampleDB&#45;&gt;SampleApplication</title>
<path fill="none" stroke="black" d="M276.756,-215.831C267.274,-206.963 254.836,-196.164 243.105,-186.572"/>
<polygon fill="black" stroke="black" points="245.127,-183.706 235.142,-180.163 240.738,-189.159 245.127,-183.706"/>
</g>
<!-- SampleDB&#45;&gt;CPUAlarmHigh -->
<g id="edge16" class="edge"><title>SampleDB&#45;&gt;CPUAlarmHigh</title>
<path fill="none" stroke="black" d="M323.795,-215.831C340.061,-206.537 360.039,-195.121 377.405,-185.197"/>
<polygon fill="black" stroke="black" points="379.269,-188.163 386.215,-180.163 375.796,-182.085 379.269,-188.163"/>
</g>
<!-- AlarmTopic -->
<g id="node6" class="node"><title>AlarmTopic</title>
<polygon fill="none" stroke="black" points="463,-252 373,-252 373,-216 463,-216 463,-252"/>
<text text-anchor="middle" x="418" y="-230.4" font-family="Times Roman,serif" font-size="14.00">AlarmTopic</text>
</g>
<!-- AlarmTopic&#45;&gt;CPUAlarmHigh -->
<g id="edge18" class="edge"><title>AlarmTopic&#45;&gt;CPUAlarmHigh</title>
<path fill="none" stroke="black" d="M412.048,-215.831C411.297,-208.131 411.076,-198.974 411.385,-190.417"/>
<polygon fill="black" stroke="black" points="414.879,-190.616 412.024,-180.413 407.893,-190.17 414.879,-190.616"/>
</g>
<!-- AlarmTopic&#45;&gt;CPUAlarmHigh -->
<g id="edge20" class="edge"><title>AlarmTopic&#45;&gt;CPUAlarmHigh</title>
<path fill="none" stroke="black" d="M423.952,-215.831C424.703,-208.131 424.924,-198.974 424.615,-190.417"/>
<polygon fill="black" stroke="black" points="428.107,-190.17 423.976,-180.413 421.121,-190.616 428.107,-190.17"/>
</g>
<!-- DatabasePassword -->
<g id="node8" class="node"><title>DatabasePassword</title>
<polygon fill="lightgrey" stroke="lightgrey" points="347,-396 225,-396 213,-384 213,-372 225,-360 347,-360 359,-372 359,-384 347,-396"/>
<path fill="lightgrey" stroke="lightgrey" d="M225,-396C219,-396 213,-390 213,-384"/>
<path fill="lightgrey" stroke="lightgrey" d="M213,-372C213,-366 219,-360 225,-360"/>
<path fill="lightgrey" stroke="lightgrey" d="M347,-360C353,-360 359,-366 359,-372"/>
<path fill="lightgrey" stroke="lightgrey" d="M359,-384C359,-390 353,-396 347,-396"/>
<polyline fill="none" stroke="black" points="347,-396 225,-396 "/>
<path fill="none" stroke="black" d="M225,-396C219,-396 213,-390 213,-384"/>
<polyline fill="none" stroke="black" points="213,-384 213,-372 "/>
<path fill="none" stroke="black" d="M213,-372C213,-366 219,-360 225,-360"/>
<polyline fill="none" stroke="black" points="225,-360 347,-360 "/>
<path fill="none" stroke="black" d="M347,-360C353,-360 359,-366 359,-372"/>
<polyline fill="none" stroke="black" points="359,-372 359,-384 "/>
<path fill="none" stroke="black" d="M359,-384C359,-390 353,-396 347,-396"/>
<text text-anchor="middle" x="286" y="-374.4" font-family="Times Roman,serif" font-size="14.00">DatabasePassword</text>
</g>
<!-- DatabasePassword&#45;&gt;SampleApplication -->
<g id="edge10" class="edge"><title>DatabasePassword&#45;&gt;SampleApplication</title>
<path fill="none" stroke="black" d="M258.644,-359.837C246.922,-350.555 234.277,-338.214 227,-324 205.108,-281.24 203.886,-224.014 205.554,-190.27"/>
<polygon fill="black" stroke="black" points="209.053,-190.384 206.174,-180.188 202.067,-189.954 209.053,-190.384"/>
</g>
<!-- DatabasePassword&#45;&gt;SampleDB -->
<g id="edge26" class="edge"><title>DatabasePassword&#45;&gt;SampleDB</title>
<path fill="none" stroke="black" d="M339.708,-359.79C355.865,-351.511 371.745,-339.906 381,-324 389.047,-310.171 388.849,-301.943 381,-288 372.924,-273.654 359.326,-262.68 345.159,-254.495"/>
<polygon fill="black" stroke="black" points="346.777,-251.39 336.309,-249.753 343.471,-257.561 346.777,-251.39"/>
</g>
<!-- DatabaseUser -->
<g id="node9" class="node"><title>DatabaseUser</title>
<polygon fill="lightgrey" stroke="lightgrey" points="178,-396 90,-396 78,-384 78,-372 90,-360 178,-360 190,-372 190,-384 178,-396"/>
<path fill="lightgrey" stroke="lightgrey" d="M90,-396C84,-396 78,-390 78,-384"/>
<path fill="lightgrey" stroke="lightgrey" d="M78,-372C78,-366 84,-360 90,-360"/>
<path fill="lightgrey" stroke="lightgrey" d="M178,-360C184,-360 190,-366 190,-372"/>
<path fill="lightgrey" stroke="lightgrey" d="M190,-384C190,-390 184,-396 178,-396"/>
<polyline fill="none" stroke="black" points="178,-396 90,-396 "/>
<path fill="none" stroke="black" d="M90,-396C84,-396 78,-390 78,-384"/>
<polyline fill="none" stroke="black" points="78,-384 78,-372 "/>
<path fill="none" stroke="black" d="M78,-372C78,-366 84,-360 90,-360"/>
<polyline fill="none" stroke="black" points="90,-360 178,-360 "/>
<path fill="none" stroke="black" d="M178,-360C184,-360 190,-366 190,-372"/>
<polyline fill="none" stroke="black" points="190,-372 190,-384 "/>
<path fill="none" stroke="black" d="M190,-384C190,-390 184,-396 178,-396"/>
<text text-anchor="middle" x="134" y="-374.4" font-family="Times Roman,serif" font-size="14.00">DatabaseUser</text>
</g>
<!-- DatabaseUser&#45;&gt;SampleApplication -->
<g id="edge8" class="edge"><title>DatabaseUser&#45;&gt;SampleApplication</title>
<path fill="none" stroke="black" d="M140.182,-359.955C153.105,-322.235 183.053,-234.819 198.462,-189.84"/>
<polygon fill="black" stroke="black" points="201.854,-190.74 201.784,-180.145 195.231,-188.471 201.854,-190.74"/>
</g>
<!-- DatabaseUser&#45;&gt;SampleDB -->
<g id="edge24" class="edge"><title>DatabaseUser&#45;&gt;SampleDB</title>
<path fill="none" stroke="black" d="M151.791,-359.995C170.23,-341.523 200.071,-312.153 227,-288 238.073,-278.068 250.571,-267.533 261.628,-258.43"/>
<polygon fill="black" stroke="black" points="263.861,-261.126 269.384,-252.084 259.428,-255.708 263.861,-261.126"/>
</g>
<!-- OperatorEmail -->
<g id="node10" class="node"><title>OperatorEmail</title>
<polygon fill="lightgrey" stroke="lightgrey" points="484,-396 392,-396 380,-384 380,-372 392,-360 484,-360 496,-372 496,-384 484,-396"/>
<path fill="lightgrey" stroke="lightgrey" d="M392,-396C386,-396 380,-390 380,-384"/>
<path fill="lightgrey" stroke="lightgrey" d="M380,-372C380,-366 386,-360 392,-360"/>
<path fill="lightgrey" stroke="lightgrey" d="M484,-360C490,-360 496,-366 496,-372"/>
<path fill="lightgrey" stroke="lightgrey" d="M496,-384C496,-390 490,-396 484,-396"/>
<polyline fill="none" stroke="black" points="484,-396 392,-396 "/>
<path fill="none" stroke="black" d="M392,-396C386,-396 380,-390 380,-384"/>
<polyline fill="none" stroke="black" points="380,-384 380,-372 "/>
<path fill="none" stroke="black" d="M380,-372C380,-366 386,-360 392,-360"/>
<polyline fill="none" stroke="black" points="392,-360 484,-360 "/>
<path fill="none" stroke="black" d="M484,-360C490,-360 496,-366 496,-372"/>
<polyline fill="none" stroke="black" points="496,-372 496,-384 "/>
<path fill="none" stroke="black" d="M496,-384C496,-390 490,-396 484,-396"/>
<text text-anchor="middle" x="438" y="-374.4" font-family="Times Roman,serif" font-size="14.00">OperatorEmail</text>
</g>
<!-- OperatorEmail&#45;&gt;AlarmTopic -->
<g id="edge28" class="edge"><title>OperatorEmail&#45;&gt;AlarmTopic</title>
<path fill="none" stroke="black" d="M435.467,-359.762C432.056,-335.201 425.951,-291.247 421.938,-262.354"/>
<polygon fill="black" stroke="black" points="425.355,-261.513 420.512,-252.09 418.421,-262.476 425.355,-261.513"/>
</g>
<!-- AWS::Region -->
<g id="node17" class="node"><title>AWS::Region</title>
<polygon fill="none" stroke="black" points="104,-324 4.26326e-14,-324 0,-288 104,-288 104,-324"/>
<text text-anchor="middle" x="52" y="-302.4" font-family="Times Roman,serif" font-size="14.00">AWS::Region</text>
</g>
<!-- AWS::Region&#45;&gt;SampleApplication -->
<g id="edge12" class="edge"><title>AWS::Region&#45;&gt;SampleApplication</title>
<path fill="none" stroke="black" d="M62.3468,-287.779C74.0354,-268.324 94.5174,-237.409 118,-216 130.935,-204.207 146.836,-193.661 161.654,-185.086"/>
<polygon fill="black" stroke="black" points="163.696,-187.954 170.705,-180.009 160.271,-181.849 163.696,-187.954"/>
</g>
</g>
</svg>
