<?xml version="1.0" encoding="UTF-8" standalone="no"?>
<!DOCTYPE svg PUBLIC "-//W3C//DTD SVG 1.1//EN"
 "http://www.w3.org/Graphics/SVG/1.1/DTD/svg11.dtd">
<!-- Generated by graphviz version 2.26.3 (20100126.1600)
 -->
<!-- Title: AWS CloudFormation Sample Template Elastic&#45;Beanstalk&#45;in&#45;vpc.template: Sample template showing how to create an Elastic Beanstalk environment in a VPC. The stack contains 2 subnets: the first subnet is public and contains the load balancer, a NAT device for internet access from the private subnet and a bastion host to allow SSH access to the Elastic Beanstalk hosts. The second subnet is private and contains the Elastic Beanstalk instances. You will be billed for the AWS resources used if you create a stack from this template. Pages: 1 -->
<svg width="2709pt" height="548pt"
 viewBox="0.00 0.00 2709.00 548.00" xmlns="http://www.w3.org/2000/svg" xmlns:xlink="http://www.w3.org/1999/xlink">
<g id="graph1" class="graph" transform="scale(1 1) rotate(0) translate(4 544)">
<title>AWS CloudFormation Sample Template Elastic&#45;Beanstalk&#45;in&#45;vpc.template: Sample template showing how to create an Elastic Beanstalk environment in a VPC. The stack contains 2 subnets: the first subnet is public and contains the load balancer, a NAT device for internet access from the private subnet and a bastion host to allow SSH access to the Elastic Beanstalk hosts. The second subnet is private and contains the Elastic Beanstalk instances. You will be billed for the AWS resources used if you create a stack from this template.</title>
<polygon fill="white" stroke="white" points="-4,5 -4,-544 2706,-544 2706,5 -4,5"/>
<!-- BastionHost -->
<g id="node1" class="node"><title>BastionHost</title>
<polygon fill="none" stroke="black" points="244,-252 144,-252 144,-216 244,-216 244,-252"/>
<text text-anchor="middle" x="194" y="-230.4" font-family="Times Roman,serif" font-size="14.00">BastionHost</text>
</g>
<!-- BastionIPAddress -->
<g id="node14" class="node"><title>BastionIPAddress</title>
<polygon fill="none" stroke="black" points="229,-180 95,-180 95,-144 229,-144 229,-180"/>
<text text-anchor="middle" x="162" y="-158.4" font-family="Times Roman,serif" font-size="14.00">BastionIPAddress</text>
</g>
<!-- BastionHost&#45;&gt;BastionIPAddress -->
<g id="edge72" class="edge"><title>BastionHost&#45;&gt;BastionIPAddress</title>
<path fill="none" stroke="black" d="M185.925,-215.831C182.39,-207.877 178.164,-198.369 174.254,-189.572"/>
<polygon fill="black" stroke="black" points="177.443,-188.13 170.184,-180.413 171.047,-190.973 177.443,-188.13"/>
</g>
<!-- GatewayToInternet -->
<g id="node2" class="node"><title>GatewayToInternet</title>
<polygon fill="none" stroke="black" points="1834,-324 1682,-324 1682,-288 1834,-288 1834,-324"/>
<text text-anchor="middle" x="1758" y="-302.4" font-family="Times Roman,serif" font-size="14.00">GatewayToInternet</text>
</g>
<!-- PublicRoute -->
<g id="node3" class="node"><title>PublicRoute</title>
<polygon fill="none" stroke="black" points="1843,-252 1745,-252 1745,-216 1843,-216 1843,-252"/>
<text text-anchor="middle" x="1794" y="-230.4" font-family="Times Roman,serif" font-size="14.00">PublicRoute</text>
</g>
<!-- PublicSubnet -->
<g id="node4" class="node"><title>PublicSubnet</title>
<polygon fill="none" stroke="black" points="866,-324 760,-324 760,-288 866,-288 866,-324"/>
<text text-anchor="middle" x="813" y="-302.4" font-family="Times Roman,serif" font-size="14.00">PublicSubnet</text>
</g>
<!-- PublicSubnet&#45;&gt;BastionHost -->
<g id="edge4" class="edge"><title>PublicSubnet&#45;&gt;BastionHost</title>
<path fill="none" stroke="black" d="M759.947,-298.854C734.3,-295.458 703.063,-291.405 675,-288 523.79,-269.652 345.561,-250.214 254.386,-240.428"/>
<polygon fill="black" stroke="black" points="254.555,-236.927 244.239,-239.341 253.808,-243.887 254.555,-236.927"/>
</g>
<!-- PublicSubnetNetworkAclAssociation -->
<g id="node5" class="node"><title>PublicSubnetNetworkAclAssociation</title>
<polygon fill="none" stroke="black" points="807,-108 543,-108 543,-72 807,-72 807,-108"/>
<text text-anchor="middle" x="675" y="-86.4" font-family="Times Roman,serif" font-size="14.00">PublicSubnetNetworkAclAssociation</text>
</g>
<!-- PublicSubnet&#45;&gt;PublicSubnetNetworkAclAssociation -->
<g id="edge28" class="edge"><title>PublicSubnet&#45;&gt;PublicSubnetNetworkAclAssociation</title>
<path fill="none" stroke="black" d="M809.416,-287.883C805.189,-269.062 797.039,-239.178 784,-216 762.022,-176.934 726.71,-138.993 702.262,-115.13"/>
<polygon fill="black" stroke="black" points="704.682,-112.603 695.049,-108.191 699.829,-117.647 704.682,-112.603"/>
</g>
<!-- SampleEnvironment -->
<g id="node8" class="node"><title>SampleEnvironment</title>
<polygon fill="none" stroke="black" points="775,-252 619,-252 619,-216 775,-216 775,-252"/>
<text text-anchor="middle" x="697" y="-230.4" font-family="Times Roman,serif" font-size="14.00">SampleEnvironment</text>
</g>
<!-- PublicSubnet&#45;&gt;SampleEnvironment -->
<g id="edge50" class="edge"><title>PublicSubnet&#45;&gt;SampleEnvironment</title>
<path fill="none" stroke="black" d="M783.728,-287.831C768.891,-278.622 750.698,-267.33 734.814,-257.471"/>
<polygon fill="black" stroke="black" points="736.605,-254.463 726.262,-252.163 732.913,-260.41 736.605,-254.463"/>
</g>
<!-- PublicSubnetRouteTableAssociation -->
<g id="node17" class="node"><title>PublicSubnetRouteTableAssociation</title>
<polygon fill="none" stroke="black" points="1279,-252 1019,-252 1019,-216 1279,-216 1279,-252"/>
<text text-anchor="middle" x="1149" y="-230.4" font-family="Times Roman,serif" font-size="14.00">PublicSubnetRouteTableAssociation</text>
</g>
<!-- PublicSubnet&#45;&gt;PublicSubnetRouteTableAssociation -->
<g id="edge80" class="edge"><title>PublicSubnet&#45;&gt;PublicSubnetRouteTableAssociation</title>
<path fill="none" stroke="black" d="M866.24,-294.591C916.81,-283.755 993.954,-267.224 1054.9,-254.165"/>
<polygon fill="black" stroke="black" points="1055.87,-257.536 1064.92,-252.018 1054.41,-250.691 1055.87,-257.536"/>
</g>
<!-- NATDevice -->
<g id="node31" class="node"><title>NATDevice</title>
<polygon fill="none" stroke="black" points="1763,-180 1671,-180 1671,-144 1763,-144 1763,-180"/>
<text text-anchor="middle" x="1717" y="-158.4" font-family="Times Roman,serif" font-size="14.00">NATDevice</text>
</g>
<!-- PublicSubnet&#45;&gt;NATDevice -->
<g id="edge120" class="edge"><title>PublicSubnet&#45;&gt;NATDevice</title>
<path fill="none" stroke="black" d="M837.89,-287.841C868.782,-266.406 923.896,-231.695 977,-216 1104.87,-178.206 1509.9,-166.224 1660.17,-163.023"/>
<polygon fill="black" stroke="black" points="1660.61,-166.515 1670.54,-162.807 1660.47,-159.516 1660.61,-166.515"/>
</g>
<!-- InternetGateway -->
<g id="node6" class="node"><title>InternetGateway</title>
<polygon fill="none" stroke="black" points="1826,-396 1690,-396 1690,-360 1826,-360 1826,-396"/>
<text text-anchor="middle" x="1758" y="-374.4" font-family="Times Roman,serif" font-size="14.00">InternetGateway</text>
</g>
<!-- InternetGateway&#45;&gt;GatewayToInternet -->
<g id="edge18" class="edge"><title>InternetGateway&#45;&gt;GatewayToInternet</title>
<path fill="none" stroke="black" d="M1758,-359.831C1758,-352.131 1758,-342.974 1758,-334.417"/>
<polygon fill="black" stroke="black" points="1761.5,-334.413 1758,-324.413 1754.5,-334.413 1761.5,-334.413"/>
</g>
<!-- InternetGateway&#45;&gt;PublicRoute -->
<g id="edge20" class="edge"><title>InternetGateway&#45;&gt;PublicRoute</title>
<path fill="none" stroke="black" d="M1803.95,-359.854C1819.17,-351.376 1834.41,-339.629 1843,-324 1850.7,-309.977 1848.76,-302.926 1843,-288 1838.88,-277.331 1831.57,-267.467 1823.83,-259.168"/>
<polygon fill="black" stroke="black" points="1826.22,-256.611 1816.68,-252.009 1821.27,-261.558 1826.22,-256.611"/>
</g>
<!-- PrivateRouteTable -->
<g id="node7" class="node"><title>PrivateRouteTable</title>
<polygon fill="none" stroke="black" points="1664,-324 1522,-324 1522,-288 1664,-288 1664,-324"/>
<text text-anchor="middle" x="1593" y="-302.4" font-family="Times Roman,serif" font-size="14.00">PrivateRouteTable</text>
</g>
<!-- PrivateRoute -->
<g id="node13" class="node"><title>PrivateRoute</title>
<polygon fill="none" stroke="black" points="2241,-108 2135,-108 2135,-72 2241,-72 2241,-108"/>
<text text-anchor="middle" x="2188" y="-86.4" font-family="Times Roman,serif" font-size="14.00">PrivateRoute</text>
</g>
<!-- PrivateRouteTable&#45;&gt;PrivateRoute -->
<g id="edge70" class="edge"><title>PrivateRouteTable&#45;&gt;PrivateRoute</title>
<path fill="none" stroke="black" d="M1664.43,-289.39C1667.32,-288.889 1670.18,-288.423 1673,-288 1724.69,-280.243 2101.54,-285.081 2142,-252 2162.67,-235.104 2177.25,-159.887 2183.92,-118.146"/>
<polygon fill="black" stroke="black" points="2187.41,-118.485 2185.48,-108.067 2180.49,-117.414 2187.41,-118.485"/>
</g>
<!-- PrivateSubnetRouteTableAssociation -->
<g id="node23" class="node"><title>PrivateSubnetRouteTableAssociation</title>
<polygon fill="none" stroke="black" points="1727,-252 1459,-252 1459,-216 1727,-216 1727,-252"/>
<text text-anchor="middle" x="1593" y="-230.4" font-family="Times Roman,serif" font-size="14.00">PrivateSubnetRouteTableAssociation</text>
</g>
<!-- PrivateRouteTable&#45;&gt;PrivateSubnetRouteTableAssociation -->
<g id="edge98" class="edge"><title>PrivateRouteTable&#45;&gt;PrivateSubnetRouteTableAssociation</title>
<path fill="none" stroke="black" d="M1593,-287.831C1593,-280.131 1593,-270.974 1593,-262.417"/>
<polygon fill="black" stroke="black" points="1596.5,-262.413 1593,-252.413 1589.5,-262.413 1596.5,-262.413"/>
</g>
<!-- URL -->
<g id="node39" class="node"><title>URL</title>
<polygon fill="lightgrey" stroke="lightgrey" points="252,-36 222,-36 210,-24 210,-12 222,-1.46056e-14 252,-6.71068e-15 264,-12 264,-24 252,-36"/>
<path fill="lightgrey" stroke="lightgrey" d="M222,-36C216,-36 210,-30 210,-24"/>
<path fill="lightgrey" stroke="lightgrey" d="M210,-12C210,-6 216,-1.61846e-14 222,-1.46056e-14"/>
<path fill="lightgrey" stroke="lightgrey" d="M252,-6.71068e-15C258,-5.1317e-15 264,-6 264,-12"/>
<path fill="lightgrey" stroke="lightgrey" d="M264,-24C264,-30 258,-36 252,-36"/>
<polyline fill="none" stroke="black" points="252,-36 222,-36 "/>
<path fill="none" stroke="black" d="M222,-36C216,-36 210,-30 210,-24"/>
<polyline fill="none" stroke="black" points="210,-24 210,-12 "/>
<path fill="none" stroke="black" d="M210,-12C210,-6 216,-1.61846e-14 222,-1.46056e-14"/>
<polyline fill="none" stroke="black" points="222,-1.46056e-14 252,-6.71068e-15 "/>
<path fill="none" stroke="black" d="M252,-6.71068e-15C258,-5.1317e-15 264,-6 264,-12"/>
<polyline fill="none" stroke="black" points="264,-12 264,-24 "/>
<path fill="none" stroke="black" d="M264,-24C264,-30 258,-36 252,-36"/>
<text text-anchor="middle" x="237" y="-14.4" font-family="Times Roman,serif" font-size="14.00">URL</text>
</g>
<!-- SampleEnvironment&#45;&gt;URL -->
<g id="edge128" class="edge"><title>SampleEnvironment&#45;&gt;URL</title>
<path fill="none" stroke="black" d="M618.744,-221.547C505.796,-201.987 305.202,-160.786 256,-108 240.749,-91.6384 236.499,-66.2398 235.777,-46.5904"/>
<polygon fill="black" stroke="black" points="239.275,-46.3299 235.692,-36.3595 232.275,-46.3884 239.275,-46.3299"/>
</g>
<!-- PrivateSubnetNetworkAclAssociation -->
<g id="node9" class="node"><title>PrivateSubnetNetworkAclAssociation</title>
<polygon fill="none" stroke="black" points="2133,-252 1861,-252 1861,-216 2133,-216 2133,-252"/>
<text text-anchor="middle" x="1997" y="-230.4" font-family="Times Roman,serif" font-size="14.00">PrivateSubnetNetworkAclAssociation</text>
</g>
<!-- InboundPrivateNetworkAclEntry -->
<g id="node10" class="node"><title>InboundPrivateNetworkAclEntry</title>
<polygon fill="none" stroke="black" points="2701,-180 2461,-180 2461,-144 2701,-144 2701,-180"/>
<text text-anchor="middle" x="2581" y="-158.4" font-family="Times Roman,serif" font-size="14.00">InboundPrivateNetworkAclEntry</text>
</g>
<!-- NATSecurityGroup -->
<g id="node11" class="node"><title>NATSecurityGroup</title>
<polygon fill="none" stroke="black" points="1441,-252 1297,-252 1297,-216 1441,-216 1441,-252"/>
<text text-anchor="middle" x="1369" y="-230.4" font-family="Times Roman,serif" font-size="14.00">NATSecurityGroup</text>
</g>
<!-- NATSecurityGroup&#45;&gt;NATDevice -->
<g id="edge122" class="edge"><title>NATSecurityGroup&#45;&gt;NATDevice</title>
<path fill="none" stroke="black" d="M1441.41,-217.837C1444.31,-217.213 1447.18,-216.598 1450,-216 1522.58,-200.597 1606.48,-183.792 1660.56,-173.089"/>
<polygon fill="black" stroke="black" points="1661.51,-176.47 1670.64,-171.097 1660.15,-169.603 1661.51,-176.47"/>
</g>
<!-- PrivateNetworkAcl -->
<g id="node12" class="node"><title>PrivateNetworkAcl</title>
<polygon fill="none" stroke="black" points="2070,-324 1924,-324 1924,-288 2070,-288 2070,-324"/>
<text text-anchor="middle" x="1997" y="-302.4" font-family="Times Roman,serif" font-size="14.00">PrivateNetworkAcl</text>
</g>
<!-- PrivateNetworkAcl&#45;&gt;PrivateSubnetNetworkAclAssociation -->
<g id="edge54" class="edge"><title>PrivateNetworkAcl&#45;&gt;PrivateSubnetNetworkAclAssociation</title>
<path fill="none" stroke="black" d="M1997,-287.831C1997,-280.131 1997,-270.974 1997,-262.417"/>
<polygon fill="black" stroke="black" points="2000.5,-262.413 1997,-252.413 1993.5,-262.413 2000.5,-262.413"/>
</g>
<!-- PrivateNetworkAcl&#45;&gt;InboundPrivateNetworkAclEntry -->
<g id="edge56" class="edge"><title>PrivateNetworkAcl&#45;&gt;InboundPrivateNetworkAclEntry</title>
<path fill="none" stroke="black" d="M2070.18,-288.523C2113.96,-278.026 2170.69,-264.353 2221,-252 2316.76,-228.489 2426.69,-200.921 2499.63,-182.551"/>
<polygon fill="black" stroke="black" points="2500.82,-185.859 2509.67,-180.022 2499.11,-179.071 2500.82,-185.859"/>
</g>
<!-- OutBoundPrivateNetworkAclEntry -->
<g id="node30" class="node"><title>OutBoundPrivateNetworkAclEntry</title>
<polygon fill="none" stroke="black" points="2443,-180 2189,-180 2189,-144 2443,-144 2443,-180"/>
<text text-anchor="middle" x="2316" y="-158.4" font-family="Times Roman,serif" font-size="14.00">OutBoundPrivateNetworkAclEntry</text>
</g>
<!-- PrivateNetworkAcl&#45;&gt;OutBoundPrivateNetworkAclEntry -->
<g id="edge118" class="edge"><title>PrivateNetworkAcl&#45;&gt;OutBoundPrivateNetworkAclEntry</title>
<path fill="none" stroke="black" d="M2070.11,-288.676C2102.94,-279.674 2141.7,-267.324 2175,-252 2214.69,-233.735 2256.42,-205.857 2284.09,-185.972"/>
<polygon fill="black" stroke="black" points="2286.18,-188.785 2292.21,-180.077 2282.06,-183.121 2286.18,-188.785"/>
</g>
<!-- Bastion -->
<g id="node40" class="node"><title>Bastion</title>
<polygon fill="lightgrey" stroke="lightgrey" points="180,-36 136,-36 124,-24 124,-12 136,-1.52558e-14 180,-6.06051e-15 192,-12 192,-24 180,-36"/>
<path fill="lightgrey" stroke="lightgrey" d="M136,-36C130,-36 124,-30 124,-24"/>
<path fill="lightgrey" stroke="lightgrey" d="M124,-12C124,-6 130,-1.65097e-14 136,-1.52558e-14"/>
<path fill="lightgrey" stroke="lightgrey" d="M180,-6.06051e-15C186,-4.80661e-15 192,-6 192,-12"/>
<path fill="lightgrey" stroke="lightgrey" d="M192,-24C192,-30 186,-36 180,-36"/>
<polyline fill="none" stroke="black" points="180,-36 136,-36 "/>
<path fill="none" stroke="black" d="M136,-36C130,-36 124,-30 124,-24"/>
<polyline fill="none" stroke="black" points="124,-24 124,-12 "/>
<path fill="none" stroke="black" d="M124,-12C124,-6 130,-1.65097e-14 136,-1.52558e-14"/>
<polyline fill="none" stroke="black" points="136,-1.52558e-14 180,-6.06051e-15 "/>
<path fill="none" stroke="black" d="M180,-6.06051e-15C186,-4.80661e-15 192,-6 192,-12"/>
<polyline fill="none" stroke="black" points="192,-12 192,-24 "/>
<path fill="none" stroke="black" d="M192,-24C192,-30 186,-36 180,-36"/>
<text text-anchor="middle" x="158" y="-14.4" font-family="Times Roman,serif" font-size="14.00">Bastion</text>
</g>
<!-- BastionIPAddress&#45;&gt;Bastion -->
<g id="edge130" class="edge"><title>BastionIPAddress&#45;&gt;Bastion</title>
<path fill="none" stroke="black" d="M161.493,-143.762C160.811,-119.201 159.59,-75.2474 158.788,-46.3541"/>
<polygon fill="black" stroke="black" points="162.279,-45.9885 158.502,-36.0896 155.282,-46.183 162.279,-45.9885"/>
</g>
<!-- PrivateSubnet -->
<g id="node15" class="node"><title>PrivateSubnet</title>
<polygon fill="none" stroke="black" points="1354,-324 1238,-324 1238,-288 1354,-288 1354,-324"/>
<text text-anchor="middle" x="1296" y="-302.4" font-family="Times Roman,serif" font-size="14.00">PrivateSubnet</text>
</g>
<!-- PrivateSubnet&#45;&gt;SampleEnvironment -->
<g id="edge48" class="edge"><title>PrivateSubnet&#45;&gt;SampleEnvironment</title>
<path fill="none" stroke="black" d="M1237.78,-295.37C1222.58,-292.774 1206.2,-290.132 1191,-288 1049.34,-268.134 883.952,-251.349 784.999,-241.988"/>
<polygon fill="black" stroke="black" points="785.326,-238.503 775.042,-241.05 784.67,-245.472 785.326,-238.503"/>
</g>
<!-- PrivateSubnet&#45;&gt;PrivateSubnetNetworkAclAssociation -->
<g id="edge52" class="edge"><title>PrivateSubnet&#45;&gt;PrivateSubnetNetworkAclAssociation</title>
<path fill="none" stroke="black" d="M1354.32,-289.636C1357.25,-289.034 1360.15,-288.483 1363,-288 1574.6,-252.118 1633.36,-272.781 1850.66,-252.093"/>
<polygon fill="black" stroke="black" points="1851.18,-255.559 1860.8,-251.109 1850.5,-248.592 1851.18,-255.559"/>
</g>
<!-- PrivateSubnet&#45;&gt;PrivateSubnetRouteTableAssociation -->
<g id="edge96" class="edge"><title>PrivateSubnet&#45;&gt;PrivateSubnetRouteTableAssociation</title>
<path fill="none" stroke="black" d="M1354.08,-290.276C1357.09,-289.498 1360.08,-288.735 1363,-288 1409.22,-276.369 1460.87,-264.171 1503.49,-254.317"/>
<polygon fill="black" stroke="black" points="1504.32,-257.717 1513.28,-252.059 1502.75,-250.896 1504.32,-257.717"/>
</g>
<!-- InboundHTTPPublicNetworkAclEntry -->
<g id="node16" class="node"><title>InboundHTTPPublicNetworkAclEntry</title>
<polygon fill="none" stroke="black" points="1987,-108 1719,-108 1719,-72 1987,-72 1987,-108"/>
<text text-anchor="middle" x="1853" y="-86.4" font-family="Times Roman,serif" font-size="14.00">InboundHTTPPublicNetworkAclEntry</text>
</g>
<!-- InboundHTTPSPublicNetworkAclEntry -->
<g id="node18" class="node"><title>InboundHTTPSPublicNetworkAclEntry</title>
<polygon fill="none" stroke="black" points="1103,-108 825,-108 825,-72 1103,-72 1103,-108"/>
<text text-anchor="middle" x="964" y="-86.4" font-family="Times Roman,serif" font-size="14.00">InboundHTTPSPublicNetworkAclEntry</text>
</g>
<!-- InboundEmphemeralPublicNetworkAclEntry -->
<g id="node19" class="node"><title>InboundEmphemeralPublicNetworkAclEntry</title>
<polygon fill="none" stroke="black" points="1439,-108 1121,-108 1121,-72 1439,-72 1439,-108"/>
<text text-anchor="middle" x="1280" y="-86.4" font-family="Times Roman,serif" font-size="14.00">InboundEmphemeralPublicNetworkAclEntry</text>
</g>
<!-- InboundSSHPublicNetworkAclEntry -->
<g id="node20" class="node"><title>InboundSSHPublicNetworkAclEntry</title>
<polygon fill="none" stroke="black" points="525,-108 265,-108 265,-72 525,-72 525,-108"/>
<text text-anchor="middle" x="395" y="-86.4" font-family="Times Roman,serif" font-size="14.00">InboundSSHPublicNetworkAclEntry</text>
</g>
<!-- BeanstalkSecurityGroup -->
<g id="node21" class="node"><title>BeanstalkSecurityGroup</title>
<polygon fill="none" stroke="black" points="1182,-324 998,-324 998,-288 1182,-288 1182,-324"/>
<text text-anchor="middle" x="1090" y="-302.4" font-family="Times Roman,serif" font-size="14.00">BeanstalkSecurityGroup</text>
</g>
<!-- BeanstalkSecurityGroup&#45;&gt;SampleEnvironment -->
<g id="edge42" class="edge"><title>BeanstalkSecurityGroup&#45;&gt;SampleEnvironment</title>
<path fill="none" stroke="black" d="M997.859,-289.119C933.684,-277.362 848.588,-261.772 785.276,-250.173"/>
<polygon fill="black" stroke="black" points="785.776,-246.706 775.309,-248.347 784.514,-253.592 785.776,-246.706"/>
</g>
<!-- BeanstalkSecurityGroup&#45;&gt;NATSecurityGroup -->
<g id="edge58" class="edge"><title>BeanstalkSecurityGroup&#45;&gt;NATSecurityGroup</title>
<path fill="none" stroke="black" d="M1154.1,-287.924C1193.65,-277.451 1244.72,-264.261 1287.17,-253.548"/>
<polygon fill="black" stroke="black" points="1288.08,-256.928 1296.93,-251.092 1286.37,-250.139 1288.08,-256.928"/>
</g>
<!-- BeanstalkSecurityGroup&#45;&gt;NATSecurityGroup -->
<g id="edge60" class="edge"><title>BeanstalkSecurityGroup&#45;&gt;NATSecurityGroup</title>
<path fill="none" stroke="black" d="M1165.99,-287.924C1206.11,-277.825 1255.12,-265.198 1294.95,-254.703"/>
<polygon fill="black" stroke="black" points="1296.1,-258.021 1304.87,-252.083 1294.31,-251.253 1296.1,-258.021"/>
</g>
<!-- VPC -->
<g id="node22" class="node"><title>VPC</title>
<polygon fill="none" stroke="black" points="1265,-396 1211,-396 1211,-360 1265,-360 1265,-396"/>
<text text-anchor="middle" x="1238" y="-374.4" font-family="Times Roman,serif" font-size="14.00">VPC</text>
</g>
<!-- VPC&#45;&gt;GatewayToInternet -->
<g id="edge16" class="edge"><title>VPC&#45;&gt;GatewayToInternet</title>
<path fill="none" stroke="black" d="M1265.1,-375.447C1332.26,-368.947 1511.94,-350.507 1671.6,-324.164"/>
<polygon fill="black" stroke="black" points="1672.31,-327.594 1681.6,-322.499 1671.16,-320.689 1672.31,-327.594"/>
</g>
<!-- VPC&#45;&gt;PublicSubnet -->
<g id="edge24" class="edge"><title>VPC&#45;&gt;PublicSubnet</title>
<path fill="none" stroke="black" d="M1210.77,-373.387C1143.95,-362.067 970.494,-332.681 876.225,-316.711"/>
<polygon fill="black" stroke="black" points="876.689,-313.24 866.245,-315.02 875.52,-320.142 876.689,-313.24"/>
</g>
<!-- VPC&#45;&gt;PrivateRouteTable -->
<g id="edge34" class="edge"><title>VPC&#45;&gt;PrivateRouteTable</title>
<path fill="none" stroke="black" d="M1265.37,-372.882C1313.23,-363.88 1415.46,-344.404 1512,-324.184"/>
<polygon fill="black" stroke="black" points="1512.86,-327.581 1521.92,-322.099 1511.42,-320.73 1512.86,-327.581"/>
</g>
<!-- VPC&#45;&gt;SampleEnvironment -->
<g id="edge46" class="edge"><title>VPC&#45;&gt;SampleEnvironment</title>
<path fill="none" stroke="black" d="M1210.91,-376.398C1114.24,-370.492 789.932,-348.976 751,-324 728.726,-309.71 714.345,-282.667 706.07,-261.941"/>
<polygon fill="black" stroke="black" points="709.268,-260.5 702.49,-252.357 702.71,-262.95 709.268,-260.5"/>
</g>
<!-- VPC&#45;&gt;NATSecurityGroup -->
<g id="edge62" class="edge"><title>VPC&#45;&gt;NATSecurityGroup</title>
<path fill="none" stroke="black" d="M1229.7,-359.711C1222.22,-340.199 1214.43,-309.235 1229,-288 1237.11,-276.179 1264.12,-264.541 1292.29,-255.114"/>
<polygon fill="black" stroke="black" points="1293.43,-258.424 1301.86,-252.005 1291.26,-251.767 1293.43,-258.424"/>
</g>
<!-- VPC&#45;&gt;PrivateNetworkAcl -->
<g id="edge64" class="edge"><title>VPC&#45;&gt;PrivateNetworkAcl</title>
<path fill="none" stroke="black" d="M1265.16,-375.842C1350.38,-369.014 1620.09,-346.97 1843,-324 1865.97,-321.632 1890.85,-318.83 1913.77,-316.15"/>
<polygon fill="black" stroke="black" points="1914.28,-319.614 1923.8,-314.97 1913.46,-312.662 1914.28,-319.614"/>
</g>
<!-- VPC&#45;&gt;PrivateSubnet -->
<g id="edge74" class="edge"><title>VPC&#45;&gt;PrivateSubnet</title>
<path fill="none" stroke="black" d="M1252.64,-359.831C1259.32,-351.539 1267.36,-341.557 1274.69,-332.453"/>
<polygon fill="black" stroke="black" points="1277.62,-334.396 1281.17,-324.413 1272.17,-330.005 1277.62,-334.396"/>
</g>
<!-- VPC&#45;&gt;BeanstalkSecurityGroup -->
<g id="edge92" class="edge"><title>VPC&#45;&gt;BeanstalkSecurityGroup</title>
<path fill="none" stroke="black" d="M1210.85,-364.794C1189.99,-354.643 1160.68,-340.383 1136.15,-328.45"/>
<polygon fill="black" stroke="black" points="1137.53,-325.231 1127.01,-324.003 1134.47,-331.525 1137.53,-325.231"/>
</g>
<!-- BastionSecurityGroup -->
<g id="node25" class="node"><title>BastionSecurityGroup</title>
<polygon fill="none" stroke="black" points="506,-324 338,-324 338,-288 506,-288 506,-324"/>
<text text-anchor="middle" x="422" y="-302.4" font-family="Times Roman,serif" font-size="14.00">BastionSecurityGroup</text>
</g>
<!-- VPC&#45;&gt;BastionSecurityGroup -->
<g id="edge104" class="edge"><title>VPC&#45;&gt;BastionSecurityGroup</title>
<path fill="none" stroke="black" d="M1210.97,-377.118C1116.62,-373.803 793.138,-360.433 516.318,-324.087"/>
<polygon fill="black" stroke="black" points="516.451,-320.574 506.077,-322.729 515.53,-327.513 516.451,-320.574"/>
</g>
<!-- PublicRouteTable -->
<g id="node27" class="node"><title>PublicRouteTable</title>
<polygon fill="none" stroke="black" points="1504,-324 1372,-324 1372,-288 1504,-288 1504,-324"/>
<text text-anchor="middle" x="1438" y="-302.4" font-family="Times Roman,serif" font-size="14.00">PublicRouteTable</text>
</g>
<!-- VPC&#45;&gt;PublicRouteTable -->
<g id="edge108" class="edge"><title>VPC&#45;&gt;PublicRouteTable</title>
<path fill="none" stroke="black" d="M1265.39,-368.14C1294.26,-357.746 1340.66,-341.044 1378.08,-327.572"/>
<polygon fill="black" stroke="black" points="1379.65,-330.725 1387.88,-324.045 1377.28,-324.139 1379.65,-330.725"/>
</g>
<!-- PublicNetworkAcl -->
<g id="node29" class="node"><title>PublicNetworkAcl</title>
<polygon fill="none" stroke="black" points="1028,-180 892,-180 892,-144 1028,-144 1028,-180"/>
<text text-anchor="middle" x="960" y="-158.4" font-family="Times Roman,serif" font-size="14.00">PublicNetworkAcl</text>
</g>
<!-- VPC&#45;&gt;PublicNetworkAcl -->
<g id="edge114" class="edge"><title>VPC&#45;&gt;PublicNetworkAcl</title>
<path fill="none" stroke="black" d="M1210.57,-375.834C1152.4,-370.663 1019.47,-355.604 989,-324 954.582,-288.305 953.501,-226.556 956.376,-190.482"/>
<polygon fill="black" stroke="black" points="959.894,-190.456 957.362,-180.168 952.926,-189.79 959.894,-190.456"/>
</g>
<!-- OutboundPublicNetworkAclEntry -->
<g id="node24" class="node"><title>OutboundPublicNetworkAclEntry</title>
<polygon fill="none" stroke="black" points="1701,-108 1457,-108 1457,-72 1701,-72 1701,-108"/>
<text text-anchor="middle" x="1579" y="-86.4" font-family="Times Roman,serif" font-size="14.00">OutboundPublicNetworkAclEntry</text>
</g>
<!-- BastionSecurityGroup&#45;&gt;BastionHost -->
<g id="edge10" class="edge"><title>BastionSecurityGroup&#45;&gt;BastionHost</title>
<path fill="none" stroke="black" d="M364.76,-287.924C331.024,-277.271 288.383,-263.805 254.152,-252.995"/>
<polygon fill="black" stroke="black" points="254.867,-249.551 244.278,-249.877 252.759,-256.226 254.867,-249.551"/>
</g>
<!-- BastionSecurityGroup&#45;&gt;SampleEnvironment -->
<g id="edge40" class="edge"><title>BastionSecurityGroup&#45;&gt;SampleEnvironment</title>
<path fill="none" stroke="black" d="M491.039,-287.924C529.696,-277.803 578.045,-265.145 618.182,-254.636"/>
<polygon fill="black" stroke="black" points="619.145,-258.002 627.932,-252.083 617.372,-251.23 619.145,-258.002"/>
</g>
<!-- SampleApplication -->
<g id="node26" class="node"><title>SampleApplication</title>
<polygon fill="none" stroke="black" points="666,-324 524,-324 524,-288 666,-288 666,-324"/>
<text text-anchor="middle" x="595" y="-302.4" font-family="Times Roman,serif" font-size="14.00">SampleApplication</text>
</g>
<!-- SampleApplication&#45;&gt;SampleEnvironment -->
<g id="edge38" class="edge"><title>SampleApplication&#45;&gt;SampleEnvironment</title>
<path fill="none" stroke="black" d="M620.739,-287.831C633.544,-278.793 649.191,-267.748 662.972,-258.02"/>
<polygon fill="black" stroke="black" points="665.118,-260.789 671.269,-252.163 661.081,-255.07 665.118,-260.789"/>
</g>
<!-- PublicRouteTable&#45;&gt;PublicRoute -->
<g id="edge22" class="edge"><title>PublicRouteTable&#45;&gt;PublicRoute</title>
<path fill="none" stroke="black" d="M1504.19,-289.827C1507.17,-289.191 1510.11,-288.579 1513,-288 1608.36,-268.888 1636.51,-274.545 1735.01,-252.062"/>
<polygon fill="black" stroke="black" points="1735.82,-255.467 1744.77,-249.796 1734.24,-248.649 1735.82,-255.467"/>
</g>
<!-- PublicRouteTable&#45;&gt;PublicSubnetRouteTableAssociation -->
<g id="edge82" class="edge"><title>PublicRouteTable&#45;&gt;PublicSubnetRouteTableAssociation</title>
<path fill="none" stroke="black" d="M1371.7,-289.482C1329.94,-279.08 1275.73,-265.572 1231.24,-254.489"/>
<polygon fill="black" stroke="black" points="1231.87,-251.04 1221.32,-252.019 1230.18,-257.832 1231.87,-251.04"/>
</g>
<!-- NATIPAddress -->
<g id="node28" class="node"><title>NATIPAddress</title>
<polygon fill="none" stroke="black" points="2117,-108 2005,-108 2005,-72 2117,-72 2117,-108"/>
<text text-anchor="middle" x="2061" y="-86.4" font-family="Times Roman,serif" font-size="14.00">NATIPAddress</text>
</g>
<!-- PublicNetworkAcl&#45;&gt;PublicSubnetNetworkAclAssociation -->
<g id="edge30" class="edge"><title>PublicNetworkAcl&#45;&gt;PublicSubnetNetworkAclAssociation</title>
<path fill="none" stroke="black" d="M891.735,-144.754C851.02,-134.468 799.088,-121.348 756.266,-110.53"/>
<polygon fill="black" stroke="black" points="756.987,-107.103 746.434,-108.047 755.272,-113.889 756.987,-107.103"/>
</g>
<!-- PublicNetworkAcl&#45;&gt;InboundHTTPPublicNetworkAclEntry -->
<g id="edge78" class="edge"><title>PublicNetworkAcl&#45;&gt;InboundHTTPPublicNetworkAclEntry</title>
<path fill="none" stroke="black" d="M1028.1,-158.317C1158.19,-151.014 1451.25,-133.28 1708.39,-108.131"/>
<polygon fill="black" stroke="black" points="1709.07,-111.582 1718.68,-107.12 1708.38,-104.615 1709.07,-111.582"/>
</g>
<!-- PublicNetworkAcl&#45;&gt;InboundHTTPSPublicNetworkAclEntry -->
<g id="edge84" class="edge"><title>PublicNetworkAcl&#45;&gt;InboundHTTPSPublicNetworkAclEntry</title>
<path fill="none" stroke="black" d="M961.009,-143.831C961.437,-136.131 961.946,-126.974 962.421,-118.417"/>
<polygon fill="black" stroke="black" points="965.917,-118.592 962.977,-108.413 958.928,-118.204 965.917,-118.592"/>
</g>
<!-- PublicNetworkAcl&#45;&gt;InboundEmphemeralPublicNetworkAclEntry -->
<g id="edge86" class="edge"><title>PublicNetworkAcl&#45;&gt;InboundEmphemeralPublicNetworkAclEntry</title>
<path fill="none" stroke="black" d="M1028.26,-146.643C1075.5,-136.011 1138.88,-121.753 1190.22,-110.202"/>
<polygon fill="black" stroke="black" points="1191,-113.613 1199.98,-108.004 1189.46,-106.784 1191,-113.613"/>
</g>
<!-- PublicNetworkAcl&#45;&gt;InboundSSHPublicNetworkAclEntry -->
<g id="edge88" class="edge"><title>PublicNetworkAcl&#45;&gt;InboundSSHPublicNetworkAclEntry</title>
<path fill="none" stroke="black" d="M891.746,-153.405C809.747,-143.067 667.704,-125.118 535.528,-108.194"/>
<polygon fill="black" stroke="black" points="535.583,-104.673 525.219,-106.874 534.693,-111.616 535.583,-104.673"/>
</g>
<!-- PublicNetworkAcl&#45;&gt;OutboundPublicNetworkAclEntry -->
<g id="edge100" class="edge"><title>PublicNetworkAcl&#45;&gt;OutboundPublicNetworkAclEntry</title>
<path fill="none" stroke="black" d="M1028.36,-155.01C1120.77,-145.431 1290.97,-127.34 1446.75,-108.139"/>
<polygon fill="black" stroke="black" points="1447.49,-111.574 1456.98,-106.873 1446.63,-104.627 1447.49,-111.574"/>
</g>
<!-- NATDevice&#45;&gt;PrivateRoute -->
<g id="edge68" class="edge"><title>NATDevice&#45;&gt;PrivateRoute</title>
<path fill="none" stroke="black" d="M1763.08,-158.207C1837.43,-151.589 1988.5,-136.081 2124.9,-108.069"/>
<polygon fill="black" stroke="black" points="2125.62,-111.495 2134.7,-106.031 2124.19,-104.642 2125.62,-111.495"/>
</g>
<!-- NATDevice&#45;&gt;NATIPAddress -->
<g id="edge112" class="edge"><title>NATDevice&#45;&gt;NATIPAddress</title>
<path fill="none" stroke="black" d="M1763.15,-154.219C1816.67,-144.941 1907.71,-128.372 1994.91,-108.171"/>
<polygon fill="black" stroke="black" points="1995.76,-111.567 2004.7,-105.884 1994.17,-104.751 1995.76,-111.567"/>
</g>
<!-- BastionInstanceType -->
<g id="node33" class="node"><title>BastionInstanceType</title>
<polygon fill="lightgrey" stroke="lightgrey" points="146,-540 12,-540 4.73695e-14,-528 2.36848e-14,-516 12,-504 146,-504 158,-516 158,-528 146,-540"/>
<path fill="lightgrey" stroke="lightgrey" d="M12,-540C6,-540 5.92119e-14,-534 4.73695e-14,-528"/>
<path fill="lightgrey" stroke="lightgrey" d="M2.36848e-14,-516C1.18424e-14,-510 6,-504 12,-504"/>
<path fill="lightgrey" stroke="lightgrey" d="M146,-504C152,-504 158,-510 158,-516"/>
<path fill="lightgrey" stroke="lightgrey" d="M158,-528C158,-534 152,-540 146,-540"/>
<polyline fill="none" stroke="black" points="146,-540 12,-540 "/>
<path fill="none" stroke="black" d="M12,-540C6,-540 5.92119e-14,-534 4.73695e-14,-528"/>
<polyline fill="none" stroke="black" points="4.73695e-14,-528 2.36848e-14,-516 "/>
<path fill="none" stroke="black" d="M2.36848e-14,-516C1.18424e-14,-510 6,-504 12,-504"/>
<polyline fill="none" stroke="black" points="12,-504 146,-504 "/>
<path fill="none" stroke="black" d="M146,-504C152,-504 158,-510 158,-516"/>
<polyline fill="none" stroke="black" points="158,-516 158,-528 "/>
<path fill="none" stroke="black" d="M158,-528C158,-534 152,-540 146,-540"/>
<text text-anchor="middle" x="79" y="-518.4" font-family="Times Roman,serif" font-size="14.00">BastionInstanceType</text>
</g>
<!-- BastionInstanceType&#45;&gt;BastionHost -->
<g id="edge8" class="edge"><title>BastionInstanceType&#45;&gt;BastionHost</title>
<path fill="none" stroke="black" d="M82.7071,-503.984C98.1168,-455.092 151.963,-319.679 178.926,-261.33"/>
<polygon fill="black" stroke="black" points="182.222,-262.546 183.323,-252.009 175.891,-259.56 182.222,-262.546"/>
</g>
<!-- BastionInstanceType&#45;&gt;BastionHost -->
<g id="edge14" class="edge"><title>BastionInstanceType&#45;&gt;BastionHost</title>
<path fill="none" stroke="black" d="M89.6804,-503.984C113.268,-455.193 167.389,-320.238 187.126,-261.693"/>
<polygon fill="black" stroke="black" points="190.511,-262.602 190.295,-252.009 183.858,-260.424 190.511,-262.602"/>
</g>
<!-- NATInstanceType -->
<g id="node34" class="node"><title>NATInstanceType</title>
<polygon fill="lightgrey" stroke="lightgrey" points="2560,-540 2450,-540 2438,-528 2438,-516 2450,-504 2560,-504 2572,-516 2572,-528 2560,-540"/>
<path fill="lightgrey" stroke="lightgrey" d="M2450,-540C2444,-540 2438,-534 2438,-528"/>
<path fill="lightgrey" stroke="lightgrey" d="M2438,-516C2438,-510 2444,-504 2450,-504"/>
<path fill="lightgrey" stroke="lightgrey" d="M2560,-504C2566,-504 2572,-510 2572,-516"/>
<path fill="lightgrey" stroke="lightgrey" d="M2572,-528C2572,-534 2566,-540 2560,-540"/>
<polyline fill="none" stroke="black" points="2560,-540 2450,-540 "/>
<path fill="none" stroke="black" d="M2450,-540C2444,-540 2438,-534 2438,-528"/>
<polyline fill="none" stroke="black" points="2438,-528 2438,-516 "/>
<path fill="none" stroke="black" d="M2438,-516C2438,-510 2444,-504 2450,-504"/>
<polyline fill="none" stroke="black" points="2450,-504 2560,-504 "/>
<path fill="none" stroke="black" d="M2560,-504C2566,-504 2572,-510 2572,-516"/>
<polyline fill="none" stroke="black" points="2572,-516 2572,-528 "/>
<path fill="none" stroke="black" d="M2572,-528C2572,-534 2566,-540 2560,-540"/>
<text text-anchor="middle" x="2505" y="-518.4" font-family="Times Roman,serif" font-size="14.00">NATInstanceType</text>
</g>
<!-- NATInstanceType&#45;&gt;NATDevice -->
<g id="edge124" class="edge"><title>NATInstanceType&#45;&gt;NATDevice</title>
<path fill="none" stroke="black" d="M2505,-503.815C2505,-476.498 2505,-423.25 2505,-378 2505,-378 2505,-378 2505,-306 2505,-231.522 1953.24,-180.858 1773.12,-166.304"/>
<polygon fill="black" stroke="black" points="1773.31,-162.808 1763.06,-165.497 1772.75,-169.785 1773.31,-162.808"/>
</g>
<!-- InstanceKeyName -->
<g id="node35" class="node"><title>InstanceKeyName</title>
<polygon fill="lightgrey" stroke="lightgrey" points="752,-540 636,-540 624,-528 624,-516 636,-504 752,-504 764,-516 764,-528 752,-540"/>
<path fill="lightgrey" stroke="lightgrey" d="M636,-540C630,-540 624,-534 624,-528"/>
<path fill="lightgrey" stroke="lightgrey" d="M624,-516C624,-510 630,-504 636,-504"/>
<path fill="lightgrey" stroke="lightgrey" d="M752,-504C758,-504 764,-510 764,-516"/>
<path fill="lightgrey" stroke="lightgrey" d="M764,-528C764,-534 758,-540 752,-540"/>
<polyline fill="none" stroke="black" points="752,-540 636,-540 "/>
<path fill="none" stroke="black" d="M636,-540C630,-540 624,-534 624,-528"/>
<polyline fill="none" stroke="black" points="624,-528 624,-516 "/>
<path fill="none" stroke="black" d="M624,-516C624,-510 630,-504 636,-504"/>
<polyline fill="none" stroke="black" points="636,-504 752,-504 "/>
<path fill="none" stroke="black" d="M752,-504C758,-504 764,-510 764,-516"/>
<polyline fill="none" stroke="black" points="764,-516 764,-528 "/>
<path fill="none" stroke="black" d="M764,-528C764,-534 758,-540 752,-540"/>
<text text-anchor="middle" x="694" y="-518.4" font-family="Times Roman,serif" font-size="14.00">InstanceKeyName</text>
</g>
<!-- InstanceKeyName&#45;&gt;SampleEnvironment -->
<g id="edge44" class="edge"><title>InstanceKeyName&#45;&gt;SampleEnvironment</title>
<path fill="none" stroke="black" d="M694.188,-503.984C694.695,-455.294 696.096,-320.796 696.708,-262.057"/>
<polygon fill="black" stroke="black" points="700.208,-262.045 696.812,-252.009 693.208,-261.972 700.208,-262.045"/>
</g>
<!-- SSHFrom -->
<g id="node36" class="node"><title>SSHFrom</title>
<polygon fill="lightgrey" stroke="lightgrey" points="402,-540 346,-540 334,-528 334,-516 346,-504 402,-504 414,-516 414,-528 402,-540"/>
<path fill="lightgrey" stroke="lightgrey" d="M346,-540C340,-540 334,-534 334,-528"/>
<path fill="lightgrey" stroke="lightgrey" d="M334,-516C334,-510 340,-504 346,-504"/>
<path fill="lightgrey" stroke="lightgrey" d="M402,-504C408,-504 414,-510 414,-516"/>
<path fill="lightgrey" stroke="lightgrey" d="M414,-528C414,-534 408,-540 402,-540"/>
<polyline fill="none" stroke="black" points="402,-540 346,-540 "/>
<path fill="none" stroke="black" d="M346,-540C340,-540 334,-534 334,-528"/>
<polyline fill="none" stroke="black" points="334,-528 334,-516 "/>
<path fill="none" stroke="black" d="M334,-516C334,-510 340,-504 346,-504"/>
<polyline fill="none" stroke="black" points="346,-504 402,-504 "/>
<path fill="none" stroke="black" d="M402,-504C408,-504 414,-510 414,-516"/>
<polyline fill="none" stroke="black" points="414,-516 414,-528 "/>
<path fill="none" stroke="black" d="M414,-528C414,-534 408,-540 402,-540"/>
<text text-anchor="middle" x="374" y="-518.4" font-family="Times Roman,serif" font-size="14.00">SSHFrom</text>
</g>
<!-- SSHFrom&#45;&gt;InboundSSHPublicNetworkAclEntry -->
<g id="edge90" class="edge"><title>SSHFrom&#45;&gt;InboundSSHPublicNetworkAclEntry</title>
<path fill="none" stroke="black" d="M349.827,-503.976C319.665,-479.219 272,-431.614 272,-378 272,-378 272,-378 272,-234 272,-181.646 319.588,-138.708 355.564,-113.729"/>
<polygon fill="black" stroke="black" points="357.624,-116.561 363.962,-108.071 353.713,-110.756 357.624,-116.561"/>
</g>
<!-- SSHFrom&#45;&gt;BastionSecurityGroup -->
<g id="edge102" class="edge"><title>SSHFrom&#45;&gt;BastionSecurityGroup</title>
<path fill="none" stroke="black" d="M378.01,-503.955C386.375,-466.314 405.736,-379.187 415.75,-334.125"/>
<polygon fill="black" stroke="black" points="419.215,-334.666 417.968,-324.145 412.382,-333.148 419.215,-334.666"/>
</g>
<!-- BastionKeyName -->
<g id="node37" class="node"><title>BastionKeyName</title>
<polygon fill="lightgrey" stroke="lightgrey" points="296,-540 188,-540 176,-528 176,-516 188,-504 296,-504 308,-516 308,-528 296,-540"/>
<path fill="lightgrey" stroke="lightgrey" d="M188,-540C182,-540 176,-534 176,-528"/>
<path fill="lightgrey" stroke="lightgrey" d="M176,-516C176,-510 182,-504 188,-504"/>
<path fill="lightgrey" stroke="lightgrey" d="M296,-504C302,-504 308,-510 308,-516"/>
<path fill="lightgrey" stroke="lightgrey" d="M308,-528C308,-534 302,-540 296,-540"/>
<polyline fill="none" stroke="black" points="296,-540 188,-540 "/>
<path fill="none" stroke="black" d="M188,-540C182,-540 176,-534 176,-528"/>
<polyline fill="none" stroke="black" points="176,-528 176,-516 "/>
<path fill="none" stroke="black" d="M176,-516C176,-510 182,-504 188,-504"/>
<polyline fill="none" stroke="black" points="188,-504 296,-504 "/>
<path fill="none" stroke="black" d="M296,-504C302,-504 308,-510 308,-516"/>
<polyline fill="none" stroke="black" points="308,-516 308,-528 "/>
<path fill="none" stroke="black" d="M308,-528C308,-534 302,-540 296,-540"/>
<text text-anchor="middle" x="242" y="-518.4" font-family="Times Roman,serif" font-size="14.00">BastionKeyName</text>
</g>
<!-- BastionKeyName&#45;&gt;BastionHost -->
<g id="edge6" class="edge"><title>BastionKeyName&#45;&gt;BastionHost</title>
<path fill="none" stroke="black" d="M238.997,-503.984C230.882,-455.294 208.466,-320.796 198.676,-262.057"/>
<polygon fill="black" stroke="black" points="202.098,-261.297 197.001,-252.009 195.193,-262.448 202.098,-261.297"/>
</g>
<!-- AWS::Region -->
<g id="node45" class="node"><title>AWS::Region</title>
<polygon fill="none" stroke="black" points="647,-396 543,-396 543,-360 647,-360 647,-396"/>
<text text-anchor="middle" x="595" y="-374.4" font-family="Times Roman,serif" font-size="14.00">AWS::Region</text>
</g>
<!-- AWS::Region&#45;&gt;BastionHost -->
<g id="edge12" class="edge"><title>AWS::Region&#45;&gt;BastionHost</title>
<path fill="none" stroke="black" d="M542.764,-373.42C487.825,-367.238 399.703,-353.406 329,-324 289.573,-307.602 249.501,-279.065 223.374,-258.516"/>
<polygon fill="black" stroke="black" points="225.399,-255.654 215.4,-252.151 221.032,-261.125 225.399,-255.654"/>
</g>
<!-- AWS::Region&#45;&gt;SampleApplication -->
<g id="edge106" class="edge"><title>AWS::Region&#45;&gt;SampleApplication</title>
<path fill="none" stroke="black" d="M595,-359.831C595,-352.131 595,-342.974 595,-334.417"/>
<polygon fill="black" stroke="black" points="598.5,-334.413 595,-324.413 591.5,-334.413 598.5,-334.413"/>
</g>
<!-- AWS::Region&#45;&gt;NATDevice -->
<g id="edge126" class="edge"><title>AWS::Region&#45;&gt;NATDevice</title>
<path fill="none" stroke="black" d="M647.086,-375.425C705.096,-370.894 800.503,-358.403 875,-324 944.758,-291.785 938.516,-244.178 1010,-216 1069.86,-192.404 1503.5,-171.332 1660.47,-164.4"/>
<polygon fill="black" stroke="black" points="1661.01,-167.88 1670.84,-163.945 1660.7,-160.886 1661.01,-167.88"/>
</g>
<!-- AWS::StackName -->
<g id="node53" class="node"><title>AWS::StackName</title>
<polygon fill="none" stroke="black" points="1409,-468 1273,-468 1273,-432 1409,-432 1409,-468"/>
<text text-anchor="middle" x="1341" y="-446.4" font-family="Times Roman,serif" font-size="14.00">AWS::StackName</text>
</g>
<!-- AWS::StackName&#45;&gt;PublicSubnet -->
<g id="edge26" class="edge"><title>AWS::StackName&#45;&gt;PublicSubnet</title>
<path fill="none" stroke="black" d="M1272.95,-446.064C1169.98,-439.313 979.998,-423.523 918,-396 884.921,-381.315 854.392,-352.719 834.879,-331.686"/>
<polygon fill="black" stroke="black" points="837.263,-329.104 827.957,-324.04 832.074,-333.802 837.263,-329.104"/>
</g>
<!-- AWS::StackName&#45;&gt;InternetGateway -->
<g id="edge32" class="edge"><title>AWS::StackName&#45;&gt;InternetGateway</title>
<path fill="none" stroke="black" d="M1409.39,-438.191C1483.58,-425.382 1601.82,-404.967 1679.68,-391.523"/>
<polygon fill="black" stroke="black" points="1680.66,-394.906 1689.92,-389.755 1679.47,-388.008 1680.66,-394.906"/>
</g>
<!-- AWS::StackName&#45;&gt;PrivateRouteTable -->
<g id="edge36" class="edge"><title>AWS::StackName&#45;&gt;PrivateRouteTable</title>
<path fill="none" stroke="black" d="M1372.66,-431.908C1418.21,-405.881 1502.24,-357.864 1552.33,-329.24"/>
<polygon fill="black" stroke="black" points="1554.32,-332.131 1561.27,-324.131 1550.85,-326.054 1554.32,-332.131"/>
</g>
<!-- AWS::StackName&#45;&gt;PrivateNetworkAcl -->
<g id="edge66" class="edge"><title>AWS::StackName&#45;&gt;PrivateNetworkAcl</title>
<path fill="none" stroke="black" d="M1409.3,-445.888C1525.69,-438.323 1757.41,-420.682 1835,-396 1882.64,-380.844 1932.14,-350.928 1963.68,-329.754"/>
<polygon fill="black" stroke="black" points="1965.79,-332.553 1972.08,-324.033 1961.85,-326.767 1965.79,-332.553"/>
</g>
<!-- AWS::StackName&#45;&gt;PrivateSubnet -->
<g id="edge76" class="edge"><title>AWS::StackName&#45;&gt;PrivateSubnet</title>
<path fill="none" stroke="black" d="M1335.3,-431.762C1327.59,-407.093 1313.77,-362.86 1304.74,-333.973"/>
<polygon fill="black" stroke="black" points="1307.98,-332.59 1301.65,-324.09 1301.3,-334.678 1307.98,-332.59"/>
</g>
<!-- AWS::StackName&#45;&gt;VPC -->
<g id="edge94" class="edge"><title>AWS::StackName&#45;&gt;VPC</title>
<path fill="none" stroke="black" d="M1315.01,-431.831C1302.08,-422.793 1286.28,-411.748 1272.36,-402.02"/>
<polygon fill="black" stroke="black" points="1274.18,-399.024 1263.98,-396.163 1270.17,-404.761 1274.18,-399.024"/>
</g>
<!-- AWS::StackName&#45;&gt;PublicRouteTable -->
<g id="edge110" class="edge"><title>AWS::StackName&#45;&gt;PublicRouteTable</title>
<path fill="none" stroke="black" d="M1353.29,-431.762C1370.19,-406.66 1400.75,-361.302 1420.17,-332.467"/>
<polygon fill="black" stroke="black" points="1423.13,-334.339 1425.81,-324.09 1417.32,-330.428 1423.13,-334.339"/>
</g>
<!-- AWS::StackName&#45;&gt;PublicNetworkAcl -->
<g id="edge116" class="edge"><title>AWS::StackName&#45;&gt;PublicNetworkAcl</title>
<path fill="none" stroke="black" d="M1272.75,-436.06C1175.31,-414.754 1003.61,-371.528 963,-324 931.233,-286.823 941.226,-225.435 950.912,-189.86"/>
<polygon fill="black" stroke="black" points="954.311,-190.707 953.732,-180.128 947.587,-188.759 954.311,-190.707"/>
</g>
</g>
</svg>
