<?xml version="1.0" encoding="UTF-8" standalone="no"?>
<!DOCTYPE svg PUBLIC "-//W3C//DTD SVG 1.1//EN"
 "http://www.w3.org/Graphics/SVG/1.1/DTD/svg11.dtd">
<!-- Generated by graphviz version 2.26.3 (20100126.1600)
 -->
<!-- Title: AWS CloudFormation Sample Template ElastiCache: Sample template showing how to create an Amazon ElastiCache Cache Cluster with Auto Discovery and access it from a very simple PHP application. **WARNING** This template creates an Amazon Ec2 Instance and an Amazon ElastiCache Cluster. You will be billed for the AWS resources used if you create a stack from this template. Pages: 1 -->
<svg width="908pt" height="332pt"
 viewBox="0.00 0.00 908.00 332.00" xmlns="http://www.w3.org/2000/svg" xmlns:xlink="http://www.w3.org/1999/xlink">
<g id="graph1" class="graph" transform="scale(1 1) rotate(0) translate(4 328)">
<title>AWS CloudFormation Sample Template ElastiCache: Sample template showing how to create an Amazon ElastiCache Cache Cluster with Auto Discovery and access it from a very simple PHP application. **WARNING** This template creates an Amazon Ec2 Instance and an Amazon ElastiCache Cluster. You will be billed for the AWS resources used if you create a stack from this template.</title>
<polygon fill="white" stroke="white" points="-4,5 -4,-328 905,-328 905,5 -4,5"/>
<!-- WebServerHost -->
<g id="node1" class="node"><title>WebServerHost</title>
<polygon fill="none" stroke="black" points="759,-108 635,-108 635,-72 759,-72 759,-108"/>
<text text-anchor="middle" x="697" y="-86.4" font-family="Times Roman,serif" font-size="14.00">WebServerHost</text>
</g>
<!-- WebsiteURL -->
<g id="node15" class="node"><title>WebsiteURL</title>
<polygon fill="lightgrey" stroke="lightgrey" points="735,-36 659,-36 647,-24 647,-12 659,-1.60583e-14 735,-5.25802e-15 747,-12 747,-24 735,-36"/>
<path fill="lightgrey" stroke="lightgrey" d="M659,-36C653,-36 647,-30 647,-24"/>
<path fill="lightgrey" stroke="lightgrey" d="M647,-12C647,-6 653,-1.69109e-14 659,-1.60583e-14"/>
<path fill="lightgrey" stroke="lightgrey" d="M735,-5.25802e-15C741,-4.40536e-15 747,-6 747,-12"/>
<path fill="lightgrey" stroke="lightgrey" d="M747,-24C747,-30 741,-36 735,-36"/>
<polyline fill="none" stroke="black" points="735,-36 659,-36 "/>
<path fill="none" stroke="black" d="M659,-36C653,-36 647,-30 647,-24"/>
<polyline fill="none" stroke="black" points="647,-24 647,-12 "/>
<path fill="none" stroke="black" d="M647,-12C647,-6 653,-1.69109e-14 659,-1.60583e-14"/>
<polyline fill="none" stroke="black" points="659,-1.60583e-14 735,-5.25802e-15 "/>
<path fill="none" stroke="black" d="M735,-5.25802e-15C741,-4.40536e-15 747,-6 747,-12"/>
<polyline fill="none" stroke="black" points="747,-12 747,-24 "/>
<path fill="none" stroke="black" d="M747,-24C747,-30 741,-36 735,-36"/>
<text text-anchor="middle" x="697" y="-14.4" font-family="Times Roman,serif" font-size="14.00">WebsiteURL</text>
</g>
<!-- WebServerHost&#45;&gt;WebsiteURL -->
<g id="edge38" class="edge"><title>WebServerHost&#45;&gt;WebsiteURL</title>
<path fill="none" stroke="black" d="M697,-71.8314C697,-64.131 697,-54.9743 697,-46.4166"/>
<polygon fill="black" stroke="black" points="700.5,-46.4132 697,-36.4133 693.5,-46.4133 700.5,-46.4132"/>
</g>
<!-- WebServerWaitHandle -->
<g id="node2" class="node"><title>WebServerWaitHandle</title>
<polygon fill="none" stroke="black" points="256,-180 84,-180 84,-144 256,-144 256,-180"/>
<text text-anchor="middle" x="170" y="-158.4" font-family="Times Roman,serif" font-size="14.00">WebServerWaitHandle</text>
</g>
<!-- WebServerWaitHandle&#45;&gt;WebServerHost -->
<g id="edge8" class="edge"><title>WebServerWaitHandle&#45;&gt;WebServerHost</title>
<path fill="none" stroke="black" d="M256.172,-145.428C259.149,-144.933 262.098,-144.456 265,-144 391.103,-124.192 538.836,-107.017 624.778,-97.6225"/>
<polygon fill="black" stroke="black" points="625.385,-101.077 634.947,-96.5156 624.627,-94.1183 625.385,-101.077"/>
</g>
<!-- WebServerWaitCondition -->
<g id="node4" class="node"><title>WebServerWaitCondition</title>
<polygon fill="none" stroke="black" points="265,-108 75,-108 75,-72 265,-72 265,-108"/>
<text text-anchor="middle" x="170" y="-86.4" font-family="Times Roman,serif" font-size="14.00">WebServerWaitCondition</text>
</g>
<!-- WebServerWaitHandle&#45;&gt;WebServerWaitCondition -->
<g id="edge30" class="edge"><title>WebServerWaitHandle&#45;&gt;WebServerWaitCondition</title>
<path fill="none" stroke="black" d="M170,-143.831C170,-136.131 170,-126.974 170,-118.417"/>
<polygon fill="black" stroke="black" points="173.5,-118.413 170,-108.413 166.5,-118.413 173.5,-118.413"/>
</g>
<!-- CacheCluster -->
<g id="node3" class="node"><title>CacheCluster</title>
<polygon fill="none" stroke="black" points="382,-180 274,-180 274,-144 382,-144 382,-180"/>
<text text-anchor="middle" x="328" y="-158.4" font-family="Times Roman,serif" font-size="14.00">CacheCluster</text>
</g>
<!-- CacheCluster&#45;&gt;WebServerHost -->
<g id="edge20" class="edge"><title>CacheCluster&#45;&gt;WebServerHost</title>
<path fill="none" stroke="black" d="M381.667,-144.077C381.778,-144.051 381.889,-144.026 382,-144 464.333,-125.027 560.459,-109.057 624.745,-99.5175"/>
<polygon fill="black" stroke="black" points="625.397,-102.959 634.782,-98.0422 624.379,-96.0338 625.397,-102.959"/>
</g>
<!-- CacheCluster&#45;&gt;WebServerHost -->
<g id="edge22" class="edge"><title>CacheCluster&#45;&gt;WebServerHost</title>
<path fill="none" stroke="black" d="M382.202,-148.457C388.214,-146.86 394.236,-145.328 400,-144 476.279,-126.422 564.398,-111.422 624.789,-101.725"/>
<polygon fill="black" stroke="black" points="625.661,-105.13 634.984,-100.095 624.557,-98.2175 625.661,-105.13"/>
</g>
<!-- WebServerSecurityGroup -->
<g id="node5" class="node"><title>WebServerSecurityGroup</title>
<polygon fill="none" stroke="black" points="646,-252 454,-252 454,-216 646,-216 646,-252"/>
<text text-anchor="middle" x="550" y="-230.4" font-family="Times Roman,serif" font-size="14.00">WebServerSecurityGroup</text>
</g>
<!-- WebServerSecurityGroup&#45;&gt;WebServerHost -->
<g id="edge12" class="edge"><title>WebServerSecurityGroup&#45;&gt;WebServerHost</title>
<path fill="none" stroke="black" d="M574.373,-215.928C587.45,-205.848 603.588,-192.779 617,-180 638.358,-159.649 660.478,-134.387 676.031,-115.812"/>
<polygon fill="black" stroke="black" points="678.786,-117.972 682.48,-108.042 673.4,-113.501 678.786,-117.972"/>
</g>
<!-- CacheSecurityGroupIngress -->
<g id="node7" class="node"><title>CacheSecurityGroupIngress</title>
<polygon fill="none" stroke="black" points="608,-180 400,-180 400,-144 608,-144 608,-180"/>
<text text-anchor="middle" x="504" y="-158.4" font-family="Times Roman,serif" font-size="14.00">CacheSecurityGroupIngress</text>
</g>
<!-- WebServerSecurityGroup&#45;&gt;CacheSecurityGroupIngress -->
<g id="edge34" class="edge"><title>WebServerSecurityGroup&#45;&gt;CacheSecurityGroupIngress</title>
<path fill="none" stroke="black" d="M538.392,-215.831C533.202,-207.708 526.977,-197.964 521.258,-189.012"/>
<polygon fill="black" stroke="black" points="524.097,-186.956 515.764,-180.413 518.199,-190.725 524.097,-186.956"/>
</g>
<!-- CacheSecurityGroup -->
<g id="node6" class="node"><title>CacheSecurityGroup</title>
<polygon fill="none" stroke="black" points="436,-252 278,-252 278,-216 436,-216 436,-252"/>
<text text-anchor="middle" x="357" y="-230.4" font-family="Times Roman,serif" font-size="14.00">CacheSecurityGroup</text>
</g>
<!-- CacheSecurityGroup&#45;&gt;CacheCluster -->
<g id="edge24" class="edge"><title>CacheSecurityGroup&#45;&gt;CacheCluster</title>
<path fill="none" stroke="black" d="M349.682,-215.831C346.512,-207.962 342.73,-198.571 339.219,-189.853"/>
<polygon fill="black" stroke="black" points="342.399,-188.381 335.416,-180.413 335.906,-190.997 342.399,-188.381"/>
</g>
<!-- CacheSecurityGroup&#45;&gt;CacheSecurityGroupIngress -->
<g id="edge36" class="edge"><title>CacheSecurityGroup&#45;&gt;CacheSecurityGroupIngress</title>
<path fill="none" stroke="black" d="M394.094,-215.831C413.493,-206.33 437.417,-194.612 457.986,-184.537"/>
<polygon fill="black" stroke="black" points="459.731,-187.58 467.172,-180.038 456.652,-181.293 459.731,-187.58"/>
</g>
<!-- SSHLocation -->
<g id="node9" class="node"><title>SSHLocation</title>
<polygon fill="lightgrey" stroke="lightgrey" points="590,-324 510,-324 498,-312 498,-300 510,-288 590,-288 602,-300 602,-312 590,-324"/>
<path fill="lightgrey" stroke="lightgrey" d="M510,-324C504,-324 498,-318 498,-312"/>
<path fill="lightgrey" stroke="lightgrey" d="M498,-300C498,-294 504,-288 510,-288"/>
<path fill="lightgrey" stroke="lightgrey" d="M590,-288C596,-288 602,-294 602,-300"/>
<path fill="lightgrey" stroke="lightgrey" d="M602,-312C602,-318 596,-324 590,-324"/>
<polyline fill="none" stroke="black" points="590,-324 510,-324 "/>
<path fill="none" stroke="black" d="M510,-324C504,-324 498,-318 498,-312"/>
<polyline fill="none" stroke="black" points="498,-312 498,-300 "/>
<path fill="none" stroke="black" d="M498,-300C498,-294 504,-288 510,-288"/>
<polyline fill="none" stroke="black" points="510,-288 590,-288 "/>
<path fill="none" stroke="black" d="M590,-288C596,-288 602,-294 602,-300"/>
<polyline fill="none" stroke="black" points="602,-300 602,-312 "/>
<path fill="none" stroke="black" d="M602,-312C602,-318 596,-324 590,-324"/>
<text text-anchor="middle" x="550" y="-302.4" font-family="Times Roman,serif" font-size="14.00">SSHLocation</text>
</g>
<!-- SSHLocation&#45;&gt;WebServerSecurityGroup -->
<g id="edge32" class="edge"><title>SSHLocation&#45;&gt;WebServerSecurityGroup</title>
<path fill="none" stroke="black" d="M550,-287.831C550,-280.131 550,-270.974 550,-262.417"/>
<polygon fill="black" stroke="black" points="553.5,-262.413 550,-252.413 546.5,-262.413 553.5,-262.413"/>
</g>
<!-- KeyName -->
<g id="node10" class="node"><title>KeyName</title>
<polygon fill="lightgrey" stroke="lightgrey" points="695,-324 639,-324 627,-312 627,-300 639,-288 695,-288 707,-300 707,-312 695,-324"/>
<path fill="lightgrey" stroke="lightgrey" d="M639,-324C633,-324 627,-318 627,-312"/>
<path fill="lightgrey" stroke="lightgrey" d="M627,-300C627,-294 633,-288 639,-288"/>
<path fill="lightgrey" stroke="lightgrey" d="M695,-288C701,-288 707,-294 707,-300"/>
<path fill="lightgrey" stroke="lightgrey" d="M707,-312C707,-318 701,-324 695,-324"/>
<polyline fill="none" stroke="black" points="695,-324 639,-324 "/>
<path fill="none" stroke="black" d="M639,-324C633,-324 627,-318 627,-312"/>
<polyline fill="none" stroke="black" points="627,-312 627,-300 "/>
<path fill="none" stroke="black" d="M627,-300C627,-294 633,-288 639,-288"/>
<polyline fill="none" stroke="black" points="639,-288 695,-288 "/>
<path fill="none" stroke="black" d="M695,-288C701,-288 707,-294 707,-300"/>
<polyline fill="none" stroke="black" points="707,-300 707,-312 "/>
<path fill="none" stroke="black" d="M707,-312C707,-318 701,-324 695,-324"/>
<text text-anchor="middle" x="667" y="-302.4" font-family="Times Roman,serif" font-size="14.00">KeyName</text>
</g>
<!-- KeyName&#45;&gt;WebServerHost -->
<g id="edge10" class="edge"><title>KeyName&#45;&gt;WebServerHost</title>
<path fill="none" stroke="black" d="M669.506,-287.955C674.734,-250.314 686.835,-163.187 693.094,-118.125"/>
<polygon fill="black" stroke="black" points="696.571,-118.532 694.48,-108.145 689.637,-117.568 696.571,-118.532"/>
</g>
<!-- NumberOfCacheNodes -->
<g id="node11" class="node"><title>NumberOfCacheNodes</title>
<polygon fill="lightgrey" stroke="lightgrey" points="158,-324 12,-324 5.68434e-14,-312 2.84217e-14,-300 12,-288 158,-288 170,-300 170,-312 158,-324"/>
<path fill="lightgrey" stroke="lightgrey" d="M12,-324C6,-324 7.10543e-14,-318 5.68434e-14,-312"/>
<path fill="lightgrey" stroke="lightgrey" d="M2.84217e-14,-300C1.42109e-14,-294 6,-288 12,-288"/>
<path fill="lightgrey" stroke="lightgrey" d="M158,-288C164,-288 170,-294 170,-300"/>
<path fill="lightgrey" stroke="lightgrey" d="M170,-312C170,-318 164,-324 158,-324"/>
<polyline fill="none" stroke="black" points="158,-324 12,-324 "/>
<path fill="none" stroke="black" d="M12,-324C6,-324 7.10543e-14,-318 5.68434e-14,-312"/>
<polyline fill="none" stroke="black" points="5.68434e-14,-312 2.84217e-14,-300 "/>
<path fill="none" stroke="black" d="M2.84217e-14,-300C1.42109e-14,-294 6,-288 12,-288"/>
<polyline fill="none" stroke="black" points="12,-288 158,-288 "/>
<path fill="none" stroke="black" d="M158,-288C164,-288 170,-294 170,-300"/>
<polyline fill="none" stroke="black" points="170,-300 170,-312 "/>
<path fill="none" stroke="black" d="M170,-312C170,-318 164,-324 158,-324"/>
<text text-anchor="middle" x="85" y="-302.4" font-family="Times Roman,serif" font-size="14.00">NumberOfCacheNodes</text>
</g>
<!-- NumberOfCacheNodes&#45;&gt;CacheCluster -->
<g id="edge26" class="edge"><title>NumberOfCacheNodes&#45;&gt;CacheCluster</title>
<path fill="none" stroke="black" d="M115.776,-287.762C159.779,-261.686 240.668,-213.752 288.87,-185.188"/>
<polygon fill="black" stroke="black" points="290.655,-188.199 297.474,-180.09 287.087,-182.177 290.655,-188.199"/>
</g>
<!-- InstanceType -->
<g id="node12" class="node"><title>InstanceType</title>
<polygon fill="lightgrey" stroke="lightgrey" points="819,-324 737,-324 725,-312 725,-300 737,-288 819,-288 831,-300 831,-312 819,-324"/>
<path fill="lightgrey" stroke="lightgrey" d="M737,-324C731,-324 725,-318 725,-312"/>
<path fill="lightgrey" stroke="lightgrey" d="M725,-300C725,-294 731,-288 737,-288"/>
<path fill="lightgrey" stroke="lightgrey" d="M819,-288C825,-288 831,-294 831,-300"/>
<path fill="lightgrey" stroke="lightgrey" d="M831,-312C831,-318 825,-324 819,-324"/>
<polyline fill="none" stroke="black" points="819,-324 737,-324 "/>
<path fill="none" stroke="black" d="M737,-324C731,-324 725,-318 725,-312"/>
<polyline fill="none" stroke="black" points="725,-312 725,-300 "/>
<path fill="none" stroke="black" d="M725,-300C725,-294 731,-288 737,-288"/>
<polyline fill="none" stroke="black" points="737,-288 819,-288 "/>
<path fill="none" stroke="black" d="M819,-288C825,-288 831,-294 831,-300"/>
<polyline fill="none" stroke="black" points="831,-300 831,-312 "/>
<path fill="none" stroke="black" d="M831,-312C831,-318 825,-324 819,-324"/>
<text text-anchor="middle" x="778" y="-302.4" font-family="Times Roman,serif" font-size="14.00">InstanceType</text>
</g>
<!-- InstanceType&#45;&gt;WebServerHost -->
<g id="edge14" class="edge"><title>InstanceType&#45;&gt;WebServerHost</title>
<path fill="none" stroke="black" d="M759.289,-287.914C752.35,-277.615 745.243,-264.341 740,-252 720.7,-206.568 704.439,-151.42 697.977,-118.599"/>
<polygon fill="black" stroke="black" points="701.357,-117.61 696.171,-108.371 694.463,-118.827 701.357,-117.61"/>
</g>
<!-- InstanceType&#45;&gt;WebServerHost -->
<g id="edge18" class="edge"><title>InstanceType&#45;&gt;WebServerHost</title>
<path fill="none" stroke="black" d="M775.143,-287.914C770.35,-277.615 763.243,-264.341 758,-252 738.616,-206.371 722.298,-150.94 710.821,-118.172"/>
<polygon fill="black" stroke="black" points="713.966,-116.579 707.267,-108.371 707.386,-118.965 713.966,-116.579"/>
</g>
<!-- CacheNodeType -->
<g id="node13" class="node"><title>CacheNodeType</title>
<polygon fill="lightgrey" stroke="lightgrey" points="300,-324 200,-324 188,-312 188,-300 200,-288 300,-288 312,-300 312,-312 300,-324"/>
<path fill="lightgrey" stroke="lightgrey" d="M200,-324C194,-324 188,-318 188,-312"/>
<path fill="lightgrey" stroke="lightgrey" d="M188,-300C188,-294 194,-288 200,-288"/>
<path fill="lightgrey" stroke="lightgrey" d="M300,-288C306,-288 312,-294 312,-300"/>
<path fill="lightgrey" stroke="lightgrey" d="M312,-312C312,-318 306,-324 300,-324"/>
<polyline fill="none" stroke="black" points="300,-324 200,-324 "/>
<path fill="none" stroke="black" d="M200,-324C194,-324 188,-318 188,-312"/>
<polyline fill="none" stroke="black" points="188,-312 188,-300 "/>
<path fill="none" stroke="black" d="M188,-300C188,-294 194,-288 200,-288"/>
<polyline fill="none" stroke="black" points="200,-288 300,-288 "/>
<path fill="none" stroke="black" d="M300,-288C306,-288 312,-294 312,-300"/>
<polyline fill="none" stroke="black" points="312,-300 312,-312 "/>
<path fill="none" stroke="black" d="M312,-312C312,-318 306,-324 300,-324"/>
<text text-anchor="middle" x="250" y="-302.4" font-family="Times Roman,serif" font-size="14.00">CacheNodeType</text>
</g>
<!-- CacheNodeType&#45;&gt;CacheCluster -->
<g id="edge28" class="edge"><title>CacheNodeType&#45;&gt;CacheCluster</title>
<path fill="none" stroke="black" d="M250.59,-287.947C251.919,-268.911 256.092,-238.604 269,-216 275.24,-205.072 284.456,-195.114 293.759,-186.809"/>
<polygon fill="black" stroke="black" points="296.155,-189.366 301.53,-180.236 291.634,-184.021 296.155,-189.366"/>
</g>
<!-- AWS::StackName -->
<g id="node16" class="node"><title>AWS::StackName</title>
<polygon fill="none" stroke="black" points="894,-252 758,-252 758,-216 894,-216 894,-252"/>
<text text-anchor="middle" x="826" y="-230.4" font-family="Times Roman,serif" font-size="14.00">AWS::StackName</text>
</g>
<!-- AWS::StackName&#45;&gt;WebServerHost -->
<g id="edge4" class="edge"><title>AWS::StackName&#45;&gt;WebServerHost</title>
<path fill="none" stroke="black" d="M809.662,-215.762C786.981,-190.444 745.839,-144.518 720.045,-115.725"/>
<polygon fill="black" stroke="black" points="722.485,-113.203 713.205,-108.09 717.271,-117.873 722.485,-113.203"/>
</g>
<!-- AWS::Region -->
<g id="node18" class="node"><title>AWS::Region</title>
<polygon fill="none" stroke="black" points="900,-180 796,-180 796,-144 900,-144 900,-180"/>
<text text-anchor="middle" x="848" y="-158.4" font-family="Times Roman,serif" font-size="14.00">AWS::Region</text>
</g>
<!-- AWS::Region&#45;&gt;WebServerHost -->
<g id="edge6" class="edge"><title>AWS::Region&#45;&gt;WebServerHost</title>
<path fill="none" stroke="black" d="M803.944,-143.831C783.092,-134.33 758.397,-122.612 737.954,-112.537"/>
<polygon fill="black" stroke="black" points="739.403,-109.349 728.89,-108.038 736.291,-115.619 739.403,-109.349"/>
</g>
<!-- AWS::Region&#45;&gt;WebServerHost -->
<g id="edge16" class="edge"><title>AWS::Region&#45;&gt;WebServerHost</title>
<path fill="none" stroke="black" d="M815.849,-143.831C796.677,-134.245 771.952,-122.401 749.989,-112.266"/>
<polygon fill="black" stroke="black" points="751.318,-109.025 740.769,-108.038 748.4,-115.388 751.318,-109.025"/>
</g>
</g>
</svg>
