<?xml version="1.0" encoding="UTF-8" standalone="no"?>
<!DOCTYPE svg PUBLIC "-//W3C//DTD SVG 1.1//EN"
 "http://www.w3.org/Graphics/SVG/1.1/DTD/svg11.dtd">
<!-- Generated by graphviz version 2.26.3 (20100126.1600)
 -->
<!-- Title: AWS CloudFormation Sample Template ElasticBeanstalk Node.jsSample: Configure and launch the AWS Elastic Beanstalk sample application. **WARNING** This template creates one or more Amazon EC2 instances. You will be billed for the AWS resources used if you create a stack from this template. Pages: 1 -->
<svg width="180pt" height="332pt"
 viewBox="0.00 0.00 180.00 332.00" xmlns="http://www.w3.org/2000/svg" xmlns:xlink="http://www.w3.org/1999/xlink">
<g id="graph1" class="graph" transform="scale(1 1) rotate(0) translate(4 328)">
<title>AWS CloudFormation Sample Template ElasticBeanstalk Node.jsSample: Configure and launch the AWS Elastic Beanstalk sample application. **WARNING** This template creates one or more Amazon EC2 instances. You will be billed for the AWS resources used if you create a stack from this template.</title>
<polygon fill="white" stroke="white" points="-4,5 -4,-328 177,-328 177,5 -4,5"/>
<!-- sampleApplication -->
<g id="node1" class="node"><title>sampleApplication</title>
<polygon fill="none" stroke="black" points="150,-180 10,-180 10,-144 150,-144 150,-180"/>
<text text-anchor="middle" x="80" y="-158.4" font-family="Times Roman,serif" font-size="14.00">sampleApplication</text>
</g>
<!-- sampleEnvironment -->
<g id="node2" class="node"><title>sampleEnvironment</title>
<polygon fill="none" stroke="black" points="157,-108 3,-108 3,-72 157,-72 157,-108"/>
<text text-anchor="middle" x="80" y="-86.4" font-family="Times Roman,serif" font-size="14.00">sampleEnvironment</text>
</g>
<!-- sampleApplication&#45;&gt;sampleEnvironment -->
<g id="edge8" class="edge"><title>sampleApplication&#45;&gt;sampleEnvironment</title>
<path fill="none" stroke="black" d="M80,-143.831C80,-136.131 80,-126.974 80,-118.417"/>
<polygon fill="black" stroke="black" points="83.5001,-118.413 80,-108.413 76.5001,-118.413 83.5001,-118.413"/>
</g>
<!-- URL -->
<g id="node6" class="node"><title>URL</title>
<polygon fill="lightgrey" stroke="lightgrey" points="95,-36 65,-36 53,-24 53,-12 65,-1.46056e-14 95,-6.71068e-15 107,-12 107,-24 95,-36"/>
<path fill="lightgrey" stroke="lightgrey" d="M65,-36C59,-36 53,-30 53,-24"/>
<path fill="lightgrey" stroke="lightgrey" d="M53,-12C53,-6 59,-1.61846e-14 65,-1.46056e-14"/>
<path fill="lightgrey" stroke="lightgrey" d="M95,-6.71068e-15C101,-5.1317e-15 107,-6 107,-12"/>
<path fill="lightgrey" stroke="lightgrey" d="M107,-24C107,-30 101,-36 95,-36"/>
<polyline fill="none" stroke="black" points="95,-36 65,-36 "/>
<path fill="none" stroke="black" d="M65,-36C59,-36 53,-30 53,-24"/>
<polyline fill="none" stroke="black" points="53,-24 53,-12 "/>
<path fill="none" stroke="black" d="M53,-12C53,-6 59,-1.61846e-14 65,-1.46056e-14"/>
<polyline fill="none" stroke="black" points="65,-1.46056e-14 95,-6.71068e-15 "/>
<path fill="none" stroke="black" d="M95,-6.71068e-15C101,-5.1317e-15 107,-6 107,-12"/>
<polyline fill="none" stroke="black" points="107,-12 107,-24 "/>
<path fill="none" stroke="black" d="M107,-24C107,-30 101,-36 95,-36"/>
<text text-anchor="middle" x="80" y="-14.4" font-family="Times Roman,serif" font-size="14.00">URL</text>
</g>
<!-- sampleEnvironment&#45;&gt;URL -->
<g id="edge10" class="edge"><title>sampleEnvironment&#45;&gt;URL</title>
<path fill="none" stroke="black" d="M80,-71.8314C80,-64.131 80,-54.9743 80,-46.4166"/>
<polygon fill="black" stroke="black" points="83.5001,-46.4132 80,-36.4133 76.5001,-46.4133 83.5001,-46.4132"/>
</g>
<!-- KeyName -->
<g id="node4" class="node"><title>KeyName</title>
<polygon fill="lightgrey" stroke="lightgrey" points="68,-324 12,-324 2.84217e-14,-312 1.42109e-14,-300 12,-288 68,-288 80,-300 80,-312 68,-324"/>
<path fill="lightgrey" stroke="lightgrey" d="M12,-324C6,-324 3.55271e-14,-318 2.84217e-14,-312"/>
<path fill="lightgrey" stroke="lightgrey" d="M1.42109e-14,-300C7.10543e-15,-294 6,-288 12,-288"/>
<path fill="lightgrey" stroke="lightgrey" d="M68,-288C74,-288 80,-294 80,-300"/>
<path fill="lightgrey" stroke="lightgrey" d="M80,-312C80,-318 74,-324 68,-324"/>
<polyline fill="none" stroke="black" points="68,-324 12,-324 "/>
<path fill="none" stroke="black" d="M12,-324C6,-324 3.55271e-14,-318 2.84217e-14,-312"/>
<polyline fill="none" stroke="black" points="2.84217e-14,-312 1.42109e-14,-300 "/>
<path fill="none" stroke="black" d="M1.42109e-14,-300C7.10543e-15,-294 6,-288 12,-288"/>
<polyline fill="none" stroke="black" points="12,-288 68,-288 "/>
<path fill="none" stroke="black" d="M68,-288C74,-288 80,-294 80,-300"/>
<polyline fill="none" stroke="black" points="80,-300 80,-312 "/>
<path fill="none" stroke="black" d="M80,-312C80,-318 74,-324 68,-324"/>
<text text-anchor="middle" x="40" y="-302.4" font-family="Times Roman,serif" font-size="14.00">KeyName</text>
</g>
<!-- KeyName&#45;&gt;sampleApplication -->
<g id="edge4" class="edge"><title>KeyName&#45;&gt;sampleApplication</title>
<path fill="none" stroke="black" d="M42.9348,-287.854C46.108,-269.522 51.7065,-240.488 59,-216 61.6003,-207.269 64.9889,-197.958 68.2827,-189.569"/>
<polygon fill="black" stroke="black" points="71.5527,-190.819 72.0528,-180.236 65.0622,-188.197 71.5527,-190.819"/>
</g>
<!-- AWS::Region -->
<g id="node8" class="node"><title>AWS::Region</title>
<polygon fill="none" stroke="black" points="172,-252 68,-252 68,-216 172,-216 172,-252"/>
<text text-anchor="middle" x="120" y="-230.4" font-family="Times Roman,serif" font-size="14.00">AWS::Region</text>
</g>
<!-- AWS::Region&#45;&gt;sampleApplication -->
<g id="edge6" class="edge"><title>AWS::Region&#45;&gt;sampleApplication</title>
<path fill="none" stroke="black" d="M109.906,-215.831C105.44,-207.792 100.093,-198.167 95.1621,-189.292"/>
<polygon fill="black" stroke="black" points="98.1456,-187.455 90.2296,-180.413 92.0265,-190.855 98.1456,-187.455"/>
</g>
</g>
</svg>
