<?xml version="1.0" encoding="UTF-8" standalone="no"?>
<!DOCTYPE svg PUBLIC "-//W3C//DTD SVG 1.1//EN"
 "http://www.w3.org/Graphics/SVG/1.1/DTD/svg11.dtd">
<!-- Generated by graphviz version 2.26.3 (20100126.1600)
 -->
<!-- Title: AWS CloudFormation Sample Template ElasticBeanstalk_Python_Sample: Configure and launch the AWS Elastic Beanstalk Python sample application. **WARNING** This template creates one or more Amazon EC2 instances. You will be billed for the AWS resources used if you create a stack from this template. Pages: 1 -->
<svg width="216pt" height="332pt"
 viewBox="0.00 0.00 216.00 332.00" xmlns="http://www.w3.org/2000/svg" xmlns:xlink="http://www.w3.org/1999/xlink">
<g id="graph1" class="graph" transform="scale(1 1) rotate(0) translate(4 328)">
<title>AWS CloudFormation Sample Template ElasticBeanstalk_Python_Sample: Configure and launch the AWS Elastic Beanstalk Python sample application. **WARNING** This template creates one or more Amazon EC2 instances. You will be billed for the AWS resources used if you create a stack from this template.</title>
<polygon fill="white" stroke="white" points="-4,5 -4,-328 213,-328 213,5 -4,5"/>
<!-- sampleApplication -->
<g id="node1" class="node"><title>sampleApplication</title>
<polygon fill="none" stroke="black" points="208,-180 68,-180 68,-144 208,-144 208,-180"/>
<text text-anchor="middle" x="138" y="-158.4" font-family="Times Roman,serif" font-size="14.00">sampleApplication</text>
</g>
<!-- sampleEnvironment -->
<g id="node2" class="node"><title>sampleEnvironment</title>
<polygon fill="none" stroke="black" points="166,-108 12,-108 12,-72 166,-72 166,-108"/>
<text text-anchor="middle" x="89" y="-86.4" font-family="Times Roman,serif" font-size="14.00">sampleEnvironment</text>
</g>
<!-- sampleApplication&#45;&gt;sampleEnvironment -->
<g id="edge6" class="edge"><title>sampleApplication&#45;&gt;sampleEnvironment</title>
<path fill="none" stroke="black" d="M125.635,-143.831C120.049,-135.623 113.337,-125.761 107.193,-116.732"/>
<polygon fill="black" stroke="black" points="110.051,-114.711 101.531,-108.413 104.264,-118.65 110.051,-114.711"/>
</g>
<!-- URL -->
<g id="node6" class="node"><title>URL</title>
<polygon fill="lightgrey" stroke="lightgrey" points="104,-36 74,-36 62,-24 62,-12 74,-1.46056e-14 104,-6.71068e-15 116,-12 116,-24 104,-36"/>
<path fill="lightgrey" stroke="lightgrey" d="M74,-36C68,-36 62,-30 62,-24"/>
<path fill="lightgrey" stroke="lightgrey" d="M62,-12C62,-6 68,-1.61846e-14 74,-1.46056e-14"/>
<path fill="lightgrey" stroke="lightgrey" d="M104,-6.71068e-15C110,-5.1317e-15 116,-6 116,-12"/>
<path fill="lightgrey" stroke="lightgrey" d="M116,-24C116,-30 110,-36 104,-36"/>
<polyline fill="none" stroke="black" points="104,-36 74,-36 "/>
<path fill="none" stroke="black" d="M74,-36C68,-36 62,-30 62,-24"/>
<polyline fill="none" stroke="black" points="62,-24 62,-12 "/>
<path fill="none" stroke="black" d="M62,-12C62,-6 68,-1.61846e-14 74,-1.46056e-14"/>
<polyline fill="none" stroke="black" points="74,-1.46056e-14 104,-6.71068e-15 "/>
<path fill="none" stroke="black" d="M104,-6.71068e-15C110,-5.1317e-15 116,-6 116,-12"/>
<polyline fill="none" stroke="black" points="116,-12 116,-24 "/>
<path fill="none" stroke="black" d="M116,-24C116,-30 110,-36 104,-36"/>
<text text-anchor="middle" x="89" y="-14.4" font-family="Times Roman,serif" font-size="14.00">URL</text>
</g>
<!-- sampleEnvironment&#45;&gt;URL -->
<g id="edge10" class="edge"><title>sampleEnvironment&#45;&gt;URL</title>
<path fill="none" stroke="black" d="M89,-71.8314C89,-64.131 89,-54.9743 89,-46.4166"/>
<polygon fill="black" stroke="black" points="92.5001,-46.4132 89,-36.4133 85.5001,-46.4133 92.5001,-46.4132"/>
</g>
<!-- KeyName -->
<g id="node4" class="node"><title>KeyName</title>
<polygon fill="lightgrey" stroke="lightgrey" points="68,-324 12,-324 2.84217e-14,-312 1.42109e-14,-300 12,-288 68,-288 80,-300 80,-312 68,-324"/>
<path fill="lightgrey" stroke="lightgrey" d="M12,-324C6,-324 3.55271e-14,-318 2.84217e-14,-312"/>
<path fill="lightgrey" stroke="lightgrey" d="M1.42109e-14,-300C7.10543e-15,-294 6,-288 12,-288"/>
<path fill="lightgrey" stroke="lightgrey" d="M68,-288C74,-288 80,-294 80,-300"/>
<path fill="lightgrey" stroke="lightgrey" d="M80,-312C80,-318 74,-324 68,-324"/>
<polyline fill="none" stroke="black" points="68,-324 12,-324 "/>
<path fill="none" stroke="black" d="M12,-324C6,-324 3.55271e-14,-318 2.84217e-14,-312"/>
<polyline fill="none" stroke="black" points="2.84217e-14,-312 1.42109e-14,-300 "/>
<path fill="none" stroke="black" d="M1.42109e-14,-300C7.10543e-15,-294 6,-288 12,-288"/>
<polyline fill="none" stroke="black" points="12,-288 68,-288 "/>
<path fill="none" stroke="black" d="M68,-288C74,-288 80,-294 80,-300"/>
<polyline fill="none" stroke="black" points="80,-300 80,-312 "/>
<path fill="none" stroke="black" d="M80,-312C80,-318 74,-324 68,-324"/>
<text text-anchor="middle" x="40" y="-302.4" font-family="Times Roman,serif" font-size="14.00">KeyName</text>
</g>
<!-- KeyName&#45;&gt;sampleEnvironment -->
<g id="edge8" class="edge"><title>KeyName&#45;&gt;sampleEnvironment</title>
<path fill="none" stroke="black" d="M39.8592,-287.531C40.1302,-256.933 42.8357,-194.129 59,-144 61.9971,-134.705 66.658,-125.19 71.4197,-116.788"/>
<polygon fill="black" stroke="black" points="74.4423,-118.553 76.5523,-108.17 68.4281,-114.971 74.4423,-118.553"/>
</g>
<!-- AWS::Region -->
<g id="node7" class="node"><title>AWS::Region</title>
<polygon fill="none" stroke="black" points="190,-252 86,-252 86,-216 190,-216 190,-252"/>
<text text-anchor="middle" x="138" y="-230.4" font-family="Times Roman,serif" font-size="14.00">AWS::Region</text>
</g>
<!-- AWS::Region&#45;&gt;sampleApplication -->
<g id="edge4" class="edge"><title>AWS::Region&#45;&gt;sampleApplication</title>
<path fill="none" stroke="black" d="M138,-215.831C138,-208.131 138,-198.974 138,-190.417"/>
<polygon fill="black" stroke="black" points="141.5,-190.413 138,-180.413 134.5,-190.413 141.5,-190.413"/>
</g>
</g>
</svg>
