<?xml version="1.0" encoding="UTF-8" standalone="no"?>
<!DOCTYPE svg PUBLIC "-//W3C//DTD SVG 1.1//EN"
 "http://www.w3.org/Graphics/SVG/1.1/DTD/svg11.dtd">
<!-- Generated by graphviz version 2.26.3 (20100126.1600)
 -->
<!-- Title: AWS CloudFormation Sample Template ELBSample: Create a load balanced sample web site. The AMI is chosen based on the region in which the stack is run. This example creates 2 EC2 instances behind a load balancer with a simple health check. The instances may be created in one or more AZs. The web site is available on port 80, however, the instances can be configured to listen on any port (8888 by default). **WARNING** This template creates one or more Amazon EC2 instances and an Elastic Load Balancer. You will be billed for the AWS resources used if you create a stack from this template. Pages: 1 -->
<svg width="608pt" height="332pt"
 viewBox="0.00 0.00 608.00 332.00" xmlns="http://www.w3.org/2000/svg" xmlns:xlink="http://www.w3.org/1999/xlink">
<g id="graph1" class="graph" transform="scale(1 1) rotate(0) translate(4 328)">
<title>AWS CloudFormation Sample Template ELBSample: Create a load balanced sample web site. The AMI is chosen based on the region in which the stack is run. This example creates 2 EC2 instances behind a load balancer with a simple health check. The instances may be created in one or more AZs. The web site is available on port 80, however, the instances can be configured to listen on any port (8888 by default). **WARNING** This template creates one or more Amazon EC2 instances and an Elastic Load Balancer. You will be billed for the AWS resources used if you create a stack from this template.</title>
<polygon fill="white" stroke="white" points="-4,5 -4,-328 605,-328 605,5 -4,5"/>
<!-- ElasticLoadBalancer -->
<g id="node1" class="node"><title>ElasticLoadBalancer</title>
<polygon fill="none" stroke="black" points="524,-108 370,-108 370,-72 524,-72 524,-108"/>
<text text-anchor="middle" x="447" y="-86.4" font-family="Times Roman,serif" font-size="14.00">ElasticLoadBalancer</text>
</g>
<!-- URL -->
<g id="node11" class="node"><title>URL</title>
<polygon fill="lightgrey" stroke="lightgrey" points="462,-36 432,-36 420,-24 420,-12 432,-1.46056e-14 462,-6.71068e-15 474,-12 474,-24 462,-36"/>
<path fill="lightgrey" stroke="lightgrey" d="M432,-36C426,-36 420,-30 420,-24"/>
<path fill="lightgrey" stroke="lightgrey" d="M420,-12C420,-6 426,-1.61846e-14 432,-1.46056e-14"/>
<path fill="lightgrey" stroke="lightgrey" d="M462,-6.71068e-15C468,-5.1317e-15 474,-6 474,-12"/>
<path fill="lightgrey" stroke="lightgrey" d="M474,-24C474,-30 468,-36 462,-36"/>
<polyline fill="none" stroke="black" points="462,-36 432,-36 "/>
<path fill="none" stroke="black" d="M432,-36C426,-36 420,-30 420,-24"/>
<polyline fill="none" stroke="black" points="420,-24 420,-12 "/>
<path fill="none" stroke="black" d="M420,-12C420,-6 426,-1.61846e-14 432,-1.46056e-14"/>
<polyline fill="none" stroke="black" points="432,-1.46056e-14 462,-6.71068e-15 "/>
<path fill="none" stroke="black" d="M462,-6.71068e-15C468,-5.1317e-15 474,-6 474,-12"/>
<polyline fill="none" stroke="black" points="474,-12 474,-24 "/>
<path fill="none" stroke="black" d="M474,-24C474,-30 468,-36 462,-36"/>
<text text-anchor="middle" x="447" y="-14.4" font-family="Times Roman,serif" font-size="14.00">URL</text>
</g>
<!-- ElasticLoadBalancer&#45;&gt;URL -->
<g id="edge42" class="edge"><title>ElasticLoadBalancer&#45;&gt;URL</title>
<path fill="none" stroke="black" d="M447,-71.8314C447,-64.131 447,-54.9743 447,-46.4166"/>
<polygon fill="black" stroke="black" points="450.5,-46.4132 447,-36.4133 443.5,-46.4133 450.5,-46.4132"/>
</g>
<!-- Ec2Instance1 -->
<g id="node2" class="node"><title>Ec2Instance1</title>
<polygon fill="none" stroke="black" points="363,-180 255,-180 255,-144 363,-144 363,-180"/>
<text text-anchor="middle" x="309" y="-158.4" font-family="Times Roman,serif" font-size="14.00">Ec2Instance1</text>
</g>
<!-- Ec2Instance1&#45;&gt;ElasticLoadBalancer -->
<g id="edge4" class="edge"><title>Ec2Instance1&#45;&gt;ElasticLoadBalancer</title>
<path fill="none" stroke="black" d="M343.823,-143.831C361.801,-134.452 383.92,-122.911 403.062,-112.924"/>
<polygon fill="black" stroke="black" points="404.941,-115.892 412.188,-108.163 401.703,-109.685 404.941,-115.892"/>
</g>
<!-- Ec2Instance2 -->
<g id="node3" class="node"><title>Ec2Instance2</title>
<polygon fill="none" stroke="black" points="147,-180 39,-180 39,-144 147,-144 147,-180"/>
<text text-anchor="middle" x="93" y="-158.4" font-family="Times Roman,serif" font-size="14.00">Ec2Instance2</text>
</g>
<!-- Ec2Instance2&#45;&gt;ElasticLoadBalancer -->
<g id="edge6" class="edge"><title>Ec2Instance2&#45;&gt;ElasticLoadBalancer</title>
<path fill="none" stroke="black" d="M147.15,-150.986C203.708,-139.483 293.287,-121.264 359.824,-107.731"/>
<polygon fill="black" stroke="black" points="360.779,-111.108 369.881,-105.685 359.384,-104.249 360.779,-111.108"/>
</g>
<!-- InstanceSecurityGroup -->
<g id="node4" class="node"><title>InstanceSecurityGroup</title>
<polygon fill="none" stroke="black" points="511,-252 337,-252 337,-216 511,-216 511,-252"/>
<text text-anchor="middle" x="424" y="-230.4" font-family="Times Roman,serif" font-size="14.00">InstanceSecurityGroup</text>
</g>
<!-- InstanceSecurityGroup&#45;&gt;Ec2Instance1 -->
<g id="edge16" class="edge"><title>InstanceSecurityGroup&#45;&gt;Ec2Instance1</title>
<path fill="none" stroke="black" d="M394.981,-215.831C380.271,-206.622 362.236,-195.33 346.488,-185.471"/>
<polygon fill="black" stroke="black" points="348.343,-182.503 338.01,-180.163 344.629,-188.436 348.343,-182.503"/>
</g>
<!-- InstanceSecurityGroup&#45;&gt;Ec2Instance2 -->
<g id="edge28" class="edge"><title>InstanceSecurityGroup&#45;&gt;Ec2Instance2</title>
<path fill="none" stroke="black" d="M340.902,-215.924C283.872,-203.519 209.315,-187.301 156.915,-175.903"/>
<polygon fill="black" stroke="black" points="157.585,-172.467 147.07,-173.761 156.097,-179.307 157.585,-172.467"/>
</g>
<!-- SSHLocation -->
<g id="node6" class="node"><title>SSHLocation</title>
<polygon fill="lightgrey" stroke="lightgrey" points="448,-324 368,-324 356,-312 356,-300 368,-288 448,-288 460,-300 460,-312 448,-324"/>
<path fill="lightgrey" stroke="lightgrey" d="M368,-324C362,-324 356,-318 356,-312"/>
<path fill="lightgrey" stroke="lightgrey" d="M356,-300C356,-294 362,-288 368,-288"/>
<path fill="lightgrey" stroke="lightgrey" d="M448,-288C454,-288 460,-294 460,-300"/>
<path fill="lightgrey" stroke="lightgrey" d="M460,-312C460,-318 454,-324 448,-324"/>
<polyline fill="none" stroke="black" points="448,-324 368,-324 "/>
<path fill="none" stroke="black" d="M368,-324C362,-324 356,-318 356,-312"/>
<polyline fill="none" stroke="black" points="356,-312 356,-300 "/>
<path fill="none" stroke="black" d="M356,-300C356,-294 362,-288 368,-288"/>
<polyline fill="none" stroke="black" points="368,-288 448,-288 "/>
<path fill="none" stroke="black" d="M448,-288C454,-288 460,-294 460,-300"/>
<polyline fill="none" stroke="black" points="460,-300 460,-312 "/>
<path fill="none" stroke="black" d="M460,-312C460,-318 454,-324 448,-324"/>
<text text-anchor="middle" x="408" y="-302.4" font-family="Times Roman,serif" font-size="14.00">SSHLocation</text>
</g>
<!-- SSHLocation&#45;&gt;InstanceSecurityGroup -->
<g id="edge36" class="edge"><title>SSHLocation&#45;&gt;InstanceSecurityGroup</title>
<path fill="none" stroke="black" d="M412.037,-287.831C413.749,-280.131 415.783,-270.974 417.685,-262.417"/>
<polygon fill="black" stroke="black" points="421.155,-262.934 419.908,-252.413 414.322,-261.416 421.155,-262.934"/>
</g>
<!-- KeyName -->
<g id="node7" class="node"><title>KeyName</title>
<polygon fill="lightgrey" stroke="lightgrey" points="281,-324 225,-324 213,-312 213,-300 225,-288 281,-288 293,-300 293,-312 281,-324"/>
<path fill="lightgrey" stroke="lightgrey" d="M225,-324C219,-324 213,-318 213,-312"/>
<path fill="lightgrey" stroke="lightgrey" d="M213,-300C213,-294 219,-288 225,-288"/>
<path fill="lightgrey" stroke="lightgrey" d="M281,-288C287,-288 293,-294 293,-300"/>
<path fill="lightgrey" stroke="lightgrey" d="M293,-312C293,-318 287,-324 281,-324"/>
<polyline fill="none" stroke="black" points="281,-324 225,-324 "/>
<path fill="none" stroke="black" d="M225,-324C219,-324 213,-318 213,-312"/>
<polyline fill="none" stroke="black" points="213,-312 213,-300 "/>
<path fill="none" stroke="black" d="M213,-300C213,-294 219,-288 225,-288"/>
<polyline fill="none" stroke="black" points="225,-288 281,-288 "/>
<path fill="none" stroke="black" d="M281,-288C287,-288 293,-294 293,-300"/>
<polyline fill="none" stroke="black" points="293,-300 293,-312 "/>
<path fill="none" stroke="black" d="M293,-312C293,-318 287,-324 281,-324"/>
<text text-anchor="middle" x="253" y="-302.4" font-family="Times Roman,serif" font-size="14.00">KeyName</text>
</g>
<!-- KeyName&#45;&gt;Ec2Instance1 -->
<g id="edge14" class="edge"><title>KeyName&#45;&gt;Ec2Instance1</title>
<path fill="none" stroke="black" d="M265.575,-287.671C272.094,-277.517 279.766,-264.458 285,-252 293.431,-231.935 299.63,-208.093 303.614,-189.99"/>
<polygon fill="black" stroke="black" points="307.068,-190.574 305.704,-180.067 300.219,-189.131 307.068,-190.574"/>
</g>
<!-- KeyName&#45;&gt;Ec2Instance2 -->
<g id="edge26" class="edge"><title>KeyName&#45;&gt;Ec2Instance2</title>
<path fill="none" stroke="black" d="M212.682,-299.14C166.444,-290.356 94.9464,-273.645 79,-252 65.7612,-234.03 71.3778,-208.515 79.0817,-189.238"/>
<polygon fill="black" stroke="black" points="82.2914,-190.634 83.0843,-180.069 75.8759,-187.833 82.2914,-190.634"/>
</g>
<!-- WebServerPort -->
<g id="node8" class="node"><title>WebServerPort</title>
<polygon fill="lightgrey" stroke="lightgrey" points="588,-324 490,-324 478,-312 478,-300 490,-288 588,-288 600,-300 600,-312 588,-324"/>
<path fill="lightgrey" stroke="lightgrey" d="M490,-324C484,-324 478,-318 478,-312"/>
<path fill="lightgrey" stroke="lightgrey" d="M478,-300C478,-294 484,-288 490,-288"/>
<path fill="lightgrey" stroke="lightgrey" d="M588,-288C594,-288 600,-294 600,-300"/>
<path fill="lightgrey" stroke="lightgrey" d="M600,-312C600,-318 594,-324 588,-324"/>
<polyline fill="none" stroke="black" points="588,-324 490,-324 "/>
<path fill="none" stroke="black" d="M490,-324C484,-324 478,-318 478,-312"/>
<polyline fill="none" stroke="black" points="478,-312 478,-300 "/>
<path fill="none" stroke="black" d="M478,-300C478,-294 484,-288 490,-288"/>
<polyline fill="none" stroke="black" points="490,-288 588,-288 "/>
<path fill="none" stroke="black" d="M588,-288C594,-288 600,-294 600,-300"/>
<polyline fill="none" stroke="black" points="600,-300 600,-312 "/>
<path fill="none" stroke="black" d="M600,-312C600,-318 594,-324 588,-324"/>
<text text-anchor="middle" x="539" y="-302.4" font-family="Times Roman,serif" font-size="14.00">WebServerPort</text>
</g>
<!-- WebServerPort&#45;&gt;ElasticLoadBalancer -->
<g id="edge8" class="edge"><title>WebServerPort&#45;&gt;ElasticLoadBalancer</title>
<path fill="none" stroke="black" d="M536.472,-287.878C537.743,-269.312 540.99,-239.868 533,-216 519.718,-176.321 488.469,-139.138 467.331,-115.597"/>
<polygon fill="black" stroke="black" points="469.897,-113.216 460.59,-108.153 464.708,-117.915 469.897,-113.216"/>
</g>
<!-- WebServerPort&#45;&gt;ElasticLoadBalancer -->
<g id="edge10" class="edge"><title>WebServerPort&#45;&gt;ElasticLoadBalancer</title>
<path fill="none" stroke="black" d="M549.995,-287.878C555.743,-269.312 558.99,-239.868 551,-216 537.602,-175.976 505.924,-138.492 480.858,-114.986"/>
<polygon fill="black" stroke="black" points="483.079,-112.275 473.319,-108.153 478.378,-117.462 483.079,-112.275"/>
</g>
<!-- WebServerPort&#45;&gt;Ec2Instance1 -->
<g id="edge12" class="edge"><title>WebServerPort&#45;&gt;Ec2Instance1</title>
<path fill="none" stroke="black" d="M540.398,-287.911C540.916,-267.687 538.453,-235.254 520,-216 499.834,-194.958 427.444,-179.677 373.038,-170.849"/>
<polygon fill="black" stroke="black" points="373.53,-167.383 363.106,-169.275 372.435,-174.297 373.53,-167.383"/>
</g>
<!-- WebServerPort&#45;&gt;Ec2Instance2 -->
<g id="edge24" class="edge"><title>WebServerPort&#45;&gt;Ec2Instance2</title>
<path fill="none" stroke="black" d="M477.655,-289.666C474.737,-289.066 471.841,-288.506 469,-288 390.497,-274.031 171.331,-305.27 112,-252 95.0783,-236.807 91.1034,-210.667 90.9077,-190.461"/>
<polygon fill="black" stroke="black" points="94.4114,-190.308 91.1151,-180.239 87.4128,-190.166 94.4114,-190.308"/>
</g>
<!-- WebServerPort&#45;&gt;InstanceSecurityGroup -->
<g id="edge38" class="edge"><title>WebServerPort&#45;&gt;InstanceSecurityGroup</title>
<path fill="none" stroke="black" d="M504.028,-287.831C488.566,-278.707 470.582,-267.539 455.536,-257.745"/>
<polygon fill="black" stroke="black" points="457.335,-254.739 447.058,-252.163 453.486,-260.585 457.335,-254.739"/>
</g>
<!-- WebServerPort&#45;&gt;InstanceSecurityGroup -->
<g id="edge40" class="edge"><title>WebServerPort&#45;&gt;InstanceSecurityGroup</title>
<path fill="none" stroke="black" d="M515.933,-287.831C502.121,-278.622 484.226,-267.33 467.86,-257.471"/>
<polygon fill="black" stroke="black" points="469.343,-254.28 458.962,-252.163 465.757,-260.291 469.343,-254.28"/>
</g>
<!-- InstanceType -->
<g id="node9" class="node"><title>InstanceType</title>
<polygon fill="lightgrey" stroke="lightgrey" points="94,-324 12,-324 3.78956e-14,-312 1.89478e-14,-300 12,-288 94,-288 106,-300 106,-312 94,-324"/>
<path fill="lightgrey" stroke="lightgrey" d="M12,-324C6,-324 4.73695e-14,-318 3.78956e-14,-312"/>
<path fill="lightgrey" stroke="lightgrey" d="M1.89478e-14,-300C9.4739e-15,-294 6,-288 12,-288"/>
<path fill="lightgrey" stroke="lightgrey" d="M94,-288C100,-288 106,-294 106,-300"/>
<path fill="lightgrey" stroke="lightgrey" d="M106,-312C106,-318 100,-324 94,-324"/>
<polyline fill="none" stroke="black" points="94,-324 12,-324 "/>
<path fill="none" stroke="black" d="M12,-324C6,-324 4.73695e-14,-318 3.78956e-14,-312"/>
<polyline fill="none" stroke="black" points="3.78956e-14,-312 1.89478e-14,-300 "/>
<path fill="none" stroke="black" d="M1.89478e-14,-300C9.4739e-15,-294 6,-288 12,-288"/>
<polyline fill="none" stroke="black" points="12,-288 94,-288 "/>
<path fill="none" stroke="black" d="M94,-288C100,-288 106,-294 106,-300"/>
<polyline fill="none" stroke="black" points="106,-300 106,-312 "/>
<path fill="none" stroke="black" d="M106,-312C106,-318 100,-324 94,-324"/>
<text text-anchor="middle" x="53" y="-302.4" font-family="Times Roman,serif" font-size="14.00">InstanceType</text>
</g>
<!-- InstanceType&#45;&gt;Ec2Instance1 -->
<g id="edge18" class="edge"><title>InstanceType&#45;&gt;Ec2Instance1</title>
<path fill="none" stroke="black" d="M106.059,-297.038C141.871,-289.442 188.864,-275.83 225,-252 249.811,-235.638 270.734,-208.632 285.797,-188.464"/>
<polygon fill="black" stroke="black" points="288.719,-190.4 291.888,-180.29 283.107,-186.217 288.719,-190.4"/>
</g>
<!-- InstanceType&#45;&gt;Ec2Instance1 -->
<g id="edge22" class="edge"><title>InstanceType&#45;&gt;Ec2Instance1</title>
<path fill="none" stroke="black" d="M106.063,-299.889C146.486,-293.057 201.8,-279.17 243,-252 267.479,-235.857 288.173,-209.353 299.974,-189.277"/>
<polygon fill="black" stroke="black" points="303.162,-190.742 304.892,-180.29 297.021,-187.383 303.162,-190.742"/>
</g>
<!-- InstanceType&#45;&gt;Ec2Instance2 -->
<g id="edge30" class="edge"><title>InstanceType&#45;&gt;Ec2Instance2</title>
<path fill="none" stroke="black" d="M38.5868,-287.741C29.7026,-269.066 22.5095,-239.538 32,-216 36.3666,-205.17 44.0594,-195.299 52.5981,-187.044"/>
<polygon fill="black" stroke="black" points="55.1173,-189.487 60.2572,-180.223 50.4617,-184.26 55.1173,-189.487"/>
</g>
<!-- InstanceType&#45;&gt;Ec2Instance2 -->
<g id="edge34" class="edge"><title>InstanceType&#45;&gt;Ec2Instance2</title>
<path fill="none" stroke="black" d="M52.1094,-287.741C47.7026,-269.066 40.5095,-239.538 50,-216 54.2784,-205.389 61.75,-195.698 69.3529,-187.546"/>
<polygon fill="black" stroke="black" points="72.048,-189.798 76.5826,-180.223 67.0664,-184.881 72.048,-189.798"/>
</g>
<!-- AWS::Region -->
<g id="node20" class="node"><title>AWS::Region</title>
<polygon fill="none" stroke="black" points="225,-252 121,-252 121,-216 225,-216 225,-252"/>
<text text-anchor="middle" x="173" y="-230.4" font-family="Times Roman,serif" font-size="14.00">AWS::Region</text>
</g>
<!-- AWS::Region&#45;&gt;Ec2Instance1 -->
<g id="edge20" class="edge"><title>AWS::Region&#45;&gt;Ec2Instance1</title>
<path fill="none" stroke="black" d="M207.319,-215.831C225.036,-206.452 246.834,-194.911 265.698,-184.924"/>
<polygon fill="black" stroke="black" points="267.492,-187.935 274.692,-180.163 264.217,-181.748 267.492,-187.935"/>
</g>
<!-- AWS::Region&#45;&gt;Ec2Instance2 -->
<g id="edge32" class="edge"><title>AWS::Region&#45;&gt;Ec2Instance2</title>
<path fill="none" stroke="black" d="M152.813,-215.831C143.149,-207.134 131.42,-196.578 120.918,-187.127"/>
<polygon fill="black" stroke="black" points="122.955,-184.251 113.181,-180.163 118.272,-189.454 122.955,-184.251"/>
</g>
</g>
</svg>
