<?xml version="1.0" encoding="UTF-8" standalone="no"?>
<!DOCTYPE svg PUBLIC "-//W3C//DTD SVG 1.1//EN"
 "http://www.w3.org/Graphics/SVG/1.1/DTD/svg11.dtd">
<!-- Generated by graphviz version 2.26.3 (20100126.1600)
 -->
<!-- Title: AWS CloudFormation Sample Template ELBZoneApex: Create a load balanced sample web site mapping the site to a zone apex. This example creates 2 EC2 instances behind a load balancer with a simple health check and maps the load balancer to the DNS zone apex specified. The instances may be created in one or more AZs. The web site is available on port 80, however, the instances can be configured to listen on any port (8888 by default). **WARNING** This template creates one or more Amazon EC2 instances and an Elastic Load Balancer. You will be billed for the AWS resources used if you create a stack from this template. Pages: 1 -->
<svg width="722pt" height="404pt"
 viewBox="0.00 0.00 722.00 404.00" xmlns="http://www.w3.org/2000/svg" xmlns:xlink="http://www.w3.org/1999/xlink">
<g id="graph1" class="graph" transform="scale(1 1) rotate(0) translate(4 400)">
<title>AWS CloudFormation Sample Template ELBZoneApex: Create a load balanced sample web site mapping the site to a zone apex. This example creates 2 EC2 instances behind a load balancer with a simple health check and maps the load balancer to the DNS zone apex specified. The instances may be created in one or more AZs. The web site is available on port 80, however, the instances can be configured to listen on any port (8888 by default). **WARNING** This template creates one or more Amazon EC2 instances and an Elastic Load Balancer. You will be billed for the AWS resources used if you create a stack from this template.</title>
<polygon fill="white" stroke="white" points="-4,5 -4,-400 719,-400 719,5 -4,5"/>
<!-- DNSZone -->
<g id="node1" class="node"><title>DNSZone</title>
<polygon fill="none" stroke="black" points="648,-108 566,-108 566,-72 648,-72 648,-108"/>
<text text-anchor="middle" x="607" y="-86.4" font-family="Times Roman,serif" font-size="14.00">DNSZone</text>
</g>
<!-- URL -->
<g id="node13" class="node"><title>URL</title>
<polygon fill="lightgrey" stroke="lightgrey" points="622,-36 592,-36 580,-24 580,-12 592,-1.46056e-14 622,-6.71068e-15 634,-12 634,-24 622,-36"/>
<path fill="lightgrey" stroke="lightgrey" d="M592,-36C586,-36 580,-30 580,-24"/>
<path fill="lightgrey" stroke="lightgrey" d="M580,-12C580,-6 586,-1.61846e-14 592,-1.46056e-14"/>
<path fill="lightgrey" stroke="lightgrey" d="M622,-6.71068e-15C628,-5.1317e-15 634,-6 634,-12"/>
<path fill="lightgrey" stroke="lightgrey" d="M634,-24C634,-30 628,-36 622,-36"/>
<polyline fill="none" stroke="black" points="622,-36 592,-36 "/>
<path fill="none" stroke="black" d="M592,-36C586,-36 580,-30 580,-24"/>
<polyline fill="none" stroke="black" points="580,-24 580,-12 "/>
<path fill="none" stroke="black" d="M580,-12C580,-6 586,-1.61846e-14 592,-1.46056e-14"/>
<polyline fill="none" stroke="black" points="592,-1.46056e-14 622,-6.71068e-15 "/>
<path fill="none" stroke="black" d="M622,-6.71068e-15C628,-5.1317e-15 634,-6 634,-12"/>
<polyline fill="none" stroke="black" points="634,-12 634,-24 "/>
<path fill="none" stroke="black" d="M634,-24C634,-30 628,-36 622,-36"/>
<text text-anchor="middle" x="607" y="-14.4" font-family="Times Roman,serif" font-size="14.00">URL</text>
</g>
<!-- DNSZone&#45;&gt;URL -->
<g id="edge46" class="edge"><title>DNSZone&#45;&gt;URL</title>
<path fill="none" stroke="black" d="M607,-71.8314C607,-64.131 607,-54.9743 607,-46.4166"/>
<polygon fill="black" stroke="black" points="610.5,-46.4132 607,-36.4133 603.5,-46.4133 610.5,-46.4132"/>
</g>
<!-- ElasticLoadBalancer -->
<g id="node2" class="node"><title>ElasticLoadBalancer</title>
<polygon fill="none" stroke="black" points="627,-180 473,-180 473,-144 627,-144 627,-180"/>
<text text-anchor="middle" x="550" y="-158.4" font-family="Times Roman,serif" font-size="14.00">ElasticLoadBalancer</text>
</g>
<!-- ElasticLoadBalancer&#45;&gt;DNSZone -->
<g id="edge6" class="edge"><title>ElasticLoadBalancer&#45;&gt;DNSZone</title>
<path fill="none" stroke="black" d="M558.431,-143.831C564.247,-135.454 572.054,-125.353 579.757,-116.175"/>
<polygon fill="black" stroke="black" points="582.569,-118.273 586.447,-108.413 577.267,-113.703 582.569,-118.273"/>
</g>
<!-- ElasticLoadBalancer&#45;&gt;DNSZone -->
<g id="edge8" class="edge"><title>ElasticLoadBalancer&#45;&gt;DNSZone</title>
<path fill="none" stroke="black" d="M570.336,-143.831C577.634,-135.623 585.64,-125.761 592.384,-116.732"/>
<polygon fill="black" stroke="black" points="595.376,-118.568 598.399,-108.413 589.703,-114.466 595.376,-118.568"/>
</g>
<!-- Ec2Instance2 -->
<g id="node3" class="node"><title>Ec2Instance2</title>
<polygon fill="none" stroke="black" points="405,-252 297,-252 297,-216 405,-216 405,-252"/>
<text text-anchor="middle" x="351" y="-230.4" font-family="Times Roman,serif" font-size="14.00">Ec2Instance2</text>
</g>
<!-- Ec2Instance2&#45;&gt;ElasticLoadBalancer -->
<g id="edge14" class="edge"><title>Ec2Instance2&#45;&gt;ElasticLoadBalancer</title>
<path fill="none" stroke="black" d="M400.959,-215.924C428.164,-206.081 462.002,-193.839 490.556,-183.507"/>
<polygon fill="black" stroke="black" points="491.808,-186.777 500.02,-180.083 489.426,-180.194 491.808,-186.777"/>
</g>
<!-- Ec2Instance1 -->
<g id="node4" class="node"><title>Ec2Instance1</title>
<polygon fill="none" stroke="black" points="185,-252 77,-252 77,-216 185,-216 185,-252"/>
<text text-anchor="middle" x="131" y="-230.4" font-family="Times Roman,serif" font-size="14.00">Ec2Instance1</text>
</g>
<!-- Ec2Instance1&#45;&gt;ElasticLoadBalancer -->
<g id="edge12" class="edge"><title>Ec2Instance1&#45;&gt;ElasticLoadBalancer</title>
<path fill="none" stroke="black" d="M185.347,-224.661C255.777,-212.559 379.43,-191.31 462.998,-176.95"/>
<polygon fill="black" stroke="black" points="463.721,-180.377 472.984,-175.234 462.536,-173.478 463.721,-180.377"/>
</g>
<!-- InstanceSecurityGroup -->
<g id="node5" class="node"><title>InstanceSecurityGroup</title>
<polygon fill="none" stroke="black" points="491,-324 317,-324 317,-288 491,-288 491,-324"/>
<text text-anchor="middle" x="404" y="-302.4" font-family="Times Roman,serif" font-size="14.00">InstanceSecurityGroup</text>
</g>
<!-- InstanceSecurityGroup&#45;&gt;Ec2Instance2 -->
<g id="edge24" class="edge"><title>InstanceSecurityGroup&#45;&gt;Ec2Instance2</title>
<path fill="none" stroke="black" d="M390.626,-287.831C384.584,-279.623 377.324,-269.761 370.678,-260.732"/>
<polygon fill="black" stroke="black" points="373.301,-258.392 364.554,-252.413 367.664,-262.542 373.301,-258.392"/>
</g>
<!-- InstanceSecurityGroup&#45;&gt;Ec2Instance1 -->
<g id="edge34" class="edge"><title>InstanceSecurityGroup&#45;&gt;Ec2Instance1</title>
<path fill="none" stroke="black" d="M335.463,-287.924C292.474,-276.586 237.409,-262.064 195.257,-250.947"/>
<polygon fill="black" stroke="black" points="195.943,-247.508 185.381,-248.342 194.158,-254.277 195.943,-247.508"/>
</g>
<!-- KeyName -->
<g id="node7" class="node"><title>KeyName</title>
<polygon fill="lightgrey" stroke="lightgrey" points="268,-396 212,-396 200,-384 200,-372 212,-360 268,-360 280,-372 280,-384 268,-396"/>
<path fill="lightgrey" stroke="lightgrey" d="M212,-396C206,-396 200,-390 200,-384"/>
<path fill="lightgrey" stroke="lightgrey" d="M200,-372C200,-366 206,-360 212,-360"/>
<path fill="lightgrey" stroke="lightgrey" d="M268,-360C274,-360 280,-366 280,-372"/>
<path fill="lightgrey" stroke="lightgrey" d="M280,-384C280,-390 274,-396 268,-396"/>
<polyline fill="none" stroke="black" points="268,-396 212,-396 "/>
<path fill="none" stroke="black" d="M212,-396C206,-396 200,-390 200,-384"/>
<polyline fill="none" stroke="black" points="200,-384 200,-372 "/>
<path fill="none" stroke="black" d="M200,-372C200,-366 206,-360 212,-360"/>
<polyline fill="none" stroke="black" points="212,-360 268,-360 "/>
<path fill="none" stroke="black" d="M268,-360C274,-360 280,-366 280,-372"/>
<polyline fill="none" stroke="black" points="280,-372 280,-384 "/>
<path fill="none" stroke="black" d="M280,-384C280,-390 274,-396 268,-396"/>
<text text-anchor="middle" x="240" y="-374.4" font-family="Times Roman,serif" font-size="14.00">KeyName</text>
</g>
<!-- KeyName&#45;&gt;Ec2Instance2 -->
<g id="edge22" class="edge"><title>KeyName&#45;&gt;Ec2Instance2</title>
<path fill="none" stroke="black" d="M253.413,-359.968C267.034,-341.725 288.795,-312.758 308,-288 315.014,-278.958 322.778,-269.149 329.756,-260.403"/>
<polygon fill="black" stroke="black" points="332.642,-262.398 336.156,-252.403 327.176,-258.025 332.642,-262.398"/>
</g>
<!-- KeyName&#45;&gt;Ec2Instance1 -->
<g id="edge32" class="edge"><title>KeyName&#45;&gt;Ec2Instance1</title>
<path fill="none" stroke="black" d="M199.88,-370.275C156.498,-361.011 91.5734,-344.18 77,-324 61.8372,-303.004 80.1571,-277.579 99.4541,-259.116"/>
<polygon fill="black" stroke="black" points="102.065,-261.472 107.114,-252.157 97.3588,-256.29 102.065,-261.472"/>
</g>
<!-- HostedZone -->
<g id="node8" class="node"><title>HostedZone</title>
<polygon fill="lightgrey" stroke="lightgrey" points="702,-396 626,-396 614,-384 614,-372 626,-360 702,-360 714,-372 714,-384 702,-396"/>
<path fill="lightgrey" stroke="lightgrey" d="M626,-396C620,-396 614,-390 614,-384"/>
<path fill="lightgrey" stroke="lightgrey" d="M614,-372C614,-366 620,-360 626,-360"/>
<path fill="lightgrey" stroke="lightgrey" d="M702,-360C708,-360 714,-366 714,-372"/>
<path fill="lightgrey" stroke="lightgrey" d="M714,-384C714,-390 708,-396 702,-396"/>
<polyline fill="none" stroke="black" points="702,-396 626,-396 "/>
<path fill="none" stroke="black" d="M626,-396C620,-396 614,-390 614,-384"/>
<polyline fill="none" stroke="black" points="614,-384 614,-372 "/>
<path fill="none" stroke="black" d="M614,-372C614,-366 620,-360 626,-360"/>
<polyline fill="none" stroke="black" points="626,-360 702,-360 "/>
<path fill="none" stroke="black" d="M702,-360C708,-360 714,-366 714,-372"/>
<polyline fill="none" stroke="black" points="714,-372 714,-384 "/>
<path fill="none" stroke="black" d="M714,-384C714,-390 708,-396 702,-396"/>
<text text-anchor="middle" x="664" y="-374.4" font-family="Times Roman,serif" font-size="14.00">HostedZone</text>
</g>
<!-- HostedZone&#45;&gt;DNSZone -->
<g id="edge4" class="edge"><title>HostedZone&#45;&gt;DNSZone</title>
<path fill="none" stroke="black" d="M659.329,-359.911C654.841,-319.971 651.525,-221.639 627,-144 624.143,-134.956 619.761,-125.665 615.641,-117.394"/>
<polygon fill="black" stroke="black" points="618.652,-115.591 611.032,-108.229 612.398,-118.736 618.652,-115.591"/>
</g>
<!-- HostedZone&#45;&gt;DNSZone -->
<g id="edge10" class="edge"><title>HostedZone&#45;&gt;DNSZone</title>
<path fill="none" stroke="black" d="M668.874,-359.911C672.841,-319.971 669.525,-221.639 645,-144 642.081,-134.76 637.569,-125.261 632.562,-116.856"/>
<polygon fill="black" stroke="black" points="635.354,-114.728 626.987,-108.229 629.475,-118.528 635.354,-114.728"/>
</g>
<!-- SSHLocation -->
<g id="node9" class="node"><title>SSHLocation</title>
<polygon fill="lightgrey" stroke="lightgrey" points="428,-396 348,-396 336,-384 336,-372 348,-360 428,-360 440,-372 440,-384 428,-396"/>
<path fill="lightgrey" stroke="lightgrey" d="M348,-396C342,-396 336,-390 336,-384"/>
<path fill="lightgrey" stroke="lightgrey" d="M336,-372C336,-366 342,-360 348,-360"/>
<path fill="lightgrey" stroke="lightgrey" d="M428,-360C434,-360 440,-366 440,-372"/>
<path fill="lightgrey" stroke="lightgrey" d="M440,-384C440,-390 434,-396 428,-396"/>
<polyline fill="none" stroke="black" points="428,-396 348,-396 "/>
<path fill="none" stroke="black" d="M348,-396C342,-396 336,-390 336,-384"/>
<polyline fill="none" stroke="black" points="336,-384 336,-372 "/>
<path fill="none" stroke="black" d="M336,-372C336,-366 342,-360 348,-360"/>
<polyline fill="none" stroke="black" points="348,-360 428,-360 "/>
<path fill="none" stroke="black" d="M428,-360C434,-360 440,-366 440,-372"/>
<polyline fill="none" stroke="black" points="440,-372 440,-384 "/>
<path fill="none" stroke="black" d="M440,-384C440,-390 434,-396 428,-396"/>
<text text-anchor="middle" x="388" y="-374.4" font-family="Times Roman,serif" font-size="14.00">SSHLocation</text>
</g>
<!-- SSHLocation&#45;&gt;InstanceSecurityGroup -->
<g id="edge40" class="edge"><title>SSHLocation&#45;&gt;InstanceSecurityGroup</title>
<path fill="none" stroke="black" d="M392.037,-359.831C393.749,-352.131 395.783,-342.974 397.685,-334.417"/>
<polygon fill="black" stroke="black" points="401.155,-334.934 399.908,-324.413 394.322,-333.416 401.155,-334.934"/>
</g>
<!-- WebServerPort -->
<g id="node10" class="node"><title>WebServerPort</title>
<polygon fill="lightgrey" stroke="lightgrey" points="568,-396 470,-396 458,-384 458,-372 470,-360 568,-360 580,-372 580,-384 568,-396"/>
<path fill="lightgrey" stroke="lightgrey" d="M470,-396C464,-396 458,-390 458,-384"/>
<path fill="lightgrey" stroke="lightgrey" d="M458,-372C458,-366 464,-360 470,-360"/>
<path fill="lightgrey" stroke="lightgrey" d="M568,-360C574,-360 580,-366 580,-372"/>
<path fill="lightgrey" stroke="lightgrey" d="M580,-384C580,-390 574,-396 568,-396"/>
<polyline fill="none" stroke="black" points="568,-396 470,-396 "/>
<path fill="none" stroke="black" d="M470,-396C464,-396 458,-390 458,-384"/>
<polyline fill="none" stroke="black" points="458,-384 458,-372 "/>
<path fill="none" stroke="black" d="M458,-372C458,-366 464,-360 470,-360"/>
<polyline fill="none" stroke="black" points="470,-360 568,-360 "/>
<path fill="none" stroke="black" d="M568,-360C574,-360 580,-366 580,-372"/>
<polyline fill="none" stroke="black" points="580,-372 580,-384 "/>
<path fill="none" stroke="black" d="M580,-384C580,-390 574,-396 568,-396"/>
<text text-anchor="middle" x="519" y="-374.4" font-family="Times Roman,serif" font-size="14.00">WebServerPort</text>
</g>
<!-- WebServerPort&#45;&gt;ElasticLoadBalancer -->
<g id="edge16" class="edge"><title>WebServerPort&#45;&gt;ElasticLoadBalancer</title>
<path fill="none" stroke="black" d="M517.644,-359.955C519.588,-322.314 531.833,-235.187 541.24,-190.125"/>
<polygon fill="black" stroke="black" points="544.705,-190.664 543.441,-180.145 537.869,-189.157 544.705,-190.664"/>
</g>
<!-- WebServerPort&#45;&gt;ElasticLoadBalancer -->
<g id="edge18" class="edge"><title>WebServerPort&#45;&gt;ElasticLoadBalancer</title>
<path fill="none" stroke="black" d="M525.536,-359.955C534.396,-322.314 547.16,-235.187 550.687,-190.125"/>
<polygon fill="black" stroke="black" points="554.18,-190.355 551.351,-180.145 547.195,-189.891 554.18,-190.355"/>
</g>
<!-- WebServerPort&#45;&gt;Ec2Instance2 -->
<g id="edge20" class="edge"><title>WebServerPort&#45;&gt;Ec2Instance2</title>
<path fill="none" stroke="black" d="M520.055,-359.869C520.217,-339.91 517.391,-308.007 500,-288 478.593,-263.373 445.043,-249.975 415.195,-242.687"/>
<polygon fill="black" stroke="black" points="415.763,-239.227 405.238,-240.442 414.223,-246.055 415.763,-239.227"/>
</g>
<!-- WebServerPort&#45;&gt;Ec2Instance1 -->
<g id="edge30" class="edge"><title>WebServerPort&#45;&gt;Ec2Instance1</title>
<path fill="none" stroke="black" d="M457.652,-361.685C454.735,-361.079 451.84,-360.513 449,-360 374.45,-346.531 160.661,-380.326 110,-324 94.624,-306.905 103.043,-280.747 113.435,-261.029"/>
<polygon fill="black" stroke="black" points="116.549,-262.633 118.434,-252.207 110.459,-259.182 116.549,-262.633"/>
</g>
<!-- WebServerPort&#45;&gt;InstanceSecurityGroup -->
<g id="edge42" class="edge"><title>WebServerPort&#45;&gt;InstanceSecurityGroup</title>
<path fill="none" stroke="black" d="M484.028,-359.831C468.566,-350.707 450.582,-339.539 435.536,-329.745"/>
<polygon fill="black" stroke="black" points="437.335,-326.739 427.058,-324.163 433.486,-332.585 437.335,-326.739"/>
</g>
<!-- WebServerPort&#45;&gt;InstanceSecurityGroup -->
<g id="edge44" class="edge"><title>WebServerPort&#45;&gt;InstanceSecurityGroup</title>
<path fill="none" stroke="black" d="M495.933,-359.831C482.121,-350.622 464.226,-339.33 447.86,-329.471"/>
<polygon fill="black" stroke="black" points="449.343,-326.28 438.962,-324.163 445.757,-332.291 449.343,-326.28"/>
</g>
<!-- InstanceType -->
<g id="node11" class="node"><title>InstanceType</title>
<polygon fill="lightgrey" stroke="lightgrey" points="94,-396 12,-396 3.78956e-14,-384 1.89478e-14,-372 12,-360 94,-360 106,-372 106,-384 94,-396"/>
<path fill="lightgrey" stroke="lightgrey" d="M12,-396C6,-396 4.73695e-14,-390 3.78956e-14,-384"/>
<path fill="lightgrey" stroke="lightgrey" d="M1.89478e-14,-372C9.4739e-15,-366 6,-360 12,-360"/>
<path fill="lightgrey" stroke="lightgrey" d="M94,-360C100,-360 106,-366 106,-372"/>
<path fill="lightgrey" stroke="lightgrey" d="M106,-384C106,-390 100,-396 94,-396"/>
<polyline fill="none" stroke="black" points="94,-396 12,-396 "/>
<path fill="none" stroke="black" d="M12,-396C6,-396 4.73695e-14,-390 3.78956e-14,-384"/>
<polyline fill="none" stroke="black" points="3.78956e-14,-384 1.89478e-14,-372 "/>
<path fill="none" stroke="black" d="M1.89478e-14,-372C9.4739e-15,-366 6,-360 12,-360"/>
<polyline fill="none" stroke="black" points="12,-360 94,-360 "/>
<path fill="none" stroke="black" d="M94,-360C100,-360 106,-366 106,-372"/>
<polyline fill="none" stroke="black" points="106,-372 106,-384 "/>
<path fill="none" stroke="black" d="M106,-384C106,-390 100,-396 94,-396"/>
<text text-anchor="middle" x="53" y="-374.4" font-family="Times Roman,serif" font-size="14.00">InstanceType</text>
</g>
<!-- InstanceType&#45;&gt;Ec2Instance2 -->
<g id="edge28" class="edge"><title>InstanceType&#45;&gt;Ec2Instance2</title>
<path fill="none" stroke="black" d="M106.361,-367.533C143.076,-359.004 192.204,-344.914 232,-324 254.672,-312.085 256.65,-303.553 277,-288 289.936,-278.113 304.36,-267.498 317.013,-258.318"/>
<polygon fill="black" stroke="black" points="319.397,-260.914 325.45,-252.219 315.296,-255.241 319.397,-260.914"/>
</g>
<!-- InstanceType&#45;&gt;Ec2Instance1 -->
<g id="edge38" class="edge"><title>InstanceType&#45;&gt;Ec2Instance1</title>
<path fill="none" stroke="black" d="M43.7288,-359.853C35.3704,-340.739 26.1926,-310.368 39,-288 46.4023,-275.072 58.2358,-264.937 70.985,-257.116"/>
<polygon fill="black" stroke="black" points="72.9335,-260.035 79.9145,-252.065 69.4872,-253.942 72.9335,-260.035"/>
</g>
<!-- AWS::Region -->
<g id="node25" class="node"><title>AWS::Region</title>
<polygon fill="none" stroke="black" points="223,-324 119,-324 119,-288 223,-288 223,-324"/>
<text text-anchor="middle" x="171" y="-302.4" font-family="Times Roman,serif" font-size="14.00">AWS::Region</text>
</g>
<!-- AWS::Region&#45;&gt;Ec2Instance2 -->
<g id="edge26" class="edge"><title>AWS::Region&#45;&gt;Ec2Instance2</title>
<path fill="none" stroke="black" d="M216.422,-287.831C240.71,-278.116 270.792,-266.083 296.352,-255.859"/>
<polygon fill="black" stroke="black" points="297.92,-259.002 305.905,-252.038 295.32,-252.502 297.92,-259.002"/>
</g>
<!-- AWS::Region&#45;&gt;Ec2Instance1 -->
<g id="edge36" class="edge"><title>AWS::Region&#45;&gt;Ec2Instance1</title>
<path fill="none" stroke="black" d="M160.906,-287.831C156.44,-279.792 151.093,-270.167 146.162,-261.292"/>
<polygon fill="black" stroke="black" points="149.146,-259.455 141.23,-252.413 143.027,-262.855 149.146,-259.455"/>
</g>
</g>
</svg>
