<?xml version="1.0" encoding="UTF-8" standalone="no"?>
<!DOCTYPE svg PUBLIC "-//W3C//DTD SVG 1.1//EN"
 "http://www.w3.org/Graphics/SVG/1.1/DTD/svg11.dtd">
<!-- Generated by graphviz version 2.26.3 (20100126.1600)
 -->
<!-- Title: AWS CloudFormation Sample Template IAM_Users_Groups_and_Policies: Sample template showing how to create IAM users, groups and policies. It creates a single user that is a member of a users group and an admin group. The groups each have different IAM policies associated with them. Note: This example also creates an AWSAccessKeyId/AWSSecretKey pair associated with the new user. The example is somewhat contrived since it creates all of the users and groups, typically you would be creating policies, users and/or groups that contain referemces to existing users or groups in your environment. Note that you will need to specify the CAPABILITY_IAM flag when you create the stack to allow this template to execute. You can do this through the AWS management console by clicking on the check box acknowledging that you understand this template creates IAM resources or by specifying the CAPABILITY_IAM flag to the cfn&#45;create&#45;stack command line tool or CreateStack API call.  Pages: 1 -->
<svg width="540pt" height="260pt"
 viewBox="0.00 0.00 540.00 260.00" xmlns="http://www.w3.org/2000/svg" xmlns:xlink="http://www.w3.org/1999/xlink">
<g id="graph1" class="graph" transform="scale(1 1) rotate(0) translate(4 256)">
<title>AWS CloudFormation Sample Template IAM_Users_Groups_and_Policies: Sample template showing how to create IAM users, groups and policies. It creates a single user that is a member of a users group and an admin group. The groups each have different IAM policies associated with them. Note: This example also creates an AWSAccessKeyId/AWSSecretKey pair associated with the new user. The example is somewhat contrived since it creates all of the users and groups, typically you would be creating policies, users and/or groups that contain referemces to existing users or groups in your environment. Note that you will need to specify the CAPABILITY_IAM flag when you create the stack to allow this template to execute. You can do this through the AWS management console by clicking on the check box acknowledging that you understand this template creates IAM resources or by specifying the CAPABILITY_IAM flag to the cfn&#45;create&#45;stack command line tool or CreateStack API call. </title>
<polygon fill="white" stroke="white" points="-4,5 -4,-256 537,-256 537,5 -4,5"/>
<!-- CFNAdminGroup -->
<g id="node1" class="node"><title>CFNAdminGroup</title>
<polygon fill="none" stroke="black" points="178,-180 48,-180 48,-144 178,-144 178,-180"/>
<text text-anchor="middle" x="113" y="-158.4" font-family="Times Roman,serif" font-size="14.00">CFNAdminGroup</text>
</g>
<!-- Admins -->
<g id="node4" class="node"><title>Admins</title>
<polygon fill="none" stroke="black" points="222,-108 156,-108 156,-72 222,-72 222,-108"/>
<text text-anchor="middle" x="189" y="-86.4" font-family="Times Roman,serif" font-size="14.00">Admins</text>
</g>
<!-- CFNAdminGroup&#45;&gt;Admins -->
<g id="edge8" class="edge"><title>CFNAdminGroup&#45;&gt;Admins</title>
<path fill="none" stroke="black" d="M132.178,-143.831C141.359,-135.134 152.501,-124.578 162.478,-115.127"/>
<polygon fill="black" stroke="black" points="164.976,-117.581 169.828,-108.163 160.161,-112.499 164.976,-117.581"/>
</g>
<!-- CFNAdminPolicies -->
<g id="node5" class="node"><title>CFNAdminPolicies</title>
<polygon fill="none" stroke="black" points="138,-108 7.10543e-14,-108 0,-72 138,-72 138,-108"/>
<text text-anchor="middle" x="69" y="-86.4" font-family="Times Roman,serif" font-size="14.00">CFNAdminPolicies</text>
</g>
<!-- CFNAdminGroup&#45;&gt;CFNAdminPolicies -->
<g id="edge12" class="edge"><title>CFNAdminGroup&#45;&gt;CFNAdminPolicies</title>
<path fill="none" stroke="black" d="M101.897,-143.831C96.9326,-135.708 90.9778,-125.964 85.5072,-117.012"/>
<polygon fill="black" stroke="black" points="88.4536,-115.121 80.2526,-108.413 82.4806,-118.771 88.4536,-115.121"/>
</g>
<!-- Users -->
<g id="node2" class="node"><title>Users</title>
<polygon fill="none" stroke="black" points="388,-108 334,-108 334,-72 388,-72 388,-108"/>
<text text-anchor="middle" x="361" y="-86.4" font-family="Times Roman,serif" font-size="14.00">Users</text>
</g>
<!-- CFNUserGroup -->
<g id="node3" class="node"><title>CFNUserGroup</title>
<polygon fill="none" stroke="black" points="490,-180 372,-180 372,-144 490,-144 490,-180"/>
<text text-anchor="middle" x="431" y="-158.4" font-family="Times Roman,serif" font-size="14.00">CFNUserGroup</text>
</g>
<!-- CFNUserGroup&#45;&gt;Users -->
<g id="edge4" class="edge"><title>CFNUserGroup&#45;&gt;Users</title>
<path fill="none" stroke="black" d="M413.336,-143.831C405.027,-135.285 394.974,-124.944 385.908,-115.62"/>
<polygon fill="black" stroke="black" points="388.382,-113.143 378.902,-108.413 383.363,-118.023 388.382,-113.143"/>
</g>
<!-- CFNUserPolicies -->
<g id="node7" class="node"><title>CFNUserPolicies</title>
<polygon fill="none" stroke="black" points="532,-108 406,-108 406,-72 532,-72 532,-108"/>
<text text-anchor="middle" x="469" y="-86.4" font-family="Times Roman,serif" font-size="14.00">CFNUserPolicies</text>
</g>
<!-- CFNUserGroup&#45;&gt;CFNUserPolicies -->
<g id="edge16" class="edge"><title>CFNUserGroup&#45;&gt;CFNUserPolicies</title>
<path fill="none" stroke="black" d="M440.589,-143.831C444.832,-135.792 449.912,-126.167 454.596,-117.292"/>
<polygon fill="black" stroke="black" points="457.71,-118.891 459.282,-108.413 451.519,-115.623 457.71,-118.891"/>
</g>
<!-- CFNKeys -->
<g id="node6" class="node"><title>CFNKeys</title>
<polygon fill="none" stroke="black" points="316,-108 240,-108 240,-72 316,-72 316,-108"/>
<text text-anchor="middle" x="278" y="-86.4" font-family="Times Roman,serif" font-size="14.00">CFNKeys</text>
</g>
<!-- SecretKey -->
<g id="node12" class="node"><title>SecretKey</title>
<polygon fill="lightgrey" stroke="lightgrey" points="257,-36 195,-36 183,-24 183,-12 195,-1.57807e-14 257,-5.53562e-15 269,-12 269,-24 257,-36"/>
<path fill="lightgrey" stroke="lightgrey" d="M195,-36C189,-36 183,-30 183,-24"/>
<path fill="lightgrey" stroke="lightgrey" d="M183,-12C183,-6 189,-1.67721e-14 195,-1.57807e-14"/>
<path fill="lightgrey" stroke="lightgrey" d="M257,-5.53562e-15C263,-4.54417e-15 269,-6 269,-12"/>
<path fill="lightgrey" stroke="lightgrey" d="M269,-24C269,-30 263,-36 257,-36"/>
<polyline fill="none" stroke="black" points="257,-36 195,-36 "/>
<path fill="none" stroke="black" d="M195,-36C189,-36 183,-30 183,-24"/>
<polyline fill="none" stroke="black" points="183,-24 183,-12 "/>
<path fill="none" stroke="black" d="M183,-12C183,-6 189,-1.67721e-14 195,-1.57807e-14"/>
<polyline fill="none" stroke="black" points="195,-1.57807e-14 257,-5.53562e-15 "/>
<path fill="none" stroke="black" d="M257,-5.53562e-15C263,-4.54417e-15 269,-6 269,-12"/>
<polyline fill="none" stroke="black" points="269,-12 269,-24 "/>
<path fill="none" stroke="black" d="M269,-24C269,-30 263,-36 257,-36"/>
<text text-anchor="middle" x="226" y="-14.4" font-family="Times Roman,serif" font-size="14.00">SecretKey</text>
</g>
<!-- CFNKeys&#45;&gt;SecretKey -->
<g id="edge20" class="edge"><title>CFNKeys&#45;&gt;SecretKey</title>
<path fill="none" stroke="black" d="M264.878,-71.8314C258.95,-63.6232 251.827,-53.7606 245.307,-44.7323"/>
<polygon fill="black" stroke="black" points="247.991,-42.4708 239.298,-36.4133 242.316,-46.5693 247.991,-42.4708"/>
</g>
<!-- AccessKey -->
<g id="node13" class="node"><title>AccessKey</title>
<polygon fill="lightgrey" stroke="lightgrey" points="361,-36 299,-36 287,-24 287,-12 299,-1.57807e-14 361,-5.53562e-15 373,-12 373,-24 361,-36"/>
<path fill="lightgrey" stroke="lightgrey" d="M299,-36C293,-36 287,-30 287,-24"/>
<path fill="lightgrey" stroke="lightgrey" d="M287,-12C287,-6 293,-1.67721e-14 299,-1.57807e-14"/>
<path fill="lightgrey" stroke="lightgrey" d="M361,-5.53562e-15C367,-4.54417e-15 373,-6 373,-12"/>
<path fill="lightgrey" stroke="lightgrey" d="M373,-24C373,-30 367,-36 361,-36"/>
<polyline fill="none" stroke="black" points="361,-36 299,-36 "/>
<path fill="none" stroke="black" d="M299,-36C293,-36 287,-30 287,-24"/>
<polyline fill="none" stroke="black" points="287,-24 287,-12 "/>
<path fill="none" stroke="black" d="M287,-12C287,-6 293,-1.67721e-14 299,-1.57807e-14"/>
<polyline fill="none" stroke="black" points="299,-1.57807e-14 361,-5.53562e-15 "/>
<path fill="none" stroke="black" d="M361,-5.53562e-15C367,-4.54417e-15 373,-6 373,-12"/>
<polyline fill="none" stroke="black" points="373,-12 373,-24 "/>
<path fill="none" stroke="black" d="M373,-24C373,-30 367,-36 361,-36"/>
<text text-anchor="middle" x="330" y="-14.4" font-family="Times Roman,serif" font-size="14.00">AccessKey</text>
</g>
<!-- CFNKeys&#45;&gt;AccessKey -->
<g id="edge22" class="edge"><title>CFNKeys&#45;&gt;AccessKey</title>
<path fill="none" stroke="black" d="M291.122,-71.8314C297.05,-63.6232 304.173,-53.7606 310.693,-44.7323"/>
<polygon fill="black" stroke="black" points="313.684,-46.5693 316.702,-36.4133 308.009,-42.4708 313.684,-46.5693"/>
</g>
<!-- CFNUser -->
<g id="node8" class="node"><title>CFNUser</title>
<polygon fill="none" stroke="black" points="316,-180 240,-180 240,-144 316,-144 316,-180"/>
<text text-anchor="middle" x="278" y="-158.4" font-family="Times Roman,serif" font-size="14.00">CFNUser</text>
</g>
<!-- CFNUser&#45;&gt;Users -->
<g id="edge6" class="edge"><title>CFNUser&#45;&gt;Users</title>
<path fill="none" stroke="black" d="M298.944,-143.831C309.069,-135.048 321.378,-124.371 332.355,-114.849"/>
<polygon fill="black" stroke="black" points="334.802,-117.359 340.062,-108.163 330.215,-112.072 334.802,-117.359"/>
</g>
<!-- CFNUser&#45;&gt;Admins -->
<g id="edge10" class="edge"><title>CFNUser&#45;&gt;Admins</title>
<path fill="none" stroke="black" d="M255.542,-143.831C244.58,-134.963 231.23,-124.164 219.374,-114.572"/>
<polygon fill="black" stroke="black" points="221.427,-111.731 211.451,-108.163 217.024,-117.173 221.427,-111.731"/>
</g>
<!-- CFNUser&#45;&gt;CFNKeys -->
<g id="edge14" class="edge"><title>CFNUser&#45;&gt;CFNKeys</title>
<path fill="none" stroke="black" d="M278,-143.831C278,-136.131 278,-126.974 278,-118.417"/>
<polygon fill="black" stroke="black" points="281.5,-118.413 278,-108.413 274.5,-118.413 281.5,-118.413"/>
</g>
<!-- Password -->
<g id="node10" class="node"><title>Password</title>
<polygon fill="lightgrey" stroke="lightgrey" points="307,-252 249,-252 237,-240 237,-228 249,-216 307,-216 319,-228 319,-240 307,-252"/>
<path fill="lightgrey" stroke="lightgrey" d="M249,-252C243,-252 237,-246 237,-240"/>
<path fill="lightgrey" stroke="lightgrey" d="M237,-228C237,-222 243,-216 249,-216"/>
<path fill="lightgrey" stroke="lightgrey" d="M307,-216C313,-216 319,-222 319,-228"/>
<path fill="lightgrey" stroke="lightgrey" d="M319,-240C319,-246 313,-252 307,-252"/>
<polyline fill="none" stroke="black" points="307,-252 249,-252 "/>
<path fill="none" stroke="black" d="M249,-252C243,-252 237,-246 237,-240"/>
<polyline fill="none" stroke="black" points="237,-240 237,-228 "/>
<path fill="none" stroke="black" d="M237,-228C237,-222 243,-216 249,-216"/>
<polyline fill="none" stroke="black" points="249,-216 307,-216 "/>
<path fill="none" stroke="black" d="M307,-216C313,-216 319,-222 319,-228"/>
<polyline fill="none" stroke="black" points="319,-228 319,-240 "/>
<path fill="none" stroke="black" d="M319,-240C319,-246 313,-252 307,-252"/>
<text text-anchor="middle" x="278" y="-230.4" font-family="Times Roman,serif" font-size="14.00">Password</text>
</g>
<!-- Password&#45;&gt;CFNUser -->
<g id="edge18" class="edge"><title>Password&#45;&gt;CFNUser</title>
<path fill="none" stroke="black" d="M278,-215.831C278,-208.131 278,-198.974 278,-190.417"/>
<polygon fill="black" stroke="black" points="281.5,-190.413 278,-180.413 274.5,-190.413 281.5,-190.413"/>
</g>
</g>
</svg>
