<?xml version="1.0" encoding="UTF-8" standalone="no"?>
<!DOCTYPE svg PUBLIC "-//W3C//DTD SVG 1.1//EN"
 "http://www.w3.org/Graphics/SVG/1.1/DTD/svg11.dtd">
<!-- Generated by graphviz version 2.26.3 (20100126.1600)
 -->
<!-- Title: AWS CloudFormation Sample Template IAM_Policies_SNS_Publish_To_SQS: Sample template showing how to grant rights so that you can publish SNS notifications to an SQS queue. Note that you will need to specify the CAPABILITY_IAM flag when you create the stack to allow this template to execute. You can do this through the AWS management console by clicking on the check box acknowledging that you understand this template creates IAM resources or by specifying the CAPABILITY_IAM flag to the cfn&#45;create&#45;stack command line tool or CreateStack API call. **WARNING** This template creates an Amazon SQS queue and an Amazon SNS topic. You will be billed for the AWS resources used if you create a stack from this template. Pages: 1 -->
<svg width="337pt" height="260pt"
 viewBox="0.00 0.00 337.00 260.00" xmlns="http://www.w3.org/2000/svg" xmlns:xlink="http://www.w3.org/1999/xlink">
<g id="graph1" class="graph" transform="scale(1 1) rotate(0) translate(4 256)">
<title>AWS CloudFormation Sample Template IAM_Policies_SNS_Publish_To_SQS: Sample template showing how to grant rights so that you can publish SNS notifications to an SQS queue. Note that you will need to specify the CAPABILITY_IAM flag when you create the stack to allow this template to execute. You can do this through the AWS management console by clicking on the check box acknowledging that you understand this template creates IAM resources or by specifying the CAPABILITY_IAM flag to the cfn&#45;create&#45;stack command line tool or CreateStack API call. **WARNING** This template creates an Amazon SQS queue and an Amazon SNS topic. You will be billed for the AWS resources used if you create a stack from this template.</title>
<polygon fill="white" stroke="white" points="-4,5 -4,-256 334,-256 334,5 -4,5"/>
<!-- SQSQueue -->
<g id="node1" class="node"><title>SQSQueue</title>
<polygon fill="none" stroke="black" points="164,-252 72,-252 72,-216 164,-216 164,-252"/>
<text text-anchor="middle" x="118" y="-230.4" font-family="Times Roman,serif" font-size="14.00">SQSQueue</text>
</g>
<!-- AllowSNS2SQSPolicy -->
<g id="node2" class="node"><title>AllowSNS2SQSPolicy</title>
<polygon fill="none" stroke="black" points="160,-108 8.52651e-14,-108 0,-72 160,-72 160,-108"/>
<text text-anchor="middle" x="80" y="-86.4" font-family="Times Roman,serif" font-size="14.00">AllowSNS2SQSPolicy</text>
</g>
<!-- SQSQueue&#45;&gt;AllowSNS2SQSPolicy -->
<g id="edge3" class="edge"><title>SQSQueue&#45;&gt;AllowSNS2SQSPolicy</title>
<path fill="none" stroke="black" d="M108.514,-215.762C99.5335,-191.093 87.5946,-146.86 81.9097,-117.973"/>
<polygon fill="black" stroke="black" points="85.3455,-117.304 80.1154,-108.09 78.4581,-118.554 85.3455,-117.304"/>
</g>
<!-- SQSQueue&#45;&gt;AllowSNS2SQSPolicy -->
<g id="edge5" class="edge"><title>SQSQueue&#45;&gt;AllowSNS2SQSPolicy</title>
<path fill="none" stroke="black" d="M117.86,-215.762C113.803,-190.985 102.315,-146.471 92.7281,-117.594"/>
<polygon fill="black" stroke="black" points="96.0154,-116.391 89.4319,-108.09 89.4019,-118.684 96.0154,-116.391"/>
</g>
<!-- SNSTopic -->
<g id="node3" class="node"><title>SNSTopic</title>
<polygon fill="none" stroke="black" points="195,-180 117,-180 117,-144 195,-144 195,-180"/>
<text text-anchor="middle" x="156" y="-158.4" font-family="Times Roman,serif" font-size="14.00">SNSTopic</text>
</g>
<!-- SQSQueue&#45;&gt;SNSTopic -->
<g id="edge9" class="edge"><title>SQSQueue&#45;&gt;SNSTopic</title>
<path fill="none" stroke="black" d="M127.589,-215.831C131.832,-207.792 136.912,-198.167 141.596,-189.292"/>
<polygon fill="black" stroke="black" points="144.71,-190.891 146.282,-180.413 138.519,-187.623 144.71,-190.891"/>
</g>
<!-- QueueArn -->
<g id="node6" class="node"><title>QueueArn</title>
<polygon fill="lightgrey" stroke="lightgrey" points="317,-36 255,-36 243,-24 243,-12 255,-1.57807e-14 317,-5.53562e-15 329,-12 329,-24 317,-36"/>
<path fill="lightgrey" stroke="lightgrey" d="M255,-36C249,-36 243,-30 243,-24"/>
<path fill="lightgrey" stroke="lightgrey" d="M243,-12C243,-6 249,-1.67721e-14 255,-1.57807e-14"/>
<path fill="lightgrey" stroke="lightgrey" d="M317,-5.53562e-15C323,-4.54417e-15 329,-6 329,-12"/>
<path fill="lightgrey" stroke="lightgrey" d="M329,-24C329,-30 323,-36 317,-36"/>
<polyline fill="none" stroke="black" points="317,-36 255,-36 "/>
<path fill="none" stroke="black" d="M255,-36C249,-36 243,-30 243,-24"/>
<polyline fill="none" stroke="black" points="243,-24 243,-12 "/>
<path fill="none" stroke="black" d="M243,-12C243,-6 249,-1.67721e-14 255,-1.57807e-14"/>
<polyline fill="none" stroke="black" points="255,-1.57807e-14 317,-5.53562e-15 "/>
<path fill="none" stroke="black" d="M317,-5.53562e-15C323,-4.54417e-15 329,-6 329,-12"/>
<polyline fill="none" stroke="black" points="329,-12 329,-24 "/>
<path fill="none" stroke="black" d="M329,-24C329,-30 323,-36 317,-36"/>
<text text-anchor="middle" x="286" y="-14.4" font-family="Times Roman,serif" font-size="14.00">QueueArn</text>
</g>
<!-- SQSQueue&#45;&gt;QueueArn -->
<g id="edge13" class="edge"><title>SQSQueue&#45;&gt;QueueArn</title>
<path fill="none" stroke="black" d="M156.392,-215.813C172.571,-206.75 190.695,-194.59 204,-180 240.634,-139.826 265.126,-80.2514 277.208,-45.6529"/>
<polygon fill="black" stroke="black" points="280.524,-46.7742 280.423,-36.1798 273.895,-44.5245 280.524,-46.7742"/>
</g>
<!-- SNSTopic&#45;&gt;AllowSNS2SQSPolicy -->
<g id="edge7" class="edge"><title>SNSTopic&#45;&gt;AllowSNS2SQSPolicy</title>
<path fill="none" stroke="black" d="M136.822,-143.831C127.641,-135.134 116.499,-124.578 106.522,-115.127"/>
<polygon fill="black" stroke="black" points="108.839,-112.499 99.1719,-108.163 104.024,-117.581 108.839,-112.499"/>
</g>
<!-- TopicArn -->
<g id="node5" class="node"><title>TopicArn</title>
<polygon fill="lightgrey" stroke="lightgrey" points="213,-36 163,-36 151,-24 151,-12 163,-1.54591e-14 213,-5.85718e-15 225,-12 225,-24 213,-36"/>
<path fill="lightgrey" stroke="lightgrey" d="M163,-36C157,-36 151,-30 151,-24"/>
<path fill="lightgrey" stroke="lightgrey" d="M151,-12C151,-6 157,-1.66113e-14 163,-1.54591e-14"/>
<path fill="lightgrey" stroke="lightgrey" d="M213,-5.85718e-15C219,-4.70495e-15 225,-6 225,-12"/>
<path fill="lightgrey" stroke="lightgrey" d="M225,-24C225,-30 219,-36 213,-36"/>
<polyline fill="none" stroke="black" points="213,-36 163,-36 "/>
<path fill="none" stroke="black" d="M163,-36C157,-36 151,-30 151,-24"/>
<polyline fill="none" stroke="black" points="151,-24 151,-12 "/>
<path fill="none" stroke="black" d="M151,-12C151,-6 157,-1.66113e-14 163,-1.54591e-14"/>
<polyline fill="none" stroke="black" points="163,-1.54591e-14 213,-5.85718e-15 "/>
<path fill="none" stroke="black" d="M213,-5.85718e-15C219,-4.70495e-15 225,-6 225,-12"/>
<polyline fill="none" stroke="black" points="225,-12 225,-24 "/>
<path fill="none" stroke="black" d="M225,-24C225,-30 219,-36 213,-36"/>
<text text-anchor="middle" x="188" y="-14.4" font-family="Times Roman,serif" font-size="14.00">TopicArn</text>
</g>
<!-- SNSTopic&#45;&gt;TopicArn -->
<g id="edge11" class="edge"><title>SNSTopic&#45;&gt;TopicArn</title>
<path fill="none" stroke="black" d="M160.581,-143.536C163.132,-133.118 166.323,-119.851 169,-108 173.633,-87.4895 178.526,-64.2685 182.187,-46.5512"/>
<polygon fill="black" stroke="black" points="185.708,-46.8044 184.293,-36.3044 178.851,-45.3948 185.708,-46.8044"/>
</g>
</g>
</svg>
