<?xml version="1.0" encoding="UTF-8" standalone="no"?>
<!DOCTYPE svg PUBLIC "-//W3C//DTD SVG 1.1//EN"
 "http://www.w3.org/Graphics/SVG/1.1/DTD/svg11.dtd">
<!-- Generated by graphviz version 2.26.3 (20100126.1600)
 -->
<!-- Title: AWS CloudFormation Sample Template IAM_Policies_for_S3: Sample template showing how to create an IAM user with access to an S3 bucket via an IAM policy. Note that you will need to specify the CAPABILITY_IAM flag when you create the stack to allow this template to execute. You can do this through the AWS management console by clicking on the check box acknowledging that you understand this template creates IAM resources or by specifying the CAPABILITY_IAM flag to the cfn&#45;create&#45;stack command line tool or CreateStack API call. **WARNING** This template creates an Amazon S3 bucket. You will be billed for the AWS resources used if you create a stack from this template. Pages: 1 -->
<svg width="224pt" height="188pt"
 viewBox="0.00 0.00 224.00 188.00" xmlns="http://www.w3.org/2000/svg" xmlns:xlink="http://www.w3.org/1999/xlink">
<g id="graph1" class="graph" transform="scale(1 1) rotate(0) translate(4 184)">
<title>AWS CloudFormation Sample Template IAM_Policies_for_S3: Sample template showing how to create an IAM user with access to an S3 bucket via an IAM policy. Note that you will need to specify the CAPABILITY_IAM flag when you create the stack to allow this template to execute. You can do this through the AWS management console by clicking on the check box acknowledging that you understand this template creates IAM resources or by specifying the CAPABILITY_IAM flag to the cfn&#45;create&#45;stack command line tool or CreateStack API call. **WARNING** This template creates an Amazon S3 bucket. You will be billed for the AWS resources used if you create a stack from this template.</title>
<polygon fill="white" stroke="white" points="-4,5 -4,-184 221,-184 221,5 -4,5"/>
<!-- S3Bucket -->
<g id="node1" class="node"><title>S3Bucket</title>
<polygon fill="none" stroke="black" points="166,-180 84,-180 84,-144 166,-144 166,-180"/>
<text text-anchor="middle" x="125" y="-158.4" font-family="Times Roman,serif" font-size="14.00">S3Bucket</text>
</g>
<!-- BucketPolicy -->
<g id="node2" class="node"><title>BucketPolicy</title>
<polygon fill="none" stroke="black" points="136,-108 34,-108 34,-72 136,-72 136,-108"/>
<text text-anchor="middle" x="85" y="-86.4" font-family="Times Roman,serif" font-size="14.00">BucketPolicy</text>
</g>
<!-- S3Bucket&#45;&gt;BucketPolicy -->
<g id="edge5" class="edge"><title>S3Bucket&#45;&gt;BucketPolicy</title>
<path fill="none" stroke="black" d="M108.954,-143.831C103.76,-135.877 98.2673,-126.369 93.7351,-117.572"/>
<polygon fill="black" stroke="black" points="96.7926,-115.857 89.2536,-108.413 90.5049,-118.934 96.7926,-115.857"/>
</g>
<!-- S3Bucket&#45;&gt;BucketPolicy -->
<g id="edge7" class="edge"><title>S3Bucket&#45;&gt;BucketPolicy</title>
<path fill="none" stroke="black" d="M120.859,-143.831C117.137,-135.708 111.926,-125.964 106.566,-117.012"/>
<polygon fill="black" stroke="black" points="109.466,-115.048 101.206,-108.413 103.526,-118.751 109.466,-115.048"/>
</g>
<!-- BucketName -->
<g id="node5" class="node"><title>BucketName</title>
<polygon fill="lightgrey" stroke="lightgrey" points="204,-36 124,-36 112,-24 112,-12 124,-1.61239e-14 204,-5.19243e-15 216,-12 216,-24 204,-36"/>
<path fill="lightgrey" stroke="lightgrey" d="M124,-36C118,-36 112,-30 112,-24"/>
<path fill="lightgrey" stroke="lightgrey" d="M112,-12C112,-6 118,-1.69437e-14 124,-1.61239e-14"/>
<path fill="lightgrey" stroke="lightgrey" d="M204,-5.19243e-15C210,-4.37257e-15 216,-6 216,-12"/>
<path fill="lightgrey" stroke="lightgrey" d="M216,-24C216,-30 210,-36 204,-36"/>
<polyline fill="none" stroke="black" points="204,-36 124,-36 "/>
<path fill="none" stroke="black" d="M124,-36C118,-36 112,-30 112,-24"/>
<polyline fill="none" stroke="black" points="112,-24 112,-12 "/>
<path fill="none" stroke="black" d="M112,-12C112,-6 118,-1.69437e-14 124,-1.61239e-14"/>
<polyline fill="none" stroke="black" points="124,-1.61239e-14 204,-5.19243e-15 "/>
<path fill="none" stroke="black" d="M204,-5.19243e-15C210,-4.37257e-15 216,-6 216,-12"/>
<polyline fill="none" stroke="black" points="216,-12 216,-24 "/>
<path fill="none" stroke="black" d="M216,-24C216,-30 210,-36 204,-36"/>
<text text-anchor="middle" x="164" y="-14.4" font-family="Times Roman,serif" font-size="14.00">BucketName</text>
</g>
<!-- S3Bucket&#45;&gt;BucketName -->
<g id="edge9" class="edge"><title>S3Bucket&#45;&gt;BucketName</title>
<path fill="none" stroke="black" d="M132.528,-143.729C136.603,-133.372 141.502,-120.101 145,-108 150.903,-87.5768 155.805,-64.0567 159.15,-46.1834"/>
<polygon fill="black" stroke="black" points="162.634,-46.5862 160.982,-36.1211 155.748,-45.3329 162.634,-46.5862"/>
</g>
<!-- S3User -->
<g id="node3" class="node"><title>S3User</title>
<polygon fill="none" stroke="black" points="66,-180 2.84217e-14,-180 0,-144 66,-144 66,-180"/>
<text text-anchor="middle" x="33" y="-158.4" font-family="Times Roman,serif" font-size="14.00">S3User</text>
</g>
<!-- S3User&#45;&gt;BucketPolicy -->
<g id="edge3" class="edge"><title>S3User&#45;&gt;BucketPolicy</title>
<path fill="none" stroke="black" d="M46.1218,-143.831C52.0499,-135.623 59.1729,-125.761 65.6933,-116.732"/>
<polygon fill="black" stroke="black" points="68.684,-118.569 71.7015,-108.413 63.0092,-114.471 68.684,-118.569"/>
</g>
</g>
</svg>
