<?xml version="1.0" encoding="UTF-8" standalone="no"?>
<!DOCTYPE svg PUBLIC "-//W3C//DTD SVG 1.1//EN"
 "http://www.w3.org/Graphics/SVG/1.1/DTD/svg11.dtd">
<!-- Generated by graphviz version 2.26.3 (20100126.1600)
 -->
<!-- Title: AWS CloudFormation Sample Template Insoshi_Single_Instance: Insoshi is an open source social networking platform in Ruby on Rails. This template creates a Insoshi stack using a single EC2 instance and a local MySQL database for storage. It demonstrates using the AWS CloudFormation bootstrap scripts to install the packages and files necessary to deploy the Insoshi, Rails, MySQL and all dependent packages at instance launch time. **WARNING** This template creates an Amazon EC2 instance and other AWS resources. You will be billed for the AWS resources used if you create a stack from this template. Pages: 1 -->
<svg width="996pt" height="260pt"
 viewBox="0.00 0.00 996.00 260.00" xmlns="http://www.w3.org/2000/svg" xmlns:xlink="http://www.w3.org/1999/xlink">
<g id="graph1" class="graph" transform="scale(1 1) rotate(0) translate(4 256)">
<title>AWS CloudFormation Sample Template Insoshi_Single_Instance: Insoshi is an open source social networking platform in Ruby on Rails. This template creates a Insoshi stack using a single EC2 instance and a local MySQL database for storage. It demonstrates using the AWS CloudFormation bootstrap scripts to install the packages and files necessary to deploy the Insoshi, Rails, MySQL and all dependent packages at instance launch time. **WARNING** This template creates an Amazon EC2 instance and other AWS resources. You will be billed for the AWS resources used if you create a stack from this template.</title>
<polygon fill="white" stroke="white" points="-4,5 -4,-256 993,-256 993,5 -4,5"/>
<!-- WebServer -->
<g id="node1" class="node"><title>WebServer</title>
<polygon fill="none" stroke="black" points="586,-108 494,-108 494,-72 586,-72 586,-108"/>
<text text-anchor="middle" x="540" y="-86.4" font-family="Times Roman,serif" font-size="14.00">WebServer</text>
</g>
<!-- WebsiteURL -->
<g id="node14" class="node"><title>WebsiteURL</title>
<polygon fill="lightgrey" stroke="lightgrey" points="578,-36 502,-36 490,-24 490,-12 502,-1.60583e-14 578,-5.25802e-15 590,-12 590,-24 578,-36"/>
<path fill="lightgrey" stroke="lightgrey" d="M502,-36C496,-36 490,-30 490,-24"/>
<path fill="lightgrey" stroke="lightgrey" d="M490,-12C490,-6 496,-1.69109e-14 502,-1.60583e-14"/>
<path fill="lightgrey" stroke="lightgrey" d="M578,-5.25802e-15C584,-4.40536e-15 590,-6 590,-12"/>
<path fill="lightgrey" stroke="lightgrey" d="M590,-24C590,-30 584,-36 578,-36"/>
<polyline fill="none" stroke="black" points="578,-36 502,-36 "/>
<path fill="none" stroke="black" d="M502,-36C496,-36 490,-30 490,-24"/>
<polyline fill="none" stroke="black" points="490,-24 490,-12 "/>
<path fill="none" stroke="black" d="M490,-12C490,-6 496,-1.69109e-14 502,-1.60583e-14"/>
<polyline fill="none" stroke="black" points="502,-1.60583e-14 578,-5.25802e-15 "/>
<path fill="none" stroke="black" d="M578,-5.25802e-15C584,-4.40536e-15 590,-6 590,-12"/>
<polyline fill="none" stroke="black" points="590,-12 590,-24 "/>
<path fill="none" stroke="black" d="M590,-24C590,-30 584,-36 578,-36"/>
<text text-anchor="middle" x="540" y="-14.4" font-family="Times Roman,serif" font-size="14.00">WebsiteURL</text>
</g>
<!-- WebServer&#45;&gt;WebsiteURL -->
<g id="edge42" class="edge"><title>WebServer&#45;&gt;WebsiteURL</title>
<path fill="none" stroke="black" d="M540,-71.8314C540,-64.131 540,-54.9743 540,-46.4166"/>
<polygon fill="black" stroke="black" points="543.5,-46.4132 540,-36.4133 536.5,-46.4133 543.5,-46.4132"/>
</g>
<!-- WaitCondition -->
<g id="node2" class="node"><title>WaitCondition</title>
<polygon fill="none" stroke="black" points="988,-108 874,-108 874,-72 988,-72 988,-108"/>
<text text-anchor="middle" x="931" y="-86.4" font-family="Times Roman,serif" font-size="14.00">WaitCondition</text>
</g>
<!-- WebServerSecurityGroup -->
<g id="node3" class="node"><title>WebServerSecurityGroup</title>
<polygon fill="none" stroke="black" points="192,-180 7.10543e-14,-180 0,-144 192,-144 192,-180"/>
<text text-anchor="middle" x="96" y="-158.4" font-family="Times Roman,serif" font-size="14.00">WebServerSecurityGroup</text>
</g>
<!-- WebServerSecurityGroup&#45;&gt;WebServer -->
<g id="edge18" class="edge"><title>WebServerSecurityGroup&#45;&gt;WebServer</title>
<path fill="none" stroke="black" d="M192.068,-146.421C281.08,-131.987 410.451,-111.008 483.771,-99.1182"/>
<polygon fill="black" stroke="black" points="484.424,-102.558 493.735,-97.5025 483.303,-95.6484 484.424,-102.558"/>
</g>
<!-- WaitHandle -->
<g id="node4" class="node"><title>WaitHandle</title>
<polygon fill="none" stroke="black" points="979,-180 883,-180 883,-144 979,-144 979,-180"/>
<text text-anchor="middle" x="931" y="-158.4" font-family="Times Roman,serif" font-size="14.00">WaitHandle</text>
</g>
<!-- WaitHandle&#45;&gt;WebServer -->
<g id="edge4" class="edge"><title>WaitHandle&#45;&gt;WebServer</title>
<path fill="none" stroke="black" d="M882.751,-148.757C876.773,-147.017 870.755,-145.366 865,-144 771.693,-121.849 661.551,-105.988 596.333,-97.404"/>
<polygon fill="black" stroke="black" points="596.631,-93.9132 586.262,-96.089 595.724,-100.854 596.631,-93.9132"/>
</g>
<!-- WaitHandle&#45;&gt;WebServer -->
<g id="edge14" class="edge"><title>WaitHandle&#45;&gt;WebServer</title>
<path fill="none" stroke="black" d="M883.303,-144.072C883.202,-144.048 883.101,-144.024 883,-144 783.521,-120.384 664.907,-103.918 596.342,-95.7965"/>
<polygon fill="black" stroke="black" points="596.525,-92.2943 586.187,-94.6119 595.714,-99.2471 596.525,-92.2943"/>
</g>
<!-- WaitHandle&#45;&gt;WaitCondition -->
<g id="edge38" class="edge"><title>WaitHandle&#45;&gt;WaitCondition</title>
<path fill="none" stroke="black" d="M931,-143.831C931,-136.131 931,-126.974 931,-118.417"/>
<polygon fill="black" stroke="black" points="934.5,-118.413 931,-108.413 927.5,-118.413 934.5,-118.413"/>
</g>
<!-- DBUsername -->
<g id="node6" class="node"><title>DBUsername</title>
<polygon fill="lightgrey" stroke="lightgrey" points="225,-252 143,-252 131,-240 131,-228 143,-216 225,-216 237,-228 237,-240 225,-252"/>
<path fill="lightgrey" stroke="lightgrey" d="M143,-252C137,-252 131,-246 131,-240"/>
<path fill="lightgrey" stroke="lightgrey" d="M131,-228C131,-222 137,-216 143,-216"/>
<path fill="lightgrey" stroke="lightgrey" d="M225,-216C231,-216 237,-222 237,-228"/>
<path fill="lightgrey" stroke="lightgrey" d="M237,-240C237,-246 231,-252 225,-252"/>
<polyline fill="none" stroke="black" points="225,-252 143,-252 "/>
<path fill="none" stroke="black" d="M143,-252C137,-252 131,-246 131,-240"/>
<polyline fill="none" stroke="black" points="131,-240 131,-228 "/>
<path fill="none" stroke="black" d="M131,-228C131,-222 137,-216 143,-216"/>
<polyline fill="none" stroke="black" points="143,-216 225,-216 "/>
<path fill="none" stroke="black" d="M225,-216C231,-216 237,-222 237,-228"/>
<polyline fill="none" stroke="black" points="237,-228 237,-240 "/>
<path fill="none" stroke="black" d="M237,-240C237,-246 231,-252 225,-252"/>
<text text-anchor="middle" x="184" y="-230.4" font-family="Times Roman,serif" font-size="14.00">DBUsername</text>
</g>
<!-- DBUsername&#45;&gt;WebServer -->
<g id="edge28" class="edge"><title>DBUsername&#45;&gt;WebServer</title>
<path fill="none" stroke="black" d="M217.444,-215.921C257.066,-197.261 324.733,-167.626 384,-144 416.816,-130.918 454.191,-117.204 484.218,-106.87"/>
<polygon fill="black" stroke="black" points="485.359,-110.179 493.694,-103.639 483.1,-103.554 485.359,-110.179"/>
</g>
<!-- DBUsername&#45;&gt;WebServer -->
<g id="edge34" class="edge"><title>DBUsername&#45;&gt;WebServer</title>
<path fill="none" stroke="black" d="M230.925,-215.921C275.066,-197.261 342.733,-167.626 402,-144 429.993,-132.841 461.303,-121.222 487.079,-111.633"/>
<polygon fill="black" stroke="black" points="488.518,-114.832 496.669,-108.063 486.076,-108.272 488.518,-114.832"/>
</g>
<!-- InstanceType -->
<g id="node7" class="node"><title>InstanceType</title>
<polygon fill="lightgrey" stroke="lightgrey" points="349,-252 267,-252 255,-240 255,-228 267,-216 349,-216 361,-228 361,-240 349,-252"/>
<path fill="lightgrey" stroke="lightgrey" d="M267,-252C261,-252 255,-246 255,-240"/>
<path fill="lightgrey" stroke="lightgrey" d="M255,-228C255,-222 261,-216 267,-216"/>
<path fill="lightgrey" stroke="lightgrey" d="M349,-216C355,-216 361,-222 361,-228"/>
<path fill="lightgrey" stroke="lightgrey" d="M361,-240C361,-246 355,-252 349,-252"/>
<polyline fill="none" stroke="black" points="349,-252 267,-252 "/>
<path fill="none" stroke="black" d="M267,-252C261,-252 255,-246 255,-240"/>
<polyline fill="none" stroke="black" points="255,-240 255,-228 "/>
<path fill="none" stroke="black" d="M255,-228C255,-222 261,-216 267,-216"/>
<polyline fill="none" stroke="black" points="267,-216 349,-216 "/>
<path fill="none" stroke="black" d="M349,-216C355,-216 361,-222 361,-228"/>
<polyline fill="none" stroke="black" points="361,-228 361,-240 "/>
<path fill="none" stroke="black" d="M361,-240C361,-246 355,-252 349,-252"/>
<text text-anchor="middle" x="308" y="-230.4" font-family="Times Roman,serif" font-size="14.00">InstanceType</text>
</g>
<!-- InstanceType&#45;&gt;WebServer -->
<g id="edge24" class="edge"><title>InstanceType&#45;&gt;WebServer</title>
<path fill="none" stroke="black" d="M332.71,-215.762C372.11,-189.686 449.188,-141.752 497.522,-113.188"/>
<polygon fill="black" stroke="black" points="499.349,-116.174 506.197,-108.09 495.803,-110.139 499.349,-116.174"/>
</g>
<!-- InstanceType&#45;&gt;WebServer -->
<g id="edge20" class="edge"><title>InstanceType&#45;&gt;WebServer</title>
<path fill="none" stroke="black" d="M342.056,-215.762C386.401,-189.849 463.093,-142.348 506.94,-113.724"/>
<polygon fill="black" stroke="black" points="509.079,-116.506 515.514,-108.09 505.235,-110.657 509.079,-116.506"/>
</g>
<!-- DBRootPassword -->
<g id="node8" class="node"><title>DBRootPassword</title>
<polygon fill="lightgrey" stroke="lightgrey" points="501,-252 391,-252 379,-240 379,-228 391,-216 501,-216 513,-228 513,-240 501,-252"/>
<path fill="lightgrey" stroke="lightgrey" d="M391,-252C385,-252 379,-246 379,-240"/>
<path fill="lightgrey" stroke="lightgrey" d="M379,-228C379,-222 385,-216 391,-216"/>
<path fill="lightgrey" stroke="lightgrey" d="M501,-216C507,-216 513,-222 513,-228"/>
<path fill="lightgrey" stroke="lightgrey" d="M513,-240C513,-246 507,-252 501,-252"/>
<polyline fill="none" stroke="black" points="501,-252 391,-252 "/>
<path fill="none" stroke="black" d="M391,-252C385,-252 379,-246 379,-240"/>
<polyline fill="none" stroke="black" points="379,-240 379,-228 "/>
<path fill="none" stroke="black" d="M379,-228C379,-222 385,-216 391,-216"/>
<polyline fill="none" stroke="black" points="391,-216 501,-216 "/>
<path fill="none" stroke="black" d="M501,-216C507,-216 513,-222 513,-228"/>
<polyline fill="none" stroke="black" points="513,-228 513,-240 "/>
<path fill="none" stroke="black" d="M513,-240C513,-246 507,-252 501,-252"/>
<text text-anchor="middle" x="446" y="-230.4" font-family="Times Roman,serif" font-size="14.00">DBRootPassword</text>
</g>
<!-- DBRootPassword&#45;&gt;WebServer -->
<g id="edge10" class="edge"><title>DBRootPassword&#45;&gt;WebServer</title>
<path fill="none" stroke="black" d="M453.232,-215.762C467.104,-190.66 496.481,-145.302 517.355,-116.467"/>
<polygon fill="black" stroke="black" points="520.415,-118.215 523.533,-108.09 514.781,-114.06 520.415,-118.215"/>
</g>
<!-- DBRootPassword&#45;&gt;WebServer -->
<g id="edge12" class="edge"><title>DBRootPassword&#45;&gt;WebServer</title>
<path fill="none" stroke="black" d="M462.578,-215.762C481.397,-190.768 511.062,-145.692 527.873,-116.841"/>
<polygon fill="black" stroke="black" points="530.949,-118.513 532.85,-108.09 524.864,-115.052 530.949,-118.513"/>
</g>
<!-- SSHLocation -->
<g id="node9" class="node"><title>SSHLocation</title>
<polygon fill="lightgrey" stroke="lightgrey" points="101,-252 21,-252 9,-240 9,-228 21,-216 101,-216 113,-228 113,-240 101,-252"/>
<path fill="lightgrey" stroke="lightgrey" d="M21,-252C15,-252 9,-246 9,-240"/>
<path fill="lightgrey" stroke="lightgrey" d="M9,-228C9,-222 15,-216 21,-216"/>
<path fill="lightgrey" stroke="lightgrey" d="M101,-216C107,-216 113,-222 113,-228"/>
<path fill="lightgrey" stroke="lightgrey" d="M113,-240C113,-246 107,-252 101,-252"/>
<polyline fill="none" stroke="black" points="101,-252 21,-252 "/>
<path fill="none" stroke="black" d="M21,-252C15,-252 9,-246 9,-240"/>
<polyline fill="none" stroke="black" points="9,-240 9,-228 "/>
<path fill="none" stroke="black" d="M9,-228C9,-222 15,-216 21,-216"/>
<polyline fill="none" stroke="black" points="21,-216 101,-216 "/>
<path fill="none" stroke="black" d="M101,-216C107,-216 113,-222 113,-228"/>
<polyline fill="none" stroke="black" points="113,-228 113,-240 "/>
<path fill="none" stroke="black" d="M113,-240C113,-246 107,-252 101,-252"/>
<text text-anchor="middle" x="61" y="-230.4" font-family="Times Roman,serif" font-size="14.00">SSHLocation</text>
</g>
<!-- SSHLocation&#45;&gt;WebServerSecurityGroup -->
<g id="edge40" class="edge"><title>SSHLocation&#45;&gt;WebServerSecurityGroup</title>
<path fill="none" stroke="black" d="M69.832,-215.831C73.6986,-207.877 78.3206,-198.369 82.5968,-189.572"/>
<polygon fill="black" stroke="black" points="85.8249,-190.937 87.0491,-180.413 79.5293,-187.877 85.8249,-190.937"/>
</g>
<!-- KeyName -->
<g id="node10" class="node"><title>KeyName</title>
<polygon fill="lightgrey" stroke="lightgrey" points="599,-252 543,-252 531,-240 531,-228 543,-216 599,-216 611,-228 611,-240 599,-252"/>
<path fill="lightgrey" stroke="lightgrey" d="M543,-252C537,-252 531,-246 531,-240"/>
<path fill="lightgrey" stroke="lightgrey" d="M531,-228C531,-222 537,-216 543,-216"/>
<path fill="lightgrey" stroke="lightgrey" d="M599,-216C605,-216 611,-222 611,-228"/>
<path fill="lightgrey" stroke="lightgrey" d="M611,-240C611,-246 605,-252 599,-252"/>
<polyline fill="none" stroke="black" points="599,-252 543,-252 "/>
<path fill="none" stroke="black" d="M543,-252C537,-252 531,-246 531,-240"/>
<polyline fill="none" stroke="black" points="531,-240 531,-228 "/>
<path fill="none" stroke="black" d="M531,-228C531,-222 537,-216 543,-216"/>
<polyline fill="none" stroke="black" points="543,-216 599,-216 "/>
<path fill="none" stroke="black" d="M599,-216C605,-216 611,-222 611,-228"/>
<polyline fill="none" stroke="black" points="611,-228 611,-240 "/>
<path fill="none" stroke="black" d="M611,-240C611,-246 605,-252 599,-252"/>
<text text-anchor="middle" x="571" y="-230.4" font-family="Times Roman,serif" font-size="14.00">KeyName</text>
</g>
<!-- KeyName&#45;&gt;WebServer -->
<g id="edge16" class="edge"><title>KeyName&#45;&gt;WebServer</title>
<path fill="none" stroke="black" d="M545.495,-215.963C534.525,-206.628 522.886,-194.209 517,-180 508.616,-159.76 515.606,-135.658 524.015,-117.492"/>
<polygon fill="black" stroke="black" points="527.385,-118.58 528.744,-108.073 521.129,-115.44 527.385,-118.58"/>
</g>
<!-- DBPassword -->
<g id="node11" class="node"><title>DBPassword</title>
<polygon fill="lightgrey" stroke="lightgrey" points="719,-252 641,-252 629,-240 629,-228 641,-216 719,-216 731,-228 731,-240 719,-252"/>
<path fill="lightgrey" stroke="lightgrey" d="M641,-252C635,-252 629,-246 629,-240"/>
<path fill="lightgrey" stroke="lightgrey" d="M629,-228C629,-222 635,-216 641,-216"/>
<path fill="lightgrey" stroke="lightgrey" d="M719,-216C725,-216 731,-222 731,-228"/>
<path fill="lightgrey" stroke="lightgrey" d="M731,-240C731,-246 725,-252 719,-252"/>
<polyline fill="none" stroke="black" points="719,-252 641,-252 "/>
<path fill="none" stroke="black" d="M641,-252C635,-252 629,-246 629,-240"/>
<polyline fill="none" stroke="black" points="629,-240 629,-228 "/>
<path fill="none" stroke="black" d="M629,-228C629,-222 635,-216 641,-216"/>
<polyline fill="none" stroke="black" points="641,-216 719,-216 "/>
<path fill="none" stroke="black" d="M719,-216C725,-216 731,-222 731,-228"/>
<polyline fill="none" stroke="black" points="731,-228 731,-240 "/>
<path fill="none" stroke="black" d="M731,-240C731,-246 725,-252 719,-252"/>
<text text-anchor="middle" x="680" y="-230.4" font-family="Times Roman,serif" font-size="14.00">DBPassword</text>
</g>
<!-- DBPassword&#45;&gt;WebServer -->
<g id="edge30" class="edge"><title>DBPassword&#45;&gt;WebServer</title>
<path fill="none" stroke="black" d="M628.868,-220.793C606.178,-212.221 580.95,-199.038 564,-180 548.594,-162.695 540.184,-137.595 537.166,-118.296"/>
<polygon fill="black" stroke="black" points="540.632,-117.802 536.033,-108.257 533.676,-118.587 540.632,-117.802"/>
</g>
<!-- DBPassword&#45;&gt;WebServer -->
<g id="edge36" class="edge"><title>DBPassword&#45;&gt;WebServer</title>
<path fill="none" stroke="black" d="M633.908,-215.972C615.772,-207.529 596.044,-195.774 582,-180 566.522,-162.615 558.107,-137.363 552.189,-118.028"/>
<polygon fill="black" stroke="black" points="555.475,-116.804 549.214,-108.257 548.778,-118.843 555.475,-116.804"/>
</g>
<!-- DBName -->
<g id="node12" class="node"><title>DBName</title>
<polygon fill="lightgrey" stroke="lightgrey" points="813,-252 761,-252 749,-240 749,-228 761,-216 813,-216 825,-228 825,-240 813,-252"/>
<path fill="lightgrey" stroke="lightgrey" d="M761,-252C755,-252 749,-246 749,-240"/>
<path fill="lightgrey" stroke="lightgrey" d="M749,-228C749,-222 755,-216 761,-216"/>
<path fill="lightgrey" stroke="lightgrey" d="M813,-216C819,-216 825,-222 825,-228"/>
<path fill="lightgrey" stroke="lightgrey" d="M825,-240C825,-246 819,-252 813,-252"/>
<polyline fill="none" stroke="black" points="813,-252 761,-252 "/>
<path fill="none" stroke="black" d="M761,-252C755,-252 749,-246 749,-240"/>
<polyline fill="none" stroke="black" points="749,-240 749,-228 "/>
<path fill="none" stroke="black" d="M749,-228C749,-222 755,-216 761,-216"/>
<polyline fill="none" stroke="black" points="761,-216 813,-216 "/>
<path fill="none" stroke="black" d="M813,-216C819,-216 825,-222 825,-228"/>
<polyline fill="none" stroke="black" points="825,-228 825,-240 "/>
<path fill="none" stroke="black" d="M825,-240C825,-246 819,-252 813,-252"/>
<text text-anchor="middle" x="787" y="-230.4" font-family="Times Roman,serif" font-size="14.00">DBName</text>
</g>
<!-- DBName&#45;&gt;WebServer -->
<g id="edge26" class="edge"><title>DBName&#45;&gt;WebServer</title>
<path fill="none" stroke="black" d="M748.958,-222.471C742.913,-220.254 736.78,-218.001 731,-216 679.99,-198.338 660.725,-208.692 615,-180 588.663,-163.474 565.134,-136.668 551.377,-116.601"/>
<polygon fill="black" stroke="black" points="554.306,-114.685 545.935,-108.191 548.429,-118.488 554.306,-114.685"/>
</g>
<!-- DBName&#45;&gt;WebServer -->
<g id="edge32" class="edge"><title>DBName&#45;&gt;WebServer</title>
<path fill="none" stroke="black" d="M749.496,-216.172C749.331,-216.115 749.165,-216.057 749,-216 697.99,-198.338 678.725,-208.692 633,-180 606.427,-163.326 582.712,-136.186 565.617,-116.063"/>
<polygon fill="black" stroke="black" points="568.076,-113.552 558.938,-108.191 562.738,-118.081 568.076,-113.552"/>
</g>
<!-- AWS::StackId -->
<g id="node16" class="node"><title>AWS::StackId</title>
<polygon fill="none" stroke="black" points="743,-180 633,-180 633,-144 743,-144 743,-180"/>
<text text-anchor="middle" x="688" y="-158.4" font-family="Times Roman,serif" font-size="14.00">AWS::StackId</text>
</g>
<!-- AWS::StackId&#45;&gt;WebServer -->
<g id="edge6" class="edge"><title>AWS::StackId&#45;&gt;WebServer</title>
<path fill="none" stroke="black" d="M650.653,-143.831C631.123,-134.33 607.036,-122.612 586.327,-112.537"/>
<polygon fill="black" stroke="black" points="587.602,-109.265 577.078,-108.038 584.539,-115.56 587.602,-109.265"/>
</g>
<!-- AWS::Region -->
<g id="node18" class="node"><title>AWS::Region</title>
<polygon fill="none" stroke="black" points="865,-180 761,-180 761,-144 865,-144 865,-180"/>
<text text-anchor="middle" x="813" y="-158.4" font-family="Times Roman,serif" font-size="14.00">AWS::Region</text>
</g>
<!-- AWS::Region&#45;&gt;WebServer -->
<g id="edge8" class="edge"><title>AWS::Region&#45;&gt;WebServer</title>
<path fill="none" stroke="black" d="M760.821,-149.016C754.787,-147.294 748.749,-145.58 743,-144 693.434,-130.379 637.023,-116.068 596.188,-105.603"/>
<polygon fill="black" stroke="black" points="596.974,-102.191 586.418,-103.095 595.234,-108.971 596.974,-102.191"/>
</g>
<!-- AWS::Region&#45;&gt;WebServer -->
<g id="edge22" class="edge"><title>AWS::Region&#45;&gt;WebServer</title>
<path fill="none" stroke="black" d="M761.32,-144.088C761.213,-144.059 761.106,-144.029 761,-144 705.331,-128.703 641.029,-112.533 596.088,-101.921"/>
<polygon fill="black" stroke="black" points="596.77,-98.4858 586.235,-99.6108 595.172,-105.301 596.77,-98.4858"/>
</g>
</g>
</svg>
