<?xml version="1.0" encoding="UTF-8" standalone="no"?>
<!DOCTYPE svg PUBLIC "-//W3C//DTD SVG 1.1//EN"
 "http://www.w3.org/Graphics/SVG/1.1/DTD/svg11.dtd">
<!-- Generated by graphviz version 2.26.3 (20100126.1600)
 -->
<!-- Title: AWS CloudFormation Sample Template Insoshi_Single_Instance_With_RDS: Insoshi is an open source social networking platform in Ruby on Rails. This template creates an Insoshi stack using a single EC2 instance with an Amazon RDS database instance for storage. It demonstrates using the AWS CloudFormation bootstrap scripts to install the packages and files necessary to deploy the Insoshi, Rails, MySQL and all dependent packages at instance launch time. **WARNING** This template creates an Amazon EC2 instance, an Amazon RDS database instance and other AWS resources. You will be billed for the AWS resources used if you create a stack from this template. Pages: 1 -->
<svg width="1075pt" height="404pt"
 viewBox="0.00 0.00 1075.00 404.00" xmlns="http://www.w3.org/2000/svg" xmlns:xlink="http://www.w3.org/1999/xlink">
<g id="graph1" class="graph" transform="scale(1 1) rotate(0) translate(4 400)">
<title>AWS CloudFormation Sample Template Insoshi_Single_Instance_With_RDS: Insoshi is an open source social networking platform in Ruby on Rails. This template creates an Insoshi stack using a single EC2 instance with an Amazon RDS database instance for storage. It demonstrates using the AWS CloudFormation bootstrap scripts to install the packages and files necessary to deploy the Insoshi, Rails, MySQL and all dependent packages at instance launch time. **WARNING** This template creates an Amazon EC2 instance, an Amazon RDS database instance and other AWS resources. You will be billed for the AWS resources used if you create a stack from this template.</title>
<polygon fill="white" stroke="white" points="-4,5 -4,-400 1072,-400 1072,5 -4,5"/>
<!-- DBSecurityGroup -->
<g id="node1" class="node"><title>DBSecurityGroup</title>
<polygon fill="none" stroke="black" points="529,-252 393,-252 393,-216 529,-216 529,-252"/>
<text text-anchor="middle" x="461" y="-230.4" font-family="Times Roman,serif" font-size="14.00">DBSecurityGroup</text>
</g>
<!-- DBInstance -->
<g id="node5" class="node"><title>DBInstance</title>
<polygon fill="none" stroke="black" points="404,-180 308,-180 308,-144 404,-144 404,-180"/>
<text text-anchor="middle" x="356" y="-158.4" font-family="Times Roman,serif" font-size="14.00">DBInstance</text>
</g>
<!-- DBSecurityGroup&#45;&gt;DBInstance -->
<g id="edge36" class="edge"><title>DBSecurityGroup&#45;&gt;DBInstance</title>
<path fill="none" stroke="black" d="M434.504,-215.831C421.323,-206.793 405.215,-195.748 391.029,-186.02"/>
<polygon fill="black" stroke="black" points="392.714,-182.932 382.487,-180.163 388.755,-188.705 392.714,-182.932"/>
</g>
<!-- WebServerSecurityGroup -->
<g id="node2" class="node"><title>WebServerSecurityGroup</title>
<polygon fill="none" stroke="black" points="576,-324 384,-324 384,-288 576,-288 576,-324"/>
<text text-anchor="middle" x="480" y="-302.4" font-family="Times Roman,serif" font-size="14.00">WebServerSecurityGroup</text>
</g>
<!-- WebServerSecurityGroup&#45;&gt;DBSecurityGroup -->
<g id="edge4" class="edge"><title>WebServerSecurityGroup&#45;&gt;DBSecurityGroup</title>
<path fill="none" stroke="black" d="M475.205,-287.831C473.151,-280.046 470.704,-270.773 468.424,-262.135"/>
<polygon fill="black" stroke="black" points="471.795,-261.189 465.859,-252.413 465.027,-262.975 471.795,-261.189"/>
</g>
<!-- WebServer -->
<g id="node3" class="node"><title>WebServer</title>
<polygon fill="none" stroke="black" points="844,-108 752,-108 752,-72 844,-72 844,-108"/>
<text text-anchor="middle" x="798" y="-86.4" font-family="Times Roman,serif" font-size="14.00">WebServer</text>
</g>
<!-- WebServerSecurityGroup&#45;&gt;WebServer -->
<g id="edge18" class="edge"><title>WebServerSecurityGroup&#45;&gt;WebServer</title>
<path fill="none" stroke="black" d="M500.733,-287.863C512.073,-277.657 526.178,-264.49 538,-252 580.951,-206.621 576.144,-178.857 628,-144 662.269,-120.965 706.958,-107.276 741.916,-99.4468"/>
<polygon fill="black" stroke="black" points="742.919,-102.812 751.965,-97.2961 741.454,-95.9666 742.919,-102.812"/>
</g>
<!-- WebsiteURL -->
<g id="node17" class="node"><title>WebsiteURL</title>
<polygon fill="lightgrey" stroke="lightgrey" points="836,-36 760,-36 748,-24 748,-12 760,-1.60583e-14 836,-5.25802e-15 848,-12 848,-24 836,-36"/>
<path fill="lightgrey" stroke="lightgrey" d="M760,-36C754,-36 748,-30 748,-24"/>
<path fill="lightgrey" stroke="lightgrey" d="M748,-12C748,-6 754,-1.69109e-14 760,-1.60583e-14"/>
<path fill="lightgrey" stroke="lightgrey" d="M836,-5.25802e-15C842,-4.40536e-15 848,-6 848,-12"/>
<path fill="lightgrey" stroke="lightgrey" d="M848,-24C848,-30 842,-36 836,-36"/>
<polyline fill="none" stroke="black" points="836,-36 760,-36 "/>
<path fill="none" stroke="black" d="M760,-36C754,-36 748,-30 748,-24"/>
<polyline fill="none" stroke="black" points="748,-24 748,-12 "/>
<path fill="none" stroke="black" d="M748,-12C748,-6 754,-1.69109e-14 760,-1.60583e-14"/>
<polyline fill="none" stroke="black" points="760,-1.60583e-14 836,-5.25802e-15 "/>
<path fill="none" stroke="black" d="M836,-5.25802e-15C842,-4.40536e-15 848,-6 848,-12"/>
<polyline fill="none" stroke="black" points="848,-12 848,-24 "/>
<path fill="none" stroke="black" d="M848,-24C848,-30 842,-36 836,-36"/>
<text text-anchor="middle" x="798" y="-14.4" font-family="Times Roman,serif" font-size="14.00">WebsiteURL</text>
</g>
<!-- WebServer&#45;&gt;WebsiteURL -->
<g id="edge48" class="edge"><title>WebServer&#45;&gt;WebsiteURL</title>
<path fill="none" stroke="black" d="M798,-71.8314C798,-64.131 798,-54.9743 798,-46.4166"/>
<polygon fill="black" stroke="black" points="801.5,-46.4132 798,-36.4133 794.5,-46.4133 801.5,-46.4132"/>
</g>
<!-- WaitCondition -->
<g id="node4" class="node"><title>WaitCondition</title>
<polygon fill="none" stroke="black" points="1067,-108 953,-108 953,-72 1067,-72 1067,-108"/>
<text text-anchor="middle" x="1010" y="-86.4" font-family="Times Roman,serif" font-size="14.00">WaitCondition</text>
</g>
<!-- DBInstance&#45;&gt;WebServer -->
<g id="edge28" class="edge"><title>DBInstance&#45;&gt;WebServer</title>
<path fill="none" stroke="black" d="M404.143,-154.158C486.573,-140.73 654.301,-113.408 741.894,-99.1394"/>
<polygon fill="black" stroke="black" points="742.605,-102.57 751.912,-97.5076 741.479,-95.661 742.605,-102.57"/>
</g>
<!-- WaitHandle -->
<g id="node6" class="node"><title>WaitHandle</title>
<polygon fill="none" stroke="black" points="1058,-180 962,-180 962,-144 1058,-144 1058,-180"/>
<text text-anchor="middle" x="1010" y="-158.4" font-family="Times Roman,serif" font-size="14.00">WaitHandle</text>
</g>
<!-- WaitHandle&#45;&gt;WebServer -->
<g id="edge8" class="edge"><title>WaitHandle&#45;&gt;WebServer</title>
<path fill="none" stroke="black" d="M961.816,-147.516C929.651,-137.051 887.333,-122.754 853.729,-111.033"/>
<polygon fill="black" stroke="black" points="854.645,-107.646 844.05,-107.643 852.331,-114.252 854.645,-107.646"/>
</g>
<!-- WaitHandle&#45;&gt;WebServer -->
<g id="edge14" class="edge"><title>WaitHandle&#45;&gt;WebServer</title>
<path fill="none" stroke="black" d="M962.72,-143.924C930.563,-132.626 887.95,-118.166 854.084,-107.064"/>
<polygon fill="black" stroke="black" points="854.921,-103.656 844.329,-103.881 852.749,-110.31 854.921,-103.656"/>
</g>
<!-- WaitHandle&#45;&gt;WaitCondition -->
<g id="edge34" class="edge"><title>WaitHandle&#45;&gt;WaitCondition</title>
<path fill="none" stroke="black" d="M1010,-143.831C1010,-136.131 1010,-126.974 1010,-118.417"/>
<polygon fill="black" stroke="black" points="1013.5,-118.413 1010,-108.413 1006.5,-118.413 1013.5,-118.413"/>
</g>
<!-- DBUsername -->
<g id="node8" class="node"><title>DBUsername</title>
<polygon fill="lightgrey" stroke="lightgrey" points="702,-396 620,-396 608,-384 608,-372 620,-360 702,-360 714,-372 714,-384 702,-396"/>
<path fill="lightgrey" stroke="lightgrey" d="M620,-396C614,-396 608,-390 608,-384"/>
<path fill="lightgrey" stroke="lightgrey" d="M608,-372C608,-366 614,-360 620,-360"/>
<path fill="lightgrey" stroke="lightgrey" d="M702,-360C708,-360 714,-366 714,-372"/>
<path fill="lightgrey" stroke="lightgrey" d="M714,-384C714,-390 708,-396 702,-396"/>
<polyline fill="none" stroke="black" points="702,-396 620,-396 "/>
<path fill="none" stroke="black" d="M620,-396C614,-396 608,-390 608,-384"/>
<polyline fill="none" stroke="black" points="608,-384 608,-372 "/>
<path fill="none" stroke="black" d="M608,-372C608,-366 614,-360 620,-360"/>
<polyline fill="none" stroke="black" points="620,-360 702,-360 "/>
<path fill="none" stroke="black" d="M702,-360C708,-360 714,-366 714,-372"/>
<polyline fill="none" stroke="black" points="714,-372 714,-384 "/>
<path fill="none" stroke="black" d="M714,-384C714,-390 708,-396 702,-396"/>
<text text-anchor="middle" x="661" y="-374.4" font-family="Times Roman,serif" font-size="14.00">DBUsername</text>
</g>
<!-- DBUsername&#45;&gt;WebServer -->
<g id="edge30" class="edge"><title>DBUsername&#45;&gt;WebServer</title>
<path fill="none" stroke="black" d="M661.826,-359.928C664.599,-317.871 676.584,-211.873 728,-144 736.567,-132.691 748.074,-122.508 759.281,-114.113"/>
<polygon fill="black" stroke="black" points="761.649,-116.722 767.739,-108.052 757.571,-111.032 761.649,-116.722"/>
</g>
<!-- DBUsername&#45;&gt;DBInstance -->
<g id="edge38" class="edge"><title>DBUsername&#45;&gt;DBInstance</title>
<path fill="none" stroke="black" d="M652.238,-359.917C635.072,-326.404 593.77,-254.558 538,-216 501.044,-190.449 451.839,-176.798 413.91,-169.619"/>
<polygon fill="black" stroke="black" points="414.49,-166.167 404.029,-167.845 413.253,-173.057 414.49,-166.167"/>
</g>
<!-- DBClass -->
<g id="node9" class="node"><title>DBClass</title>
<polygon fill="lightgrey" stroke="lightgrey" points="352,-396 304,-396 292,-384 292,-372 304,-360 352,-360 364,-372 364,-384 352,-396"/>
<path fill="lightgrey" stroke="lightgrey" d="M304,-396C298,-396 292,-390 292,-384"/>
<path fill="lightgrey" stroke="lightgrey" d="M292,-372C292,-366 298,-360 304,-360"/>
<path fill="lightgrey" stroke="lightgrey" d="M352,-360C358,-360 364,-366 364,-372"/>
<path fill="lightgrey" stroke="lightgrey" d="M364,-384C364,-390 358,-396 352,-396"/>
<polyline fill="none" stroke="black" points="352,-396 304,-396 "/>
<path fill="none" stroke="black" d="M304,-396C298,-396 292,-390 292,-384"/>
<polyline fill="none" stroke="black" points="292,-384 292,-372 "/>
<path fill="none" stroke="black" d="M292,-372C292,-366 298,-360 304,-360"/>
<polyline fill="none" stroke="black" points="304,-360 352,-360 "/>
<path fill="none" stroke="black" d="M352,-360C358,-360 364,-366 364,-372"/>
<polyline fill="none" stroke="black" points="364,-372 364,-384 "/>
<path fill="none" stroke="black" d="M364,-384C364,-390 358,-396 352,-396"/>
<text text-anchor="middle" x="328" y="-374.4" font-family="Times Roman,serif" font-size="14.00">DBClass</text>
</g>
<!-- DBClass&#45;&gt;DBInstance -->
<g id="edge44" class="edge"><title>DBClass&#45;&gt;DBInstance</title>
<path fill="none" stroke="black" d="M328.576,-359.895C329.753,-329.82 333.12,-267.751 342,-216 343.451,-207.543 345.575,-198.473 347.731,-190.226"/>
<polygon fill="black" stroke="black" points="351.176,-190.897 350.433,-180.328 344.423,-189.054 351.176,-190.897"/>
</g>
<!-- DBAllocatedStorage -->
<g id="node10" class="node"><title>DBAllocatedStorage</title>
<polygon fill="lightgrey" stroke="lightgrey" points="262,-396 132,-396 120,-384 120,-372 132,-360 262,-360 274,-372 274,-384 262,-396"/>
<path fill="lightgrey" stroke="lightgrey" d="M132,-396C126,-396 120,-390 120,-384"/>
<path fill="lightgrey" stroke="lightgrey" d="M120,-372C120,-366 126,-360 132,-360"/>
<path fill="lightgrey" stroke="lightgrey" d="M262,-360C268,-360 274,-366 274,-372"/>
<path fill="lightgrey" stroke="lightgrey" d="M274,-384C274,-390 268,-396 262,-396"/>
<polyline fill="none" stroke="black" points="262,-396 132,-396 "/>
<path fill="none" stroke="black" d="M132,-396C126,-396 120,-390 120,-384"/>
<polyline fill="none" stroke="black" points="120,-384 120,-372 "/>
<path fill="none" stroke="black" d="M120,-372C120,-366 126,-360 132,-360"/>
<polyline fill="none" stroke="black" points="132,-360 262,-360 "/>
<path fill="none" stroke="black" d="M262,-360C268,-360 274,-366 274,-372"/>
<polyline fill="none" stroke="black" points="274,-372 274,-384 "/>
<path fill="none" stroke="black" d="M274,-384C274,-390 268,-396 262,-396"/>
<text text-anchor="middle" x="197" y="-374.4" font-family="Times Roman,serif" font-size="14.00">DBAllocatedStorage</text>
</g>
<!-- DBAllocatedStorage&#45;&gt;DBInstance -->
<g id="edge42" class="edge"><title>DBAllocatedStorage&#45;&gt;DBInstance</title>
<path fill="none" stroke="black" d="M210.283,-359.955C238.342,-321.838 303.756,-232.973 336.542,-188.434"/>
<polygon fill="black" stroke="black" points="339.534,-190.273 342.643,-180.145 333.896,-186.124 339.534,-190.273"/>
</g>
<!-- InstanceType -->
<g id="node11" class="node"><title>InstanceType</title>
<polygon fill="lightgrey" stroke="lightgrey" points="896,-396 814,-396 802,-384 802,-372 814,-360 896,-360 908,-372 908,-384 896,-396"/>
<path fill="lightgrey" stroke="lightgrey" d="M814,-396C808,-396 802,-390 802,-384"/>
<path fill="lightgrey" stroke="lightgrey" d="M802,-372C802,-366 808,-360 814,-360"/>
<path fill="lightgrey" stroke="lightgrey" d="M896,-360C902,-360 908,-366 908,-372"/>
<path fill="lightgrey" stroke="lightgrey" d="M908,-384C908,-390 902,-396 896,-396"/>
<polyline fill="none" stroke="black" points="896,-396 814,-396 "/>
<path fill="none" stroke="black" d="M814,-396C808,-396 802,-390 802,-384"/>
<polyline fill="none" stroke="black" points="802,-384 802,-372 "/>
<path fill="none" stroke="black" d="M802,-372C802,-366 808,-360 814,-360"/>
<polyline fill="none" stroke="black" points="814,-360 896,-360 "/>
<path fill="none" stroke="black" d="M896,-360C902,-360 908,-366 908,-372"/>
<polyline fill="none" stroke="black" points="908,-372 908,-384 "/>
<path fill="none" stroke="black" d="M908,-384C908,-390 902,-396 896,-396"/>
<text text-anchor="middle" x="855" y="-374.4" font-family="Times Roman,serif" font-size="14.00">InstanceType</text>
</g>
<!-- InstanceType&#45;&gt;WebServer -->
<g id="edge24" class="edge"><title>InstanceType&#45;&gt;WebServer</title>
<path fill="none" stroke="black" d="M855.572,-359.944C862.156,-319.239 883.365,-218.096 850,-144 844.925,-132.729 836.205,-122.859 827.279,-114.749"/>
<polygon fill="black" stroke="black" points="829.347,-111.912 819.468,-108.083 824.803,-117.237 829.347,-111.912"/>
</g>
<!-- InstanceType&#45;&gt;WebServer -->
<g id="edge20" class="edge"><title>InstanceType&#45;&gt;WebServer</title>
<path fill="none" stroke="black" d="M864.989,-359.944C880.156,-319.239 901.365,-218.096 868,-144 862.822,-132.501 853.851,-122.461 843.977,-114.259"/>
<polygon fill="black" stroke="black" points="845.986,-111.389 835.92,-108.083 841.727,-116.945 845.986,-111.389"/>
</g>
<!-- SSHLocation -->
<g id="node12" class="node"><title>SSHLocation</title>
<polygon fill="lightgrey" stroke="lightgrey" points="568,-396 488,-396 476,-384 476,-372 488,-360 568,-360 580,-372 580,-384 568,-396"/>
<path fill="lightgrey" stroke="lightgrey" d="M488,-396C482,-396 476,-390 476,-384"/>
<path fill="lightgrey" stroke="lightgrey" d="M476,-372C476,-366 482,-360 488,-360"/>
<path fill="lightgrey" stroke="lightgrey" d="M568,-360C574,-360 580,-366 580,-372"/>
<path fill="lightgrey" stroke="lightgrey" d="M580,-384C580,-390 574,-396 568,-396"/>
<polyline fill="none" stroke="black" points="568,-396 488,-396 "/>
<path fill="none" stroke="black" d="M488,-396C482,-396 476,-390 476,-384"/>
<polyline fill="none" stroke="black" points="476,-384 476,-372 "/>
<path fill="none" stroke="black" d="M476,-372C476,-366 482,-360 488,-360"/>
<polyline fill="none" stroke="black" points="488,-360 568,-360 "/>
<path fill="none" stroke="black" d="M568,-360C574,-360 580,-366 580,-372"/>
<polyline fill="none" stroke="black" points="580,-372 580,-384 "/>
<path fill="none" stroke="black" d="M580,-384C580,-390 574,-396 568,-396"/>
<text text-anchor="middle" x="528" y="-374.4" font-family="Times Roman,serif" font-size="14.00">SSHLocation</text>
</g>
<!-- SSHLocation&#45;&gt;WebServerSecurityGroup -->
<g id="edge6" class="edge"><title>SSHLocation&#45;&gt;WebServerSecurityGroup</title>
<path fill="none" stroke="black" d="M515.888,-359.831C510.472,-351.708 503.976,-341.964 498.008,-333.012"/>
<polygon fill="black" stroke="black" points="500.735,-330.792 492.276,-324.413 494.91,-334.675 500.735,-330.792"/>
</g>
<!-- KeyName -->
<g id="node13" class="node"><title>KeyName</title>
<polygon fill="lightgrey" stroke="lightgrey" points="994,-396 938,-396 926,-384 926,-372 938,-360 994,-360 1006,-372 1006,-384 994,-396"/>
<path fill="lightgrey" stroke="lightgrey" d="M938,-396C932,-396 926,-390 926,-384"/>
<path fill="lightgrey" stroke="lightgrey" d="M926,-372C926,-366 932,-360 938,-360"/>
<path fill="lightgrey" stroke="lightgrey" d="M994,-360C1000,-360 1006,-366 1006,-372"/>
<path fill="lightgrey" stroke="lightgrey" d="M1006,-384C1006,-390 1000,-396 994,-396"/>
<polyline fill="none" stroke="black" points="994,-396 938,-396 "/>
<path fill="none" stroke="black" d="M938,-396C932,-396 926,-390 926,-384"/>
<polyline fill="none" stroke="black" points="926,-384 926,-372 "/>
<path fill="none" stroke="black" d="M926,-372C926,-366 932,-360 938,-360"/>
<polyline fill="none" stroke="black" points="938,-360 994,-360 "/>
<path fill="none" stroke="black" d="M994,-360C1000,-360 1006,-366 1006,-372"/>
<polyline fill="none" stroke="black" points="1006,-372 1006,-384 "/>
<path fill="none" stroke="black" d="M1006,-384C1006,-390 1000,-396 994,-396"/>
<text text-anchor="middle" x="966" y="-374.4" font-family="Times Roman,serif" font-size="14.00">KeyName</text>
</g>
<!-- KeyName&#45;&gt;WebServer -->
<g id="edge16" class="edge"><title>KeyName&#45;&gt;WebServer</title>
<path fill="none" stroke="black" d="M964.129,-359.867C958.947,-317.681 941.025,-211.424 887,-144 876.988,-131.505 863.247,-121.191 849.556,-113.045"/>
<polygon fill="black" stroke="black" points="851.037,-109.862 840.607,-108.003 847.602,-115.961 851.037,-109.862"/>
</g>
<!-- DBPassword -->
<g id="node14" class="node"><title>DBPassword</title>
<polygon fill="lightgrey" stroke="lightgrey" points="90,-396 12,-396 2.84217e-14,-384 1.42109e-14,-372 12,-360 90,-360 102,-372 102,-384 90,-396"/>
<path fill="lightgrey" stroke="lightgrey" d="M12,-396C6,-396 3.55271e-14,-390 2.84217e-14,-384"/>
<path fill="lightgrey" stroke="lightgrey" d="M1.42109e-14,-372C7.10543e-15,-366 6,-360 12,-360"/>
<path fill="lightgrey" stroke="lightgrey" d="M90,-360C96,-360 102,-366 102,-372"/>
<path fill="lightgrey" stroke="lightgrey" d="M102,-384C102,-390 96,-396 90,-396"/>
<polyline fill="none" stroke="black" points="90,-396 12,-396 "/>
<path fill="none" stroke="black" d="M12,-396C6,-396 3.55271e-14,-390 2.84217e-14,-384"/>
<polyline fill="none" stroke="black" points="2.84217e-14,-384 1.42109e-14,-372 "/>
<path fill="none" stroke="black" d="M1.42109e-14,-372C7.10543e-15,-366 6,-360 12,-360"/>
<polyline fill="none" stroke="black" points="12,-360 90,-360 "/>
<path fill="none" stroke="black" d="M90,-360C96,-360 102,-366 102,-372"/>
<polyline fill="none" stroke="black" points="102,-372 102,-384 "/>
<path fill="none" stroke="black" d="M102,-384C102,-390 96,-396 90,-396"/>
<text text-anchor="middle" x="51" y="-374.4" font-family="Times Roman,serif" font-size="14.00">DBPassword</text>
</g>
<!-- DBPassword&#45;&gt;WebServer -->
<g id="edge32" class="edge"><title>DBPassword&#45;&gt;WebServer</title>
<path fill="none" stroke="black" d="M63.0539,-359.781C94.9535,-313.394 186.868,-191.166 299,-144 377.766,-110.869 628.728,-96.8078 741.808,-92.0429"/>
<polygon fill="black" stroke="black" points="742.139,-95.5323 751.986,-91.6235 741.851,-88.5383 742.139,-95.5323"/>
</g>
<!-- DBPassword&#45;&gt;DBInstance -->
<g id="edge40" class="edge"><title>DBPassword&#45;&gt;DBInstance</title>
<path fill="none" stroke="black" d="M76.4795,-359.955C131.312,-321.123 260.514,-229.623 322.145,-185.976"/>
<polygon fill="black" stroke="black" points="324.241,-188.781 330.378,-180.145 320.195,-183.068 324.241,-188.781"/>
</g>
<!-- DBName -->
<g id="node15" class="node"><title>DBName</title>
<polygon fill="lightgrey" stroke="lightgrey" points="446,-396 394,-396 382,-384 382,-372 394,-360 446,-360 458,-372 458,-384 446,-396"/>
<path fill="lightgrey" stroke="lightgrey" d="M394,-396C388,-396 382,-390 382,-384"/>
<path fill="lightgrey" stroke="lightgrey" d="M382,-372C382,-366 388,-360 394,-360"/>
<path fill="lightgrey" stroke="lightgrey" d="M446,-360C452,-360 458,-366 458,-372"/>
<path fill="lightgrey" stroke="lightgrey" d="M458,-384C458,-390 452,-396 446,-396"/>
<polyline fill="none" stroke="black" points="446,-396 394,-396 "/>
<path fill="none" stroke="black" d="M394,-396C388,-396 382,-390 382,-384"/>
<polyline fill="none" stroke="black" points="382,-384 382,-372 "/>
<path fill="none" stroke="black" d="M382,-372C382,-366 388,-360 394,-360"/>
<polyline fill="none" stroke="black" points="394,-360 446,-360 "/>
<path fill="none" stroke="black" d="M446,-360C452,-360 458,-366 458,-372"/>
<polyline fill="none" stroke="black" points="458,-372 458,-384 "/>
<path fill="none" stroke="black" d="M458,-384C458,-390 452,-396 446,-396"/>
<text text-anchor="middle" x="420" y="-374.4" font-family="Times Roman,serif" font-size="14.00">DBName</text>
</g>
<!-- DBName&#45;&gt;WebServer -->
<g id="edge26" class="edge"><title>DBName&#45;&gt;WebServer</title>
<path fill="none" stroke="black" d="M458.138,-363.139C461.128,-362.052 464.108,-360.994 467,-360 518.856,-342.184 541.194,-356.976 585,-324 661.231,-266.616 632.408,-209.276 702,-144 715.058,-131.752 731.405,-121.24 746.889,-112.832"/>
<polygon fill="black" stroke="black" points="748.639,-115.867 755.875,-108.128 745.392,-109.666 748.639,-115.867"/>
</g>
<!-- DBName&#45;&gt;DBInstance -->
<g id="edge46" class="edge"><title>DBName&#45;&gt;DBInstance</title>
<path fill="none" stroke="black" d="M400.287,-359.864C391.029,-350.161 380.78,-337.455 375,-324 356.222,-280.287 353.908,-224.176 354.535,-190.767"/>
<polygon fill="black" stroke="black" points="358.046,-190.457 354.842,-180.358 351.049,-190.251 358.046,-190.457"/>
</g>
<!-- AWS::StackId -->
<g id="node21" class="node"><title>AWS::StackId</title>
<polygon fill="none" stroke="black" points="818,-252 708,-252 708,-216 818,-216 818,-252"/>
<text text-anchor="middle" x="763" y="-230.4" font-family="Times Roman,serif" font-size="14.00">AWS::StackId</text>
</g>
<!-- AWS::StackId&#45;&gt;WebServer -->
<g id="edge10" class="edge"><title>AWS::StackId&#45;&gt;WebServer</title>
<path fill="none" stroke="black" d="M750.474,-215.881C739.304,-197.318 726.249,-167.876 737,-144 742.127,-132.615 750.972,-122.66 760.361,-114.503"/>
<polygon fill="black" stroke="black" points="762.728,-117.09 768.306,-108.083 758.328,-111.646 762.728,-117.09"/>
</g>
<!-- AWS::Region -->
<g id="node23" class="node"><title>AWS::Region</title>
<polygon fill="none" stroke="black" points="850,-180 746,-180 746,-144 850,-144 850,-180"/>
<text text-anchor="middle" x="798" y="-158.4" font-family="Times Roman,serif" font-size="14.00">AWS::Region</text>
</g>
<!-- AWS::Region&#45;&gt;WebServer -->
<g id="edge12" class="edge"><title>AWS::Region&#45;&gt;WebServer</title>
<path fill="none" stroke="black" d="M792.048,-143.831C791.297,-136.131 791.076,-126.974 791.385,-118.417"/>
<polygon fill="black" stroke="black" points="794.879,-118.616 792.024,-108.413 787.893,-118.17 794.879,-118.616"/>
</g>
<!-- AWS::Region&#45;&gt;WebServer -->
<g id="edge22" class="edge"><title>AWS::Region&#45;&gt;WebServer</title>
<path fill="none" stroke="black" d="M803.952,-143.831C804.703,-136.131 804.924,-126.974 804.615,-118.417"/>
<polygon fill="black" stroke="black" points="808.107,-118.17 803.976,-108.413 801.121,-118.616 808.107,-118.17"/>
</g>
</g>
</svg>
