<?xml version="1.0" encoding="UTF-8" standalone="no"?>
<!DOCTYPE svg PUBLIC "-//W3C//DTD SVG 1.1//EN"
 "http://www.w3.org/Graphics/SVG/1.1/DTD/svg11.dtd">
<!-- Generated by graphviz version 2.26.3 (20100126.1600)
 -->
<!-- Title: AWS CloudFormation Sample Template Joomla!_Single_Instance: Joomla! is a free, open&#45;source content management system (CMS) and application framework. This template installs a single&#45;instance Joomla! deployment using a local MySQL database to store the data. It demonstrates using the AWS CloudFormation bootstrap scripts to install packages and files at instance launch time. **WARNING** This template creates an Amazon EC2 instance. You will be billed for the AWS resources used if you create a stack from this template. Pages: 1 -->
<svg width="1284pt" height="260pt"
 viewBox="0.00 0.00 1284.00 260.00" xmlns="http://www.w3.org/2000/svg" xmlns:xlink="http://www.w3.org/1999/xlink">
<g id="graph1" class="graph" transform="scale(1 1) rotate(0) translate(4 256)">
<title>AWS CloudFormation Sample Template Joomla!_Single_Instance: Joomla! is a free, open&#45;source content management system (CMS) and application framework. This template installs a single&#45;instance Joomla! deployment using a local MySQL database to store the data. It demonstrates using the AWS CloudFormation bootstrap scripts to install packages and files at instance launch time. **WARNING** This template creates an Amazon EC2 instance. You will be billed for the AWS resources used if you create a stack from this template.</title>
<polygon fill="white" stroke="white" points="-4,5 -4,-256 1281,-256 1281,5 -4,5"/>
<!-- WebServer -->
<g id="node1" class="node"><title>WebServer</title>
<polygon fill="none" stroke="black" points="746,-108 654,-108 654,-72 746,-72 746,-108"/>
<text text-anchor="middle" x="700" y="-86.4" font-family="Times Roman,serif" font-size="14.00">WebServer</text>
</g>
<!-- WebsiteURL -->
<g id="node15" class="node"><title>WebsiteURL</title>
<polygon fill="lightgrey" stroke="lightgrey" points="682,-36 606,-36 594,-24 594,-12 606,-1.60583e-14 682,-5.25802e-15 694,-12 694,-24 682,-36"/>
<path fill="lightgrey" stroke="lightgrey" d="M606,-36C600,-36 594,-30 594,-24"/>
<path fill="lightgrey" stroke="lightgrey" d="M594,-12C594,-6 600,-1.69109e-14 606,-1.60583e-14"/>
<path fill="lightgrey" stroke="lightgrey" d="M682,-5.25802e-15C688,-4.40536e-15 694,-6 694,-12"/>
<path fill="lightgrey" stroke="lightgrey" d="M694,-24C694,-30 688,-36 682,-36"/>
<polyline fill="none" stroke="black" points="682,-36 606,-36 "/>
<path fill="none" stroke="black" d="M606,-36C600,-36 594,-30 594,-24"/>
<polyline fill="none" stroke="black" points="594,-24 594,-12 "/>
<path fill="none" stroke="black" d="M594,-12C594,-6 600,-1.69109e-14 606,-1.60583e-14"/>
<polyline fill="none" stroke="black" points="606,-1.60583e-14 682,-5.25802e-15 "/>
<path fill="none" stroke="black" d="M682,-5.25802e-15C688,-4.40536e-15 694,-6 694,-12"/>
<polyline fill="none" stroke="black" points="694,-12 694,-24 "/>
<path fill="none" stroke="black" d="M694,-24C694,-30 688,-36 682,-36"/>
<text text-anchor="middle" x="644" y="-14.4" font-family="Times Roman,serif" font-size="14.00">WebsiteURL</text>
</g>
<!-- WebServer&#45;&gt;WebsiteURL -->
<g id="edge60" class="edge"><title>WebServer&#45;&gt;WebsiteURL</title>
<path fill="none" stroke="black" d="M685.869,-71.8314C679.419,-63.5386 671.655,-53.557 664.575,-44.4533"/>
<polygon fill="black" stroke="black" points="667.224,-42.158 658.321,-36.4133 661.698,-46.4556 667.224,-42.158"/>
</g>
<!-- AdminURL -->
<g id="node16" class="node"><title>AdminURL</title>
<polygon fill="lightgrey" stroke="lightgrey" points="788,-36 724,-36 712,-24 712,-12 724,-1.58257e-14 788,-5.49056e-15 800,-12 800,-24 788,-36"/>
<path fill="lightgrey" stroke="lightgrey" d="M724,-36C718,-36 712,-30 712,-24"/>
<path fill="lightgrey" stroke="lightgrey" d="M712,-12C712,-6 718,-1.67946e-14 724,-1.58257e-14"/>
<path fill="lightgrey" stroke="lightgrey" d="M788,-5.49056e-15C794,-4.52164e-15 800,-6 800,-12"/>
<path fill="lightgrey" stroke="lightgrey" d="M800,-24C800,-30 794,-36 788,-36"/>
<polyline fill="none" stroke="black" points="788,-36 724,-36 "/>
<path fill="none" stroke="black" d="M724,-36C718,-36 712,-30 712,-24"/>
<polyline fill="none" stroke="black" points="712,-24 712,-12 "/>
<path fill="none" stroke="black" d="M712,-12C712,-6 718,-1.67946e-14 724,-1.58257e-14"/>
<polyline fill="none" stroke="black" points="724,-1.58257e-14 788,-5.49056e-15 "/>
<path fill="none" stroke="black" d="M788,-5.49056e-15C794,-4.52164e-15 800,-6 800,-12"/>
<polyline fill="none" stroke="black" points="800,-12 800,-24 "/>
<path fill="none" stroke="black" d="M800,-24C800,-30 794,-36 788,-36"/>
<text text-anchor="middle" x="756" y="-14.4" font-family="Times Roman,serif" font-size="14.00">AdminURL</text>
</g>
<!-- WebServer&#45;&gt;AdminURL -->
<g id="edge62" class="edge"><title>WebServer&#45;&gt;AdminURL</title>
<path fill="none" stroke="black" d="M714.131,-71.8314C720.581,-63.5386 728.345,-53.557 735.425,-44.4533"/>
<polygon fill="black" stroke="black" points="738.302,-46.4556 741.679,-36.4133 732.776,-42.158 738.302,-46.4556"/>
</g>
<!-- WaitCondition -->
<g id="node2" class="node"><title>WaitCondition</title>
<polygon fill="none" stroke="black" points="1276,-108 1162,-108 1162,-72 1276,-72 1276,-108"/>
<text text-anchor="middle" x="1219" y="-86.4" font-family="Times Roman,serif" font-size="14.00">WaitCondition</text>
</g>
<!-- WebServerSecurityGroup -->
<g id="node3" class="node"><title>WebServerSecurityGroup</title>
<polygon fill="none" stroke="black" points="192,-180 7.10543e-14,-180 0,-144 192,-144 192,-180"/>
<text text-anchor="middle" x="96" y="-158.4" font-family="Times Roman,serif" font-size="14.00">WebServerSecurityGroup</text>
</g>
<!-- WebServerSecurityGroup&#45;&gt;WebServer -->
<g id="edge36" class="edge"><title>WebServerSecurityGroup&#45;&gt;WebServer</title>
<path fill="none" stroke="black" d="M192.167,-146.746C198.874,-145.784 205.535,-144.859 212,-144 368.01,-123.274 552.825,-104.355 643.744,-95.4178"/>
<polygon fill="black" stroke="black" points="644.219,-98.8881 653.83,-94.4294 643.537,-91.9215 644.219,-98.8881"/>
</g>
<!-- WaitHandle -->
<g id="node4" class="node"><title>WaitHandle</title>
<polygon fill="none" stroke="black" points="1267,-180 1171,-180 1171,-144 1267,-144 1267,-180"/>
<text text-anchor="middle" x="1219" y="-158.4" font-family="Times Roman,serif" font-size="14.00">WaitHandle</text>
</g>
<!-- WaitHandle&#45;&gt;WebServer -->
<g id="edge4" class="edge"><title>WaitHandle&#45;&gt;WebServer</title>
<path fill="none" stroke="black" d="M1170.8,-148.527C1164.82,-146.819 1158.78,-145.24 1153,-144 1011.87,-113.754 842.603,-99.4198 756.347,-93.5223"/>
<polygon fill="black" stroke="black" points="756.459,-90.022 746.247,-92.8444 755.99,-97.0063 756.459,-90.022"/>
</g>
<!-- WaitHandle&#45;&gt;WebServer -->
<g id="edge32" class="edge"><title>WaitHandle&#45;&gt;WebServer</title>
<path fill="none" stroke="black" d="M1171.3,-144.066C1171.2,-144.044 1171.1,-144.022 1171,-144 1023.65,-112.421 845.629,-98.1872 756.464,-92.7911"/>
<polygon fill="black" stroke="black" points="756.487,-89.2864 746.298,-92.1911 756.074,-96.2742 756.487,-89.2864"/>
</g>
<!-- WaitHandle&#45;&gt;WaitCondition -->
<g id="edge56" class="edge"><title>WaitHandle&#45;&gt;WaitCondition</title>
<path fill="none" stroke="black" d="M1219,-143.831C1219,-136.131 1219,-126.974 1219,-118.417"/>
<polygon fill="black" stroke="black" points="1222.5,-118.413 1219,-108.413 1215.5,-118.413 1222.5,-118.413"/>
</g>
<!-- DBUsername -->
<g id="node6" class="node"><title>DBUsername</title>
<polygon fill="lightgrey" stroke="lightgrey" points="255,-252 173,-252 161,-240 161,-228 173,-216 255,-216 267,-228 267,-240 255,-252"/>
<path fill="lightgrey" stroke="lightgrey" d="M173,-252C167,-252 161,-246 161,-240"/>
<path fill="lightgrey" stroke="lightgrey" d="M161,-228C161,-222 167,-216 173,-216"/>
<path fill="lightgrey" stroke="lightgrey" d="M255,-216C261,-216 267,-222 267,-228"/>
<path fill="lightgrey" stroke="lightgrey" d="M267,-240C267,-246 261,-252 255,-252"/>
<polyline fill="none" stroke="black" points="255,-252 173,-252 "/>
<path fill="none" stroke="black" d="M173,-252C167,-252 161,-246 161,-240"/>
<polyline fill="none" stroke="black" points="161,-240 161,-228 "/>
<path fill="none" stroke="black" d="M161,-228C161,-222 167,-216 173,-216"/>
<polyline fill="none" stroke="black" points="173,-216 255,-216 "/>
<path fill="none" stroke="black" d="M255,-216C261,-216 267,-222 267,-228"/>
<polyline fill="none" stroke="black" points="267,-228 267,-240 "/>
<path fill="none" stroke="black" d="M267,-240C267,-246 261,-252 255,-252"/>
<text text-anchor="middle" x="214" y="-230.4" font-family="Times Roman,serif" font-size="14.00">DBUsername</text>
</g>
<!-- DBUsername&#45;&gt;WebServer -->
<g id="edge26" class="edge"><title>DBUsername&#45;&gt;WebServer</title>
<path fill="none" stroke="black" d="M234.93,-215.985C277.245,-196.707 362.798,-165.942 438,-144 506.356,-124.055 587.893,-105.942 643.737,-96.6166"/>
<polygon fill="black" stroke="black" points="644.544,-100.032 653.857,-94.9792 643.426,-93.1216 644.544,-100.032"/>
</g>
<!-- DBUsername&#45;&gt;WebServer -->
<g id="edge48" class="edge"><title>DBUsername&#45;&gt;WebServer</title>
<path fill="none" stroke="black" d="M267.166,-218.556C323.398,-199.539 413.359,-166.945 492,-144 543.089,-129.094 601.54,-115.21 643.734,-105.254"/>
<polygon fill="black" stroke="black" points="644.628,-108.639 653.557,-102.937 643.02,-101.826 644.628,-108.639"/>
</g>
<!-- DBUsername&#45;&gt;WebServer -->
<g id="edge54" class="edge"><title>DBUsername&#45;&gt;WebServer</title>
<path fill="none" stroke="black" d="M267.244,-222.341C328.753,-204.148 425.857,-168.551 510,-144 554.792,-130.931 605.243,-118.648 643.776,-109.109"/>
<polygon fill="black" stroke="black" points="644.946,-112.425 653.808,-106.619 643.259,-105.631 644.946,-112.425"/>
</g>
<!-- DBUsername&#45;&gt;WebServer -->
<g id="edge16" class="edge"><title>DBUsername&#45;&gt;WebServer</title>
<path fill="none" stroke="black" d="M248.198,-215.985C295.245,-196.707 380.798,-165.942 456,-144 519.04,-125.607 593.29,-108.771 643.631,-98.9487"/>
<polygon fill="black" stroke="black" points="644.523,-102.342 653.684,-97.0204 643.204,-95.467 644.523,-102.342"/>
</g>
<!-- DBUsername&#45;&gt;WebServer -->
<g id="edge22" class="edge"><title>DBUsername&#45;&gt;WebServer</title>
<path fill="none" stroke="black" d="M261.465,-215.985C313.245,-196.707 398.798,-165.942 474,-144 531.365,-127.262 598.012,-111.815 643.993,-101.768"/>
<polygon fill="black" stroke="black" points="644.739,-105.187 653.769,-99.6452 643.254,-98.3468 644.739,-105.187"/>
</g>
<!-- AdminPassword -->
<g id="node7" class="node"><title>AdminPassword</title>
<polygon fill="lightgrey" stroke="lightgrey" points="397,-252 297,-252 285,-240 285,-228 297,-216 397,-216 409,-228 409,-240 397,-252"/>
<path fill="lightgrey" stroke="lightgrey" d="M297,-252C291,-252 285,-246 285,-240"/>
<path fill="lightgrey" stroke="lightgrey" d="M285,-228C285,-222 291,-216 297,-216"/>
<path fill="lightgrey" stroke="lightgrey" d="M397,-216C403,-216 409,-222 409,-228"/>
<path fill="lightgrey" stroke="lightgrey" d="M409,-240C409,-246 403,-252 397,-252"/>
<polyline fill="none" stroke="black" points="397,-252 297,-252 "/>
<path fill="none" stroke="black" d="M297,-252C291,-252 285,-246 285,-240"/>
<polyline fill="none" stroke="black" points="285,-240 285,-228 "/>
<path fill="none" stroke="black" d="M285,-228C285,-222 291,-216 297,-216"/>
<polyline fill="none" stroke="black" points="297,-216 397,-216 "/>
<path fill="none" stroke="black" d="M397,-216C403,-216 409,-222 409,-228"/>
<polyline fill="none" stroke="black" points="409,-228 409,-240 "/>
<path fill="none" stroke="black" d="M409,-240C409,-246 403,-252 397,-252"/>
<text text-anchor="middle" x="347" y="-230.4" font-family="Times Roman,serif" font-size="14.00">AdminPassword</text>
</g>
<!-- AdminPassword&#45;&gt;WebServer -->
<g id="edge44" class="edge"><title>AdminPassword&#45;&gt;WebServer</title>
<path fill="none" stroke="black" d="M388.869,-215.847C431.704,-197.384 500.259,-168.136 560,-144 587.629,-132.838 618.519,-120.869 644.239,-111.044"/>
<polygon fill="black" stroke="black" points="645.728,-114.222 653.826,-107.389 643.235,-107.681 645.728,-114.222"/>
</g>
<!-- InstanceType -->
<g id="node8" class="node"><title>InstanceType</title>
<polygon fill="lightgrey" stroke="lightgrey" points="521,-252 439,-252 427,-240 427,-228 439,-216 521,-216 533,-228 533,-240 521,-252"/>
<path fill="lightgrey" stroke="lightgrey" d="M439,-252C433,-252 427,-246 427,-240"/>
<path fill="lightgrey" stroke="lightgrey" d="M427,-228C427,-222 433,-216 439,-216"/>
<path fill="lightgrey" stroke="lightgrey" d="M521,-216C527,-216 533,-222 533,-228"/>
<path fill="lightgrey" stroke="lightgrey" d="M533,-240C533,-246 527,-252 521,-252"/>
<polyline fill="none" stroke="black" points="521,-252 439,-252 "/>
<path fill="none" stroke="black" d="M439,-252C433,-252 427,-246 427,-240"/>
<polyline fill="none" stroke="black" points="427,-240 427,-228 "/>
<path fill="none" stroke="black" d="M427,-228C427,-222 433,-216 439,-216"/>
<polyline fill="none" stroke="black" points="439,-216 521,-216 "/>
<path fill="none" stroke="black" d="M521,-216C527,-216 533,-222 533,-228"/>
<polyline fill="none" stroke="black" points="533,-228 533,-240 "/>
<path fill="none" stroke="black" d="M533,-240C533,-246 527,-252 521,-252"/>
<text text-anchor="middle" x="480" y="-230.4" font-family="Times Roman,serif" font-size="14.00">InstanceType</text>
</g>
<!-- InstanceType&#45;&gt;WebServer -->
<g id="edge38" class="edge"><title>InstanceType&#45;&gt;WebServer</title>
<path fill="none" stroke="black" d="M503.19,-215.762C540.34,-189.74 613.198,-141.951 659.168,-113.366"/>
<polygon fill="black" stroke="black" points="661.039,-116.325 667.705,-108.09 657.358,-110.37 661.039,-116.325"/>
</g>
<!-- InstanceType&#45;&gt;WebServer -->
<g id="edge42" class="edge"><title>InstanceType&#45;&gt;WebServer</title>
<path fill="none" stroke="black" d="M512.536,-215.762C554.634,-189.903 627.152,-142.546 668.657,-113.903"/>
<polygon fill="black" stroke="black" points="670.808,-116.671 677.021,-108.09 666.812,-110.923 670.808,-116.671"/>
</g>
<!-- SSHLocation -->
<g id="node9" class="node"><title>SSHLocation</title>
<polygon fill="lightgrey" stroke="lightgrey" points="131,-252 51,-252 39,-240 39,-228 51,-216 131,-216 143,-228 143,-240 131,-252"/>
<path fill="lightgrey" stroke="lightgrey" d="M51,-252C45,-252 39,-246 39,-240"/>
<path fill="lightgrey" stroke="lightgrey" d="M39,-228C39,-222 45,-216 51,-216"/>
<path fill="lightgrey" stroke="lightgrey" d="M131,-216C137,-216 143,-222 143,-228"/>
<path fill="lightgrey" stroke="lightgrey" d="M143,-240C143,-246 137,-252 131,-252"/>
<polyline fill="none" stroke="black" points="131,-252 51,-252 "/>
<path fill="none" stroke="black" d="M51,-252C45,-252 39,-246 39,-240"/>
<polyline fill="none" stroke="black" points="39,-240 39,-228 "/>
<path fill="none" stroke="black" d="M39,-228C39,-222 45,-216 51,-216"/>
<polyline fill="none" stroke="black" points="51,-216 131,-216 "/>
<path fill="none" stroke="black" d="M131,-216C137,-216 143,-222 143,-228"/>
<polyline fill="none" stroke="black" points="143,-228 143,-240 "/>
<path fill="none" stroke="black" d="M143,-240C143,-246 137,-252 131,-252"/>
<text text-anchor="middle" x="91" y="-230.4" font-family="Times Roman,serif" font-size="14.00">SSHLocation</text>
</g>
<!-- SSHLocation&#45;&gt;WebServerSecurityGroup -->
<g id="edge58" class="edge"><title>SSHLocation&#45;&gt;WebServerSecurityGroup</title>
<path fill="none" stroke="black" d="M92.2617,-215.831C92.7965,-208.131 93.4323,-198.974 94.0266,-190.417"/>
<polygon fill="black" stroke="black" points="97.52,-190.632 94.7213,-180.413 90.5368,-190.147 97.52,-190.632"/>
</g>
<!-- KeyName -->
<g id="node10" class="node"><title>KeyName</title>
<polygon fill="lightgrey" stroke="lightgrey" points="619,-252 563,-252 551,-240 551,-228 563,-216 619,-216 631,-228 631,-240 619,-252"/>
<path fill="lightgrey" stroke="lightgrey" d="M563,-252C557,-252 551,-246 551,-240"/>
<path fill="lightgrey" stroke="lightgrey" d="M551,-228C551,-222 557,-216 563,-216"/>
<path fill="lightgrey" stroke="lightgrey" d="M619,-216C625,-216 631,-222 631,-228"/>
<path fill="lightgrey" stroke="lightgrey" d="M631,-240C631,-246 625,-252 619,-252"/>
<polyline fill="none" stroke="black" points="619,-252 563,-252 "/>
<path fill="none" stroke="black" d="M563,-252C557,-252 551,-246 551,-240"/>
<polyline fill="none" stroke="black" points="551,-240 551,-228 "/>
<path fill="none" stroke="black" d="M551,-228C551,-222 557,-216 563,-216"/>
<polyline fill="none" stroke="black" points="563,-216 619,-216 "/>
<path fill="none" stroke="black" d="M619,-216C625,-216 631,-222 631,-228"/>
<polyline fill="none" stroke="black" points="631,-228 631,-240 "/>
<path fill="none" stroke="black" d="M631,-240C631,-246 625,-252 619,-252"/>
<text text-anchor="middle" x="591" y="-230.4" font-family="Times Roman,serif" font-size="14.00">KeyName</text>
</g>
<!-- KeyName&#45;&gt;WebServer -->
<g id="edge34" class="edge"><title>KeyName&#45;&gt;WebServer</title>
<path fill="none" stroke="black" d="M604.805,-215.762C623.888,-190.552 658.436,-144.91 680.247,-116.095"/>
<polygon fill="black" stroke="black" points="683.062,-118.175 686.307,-108.09 677.481,-113.951 683.062,-118.175"/>
</g>
<!-- DBPassword -->
<g id="node11" class="node"><title>DBPassword</title>
<polygon fill="lightgrey" stroke="lightgrey" points="739,-252 661,-252 649,-240 649,-228 661,-216 739,-216 751,-228 751,-240 739,-252"/>
<path fill="lightgrey" stroke="lightgrey" d="M661,-252C655,-252 649,-246 649,-240"/>
<path fill="lightgrey" stroke="lightgrey" d="M649,-228C649,-222 655,-216 661,-216"/>
<path fill="lightgrey" stroke="lightgrey" d="M739,-216C745,-216 751,-222 751,-228"/>
<path fill="lightgrey" stroke="lightgrey" d="M751,-240C751,-246 745,-252 739,-252"/>
<polyline fill="none" stroke="black" points="739,-252 661,-252 "/>
<path fill="none" stroke="black" d="M661,-252C655,-252 649,-246 649,-240"/>
<polyline fill="none" stroke="black" points="649,-240 649,-228 "/>
<path fill="none" stroke="black" d="M649,-228C649,-222 655,-216 661,-216"/>
<polyline fill="none" stroke="black" points="661,-216 739,-216 "/>
<path fill="none" stroke="black" d="M739,-216C745,-216 751,-222 751,-228"/>
<polyline fill="none" stroke="black" points="751,-228 751,-240 "/>
<path fill="none" stroke="black" d="M751,-240C751,-246 745,-252 739,-252"/>
<text text-anchor="middle" x="700" y="-230.4" font-family="Times Roman,serif" font-size="14.00">DBPassword</text>
</g>
<!-- DBPassword&#45;&gt;WebServer -->
<g id="edge24" class="edge"><title>DBPassword&#45;&gt;WebServer</title>
<path fill="none" stroke="black" d="M685.98,-215.762C678.569,-191.093 677.77,-146.86 683.584,-117.973"/>
<polygon fill="black" stroke="black" points="687.025,-118.637 686.025,-108.09 680.229,-116.959 687.025,-118.637"/>
</g>
<!-- DBPassword&#45;&gt;WebServer -->
<g id="edge28" class="edge"><title>DBPassword&#45;&gt;WebServer</title>
<path fill="none" stroke="black" d="M704.673,-215.762C707.133,-191.201 707.408,-147.247 705.497,-118.354"/>
<polygon fill="black" stroke="black" points="708.962,-117.771 704.658,-108.09 701.985,-118.342 708.962,-117.771"/>
</g>
<!-- DBPassword&#45;&gt;WebServer -->
<g id="edge50" class="edge"><title>DBPassword&#45;&gt;WebServer</title>
<path fill="none" stroke="black" d="M714.02,-215.762C721.431,-191.093 722.23,-146.86 716.416,-117.973"/>
<polygon fill="black" stroke="black" points="719.771,-116.959 713.975,-108.09 712.975,-118.637 719.771,-116.959"/>
</g>
<!-- DBPassword&#45;&gt;WebServer -->
<g id="edge18" class="edge"><title>DBPassword&#45;&gt;WebServer</title>
<path fill="none" stroke="black" d="M695.327,-215.762C692.867,-191.201 692.592,-147.247 694.503,-118.354"/>
<polygon fill="black" stroke="black" points="698.015,-118.342 695.342,-108.09 691.038,-117.771 698.015,-118.342"/>
</g>
<!-- DBRootPassword -->
<g id="node12" class="node"><title>DBRootPassword</title>
<polygon fill="lightgrey" stroke="lightgrey" points="891,-252 781,-252 769,-240 769,-228 781,-216 891,-216 903,-228 903,-240 891,-252"/>
<path fill="lightgrey" stroke="lightgrey" d="M781,-252C775,-252 769,-246 769,-240"/>
<path fill="lightgrey" stroke="lightgrey" d="M769,-228C769,-222 775,-216 781,-216"/>
<path fill="lightgrey" stroke="lightgrey" d="M891,-216C897,-216 903,-222 903,-228"/>
<path fill="lightgrey" stroke="lightgrey" d="M903,-240C903,-246 897,-252 891,-252"/>
<polyline fill="none" stroke="black" points="891,-252 781,-252 "/>
<path fill="none" stroke="black" d="M781,-252C775,-252 769,-246 769,-240"/>
<polyline fill="none" stroke="black" points="769,-240 769,-228 "/>
<path fill="none" stroke="black" d="M769,-228C769,-222 775,-216 781,-216"/>
<polyline fill="none" stroke="black" points="781,-216 891,-216 "/>
<path fill="none" stroke="black" d="M891,-216C897,-216 903,-222 903,-228"/>
<polyline fill="none" stroke="black" points="903,-228 903,-240 "/>
<path fill="none" stroke="black" d="M903,-240C903,-246 897,-252 891,-252"/>
<text text-anchor="middle" x="836" y="-230.4" font-family="Times Roman,serif" font-size="14.00">DBRootPassword</text>
</g>
<!-- DBRootPassword&#45;&gt;WebServer -->
<g id="edge10" class="edge"><title>DBRootPassword&#45;&gt;WebServer</title>
<path fill="none" stroke="black" d="M814.102,-215.762C787.655,-190.444 744.067,-144.518 718.981,-115.725"/>
<polygon fill="black" stroke="black" points="721.596,-113.397 712.426,-108.09 716.285,-117.957 721.596,-113.397"/>
</g>
<!-- DBRootPassword&#45;&gt;WebServer -->
<g id="edge12" class="edge"><title>DBRootPassword&#45;&gt;WebServer</title>
<path fill="none" stroke="black" d="M823.449,-215.762C801.981,-190.335 758.543,-144.125 729.235,-115.357"/>
<polygon fill="black" stroke="black" points="731.358,-112.54 721.743,-108.09 726.484,-117.564 731.358,-112.54"/>
</g>
<!-- DBName -->
<g id="node13" class="node"><title>DBName</title>
<polygon fill="lightgrey" stroke="lightgrey" points="985,-252 933,-252 921,-240 921,-228 933,-216 985,-216 997,-228 997,-240 985,-252"/>
<path fill="lightgrey" stroke="lightgrey" d="M933,-252C927,-252 921,-246 921,-240"/>
<path fill="lightgrey" stroke="lightgrey" d="M921,-228C921,-222 927,-216 933,-216"/>
<path fill="lightgrey" stroke="lightgrey" d="M985,-216C991,-216 997,-222 997,-228"/>
<path fill="lightgrey" stroke="lightgrey" d="M997,-240C997,-246 991,-252 985,-252"/>
<polyline fill="none" stroke="black" points="985,-252 933,-252 "/>
<path fill="none" stroke="black" d="M933,-252C927,-252 921,-246 921,-240"/>
<polyline fill="none" stroke="black" points="921,-240 921,-228 "/>
<path fill="none" stroke="black" d="M921,-228C921,-222 927,-216 933,-216"/>
<polyline fill="none" stroke="black" points="933,-216 985,-216 "/>
<path fill="none" stroke="black" d="M985,-216C991,-216 997,-222 997,-228"/>
<polyline fill="none" stroke="black" points="997,-228 997,-240 "/>
<path fill="none" stroke="black" d="M997,-240C997,-246 991,-252 985,-252"/>
<text text-anchor="middle" x="959" y="-230.4" font-family="Times Roman,serif" font-size="14.00">DBName</text>
</g>
<!-- DBName&#45;&gt;WebServer -->
<g id="edge30" class="edge"><title>DBName&#45;&gt;WebServer</title>
<path fill="none" stroke="black" d="M920.999,-221.723C865.151,-197.875 768.303,-144.916 722.284,-113.901"/>
<polygon fill="black" stroke="black" points="723.997,-110.829 713.786,-108.006 720.008,-116.581 723.997,-110.829"/>
</g>
<!-- DBName&#45;&gt;WebServer -->
<g id="edge46" class="edge"><title>DBName&#45;&gt;WebServer</title>
<path fill="none" stroke="black" d="M935.544,-215.762C893.607,-189.524 806.877,-141.155 750.902,-112.657"/>
<polygon fill="black" stroke="black" points="752.357,-109.471 741.853,-108.09 749.203,-115.72 752.357,-109.471"/>
</g>
<!-- DBName&#45;&gt;WebServer -->
<g id="edge52" class="edge"><title>DBName&#45;&gt;WebServer</title>
<path fill="none" stroke="black" d="M944.89,-215.762C907.051,-188.696 816.241,-138.08 755.386,-110.02"/>
<polygon fill="black" stroke="black" points="756.816,-106.825 746.263,-105.883 753.925,-113.2 756.816,-106.825"/>
</g>
<!-- DBName&#45;&gt;WebServer -->
<g id="edge14" class="edge"><title>DBName&#45;&gt;WebServer</title>
<path fill="none" stroke="black" d="M920.866,-217.761C869.534,-192.332 780.331,-142.993 732.188,-113.627"/>
<polygon fill="black" stroke="black" points="733.76,-110.485 723.412,-108.21 730.083,-116.441 733.76,-110.485"/>
</g>
<!-- DBName&#45;&gt;WebServer -->
<g id="edge20" class="edge"><title>DBName&#45;&gt;WebServer</title>
<path fill="none" stroke="black" d="M926.46,-215.908C879.55,-189.827 792.925,-141.665 741.48,-113.063"/>
<polygon fill="black" stroke="black" points="743.052,-109.931 732.611,-108.131 739.65,-116.049 743.052,-109.931"/>
</g>
<!-- AWS::StackId -->
<g id="node18" class="node"><title>AWS::StackId</title>
<polygon fill="none" stroke="black" points="1031,-180 921,-180 921,-144 1031,-144 1031,-180"/>
<text text-anchor="middle" x="976" y="-158.4" font-family="Times Roman,serif" font-size="14.00">AWS::StackId</text>
</g>
<!-- AWS::StackId&#45;&gt;WebServer -->
<g id="edge6" class="edge"><title>AWS::StackId&#45;&gt;WebServer</title>
<path fill="none" stroke="black" d="M920.811,-147.603C873.079,-135.151 804.374,-117.228 756.316,-104.691"/>
<polygon fill="black" stroke="black" points="756.949,-101.239 746.389,-102.102 755.182,-108.013 756.949,-101.239"/>
</g>
<!-- AWS::Region -->
<g id="node20" class="node"><title>AWS::Region</title>
<polygon fill="none" stroke="black" points="1153,-180 1049,-180 1049,-144 1153,-144 1153,-180"/>
<text text-anchor="middle" x="1101" y="-158.4" font-family="Times Roman,serif" font-size="14.00">AWS::Region</text>
</g>
<!-- AWS::Region&#45;&gt;WebServer -->
<g id="edge40" class="edge"><title>AWS::Region&#45;&gt;WebServer</title>
<path fill="none" stroke="black" d="M1048.95,-148.519C1042.89,-146.875 1036.82,-145.314 1031,-144 935.266,-122.368 822.45,-106.269 756.235,-97.5051"/>
<polygon fill="black" stroke="black" points="756.388,-93.9952 746.017,-96.1618 755.476,-100.936 756.388,-93.9952"/>
</g>
<!-- AWS::Region&#45;&gt;WebServer -->
<g id="edge8" class="edge"><title>AWS::Region&#45;&gt;WebServer</title>
<path fill="none" stroke="black" d="M1049.32,-144.073C1049.22,-144.049 1049.11,-144.024 1049,-144 947.108,-120.977 825.866,-104.221 756.324,-95.9054"/>
<polygon fill="black" stroke="black" points="756.374,-92.3871 746.033,-94.6919 755.554,-99.339 756.374,-92.3871"/>
</g>
</g>
</svg>
