<?xml version="1.0" encoding="UTF-8" standalone="no"?>
<!DOCTYPE svg PUBLIC "-//W3C//DTD SVG 1.1//EN"
 "http://www.w3.org/Graphics/SVG/1.1/DTD/svg11.dtd">
<!-- Generated by graphviz version 2.26.3 (20100126.1600)
 -->
<!-- Title: AWS CloudFormation Sample Template Joomla!_Multi_AZ: Joomla! is a free, open&#45;source content management system (CMS) and application framework. This template installs a highly&#45;available, scalable Joomla! deployment using a multi&#45;az Amazon RDS database instance for storage. It demonstrates using the AWS CloudFormation bootstrap scripts to install packages and files at instance launch time. **WARNING** This template creates one or more Amazon EC2 instances and an Amazon RDS database instance. You will be billed for the AWS resources used if you create a stack from this template. Pages: 1 -->
<svg width="1515pt" height="548pt"
 viewBox="0.00 0.00 1515.00 548.00" xmlns="http://www.w3.org/2000/svg" xmlns:xlink="http://www.w3.org/1999/xlink">
<g id="graph1" class="graph" transform="scale(1 1) rotate(0) translate(4 544)">
<title>AWS CloudFormation Sample Template Joomla!_Multi_AZ: Joomla! is a free, open&#45;source content management system (CMS) and application framework. This template installs a highly&#45;available, scalable Joomla! deployment using a multi&#45;az Amazon RDS database instance for storage. It demonstrates using the AWS CloudFormation bootstrap scripts to install packages and files at instance launch time. **WARNING** This template creates one or more Amazon EC2 instances and an Amazon RDS database instance. You will be billed for the AWS resources used if you create a stack from this template.</title>
<polygon fill="white" stroke="white" points="-4,5 -4,-544 1512,-544 1512,5 -4,5"/>
<!-- DBSecurityGroup -->
<g id="node1" class="node"><title>DBSecurityGroup</title>
<polygon fill="none" stroke="black" points="1047,-324 911,-324 911,-288 1047,-288 1047,-324"/>
<text text-anchor="middle" x="979" y="-302.4" font-family="Times Roman,serif" font-size="14.00">DBSecurityGroup</text>
</g>
<!-- DBInstance -->
<g id="node7" class="node"><title>DBInstance</title>
<polygon fill="none" stroke="black" points="814,-252 718,-252 718,-216 814,-216 814,-252"/>
<text text-anchor="middle" x="766" y="-230.4" font-family="Times Roman,serif" font-size="14.00">DBInstance</text>
</g>
<!-- DBSecurityGroup&#45;&gt;DBInstance -->
<g id="edge72" class="edge"><title>DBSecurityGroup&#45;&gt;DBInstance</title>
<path fill="none" stroke="black" d="M925.526,-287.924C894.479,-277.43 855.361,-264.206 823.632,-253.481"/>
<polygon fill="black" stroke="black" points="824.633,-250.125 814.039,-250.239 822.391,-256.757 824.633,-250.125"/>
</g>
<!-- WebServerSecurityGroup -->
<g id="node2" class="node"><title>WebServerSecurityGroup</title>
<polygon fill="none" stroke="black" points="1170,-396 978,-396 978,-360 1170,-360 1170,-396"/>
<text text-anchor="middle" x="1074" y="-374.4" font-family="Times Roman,serif" font-size="14.00">WebServerSecurityGroup</text>
</g>
<!-- WebServerSecurityGroup&#45;&gt;DBSecurityGroup -->
<g id="edge4" class="edge"><title>WebServerSecurityGroup&#45;&gt;DBSecurityGroup</title>
<path fill="none" stroke="black" d="M1050.03,-359.831C1038.21,-350.878 1023.8,-339.956 1011.06,-330.295"/>
<polygon fill="black" stroke="black" points="1013.05,-327.414 1002.96,-324.163 1008.82,-332.992 1013.05,-327.414"/>
</g>
<!-- LaunchConfig -->
<g id="node4" class="node"><title>LaunchConfig</title>
<polygon fill="none" stroke="black" points="605,-180 495,-180 495,-144 605,-144 605,-180"/>
<text text-anchor="middle" x="550" y="-158.4" font-family="Times Roman,serif" font-size="14.00">LaunchConfig</text>
</g>
<!-- WebServerSecurityGroup&#45;&gt;LaunchConfig -->
<g id="edge58" class="edge"><title>WebServerSecurityGroup&#45;&gt;LaunchConfig</title>
<path fill="none" stroke="black" d="M1075.46,-359.731C1076.03,-339.649 1073.72,-307.636 1056,-288 997.296,-222.961 738.098,-184.242 615.148,-169.223"/>
<polygon fill="black" stroke="black" points="615.456,-165.735 605.109,-168.013 614.618,-172.685 615.456,-165.735"/>
</g>
<!-- WebServerGroup -->
<g id="node3" class="node"><title>WebServerGroup</title>
<polygon fill="none" stroke="black" points="618,-108 482,-108 482,-72 618,-72 618,-108"/>
<text text-anchor="middle" x="550" y="-86.4" font-family="Times Roman,serif" font-size="14.00">WebServerGroup</text>
</g>
<!-- LaunchConfig&#45;&gt;WebServerGroup -->
<g id="edge14" class="edge"><title>LaunchConfig&#45;&gt;WebServerGroup</title>
<path fill="none" stroke="black" d="M550,-143.831C550,-136.131 550,-126.974 550,-118.417"/>
<polygon fill="black" stroke="black" points="553.5,-118.413 550,-108.413 546.5,-118.413 553.5,-118.413"/>
</g>
<!-- ElasticLoadBalancer -->
<g id="node5" class="node"><title>ElasticLoadBalancer</title>
<polygon fill="none" stroke="black" points="1436,-468 1282,-468 1282,-432 1436,-432 1436,-468"/>
<text text-anchor="middle" x="1359" y="-446.4" font-family="Times Roman,serif" font-size="14.00">ElasticLoadBalancer</text>
</g>
<!-- ElasticLoadBalancer&#45;&gt;WebServerSecurityGroup -->
<g id="edge6" class="edge"><title>ElasticLoadBalancer&#45;&gt;WebServerSecurityGroup</title>
<path fill="none" stroke="black" d="M1281.88,-432.017C1240.67,-421.859 1190.17,-409.121 1149.24,-398.567"/>
<polygon fill="black" stroke="black" points="1149.88,-395.117 1139.33,-396.003 1148.13,-401.894 1149.88,-395.117"/>
</g>
<!-- ElasticLoadBalancer&#45;&gt;WebServerSecurityGroup -->
<g id="edge8" class="edge"><title>ElasticLoadBalancer&#45;&gt;WebServerSecurityGroup</title>
<path fill="none" stroke="black" d="M1293.39,-431.924C1254.09,-421.741 1203.68,-408.989 1161.07,-398.443"/>
<polygon fill="black" stroke="black" points="1161.82,-395.021 1151.27,-396.021 1160.14,-401.817 1161.82,-395.021"/>
</g>
<!-- ElasticLoadBalancer&#45;&gt;WebServerGroup -->
<g id="edge16" class="edge"><title>ElasticLoadBalancer&#45;&gt;WebServerGroup</title>
<path fill="none" stroke="black" d="M1345.98,-431.912C1328.33,-405.566 1299,-354.479 1299,-306 1299,-306 1299,-306 1299,-234 1299,-166.232 820.051,-114.765 628.143,-96.8634"/>
<polygon fill="black" stroke="black" points="628.402,-93.3725 618.122,-95.9348 627.756,-100.343 628.402,-93.3725"/>
</g>
<!-- WebsiteURL -->
<g id="node22" class="node"><title>WebsiteURL</title>
<polygon fill="lightgrey" stroke="lightgrey" points="1495,-36 1419,-36 1407,-24 1407,-12 1419,-1.60583e-14 1495,-5.25802e-15 1507,-12 1507,-24 1495,-36"/>
<path fill="lightgrey" stroke="lightgrey" d="M1419,-36C1413,-36 1407,-30 1407,-24"/>
<path fill="lightgrey" stroke="lightgrey" d="M1407,-12C1407,-6 1413,-1.69109e-14 1419,-1.60583e-14"/>
<path fill="lightgrey" stroke="lightgrey" d="M1495,-5.25802e-15C1501,-4.40536e-15 1507,-6 1507,-12"/>
<path fill="lightgrey" stroke="lightgrey" d="M1507,-24C1507,-30 1501,-36 1495,-36"/>
<polyline fill="none" stroke="black" points="1495,-36 1419,-36 "/>
<path fill="none" stroke="black" d="M1419,-36C1413,-36 1407,-30 1407,-24"/>
<polyline fill="none" stroke="black" points="1407,-24 1407,-12 "/>
<path fill="none" stroke="black" d="M1407,-12C1407,-6 1413,-1.69109e-14 1419,-1.60583e-14"/>
<polyline fill="none" stroke="black" points="1419,-1.60583e-14 1495,-5.25802e-15 "/>
<path fill="none" stroke="black" d="M1495,-5.25802e-15C1501,-4.40536e-15 1507,-6 1507,-12"/>
<polyline fill="none" stroke="black" points="1507,-12 1507,-24 "/>
<path fill="none" stroke="black" d="M1507,-24C1507,-30 1501,-36 1495,-36"/>
<text text-anchor="middle" x="1457" y="-14.4" font-family="Times Roman,serif" font-size="14.00">WebsiteURL</text>
</g>
<!-- ElasticLoadBalancer&#45;&gt;WebsiteURL -->
<g id="edge84" class="edge"><title>ElasticLoadBalancer&#45;&gt;WebsiteURL</title>
<path fill="none" stroke="black" d="M1382.22,-431.768C1411.2,-406.78 1457,-358.92 1457,-306 1457,-306 1457,-306 1457,-162 1457,-121.876 1457,-75.4631 1457,-46.4177"/>
<polygon fill="black" stroke="black" points="1460.5,-46.1853 1457,-36.1854 1453.5,-46.1854 1460.5,-46.1853"/>
</g>
<!-- AdminURL -->
<g id="node23" class="node"><title>AdminURL</title>
<polygon fill="lightgrey" stroke="lightgrey" points="1377,-36 1313,-36 1301,-24 1301,-12 1313,-1.58257e-14 1377,-5.49056e-15 1389,-12 1389,-24 1377,-36"/>
<path fill="lightgrey" stroke="lightgrey" d="M1313,-36C1307,-36 1301,-30 1301,-24"/>
<path fill="lightgrey" stroke="lightgrey" d="M1301,-12C1301,-6 1307,-1.67946e-14 1313,-1.58257e-14"/>
<path fill="lightgrey" stroke="lightgrey" d="M1377,-5.49056e-15C1383,-4.52164e-15 1389,-6 1389,-12"/>
<path fill="lightgrey" stroke="lightgrey" d="M1389,-24C1389,-30 1383,-36 1377,-36"/>
<polyline fill="none" stroke="black" points="1377,-36 1313,-36 "/>
<path fill="none" stroke="black" d="M1313,-36C1307,-36 1301,-30 1301,-24"/>
<polyline fill="none" stroke="black" points="1301,-24 1301,-12 "/>
<path fill="none" stroke="black" d="M1301,-12C1301,-6 1307,-1.67946e-14 1313,-1.58257e-14"/>
<polyline fill="none" stroke="black" points="1313,-1.58257e-14 1377,-5.49056e-15 "/>
<path fill="none" stroke="black" d="M1377,-5.49056e-15C1383,-4.52164e-15 1389,-6 1389,-12"/>
<polyline fill="none" stroke="black" points="1389,-12 1389,-24 "/>
<path fill="none" stroke="black" d="M1389,-24C1389,-30 1383,-36 1377,-36"/>
<text text-anchor="middle" x="1345" y="-14.4" font-family="Times Roman,serif" font-size="14.00">AdminURL</text>
</g>
<!-- ElasticLoadBalancer&#45;&gt;AdminURL -->
<g id="edge86" class="edge"><title>ElasticLoadBalancer&#45;&gt;AdminURL</title>
<path fill="none" stroke="black" d="M1356.1,-431.87C1352,-404.623 1345,-351.463 1345,-306 1345,-306 1345,-306 1345,-162 1345,-121.876 1345,-75.4631 1345,-46.4177"/>
<polygon fill="black" stroke="black" points="1348.5,-46.1853 1345,-36.1854 1341.5,-46.1854 1348.5,-46.1853"/>
</g>
<!-- WaitCondition -->
<g id="node6" class="node"><title>WaitCondition</title>
<polygon fill="none" stroke="black" points="244,-108 130,-108 130,-72 244,-72 244,-108"/>
<text text-anchor="middle" x="187" y="-86.4" font-family="Times Roman,serif" font-size="14.00">WaitCondition</text>
</g>
<!-- DBInstance&#45;&gt;LaunchConfig -->
<g id="edge26" class="edge"><title>DBInstance&#45;&gt;LaunchConfig</title>
<path fill="none" stroke="black" d="M717.89,-225.529C676.428,-215.326 621.005,-197.805 583.955,-183.745"/>
<polygon fill="black" stroke="black" points="585.074,-180.425 574.486,-180.066 582.539,-186.95 585.074,-180.425"/>
</g>
<!-- DBInstance&#45;&gt;LaunchConfig -->
<g id="edge28" class="edge"><title>DBInstance&#45;&gt;LaunchConfig</title>
<path fill="none" stroke="black" d="M717.891,-222.986C681.24,-212.544 632.088,-196.567 596.025,-183.586"/>
<polygon fill="black" stroke="black" points="596.816,-180.149 586.222,-180.011 594.417,-186.725 596.816,-180.149"/>
</g>
<!-- DBInstance&#45;&gt;LaunchConfig -->
<g id="edge36" class="edge"><title>DBInstance&#45;&gt;LaunchConfig</title>
<path fill="none" stroke="black" d="M717.822,-219.775C685.208,-209.361 642.044,-195.053 607.623,-183.281"/>
<polygon fill="black" stroke="black" points="608.756,-179.97 598.162,-180.034 606.484,-186.591 608.756,-179.97"/>
</g>
<!-- DBInstance&#45;&gt;LaunchConfig -->
<g id="edge38" class="edge"><title>DBInstance&#45;&gt;LaunchConfig</title>
<path fill="none" stroke="black" d="M717.985,-216.017C687.63,-205.554 648.084,-192.355 614.957,-181.623"/>
<polygon fill="black" stroke="black" points="615.941,-178.263 605.349,-178.522 613.79,-184.925 615.941,-178.263"/>
</g>
<!-- DBInstance&#45;&gt;LaunchConfig -->
<g id="edge48" class="edge"><title>DBInstance&#45;&gt;LaunchConfig</title>
<path fill="none" stroke="black" d="M729.603,-215.924C698.049,-204.261 652.73,-189.229 615.166,-178"/>
<polygon fill="black" stroke="black" points="615.879,-174.561 605.297,-175.085 613.896,-181.274 615.879,-174.561"/>
</g>
<!-- DBInstance&#45;&gt;LaunchConfig -->
<g id="edge50" class="edge"><title>DBInstance&#45;&gt;LaunchConfig</title>
<path fill="none" stroke="black" d="M741.256,-215.831C709.112,-203.039 657.603,-186.227 614.998,-174.819"/>
<polygon fill="black" stroke="black" points="615.778,-171.405 605.217,-172.256 614.003,-178.177 615.778,-171.405"/>
</g>
<!-- WaitHandle -->
<g id="node8" class="node"><title>WaitHandle</title>
<polygon fill="none" stroke="black" points="235,-252 139,-252 139,-216 235,-216 235,-252"/>
<text text-anchor="middle" x="187" y="-230.4" font-family="Times Roman,serif" font-size="14.00">WaitHandle</text>
</g>
<!-- WaitHandle&#45;&gt;LaunchConfig -->
<g id="edge54" class="edge"><title>WaitHandle&#45;&gt;LaunchConfig</title>
<path fill="none" stroke="black" d="M235.036,-217.197C236.705,-216.784 238.363,-216.383 240,-216 323.488,-196.449 421.438,-180.074 484.632,-170.649"/>
<polygon fill="black" stroke="black" points="485.472,-174.063 494.854,-169.14 484.45,-167.138 485.472,-174.063"/>
</g>
<!-- WaitHandle&#45;&gt;LaunchConfig -->
<g id="edge18" class="edge"><title>WaitHandle&#45;&gt;LaunchConfig</title>
<path fill="none" stroke="black" d="M235.025,-221.947C242.726,-219.822 250.579,-217.738 258,-216 335.452,-197.862 425.351,-182.458 484.79,-172.801"/>
<polygon fill="black" stroke="black" points="485.479,-176.235 494.792,-171.183 484.361,-169.325 485.479,-176.235"/>
</g>
<!-- WaitHandle&#45;&gt;WaitCondition -->
<g id="edge68" class="edge"><title>WaitHandle&#45;&gt;WaitCondition</title>
<path fill="none" stroke="black" d="M187,-215.762C187,-191.201 187,-147.247 187,-118.354"/>
<polygon fill="black" stroke="black" points="190.5,-118.09 187,-108.09 183.5,-118.09 190.5,-118.09"/>
</g>
<!-- DBUsername -->
<g id="node10" class="node"><title>DBUsername</title>
<polygon fill="lightgrey" stroke="lightgrey" points="576,-540 494,-540 482,-528 482,-516 494,-504 576,-504 588,-516 588,-528 576,-540"/>
<path fill="lightgrey" stroke="lightgrey" d="M494,-540C488,-540 482,-534 482,-528"/>
<path fill="lightgrey" stroke="lightgrey" d="M482,-516C482,-510 488,-504 494,-504"/>
<path fill="lightgrey" stroke="lightgrey" d="M576,-504C582,-504 588,-510 588,-516"/>
<path fill="lightgrey" stroke="lightgrey" d="M588,-528C588,-534 582,-540 576,-540"/>
<polyline fill="none" stroke="black" points="576,-540 494,-540 "/>
<path fill="none" stroke="black" d="M494,-540C488,-540 482,-534 482,-528"/>
<polyline fill="none" stroke="black" points="482,-528 482,-516 "/>
<path fill="none" stroke="black" d="M482,-516C482,-510 488,-504 494,-504"/>
<polyline fill="none" stroke="black" points="494,-504 576,-504 "/>
<path fill="none" stroke="black" d="M576,-504C582,-504 588,-510 588,-516"/>
<polyline fill="none" stroke="black" points="588,-516 588,-528 "/>
<path fill="none" stroke="black" d="M588,-528C588,-534 582,-540 576,-540"/>
<text text-anchor="middle" x="535" y="-518.4" font-family="Times Roman,serif" font-size="14.00">DBUsername</text>
</g>
<!-- DBUsername&#45;&gt;LaunchConfig -->
<g id="edge30" class="edge"><title>DBUsername&#45;&gt;LaunchConfig</title>
<path fill="none" stroke="black" d="M567.602,-503.946C582.325,-495.565 598.022,-483.857 607,-468 634.308,-419.77 571.379,-256.136 552.898,-190.038"/>
<polygon fill="black" stroke="black" points="556.265,-189.079 550.335,-180.3 549.496,-190.861 556.265,-189.079"/>
</g>
<!-- DBUsername&#45;&gt;LaunchConfig -->
<g id="edge40" class="edge"><title>DBUsername&#45;&gt;LaunchConfig</title>
<path fill="none" stroke="black" d="M584.529,-503.946C600.325,-495.565 616.022,-483.857 625,-468 652.364,-419.67 589.119,-255.462 561.8,-189.631"/>
<polygon fill="black" stroke="black" points="564.984,-188.173 557.894,-180.3 558.527,-190.876 564.984,-188.173"/>
</g>
<!-- DBUsername&#45;&gt;LaunchConfig -->
<g id="edge44" class="edge"><title>DBUsername&#45;&gt;LaunchConfig</title>
<path fill="none" stroke="black" d="M588.157,-509.824C609.709,-501.373 631.688,-487.979 643,-468 670.42,-419.571 606.859,-254.787 570.591,-189.227"/>
<polygon fill="black" stroke="black" points="573.475,-187.22 565.453,-180.3 567.408,-190.713 573.475,-187.22"/>
</g>
<!-- DBUsername&#45;&gt;DBInstance -->
<g id="edge74" class="edge"><title>DBUsername&#45;&gt;DBInstance</title>
<path fill="none" stroke="black" d="M588.174,-506.244C635.809,-491.923 698.825,-472.38 703,-468 757.646,-410.666 765.99,-311.109 766.58,-262.437"/>
<polygon fill="black" stroke="black" points="770.08,-262.314 766.597,-252.308 763.08,-262.302 770.08,-262.314"/>
</g>
<!-- AdminPassword -->
<g id="node11" class="node"><title>AdminPassword</title>
<polygon fill="lightgrey" stroke="lightgrey" points="1256,-540 1156,-540 1144,-528 1144,-516 1156,-504 1256,-504 1268,-516 1268,-528 1256,-540"/>
<path fill="lightgrey" stroke="lightgrey" d="M1156,-540C1150,-540 1144,-534 1144,-528"/>
<path fill="lightgrey" stroke="lightgrey" d="M1144,-516C1144,-510 1150,-504 1156,-504"/>
<path fill="lightgrey" stroke="lightgrey" d="M1256,-504C1262,-504 1268,-510 1268,-516"/>
<path fill="lightgrey" stroke="lightgrey" d="M1268,-528C1268,-534 1262,-540 1256,-540"/>
<polyline fill="none" stroke="black" points="1256,-540 1156,-540 "/>
<path fill="none" stroke="black" d="M1156,-540C1150,-540 1144,-534 1144,-528"/>
<polyline fill="none" stroke="black" points="1144,-528 1144,-516 "/>
<path fill="none" stroke="black" d="M1144,-516C1144,-510 1150,-504 1156,-504"/>
<polyline fill="none" stroke="black" points="1156,-504 1256,-504 "/>
<path fill="none" stroke="black" d="M1256,-504C1262,-504 1268,-510 1268,-516"/>
<polyline fill="none" stroke="black" points="1268,-516 1268,-528 "/>
<path fill="none" stroke="black" d="M1268,-528C1268,-534 1262,-540 1256,-540"/>
<text text-anchor="middle" x="1206" y="-518.4" font-family="Times Roman,serif" font-size="14.00">AdminPassword</text>
</g>
<!-- AdminPassword&#45;&gt;LaunchConfig -->
<g id="edge66" class="edge"><title>AdminPassword&#45;&gt;LaunchConfig</title>
<path fill="none" stroke="black" d="M1204.34,-503.833C1202,-476.539 1198,-423.32 1198,-378 1198,-378 1198,-378 1198,-306 1198,-192.08 1068.51,-243.652 958,-216 839.183,-186.27 696.552,-172.143 615.273,-166.053"/>
<polygon fill="black" stroke="black" points="615.416,-162.554 605.187,-165.315 614.905,-169.536 615.416,-162.554"/>
</g>
<!-- DBClass -->
<g id="node12" class="node"><title>DBClass</title>
<polygon fill="lightgrey" stroke="lightgrey" points="992,-540 944,-540 932,-528 932,-516 944,-504 992,-504 1004,-516 1004,-528 992,-540"/>
<path fill="lightgrey" stroke="lightgrey" d="M944,-540C938,-540 932,-534 932,-528"/>
<path fill="lightgrey" stroke="lightgrey" d="M932,-516C932,-510 938,-504 944,-504"/>
<path fill="lightgrey" stroke="lightgrey" d="M992,-504C998,-504 1004,-510 1004,-516"/>
<path fill="lightgrey" stroke="lightgrey" d="M1004,-528C1004,-534 998,-540 992,-540"/>
<polyline fill="none" stroke="black" points="992,-540 944,-540 "/>
<path fill="none" stroke="black" d="M944,-540C938,-540 932,-534 932,-528"/>
<polyline fill="none" stroke="black" points="932,-528 932,-516 "/>
<path fill="none" stroke="black" d="M932,-516C932,-510 938,-504 944,-504"/>
<polyline fill="none" stroke="black" points="944,-504 992,-504 "/>
<path fill="none" stroke="black" d="M992,-504C998,-504 1004,-510 1004,-516"/>
<polyline fill="none" stroke="black" points="1004,-516 1004,-528 "/>
<path fill="none" stroke="black" d="M1004,-528C1004,-534 998,-540 992,-540"/>
<text text-anchor="middle" x="968" y="-518.4" font-family="Times Roman,serif" font-size="14.00">DBClass</text>
</g>
<!-- DBClass&#45;&gt;DBInstance -->
<g id="edge80" class="edge"><title>DBClass&#45;&gt;DBInstance</title>
<path fill="none" stroke="black" d="M955.364,-503.984C920.859,-454.789 824.914,-317.997 784.414,-260.254"/>
<polygon fill="black" stroke="black" points="787.239,-258.186 778.631,-252.009 781.508,-262.206 787.239,-258.186"/>
</g>
<!-- DBAllocatedStorage -->
<g id="node13" class="node"><title>DBAllocatedStorage</title>
<polygon fill="lightgrey" stroke="lightgrey" points="748,-540 618,-540 606,-528 606,-516 618,-504 748,-504 760,-516 760,-528 748,-540"/>
<path fill="lightgrey" stroke="lightgrey" d="M618,-540C612,-540 606,-534 606,-528"/>
<path fill="lightgrey" stroke="lightgrey" d="M606,-516C606,-510 612,-504 618,-504"/>
<path fill="lightgrey" stroke="lightgrey" d="M748,-504C754,-504 760,-510 760,-516"/>
<path fill="lightgrey" stroke="lightgrey" d="M760,-528C760,-534 754,-540 748,-540"/>
<polyline fill="none" stroke="black" points="748,-540 618,-540 "/>
<path fill="none" stroke="black" d="M618,-540C612,-540 606,-534 606,-528"/>
<polyline fill="none" stroke="black" points="606,-528 606,-516 "/>
<path fill="none" stroke="black" d="M606,-516C606,-510 612,-504 618,-504"/>
<polyline fill="none" stroke="black" points="618,-504 748,-504 "/>
<path fill="none" stroke="black" d="M748,-504C754,-504 760,-510 760,-516"/>
<polyline fill="none" stroke="black" points="760,-516 760,-528 "/>
<path fill="none" stroke="black" d="M760,-528C760,-534 754,-540 748,-540"/>
<text text-anchor="middle" x="683" y="-518.4" font-family="Times Roman,serif" font-size="14.00">DBAllocatedStorage</text>
</g>
<!-- DBAllocatedStorage&#45;&gt;DBInstance -->
<g id="edge78" class="edge"><title>DBAllocatedStorage&#45;&gt;DBInstance</title>
<path fill="none" stroke="black" d="M709.962,-503.779C721.5,-494.485 733.923,-482.151 741,-468 774.839,-400.343 772.806,-308.145 769.09,-262.298"/>
<polygon fill="black" stroke="black" points="772.564,-261.848 768.182,-252.202 765.592,-262.475 772.564,-261.848"/>
</g>
<!-- InstanceType -->
<g id="node14" class="node"><title>InstanceType</title>
<polygon fill="lightgrey" stroke="lightgrey" points="1380,-540 1298,-540 1286,-528 1286,-516 1298,-504 1380,-504 1392,-516 1392,-528 1380,-540"/>
<path fill="lightgrey" stroke="lightgrey" d="M1298,-540C1292,-540 1286,-534 1286,-528"/>
<path fill="lightgrey" stroke="lightgrey" d="M1286,-516C1286,-510 1292,-504 1298,-504"/>
<path fill="lightgrey" stroke="lightgrey" d="M1380,-504C1386,-504 1392,-510 1392,-516"/>
<path fill="lightgrey" stroke="lightgrey" d="M1392,-528C1392,-534 1386,-540 1380,-540"/>
<polyline fill="none" stroke="black" points="1380,-540 1298,-540 "/>
<path fill="none" stroke="black" d="M1298,-540C1292,-540 1286,-534 1286,-528"/>
<polyline fill="none" stroke="black" points="1286,-528 1286,-516 "/>
<path fill="none" stroke="black" d="M1286,-516C1286,-510 1292,-504 1298,-504"/>
<polyline fill="none" stroke="black" points="1298,-504 1380,-504 "/>
<path fill="none" stroke="black" d="M1380,-504C1386,-504 1392,-510 1392,-516"/>
<polyline fill="none" stroke="black" points="1392,-516 1392,-528 "/>
<path fill="none" stroke="black" d="M1392,-528C1392,-534 1386,-540 1380,-540"/>
<text text-anchor="middle" x="1339" y="-518.4" font-family="Times Roman,serif" font-size="14.00">InstanceType</text>
</g>
<!-- InstanceType&#45;&gt;LaunchConfig -->
<g id="edge60" class="edge"><title>InstanceType&#45;&gt;LaunchConfig</title>
<path fill="none" stroke="black" d="M1301.83,-503.989C1288.05,-494.66 1273.6,-482.238 1264,-468 1240.58,-433.269 1236,-419.891 1236,-378 1236,-378 1236,-378 1236,-306 1236,-222.857 1151.39,-240.7 1072,-216 987.853,-189.82 735.615,-172.733 615.21,-165.679"/>
<polygon fill="black" stroke="black" points="615.212,-162.174 605.026,-165.088 614.806,-169.162 615.212,-162.174"/>
</g>
<!-- InstanceType&#45;&gt;LaunchConfig -->
<g id="edge64" class="edge"><title>InstanceType&#45;&gt;LaunchConfig</title>
<path fill="none" stroke="black" d="M1318.15,-503.989C1306.05,-494.66 1291.6,-482.238 1282,-468 1258.58,-433.269 1254,-419.891 1254,-378 1254,-378 1254,-378 1254,-306 1254,-222.857 1169.39,-240.7 1090,-216 1003.51,-189.091 739.434,-171.788 615.446,-165.113"/>
<polygon fill="black" stroke="black" points="615.5,-161.611 605.328,-164.576 615.128,-168.602 615.5,-161.611"/>
</g>
<!-- SSHLocation -->
<g id="node15" class="node"><title>SSHLocation</title>
<polygon fill="lightgrey" stroke="lightgrey" points="1114,-540 1034,-540 1022,-528 1022,-516 1034,-504 1114,-504 1126,-516 1126,-528 1114,-540"/>
<path fill="lightgrey" stroke="lightgrey" d="M1034,-540C1028,-540 1022,-534 1022,-528"/>
<path fill="lightgrey" stroke="lightgrey" d="M1022,-516C1022,-510 1028,-504 1034,-504"/>
<path fill="lightgrey" stroke="lightgrey" d="M1114,-504C1120,-504 1126,-510 1126,-516"/>
<path fill="lightgrey" stroke="lightgrey" d="M1126,-528C1126,-534 1120,-540 1114,-540"/>
<polyline fill="none" stroke="black" points="1114,-540 1034,-540 "/>
<path fill="none" stroke="black" d="M1034,-540C1028,-540 1022,-534 1022,-528"/>
<polyline fill="none" stroke="black" points="1022,-528 1022,-516 "/>
<path fill="none" stroke="black" d="M1022,-516C1022,-510 1028,-504 1034,-504"/>
<polyline fill="none" stroke="black" points="1034,-504 1114,-504 "/>
<path fill="none" stroke="black" d="M1114,-504C1120,-504 1126,-510 1126,-516"/>
<polyline fill="none" stroke="black" points="1126,-516 1126,-528 "/>
<path fill="none" stroke="black" d="M1126,-528C1126,-534 1120,-540 1114,-540"/>
<text text-anchor="middle" x="1074" y="-518.4" font-family="Times Roman,serif" font-size="14.00">SSHLocation</text>
</g>
<!-- SSHLocation&#45;&gt;WebServerSecurityGroup -->
<g id="edge10" class="edge"><title>SSHLocation&#45;&gt;WebServerSecurityGroup</title>
<path fill="none" stroke="black" d="M1074,-503.762C1074,-479.201 1074,-435.247 1074,-406.354"/>
<polygon fill="black" stroke="black" points="1077.5,-406.09 1074,-396.09 1070.5,-406.09 1077.5,-406.09"/>
</g>
<!-- KeyName -->
<g id="node16" class="node"><title>KeyName</title>
<polygon fill="lightgrey" stroke="lightgrey" points="238,-540 182,-540 170,-528 170,-516 182,-504 238,-504 250,-516 250,-528 238,-540"/>
<path fill="lightgrey" stroke="lightgrey" d="M182,-540C176,-540 170,-534 170,-528"/>
<path fill="lightgrey" stroke="lightgrey" d="M170,-516C170,-510 176,-504 182,-504"/>
<path fill="lightgrey" stroke="lightgrey" d="M238,-504C244,-504 250,-510 250,-516"/>
<path fill="lightgrey" stroke="lightgrey" d="M250,-528C250,-534 244,-540 238,-540"/>
<polyline fill="none" stroke="black" points="238,-540 182,-540 "/>
<path fill="none" stroke="black" d="M182,-540C176,-540 170,-534 170,-528"/>
<polyline fill="none" stroke="black" points="170,-528 170,-516 "/>
<path fill="none" stroke="black" d="M170,-516C170,-510 176,-504 182,-504"/>
<polyline fill="none" stroke="black" points="182,-504 238,-504 "/>
<path fill="none" stroke="black" d="M238,-504C244,-504 250,-510 250,-516"/>
<polyline fill="none" stroke="black" points="250,-516 250,-528 "/>
<path fill="none" stroke="black" d="M250,-528C250,-534 244,-540 238,-540"/>
<text text-anchor="middle" x="210" y="-518.4" font-family="Times Roman,serif" font-size="14.00">KeyName</text>
</g>
<!-- KeyName&#45;&gt;LaunchConfig -->
<g id="edge56" class="edge"><title>KeyName&#45;&gt;LaunchConfig</title>
<path fill="none" stroke="black" d="M221.5,-503.696C237.088,-477.088 263,-425.685 263,-378 263,-378 263,-378 263,-306 263,-207.433 399.908,-176.329 484.606,-166.518"/>
<polygon fill="black" stroke="black" points="485.101,-169.984 494.664,-165.423 484.344,-163.026 485.101,-169.984"/>
</g>
<!-- DBPassword -->
<g id="node17" class="node"><title>DBPassword</title>
<polygon fill="lightgrey" stroke="lightgrey" points="358,-540 280,-540 268,-528 268,-516 280,-504 358,-504 370,-516 370,-528 358,-540"/>
<path fill="lightgrey" stroke="lightgrey" d="M280,-540C274,-540 268,-534 268,-528"/>
<path fill="lightgrey" stroke="lightgrey" d="M268,-516C268,-510 274,-504 280,-504"/>
<path fill="lightgrey" stroke="lightgrey" d="M358,-504C364,-504 370,-510 370,-516"/>
<path fill="lightgrey" stroke="lightgrey" d="M370,-528C370,-534 364,-540 358,-540"/>
<polyline fill="none" stroke="black" points="358,-540 280,-540 "/>
<path fill="none" stroke="black" d="M280,-540C274,-540 268,-534 268,-528"/>
<polyline fill="none" stroke="black" points="268,-528 268,-516 "/>
<path fill="none" stroke="black" d="M268,-516C268,-510 274,-504 280,-504"/>
<polyline fill="none" stroke="black" points="280,-504 358,-504 "/>
<path fill="none" stroke="black" d="M358,-504C364,-504 370,-510 370,-516"/>
<polyline fill="none" stroke="black" points="370,-516 370,-528 "/>
<path fill="none" stroke="black" d="M370,-528C370,-534 364,-540 358,-540"/>
<text text-anchor="middle" x="319" y="-518.4" font-family="Times Roman,serif" font-size="14.00">DBPassword</text>
</g>
<!-- DBPassword&#45;&gt;LaunchConfig -->
<g id="edge32" class="edge"><title>DBPassword&#45;&gt;LaunchConfig</title>
<path fill="none" stroke="black" d="M307.362,-503.815C301,-476.498 301,-423.25 301,-378 301,-378 301,-378 301,-306 301,-222.725 410.447,-185.865 484.54,-170.977"/>
<polygon fill="black" stroke="black" points="485.583,-174.341 494.745,-169.02 484.265,-167.466 485.583,-174.341"/>
</g>
<!-- DBPassword&#45;&gt;LaunchConfig -->
<g id="edge42" class="edge"><title>DBPassword&#45;&gt;LaunchConfig</title>
<path fill="none" stroke="black" d="M319,-503.815C319,-476.498 319,-423.25 319,-378 319,-378 319,-378 319,-306 319,-227.287 416.784,-190.043 485.111,-173.626"/>
<polygon fill="black" stroke="black" points="486.006,-177.011 494.963,-171.352 484.432,-170.19 486.006,-177.011"/>
</g>
<!-- DBPassword&#45;&gt;LaunchConfig -->
<g id="edge46" class="edge"><title>DBPassword&#45;&gt;LaunchConfig</title>
<path fill="none" stroke="black" d="M330.638,-503.815C337,-476.498 337,-423.25 337,-378 337,-378 337,-378 337,-306 337,-232.544 422.158,-195.203 485.036,-177.2"/>
<polygon fill="black" stroke="black" points="486.21,-180.507 494.919,-174.474 484.349,-173.759 486.21,-180.507"/>
</g>
<!-- DBPassword&#45;&gt;DBInstance -->
<g id="edge76" class="edge"><title>DBPassword&#45;&gt;DBInstance</title>
<path fill="none" stroke="black" d="M358.264,-503.944C406.618,-481.116 490.621,-439.516 558,-396 625.665,-352.3 698.593,-292.126 737.572,-258.779"/>
<polygon fill="black" stroke="black" points="740.057,-261.258 745.36,-252.086 735.495,-255.949 740.057,-261.258"/>
</g>
<!-- MultiAZDatabase -->
<g id="node18" class="node"><title>MultiAZDatabase</title>
<polygon fill="lightgrey" stroke="lightgrey" points="902,-540 790,-540 778,-528 778,-516 790,-504 902,-504 914,-516 914,-528 902,-540"/>
<path fill="lightgrey" stroke="lightgrey" d="M790,-540C784,-540 778,-534 778,-528"/>
<path fill="lightgrey" stroke="lightgrey" d="M778,-516C778,-510 784,-504 790,-504"/>
<path fill="lightgrey" stroke="lightgrey" d="M902,-504C908,-504 914,-510 914,-516"/>
<path fill="lightgrey" stroke="lightgrey" d="M914,-528C914,-534 908,-540 902,-540"/>
<polyline fill="none" stroke="black" points="902,-540 790,-540 "/>
<path fill="none" stroke="black" d="M790,-540C784,-540 778,-534 778,-528"/>
<polyline fill="none" stroke="black" points="778,-528 778,-516 "/>
<path fill="none" stroke="black" d="M778,-516C778,-510 784,-504 790,-504"/>
<polyline fill="none" stroke="black" points="790,-504 902,-504 "/>
<path fill="none" stroke="black" d="M902,-504C908,-504 914,-510 914,-516"/>
<polyline fill="none" stroke="black" points="914,-516 914,-528 "/>
<path fill="none" stroke="black" d="M914,-528C914,-534 908,-540 902,-540"/>
<text text-anchor="middle" x="846" y="-518.4" font-family="Times Roman,serif" font-size="14.00">MultiAZDatabase</text>
</g>
<!-- MultiAZDatabase&#45;&gt;DBInstance -->
<g id="edge70" class="edge"><title>MultiAZDatabase&#45;&gt;DBInstance</title>
<path fill="none" stroke="black" d="M840.996,-503.984C827.442,-455.193 789.955,-320.238 773.692,-261.693"/>
<polygon fill="black" stroke="black" points="777.051,-260.707 771.002,-252.009 770.307,-262.581 777.051,-260.707"/>
</g>
<!-- DBName -->
<g id="node19" class="node"><title>DBName</title>
<polygon fill="lightgrey" stroke="lightgrey" points="452,-540 400,-540 388,-528 388,-516 400,-504 452,-504 464,-516 464,-528 452,-540"/>
<path fill="lightgrey" stroke="lightgrey" d="M400,-540C394,-540 388,-534 388,-528"/>
<path fill="lightgrey" stroke="lightgrey" d="M388,-516C388,-510 394,-504 400,-504"/>
<path fill="lightgrey" stroke="lightgrey" d="M452,-504C458,-504 464,-510 464,-516"/>
<path fill="lightgrey" stroke="lightgrey" d="M464,-528C464,-534 458,-540 452,-540"/>
<polyline fill="none" stroke="black" points="452,-540 400,-540 "/>
<path fill="none" stroke="black" d="M400,-540C394,-540 388,-534 388,-528"/>
<polyline fill="none" stroke="black" points="388,-528 388,-516 "/>
<path fill="none" stroke="black" d="M388,-516C388,-510 394,-504 400,-504"/>
<polyline fill="none" stroke="black" points="400,-504 452,-504 "/>
<path fill="none" stroke="black" d="M452,-504C458,-504 464,-510 464,-516"/>
<polyline fill="none" stroke="black" points="464,-516 464,-528 "/>
<path fill="none" stroke="black" d="M464,-528C464,-534 458,-540 452,-540"/>
<text text-anchor="middle" x="426" y="-518.4" font-family="Times Roman,serif" font-size="14.00">DBName</text>
</g>
<!-- DBName&#45;&gt;LaunchConfig -->
<g id="edge24" class="edge"><title>DBName&#45;&gt;LaunchConfig</title>
<path fill="none" stroke="black" d="M407.259,-503.668C391.315,-476.603 375,-424.167 375,-378 375,-378 375,-378 375,-306 375,-247.331 435.28,-206.08 485.419,-183.187"/>
<polygon fill="black" stroke="black" points="486.903,-186.358 494.646,-179.127 484.084,-179.951 486.903,-186.358"/>
</g>
<!-- DBName&#45;&gt;LaunchConfig -->
<g id="edge34" class="edge"><title>DBName&#45;&gt;LaunchConfig</title>
<path fill="none" stroke="black" d="M419.002,-503.668C409.315,-476.603 393,-424.167 393,-378 393,-378 393,-378 393,-306 393,-248.561 450.779,-207.818 496.234,-184.652"/>
<polygon fill="black" stroke="black" points="498.011,-187.678 505.43,-180.114 494.914,-181.4 498.011,-187.678"/>
</g>
<!-- DBName&#45;&gt;LaunchConfig -->
<g id="edge52" class="edge"><title>DBName&#45;&gt;LaunchConfig</title>
<path fill="none" stroke="black" d="M430.744,-503.668C427.315,-476.603 411,-424.167 411,-378 411,-378 411,-378 411,-306 411,-248.801 468.297,-208.158 509.695,-184.943"/>
<polygon fill="black" stroke="black" points="511.429,-187.984 518.522,-180.114 508.069,-181.843 511.429,-187.984"/>
</g>
<!-- DBName&#45;&gt;DBInstance -->
<g id="edge82" class="edge"><title>DBName&#45;&gt;DBInstance</title>
<path fill="none" stroke="black" d="M464.138,-507.139C467.128,-506.052 470.108,-504.994 473,-504 524.856,-486.184 546.133,-499.518 591,-468 670.194,-412.367 728.543,-309.695 753.133,-260.992"/>
<polygon fill="black" stroke="black" points="756.285,-262.514 757.597,-252 750.015,-259.401 756.285,-262.514"/>
</g>
<!-- WebServerCapacity -->
<g id="node20" class="node"><title>WebServerCapacity</title>
<polygon fill="lightgrey" stroke="lightgrey" points="140,-540 12,-540 4.73695e-14,-528 2.36848e-14,-516 12,-504 140,-504 152,-516 152,-528 140,-540"/>
<path fill="lightgrey" stroke="lightgrey" d="M12,-540C6,-540 5.92119e-14,-534 4.73695e-14,-528"/>
<path fill="lightgrey" stroke="lightgrey" d="M2.36848e-14,-516C1.18424e-14,-510 6,-504 12,-504"/>
<path fill="lightgrey" stroke="lightgrey" d="M140,-504C146,-504 152,-510 152,-516"/>
<path fill="lightgrey" stroke="lightgrey" d="M152,-528C152,-534 146,-540 140,-540"/>
<polyline fill="none" stroke="black" points="140,-540 12,-540 "/>
<path fill="none" stroke="black" d="M12,-540C6,-540 5.92119e-14,-534 4.73695e-14,-528"/>
<polyline fill="none" stroke="black" points="4.73695e-14,-528 2.36848e-14,-516 "/>
<path fill="none" stroke="black" d="M2.36848e-14,-516C1.18424e-14,-510 6,-504 12,-504"/>
<polyline fill="none" stroke="black" points="12,-504 140,-504 "/>
<path fill="none" stroke="black" d="M140,-504C146,-504 152,-510 152,-516"/>
<polyline fill="none" stroke="black" points="152,-516 152,-528 "/>
<path fill="none" stroke="black" d="M152,-528C152,-534 146,-540 140,-540"/>
<text text-anchor="middle" x="76" y="-518.4" font-family="Times Roman,serif" font-size="14.00">WebServerCapacity</text>
</g>
<!-- WebServerCapacity&#45;&gt;WebServerGroup -->
<g id="edge12" class="edge"><title>WebServerCapacity&#45;&gt;WebServerGroup</title>
<path fill="none" stroke="black" d="M76,-503.815C76,-476.498 76,-423.25 76,-378 76,-378 76,-378 76,-234 76,-152.326 336.899,-112.58 471.573,-97.5039"/>
<polygon fill="black" stroke="black" points="472.278,-100.948 481.835,-96.3755 471.512,-93.9896 472.278,-100.948"/>
</g>
<!-- AWS::StackId -->
<g id="node32" class="node"><title>AWS::StackId</title>
<polygon fill="none" stroke="black" points="549,-396 439,-396 439,-360 549,-360 549,-396"/>
<text text-anchor="middle" x="494" y="-374.4" font-family="Times Roman,serif" font-size="14.00">AWS::StackId</text>
</g>
<!-- AWS::StackId&#45;&gt;LaunchConfig -->
<g id="edge20" class="edge"><title>AWS::StackId&#45;&gt;LaunchConfig</title>
<path fill="none" stroke="black" d="M494.415,-359.958C495.609,-329.451 500.218,-266.106 518,-216 521.319,-206.648 526.326,-197.116 531.4,-188.717"/>
<polygon fill="black" stroke="black" points="534.458,-190.428 536.855,-180.108 528.546,-186.681 534.458,-190.428"/>
</g>
<!-- AWS::Region -->
<g id="node34" class="node"><title>AWS::Region</title>
<polygon fill="none" stroke="black" points="700,-252 596,-252 596,-216 700,-216 700,-252"/>
<text text-anchor="middle" x="648" y="-230.4" font-family="Times Roman,serif" font-size="14.00">AWS::Region</text>
</g>
<!-- AWS::Region&#45;&gt;LaunchConfig -->
<g id="edge62" class="edge"><title>AWS::Region&#45;&gt;LaunchConfig</title>
<path fill="none" stroke="black" d="M617.318,-215.831C604.383,-206.963 589.522,-196.164 577.007,-186.572"/>
<polygon fill="black" stroke="black" points="578.812,-183.541 568.77,-180.163 574.513,-189.066 578.812,-183.541"/>
</g>
<!-- AWS::Region&#45;&gt;LaunchConfig -->
<g id="edge22" class="edge"><title>AWS::Region&#45;&gt;LaunchConfig</title>
<path fill="none" stroke="black" d="M629.223,-215.831C617.801,-206.793 602.919,-195.748 589.1,-186.02"/>
<polygon fill="black" stroke="black" points="590.882,-182.996 580.673,-180.163 586.887,-188.744 590.882,-182.996"/>
</g>
</g>
</svg>
