<?xml version="1.0" encoding="UTF-8" standalone="no"?>
<!DOCTYPE svg PUBLIC "-//W3C//DTD SVG 1.1//EN"
 "http://www.w3.org/Graphics/SVG/1.1/DTD/svg11.dtd">
<!-- Generated by graphviz version 2.26.3 (20100126.1600)
 -->
<!-- Title: AWS CloudFormation Sample Template Joomla!_Single_Instance_With_RDS: Joomla! is a free, open&#45;source content management system (CMS) and application framework. This template installs a single&#45;instance Joomla! deployment using an Amazon RDS database instance for storage. It demonstrates using the AWS CloudFormation bootstrap scripts to install packages and files at instance launch time. **WARNING** This template creates an Amazon EC2 instance and an Amazon RDS database instance. You will be billed for the AWS resources used if you create a stack from this template. Pages: 1 -->
<svg width="1114pt" height="404pt"
 viewBox="0.00 0.00 1114.00 404.00" xmlns="http://www.w3.org/2000/svg" xmlns:xlink="http://www.w3.org/1999/xlink">
<g id="graph1" class="graph" transform="scale(1 1) rotate(0) translate(4 400)">
<title>AWS CloudFormation Sample Template Joomla!_Single_Instance_With_RDS: Joomla! is a free, open&#45;source content management system (CMS) and application framework. This template installs a single&#45;instance Joomla! deployment using an Amazon RDS database instance for storage. It demonstrates using the AWS CloudFormation bootstrap scripts to install packages and files at instance launch time. **WARNING** This template creates an Amazon EC2 instance and an Amazon RDS database instance. You will be billed for the AWS resources used if you create a stack from this template.</title>
<polygon fill="white" stroke="white" points="-4,5 -4,-400 1111,-400 1111,5 -4,5"/>
<!-- DBSecurityGroup -->
<g id="node1" class="node"><title>DBSecurityGroup</title>
<polygon fill="none" stroke="black" points="471,-252 335,-252 335,-216 471,-216 471,-252"/>
<text text-anchor="middle" x="403" y="-230.4" font-family="Times Roman,serif" font-size="14.00">DBSecurityGroup</text>
</g>
<!-- DBInstance -->
<g id="node5" class="node"><title>DBInstance</title>
<polygon fill="none" stroke="black" points="451,-180 355,-180 355,-144 451,-144 451,-180"/>
<text text-anchor="middle" x="403" y="-158.4" font-family="Times Roman,serif" font-size="14.00">DBInstance</text>
</g>
<!-- DBSecurityGroup&#45;&gt;DBInstance -->
<g id="edge60" class="edge"><title>DBSecurityGroup&#45;&gt;DBInstance</title>
<path fill="none" stroke="black" d="M403,-215.831C403,-208.131 403,-198.974 403,-190.417"/>
<polygon fill="black" stroke="black" points="406.5,-190.413 403,-180.413 399.5,-190.413 406.5,-190.413"/>
</g>
<!-- WebServerSecurityGroup -->
<g id="node2" class="node"><title>WebServerSecurityGroup</title>
<polygon fill="none" stroke="black" points="595,-324 403,-324 403,-288 595,-288 595,-324"/>
<text text-anchor="middle" x="499" y="-302.4" font-family="Times Roman,serif" font-size="14.00">WebServerSecurityGroup</text>
</g>
<!-- WebServerSecurityGroup&#45;&gt;DBSecurityGroup -->
<g id="edge4" class="edge"><title>WebServerSecurityGroup&#45;&gt;DBSecurityGroup</title>
<path fill="none" stroke="black" d="M474.775,-287.831C462.837,-278.878 448.274,-267.956 435.394,-258.295"/>
<polygon fill="black" stroke="black" points="437.317,-255.363 427.217,-252.163 433.117,-260.963 437.317,-255.363"/>
</g>
<!-- WebServer -->
<g id="node3" class="node"><title>WebServer</title>
<polygon fill="none" stroke="black" points="525,-108 433,-108 433,-72 525,-72 525,-108"/>
<text text-anchor="middle" x="479" y="-86.4" font-family="Times Roman,serif" font-size="14.00">WebServer</text>
</g>
<!-- WebServerSecurityGroup&#45;&gt;WebServer -->
<g id="edge48" class="edge"><title>WebServerSecurityGroup&#45;&gt;WebServer</title>
<path fill="none" stroke="black" d="M497.329,-287.955C493.844,-250.314 485.777,-163.187 481.604,-118.125"/>
<polygon fill="black" stroke="black" points="485.087,-117.78 480.68,-108.145 478.117,-118.425 485.087,-117.78"/>
</g>
<!-- WebsiteURL -->
<g id="node18" class="node"><title>WebsiteURL</title>
<polygon fill="lightgrey" stroke="lightgrey" points="461,-36 385,-36 373,-24 373,-12 385,-1.60583e-14 461,-5.25802e-15 473,-12 473,-24 461,-36"/>
<path fill="lightgrey" stroke="lightgrey" d="M385,-36C379,-36 373,-30 373,-24"/>
<path fill="lightgrey" stroke="lightgrey" d="M373,-12C373,-6 379,-1.69109e-14 385,-1.60583e-14"/>
<path fill="lightgrey" stroke="lightgrey" d="M461,-5.25802e-15C467,-4.40536e-15 473,-6 473,-12"/>
<path fill="lightgrey" stroke="lightgrey" d="M473,-24C473,-30 467,-36 461,-36"/>
<polyline fill="none" stroke="black" points="461,-36 385,-36 "/>
<path fill="none" stroke="black" d="M385,-36C379,-36 373,-30 373,-24"/>
<polyline fill="none" stroke="black" points="373,-24 373,-12 "/>
<path fill="none" stroke="black" d="M373,-12C373,-6 379,-1.69109e-14 385,-1.60583e-14"/>
<polyline fill="none" stroke="black" points="385,-1.60583e-14 461,-5.25802e-15 "/>
<path fill="none" stroke="black" d="M461,-5.25802e-15C467,-4.40536e-15 473,-6 473,-12"/>
<polyline fill="none" stroke="black" points="473,-12 473,-24 "/>
<path fill="none" stroke="black" d="M473,-24C473,-30 467,-36 461,-36"/>
<text text-anchor="middle" x="423" y="-14.4" font-family="Times Roman,serif" font-size="14.00">WebsiteURL</text>
</g>
<!-- WebServer&#45;&gt;WebsiteURL -->
<g id="edge72" class="edge"><title>WebServer&#45;&gt;WebsiteURL</title>
<path fill="none" stroke="black" d="M464.869,-71.8314C458.419,-63.5386 450.655,-53.557 443.575,-44.4533"/>
<polygon fill="black" stroke="black" points="446.224,-42.158 437.321,-36.4133 440.698,-46.4556 446.224,-42.158"/>
</g>
<!-- AdminURL -->
<g id="node19" class="node"><title>AdminURL</title>
<polygon fill="lightgrey" stroke="lightgrey" points="567,-36 503,-36 491,-24 491,-12 503,-1.58257e-14 567,-5.49056e-15 579,-12 579,-24 567,-36"/>
<path fill="lightgrey" stroke="lightgrey" d="M503,-36C497,-36 491,-30 491,-24"/>
<path fill="lightgrey" stroke="lightgrey" d="M491,-12C491,-6 497,-1.67946e-14 503,-1.58257e-14"/>
<path fill="lightgrey" stroke="lightgrey" d="M567,-5.49056e-15C573,-4.52164e-15 579,-6 579,-12"/>
<path fill="lightgrey" stroke="lightgrey" d="M579,-24C579,-30 573,-36 567,-36"/>
<polyline fill="none" stroke="black" points="567,-36 503,-36 "/>
<path fill="none" stroke="black" d="M503,-36C497,-36 491,-30 491,-24"/>
<polyline fill="none" stroke="black" points="491,-24 491,-12 "/>
<path fill="none" stroke="black" d="M491,-12C491,-6 497,-1.67946e-14 503,-1.58257e-14"/>
<polyline fill="none" stroke="black" points="503,-1.58257e-14 567,-5.49056e-15 "/>
<path fill="none" stroke="black" d="M567,-5.49056e-15C573,-4.52164e-15 579,-6 579,-12"/>
<polyline fill="none" stroke="black" points="579,-12 579,-24 "/>
<path fill="none" stroke="black" d="M579,-24C579,-30 573,-36 567,-36"/>
<text text-anchor="middle" x="535" y="-14.4" font-family="Times Roman,serif" font-size="14.00">AdminURL</text>
</g>
<!-- WebServer&#45;&gt;AdminURL -->
<g id="edge74" class="edge"><title>WebServer&#45;&gt;AdminURL</title>
<path fill="none" stroke="black" d="M493.131,-71.8314C499.581,-63.5386 507.345,-53.557 514.425,-44.4533"/>
<polygon fill="black" stroke="black" points="517.302,-46.4556 520.679,-36.4133 511.776,-42.158 517.302,-46.4556"/>
</g>
<!-- WaitCondition -->
<g id="node4" class="node"><title>WaitCondition</title>
<polygon fill="none" stroke="black" points="1106,-108 992,-108 992,-72 1106,-72 1106,-108"/>
<text text-anchor="middle" x="1049" y="-86.4" font-family="Times Roman,serif" font-size="14.00">WaitCondition</text>
</g>
<!-- DBInstance&#45;&gt;WebServer -->
<g id="edge26" class="edge"><title>DBInstance&#45;&gt;WebServer</title>
<path fill="none" stroke="black" d="M392.416,-143.831C397.878,-134.22 409.86,-122.34 424.143,-112.187"/>
<polygon fill="black" stroke="black" points="426.398,-114.891 432.787,-106.439 422.522,-109.062 426.398,-114.891"/>
</g>
<!-- DBInstance&#45;&gt;WebServer -->
<g id="edge28" class="edge"><title>DBInstance&#45;&gt;WebServer</title>
<path fill="none" stroke="black" d="M428.13,-143.831C437.985,-135.285 449.08,-124.944 458.451,-115.62"/>
<polygon fill="black" stroke="black" points="461.022,-117.997 465.54,-108.413 456.032,-113.088 461.022,-117.997"/>
</g>
<!-- DBInstance&#45;&gt;WebServer -->
<g id="edge38" class="edge"><title>DBInstance&#45;&gt;WebServer</title>
<path fill="none" stroke="black" d="M440.035,-143.831C451.327,-135.454 462.558,-125.353 470.935,-116.175"/>
<polygon fill="black" stroke="black" points="473.712,-118.311 477.492,-108.413 468.365,-113.794 473.712,-118.311"/>
</g>
<!-- DBInstance&#45;&gt;WebServer -->
<g id="edge40" class="edge"><title>DBInstance&#45;&gt;WebServer</title>
<path fill="none" stroke="black" d="M451.077,-144.387C464.239,-135.972 476.114,-125.725 483.79,-116.404"/>
<polygon fill="black" stroke="black" points="486.683,-118.375 489.576,-108.183 480.958,-114.347 486.683,-118.375"/>
</g>
<!-- DBInstance&#45;&gt;WebServer -->
<g id="edge16" class="edge"><title>DBInstance&#45;&gt;WebServer</title>
<path fill="none" stroke="black" d="M404.321,-143.831C411.089,-134.963 422.003,-124.164 433.749,-114.572"/>
<polygon fill="black" stroke="black" points="436.236,-117.07 441.973,-108.163 431.934,-111.549 436.236,-117.07"/>
</g>
<!-- DBInstance&#45;&gt;WebServer -->
<g id="edge18" class="edge"><title>DBInstance&#45;&gt;WebServer</title>
<path fill="none" stroke="black" d="M416.226,-143.831C424.641,-135.048 435.744,-124.371 446.317,-114.849"/>
<polygon fill="black" stroke="black" points="448.705,-117.41 453.876,-108.163 444.067,-112.166 448.705,-117.41"/>
</g>
<!-- WaitHandle -->
<g id="node6" class="node"><title>WaitHandle</title>
<polygon fill="none" stroke="black" points="1097,-180 1001,-180 1001,-144 1097,-144 1097,-180"/>
<text text-anchor="middle" x="1049" y="-158.4" font-family="Times Roman,serif" font-size="14.00">WaitHandle</text>
</g>
<!-- WaitHandle&#45;&gt;WebServer -->
<g id="edge8" class="edge"><title>WaitHandle&#45;&gt;WebServer</title>
<path fill="none" stroke="black" d="M1000.73,-149.424C993.127,-147.373 985.368,-145.449 978,-144 819.049,-112.733 628.312,-98.5938 535.333,-93.0583"/>
<polygon fill="black" stroke="black" points="535.482,-89.5612 525.295,-92.4716 535.074,-96.5492 535.482,-89.5612"/>
</g>
<!-- WaitHandle&#45;&gt;WebServer -->
<g id="edge44" class="edge"><title>WaitHandle&#45;&gt;WebServer</title>
<path fill="none" stroke="black" d="M1001,-145.041C999.319,-144.673 997.65,-144.324 996,-144 830.59,-111.463 630.76,-97.473 535.124,-92.4256"/>
<polygon fill="black" stroke="black" points="535.259,-88.928 525.092,-91.909 534.899,-95.9187 535.259,-88.928"/>
</g>
<!-- WaitHandle&#45;&gt;WaitCondition -->
<g id="edge58" class="edge"><title>WaitHandle&#45;&gt;WaitCondition</title>
<path fill="none" stroke="black" d="M1049,-143.831C1049,-136.131 1049,-126.974 1049,-118.417"/>
<polygon fill="black" stroke="black" points="1052.5,-118.413 1049,-108.413 1045.5,-118.413 1052.5,-118.413"/>
</g>
<!-- DBUsername -->
<g id="node8" class="node"><title>DBUsername</title>
<polygon fill="lightgrey" stroke="lightgrey" points="958,-396 876,-396 864,-384 864,-372 876,-360 958,-360 970,-372 970,-384 958,-396"/>
<path fill="lightgrey" stroke="lightgrey" d="M876,-396C870,-396 864,-390 864,-384"/>
<path fill="lightgrey" stroke="lightgrey" d="M864,-372C864,-366 870,-360 876,-360"/>
<path fill="lightgrey" stroke="lightgrey" d="M958,-360C964,-360 970,-366 970,-372"/>
<path fill="lightgrey" stroke="lightgrey" d="M970,-384C970,-390 964,-396 958,-396"/>
<polyline fill="none" stroke="black" points="958,-396 876,-396 "/>
<path fill="none" stroke="black" d="M876,-396C870,-396 864,-390 864,-384"/>
<polyline fill="none" stroke="black" points="864,-384 864,-372 "/>
<path fill="none" stroke="black" d="M864,-372C864,-366 870,-360 876,-360"/>
<polyline fill="none" stroke="black" points="876,-360 958,-360 "/>
<path fill="none" stroke="black" d="M958,-360C964,-360 970,-366 970,-372"/>
<polyline fill="none" stroke="black" points="970,-372 970,-384 "/>
<path fill="none" stroke="black" d="M970,-384C970,-390 964,-396 958,-396"/>
<text text-anchor="middle" x="917" y="-374.4" font-family="Times Roman,serif" font-size="14.00">DBUsername</text>
</g>
<!-- DBUsername&#45;&gt;WebServer -->
<g id="edge30" class="edge"><title>DBUsername&#45;&gt;WebServer</title>
<path fill="none" stroke="black" d="M906.846,-359.963C899.441,-327.771 895.085,-259.703 862,-216 821.664,-162.72 792.804,-166.835 730,-144 664.949,-120.348 587.076,-106.149 535.188,-98.2909"/>
<polygon fill="black" stroke="black" points="535.574,-94.8099 525.168,-96.803 534.546,-101.734 535.574,-94.8099"/>
</g>
<!-- DBUsername&#45;&gt;WebServer -->
<g id="edge34" class="edge"><title>DBUsername&#45;&gt;WebServer</title>
<path fill="none" stroke="black" d="M928.128,-359.963C935.441,-327.771 931.085,-259.703 898,-216 857.664,-162.72 828.804,-166.835 766,-144 689.193,-116.074 594.51,-101.325 534.993,-94.6337"/>
<polygon fill="black" stroke="black" points="535.346,-91.1516 525.027,-93.5524 534.591,-98.1107 535.346,-91.1516"/>
</g>
<!-- DBUsername&#45;&gt;WebServer -->
<g id="edge20" class="edge"><title>DBUsername&#45;&gt;WebServer</title>
<path fill="none" stroke="black" d="M917.487,-359.963C917.441,-327.771 913.085,-259.703 880,-216 839.664,-162.72 810.804,-166.835 748,-144 676.989,-118.181 590.698,-103.626 535.327,-96.2883"/>
<polygon fill="black" stroke="black" points="535.725,-92.8107 525.359,-95.0012 534.828,-99.753 535.725,-92.8107"/>
</g>
<!-- DBUsername&#45;&gt;DBInstance -->
<g id="edge62" class="edge"><title>DBUsername&#45;&gt;DBInstance</title>
<path fill="none" stroke="black" d="M874.061,-359.955C780.332,-320.567 557.658,-226.992 455.664,-184.131"/>
<polygon fill="black" stroke="black" points="456.754,-180.793 446.179,-180.145 454.042,-187.246 456.754,-180.793"/>
</g>
<!-- AdminPassword -->
<g id="node9" class="node"><title>AdminPassword</title>
<polygon fill="lightgrey" stroke="lightgrey" points="710,-396 610,-396 598,-384 598,-372 610,-360 710,-360 722,-372 722,-384 710,-396"/>
<path fill="lightgrey" stroke="lightgrey" d="M610,-396C604,-396 598,-390 598,-384"/>
<path fill="lightgrey" stroke="lightgrey" d="M598,-372C598,-366 604,-360 610,-360"/>
<path fill="lightgrey" stroke="lightgrey" d="M710,-360C716,-360 722,-366 722,-372"/>
<path fill="lightgrey" stroke="lightgrey" d="M722,-384C722,-390 716,-396 710,-396"/>
<polyline fill="none" stroke="black" points="710,-396 610,-396 "/>
<path fill="none" stroke="black" d="M610,-396C604,-396 598,-390 598,-384"/>
<polyline fill="none" stroke="black" points="598,-384 598,-372 "/>
<path fill="none" stroke="black" d="M598,-372C598,-366 604,-360 610,-360"/>
<polyline fill="none" stroke="black" points="610,-360 710,-360 "/>
<path fill="none" stroke="black" d="M710,-360C716,-360 722,-366 722,-372"/>
<polyline fill="none" stroke="black" points="722,-372 722,-384 "/>
<path fill="none" stroke="black" d="M722,-384C722,-390 716,-396 710,-396"/>
<text text-anchor="middle" x="660" y="-374.4" font-family="Times Roman,serif" font-size="14.00">AdminPassword</text>
</g>
<!-- AdminPassword&#45;&gt;WebServer -->
<g id="edge56" class="edge"><title>AdminPassword&#45;&gt;WebServer</title>
<path fill="none" stroke="black" d="M659.176,-359.9C656.603,-310.902 647.19,-177.135 620,-144 599.085,-118.512 564.684,-105.034 535.098,-97.9176"/>
<polygon fill="black" stroke="black" points="535.796,-94.4874 525.275,-95.7398 534.281,-101.321 535.796,-94.4874"/>
</g>
<!-- DBClass -->
<g id="node10" class="node"><title>DBClass</title>
<polygon fill="lightgrey" stroke="lightgrey" points="274,-396 226,-396 214,-384 214,-372 226,-360 274,-360 286,-372 286,-384 274,-396"/>
<path fill="lightgrey" stroke="lightgrey" d="M226,-396C220,-396 214,-390 214,-384"/>
<path fill="lightgrey" stroke="lightgrey" d="M214,-372C214,-366 220,-360 226,-360"/>
<path fill="lightgrey" stroke="lightgrey" d="M274,-360C280,-360 286,-366 286,-372"/>
<path fill="lightgrey" stroke="lightgrey" d="M286,-384C286,-390 280,-396 274,-396"/>
<polyline fill="none" stroke="black" points="274,-396 226,-396 "/>
<path fill="none" stroke="black" d="M226,-396C220,-396 214,-390 214,-384"/>
<polyline fill="none" stroke="black" points="214,-384 214,-372 "/>
<path fill="none" stroke="black" d="M214,-372C214,-366 220,-360 226,-360"/>
<polyline fill="none" stroke="black" points="226,-360 274,-360 "/>
<path fill="none" stroke="black" d="M274,-360C280,-360 286,-366 286,-372"/>
<polyline fill="none" stroke="black" points="286,-372 286,-384 "/>
<path fill="none" stroke="black" d="M286,-384C286,-390 280,-396 274,-396"/>
<text text-anchor="middle" x="250" y="-374.4" font-family="Times Roman,serif" font-size="14.00">DBClass</text>
</g>
<!-- DBClass&#45;&gt;DBInstance -->
<g id="edge68" class="edge"><title>DBClass&#45;&gt;DBInstance</title>
<path fill="none" stroke="black" d="M253.032,-359.989C259.237,-327.836 276.035,-259.83 313,-216 323.408,-203.66 337.39,-193.393 351.228,-185.243"/>
<polygon fill="black" stroke="black" points="353.24,-188.128 360.26,-180.193 349.824,-182.018 353.24,-188.128"/>
</g>
<!-- DBAllocatedStorage -->
<g id="node11" class="node"><title>DBAllocatedStorage</title>
<polygon fill="lightgrey" stroke="lightgrey" points="446,-396 316,-396 304,-384 304,-372 316,-360 446,-360 458,-372 458,-384 446,-396"/>
<path fill="lightgrey" stroke="lightgrey" d="M316,-396C310,-396 304,-390 304,-384"/>
<path fill="lightgrey" stroke="lightgrey" d="M304,-372C304,-366 310,-360 316,-360"/>
<path fill="lightgrey" stroke="lightgrey" d="M446,-360C452,-360 458,-366 458,-372"/>
<path fill="lightgrey" stroke="lightgrey" d="M458,-384C458,-390 452,-396 446,-396"/>
<polyline fill="none" stroke="black" points="446,-396 316,-396 "/>
<path fill="none" stroke="black" d="M316,-396C310,-396 304,-390 304,-384"/>
<polyline fill="none" stroke="black" points="304,-384 304,-372 "/>
<path fill="none" stroke="black" d="M304,-372C304,-366 310,-360 316,-360"/>
<polyline fill="none" stroke="black" points="316,-360 446,-360 "/>
<path fill="none" stroke="black" d="M446,-360C452,-360 458,-366 458,-372"/>
<polyline fill="none" stroke="black" points="458,-372 458,-384 "/>
<path fill="none" stroke="black" d="M458,-384C458,-390 452,-396 446,-396"/>
<text text-anchor="middle" x="381" y="-374.4" font-family="Times Roman,serif" font-size="14.00">DBAllocatedStorage</text>
</g>
<!-- DBAllocatedStorage&#45;&gt;DBInstance -->
<g id="edge66" class="edge"><title>DBAllocatedStorage&#45;&gt;DBInstance</title>
<path fill="none" stroke="black" d="M365.582,-359.777C341.532,-329.004 300.371,-265.276 326,-216 332.364,-203.764 342.911,-193.724 354.188,-185.762"/>
<polygon fill="black" stroke="black" points="356.437,-188.475 362.897,-180.077 352.61,-182.613 356.437,-188.475"/>
</g>
<!-- InstanceType -->
<g id="node12" class="node"><title>InstanceType</title>
<polygon fill="lightgrey" stroke="lightgrey" points="834,-396 752,-396 740,-384 740,-372 752,-360 834,-360 846,-372 846,-384 834,-396"/>
<path fill="lightgrey" stroke="lightgrey" d="M752,-396C746,-396 740,-390 740,-384"/>
<path fill="lightgrey" stroke="lightgrey" d="M740,-372C740,-366 746,-360 752,-360"/>
<path fill="lightgrey" stroke="lightgrey" d="M834,-360C840,-360 846,-366 846,-372"/>
<path fill="lightgrey" stroke="lightgrey" d="M846,-384C846,-390 840,-396 834,-396"/>
<polyline fill="none" stroke="black" points="834,-396 752,-396 "/>
<path fill="none" stroke="black" d="M752,-396C746,-396 740,-390 740,-384"/>
<polyline fill="none" stroke="black" points="740,-384 740,-372 "/>
<path fill="none" stroke="black" d="M740,-372C740,-366 746,-360 752,-360"/>
<polyline fill="none" stroke="black" points="752,-360 834,-360 "/>
<path fill="none" stroke="black" d="M834,-360C840,-360 846,-366 846,-372"/>
<polyline fill="none" stroke="black" points="846,-372 846,-384 "/>
<path fill="none" stroke="black" d="M846,-384C846,-390 840,-396 834,-396"/>
<text text-anchor="middle" x="793" y="-374.4" font-family="Times Roman,serif" font-size="14.00">InstanceType</text>
</g>
<!-- InstanceType&#45;&gt;WebServer -->
<g id="edge50" class="edge"><title>InstanceType&#45;&gt;WebServer</title>
<path fill="none" stroke="black" d="M781.643,-359.799C759.789,-316.048 709.794,-204.157 632,-144 603.643,-122.072 565.933,-108.811 534.98,-100.922"/>
<polygon fill="black" stroke="black" points="535.731,-97.5032 525.188,-98.5456 534.08,-104.306 535.731,-97.5032"/>
</g>
<!-- InstanceType&#45;&gt;WebServer -->
<g id="edge54" class="edge"><title>InstanceType&#45;&gt;WebServer</title>
<path fill="none" stroke="black" d="M790.668,-359.799C777.789,-316.048 727.794,-204.157 650,-144 616.88,-118.389 571.002,-104.601 535.009,-97.3863"/>
<polygon fill="black" stroke="black" points="535.615,-93.9388 525.139,-95.5212 534.315,-100.817 535.615,-93.9388"/>
</g>
<!-- SSHLocation -->
<g id="node13" class="node"><title>SSHLocation</title>
<polygon fill="lightgrey" stroke="lightgrey" points="568,-396 488,-396 476,-384 476,-372 488,-360 568,-360 580,-372 580,-384 568,-396"/>
<path fill="lightgrey" stroke="lightgrey" d="M488,-396C482,-396 476,-390 476,-384"/>
<path fill="lightgrey" stroke="lightgrey" d="M476,-372C476,-366 482,-360 488,-360"/>
<path fill="lightgrey" stroke="lightgrey" d="M568,-360C574,-360 580,-366 580,-372"/>
<path fill="lightgrey" stroke="lightgrey" d="M580,-384C580,-390 574,-396 568,-396"/>
<polyline fill="none" stroke="black" points="568,-396 488,-396 "/>
<path fill="none" stroke="black" d="M488,-396C482,-396 476,-390 476,-384"/>
<polyline fill="none" stroke="black" points="476,-384 476,-372 "/>
<path fill="none" stroke="black" d="M476,-372C476,-366 482,-360 488,-360"/>
<polyline fill="none" stroke="black" points="488,-360 568,-360 "/>
<path fill="none" stroke="black" d="M568,-360C574,-360 580,-366 580,-372"/>
<polyline fill="none" stroke="black" points="580,-372 580,-384 "/>
<path fill="none" stroke="black" d="M580,-384C580,-390 574,-396 568,-396"/>
<text text-anchor="middle" x="528" y="-374.4" font-family="Times Roman,serif" font-size="14.00">SSHLocation</text>
</g>
<!-- SSHLocation&#45;&gt;WebServerSecurityGroup -->
<g id="edge6" class="edge"><title>SSHLocation&#45;&gt;WebServerSecurityGroup</title>
<path fill="none" stroke="black" d="M520.682,-359.831C517.512,-351.962 513.73,-342.571 510.219,-333.853"/>
<polygon fill="black" stroke="black" points="513.399,-332.381 506.416,-324.413 506.906,-334.997 513.399,-332.381"/>
</g>
<!-- KeyName -->
<g id="node14" class="node"><title>KeyName</title>
<polygon fill="lightgrey" stroke="lightgrey" points="1056,-396 1000,-396 988,-384 988,-372 1000,-360 1056,-360 1068,-372 1068,-384 1056,-396"/>
<path fill="lightgrey" stroke="lightgrey" d="M1000,-396C994,-396 988,-390 988,-384"/>
<path fill="lightgrey" stroke="lightgrey" d="M988,-372C988,-366 994,-360 1000,-360"/>
<path fill="lightgrey" stroke="lightgrey" d="M1056,-360C1062,-360 1068,-366 1068,-372"/>
<path fill="lightgrey" stroke="lightgrey" d="M1068,-384C1068,-390 1062,-396 1056,-396"/>
<polyline fill="none" stroke="black" points="1056,-396 1000,-396 "/>
<path fill="none" stroke="black" d="M1000,-396C994,-396 988,-390 988,-384"/>
<polyline fill="none" stroke="black" points="988,-384 988,-372 "/>
<path fill="none" stroke="black" d="M988,-372C988,-366 994,-360 1000,-360"/>
<polyline fill="none" stroke="black" points="1000,-360 1056,-360 "/>
<path fill="none" stroke="black" d="M1056,-360C1062,-360 1068,-366 1068,-372"/>
<polyline fill="none" stroke="black" points="1068,-372 1068,-384 "/>
<path fill="none" stroke="black" d="M1068,-384C1068,-390 1062,-396 1056,-396"/>
<text text-anchor="middle" x="1028" y="-374.4" font-family="Times Roman,serif" font-size="14.00">KeyName</text>
</g>
<!-- KeyName&#45;&gt;WebServer -->
<g id="edge46" class="edge"><title>KeyName&#45;&gt;WebServer</title>
<path fill="none" stroke="black" d="M1019.6,-359.668C996.781,-312.452 928.45,-187.347 827,-144 775.54,-122.013 619.733,-103.859 535.123,-95.2985"/>
<polygon fill="black" stroke="black" points="535.468,-91.8157 525.17,-94.3025 534.771,-98.7809 535.468,-91.8157"/>
</g>
<!-- DBPassword -->
<g id="node15" class="node"><title>DBPassword</title>
<polygon fill="lightgrey" stroke="lightgrey" points="90,-396 12,-396 2.84217e-14,-384 1.42109e-14,-372 12,-360 90,-360 102,-372 102,-384 90,-396"/>
<path fill="lightgrey" stroke="lightgrey" d="M12,-396C6,-396 3.55271e-14,-390 2.84217e-14,-384"/>
<path fill="lightgrey" stroke="lightgrey" d="M1.42109e-14,-372C7.10543e-15,-366 6,-360 12,-360"/>
<path fill="lightgrey" stroke="lightgrey" d="M90,-360C96,-360 102,-366 102,-372"/>
<path fill="lightgrey" stroke="lightgrey" d="M102,-384C102,-390 96,-396 90,-396"/>
<polyline fill="none" stroke="black" points="90,-396 12,-396 "/>
<path fill="none" stroke="black" d="M12,-396C6,-396 3.55271e-14,-390 2.84217e-14,-384"/>
<polyline fill="none" stroke="black" points="2.84217e-14,-384 1.42109e-14,-372 "/>
<path fill="none" stroke="black" d="M1.42109e-14,-372C7.10543e-15,-366 6,-360 12,-360"/>
<polyline fill="none" stroke="black" points="12,-360 90,-360 "/>
<path fill="none" stroke="black" d="M90,-360C96,-360 102,-366 102,-372"/>
<polyline fill="none" stroke="black" points="102,-372 102,-384 "/>
<path fill="none" stroke="black" d="M102,-384C102,-390 96,-396 90,-396"/>
<text text-anchor="middle" x="51" y="-374.4" font-family="Times Roman,serif" font-size="14.00">DBPassword</text>
</g>
<!-- DBPassword&#45;&gt;WebServer -->
<g id="edge32" class="edge"><title>DBPassword&#45;&gt;WebServer</title>
<path fill="none" stroke="black" d="M45.2763,-359.869C49.2014,-340.769 64.3808,-310.409 83,-288 148.916,-208.665 172.516,-189.67 265,-144 315.018,-119.301 377.981,-104.517 423.077,-96.8192"/>
<polygon fill="black" stroke="black" points="423.688,-100.266 432.989,-95.1931 422.554,-93.3583 423.688,-100.266"/>
</g>
<!-- DBPassword&#45;&gt;WebServer -->
<g id="edge36" class="edge"><title>DBPassword&#45;&gt;WebServer</title>
<path fill="none" stroke="black" d="M71.9835,-359.869C85.2014,-340.769 100.381,-310.409 119,-288 184.916,-208.665 208.516,-189.67 301,-144 339.908,-124.787 386.649,-111.573 422.733,-103.028"/>
<polygon fill="black" stroke="black" points="423.659,-106.406 432.612,-100.741 422.08,-99.5869 423.659,-106.406"/>
</g>
<!-- DBPassword&#45;&gt;WebServer -->
<g id="edge22" class="edge"><title>DBPassword&#45;&gt;WebServer</title>
<path fill="none" stroke="black" d="M58.6299,-359.869C67.2014,-340.769 82.3808,-310.409 101,-288 166.916,-208.665 190.516,-189.67 283,-144 327.637,-121.957 382.586,-107.812 422.933,-99.5526"/>
<polygon fill="black" stroke="black" points="423.735,-102.962 432.861,-97.5784 422.37,-96.096 423.735,-102.962"/>
</g>
<!-- DBPassword&#45;&gt;DBInstance -->
<g id="edge64" class="edge"><title>DBPassword&#45;&gt;DBInstance</title>
<path fill="none" stroke="black" d="M68.274,-359.961C100.567,-327.155 173.492,-257.308 247,-216 277.529,-198.844 314.454,-185.763 344.714,-176.776"/>
<polygon fill="black" stroke="black" points="346.069,-180.027 354.702,-173.885 344.123,-173.303 346.069,-180.027"/>
</g>
<!-- DBName -->
<g id="node16" class="node"><title>DBName</title>
<polygon fill="lightgrey" stroke="lightgrey" points="184,-396 132,-396 120,-384 120,-372 132,-360 184,-360 196,-372 196,-384 184,-396"/>
<path fill="lightgrey" stroke="lightgrey" d="M132,-396C126,-396 120,-390 120,-384"/>
<path fill="lightgrey" stroke="lightgrey" d="M120,-372C120,-366 126,-360 132,-360"/>
<path fill="lightgrey" stroke="lightgrey" d="M184,-360C190,-360 196,-366 196,-372"/>
<path fill="lightgrey" stroke="lightgrey" d="M196,-384C196,-390 190,-396 184,-396"/>
<polyline fill="none" stroke="black" points="184,-396 132,-396 "/>
<path fill="none" stroke="black" d="M132,-396C126,-396 120,-390 120,-384"/>
<polyline fill="none" stroke="black" points="120,-384 120,-372 "/>
<path fill="none" stroke="black" d="M120,-372C120,-366 126,-360 132,-360"/>
<polyline fill="none" stroke="black" points="132,-360 184,-360 "/>
<path fill="none" stroke="black" d="M184,-360C190,-360 196,-366 196,-372"/>
<polyline fill="none" stroke="black" points="196,-372 196,-384 "/>
<path fill="none" stroke="black" d="M196,-384C196,-390 190,-396 184,-396"/>
<text text-anchor="middle" x="158" y="-374.4" font-family="Times Roman,serif" font-size="14.00">DBName</text>
</g>
<!-- DBName&#45;&gt;WebServer -->
<g id="edge24" class="edge"><title>DBName&#45;&gt;WebServer</title>
<path fill="none" stroke="black" d="M150.518,-359.836C152.55,-341.237 163.775,-311.768 177,-288 196.193,-253.507 201.135,-243.958 229,-216 267.407,-177.466 280.444,-170.428 328,-144 357.65,-127.523 393.369,-113.301 423.027,-103.595"/>
<polygon fill="black" stroke="black" points="424.364,-106.843 432.835,-100.48 422.245,-100.171 424.364,-106.843"/>
</g>
<!-- DBName&#45;&gt;WebServer -->
<g id="edge42" class="edge"><title>DBName&#45;&gt;WebServer</title>
<path fill="none" stroke="black" d="M177.563,-359.836C188.55,-341.237 199.775,-311.768 213,-288 232.193,-253.507 237.135,-243.958 265,-216 303.407,-177.466 316.444,-170.428 364,-144 386.106,-131.715 411.586,-120.684 433.17,-111.843"/>
<polygon fill="black" stroke="black" points="434.524,-115.071 442.472,-108.066 431.89,-108.585 434.524,-115.071"/>
</g>
<!-- DBName&#45;&gt;WebServer -->
<g id="edge14" class="edge"><title>DBName&#45;&gt;WebServer</title>
<path fill="none" stroke="black" d="M164.041,-359.836C170.55,-341.237 181.775,-311.768 195,-288 214.193,-253.507 219.135,-243.958 247,-216 285.407,-177.466 298.444,-170.428 346,-144 370.423,-130.427 398.963,-118.386 423.331,-109.137"/>
<polygon fill="black" stroke="black" points="424.65,-112.381 432.795,-105.605 422.202,-105.823 424.65,-112.381"/>
</g>
<!-- DBName&#45;&gt;DBInstance -->
<g id="edge70" class="edge"><title>DBName&#45;&gt;DBInstance</title>
<path fill="none" stroke="black" d="M170.642,-359.919C197.108,-322.432 258.195,-237.905 286,-216 303.674,-202.076 325.519,-190.759 345.53,-182.148"/>
<polygon fill="black" stroke="black" points="346.986,-185.333 354.875,-178.261 344.298,-178.87 346.986,-185.333"/>
</g>
<!-- AWS::StackId -->
<g id="node23" class="node"><title>AWS::StackId</title>
<polygon fill="none" stroke="black" points="871,-252 761,-252 761,-216 871,-216 871,-252"/>
<text text-anchor="middle" x="816" y="-230.4" font-family="Times Roman,serif" font-size="14.00">AWS::StackId</text>
</g>
<!-- AWS::StackId&#45;&gt;WebServer -->
<g id="edge10" class="edge"><title>AWS::StackId&#45;&gt;WebServer</title>
<path fill="none" stroke="black" d="M799.683,-215.889C780.141,-195.331 745.451,-162.285 709,-144 653.552,-116.185 583.342,-102.388 535.167,-95.7536"/>
<polygon fill="black" stroke="black" points="535.606,-92.2813 525.234,-94.4442 534.691,-99.2212 535.606,-92.2813"/>
</g>
<!-- AWS::Region -->
<g id="node25" class="node"><title>AWS::Region</title>
<polygon fill="none" stroke="black" points="611,-180 507,-180 507,-144 611,-144 611,-180"/>
<text text-anchor="middle" x="559" y="-158.4" font-family="Times Roman,serif" font-size="14.00">AWS::Region</text>
</g>
<!-- AWS::Region&#45;&gt;WebServer -->
<g id="edge52" class="edge"><title>AWS::Region&#45;&gt;WebServer</title>
<path fill="none" stroke="black" d="M532.86,-143.831C522.349,-135.134 510.448,-124.578 500.45,-115.127"/>
<polygon fill="black" stroke="black" points="502.857,-112.585 493.229,-108.163 497.997,-117.624 502.857,-112.585"/>
</g>
<!-- AWS::Region&#45;&gt;WebServer -->
<g id="edge12" class="edge"><title>AWS::Region&#45;&gt;WebServer</title>
<path fill="none" stroke="black" d="M544.765,-143.831C535.862,-135.048 524.166,-124.371 513.063,-114.849"/>
<polygon fill="black" stroke="black" points="515.034,-111.933 505.133,-108.163 510.522,-117.284 515.034,-111.933"/>
</g>
</g>
</svg>
