<?xml version="1.0" encoding="UTF-8" standalone="no"?>
<!DOCTYPE svg PUBLIC "-//W3C//DTD SVG 1.1//EN"
 "http://www.w3.org/Graphics/SVG/1.1/DTD/svg11.dtd">
<!-- Generated by graphviz version 2.26.3 (20100126.1600)
 -->
<!-- Title: AWS CloudFormation Sample Template LAMP_Single_Instance_With_RDS: Create a LAMP stack using a single EC2 instance for the web server and an Amazon RDS database instance for the backend data store. This template demonstrates using the AWS CloudFormation bootstrap scripts to install the packages and files necessary to deploy the Apache web server and PHP at instance launch time. **WARNING** This template creates an Amazon EC2 instance and an Amazon RDS DB instance. You will be billed for the AWS resources used if you create a stack from this template. Pages: 1 -->
<svg width="1168pt" height="404pt"
 viewBox="0.00 0.00 1168.00 404.00" xmlns="http://www.w3.org/2000/svg" xmlns:xlink="http://www.w3.org/1999/xlink">
<g id="graph1" class="graph" transform="scale(1 1) rotate(0) translate(4 400)">
<title>AWS CloudFormation Sample Template LAMP_Single_Instance_With_RDS: Create a LAMP stack using a single EC2 instance for the web server and an Amazon RDS database instance for the backend data store. This template demonstrates using the AWS CloudFormation bootstrap scripts to install the packages and files necessary to deploy the Apache web server and PHP at instance launch time. **WARNING** This template creates an Amazon EC2 instance and an Amazon RDS DB instance. You will be billed for the AWS resources used if you create a stack from this template.</title>
<polygon fill="white" stroke="white" points="-4,5 -4,-400 1165,-400 1165,5 -4,5"/>
<!-- DBSecurityGroup -->
<g id="node1" class="node"><title>DBSecurityGroup</title>
<polygon fill="none" stroke="black" points="739,-252 603,-252 603,-216 739,-216 739,-252"/>
<text text-anchor="middle" x="671" y="-230.4" font-family="Times Roman,serif" font-size="14.00">DBSecurityGroup</text>
</g>
<!-- MySQLDatabase -->
<g id="node2" class="node"><title>MySQLDatabase</title>
<polygon fill="none" stroke="black" points="518,-180 388,-180 388,-144 518,-144 518,-180"/>
<text text-anchor="middle" x="453" y="-158.4" font-family="Times Roman,serif" font-size="14.00">MySQLDatabase</text>
</g>
<!-- DBSecurityGroup&#45;&gt;MySQLDatabase -->
<g id="edge6" class="edge"><title>DBSecurityGroup&#45;&gt;MySQLDatabase</title>
<path fill="none" stroke="black" d="M616.271,-215.924C586.21,-205.996 548.755,-193.625 517.305,-183.238"/>
<polygon fill="black" stroke="black" points="518.345,-179.896 507.752,-180.083 516.15,-186.543 518.345,-179.896"/>
</g>
<!-- WebServer -->
<g id="node3" class="node"><title>WebServer</title>
<polygon fill="none" stroke="black" points="866,-108 774,-108 774,-72 866,-72 866,-108"/>
<text text-anchor="middle" x="820" y="-86.4" font-family="Times Roman,serif" font-size="14.00">WebServer</text>
</g>
<!-- MySQLDatabase&#45;&gt;WebServer -->
<g id="edge24" class="edge"><title>MySQLDatabase&#45;&gt;WebServer</title>
<path fill="none" stroke="black" d="M518.303,-148.118C588.217,-134.028 697.857,-112.558 763.985,-100.038"/>
<polygon fill="black" stroke="black" points="764.637,-103.477 773.814,-98.1827 763.338,-96.5982 764.637,-103.477"/>
</g>
<!-- MySQLDatabase&#45;&gt;WebServer -->
<g id="edge26" class="edge"><title>MySQLDatabase&#45;&gt;WebServer</title>
<path fill="none" stroke="black" d="M518.345,-150.191C588.258,-136.891 697.858,-115.391 763.973,-102.009"/>
<polygon fill="black" stroke="black" points="764.696,-105.434 773.8,-100.014 763.303,-98.5736 764.696,-105.434"/>
</g>
<!-- WebsiteURL -->
<g id="node17" class="node"><title>WebsiteURL</title>
<polygon fill="lightgrey" stroke="lightgrey" points="858,-36 782,-36 770,-24 770,-12 782,-1.60583e-14 858,-5.25802e-15 870,-12 870,-24 858,-36"/>
<path fill="lightgrey" stroke="lightgrey" d="M782,-36C776,-36 770,-30 770,-24"/>
<path fill="lightgrey" stroke="lightgrey" d="M770,-12C770,-6 776,-1.69109e-14 782,-1.60583e-14"/>
<path fill="lightgrey" stroke="lightgrey" d="M858,-5.25802e-15C864,-4.40536e-15 870,-6 870,-12"/>
<path fill="lightgrey" stroke="lightgrey" d="M870,-24C870,-30 864,-36 858,-36"/>
<polyline fill="none" stroke="black" points="858,-36 782,-36 "/>
<path fill="none" stroke="black" d="M782,-36C776,-36 770,-30 770,-24"/>
<polyline fill="none" stroke="black" points="770,-24 770,-12 "/>
<path fill="none" stroke="black" d="M770,-12C770,-6 776,-1.69109e-14 782,-1.60583e-14"/>
<polyline fill="none" stroke="black" points="782,-1.60583e-14 858,-5.25802e-15 "/>
<path fill="none" stroke="black" d="M858,-5.25802e-15C864,-4.40536e-15 870,-6 870,-12"/>
<polyline fill="none" stroke="black" points="870,-12 870,-24 "/>
<path fill="none" stroke="black" d="M870,-24C870,-30 864,-36 858,-36"/>
<text text-anchor="middle" x="820" y="-14.4" font-family="Times Roman,serif" font-size="14.00">WebsiteURL</text>
</g>
<!-- WebServer&#45;&gt;WebsiteURL -->
<g id="edge48" class="edge"><title>WebServer&#45;&gt;WebsiteURL</title>
<path fill="none" stroke="black" d="M820,-71.8314C820,-64.131 820,-54.9743 820,-46.4166"/>
<polygon fill="black" stroke="black" points="823.5,-46.4132 820,-36.4133 816.5,-46.4133 823.5,-46.4132"/>
</g>
<!-- WebServerSecurityGroup -->
<g id="node4" class="node"><title>WebServerSecurityGroup</title>
<polygon fill="none" stroke="black" points="786,-324 594,-324 594,-288 786,-288 786,-324"/>
<text text-anchor="middle" x="690" y="-302.4" font-family="Times Roman,serif" font-size="14.00">WebServerSecurityGroup</text>
</g>
<!-- WebServerSecurityGroup&#45;&gt;DBSecurityGroup -->
<g id="edge4" class="edge"><title>WebServerSecurityGroup&#45;&gt;DBSecurityGroup</title>
<path fill="none" stroke="black" d="M685.205,-287.831C683.151,-280.046 680.704,-270.773 678.424,-262.135"/>
<polygon fill="black" stroke="black" points="681.795,-261.189 675.859,-252.413 675.027,-262.975 681.795,-261.189"/>
</g>
<!-- WebServerSecurityGroup&#45;&gt;WebServer -->
<g id="edge36" class="edge"><title>WebServerSecurityGroup&#45;&gt;WebServer</title>
<path fill="none" stroke="black" d="M713.597,-287.852C725.068,-278.145 738.412,-265.44 748,-252 752.186,-246.133 788.8,-162.105 808.141,-117.448"/>
<polygon fill="black" stroke="black" points="811.452,-118.61 812.212,-108.042 805.028,-115.83 811.452,-118.61"/>
</g>
<!-- WaitCondition -->
<g id="node5" class="node"><title>WaitCondition</title>
<polygon fill="none" stroke="black" points="1160,-108 1046,-108 1046,-72 1160,-72 1160,-108"/>
<text text-anchor="middle" x="1103" y="-86.4" font-family="Times Roman,serif" font-size="14.00">WaitCondition</text>
</g>
<!-- WaitHandle -->
<g id="node6" class="node"><title>WaitHandle</title>
<polygon fill="none" stroke="black" points="1151,-180 1055,-180 1055,-144 1151,-144 1151,-180"/>
<text text-anchor="middle" x="1103" y="-158.4" font-family="Times Roman,serif" font-size="14.00">WaitHandle</text>
</g>
<!-- WaitHandle&#45;&gt;WebServer -->
<g id="edge32" class="edge"><title>WaitHandle&#45;&gt;WebServer</title>
<path fill="none" stroke="black" d="M1054.88,-150.319C1047.19,-148.16 1039.36,-145.967 1032,-144 979.188,-129.888 918.883,-115.252 876.047,-104.782"/>
<polygon fill="black" stroke="black" points="876.64,-101.324 866.095,-102.347 874.976,-108.123 876.64,-101.324"/>
</g>
<!-- WaitHandle&#45;&gt;WebServer -->
<g id="edge18" class="edge"><title>WaitHandle&#45;&gt;WebServer</title>
<path fill="none" stroke="black" d="M1054.93,-145.332C1053.27,-144.879 1051.62,-144.434 1050,-144 991.165,-128.279 923.033,-111.907 876.179,-101.37"/>
<polygon fill="black" stroke="black" points="876.743,-97.9102 866.221,-99.1478 875.219,-104.742 876.743,-97.9102"/>
</g>
<!-- WaitHandle&#45;&gt;WaitCondition -->
<g id="edge46" class="edge"><title>WaitHandle&#45;&gt;WaitCondition</title>
<path fill="none" stroke="black" d="M1103,-143.831C1103,-136.131 1103,-126.974 1103,-118.417"/>
<polygon fill="black" stroke="black" points="1106.5,-118.413 1103,-108.413 1099.5,-118.413 1106.5,-118.413"/>
</g>
<!-- DBUsername -->
<g id="node8" class="node"><title>DBUsername</title>
<polygon fill="lightgrey" stroke="lightgrey" points="94,-396 12,-396 3.78956e-14,-384 1.89478e-14,-372 12,-360 94,-360 106,-372 106,-384 94,-396"/>
<path fill="lightgrey" stroke="lightgrey" d="M12,-396C6,-396 4.73695e-14,-390 3.78956e-14,-384"/>
<path fill="lightgrey" stroke="lightgrey" d="M1.89478e-14,-372C9.4739e-15,-366 6,-360 12,-360"/>
<path fill="lightgrey" stroke="lightgrey" d="M94,-360C100,-360 106,-366 106,-372"/>
<path fill="lightgrey" stroke="lightgrey" d="M106,-384C106,-390 100,-396 94,-396"/>
<polyline fill="none" stroke="black" points="94,-396 12,-396 "/>
<path fill="none" stroke="black" d="M12,-396C6,-396 4.73695e-14,-390 3.78956e-14,-384"/>
<polyline fill="none" stroke="black" points="3.78956e-14,-384 1.89478e-14,-372 "/>
<path fill="none" stroke="black" d="M1.89478e-14,-372C9.4739e-15,-366 6,-360 12,-360"/>
<polyline fill="none" stroke="black" points="12,-360 94,-360 "/>
<path fill="none" stroke="black" d="M94,-360C100,-360 106,-366 106,-372"/>
<polyline fill="none" stroke="black" points="106,-372 106,-384 "/>
<path fill="none" stroke="black" d="M106,-384C106,-390 100,-396 94,-396"/>
<text text-anchor="middle" x="53" y="-374.4" font-family="Times Roman,serif" font-size="14.00">DBUsername</text>
</g>
<!-- DBUsername&#45;&gt;MySQLDatabase -->
<g id="edge8" class="edge"><title>DBUsername&#45;&gt;MySQLDatabase</title>
<path fill="none" stroke="black" d="M83.4903,-359.754C135.341,-328.947 244.292,-265.171 339,-216 359.974,-205.111 383.522,-193.807 403.746,-184.373"/>
<polygon fill="black" stroke="black" points="405.485,-187.425 413.082,-180.04 402.538,-181.075 405.485,-187.425"/>
</g>
<!-- DBUsername&#45;&gt;WebServer -->
<g id="edge28" class="edge"><title>DBUsername&#45;&gt;WebServer</title>
<path fill="none" stroke="black" d="M69.0171,-359.843C86.3966,-340.721 115.495,-310.344 144,-288 240.406,-212.432 263.348,-184.364 379,-144 448.792,-119.641 661.281,-101.488 763.671,-93.9017"/>
<polygon fill="black" stroke="black" points="764.103,-97.3795 773.82,-93.1577 763.591,-90.3983 764.103,-97.3795"/>
</g>
<!-- DBAllocatedStorage -->
<g id="node9" class="node"><title>DBAllocatedStorage</title>
<polygon fill="lightgrey" stroke="lightgrey" points="508,-396 378,-396 366,-384 366,-372 378,-360 508,-360 520,-372 520,-384 508,-396"/>
<path fill="lightgrey" stroke="lightgrey" d="M378,-396C372,-396 366,-390 366,-384"/>
<path fill="lightgrey" stroke="lightgrey" d="M366,-372C366,-366 372,-360 378,-360"/>
<path fill="lightgrey" stroke="lightgrey" d="M508,-360C514,-360 520,-366 520,-372"/>
<path fill="lightgrey" stroke="lightgrey" d="M520,-384C520,-390 514,-396 508,-396"/>
<polyline fill="none" stroke="black" points="508,-396 378,-396 "/>
<path fill="none" stroke="black" d="M378,-396C372,-396 366,-390 366,-384"/>
<polyline fill="none" stroke="black" points="366,-384 366,-372 "/>
<path fill="none" stroke="black" d="M366,-372C366,-366 372,-360 378,-360"/>
<polyline fill="none" stroke="black" points="378,-360 508,-360 "/>
<path fill="none" stroke="black" d="M508,-360C514,-360 520,-366 520,-372"/>
<polyline fill="none" stroke="black" points="520,-372 520,-384 "/>
<path fill="none" stroke="black" d="M520,-384C520,-390 514,-396 508,-396"/>
<text text-anchor="middle" x="443" y="-374.4" font-family="Times Roman,serif" font-size="14.00">DBAllocatedStorage</text>
</g>
<!-- DBAllocatedStorage&#45;&gt;MySQLDatabase -->
<g id="edge12" class="edge"><title>DBAllocatedStorage&#45;&gt;MySQLDatabase</title>
<path fill="none" stroke="black" d="M443.835,-359.955C445.574,-322.394 449.595,-235.554 451.685,-190.41"/>
<polygon fill="black" stroke="black" points="455.194,-190.296 452.16,-180.145 448.201,-189.972 455.194,-190.296"/>
</g>
<!-- InstanceType -->
<g id="node10" class="node"><title>InstanceType</title>
<polygon fill="lightgrey" stroke="lightgrey" points="874,-396 792,-396 780,-384 780,-372 792,-360 874,-360 886,-372 886,-384 874,-396"/>
<path fill="lightgrey" stroke="lightgrey" d="M792,-396C786,-396 780,-390 780,-384"/>
<path fill="lightgrey" stroke="lightgrey" d="M780,-372C780,-366 786,-360 792,-360"/>
<path fill="lightgrey" stroke="lightgrey" d="M874,-360C880,-360 886,-366 886,-372"/>
<path fill="lightgrey" stroke="lightgrey" d="M886,-384C886,-390 880,-396 874,-396"/>
<polyline fill="none" stroke="black" points="874,-396 792,-396 "/>
<path fill="none" stroke="black" d="M792,-396C786,-396 780,-390 780,-384"/>
<polyline fill="none" stroke="black" points="780,-384 780,-372 "/>
<path fill="none" stroke="black" d="M780,-372C780,-366 786,-360 792,-360"/>
<polyline fill="none" stroke="black" points="792,-360 874,-360 "/>
<path fill="none" stroke="black" d="M874,-360C880,-360 886,-366 886,-372"/>
<polyline fill="none" stroke="black" points="886,-372 886,-384 "/>
<path fill="none" stroke="black" d="M886,-384C886,-390 880,-396 874,-396"/>
<text text-anchor="middle" x="833" y="-374.4" font-family="Times Roman,serif" font-size="14.00">InstanceType</text>
</g>
<!-- InstanceType&#45;&gt;WebServer -->
<g id="edge38" class="edge"><title>InstanceType&#45;&gt;WebServer</title>
<path fill="none" stroke="black" d="M828.7,-359.984C822.406,-311.294 816.095,-176.796 817.06,-118.057"/>
<polygon fill="black" stroke="black" points="820.56,-118.098 817.327,-108.009 813.563,-117.913 820.56,-118.098"/>
</g>
<!-- InstanceType&#45;&gt;WebServer -->
<g id="edge42" class="edge"><title>InstanceType&#45;&gt;WebServer</title>
<path fill="none" stroke="black" d="M835.673,-359.984C837.572,-311.294 831.741,-176.796 825.473,-118.057"/>
<polygon fill="black" stroke="black" points="828.936,-117.535 824.299,-108.009 821.983,-118.347 828.936,-117.535"/>
</g>
<!-- SSHLocation -->
<g id="node11" class="node"><title>SSHLocation</title>
<polygon fill="lightgrey" stroke="lightgrey" points="750,-396 670,-396 658,-384 658,-372 670,-360 750,-360 762,-372 762,-384 750,-396"/>
<path fill="lightgrey" stroke="lightgrey" d="M670,-396C664,-396 658,-390 658,-384"/>
<path fill="lightgrey" stroke="lightgrey" d="M658,-372C658,-366 664,-360 670,-360"/>
<path fill="lightgrey" stroke="lightgrey" d="M750,-360C756,-360 762,-366 762,-372"/>
<path fill="lightgrey" stroke="lightgrey" d="M762,-384C762,-390 756,-396 750,-396"/>
<polyline fill="none" stroke="black" points="750,-396 670,-396 "/>
<path fill="none" stroke="black" d="M670,-396C664,-396 658,-390 658,-384"/>
<polyline fill="none" stroke="black" points="658,-384 658,-372 "/>
<path fill="none" stroke="black" d="M658,-372C658,-366 664,-360 670,-360"/>
<polyline fill="none" stroke="black" points="670,-360 750,-360 "/>
<path fill="none" stroke="black" d="M750,-360C756,-360 762,-366 762,-372"/>
<polyline fill="none" stroke="black" points="762,-372 762,-384 "/>
<path fill="none" stroke="black" d="M762,-384C762,-390 756,-396 750,-396"/>
<text text-anchor="middle" x="710" y="-374.4" font-family="Times Roman,serif" font-size="14.00">SSHLocation</text>
</g>
<!-- SSHLocation&#45;&gt;WebServerSecurityGroup -->
<g id="edge44" class="edge"><title>SSHLocation&#45;&gt;WebServerSecurityGroup</title>
<path fill="none" stroke="black" d="M704.953,-359.831C702.791,-352.046 700.215,-342.773 697.815,-334.135"/>
<polygon fill="black" stroke="black" points="701.164,-333.112 695.115,-324.413 694.419,-334.985 701.164,-333.112"/>
</g>
<!-- KeyName -->
<g id="node12" class="node"><title>KeyName</title>
<polygon fill="lightgrey" stroke="lightgrey" points="1055,-396 999,-396 987,-384 987,-372 999,-360 1055,-360 1067,-372 1067,-384 1055,-396"/>
<path fill="lightgrey" stroke="lightgrey" d="M999,-396C993,-396 987,-390 987,-384"/>
<path fill="lightgrey" stroke="lightgrey" d="M987,-372C987,-366 993,-360 999,-360"/>
<path fill="lightgrey" stroke="lightgrey" d="M1055,-360C1061,-360 1067,-366 1067,-372"/>
<path fill="lightgrey" stroke="lightgrey" d="M1067,-384C1067,-390 1061,-396 1055,-396"/>
<polyline fill="none" stroke="black" points="1055,-396 999,-396 "/>
<path fill="none" stroke="black" d="M999,-396C993,-396 987,-390 987,-384"/>
<polyline fill="none" stroke="black" points="987,-384 987,-372 "/>
<path fill="none" stroke="black" d="M987,-372C987,-366 993,-360 999,-360"/>
<polyline fill="none" stroke="black" points="999,-360 1055,-360 "/>
<path fill="none" stroke="black" d="M1055,-360C1061,-360 1067,-366 1067,-372"/>
<polyline fill="none" stroke="black" points="1067,-372 1067,-384 "/>
<path fill="none" stroke="black" d="M1067,-384C1067,-390 1061,-396 1055,-396"/>
<text text-anchor="middle" x="1027" y="-374.4" font-family="Times Roman,serif" font-size="14.00">KeyName</text>
</g>
<!-- KeyName&#45;&gt;WebServer -->
<g id="edge34" class="edge"><title>KeyName&#45;&gt;WebServer</title>
<path fill="none" stroke="black" d="M1031.71,-359.98C1041.74,-317.108 1060.29,-207.863 1008,-144 991.245,-123.536 925.275,-107.982 876.186,-98.9404"/>
<polygon fill="black" stroke="black" points="876.763,-95.4882 866.302,-97.1648 875.525,-102.378 876.763,-95.4882"/>
</g>
<!-- DBPassword -->
<g id="node13" class="node"><title>DBPassword</title>
<polygon fill="lightgrey" stroke="lightgrey" points="628,-396 550,-396 538,-384 538,-372 550,-360 628,-360 640,-372 640,-384 628,-396"/>
<path fill="lightgrey" stroke="lightgrey" d="M550,-396C544,-396 538,-390 538,-384"/>
<path fill="lightgrey" stroke="lightgrey" d="M538,-372C538,-366 544,-360 550,-360"/>
<path fill="lightgrey" stroke="lightgrey" d="M628,-360C634,-360 640,-366 640,-372"/>
<path fill="lightgrey" stroke="lightgrey" d="M640,-384C640,-390 634,-396 628,-396"/>
<polyline fill="none" stroke="black" points="628,-396 550,-396 "/>
<path fill="none" stroke="black" d="M550,-396C544,-396 538,-390 538,-384"/>
<polyline fill="none" stroke="black" points="538,-384 538,-372 "/>
<path fill="none" stroke="black" d="M538,-372C538,-366 544,-360 550,-360"/>
<polyline fill="none" stroke="black" points="550,-360 628,-360 "/>
<path fill="none" stroke="black" d="M628,-360C634,-360 640,-366 640,-372"/>
<polyline fill="none" stroke="black" points="640,-372 640,-384 "/>
<path fill="none" stroke="black" d="M640,-384C640,-390 634,-396 628,-396"/>
<text text-anchor="middle" x="589" y="-374.4" font-family="Times Roman,serif" font-size="14.00">DBPassword</text>
</g>
<!-- DBPassword&#45;&gt;MySQLDatabase -->
<g id="edge10" class="edge"><title>DBPassword&#45;&gt;MySQLDatabase</title>
<path fill="none" stroke="black" d="M576.087,-359.666C568.868,-349.289 559.783,-336.02 552,-324 521.672,-277.162 488.162,-221.429 468.941,-189.046"/>
<polygon fill="black" stroke="black" points="471.792,-186.991 463.684,-180.17 465.769,-190.558 471.792,-186.991"/>
</g>
<!-- DBPassword&#45;&gt;WebServer -->
<g id="edge30" class="edge"><title>DBPassword&#45;&gt;WebServer</title>
<path fill="none" stroke="black" d="M583.802,-359.835C575.772,-327.736 564.189,-260.21 594,-216 633.839,-156.919 711.079,-122.678 764.074,-105.177"/>
<polygon fill="black" stroke="black" points="765.217,-108.486 773.673,-102.102 763.082,-101.82 765.217,-108.486"/>
</g>
<!-- DBInstanceClass -->
<g id="node14" class="node"><title>DBInstanceClass</title>
<polygon fill="lightgrey" stroke="lightgrey" points="242,-396 136,-396 124,-384 124,-372 136,-360 242,-360 254,-372 254,-384 242,-396"/>
<path fill="lightgrey" stroke="lightgrey" d="M136,-396C130,-396 124,-390 124,-384"/>
<path fill="lightgrey" stroke="lightgrey" d="M124,-372C124,-366 130,-360 136,-360"/>
<path fill="lightgrey" stroke="lightgrey" d="M242,-360C248,-360 254,-366 254,-372"/>
<path fill="lightgrey" stroke="lightgrey" d="M254,-384C254,-390 248,-396 242,-396"/>
<polyline fill="none" stroke="black" points="242,-396 136,-396 "/>
<path fill="none" stroke="black" d="M136,-396C130,-396 124,-390 124,-384"/>
<polyline fill="none" stroke="black" points="124,-384 124,-372 "/>
<path fill="none" stroke="black" d="M124,-372C124,-366 130,-360 136,-360"/>
<polyline fill="none" stroke="black" points="136,-360 242,-360 "/>
<path fill="none" stroke="black" d="M242,-360C248,-360 254,-366 254,-372"/>
<polyline fill="none" stroke="black" points="254,-372 254,-384 "/>
<path fill="none" stroke="black" d="M254,-384C254,-390 248,-396 242,-396"/>
<text text-anchor="middle" x="189" y="-374.4" font-family="Times Roman,serif" font-size="14.00">DBInstanceClass</text>
</g>
<!-- DBInstanceClass&#45;&gt;MySQLDatabase -->
<g id="edge14" class="edge"><title>DBInstanceClass&#45;&gt;MySQLDatabase</title>
<path fill="none" stroke="black" d="M211.054,-359.955C258.322,-321.282 369.436,-230.37 423.039,-186.514"/>
<polygon fill="black" stroke="black" points="425.299,-189.186 430.823,-180.145 420.867,-183.769 425.299,-189.186"/>
</g>
<!-- DBName -->
<g id="node15" class="node"><title>DBName</title>
<polygon fill="lightgrey" stroke="lightgrey" points="336,-396 284,-396 272,-384 272,-372 284,-360 336,-360 348,-372 348,-384 336,-396"/>
<path fill="lightgrey" stroke="lightgrey" d="M284,-396C278,-396 272,-390 272,-384"/>
<path fill="lightgrey" stroke="lightgrey" d="M272,-372C272,-366 278,-360 284,-360"/>
<path fill="lightgrey" stroke="lightgrey" d="M336,-360C342,-360 348,-366 348,-372"/>
<path fill="lightgrey" stroke="lightgrey" d="M348,-384C348,-390 342,-396 336,-396"/>
<polyline fill="none" stroke="black" points="336,-396 284,-396 "/>
<path fill="none" stroke="black" d="M284,-396C278,-396 272,-390 272,-384"/>
<polyline fill="none" stroke="black" points="272,-384 272,-372 "/>
<path fill="none" stroke="black" d="M272,-372C272,-366 278,-360 284,-360"/>
<polyline fill="none" stroke="black" points="284,-360 336,-360 "/>
<path fill="none" stroke="black" d="M336,-360C342,-360 348,-366 348,-372"/>
<polyline fill="none" stroke="black" points="348,-372 348,-384 "/>
<path fill="none" stroke="black" d="M348,-384C348,-390 342,-396 336,-396"/>
<text text-anchor="middle" x="310" y="-374.4" font-family="Times Roman,serif" font-size="14.00">DBName</text>
</g>
<!-- DBName&#45;&gt;MySQLDatabase -->
<g id="edge16" class="edge"><title>DBName&#45;&gt;MySQLDatabase</title>
<path fill="none" stroke="black" d="M321.946,-359.955C347.129,-321.917 405.768,-233.343 435.315,-188.713"/>
<polygon fill="black" stroke="black" points="438.385,-190.415 440.987,-180.145 432.549,-186.551 438.385,-190.415"/>
</g>
<!-- AWS::StackId -->
<g id="node26" class="node"><title>AWS::StackId</title>
<polygon fill="none" stroke="black" points="967,-252 857,-252 857,-216 967,-216 967,-252"/>
<text text-anchor="middle" x="912" y="-230.4" font-family="Times Roman,serif" font-size="14.00">AWS::StackId</text>
</g>
<!-- AWS::StackId&#45;&gt;WebServer -->
<g id="edge20" class="edge"><title>AWS::StackId&#45;&gt;WebServer</title>
<path fill="none" stroke="black" d="M900.348,-215.762C884.38,-190.768 855.581,-145.692 837.148,-116.841"/>
<polygon fill="black" stroke="black" points="839.891,-114.632 831.557,-108.09 833.992,-118.401 839.891,-114.632"/>
</g>
<!-- AWS::Region -->
<g id="node28" class="node"><title>AWS::Region</title>
<polygon fill="none" stroke="black" points="999,-180 895,-180 895,-144 999,-144 999,-180"/>
<text text-anchor="middle" x="947" y="-158.4" font-family="Times Roman,serif" font-size="14.00">AWS::Region</text>
</g>
<!-- AWS::Region&#45;&gt;WebServer -->
<g id="edge40" class="edge"><title>AWS::Region&#45;&gt;WebServer</title>
<path fill="none" stroke="black" d="M909,-143.831C891.859,-134.622 871.801,-123.33 855.027,-113.471"/>
<polygon fill="black" stroke="black" points="856.471,-110.258 846.085,-108.163 852.898,-116.277 856.471,-110.258"/>
</g>
<!-- AWS::Region&#45;&gt;WebServer -->
<g id="edge22" class="edge"><title>AWS::Region&#45;&gt;WebServer</title>
<path fill="none" stroke="black" d="M920.905,-143.831C905.416,-134.537 885.414,-123.121 867.272,-113.197"/>
<polygon fill="black" stroke="black" points="868.448,-109.853 857.989,-108.163 865.111,-116.007 868.448,-109.853"/>
</g>
</g>
</svg>
