<?xml version="1.0" encoding="UTF-8" standalone="no"?>
<!DOCTYPE svg PUBLIC "-//W3C//DTD SVG 1.1//EN"
 "http://www.w3.org/Graphics/SVG/1.1/DTD/svg11.dtd">
<!-- Generated by graphviz version 2.26.3 (20100126.1600)
 -->
<!-- Title: AWS CloudFormation Sample Template LAMP_Multi_AZ: Create a highly available, scalable LAMP stack with an Amazon RDS database instance for the backend data store. This template demonstrates using the AWS CloudFormation bootstrap scripts to install the packages and files necessary to deploy the Apache web server and PHP at instance launch time. **WARNING** This template creates one or more Amazon EC2 instances, an Elastic Load Balancer and an Amazon RDS DB instance. You will be billed for the AWS resources used if you create a stack from this template. Pages: 1 -->
<svg width="1331pt" height="548pt"
 viewBox="0.00 0.00 1331.00 548.00" xmlns="http://www.w3.org/2000/svg" xmlns:xlink="http://www.w3.org/1999/xlink">
<g id="graph1" class="graph" transform="scale(1 1) rotate(0) translate(4 544)">
<title>AWS CloudFormation Sample Template LAMP_Multi_AZ: Create a highly available, scalable LAMP stack with an Amazon RDS database instance for the backend data store. This template demonstrates using the AWS CloudFormation bootstrap scripts to install the packages and files necessary to deploy the Apache web server and PHP at instance launch time. **WARNING** This template creates one or more Amazon EC2 instances, an Elastic Load Balancer and an Amazon RDS DB instance. You will be billed for the AWS resources used if you create a stack from this template.</title>
<polygon fill="white" stroke="white" points="-4,5 -4,-544 1328,-544 1328,5 -4,5"/>
<!-- DBSecurityGroup -->
<g id="node1" class="node"><title>DBSecurityGroup</title>
<polygon fill="none" stroke="black" points="863,-324 727,-324 727,-288 863,-288 863,-324"/>
<text text-anchor="middle" x="795" y="-302.4" font-family="Times Roman,serif" font-size="14.00">DBSecurityGroup</text>
</g>
<!-- MySQLDatabase -->
<g id="node6" class="node"><title>MySQLDatabase</title>
<polygon fill="none" stroke="black" points="665,-252 535,-252 535,-216 665,-216 665,-252"/>
<text text-anchor="middle" x="600" y="-230.4" font-family="Times Roman,serif" font-size="14.00">MySQLDatabase</text>
</g>
<!-- DBSecurityGroup&#45;&gt;MySQLDatabase -->
<g id="edge46" class="edge"><title>DBSecurityGroup&#45;&gt;MySQLDatabase</title>
<path fill="none" stroke="black" d="M746.045,-287.924C719.503,-278.124 686.518,-265.945 658.614,-255.642"/>
<polygon fill="black" stroke="black" points="659.568,-252.264 648.975,-252.083 657.144,-258.83 659.568,-252.264"/>
</g>
<!-- WebServerSecurityGroup -->
<g id="node2" class="node"><title>WebServerSecurityGroup</title>
<polygon fill="none" stroke="black" points="1000,-396 808,-396 808,-360 1000,-360 1000,-396"/>
<text text-anchor="middle" x="904" y="-374.4" font-family="Times Roman,serif" font-size="14.00">WebServerSecurityGroup</text>
</g>
<!-- WebServerSecurityGroup&#45;&gt;DBSecurityGroup -->
<g id="edge4" class="edge"><title>WebServerSecurityGroup&#45;&gt;DBSecurityGroup</title>
<path fill="none" stroke="black" d="M876.495,-359.831C862.682,-350.707 845.774,-339.539 830.947,-329.745"/>
<polygon fill="black" stroke="black" points="832.77,-326.754 822.497,-324.163 828.911,-332.595 832.77,-326.754"/>
</g>
<!-- LaunchConfig -->
<g id="node4" class="node"><title>LaunchConfig</title>
<polygon fill="none" stroke="black" points="505,-180 395,-180 395,-144 505,-144 505,-180"/>
<text text-anchor="middle" x="450" y="-158.4" font-family="Times Roman,serif" font-size="14.00">LaunchConfig</text>
</g>
<!-- WebServerSecurityGroup&#45;&gt;LaunchConfig -->
<g id="edge36" class="edge"><title>WebServerSecurityGroup&#45;&gt;LaunchConfig</title>
<path fill="none" stroke="black" d="M902.107,-359.694C899.093,-339.578 891.396,-307.535 872,-288 821.704,-237.343 620.265,-193.549 514.93,-173.557"/>
<polygon fill="black" stroke="black" points="515.519,-170.107 505.044,-171.698 514.225,-176.986 515.519,-170.107"/>
</g>
<!-- WebServerGroup -->
<g id="node3" class="node"><title>WebServerGroup</title>
<polygon fill="none" stroke="black" points="1266,-108 1130,-108 1130,-72 1266,-72 1266,-108"/>
<text text-anchor="middle" x="1198" y="-86.4" font-family="Times Roman,serif" font-size="14.00">WebServerGroup</text>
</g>
<!-- LaunchConfig&#45;&gt;WebServerGroup -->
<g id="edge14" class="edge"><title>LaunchConfig&#45;&gt;WebServerGroup</title>
<path fill="none" stroke="black" d="M505.002,-156.706C636.183,-144.079 967.775,-112.161 1119.74,-97.5331"/>
<polygon fill="black" stroke="black" points="1120.31,-100.995 1129.93,-96.5526 1119.64,-94.0269 1120.31,-100.995"/>
</g>
<!-- ElasticLoadBalancer -->
<g id="node5" class="node"><title>ElasticLoadBalancer</title>
<polygon fill="none" stroke="black" points="1105,-468 951,-468 951,-432 1105,-432 1105,-468"/>
<text text-anchor="middle" x="1028" y="-446.4" font-family="Times Roman,serif" font-size="14.00">ElasticLoadBalancer</text>
</g>
<!-- ElasticLoadBalancer&#45;&gt;WebServerSecurityGroup -->
<g id="edge6" class="edge"><title>ElasticLoadBalancer&#45;&gt;WebServerSecurityGroup</title>
<path fill="none" stroke="black" d="M990.757,-431.831C973.999,-422.622 954.412,-411.33 938.049,-401.471"/>
<polygon fill="black" stroke="black" points="939.69,-398.372 929.329,-396.163 936.051,-404.352 939.69,-398.372"/>
</g>
<!-- ElasticLoadBalancer&#45;&gt;WebServerSecurityGroup -->
<g id="edge8" class="edge"><title>ElasticLoadBalancer&#45;&gt;WebServerSecurityGroup</title>
<path fill="none" stroke="black" d="M1002.66,-431.831C987.561,-422.537 968.034,-411.121 950.306,-401.197"/>
<polygon fill="black" stroke="black" points="951.675,-397.954 941.232,-396.163 948.278,-404.075 951.675,-397.954"/>
</g>
<!-- ElasticLoadBalancer&#45;&gt;WebServerGroup -->
<g id="edge16" class="edge"><title>ElasticLoadBalancer&#45;&gt;WebServerGroup</title>
<path fill="none" stroke="black" d="M1078.55,-431.955C1128.66,-410.439 1198,-369.24 1198,-306 1198,-306 1198,-306 1198,-234 1198,-193.876 1198,-147.463 1198,-118.418"/>
<polygon fill="black" stroke="black" points="1201.5,-118.185 1198,-108.185 1194.5,-118.185 1201.5,-118.185"/>
</g>
<!-- WebsiteURL -->
<g id="node21" class="node"><title>WebsiteURL</title>
<polygon fill="lightgrey" stroke="lightgrey" points="1066,-36 990,-36 978,-24 978,-12 990,-1.60583e-14 1066,-5.25802e-15 1078,-12 1078,-24 1066,-36"/>
<path fill="lightgrey" stroke="lightgrey" d="M990,-36C984,-36 978,-30 978,-24"/>
<path fill="lightgrey" stroke="lightgrey" d="M978,-12C978,-6 984,-1.69109e-14 990,-1.60583e-14"/>
<path fill="lightgrey" stroke="lightgrey" d="M1066,-5.25802e-15C1072,-4.40536e-15 1078,-6 1078,-12"/>
<path fill="lightgrey" stroke="lightgrey" d="M1078,-24C1078,-30 1072,-36 1066,-36"/>
<polyline fill="none" stroke="black" points="1066,-36 990,-36 "/>
<path fill="none" stroke="black" d="M990,-36C984,-36 978,-30 978,-24"/>
<polyline fill="none" stroke="black" points="978,-24 978,-12 "/>
<path fill="none" stroke="black" d="M978,-12C978,-6 984,-1.69109e-14 990,-1.60583e-14"/>
<polyline fill="none" stroke="black" points="990,-1.60583e-14 1066,-5.25802e-15 "/>
<path fill="none" stroke="black" d="M1066,-5.25802e-15C1072,-4.40536e-15 1078,-6 1078,-12"/>
<polyline fill="none" stroke="black" points="1078,-12 1078,-24 "/>
<path fill="none" stroke="black" d="M1078,-24C1078,-30 1072,-36 1066,-36"/>
<text text-anchor="middle" x="1028" y="-14.4" font-family="Times Roman,serif" font-size="14.00">WebsiteURL</text>
</g>
<!-- ElasticLoadBalancer&#45;&gt;WebsiteURL -->
<g id="edge62" class="edge"><title>ElasticLoadBalancer&#45;&gt;WebsiteURL</title>
<path fill="none" stroke="black" d="M1028,-431.815C1028,-404.498 1028,-351.25 1028,-306 1028,-306 1028,-306 1028,-162 1028,-121.876 1028,-75.4631 1028,-46.4177"/>
<polygon fill="black" stroke="black" points="1031.5,-46.1853 1028,-36.1854 1024.5,-46.1854 1031.5,-46.1853"/>
</g>
<!-- MySQLDatabase&#45;&gt;LaunchConfig -->
<g id="edge24" class="edge"><title>MySQLDatabase&#45;&gt;LaunchConfig</title>
<path fill="none" stroke="black" d="M556.196,-215.831C535.555,-206.366 511.13,-194.701 490.873,-184.652"/>
<polygon fill="black" stroke="black" points="492.397,-181.501 481.887,-180.163 489.269,-187.763 492.397,-181.501"/>
</g>
<!-- MySQLDatabase&#45;&gt;LaunchConfig -->
<g id="edge26" class="edge"><title>MySQLDatabase&#45;&gt;LaunchConfig</title>
<path fill="none" stroke="black" d="M568.101,-215.831C549.063,-206.245 524.502,-194.401 502.679,-184.266"/>
<polygon fill="black" stroke="black" points="504.065,-181.05 493.519,-180.038 501.132,-187.406 504.065,-181.05"/>
</g>
<!-- WaitCondition -->
<g id="node7" class="node"><title>WaitCondition</title>
<polygon fill="none" stroke="black" points="1170,-180 1056,-180 1056,-144 1170,-144 1170,-180"/>
<text text-anchor="middle" x="1113" y="-158.4" font-family="Times Roman,serif" font-size="14.00">WaitCondition</text>
</g>
<!-- WaitHandle -->
<g id="node8" class="node"><title>WaitHandle</title>
<polygon fill="none" stroke="black" points="1000,-252 904,-252 904,-216 1000,-216 1000,-252"/>
<text text-anchor="middle" x="952" y="-230.4" font-family="Times Roman,serif" font-size="14.00">WaitHandle</text>
</g>
<!-- WaitHandle&#45;&gt;LaunchConfig -->
<g id="edge32" class="edge"><title>WaitHandle&#45;&gt;LaunchConfig</title>
<path fill="none" stroke="black" d="M903.708,-221.521C896.109,-219.461 888.356,-217.509 881,-216 752.588,-189.657 600.274,-174.464 515.36,-167.245"/>
<polygon fill="black" stroke="black" points="515.602,-163.753 505.344,-166.404 515.016,-170.728 515.602,-163.753"/>
</g>
<!-- WaitHandle&#45;&gt;LaunchConfig -->
<g id="edge18" class="edge"><title>WaitHandle&#45;&gt;LaunchConfig</title>
<path fill="none" stroke="black" d="M903.991,-217.076C902.314,-216.698 900.647,-216.338 899,-216 764.293,-188.366 603.284,-173.001 515.249,-166.24"/>
<polygon fill="black" stroke="black" points="515.376,-162.74 505.141,-165.477 514.849,-169.72 515.376,-162.74"/>
</g>
<!-- WaitHandle&#45;&gt;WaitCondition -->
<g id="edge60" class="edge"><title>WaitHandle&#45;&gt;WaitCondition</title>
<path fill="none" stroke="black" d="M992.627,-215.831C1014.16,-206.202 1040.78,-194.295 1063.52,-184.13"/>
<polygon fill="black" stroke="black" points="1064.97,-187.316 1072.67,-180.038 1062.11,-180.925 1064.97,-187.316"/>
</g>
<!-- DBUsername -->
<g id="node10" class="node"><title>DBUsername</title>
<polygon fill="lightgrey" stroke="lightgrey" points="608,-540 526,-540 514,-528 514,-516 526,-504 608,-504 620,-516 620,-528 608,-540"/>
<path fill="lightgrey" stroke="lightgrey" d="M526,-540C520,-540 514,-534 514,-528"/>
<path fill="lightgrey" stroke="lightgrey" d="M514,-516C514,-510 520,-504 526,-504"/>
<path fill="lightgrey" stroke="lightgrey" d="M608,-504C614,-504 620,-510 620,-516"/>
<path fill="lightgrey" stroke="lightgrey" d="M620,-528C620,-534 614,-540 608,-540"/>
<polyline fill="none" stroke="black" points="608,-540 526,-540 "/>
<path fill="none" stroke="black" d="M526,-540C520,-540 514,-534 514,-528"/>
<polyline fill="none" stroke="black" points="514,-528 514,-516 "/>
<path fill="none" stroke="black" d="M514,-516C514,-510 520,-504 526,-504"/>
<polyline fill="none" stroke="black" points="526,-504 608,-504 "/>
<path fill="none" stroke="black" d="M608,-504C614,-504 620,-510 620,-516"/>
<polyline fill="none" stroke="black" points="620,-516 620,-528 "/>
<path fill="none" stroke="black" d="M620,-528C620,-534 614,-540 608,-540"/>
<text text-anchor="middle" x="567" y="-518.4" font-family="Times Roman,serif" font-size="14.00">DBUsername</text>
</g>
<!-- DBUsername&#45;&gt;LaunchConfig -->
<g id="edge28" class="edge"><title>DBUsername&#45;&gt;LaunchConfig</title>
<path fill="none" stroke="black" d="M553.981,-503.912C536.334,-477.566 507,-426.479 507,-378 507,-378 507,-378 507,-306 507,-262.76 484.505,-217.019 467.779,-188.983"/>
<polygon fill="black" stroke="black" points="470.587,-186.869 462.368,-180.183 464.624,-190.535 470.587,-186.869"/>
</g>
<!-- DBUsername&#45;&gt;MySQLDatabase -->
<g id="edge48" class="edge"><title>DBUsername&#45;&gt;MySQLDatabase</title>
<path fill="none" stroke="black" d="M569.064,-503.984C574.643,-455.294 590.055,-320.796 596.785,-262.057"/>
<polygon fill="black" stroke="black" points="600.275,-262.342 597.936,-252.009 593.321,-261.545 600.275,-262.342"/>
</g>
<!-- MultiAZDatabase -->
<g id="node11" class="node"><title>MultiAZDatabase</title>
<polygon fill="lightgrey" stroke="lightgrey" points="856,-540 744,-540 732,-528 732,-516 744,-504 856,-504 868,-516 868,-528 856,-540"/>
<path fill="lightgrey" stroke="lightgrey" d="M744,-540C738,-540 732,-534 732,-528"/>
<path fill="lightgrey" stroke="lightgrey" d="M732,-516C732,-510 738,-504 744,-504"/>
<path fill="lightgrey" stroke="lightgrey" d="M856,-504C862,-504 868,-510 868,-516"/>
<path fill="lightgrey" stroke="lightgrey" d="M868,-528C868,-534 862,-540 856,-540"/>
<polyline fill="none" stroke="black" points="856,-540 744,-540 "/>
<path fill="none" stroke="black" d="M744,-540C738,-540 732,-534 732,-528"/>
<polyline fill="none" stroke="black" points="732,-528 732,-516 "/>
<path fill="none" stroke="black" d="M732,-516C732,-510 738,-504 744,-504"/>
<polyline fill="none" stroke="black" points="744,-504 856,-504 "/>
<path fill="none" stroke="black" d="M856,-504C862,-504 868,-510 868,-516"/>
<polyline fill="none" stroke="black" points="868,-516 868,-528 "/>
<path fill="none" stroke="black" d="M868,-528C868,-534 862,-540 856,-540"/>
<text text-anchor="middle" x="800" y="-518.4" font-family="Times Roman,serif" font-size="14.00">MultiAZDatabase</text>
</g>
<!-- MultiAZDatabase&#45;&gt;MySQLDatabase -->
<g id="edge44" class="edge"><title>MultiAZDatabase&#45;&gt;MySQLDatabase</title>
<path fill="none" stroke="black" d="M738.862,-503.932C719.475,-495.646 699.369,-484 685,-468 628.464,-405.048 653.375,-366.973 623,-288 619.687,-279.387 615.84,-270.11 612.251,-261.716"/>
<polygon fill="black" stroke="black" points="615.387,-260.15 608.204,-252.362 608.962,-262.93 615.387,-260.15"/>
</g>
<!-- DBAllocatedStorage -->
<g id="node12" class="node"><title>DBAllocatedStorage</title>
<polygon fill="lightgrey" stroke="lightgrey" points="484,-540 354,-540 342,-528 342,-516 354,-504 484,-504 496,-516 496,-528 484,-540"/>
<path fill="lightgrey" stroke="lightgrey" d="M354,-540C348,-540 342,-534 342,-528"/>
<path fill="lightgrey" stroke="lightgrey" d="M342,-516C342,-510 348,-504 354,-504"/>
<path fill="lightgrey" stroke="lightgrey" d="M484,-504C490,-504 496,-510 496,-516"/>
<path fill="lightgrey" stroke="lightgrey" d="M496,-528C496,-534 490,-540 484,-540"/>
<polyline fill="none" stroke="black" points="484,-540 354,-540 "/>
<path fill="none" stroke="black" d="M354,-540C348,-540 342,-534 342,-528"/>
<polyline fill="none" stroke="black" points="342,-528 342,-516 "/>
<path fill="none" stroke="black" d="M342,-516C342,-510 348,-504 354,-504"/>
<polyline fill="none" stroke="black" points="354,-504 484,-504 "/>
<path fill="none" stroke="black" d="M484,-504C490,-504 496,-510 496,-516"/>
<polyline fill="none" stroke="black" points="496,-516 496,-528 "/>
<path fill="none" stroke="black" d="M496,-528C496,-534 490,-540 484,-540"/>
<text text-anchor="middle" x="419" y="-518.4" font-family="Times Roman,serif" font-size="14.00">DBAllocatedStorage</text>
</g>
<!-- DBAllocatedStorage&#45;&gt;MySQLDatabase -->
<g id="edge52" class="edge"><title>DBAllocatedStorage&#45;&gt;MySQLDatabase</title>
<path fill="none" stroke="black" d="M430.322,-503.984C461.177,-454.89 546.858,-318.558 583.276,-260.611"/>
<polygon fill="black" stroke="black" points="586.324,-262.338 588.682,-252.009 580.397,-258.613 586.324,-262.338"/>
</g>
<!-- InstanceType -->
<g id="node13" class="node"><title>InstanceType</title>
<polygon fill="lightgrey" stroke="lightgrey" points="94,-540 12,-540 3.78956e-14,-528 1.89478e-14,-516 12,-504 94,-504 106,-516 106,-528 94,-540"/>
<path fill="lightgrey" stroke="lightgrey" d="M12,-540C6,-540 4.73695e-14,-534 3.78956e-14,-528"/>
<path fill="lightgrey" stroke="lightgrey" d="M1.89478e-14,-516C9.4739e-15,-510 6,-504 12,-504"/>
<path fill="lightgrey" stroke="lightgrey" d="M94,-504C100,-504 106,-510 106,-516"/>
<path fill="lightgrey" stroke="lightgrey" d="M106,-528C106,-534 100,-540 94,-540"/>
<polyline fill="none" stroke="black" points="94,-540 12,-540 "/>
<path fill="none" stroke="black" d="M12,-540C6,-540 4.73695e-14,-534 3.78956e-14,-528"/>
<polyline fill="none" stroke="black" points="3.78956e-14,-528 1.89478e-14,-516 "/>
<path fill="none" stroke="black" d="M1.89478e-14,-516C9.4739e-15,-510 6,-504 12,-504"/>
<polyline fill="none" stroke="black" points="12,-504 94,-504 "/>
<path fill="none" stroke="black" d="M94,-504C100,-504 106,-510 106,-516"/>
<polyline fill="none" stroke="black" points="106,-516 106,-528 "/>
<path fill="none" stroke="black" d="M106,-528C106,-534 100,-540 94,-540"/>
<text text-anchor="middle" x="53" y="-518.4" font-family="Times Roman,serif" font-size="14.00">InstanceType</text>
</g>
<!-- InstanceType&#45;&gt;LaunchConfig -->
<g id="edge38" class="edge"><title>InstanceType&#45;&gt;LaunchConfig</title>
<path fill="none" stroke="black" d="M79.082,-503.976C114.003,-480.366 171,-435.167 171,-378 171,-378 171,-378 171,-306 171,-211.144 302.346,-178.555 384.871,-167.519"/>
<polygon fill="black" stroke="black" points="385.448,-170.974 394.93,-166.248 384.57,-164.03 385.448,-170.974"/>
</g>
<!-- InstanceType&#45;&gt;LaunchConfig -->
<g id="edge42" class="edge"><title>InstanceType&#45;&gt;LaunchConfig</title>
<path fill="none" stroke="black" d="M91.6701,-503.976C132.003,-480.366 189,-435.167 189,-378 189,-378 189,-378 189,-306 189,-216.009 307.218,-182.062 384.597,-169.393"/>
<polygon fill="black" stroke="black" points="385.415,-172.808 394.758,-167.812 384.339,-165.891 385.415,-172.808"/>
</g>
<!-- SSHLocation -->
<g id="node14" class="node"><title>SSHLocation</title>
<polygon fill="lightgrey" stroke="lightgrey" points="1126,-540 1046,-540 1034,-528 1034,-516 1046,-504 1126,-504 1138,-516 1138,-528 1126,-540"/>
<path fill="lightgrey" stroke="lightgrey" d="M1046,-540C1040,-540 1034,-534 1034,-528"/>
<path fill="lightgrey" stroke="lightgrey" d="M1034,-516C1034,-510 1040,-504 1046,-504"/>
<path fill="lightgrey" stroke="lightgrey" d="M1126,-504C1132,-504 1138,-510 1138,-516"/>
<path fill="lightgrey" stroke="lightgrey" d="M1138,-528C1138,-534 1132,-540 1126,-540"/>
<polyline fill="none" stroke="black" points="1126,-540 1046,-540 "/>
<path fill="none" stroke="black" d="M1046,-540C1040,-540 1034,-534 1034,-528"/>
<polyline fill="none" stroke="black" points="1034,-528 1034,-516 "/>
<path fill="none" stroke="black" d="M1034,-516C1034,-510 1040,-504 1046,-504"/>
<polyline fill="none" stroke="black" points="1046,-504 1126,-504 "/>
<path fill="none" stroke="black" d="M1126,-504C1132,-504 1138,-510 1138,-516"/>
<polyline fill="none" stroke="black" points="1138,-516 1138,-528 "/>
<path fill="none" stroke="black" d="M1138,-528C1138,-534 1132,-540 1126,-540"/>
<text text-anchor="middle" x="1086" y="-518.4" font-family="Times Roman,serif" font-size="14.00">SSHLocation</text>
</g>
<!-- SSHLocation&#45;&gt;WebServerSecurityGroup -->
<g id="edge10" class="edge"><title>SSHLocation&#45;&gt;WebServerSecurityGroup</title>
<path fill="none" stroke="black" d="M1033.76,-504.663C995.508,-491.592 949.078,-474.796 942,-468 924.784,-451.472 915.013,-425.923 909.704,-406.263"/>
<polygon fill="black" stroke="black" points="913.046,-405.193 907.257,-396.32 906.249,-406.866 913.046,-405.193"/>
</g>
<!-- KeyName -->
<g id="node15" class="node"><title>KeyName</title>
<polygon fill="lightgrey" stroke="lightgrey" points="192,-540 136,-540 124,-528 124,-516 136,-504 192,-504 204,-516 204,-528 192,-540"/>
<path fill="lightgrey" stroke="lightgrey" d="M136,-540C130,-540 124,-534 124,-528"/>
<path fill="lightgrey" stroke="lightgrey" d="M124,-516C124,-510 130,-504 136,-504"/>
<path fill="lightgrey" stroke="lightgrey" d="M192,-504C198,-504 204,-510 204,-516"/>
<path fill="lightgrey" stroke="lightgrey" d="M204,-528C204,-534 198,-540 192,-540"/>
<polyline fill="none" stroke="black" points="192,-540 136,-540 "/>
<path fill="none" stroke="black" d="M136,-540C130,-540 124,-534 124,-528"/>
<polyline fill="none" stroke="black" points="124,-528 124,-516 "/>
<path fill="none" stroke="black" d="M124,-516C124,-510 130,-504 136,-504"/>
<polyline fill="none" stroke="black" points="136,-504 192,-504 "/>
<path fill="none" stroke="black" d="M192,-504C198,-504 204,-510 204,-516"/>
<polyline fill="none" stroke="black" points="204,-516 204,-528 "/>
<path fill="none" stroke="black" d="M204,-528C204,-534 198,-540 192,-540"/>
<text text-anchor="middle" x="164" y="-518.4" font-family="Times Roman,serif" font-size="14.00">KeyName</text>
</g>
<!-- KeyName&#45;&gt;LaunchConfig -->
<g id="edge34" class="edge"><title>KeyName&#45;&gt;LaunchConfig</title>
<path fill="none" stroke="black" d="M179.899,-503.58C187.811,-493.608 196.952,-480.746 203,-468 220.747,-430.599 227,-419.398 227,-378 227,-378 227,-378 227,-306 227,-230.165 319.137,-192.324 384.963,-174.967"/>
<polygon fill="black" stroke="black" points="386.043,-178.304 394.876,-172.453 384.323,-171.518 386.043,-178.304"/>
</g>
<!-- DBPassword -->
<g id="node16" class="node"><title>DBPassword</title>
<polygon fill="lightgrey" stroke="lightgrey" points="312,-540 234,-540 222,-528 222,-516 234,-504 312,-504 324,-516 324,-528 312,-540"/>
<path fill="lightgrey" stroke="lightgrey" d="M234,-540C228,-540 222,-534 222,-528"/>
<path fill="lightgrey" stroke="lightgrey" d="M222,-516C222,-510 228,-504 234,-504"/>
<path fill="lightgrey" stroke="lightgrey" d="M312,-504C318,-504 324,-510 324,-516"/>
<path fill="lightgrey" stroke="lightgrey" d="M324,-528C324,-534 318,-540 312,-540"/>
<polyline fill="none" stroke="black" points="312,-540 234,-540 "/>
<path fill="none" stroke="black" d="M234,-540C228,-540 222,-534 222,-528"/>
<polyline fill="none" stroke="black" points="222,-528 222,-516 "/>
<path fill="none" stroke="black" d="M222,-516C222,-510 228,-504 234,-504"/>
<polyline fill="none" stroke="black" points="234,-504 312,-504 "/>
<path fill="none" stroke="black" d="M312,-504C318,-504 324,-510 324,-516"/>
<polyline fill="none" stroke="black" points="324,-516 324,-528 "/>
<path fill="none" stroke="black" d="M324,-528C324,-534 318,-540 312,-540"/>
<text text-anchor="middle" x="273" y="-518.4" font-family="Times Roman,serif" font-size="14.00">DBPassword</text>
</g>
<!-- DBPassword&#45;&gt;LaunchConfig -->
<g id="edge30" class="edge"><title>DBPassword&#45;&gt;LaunchConfig</title>
<path fill="none" stroke="black" d="M302.972,-503.951C338.515,-480.002 393,-434.136 393,-378 393,-378 393,-378 393,-306 393,-262.76 415.495,-217.019 432.221,-188.983"/>
<polygon fill="black" stroke="black" points="435.376,-190.535 437.632,-180.183 429.413,-186.869 435.376,-190.535"/>
</g>
<!-- DBPassword&#45;&gt;MySQLDatabase -->
<g id="edge50" class="edge"><title>DBPassword&#45;&gt;MySQLDatabase</title>
<path fill="none" stroke="black" d="M324.138,-504.661C355.993,-493.243 393.414,-478.517 407,-468 485.655,-407.111 473.138,-361.645 540,-288 549.217,-277.848 560.153,-267.568 570.148,-258.741"/>
<polygon fill="black" stroke="black" points="572.653,-261.201 577.911,-252.003 568.065,-255.915 572.653,-261.201"/>
</g>
<!-- DBInstanceClass -->
<g id="node17" class="node"><title>DBInstanceClass</title>
<polygon fill="lightgrey" stroke="lightgrey" points="1004,-540 898,-540 886,-528 886,-516 898,-504 1004,-504 1016,-516 1016,-528 1004,-540"/>
<path fill="lightgrey" stroke="lightgrey" d="M898,-540C892,-540 886,-534 886,-528"/>
<path fill="lightgrey" stroke="lightgrey" d="M886,-516C886,-510 892,-504 898,-504"/>
<path fill="lightgrey" stroke="lightgrey" d="M1004,-504C1010,-504 1016,-510 1016,-516"/>
<path fill="lightgrey" stroke="lightgrey" d="M1016,-528C1016,-534 1010,-540 1004,-540"/>
<polyline fill="none" stroke="black" points="1004,-540 898,-540 "/>
<path fill="none" stroke="black" d="M898,-540C892,-540 886,-534 886,-528"/>
<polyline fill="none" stroke="black" points="886,-528 886,-516 "/>
<path fill="none" stroke="black" d="M886,-516C886,-510 892,-504 898,-504"/>
<polyline fill="none" stroke="black" points="898,-504 1004,-504 "/>
<path fill="none" stroke="black" d="M1004,-504C1010,-504 1016,-510 1016,-516"/>
<polyline fill="none" stroke="black" points="1016,-516 1016,-528 "/>
<path fill="none" stroke="black" d="M1016,-528C1016,-534 1010,-540 1004,-540"/>
<text text-anchor="middle" x="951" y="-518.4" font-family="Times Roman,serif" font-size="14.00">DBInstanceClass</text>
</g>
<!-- DBInstanceClass&#45;&gt;MySQLDatabase -->
<g id="edge54" class="edge"><title>DBInstanceClass&#45;&gt;MySQLDatabase</title>
<path fill="none" stroke="black" d="M929.043,-503.984C868.471,-454.284 698.936,-315.178 629.86,-258.501"/>
<polygon fill="black" stroke="black" points="631.899,-255.646 621.948,-252.009 627.459,-261.058 631.899,-255.646"/>
</g>
<!-- DBName -->
<g id="node18" class="node"><title>DBName</title>
<polygon fill="lightgrey" stroke="lightgrey" points="702,-540 650,-540 638,-528 638,-516 650,-504 702,-504 714,-516 714,-528 702,-540"/>
<path fill="lightgrey" stroke="lightgrey" d="M650,-540C644,-540 638,-534 638,-528"/>
<path fill="lightgrey" stroke="lightgrey" d="M638,-516C638,-510 644,-504 650,-504"/>
<path fill="lightgrey" stroke="lightgrey" d="M702,-504C708,-504 714,-510 714,-516"/>
<path fill="lightgrey" stroke="lightgrey" d="M714,-528C714,-534 708,-540 702,-540"/>
<polyline fill="none" stroke="black" points="702,-540 650,-540 "/>
<path fill="none" stroke="black" d="M650,-540C644,-540 638,-534 638,-528"/>
<polyline fill="none" stroke="black" points="638,-528 638,-516 "/>
<path fill="none" stroke="black" d="M638,-516C638,-510 644,-504 650,-504"/>
<polyline fill="none" stroke="black" points="650,-504 702,-504 "/>
<path fill="none" stroke="black" d="M702,-504C708,-504 714,-510 714,-516"/>
<polyline fill="none" stroke="black" points="714,-516 714,-528 "/>
<path fill="none" stroke="black" d="M714,-528C714,-534 708,-540 702,-540"/>
<text text-anchor="middle" x="676" y="-518.4" font-family="Times Roman,serif" font-size="14.00">DBName</text>
</g>
<!-- DBName&#45;&gt;MySQLDatabase -->
<g id="edge56" class="edge"><title>DBName&#45;&gt;MySQLDatabase</title>
<path fill="none" stroke="black" d="M664.385,-503.637C658.413,-493.473 651.469,-480.415 647,-468 621.199,-396.325 608.217,-306.917 602.948,-262.209"/>
<polygon fill="black" stroke="black" points="606.405,-261.638 601.799,-252.097 599.45,-262.428 606.405,-261.638"/>
</g>
<!-- WebServerCapacity -->
<g id="node19" class="node"><title>WebServerCapacity</title>
<polygon fill="lightgrey" stroke="lightgrey" points="1311,-540 1183,-540 1171,-528 1171,-516 1183,-504 1311,-504 1323,-516 1323,-528 1311,-540"/>
<path fill="lightgrey" stroke="lightgrey" d="M1183,-540C1177,-540 1171,-534 1171,-528"/>
<path fill="lightgrey" stroke="lightgrey" d="M1171,-516C1171,-510 1177,-504 1183,-504"/>
<path fill="lightgrey" stroke="lightgrey" d="M1311,-504C1317,-504 1323,-510 1323,-516"/>
<path fill="lightgrey" stroke="lightgrey" d="M1323,-528C1323,-534 1317,-540 1311,-540"/>
<polyline fill="none" stroke="black" points="1311,-540 1183,-540 "/>
<path fill="none" stroke="black" d="M1183,-540C1177,-540 1171,-534 1171,-528"/>
<polyline fill="none" stroke="black" points="1171,-528 1171,-516 "/>
<path fill="none" stroke="black" d="M1171,-516C1171,-510 1177,-504 1183,-504"/>
<polyline fill="none" stroke="black" points="1183,-504 1311,-504 "/>
<path fill="none" stroke="black" d="M1311,-504C1317,-504 1323,-510 1323,-516"/>
<polyline fill="none" stroke="black" points="1323,-516 1323,-528 "/>
<path fill="none" stroke="black" d="M1323,-528C1323,-534 1317,-540 1311,-540"/>
<text text-anchor="middle" x="1247" y="-518.4" font-family="Times Roman,serif" font-size="14.00">WebServerCapacity</text>
</g>
<!-- WebServerCapacity&#45;&gt;WebServerGroup -->
<g id="edge12" class="edge"><title>WebServerCapacity&#45;&gt;WebServerGroup</title>
<path fill="none" stroke="black" d="M1252.73,-503.567C1260.65,-476.376 1274,-423.784 1274,-378 1274,-378 1274,-378 1274,-234 1274,-188.656 1244.16,-143.6 1221.88,-116.273"/>
<polygon fill="black" stroke="black" points="1224.36,-113.786 1215.25,-108.381 1219,-118.289 1224.36,-113.786"/>
</g>
<!-- WebServerCapacity&#45;&gt;WaitCondition -->
<g id="edge58" class="edge"><title>WebServerCapacity&#45;&gt;WaitCondition</title>
<path fill="none" stroke="black" d="M1244.72,-503.849C1241.5,-476.576 1236,-423.382 1236,-378 1236,-378 1236,-378 1236,-306 1236,-253.646 1188.41,-210.708 1152.44,-185.729"/>
<polygon fill="black" stroke="black" points="1154.29,-182.756 1144.04,-180.071 1150.38,-188.561 1154.29,-182.756"/>
</g>
<!-- AWS::StackId -->
<g id="node30" class="node"><title>AWS::StackId</title>
<polygon fill="none" stroke="black" points="365,-396 255,-396 255,-360 365,-360 365,-396"/>
<text text-anchor="middle" x="310" y="-374.4" font-family="Times Roman,serif" font-size="14.00">AWS::StackId</text>
</g>
<!-- AWS::StackId&#45;&gt;LaunchConfig -->
<g id="edge20" class="edge"><title>AWS::StackId&#45;&gt;LaunchConfig</title>
<path fill="none" stroke="black" d="M314.411,-359.886C322.81,-328.161 343.502,-261.586 379,-216 387.881,-204.594 399.726,-194.327 411.191,-185.884"/>
<polygon fill="black" stroke="black" points="413.276,-188.697 419.425,-180.069 409.238,-182.979 413.276,-188.697"/>
</g>
<!-- AWS::Region -->
<g id="node32" class="node"><title>AWS::Region</title>
<polygon fill="none" stroke="black" points="143,-252 39,-252 39,-216 143,-216 143,-252"/>
<text text-anchor="middle" x="91" y="-230.4" font-family="Times Roman,serif" font-size="14.00">AWS::Region</text>
</g>
<!-- AWS::Region&#45;&gt;LaunchConfig -->
<g id="edge40" class="edge"><title>AWS::Region&#45;&gt;LaunchConfig</title>
<path fill="none" stroke="black" d="M143.085,-217.147C144.738,-216.753 146.379,-216.37 148,-216 228.851,-197.559 323.351,-181.036 384.905,-171.262"/>
<polygon fill="black" stroke="black" points="385.536,-174.706 394.87,-169.694 384.448,-167.791 385.536,-174.706"/>
</g>
<!-- AWS::Region&#45;&gt;LaunchConfig -->
<g id="edge22" class="edge"><title>AWS::Region&#45;&gt;LaunchConfig</title>
<path fill="none" stroke="black" d="M143.041,-221.665C150.759,-219.661 158.589,-217.69 166,-216 240.69,-198.964 327.028,-183.566 384.794,-173.612"/>
<polygon fill="black" stroke="black" points="385.618,-177.022 394.881,-171.879 384.433,-170.123 385.618,-177.022"/>
</g>
</g>
</svg>
