<?xml version="1.0" encoding="UTF-8" standalone="no"?>
<!DOCTYPE svg PUBLIC "-//W3C//DTD SVG 1.1//EN"
 "http://www.w3.org/Graphics/SVG/1.1/DTD/svg11.dtd">
<!-- Generated by graphviz version 2.26.3 (20100126.1600)
 -->
<!-- Title: AWS CloudFormation Sample Template Mutually_Referencing_EC2_Security_Groups: Sample template showing how to create 2 EC2 security groups that mutually reference each other Pages: 1 -->
<svg width="278pt" height="116pt"
 viewBox="0.00 0.00 278.00 116.00" xmlns="http://www.w3.org/2000/svg" xmlns:xlink="http://www.w3.org/1999/xlink">
<g id="graph1" class="graph" transform="scale(1 1) rotate(0) translate(4 112)">
<title>AWS CloudFormation Sample Template Mutually_Referencing_EC2_Security_Groups: Sample template showing how to create 2 EC2 security groups that mutually reference each other</title>
<polygon fill="white" stroke="white" points="-4,5 -4,-112 275,-112 275,5 -4,5"/>
<!-- SGroup2Ingress -->
<g id="node1" class="node"><title>SGroup2Ingress</title>
<polygon fill="none" stroke="black" points="126,-36 4.26326e-14,-36 -7.10543e-15,-1.77636e-14 126,-3.55271e-15 126,-36"/>
<text text-anchor="middle" x="63" y="-14.4" font-family="Times Roman,serif" font-size="14.00">SGroup2Ingress</text>
</g>
<!-- SGroup1Ingress -->
<g id="node2" class="node"><title>SGroup1Ingress</title>
<polygon fill="none" stroke="black" points="270,-36 144,-36 144,-1.77636e-14 270,-3.55271e-15 270,-36"/>
<text text-anchor="middle" x="207" y="-14.4" font-family="Times Roman,serif" font-size="14.00">SGroup1Ingress</text>
</g>
<!-- SGroup2 -->
<g id="node3" class="node"><title>SGroup2</title>
<polygon fill="none" stroke="black" points="113,-108 37,-108 37,-72 113,-72 113,-108"/>
<text text-anchor="middle" x="75" y="-86.4" font-family="Times Roman,serif" font-size="14.00">SGroup2</text>
</g>
<!-- SGroup2&#45;&gt;SGroup2Ingress -->
<g id="edge2" class="edge"><title>SGroup2&#45;&gt;SGroup2Ingress</title>
<path fill="none" stroke="black" d="M71.9719,-71.8314C70.6885,-64.131 69.1624,-54.9743 67.7361,-46.4166"/>
<polygon fill="black" stroke="black" points="71.1653,-45.7018 66.0689,-36.4133 64.2606,-46.8526 71.1653,-45.7018"/>
</g>
<!-- SGroup2&#45;&gt;SGroup1Ingress -->
<g id="edge8" class="edge"><title>SGroup2&#45;&gt;SGroup1Ingress</title>
<path fill="none" stroke="black" d="M108.309,-71.8314C125.427,-62.4942 146.471,-51.016 164.722,-41.0606"/>
<polygon fill="black" stroke="black" points="166.599,-44.024 173.701,-36.1628 163.247,-37.8788 166.599,-44.024"/>
</g>
<!-- SGroup1 -->
<g id="node4" class="node"><title>SGroup1</title>
<polygon fill="none" stroke="black" points="232,-108 156,-108 156,-72 232,-72 232,-108"/>
<text text-anchor="middle" x="194" y="-86.4" font-family="Times Roman,serif" font-size="14.00">SGroup1</text>
</g>
<!-- SGroup1&#45;&gt;SGroup2Ingress -->
<g id="edge4" class="edge"><title>SGroup1&#45;&gt;SGroup2Ingress</title>
<path fill="none" stroke="black" d="M160.943,-71.8314C144.032,-62.5368 123.261,-51.1208 105.206,-41.1971"/>
<polygon fill="black" stroke="black" points="106.496,-37.9122 96.0463,-36.1628 103.124,-44.0468 106.496,-37.9122"/>
</g>
<!-- SGroup1&#45;&gt;SGroup1Ingress -->
<g id="edge6" class="edge"><title>SGroup1&#45;&gt;SGroup1Ingress</title>
<path fill="none" stroke="black" d="M197.28,-71.8314C198.671,-64.131 200.324,-54.9743 201.869,-46.4166"/>
<polygon fill="black" stroke="black" points="205.343,-46.8761 203.675,-36.4133 198.454,-45.6322 205.343,-46.8761"/>
</g>
</g>
</svg>
