<?xml version="1.0" encoding="UTF-8" standalone="no"?>
<!DOCTYPE svg PUBLIC "-//W3C//DTD SVG 1.1//EN"
 "http://www.w3.org/Graphics/SVG/1.1/DTD/svg11.dtd">
<!-- Generated by graphviz version 2.26.3 (20100126.1600)
 -->
<!-- Title: Sample template to bring up Puppet Master instance that can be used to bootstrap and manage Puppet Clients. The Puppet Master is populated from an embedded template that defines the set of applications to load. **WARNING** This template creates one or more Amazon EC2 instances. You will be billed for the AWS resources used if you create a stack from this template. Pages: 1 -->
<svg width="974pt" height="332pt"
 viewBox="0.00 0.00 974.00 332.00" xmlns="http://www.w3.org/2000/svg" xmlns:xlink="http://www.w3.org/1999/xlink">
<g id="graph1" class="graph" transform="scale(1 1) rotate(0) translate(4 328)">
<title>Sample template to bring up Puppet Master instance that can be used to bootstrap and manage Puppet Clients. The Puppet Master is populated from an embedded template that defines the set of applications to load. **WARNING** This template creates one or more Amazon EC2 instances. You will be billed for the AWS resources used if you create a stack from this template.</title>
<polygon fill="white" stroke="white" points="-4,5 -4,-328 971,-328 971,5 -4,5"/>
<!-- PuppetGroup -->
<g id="node1" class="node"><title>PuppetGroup</title>
<polygon fill="none" stroke="black" points="621,-180 513,-180 513,-144 621,-144 621,-180"/>
<text text-anchor="middle" x="567" y="-158.4" font-family="Times Roman,serif" font-size="14.00">PuppetGroup</text>
</g>
<!-- PuppetMasterInstance -->
<g id="node2" class="node"><title>PuppetMasterInstance</title>
<polygon fill="none" stroke="black" points="450,-108 280,-108 280,-72 450,-72 450,-108"/>
<text text-anchor="middle" x="365" y="-86.4" font-family="Times Roman,serif" font-size="14.00">PuppetMasterInstance</text>
</g>
<!-- PuppetGroup&#45;&gt;PuppetMasterInstance -->
<g id="edge16" class="edge"><title>PuppetGroup&#45;&gt;PuppetMasterInstance</title>
<path fill="none" stroke="black" d="M516.288,-143.924C488.673,-134.081 454.325,-121.839 425.34,-111.507"/>
<polygon fill="black" stroke="black" points="426.328,-108.144 415.733,-108.083 423.978,-114.737 426.328,-108.144"/>
</g>
<!-- PuppetMasterDNSName -->
<g id="node13" class="node"><title>PuppetMasterDNSName</title>
<polygon fill="lightgrey" stroke="lightgrey" points="444,-36 286,-36 274,-24 274,-12 286,-1.68266e-14 444,-4.48969e-15 456,-12 456,-24 444,-36"/>
<path fill="lightgrey" stroke="lightgrey" d="M286,-36C280,-36 274,-30 274,-24"/>
<path fill="lightgrey" stroke="lightgrey" d="M274,-12C274,-6 280,-1.72951e-14 286,-1.68266e-14"/>
<path fill="lightgrey" stroke="lightgrey" d="M444,-4.48969e-15C450,-4.0212e-15 456,-6 456,-12"/>
<path fill="lightgrey" stroke="lightgrey" d="M456,-24C456,-30 450,-36 444,-36"/>
<polyline fill="none" stroke="black" points="444,-36 286,-36 "/>
<path fill="none" stroke="black" d="M286,-36C280,-36 274,-30 274,-24"/>
<polyline fill="none" stroke="black" points="274,-24 274,-12 "/>
<path fill="none" stroke="black" d="M274,-12C274,-6 280,-1.72951e-14 286,-1.68266e-14"/>
<polyline fill="none" stroke="black" points="286,-1.68266e-14 444,-4.48969e-15 "/>
<path fill="none" stroke="black" d="M444,-4.48969e-15C450,-4.0212e-15 456,-6 456,-12"/>
<polyline fill="none" stroke="black" points="456,-12 456,-24 "/>
<path fill="none" stroke="black" d="M456,-24C456,-30 450,-36 444,-36"/>
<text text-anchor="middle" x="365" y="-14.4" font-family="Times Roman,serif" font-size="14.00">PuppetMasterDNSName</text>
</g>
<!-- PuppetMasterInstance&#45;&gt;PuppetMasterDNSName -->
<g id="edge30" class="edge"><title>PuppetMasterInstance&#45;&gt;PuppetMasterDNSName</title>
<path fill="none" stroke="black" d="M365,-71.8314C365,-64.131 365,-54.9743 365,-46.4166"/>
<polygon fill="black" stroke="black" points="368.5,-46.4132 365,-36.4133 361.5,-46.4133 368.5,-46.4132"/>
</g>
<!-- PuppetMasterWaitCondition -->
<g id="node3" class="node"><title>PuppetMasterWaitCondition</title>
<polygon fill="none" stroke="black" points="835,-108 625,-108 625,-72 835,-72 835,-108"/>
<text text-anchor="middle" x="730" y="-86.4" font-family="Times Roman,serif" font-size="14.00">PuppetMasterWaitCondition</text>
</g>
<!-- EC2SecurityGroup -->
<g id="node4" class="node"><title>EC2SecurityGroup</title>
<polygon fill="none" stroke="black" points="836,-252 692,-252 692,-216 836,-216 836,-252"/>
<text text-anchor="middle" x="764" y="-230.4" font-family="Times Roman,serif" font-size="14.00">EC2SecurityGroup</text>
</g>
<!-- EC2SecurityGroup&#45;&gt;PuppetGroup -->
<g id="edge4" class="edge"><title>EC2SecurityGroup&#45;&gt;PuppetGroup</title>
<path fill="none" stroke="black" d="M714.543,-215.924C687.729,-206.124 654.405,-193.945 626.215,-183.642"/>
<polygon fill="black" stroke="black" points="627.071,-180.229 616.477,-180.083 624.668,-186.803 627.071,-180.229"/>
</g>
<!-- PuppetClientSecurityGroup -->
<g id="node14" class="node"><title>PuppetClientSecurityGroup</title>
<polygon fill="lightgrey" stroke="lightgrey" points="954,-36 772,-36 760,-24 760,-12 772,-1.69358e-14 954,-4.38053e-15 966,-12 966,-24 954,-36"/>
<path fill="lightgrey" stroke="lightgrey" d="M772,-36C766,-36 760,-30 760,-24"/>
<path fill="lightgrey" stroke="lightgrey" d="M760,-12C760,-6 766,-1.73497e-14 772,-1.69358e-14"/>
<path fill="lightgrey" stroke="lightgrey" d="M954,-4.38053e-15C960,-3.96662e-15 966,-6 966,-12"/>
<path fill="lightgrey" stroke="lightgrey" d="M966,-24C966,-30 960,-36 954,-36"/>
<polyline fill="none" stroke="black" points="954,-36 772,-36 "/>
<path fill="none" stroke="black" d="M772,-36C766,-36 760,-30 760,-24"/>
<polyline fill="none" stroke="black" points="760,-24 760,-12 "/>
<path fill="none" stroke="black" d="M760,-12C760,-6 766,-1.73497e-14 772,-1.69358e-14"/>
<polyline fill="none" stroke="black" points="772,-1.69358e-14 954,-4.38053e-15 "/>
<path fill="none" stroke="black" d="M954,-4.38053e-15C960,-3.96662e-15 966,-6 966,-12"/>
<polyline fill="none" stroke="black" points="966,-12 966,-24 "/>
<path fill="none" stroke="black" d="M966,-24C966,-30 960,-36 954,-36"/>
<text text-anchor="middle" x="863" y="-14.4" font-family="Times Roman,serif" font-size="14.00">PuppetClientSecurityGroup</text>
</g>
<!-- EC2SecurityGroup&#45;&gt;PuppetClientSecurityGroup -->
<g id="edge32" class="edge"><title>EC2SecurityGroup&#45;&gt;PuppetClientSecurityGroup</title>
<path fill="none" stroke="black" d="M801.321,-215.937C815.683,-207.094 830.823,-195.068 840,-180 865.2,-138.624 867.032,-80.4801 865.446,-46.2722"/>
<polygon fill="black" stroke="black" points="868.927,-45.8322 864.837,-36.0585 861.939,-46.2492 868.927,-45.8322"/>
</g>
<!-- PuppetMasterWaitHandle -->
<g id="node5" class="node"><title>PuppetMasterWaitHandle</title>
<polygon fill="none" stroke="black" points="831,-180 639,-180 639,-144 831,-144 831,-180"/>
<text text-anchor="middle" x="735" y="-158.4" font-family="Times Roman,serif" font-size="14.00">PuppetMasterWaitHandle</text>
</g>
<!-- PuppetMasterWaitHandle&#45;&gt;PuppetMasterInstance -->
<g id="edge12" class="edge"><title>PuppetMasterWaitHandle&#45;&gt;PuppetMasterInstance</title>
<path fill="none" stroke="black" d="M642.111,-143.924C586.476,-133.098 515.921,-119.368 459.928,-108.472"/>
<polygon fill="black" stroke="black" points="460.49,-105.016 450.006,-106.542 459.153,-111.887 460.49,-105.016"/>
</g>
<!-- PuppetMasterWaitHandle&#45;&gt;PuppetMasterWaitCondition -->
<g id="edge28" class="edge"><title>PuppetMasterWaitHandle&#45;&gt;PuppetMasterWaitCondition</title>
<path fill="none" stroke="black" d="M733.738,-143.831C733.204,-136.131 732.568,-126.974 731.973,-118.417"/>
<polygon fill="black" stroke="black" points="735.463,-118.147 731.279,-108.413 728.48,-118.632 735.463,-118.147"/>
</g>
<!-- SSHLocation -->
<g id="node7" class="node"><title>SSHLocation</title>
<polygon fill="lightgrey" stroke="lightgrey" points="610,-324 530,-324 518,-312 518,-300 530,-288 610,-288 622,-300 622,-312 610,-324"/>
<path fill="lightgrey" stroke="lightgrey" d="M530,-324C524,-324 518,-318 518,-312"/>
<path fill="lightgrey" stroke="lightgrey" d="M518,-300C518,-294 524,-288 530,-288"/>
<path fill="lightgrey" stroke="lightgrey" d="M610,-288C616,-288 622,-294 622,-300"/>
<path fill="lightgrey" stroke="lightgrey" d="M622,-312C622,-318 616,-324 610,-324"/>
<polyline fill="none" stroke="black" points="610,-324 530,-324 "/>
<path fill="none" stroke="black" d="M530,-324C524,-324 518,-318 518,-312"/>
<polyline fill="none" stroke="black" points="518,-312 518,-300 "/>
<path fill="none" stroke="black" d="M518,-300C518,-294 524,-288 530,-288"/>
<polyline fill="none" stroke="black" points="530,-288 610,-288 "/>
<path fill="none" stroke="black" d="M610,-288C616,-288 622,-294 622,-300"/>
<polyline fill="none" stroke="black" points="622,-300 622,-312 "/>
<path fill="none" stroke="black" d="M622,-312C622,-318 616,-324 610,-324"/>
<text text-anchor="middle" x="570" y="-302.4" font-family="Times Roman,serif" font-size="14.00">SSHLocation</text>
</g>
<!-- SSHLocation&#45;&gt;PuppetGroup -->
<g id="edge6" class="edge"><title>SSHLocation&#45;&gt;PuppetGroup</title>
<path fill="none" stroke="black" d="M569.62,-287.762C569.108,-263.201 568.193,-219.247 567.591,-190.354"/>
<polygon fill="black" stroke="black" points="571.084,-190.015 567.377,-180.09 564.086,-190.16 571.084,-190.015"/>
</g>
<!-- KeyName -->
<g id="node8" class="node"><title>KeyName</title>
<polygon fill="lightgrey" stroke="lightgrey" points="68,-324 12,-324 2.84217e-14,-312 1.42109e-14,-300 12,-288 68,-288 80,-300 80,-312 68,-324"/>
<path fill="lightgrey" stroke="lightgrey" d="M12,-324C6,-324 3.55271e-14,-318 2.84217e-14,-312"/>
<path fill="lightgrey" stroke="lightgrey" d="M1.42109e-14,-300C7.10543e-15,-294 6,-288 12,-288"/>
<path fill="lightgrey" stroke="lightgrey" d="M68,-288C74,-288 80,-294 80,-300"/>
<path fill="lightgrey" stroke="lightgrey" d="M80,-312C80,-318 74,-324 68,-324"/>
<polyline fill="none" stroke="black" points="68,-324 12,-324 "/>
<path fill="none" stroke="black" d="M12,-324C6,-324 3.55271e-14,-318 2.84217e-14,-312"/>
<polyline fill="none" stroke="black" points="2.84217e-14,-312 1.42109e-14,-300 "/>
<path fill="none" stroke="black" d="M1.42109e-14,-300C7.10543e-15,-294 6,-288 12,-288"/>
<polyline fill="none" stroke="black" points="12,-288 68,-288 "/>
<path fill="none" stroke="black" d="M68,-288C74,-288 80,-294 80,-300"/>
<polyline fill="none" stroke="black" points="80,-300 80,-312 "/>
<path fill="none" stroke="black" d="M80,-312C80,-318 74,-324 68,-324"/>
<text text-anchor="middle" x="40" y="-302.4" font-family="Times Roman,serif" font-size="14.00">KeyName</text>
</g>
<!-- KeyName&#45;&gt;PuppetMasterInstance -->
<g id="edge14" class="edge"><title>KeyName&#45;&gt;PuppetMasterInstance</title>
<path fill="none" stroke="black" d="M64.5976,-287.805C106.459,-257.073 194.551,-193.404 272,-144 288.601,-133.41 307.309,-122.38 323.569,-113.071"/>
<polygon fill="black" stroke="black" points="325.362,-116.078 332.322,-108.089 321.9,-109.994 325.362,-116.078"/>
</g>
<!-- InstanceType -->
<g id="node9" class="node"><title>InstanceType</title>
<polygon fill="lightgrey" stroke="lightgrey" points="192,-324 110,-324 98,-312 98,-300 110,-288 192,-288 204,-300 204,-312 192,-324"/>
<path fill="lightgrey" stroke="lightgrey" d="M110,-324C104,-324 98,-318 98,-312"/>
<path fill="lightgrey" stroke="lightgrey" d="M98,-300C98,-294 104,-288 110,-288"/>
<path fill="lightgrey" stroke="lightgrey" d="M192,-288C198,-288 204,-294 204,-300"/>
<path fill="lightgrey" stroke="lightgrey" d="M204,-312C204,-318 198,-324 192,-324"/>
<polyline fill="none" stroke="black" points="192,-324 110,-324 "/>
<path fill="none" stroke="black" d="M110,-324C104,-324 98,-318 98,-312"/>
<polyline fill="none" stroke="black" points="98,-312 98,-300 "/>
<path fill="none" stroke="black" d="M98,-300C98,-294 104,-288 110,-288"/>
<polyline fill="none" stroke="black" points="110,-288 192,-288 "/>
<path fill="none" stroke="black" d="M192,-288C198,-288 204,-294 204,-300"/>
<polyline fill="none" stroke="black" points="204,-300 204,-312 "/>
<path fill="none" stroke="black" d="M204,-312C204,-318 198,-324 192,-324"/>
<text text-anchor="middle" x="151" y="-302.4" font-family="Times Roman,serif" font-size="14.00">InstanceType</text>
</g>
<!-- InstanceType&#45;&gt;PuppetMasterInstance -->
<g id="edge18" class="edge"><title>InstanceType&#45;&gt;PuppetMasterInstance</title>
<path fill="none" stroke="black" d="M164.932,-287.955C199.551,-249.441 288.85,-159.116 335.662,-115.056"/>
<polygon fill="black" stroke="black" points="338.145,-117.527 343.068,-108.145 333.369,-112.409 338.145,-117.527"/>
</g>
<!-- InstanceType&#45;&gt;PuppetMasterInstance -->
<g id="edge22" class="edge"><title>InstanceType&#45;&gt;PuppetMasterInstance</title>
<path fill="none" stroke="black" d="M172.823,-287.955C214.348,-249.6 303.459,-159.86 344.186,-115.604"/>
<polygon fill="black" stroke="black" points="346.833,-117.895 350.978,-108.145 341.657,-113.182 346.833,-117.895"/>
</g>
<!-- ContentManifest -->
<g id="node10" class="node"><title>ContentManifest</title>
<polygon fill="lightgrey" stroke="lightgrey" points="340,-324 234,-324 222,-312 222,-300 234,-288 340,-288 352,-300 352,-312 340,-324"/>
<path fill="lightgrey" stroke="lightgrey" d="M234,-324C228,-324 222,-318 222,-312"/>
<path fill="lightgrey" stroke="lightgrey" d="M222,-300C222,-294 228,-288 234,-288"/>
<path fill="lightgrey" stroke="lightgrey" d="M340,-288C346,-288 352,-294 352,-300"/>
<path fill="lightgrey" stroke="lightgrey" d="M352,-312C352,-318 346,-324 340,-324"/>
<polyline fill="none" stroke="black" points="340,-324 234,-324 "/>
<path fill="none" stroke="black" d="M234,-324C228,-324 222,-318 222,-312"/>
<polyline fill="none" stroke="black" points="222,-312 222,-300 "/>
<path fill="none" stroke="black" d="M222,-300C222,-294 228,-288 234,-288"/>
<polyline fill="none" stroke="black" points="234,-288 340,-288 "/>
<path fill="none" stroke="black" d="M340,-288C346,-288 352,-294 352,-300"/>
<polyline fill="none" stroke="black" points="352,-300 352,-312 "/>
<path fill="none" stroke="black" d="M352,-312C352,-318 346,-324 340,-324"/>
<text text-anchor="middle" x="287" y="-302.4" font-family="Times Roman,serif" font-size="14.00">ContentManifest</text>
</g>
<!-- ContentManifest&#45;&gt;PuppetMasterInstance -->
<g id="edge24" class="edge"><title>ContentManifest&#45;&gt;PuppetMasterInstance</title>
<path fill="none" stroke="black" d="M291.515,-287.65C299.254,-257.223 316.243,-194.66 337,-144 340.665,-135.054 345.29,-125.601 349.719,-117.147"/>
<polygon fill="black" stroke="black" points="352.926,-118.573 354.575,-108.107 346.759,-115.261 352.926,-118.573"/>
</g>
<!-- ContentLocation -->
<g id="node11" class="node"><title>ContentLocation</title>
<polygon fill="lightgrey" stroke="lightgrey" points="488,-324 382,-324 370,-312 370,-300 382,-288 488,-288 500,-300 500,-312 488,-324"/>
<path fill="lightgrey" stroke="lightgrey" d="M382,-324C376,-324 370,-318 370,-312"/>
<path fill="lightgrey" stroke="lightgrey" d="M370,-300C370,-294 376,-288 382,-288"/>
<path fill="lightgrey" stroke="lightgrey" d="M488,-288C494,-288 500,-294 500,-300"/>
<path fill="lightgrey" stroke="lightgrey" d="M500,-312C500,-318 494,-324 488,-324"/>
<polyline fill="none" stroke="black" points="488,-324 382,-324 "/>
<path fill="none" stroke="black" d="M382,-324C376,-324 370,-318 370,-312"/>
<polyline fill="none" stroke="black" points="370,-312 370,-300 "/>
<path fill="none" stroke="black" d="M370,-300C370,-294 376,-288 382,-288"/>
<polyline fill="none" stroke="black" points="382,-288 488,-288 "/>
<path fill="none" stroke="black" d="M488,-288C494,-288 500,-294 500,-300"/>
<polyline fill="none" stroke="black" points="500,-300 500,-312 "/>
<path fill="none" stroke="black" d="M500,-312C500,-318 494,-324 488,-324"/>
<text text-anchor="middle" x="435" y="-302.4" font-family="Times Roman,serif" font-size="14.00">ContentLocation</text>
</g>
<!-- ContentLocation&#45;&gt;PuppetMasterInstance -->
<g id="edge26" class="edge"><title>ContentLocation&#45;&gt;PuppetMasterInstance</title>
<path fill="none" stroke="black" d="M415.869,-287.672C393.612,-264.889 358.113,-223.647 344,-180 337.336,-159.39 343.54,-135.489 350.894,-117.499"/>
<polygon fill="black" stroke="black" points="354.176,-118.733 355.023,-108.172 347.775,-115.899 354.176,-118.733"/>
</g>
<!-- AWS::Region -->
<g id="node17" class="node"><title>AWS::Region</title>
<polygon fill="none" stroke="black" points="457,-180 353,-180 353,-144 457,-144 457,-180"/>
<text text-anchor="middle" x="405" y="-158.4" font-family="Times Roman,serif" font-size="14.00">AWS::Region</text>
</g>
<!-- AWS::Region&#45;&gt;PuppetMasterInstance -->
<g id="edge8" class="edge"><title>AWS::Region&#45;&gt;PuppetMasterInstance</title>
<path fill="none" stroke="black" d="M388.954,-143.831C383.76,-135.877 378.267,-126.369 373.735,-117.572"/>
<polygon fill="black" stroke="black" points="376.793,-115.857 369.254,-108.413 370.505,-118.934 376.793,-115.857"/>
</g>
<!-- AWS::Region&#45;&gt;PuppetMasterInstance -->
<g id="edge20" class="edge"><title>AWS::Region&#45;&gt;PuppetMasterInstance</title>
<path fill="none" stroke="black" d="M400.859,-143.831C397.137,-135.708 391.926,-125.964 386.566,-117.012"/>
<polygon fill="black" stroke="black" points="389.466,-115.048 381.206,-108.413 383.526,-118.751 389.466,-115.048"/>
</g>
<!-- AWS::StackId -->
<g id="node19" class="node"><title>AWS::StackId</title>
<polygon fill="none" stroke="black" points="540,-252 430,-252 430,-216 540,-216 540,-252"/>
<text text-anchor="middle" x="485" y="-230.4" font-family="Times Roman,serif" font-size="14.00">AWS::StackId</text>
</g>
<!-- AWS::StackId&#45;&gt;PuppetMasterInstance -->
<g id="edge10" class="edge"><title>AWS::StackId&#45;&gt;PuppetMasterInstance</title>
<path fill="none" stroke="black" d="M485.501,-215.956C485.139,-196.369 481.819,-165.073 466,-144 456.115,-130.831 442.056,-120.532 427.558,-112.623"/>
<polygon fill="black" stroke="black" points="429.006,-109.432 418.508,-108.003 425.823,-115.667 429.006,-109.432"/>
</g>
</g>
</svg>
