<?xml version="1.0" encoding="UTF-8" standalone="no"?>
<!DOCTYPE svg PUBLIC "-//W3C//DTD SVG 1.1//EN"
 "http://www.w3.org/Graphics/SVG/1.1/DTD/svg11.dtd">
<!-- Generated by graphviz version 2.26.3 (20100126.1600)
 -->
<!-- Title: AWS CloudFormation Sample Template Rails_Single_Instance: Create a Ruby on Rails stack using a single EC2 instance with a local MySQL database for storage. This template demonstrates using the AWS CloudFormation bootstrap scripts to install the packages and files necessary to deploy the packages and files at instance launch time. **WARNING** This template creates an Amazon EC2 instance. You will be billed for the AWS resources used if you create a stack from this template. Pages: 1 -->
<svg width="1005pt" height="260pt"
 viewBox="0.00 0.00 1005.00 260.00" xmlns="http://www.w3.org/2000/svg" xmlns:xlink="http://www.w3.org/1999/xlink">
<g id="graph1" class="graph" transform="scale(1 1) rotate(0) translate(4 256)">
<title>AWS CloudFormation Sample Template Rails_Single_Instance: Create a Ruby on Rails stack using a single EC2 instance with a local MySQL database for storage. This template demonstrates using the AWS CloudFormation bootstrap scripts to install the packages and files necessary to deploy the packages and files at instance launch time. **WARNING** This template creates an Amazon EC2 instance. You will be billed for the AWS resources used if you create a stack from this template.</title>
<polygon fill="white" stroke="white" points="-4,5 -4,-256 1002,-256 1002,5 -4,5"/>
<!-- FrontendGroup -->
<g id="node1" class="node"><title>FrontendGroup</title>
<polygon fill="none" stroke="black" points="874,-180 752,-180 752,-144 874,-144 874,-180"/>
<text text-anchor="middle" x="813" y="-158.4" font-family="Times Roman,serif" font-size="14.00">FrontendGroup</text>
</g>
<!-- WebServer -->
<g id="node2" class="node"><title>WebServer</title>
<polygon fill="none" stroke="black" points="455,-108 363,-108 363,-72 455,-72 455,-108"/>
<text text-anchor="middle" x="409" y="-86.4" font-family="Times Roman,serif" font-size="14.00">WebServer</text>
</g>
<!-- FrontendGroup&#45;&gt;WebServer -->
<g id="edge20" class="edge"><title>FrontendGroup&#45;&gt;WebServer</title>
<path fill="none" stroke="black" d="M751.994,-145.963C748.958,-145.275 745.948,-144.616 743,-144 646.125,-123.758 532.091,-106.77 465.446,-97.5204"/>
<polygon fill="black" stroke="black" points="465.552,-94.0019 455.167,-96.1031 464.595,-100.936 465.552,-94.0019"/>
</g>
<!-- WebsiteURL -->
<g id="node14" class="node"><title>WebsiteURL</title>
<polygon fill="lightgrey" stroke="lightgrey" points="447,-36 371,-36 359,-24 359,-12 371,-1.60583e-14 447,-5.25802e-15 459,-12 459,-24 447,-36"/>
<path fill="lightgrey" stroke="lightgrey" d="M371,-36C365,-36 359,-30 359,-24"/>
<path fill="lightgrey" stroke="lightgrey" d="M359,-12C359,-6 365,-1.69109e-14 371,-1.60583e-14"/>
<path fill="lightgrey" stroke="lightgrey" d="M447,-5.25802e-15C453,-4.40536e-15 459,-6 459,-12"/>
<path fill="lightgrey" stroke="lightgrey" d="M459,-24C459,-30 453,-36 447,-36"/>
<polyline fill="none" stroke="black" points="447,-36 371,-36 "/>
<path fill="none" stroke="black" d="M371,-36C365,-36 359,-30 359,-24"/>
<polyline fill="none" stroke="black" points="359,-24 359,-12 "/>
<path fill="none" stroke="black" d="M359,-12C359,-6 365,-1.69109e-14 371,-1.60583e-14"/>
<polyline fill="none" stroke="black" points="371,-1.60583e-14 447,-5.25802e-15 "/>
<path fill="none" stroke="black" d="M447,-5.25802e-15C453,-4.40536e-15 459,-6 459,-12"/>
<polyline fill="none" stroke="black" points="459,-12 459,-24 "/>
<path fill="none" stroke="black" d="M459,-24C459,-30 453,-36 447,-36"/>
<text text-anchor="middle" x="409" y="-14.4" font-family="Times Roman,serif" font-size="14.00">WebsiteURL</text>
</g>
<!-- WebServer&#45;&gt;WebsiteURL -->
<g id="edge44" class="edge"><title>WebServer&#45;&gt;WebsiteURL</title>
<path fill="none" stroke="black" d="M409,-71.8314C409,-64.131 409,-54.9743 409,-46.4166"/>
<polygon fill="black" stroke="black" points="412.5,-46.4132 409,-36.4133 405.5,-46.4133 412.5,-46.4132"/>
</g>
<!-- WaitCondition -->
<g id="node3" class="node"><title>WaitCondition</title>
<polygon fill="none" stroke="black" points="997,-108 883,-108 883,-72 997,-72 997,-108"/>
<text text-anchor="middle" x="940" y="-86.4" font-family="Times Roman,serif" font-size="14.00">WaitCondition</text>
</g>
<!-- WaitHandle -->
<g id="node4" class="node"><title>WaitHandle</title>
<polygon fill="none" stroke="black" points="988,-180 892,-180 892,-144 988,-144 988,-180"/>
<text text-anchor="middle" x="940" y="-158.4" font-family="Times Roman,serif" font-size="14.00">WaitHandle</text>
</g>
<!-- WaitHandle&#45;&gt;WebServer -->
<g id="edge6" class="edge"><title>WaitHandle&#45;&gt;WebServer</title>
<path fill="none" stroke="black" d="M891.807,-148.511C885.821,-146.806 879.786,-145.231 874,-144 728.28,-112.993 553.319,-98.8996 465.276,-93.2596"/>
<polygon fill="black" stroke="black" points="465.434,-89.7627 455.234,-92.6289 464.995,-96.7489 465.434,-89.7627"/>
</g>
<!-- WaitHandle&#45;&gt;WebServer -->
<g id="edge16" class="edge"><title>WaitHandle&#45;&gt;WebServer</title>
<path fill="none" stroke="black" d="M892.305,-144.065C892.203,-144.043 892.102,-144.022 892,-144 739.892,-111.634 555.923,-97.6964 465.105,-92.5659"/>
<polygon fill="black" stroke="black" points="465.205,-89.0661 455.027,-92.0114 464.82,-96.0555 465.205,-89.0661"/>
</g>
<!-- WaitHandle&#45;&gt;WaitCondition -->
<g id="edge42" class="edge"><title>WaitHandle&#45;&gt;WaitCondition</title>
<path fill="none" stroke="black" d="M940,-143.831C940,-136.131 940,-126.974 940,-118.417"/>
<polygon fill="black" stroke="black" points="943.5,-118.413 940,-108.413 936.5,-118.413 943.5,-118.413"/>
</g>
<!-- DBUsername -->
<g id="node6" class="node"><title>DBUsername</title>
<polygon fill="lightgrey" stroke="lightgrey" points="94,-252 12,-252 3.78956e-14,-240 1.89478e-14,-228 12,-216 94,-216 106,-228 106,-240 94,-252"/>
<path fill="lightgrey" stroke="lightgrey" d="M12,-252C6,-252 4.73695e-14,-246 3.78956e-14,-240"/>
<path fill="lightgrey" stroke="lightgrey" d="M1.89478e-14,-228C9.4739e-15,-222 6,-216 12,-216"/>
<path fill="lightgrey" stroke="lightgrey" d="M94,-216C100,-216 106,-222 106,-228"/>
<path fill="lightgrey" stroke="lightgrey" d="M106,-240C106,-246 100,-252 94,-252"/>
<polyline fill="none" stroke="black" points="94,-252 12,-252 "/>
<path fill="none" stroke="black" d="M12,-252C6,-252 4.73695e-14,-246 3.78956e-14,-240"/>
<polyline fill="none" stroke="black" points="3.78956e-14,-240 1.89478e-14,-228 "/>
<path fill="none" stroke="black" d="M1.89478e-14,-228C9.4739e-15,-222 6,-216 12,-216"/>
<polyline fill="none" stroke="black" points="12,-216 94,-216 "/>
<path fill="none" stroke="black" d="M94,-216C100,-216 106,-222 106,-228"/>
<polyline fill="none" stroke="black" points="106,-228 106,-240 "/>
<path fill="none" stroke="black" d="M106,-240C106,-246 100,-252 94,-252"/>
<text text-anchor="middle" x="53" y="-230.4" font-family="Times Roman,serif" font-size="14.00">DBUsername</text>
</g>
<!-- DBUsername&#45;&gt;WebServer -->
<g id="edge28" class="edge"><title>DBUsername&#45;&gt;WebServer</title>
<path fill="none" stroke="black" d="M79.4911,-215.877C116.637,-197.181 183.967,-167.518 243,-144 278.807,-129.735 320.04,-114.812 352.877,-104.278"/>
<polygon fill="black" stroke="black" points="354.298,-107.5 362.783,-101.155 352.193,-100.823 354.298,-107.5"/>
</g>
<!-- DBUsername&#45;&gt;WebServer -->
<g id="edge34" class="edge"><title>DBUsername&#45;&gt;WebServer</title>
<path fill="none" stroke="black" d="M92.9719,-215.877C134.637,-197.181 201.967,-167.518 261,-144 291.23,-131.957 325.327,-119.445 353.168,-109.5"/>
<polygon fill="black" stroke="black" points="354.49,-112.745 362.738,-106.095 352.143,-106.15 354.49,-112.745"/>
</g>
<!-- DBUsername&#45;&gt;WebServer -->
<g id="edge38" class="edge"><title>DBUsername&#45;&gt;WebServer</title>
<path fill="none" stroke="black" d="M106.024,-216.05C152.22,-197.365 219.785,-167.59 279,-144 307.039,-132.83 338.406,-121.255 363.579,-111.701"/>
<polygon fill="black" stroke="black" points="365.159,-114.845 373.254,-108.009 362.664,-108.305 365.159,-114.845"/>
</g>
<!-- InstanceType -->
<g id="node7" class="node"><title>InstanceType</title>
<polygon fill="lightgrey" stroke="lightgrey" points="218,-252 136,-252 124,-240 124,-228 136,-216 218,-216 230,-228 230,-240 218,-252"/>
<path fill="lightgrey" stroke="lightgrey" d="M136,-252C130,-252 124,-246 124,-240"/>
<path fill="lightgrey" stroke="lightgrey" d="M124,-228C124,-222 130,-216 136,-216"/>
<path fill="lightgrey" stroke="lightgrey" d="M218,-216C224,-216 230,-222 230,-228"/>
<path fill="lightgrey" stroke="lightgrey" d="M230,-240C230,-246 224,-252 218,-252"/>
<polyline fill="none" stroke="black" points="218,-252 136,-252 "/>
<path fill="none" stroke="black" d="M136,-252C130,-252 124,-246 124,-240"/>
<polyline fill="none" stroke="black" points="124,-240 124,-228 "/>
<path fill="none" stroke="black" d="M124,-228C124,-222 130,-216 136,-216"/>
<polyline fill="none" stroke="black" points="136,-216 218,-216 "/>
<path fill="none" stroke="black" d="M218,-216C224,-216 230,-222 230,-228"/>
<polyline fill="none" stroke="black" points="230,-228 230,-240 "/>
<path fill="none" stroke="black" d="M230,-240C230,-246 224,-252 218,-252"/>
<text text-anchor="middle" x="177" y="-230.4" font-family="Times Roman,serif" font-size="14.00">InstanceType</text>
</g>
<!-- InstanceType&#45;&gt;WebServer -->
<g id="edge26" class="edge"><title>InstanceType&#45;&gt;WebServer</title>
<path fill="none" stroke="black" d="M201.71,-215.762C241.11,-189.686 318.188,-141.752 366.522,-113.188"/>
<polygon fill="black" stroke="black" points="368.349,-116.174 375.197,-108.09 364.803,-110.139 368.349,-116.174"/>
</g>
<!-- InstanceType&#45;&gt;WebServer -->
<g id="edge22" class="edge"><title>InstanceType&#45;&gt;WebServer</title>
<path fill="none" stroke="black" d="M211.056,-215.762C255.401,-189.849 332.093,-142.348 375.94,-113.724"/>
<polygon fill="black" stroke="black" points="378.079,-116.506 384.514,-108.09 374.235,-110.657 378.079,-116.506"/>
</g>
<!-- DBRootPassword -->
<g id="node8" class="node"><title>DBRootPassword</title>
<polygon fill="lightgrey" stroke="lightgrey" points="370,-252 260,-252 248,-240 248,-228 260,-216 370,-216 382,-228 382,-240 370,-252"/>
<path fill="lightgrey" stroke="lightgrey" d="M260,-252C254,-252 248,-246 248,-240"/>
<path fill="lightgrey" stroke="lightgrey" d="M248,-228C248,-222 254,-216 260,-216"/>
<path fill="lightgrey" stroke="lightgrey" d="M370,-216C376,-216 382,-222 382,-228"/>
<path fill="lightgrey" stroke="lightgrey" d="M382,-240C382,-246 376,-252 370,-252"/>
<polyline fill="none" stroke="black" points="370,-252 260,-252 "/>
<path fill="none" stroke="black" d="M260,-252C254,-252 248,-246 248,-240"/>
<polyline fill="none" stroke="black" points="248,-240 248,-228 "/>
<path fill="none" stroke="black" d="M248,-228C248,-222 254,-216 260,-216"/>
<polyline fill="none" stroke="black" points="260,-216 370,-216 "/>
<path fill="none" stroke="black" d="M370,-216C376,-216 382,-222 382,-228"/>
<polyline fill="none" stroke="black" points="382,-228 382,-240 "/>
<path fill="none" stroke="black" d="M382,-240C382,-246 376,-252 370,-252"/>
<text text-anchor="middle" x="315" y="-230.4" font-family="Times Roman,serif" font-size="14.00">DBRootPassword</text>
</g>
<!-- DBRootPassword&#45;&gt;WebServer -->
<g id="edge12" class="edge"><title>DBRootPassword&#45;&gt;WebServer</title>
<path fill="none" stroke="black" d="M322.232,-215.762C336.104,-190.66 365.481,-145.302 386.355,-116.467"/>
<polygon fill="black" stroke="black" points="389.415,-118.215 392.533,-108.09 383.781,-114.06 389.415,-118.215"/>
</g>
<!-- DBRootPassword&#45;&gt;WebServer -->
<g id="edge14" class="edge"><title>DBRootPassword&#45;&gt;WebServer</title>
<path fill="none" stroke="black" d="M331.578,-215.762C350.397,-190.768 380.062,-145.692 396.873,-116.841"/>
<polygon fill="black" stroke="black" points="399.949,-118.513 401.85,-108.09 393.864,-115.052 399.949,-118.513"/>
</g>
<!-- SSHLocation -->
<g id="node9" class="node"><title>SSHLocation</title>
<polygon fill="lightgrey" stroke="lightgrey" points="853,-252 773,-252 761,-240 761,-228 773,-216 853,-216 865,-228 865,-240 853,-252"/>
<path fill="lightgrey" stroke="lightgrey" d="M773,-252C767,-252 761,-246 761,-240"/>
<path fill="lightgrey" stroke="lightgrey" d="M761,-228C761,-222 767,-216 773,-216"/>
<path fill="lightgrey" stroke="lightgrey" d="M853,-216C859,-216 865,-222 865,-228"/>
<path fill="lightgrey" stroke="lightgrey" d="M865,-240C865,-246 859,-252 853,-252"/>
<polyline fill="none" stroke="black" points="853,-252 773,-252 "/>
<path fill="none" stroke="black" d="M773,-252C767,-252 761,-246 761,-240"/>
<polyline fill="none" stroke="black" points="761,-240 761,-228 "/>
<path fill="none" stroke="black" d="M761,-228C761,-222 767,-216 773,-216"/>
<polyline fill="none" stroke="black" points="773,-216 853,-216 "/>
<path fill="none" stroke="black" d="M853,-216C859,-216 865,-222 865,-228"/>
<polyline fill="none" stroke="black" points="865,-228 865,-240 "/>
<path fill="none" stroke="black" d="M865,-240C865,-246 859,-252 853,-252"/>
<text text-anchor="middle" x="813" y="-230.4" font-family="Times Roman,serif" font-size="14.00">SSHLocation</text>
</g>
<!-- SSHLocation&#45;&gt;FrontendGroup -->
<g id="edge4" class="edge"><title>SSHLocation&#45;&gt;FrontendGroup</title>
<path fill="none" stroke="black" d="M813,-215.831C813,-208.131 813,-198.974 813,-190.417"/>
<polygon fill="black" stroke="black" points="816.5,-190.413 813,-180.413 809.5,-190.413 816.5,-190.413"/>
</g>
<!-- KeyName -->
<g id="node10" class="node"><title>KeyName</title>
<polygon fill="lightgrey" stroke="lightgrey" points="468,-252 412,-252 400,-240 400,-228 412,-216 468,-216 480,-228 480,-240 468,-252"/>
<path fill="lightgrey" stroke="lightgrey" d="M412,-252C406,-252 400,-246 400,-240"/>
<path fill="lightgrey" stroke="lightgrey" d="M400,-228C400,-222 406,-216 412,-216"/>
<path fill="lightgrey" stroke="lightgrey" d="M468,-216C474,-216 480,-222 480,-228"/>
<path fill="lightgrey" stroke="lightgrey" d="M480,-240C480,-246 474,-252 468,-252"/>
<polyline fill="none" stroke="black" points="468,-252 412,-252 "/>
<path fill="none" stroke="black" d="M412,-252C406,-252 400,-246 400,-240"/>
<polyline fill="none" stroke="black" points="400,-240 400,-228 "/>
<path fill="none" stroke="black" d="M400,-228C400,-222 406,-216 412,-216"/>
<polyline fill="none" stroke="black" points="412,-216 468,-216 "/>
<path fill="none" stroke="black" d="M468,-216C474,-216 480,-222 480,-228"/>
<polyline fill="none" stroke="black" points="480,-228 480,-240 "/>
<path fill="none" stroke="black" d="M480,-240C480,-246 474,-252 468,-252"/>
<text text-anchor="middle" x="440" y="-230.4" font-family="Times Roman,serif" font-size="14.00">KeyName</text>
</g>
<!-- KeyName&#45;&gt;WebServer -->
<g id="edge18" class="edge"><title>KeyName&#45;&gt;WebServer</title>
<path fill="none" stroke="black" d="M414.495,-215.963C403.525,-206.628 391.886,-194.209 386,-180 377.616,-159.76 384.606,-135.658 393.015,-117.492"/>
<polygon fill="black" stroke="black" points="396.385,-118.58 397.744,-108.073 390.129,-115.44 396.385,-118.58"/>
</g>
<!-- DBPassword -->
<g id="node11" class="node"><title>DBPassword</title>
<polygon fill="lightgrey" stroke="lightgrey" points="588,-252 510,-252 498,-240 498,-228 510,-216 588,-216 600,-228 600,-240 588,-252"/>
<path fill="lightgrey" stroke="lightgrey" d="M510,-252C504,-252 498,-246 498,-240"/>
<path fill="lightgrey" stroke="lightgrey" d="M498,-228C498,-222 504,-216 510,-216"/>
<path fill="lightgrey" stroke="lightgrey" d="M588,-216C594,-216 600,-222 600,-228"/>
<path fill="lightgrey" stroke="lightgrey" d="M600,-240C600,-246 594,-252 588,-252"/>
<polyline fill="none" stroke="black" points="588,-252 510,-252 "/>
<path fill="none" stroke="black" d="M510,-252C504,-252 498,-246 498,-240"/>
<polyline fill="none" stroke="black" points="498,-240 498,-228 "/>
<path fill="none" stroke="black" d="M498,-228C498,-222 504,-216 510,-216"/>
<polyline fill="none" stroke="black" points="510,-216 588,-216 "/>
<path fill="none" stroke="black" d="M588,-216C594,-216 600,-222 600,-228"/>
<polyline fill="none" stroke="black" points="600,-228 600,-240 "/>
<path fill="none" stroke="black" d="M600,-240C600,-246 594,-252 588,-252"/>
<text text-anchor="middle" x="549" y="-230.4" font-family="Times Roman,serif" font-size="14.00">DBPassword</text>
</g>
<!-- DBPassword&#45;&gt;WebServer -->
<g id="edge30" class="edge"><title>DBPassword&#45;&gt;WebServer</title>
<path fill="none" stroke="black" d="M497.868,-220.793C475.178,-212.221 449.95,-199.038 433,-180 417.594,-162.695 409.184,-137.595 406.166,-118.296"/>
<polygon fill="black" stroke="black" points="409.632,-117.802 405.033,-108.257 402.676,-118.587 409.632,-117.802"/>
</g>
<!-- DBPassword&#45;&gt;WebServer -->
<g id="edge40" class="edge"><title>DBPassword&#45;&gt;WebServer</title>
<path fill="none" stroke="black" d="M502.908,-215.972C484.772,-207.529 465.044,-195.774 451,-180 435.522,-162.615 427.107,-137.363 421.189,-118.028"/>
<polygon fill="black" stroke="black" points="424.475,-116.804 418.214,-108.257 417.778,-118.843 424.475,-116.804"/>
</g>
<!-- DBName -->
<g id="node12" class="node"><title>DBName</title>
<polygon fill="lightgrey" stroke="lightgrey" points="682,-252 630,-252 618,-240 618,-228 630,-216 682,-216 694,-228 694,-240 682,-252"/>
<path fill="lightgrey" stroke="lightgrey" d="M630,-252C624,-252 618,-246 618,-240"/>
<path fill="lightgrey" stroke="lightgrey" d="M618,-228C618,-222 624,-216 630,-216"/>
<path fill="lightgrey" stroke="lightgrey" d="M682,-216C688,-216 694,-222 694,-228"/>
<path fill="lightgrey" stroke="lightgrey" d="M694,-240C694,-246 688,-252 682,-252"/>
<polyline fill="none" stroke="black" points="682,-252 630,-252 "/>
<path fill="none" stroke="black" d="M630,-252C624,-252 618,-246 618,-240"/>
<polyline fill="none" stroke="black" points="618,-240 618,-228 "/>
<path fill="none" stroke="black" d="M618,-228C618,-222 624,-216 630,-216"/>
<polyline fill="none" stroke="black" points="630,-216 682,-216 "/>
<path fill="none" stroke="black" d="M682,-216C688,-216 694,-222 694,-228"/>
<polyline fill="none" stroke="black" points="694,-228 694,-240 "/>
<path fill="none" stroke="black" d="M694,-240C694,-246 688,-252 682,-252"/>
<text text-anchor="middle" x="656" y="-230.4" font-family="Times Roman,serif" font-size="14.00">DBName</text>
</g>
<!-- DBName&#45;&gt;WebServer -->
<g id="edge32" class="edge"><title>DBName&#45;&gt;WebServer</title>
<path fill="none" stroke="black" d="M617.958,-222.471C611.913,-220.254 605.78,-218.001 600,-216 548.99,-198.338 529.725,-208.692 484,-180 457.663,-163.474 434.134,-136.668 420.377,-116.601"/>
<polygon fill="black" stroke="black" points="423.306,-114.685 414.935,-108.191 417.429,-118.488 423.306,-114.685"/>
</g>
<!-- DBName&#45;&gt;WebServer -->
<g id="edge36" class="edge"><title>DBName&#45;&gt;WebServer</title>
<path fill="none" stroke="black" d="M618.496,-216.172C618.331,-216.115 618.165,-216.057 618,-216 566.99,-198.338 547.725,-208.692 502,-180 475.427,-163.326 451.712,-136.186 434.617,-116.063"/>
<polygon fill="black" stroke="black" points="437.076,-113.552 427.938,-108.191 431.738,-118.081 437.076,-113.552"/>
</g>
<!-- AWS::StackId -->
<g id="node17" class="node"><title>AWS::StackId</title>
<polygon fill="none" stroke="black" points="612,-180 502,-180 502,-144 612,-144 612,-180"/>
<text text-anchor="middle" x="557" y="-158.4" font-family="Times Roman,serif" font-size="14.00">AWS::StackId</text>
</g>
<!-- AWS::StackId&#45;&gt;WebServer -->
<g id="edge8" class="edge"><title>AWS::StackId&#45;&gt;WebServer</title>
<path fill="none" stroke="black" d="M519.653,-143.831C500.123,-134.33 476.036,-122.612 455.327,-112.537"/>
<polygon fill="black" stroke="black" points="456.602,-109.265 446.078,-108.038 453.539,-115.56 456.602,-109.265"/>
</g>
<!-- AWS::Region -->
<g id="node19" class="node"><title>AWS::Region</title>
<polygon fill="none" stroke="black" points="734,-180 630,-180 630,-144 734,-144 734,-180"/>
<text text-anchor="middle" x="682" y="-158.4" font-family="Times Roman,serif" font-size="14.00">AWS::Region</text>
</g>
<!-- AWS::Region&#45;&gt;WebServer -->
<g id="edge24" class="edge"><title>AWS::Region&#45;&gt;WebServer</title>
<path fill="none" stroke="black" d="M629.821,-149.016C623.787,-147.294 617.749,-145.58 612,-144 562.434,-130.379 506.023,-116.068 465.188,-105.603"/>
<polygon fill="black" stroke="black" points="465.974,-102.191 455.418,-103.095 464.234,-108.971 465.974,-102.191"/>
</g>
<!-- AWS::Region&#45;&gt;WebServer -->
<g id="edge10" class="edge"><title>AWS::Region&#45;&gt;WebServer</title>
<path fill="none" stroke="black" d="M630.32,-144.088C630.213,-144.059 630.106,-144.029 630,-144 574.331,-128.703 510.029,-112.533 465.088,-101.921"/>
<polygon fill="black" stroke="black" points="465.77,-98.4858 455.235,-99.6108 464.172,-105.301 465.77,-98.4858"/>
</g>
</g>
</svg>
