<?xml version="1.0" encoding="UTF-8" standalone="no"?>
<!DOCTYPE svg PUBLIC "-//W3C//DTD SVG 1.1//EN"
 "http://www.w3.org/Graphics/SVG/1.1/DTD/svg11.dtd">
<!-- Generated by graphviz version 2.26.3 (20100126.1600)
 -->
<!-- Title: AWS CloudFormation Sample Template Rails_Single_Instance_With_RDS: Create a Ruby on Rails stack using a single EC2 instance for the web server and a MySQL Amazon RDS database instance for the backend data store. This template demonstrates using the AWS CloudFormation bootstrap scripts to install the packages and files at instance launch time. **WARNING** This template creates an Amazon EC2 instance and an Amazon RDS DB instance. You will be billed for the AWS resources used if you create a stack from this template. Pages: 1 -->
<svg width="1100pt" height="404pt"
 viewBox="0.00 0.00 1100.00 404.00" xmlns="http://www.w3.org/2000/svg" xmlns:xlink="http://www.w3.org/1999/xlink">
<g id="graph1" class="graph" transform="scale(1 1) rotate(0) translate(4 400)">
<title>AWS CloudFormation Sample Template Rails_Single_Instance_With_RDS: Create a Ruby on Rails stack using a single EC2 instance for the web server and a MySQL Amazon RDS database instance for the backend data store. This template demonstrates using the AWS CloudFormation bootstrap scripts to install the packages and files at instance launch time. **WARNING** This template creates an Amazon EC2 instance and an Amazon RDS DB instance. You will be billed for the AWS resources used if you create a stack from this template.</title>
<polygon fill="white" stroke="white" points="-4,5 -4,-400 1097,-400 1097,5 -4,5"/>
<!-- DBSecurityGroup -->
<g id="node1" class="node"><title>DBSecurityGroup</title>
<polygon fill="none" stroke="black" points="597,-252 461,-252 461,-216 597,-216 597,-252"/>
<text text-anchor="middle" x="529" y="-230.4" font-family="Times Roman,serif" font-size="14.00">DBSecurityGroup</text>
</g>
<!-- MySQLDatabase -->
<g id="node2" class="node"><title>MySQLDatabase</title>
<polygon fill="none" stroke="black" points="479,-180 349,-180 349,-144 479,-144 479,-180"/>
<text text-anchor="middle" x="414" y="-158.4" font-family="Times Roman,serif" font-size="14.00">MySQLDatabase</text>
</g>
<!-- DBSecurityGroup&#45;&gt;MySQLDatabase -->
<g id="edge6" class="edge"><title>DBSecurityGroup&#45;&gt;MySQLDatabase</title>
<path fill="none" stroke="black" d="M499.981,-215.831C485.271,-206.622 467.236,-195.33 451.488,-185.471"/>
<polygon fill="black" stroke="black" points="453.343,-182.503 443.01,-180.163 449.629,-188.436 453.343,-182.503"/>
</g>
<!-- WebServer -->
<g id="node3" class="node"><title>WebServer</title>
<polygon fill="none" stroke="black" points="798,-108 706,-108 706,-72 798,-72 798,-108"/>
<text text-anchor="middle" x="752" y="-86.4" font-family="Times Roman,serif" font-size="14.00">WebServer</text>
</g>
<!-- MySQLDatabase&#45;&gt;WebServer -->
<g id="edge42" class="edge"><title>MySQLDatabase&#45;&gt;WebServer</title>
<path fill="none" stroke="black" d="M479.241,-146.906C542.141,-133.146 636.217,-113.15 695.87,-100.891"/>
<polygon fill="black" stroke="black" points="696.77,-104.28 705.864,-98.8441 695.365,-97.422 696.77,-104.28"/>
</g>
<!-- MySQLDatabase&#45;&gt;WebServer -->
<g id="edge44" class="edge"><title>MySQLDatabase&#45;&gt;WebServer</title>
<path fill="none" stroke="black" d="M479.342,-149.211C542.226,-136.223 636.199,-116.208 695.82,-103.107"/>
<polygon fill="black" stroke="black" points="696.798,-106.476 705.81,-100.905 695.291,-99.6396 696.798,-106.476"/>
</g>
<!-- WebsiteURL -->
<g id="node17" class="node"><title>WebsiteURL</title>
<polygon fill="lightgrey" stroke="lightgrey" points="790,-36 714,-36 702,-24 702,-12 714,-1.60583e-14 790,-5.25802e-15 802,-12 802,-24 790,-36"/>
<path fill="lightgrey" stroke="lightgrey" d="M714,-36C708,-36 702,-30 702,-24"/>
<path fill="lightgrey" stroke="lightgrey" d="M702,-12C702,-6 708,-1.69109e-14 714,-1.60583e-14"/>
<path fill="lightgrey" stroke="lightgrey" d="M790,-5.25802e-15C796,-4.40536e-15 802,-6 802,-12"/>
<path fill="lightgrey" stroke="lightgrey" d="M802,-24C802,-30 796,-36 790,-36"/>
<polyline fill="none" stroke="black" points="790,-36 714,-36 "/>
<path fill="none" stroke="black" d="M714,-36C708,-36 702,-30 702,-24"/>
<polyline fill="none" stroke="black" points="702,-24 702,-12 "/>
<path fill="none" stroke="black" d="M702,-12C702,-6 708,-1.69109e-14 714,-1.60583e-14"/>
<polyline fill="none" stroke="black" points="714,-1.60583e-14 790,-5.25802e-15 "/>
<path fill="none" stroke="black" d="M790,-5.25802e-15C796,-4.40536e-15 802,-6 802,-12"/>
<polyline fill="none" stroke="black" points="802,-12 802,-24 "/>
<path fill="none" stroke="black" d="M802,-24C802,-30 796,-36 790,-36"/>
<text text-anchor="middle" x="752" y="-14.4" font-family="Times Roman,serif" font-size="14.00">WebsiteURL</text>
</g>
<!-- WebServer&#45;&gt;WebsiteURL -->
<g id="edge50" class="edge"><title>WebServer&#45;&gt;WebsiteURL</title>
<path fill="none" stroke="black" d="M752,-71.8314C752,-64.131 752,-54.9743 752,-46.4166"/>
<polygon fill="black" stroke="black" points="755.5,-46.4132 752,-36.4133 748.5,-46.4133 755.5,-46.4132"/>
</g>
<!-- WebServerSecurityGroup -->
<g id="node4" class="node"><title>WebServerSecurityGroup</title>
<polygon fill="none" stroke="black" points="801,-324 609,-324 609,-288 801,-288 801,-324"/>
<text text-anchor="middle" x="705" y="-302.4" font-family="Times Roman,serif" font-size="14.00">WebServerSecurityGroup</text>
</g>
<!-- WebServerSecurityGroup&#45;&gt;DBSecurityGroup -->
<g id="edge4" class="edge"><title>WebServerSecurityGroup&#45;&gt;DBSecurityGroup</title>
<path fill="none" stroke="black" d="M660.588,-287.831C636.84,-278.116 607.425,-266.083 582.434,-255.859"/>
<polygon fill="black" stroke="black" points="583.674,-252.585 573.093,-252.038 581.023,-259.064 583.674,-252.585"/>
</g>
<!-- WebServerSecurityGroup&#45;&gt;WebServer -->
<g id="edge28" class="edge"><title>WebServerSecurityGroup&#45;&gt;WebServer</title>
<path fill="none" stroke="black" d="M706.182,-287.703C708.481,-257.354 714.646,-194.898 729,-144 731.505,-135.118 735.116,-125.762 738.737,-117.38"/>
<polygon fill="black" stroke="black" points="742.013,-118.628 742.926,-108.073 735.63,-115.755 742.013,-118.628"/>
</g>
<!-- WaitCondition -->
<g id="node5" class="node"><title>WaitCondition</title>
<polygon fill="none" stroke="black" points="1092,-108 978,-108 978,-72 1092,-72 1092,-108"/>
<text text-anchor="middle" x="1035" y="-86.4" font-family="Times Roman,serif" font-size="14.00">WaitCondition</text>
</g>
<!-- WaitHandle -->
<g id="node6" class="node"><title>WaitHandle</title>
<polygon fill="none" stroke="black" points="1083,-180 987,-180 987,-144 1083,-144 1083,-180"/>
<text text-anchor="middle" x="1035" y="-158.4" font-family="Times Roman,serif" font-size="14.00">WaitHandle</text>
</g>
<!-- WaitHandle&#45;&gt;WebServer -->
<g id="edge24" class="edge"><title>WaitHandle&#45;&gt;WebServer</title>
<path fill="none" stroke="black" d="M986.882,-150.319C979.189,-148.16 971.363,-145.967 964,-144 911.188,-129.888 850.883,-115.252 808.047,-104.782"/>
<polygon fill="black" stroke="black" points="808.64,-101.324 798.095,-102.347 806.976,-108.123 808.64,-101.324"/>
</g>
<!-- WaitHandle&#45;&gt;WebServer -->
<g id="edge18" class="edge"><title>WaitHandle&#45;&gt;WebServer</title>
<path fill="none" stroke="black" d="M986.93,-145.332C985.271,-144.879 983.624,-144.434 982,-144 923.165,-128.279 855.033,-111.907 808.179,-101.37"/>
<polygon fill="black" stroke="black" points="808.743,-97.9102 798.221,-99.1478 807.219,-104.742 808.743,-97.9102"/>
</g>
<!-- WaitHandle&#45;&gt;WaitCondition -->
<g id="edge48" class="edge"><title>WaitHandle&#45;&gt;WaitCondition</title>
<path fill="none" stroke="black" d="M1035,-143.831C1035,-136.131 1035,-126.974 1035,-118.417"/>
<polygon fill="black" stroke="black" points="1038.5,-118.413 1035,-108.413 1031.5,-118.413 1038.5,-118.413"/>
</g>
<!-- DBUsername -->
<g id="node8" class="node"><title>DBUsername</title>
<polygon fill="lightgrey" stroke="lightgrey" points="94,-396 12,-396 3.78956e-14,-384 1.89478e-14,-372 12,-360 94,-360 106,-372 106,-384 94,-396"/>
<path fill="lightgrey" stroke="lightgrey" d="M12,-396C6,-396 4.73695e-14,-390 3.78956e-14,-384"/>
<path fill="lightgrey" stroke="lightgrey" d="M1.89478e-14,-372C9.4739e-15,-366 6,-360 12,-360"/>
<path fill="lightgrey" stroke="lightgrey" d="M94,-360C100,-360 106,-366 106,-372"/>
<path fill="lightgrey" stroke="lightgrey" d="M106,-384C106,-390 100,-396 94,-396"/>
<polyline fill="none" stroke="black" points="94,-396 12,-396 "/>
<path fill="none" stroke="black" d="M12,-396C6,-396 4.73695e-14,-390 3.78956e-14,-384"/>
<polyline fill="none" stroke="black" points="3.78956e-14,-384 1.89478e-14,-372 "/>
<path fill="none" stroke="black" d="M1.89478e-14,-372C9.4739e-15,-366 6,-360 12,-360"/>
<polyline fill="none" stroke="black" points="12,-360 94,-360 "/>
<path fill="none" stroke="black" d="M94,-360C100,-360 106,-366 106,-372"/>
<polyline fill="none" stroke="black" points="106,-372 106,-384 "/>
<path fill="none" stroke="black" d="M106,-384C106,-390 100,-396 94,-396"/>
<text text-anchor="middle" x="53" y="-374.4" font-family="Times Roman,serif" font-size="14.00">DBUsername</text>
</g>
<!-- DBUsername&#45;&gt;MySQLDatabase -->
<g id="edge8" class="edge"><title>DBUsername&#45;&gt;MySQLDatabase</title>
<path fill="none" stroke="black" d="M79.9282,-359.978C126.225,-329.231 224.212,-265.196 310,-216 328.872,-205.178 350.124,-193.974 368.475,-184.597"/>
<polygon fill="black" stroke="black" points="370.172,-187.661 377.502,-180.011 367.001,-181.42 370.172,-187.661"/>
</g>
<!-- DBUsername&#45;&gt;WebServer -->
<g id="edge38" class="edge"><title>DBUsername&#45;&gt;WebServer</title>
<path fill="none" stroke="black" d="M64.7144,-359.728C95.3498,-313.758 182.997,-193.457 291,-144 361.905,-111.531 589.12,-97.2912 695.749,-92.2759"/>
<polygon fill="black" stroke="black" points="696.161,-95.7607 705.99,-91.8052 695.84,-88.7681 696.161,-95.7607"/>
</g>
<!-- DBAllocatedStorage -->
<g id="node9" class="node"><title>DBAllocatedStorage</title>
<polygon fill="lightgrey" stroke="lightgrey" points="386,-396 256,-396 244,-384 244,-372 256,-360 386,-360 398,-372 398,-384 386,-396"/>
<path fill="lightgrey" stroke="lightgrey" d="M256,-396C250,-396 244,-390 244,-384"/>
<path fill="lightgrey" stroke="lightgrey" d="M244,-372C244,-366 250,-360 256,-360"/>
<path fill="lightgrey" stroke="lightgrey" d="M386,-360C392,-360 398,-366 398,-372"/>
<path fill="lightgrey" stroke="lightgrey" d="M398,-384C398,-390 392,-396 386,-396"/>
<polyline fill="none" stroke="black" points="386,-396 256,-396 "/>
<path fill="none" stroke="black" d="M256,-396C250,-396 244,-390 244,-384"/>
<polyline fill="none" stroke="black" points="244,-384 244,-372 "/>
<path fill="none" stroke="black" d="M244,-372C244,-366 250,-360 256,-360"/>
<polyline fill="none" stroke="black" points="256,-360 386,-360 "/>
<path fill="none" stroke="black" d="M386,-360C392,-360 398,-366 398,-372"/>
<polyline fill="none" stroke="black" points="398,-372 398,-384 "/>
<path fill="none" stroke="black" d="M398,-384C398,-390 392,-396 386,-396"/>
<text text-anchor="middle" x="321" y="-374.4" font-family="Times Roman,serif" font-size="14.00">DBAllocatedStorage</text>
</g>
<!-- DBAllocatedStorage&#45;&gt;MySQLDatabase -->
<g id="edge12" class="edge"><title>DBAllocatedStorage&#45;&gt;MySQLDatabase</title>
<path fill="none" stroke="black" d="M328.769,-359.955C345.044,-322.156 382.806,-234.451 402.135,-189.556"/>
<polygon fill="black" stroke="black" points="405.448,-190.714 406.188,-180.145 399.018,-187.946 405.448,-190.714"/>
</g>
<!-- InstanceType -->
<g id="node10" class="node"><title>InstanceType</title>
<polygon fill="lightgrey" stroke="lightgrey" points="879,-396 797,-396 785,-384 785,-372 797,-360 879,-360 891,-372 891,-384 879,-396"/>
<path fill="lightgrey" stroke="lightgrey" d="M797,-396C791,-396 785,-390 785,-384"/>
<path fill="lightgrey" stroke="lightgrey" d="M785,-372C785,-366 791,-360 797,-360"/>
<path fill="lightgrey" stroke="lightgrey" d="M879,-360C885,-360 891,-366 891,-372"/>
<path fill="lightgrey" stroke="lightgrey" d="M891,-384C891,-390 885,-396 879,-396"/>
<polyline fill="none" stroke="black" points="879,-396 797,-396 "/>
<path fill="none" stroke="black" d="M797,-396C791,-396 785,-390 785,-384"/>
<polyline fill="none" stroke="black" points="785,-384 785,-372 "/>
<path fill="none" stroke="black" d="M785,-372C785,-366 791,-360 797,-360"/>
<polyline fill="none" stroke="black" points="797,-360 879,-360 "/>
<path fill="none" stroke="black" d="M879,-360C885,-360 891,-366 891,-372"/>
<polyline fill="none" stroke="black" points="891,-372 891,-384 "/>
<path fill="none" stroke="black" d="M891,-384C891,-390 885,-396 879,-396"/>
<text text-anchor="middle" x="838" y="-374.4" font-family="Times Roman,serif" font-size="14.00">InstanceType</text>
</g>
<!-- InstanceType&#45;&gt;WebServer -->
<g id="edge30" class="edge"><title>InstanceType&#45;&gt;WebServer</title>
<path fill="none" stroke="black" d="M827.851,-359.927C821.515,-341.142 813.667,-311.287 801,-288 791.048,-269.704 779.738,-270.906 771,-252 750.828,-208.355 745.079,-152.002 746.071,-118.565"/>
<polygon fill="black" stroke="black" points="749.589,-118.335 746.655,-108.155 742.6,-117.943 749.589,-118.335"/>
</g>
<!-- InstanceType&#45;&gt;WebServer -->
<g id="edge34" class="edge"><title>InstanceType&#45;&gt;WebServer</title>
<path fill="none" stroke="black" d="M841.29,-359.927C839.515,-341.142 831.667,-311.287 819,-288 809.048,-269.704 797.738,-270.906 789,-252 768.74,-208.165 763.03,-151.512 758.888,-118.13"/>
<polygon fill="black" stroke="black" points="762.351,-117.616 757.583,-108.155 755.41,-118.525 762.351,-117.616"/>
</g>
<!-- SSHLocation -->
<g id="node11" class="node"><title>SSHLocation</title>
<polygon fill="lightgrey" stroke="lightgrey" points="750,-396 670,-396 658,-384 658,-372 670,-360 750,-360 762,-372 762,-384 750,-396"/>
<path fill="lightgrey" stroke="lightgrey" d="M670,-396C664,-396 658,-390 658,-384"/>
<path fill="lightgrey" stroke="lightgrey" d="M658,-372C658,-366 664,-360 670,-360"/>
<path fill="lightgrey" stroke="lightgrey" d="M750,-360C756,-360 762,-366 762,-372"/>
<path fill="lightgrey" stroke="lightgrey" d="M762,-384C762,-390 756,-396 750,-396"/>
<polyline fill="none" stroke="black" points="750,-396 670,-396 "/>
<path fill="none" stroke="black" d="M670,-396C664,-396 658,-390 658,-384"/>
<polyline fill="none" stroke="black" points="658,-384 658,-372 "/>
<path fill="none" stroke="black" d="M658,-372C658,-366 664,-360 670,-360"/>
<polyline fill="none" stroke="black" points="670,-360 750,-360 "/>
<path fill="none" stroke="black" d="M750,-360C756,-360 762,-366 762,-372"/>
<polyline fill="none" stroke="black" points="762,-372 762,-384 "/>
<path fill="none" stroke="black" d="M762,-384C762,-390 756,-396 750,-396"/>
<text text-anchor="middle" x="710" y="-374.4" font-family="Times Roman,serif" font-size="14.00">SSHLocation</text>
</g>
<!-- SSHLocation&#45;&gt;WebServerSecurityGroup -->
<g id="edge46" class="edge"><title>SSHLocation&#45;&gt;WebServerSecurityGroup</title>
<path fill="none" stroke="black" d="M708.738,-359.831C708.204,-352.131 707.568,-342.974 706.973,-334.417"/>
<polygon fill="black" stroke="black" points="710.463,-334.147 706.279,-324.413 703.48,-334.632 710.463,-334.147"/>
</g>
<!-- KeyName -->
<g id="node12" class="node"><title>KeyName</title>
<polygon fill="lightgrey" stroke="lightgrey" points="987,-396 931,-396 919,-384 919,-372 931,-360 987,-360 999,-372 999,-384 987,-396"/>
<path fill="lightgrey" stroke="lightgrey" d="M931,-396C925,-396 919,-390 919,-384"/>
<path fill="lightgrey" stroke="lightgrey" d="M919,-372C919,-366 925,-360 931,-360"/>
<path fill="lightgrey" stroke="lightgrey" d="M987,-360C993,-360 999,-366 999,-372"/>
<path fill="lightgrey" stroke="lightgrey" d="M999,-384C999,-390 993,-396 987,-396"/>
<polyline fill="none" stroke="black" points="987,-396 931,-396 "/>
<path fill="none" stroke="black" d="M931,-396C925,-396 919,-390 919,-384"/>
<polyline fill="none" stroke="black" points="919,-384 919,-372 "/>
<path fill="none" stroke="black" d="M919,-372C919,-366 925,-360 931,-360"/>
<polyline fill="none" stroke="black" points="931,-360 987,-360 "/>
<path fill="none" stroke="black" d="M987,-360C993,-360 999,-366 999,-372"/>
<polyline fill="none" stroke="black" points="999,-372 999,-384 "/>
<path fill="none" stroke="black" d="M999,-384C999,-390 993,-396 987,-396"/>
<text text-anchor="middle" x="959" y="-374.4" font-family="Times Roman,serif" font-size="14.00">KeyName</text>
</g>
<!-- KeyName&#45;&gt;WebServer -->
<g id="edge26" class="edge"><title>KeyName&#45;&gt;WebServer</title>
<path fill="none" stroke="black" d="M963.708,-359.98C973.742,-317.108 992.286,-207.863 940,-144 923.245,-123.536 857.275,-107.982 808.186,-98.9404"/>
<polygon fill="black" stroke="black" points="808.763,-95.4882 798.302,-97.1648 807.525,-102.378 808.763,-95.4882"/>
</g>
<!-- DBPassword -->
<g id="node13" class="node"><title>DBPassword</title>
<polygon fill="lightgrey" stroke="lightgrey" points="214,-396 136,-396 124,-384 124,-372 136,-360 214,-360 226,-372 226,-384 214,-396"/>
<path fill="lightgrey" stroke="lightgrey" d="M136,-396C130,-396 124,-390 124,-384"/>
<path fill="lightgrey" stroke="lightgrey" d="M124,-372C124,-366 130,-360 136,-360"/>
<path fill="lightgrey" stroke="lightgrey" d="M214,-360C220,-360 226,-366 226,-372"/>
<path fill="lightgrey" stroke="lightgrey" d="M226,-384C226,-390 220,-396 214,-396"/>
<polyline fill="none" stroke="black" points="214,-396 136,-396 "/>
<path fill="none" stroke="black" d="M136,-396C130,-396 124,-390 124,-384"/>
<polyline fill="none" stroke="black" points="124,-384 124,-372 "/>
<path fill="none" stroke="black" d="M124,-372C124,-366 130,-360 136,-360"/>
<polyline fill="none" stroke="black" points="136,-360 214,-360 "/>
<path fill="none" stroke="black" d="M214,-360C220,-360 226,-366 226,-372"/>
<polyline fill="none" stroke="black" points="226,-372 226,-384 "/>
<path fill="none" stroke="black" d="M226,-384C226,-390 220,-396 214,-396"/>
<text text-anchor="middle" x="175" y="-374.4" font-family="Times Roman,serif" font-size="14.00">DBPassword</text>
</g>
<!-- DBPassword&#45;&gt;MySQLDatabase -->
<g id="edge10" class="edge"><title>DBPassword&#45;&gt;MySQLDatabase</title>
<path fill="none" stroke="black" d="M194.966,-359.955C237.582,-321.441 337.524,-231.116 386.276,-187.056"/>
<polygon fill="black" stroke="black" points="388.851,-189.447 393.923,-180.145 384.157,-184.253 388.851,-189.447"/>
</g>
<!-- DBPassword&#45;&gt;WebServer -->
<g id="edge40" class="edge"><title>DBPassword&#45;&gt;WebServer</title>
<path fill="none" stroke="black" d="M181.547,-359.937C199.092,-314.459 251.902,-195.216 340,-144 399.256,-109.551 597.549,-96.4909 695.82,-92.047"/>
<polygon fill="black" stroke="black" points="696.029,-95.5413 705.867,-91.6071 695.723,-88.548 696.029,-95.5413"/>
</g>
<!-- DBInstanceClass -->
<g id="node14" class="node"><title>DBInstanceClass</title>
<polygon fill="lightgrey" stroke="lightgrey" points="534,-396 428,-396 416,-384 416,-372 428,-360 534,-360 546,-372 546,-384 534,-396"/>
<path fill="lightgrey" stroke="lightgrey" d="M428,-396C422,-396 416,-390 416,-384"/>
<path fill="lightgrey" stroke="lightgrey" d="M416,-372C416,-366 422,-360 428,-360"/>
<path fill="lightgrey" stroke="lightgrey" d="M534,-360C540,-360 546,-366 546,-372"/>
<path fill="lightgrey" stroke="lightgrey" d="M546,-384C546,-390 540,-396 534,-396"/>
<polyline fill="none" stroke="black" points="534,-396 428,-396 "/>
<path fill="none" stroke="black" d="M428,-396C422,-396 416,-390 416,-384"/>
<polyline fill="none" stroke="black" points="416,-384 416,-372 "/>
<path fill="none" stroke="black" d="M416,-372C416,-366 422,-360 428,-360"/>
<polyline fill="none" stroke="black" points="428,-360 534,-360 "/>
<path fill="none" stroke="black" d="M534,-360C540,-360 546,-366 546,-372"/>
<polyline fill="none" stroke="black" points="546,-372 546,-384 "/>
<path fill="none" stroke="black" d="M546,-384C546,-390 540,-396 534,-396"/>
<text text-anchor="middle" x="481" y="-374.4" font-family="Times Roman,serif" font-size="14.00">DBInstanceClass</text>
</g>
<!-- DBInstanceClass&#45;&gt;MySQLDatabase -->
<g id="edge14" class="edge"><title>DBInstanceClass&#45;&gt;MySQLDatabase</title>
<path fill="none" stroke="black" d="M451.042,-359.92C438.797,-350.805 425.908,-338.576 419,-324 398.558,-280.865 403.012,-223.76 408.344,-190.142"/>
<polygon fill="black" stroke="black" points="411.826,-190.549 410.076,-180.1 404.927,-189.36 411.826,-190.549"/>
</g>
<!-- DBName -->
<g id="node15" class="node"><title>DBName</title>
<polygon fill="lightgrey" stroke="lightgrey" points="628,-396 576,-396 564,-384 564,-372 576,-360 628,-360 640,-372 640,-384 628,-396"/>
<path fill="lightgrey" stroke="lightgrey" d="M576,-396C570,-396 564,-390 564,-384"/>
<path fill="lightgrey" stroke="lightgrey" d="M564,-372C564,-366 570,-360 576,-360"/>
<path fill="lightgrey" stroke="lightgrey" d="M628,-360C634,-360 640,-366 640,-372"/>
<path fill="lightgrey" stroke="lightgrey" d="M640,-384C640,-390 634,-396 628,-396"/>
<polyline fill="none" stroke="black" points="628,-396 576,-396 "/>
<path fill="none" stroke="black" d="M576,-396C570,-396 564,-390 564,-384"/>
<polyline fill="none" stroke="black" points="564,-384 564,-372 "/>
<path fill="none" stroke="black" d="M564,-372C564,-366 570,-360 576,-360"/>
<polyline fill="none" stroke="black" points="576,-360 628,-360 "/>
<path fill="none" stroke="black" d="M628,-360C634,-360 640,-366 640,-372"/>
<polyline fill="none" stroke="black" points="640,-372 640,-384 "/>
<path fill="none" stroke="black" d="M640,-384C640,-390 634,-396 628,-396"/>
<text text-anchor="middle" x="602" y="-374.4" font-family="Times Roman,serif" font-size="14.00">DBName</text>
</g>
<!-- DBName&#45;&gt;MySQLDatabase -->
<g id="edge16" class="edge"><title>DBName&#45;&gt;MySQLDatabase</title>
<path fill="none" stroke="black" d="M573.04,-359.866C539.927,-337.869 485.93,-297.971 452,-252 438.148,-233.232 428.212,-208.654 421.982,-189.925"/>
<polygon fill="black" stroke="black" points="425.257,-188.673 418.901,-180.196 418.584,-190.786 425.257,-188.673"/>
</g>
<!-- DBName&#45;&gt;WebServer -->
<g id="edge36" class="edge"><title>DBName&#45;&gt;WebServer</title>
<path fill="none" stroke="black" d="M598.036,-359.86C594.786,-341.281 591.909,-311.826 600,-288 624.457,-215.978 686.827,-149.642 723.627,-115.05"/>
<polygon fill="black" stroke="black" points="726.109,-117.522 731.069,-108.16 721.353,-112.385 726.109,-117.522"/>
</g>
<!-- AWS::StackId -->
<g id="node26" class="node"><title>AWS::StackId</title>
<polygon fill="none" stroke="black" points="899,-252 789,-252 789,-216 899,-216 899,-252"/>
<text text-anchor="middle" x="844" y="-230.4" font-family="Times Roman,serif" font-size="14.00">AWS::StackId</text>
</g>
<!-- AWS::StackId&#45;&gt;WebServer -->
<g id="edge20" class="edge"><title>AWS::StackId&#45;&gt;WebServer</title>
<path fill="none" stroke="black" d="M832.348,-215.762C816.38,-190.768 787.581,-145.692 769.148,-116.841"/>
<polygon fill="black" stroke="black" points="771.891,-114.632 763.557,-108.09 765.992,-118.401 771.891,-114.632"/>
</g>
<!-- AWS::Region -->
<g id="node28" class="node"><title>AWS::Region</title>
<polygon fill="none" stroke="black" points="931,-180 827,-180 827,-144 931,-144 931,-180"/>
<text text-anchor="middle" x="879" y="-158.4" font-family="Times Roman,serif" font-size="14.00">AWS::Region</text>
</g>
<!-- AWS::Region&#45;&gt;WebServer -->
<g id="edge32" class="edge"><title>AWS::Region&#45;&gt;WebServer</title>
<path fill="none" stroke="black" d="M841,-143.831C823.859,-134.622 803.801,-123.33 787.027,-113.471"/>
<polygon fill="black" stroke="black" points="788.471,-110.258 778.085,-108.163 784.898,-116.277 788.471,-110.258"/>
</g>
<!-- AWS::Region&#45;&gt;WebServer -->
<g id="edge22" class="edge"><title>AWS::Region&#45;&gt;WebServer</title>
<path fill="none" stroke="black" d="M852.905,-143.831C837.416,-134.537 817.414,-123.121 799.272,-113.197"/>
<polygon fill="black" stroke="black" points="800.448,-109.853 789.989,-108.163 797.111,-116.007 800.448,-109.853"/>
</g>
</g>
</svg>
