<?xml version="1.0" encoding="UTF-8" standalone="no"?>
<!DOCTYPE svg PUBLIC "-//W3C//DTD SVG 1.1//EN"
 "http://www.w3.org/Graphics/SVG/1.1/DTD/svg11.dtd">
<!-- Generated by graphviz version 2.26.3 (20100126.1600)
 -->
<!-- Title: AWS CloudFormation Sample Template Rails_Multi_AZ: Create a highly available, scalable Ruby on Rails stack with a multi&#45;AZ MySQL Amazon RDS database instance for the backend data store. This template demonstrates using the AWS CloudFormation bootstrap scripts to install the packages and files necessary to deploy the packages and files at instance launch time. **WARNING** This template creates one or more Amazon EC2 instances, an Elastic Load Balancer and an Amazon RDS DB instance. You will be billed for the AWS resources used if you create a stack from this template. Pages: 1 -->
<svg width="1316pt" height="548pt"
 viewBox="0.00 0.00 1316.00 548.00" xmlns="http://www.w3.org/2000/svg" xmlns:xlink="http://www.w3.org/1999/xlink">
<g id="graph1" class="graph" transform="scale(1 1) rotate(0) translate(4 544)">
<title>AWS CloudFormation Sample Template Rails_Multi_AZ: Create a highly available, scalable Ruby on Rails stack with a multi&#45;AZ MySQL Amazon RDS database instance for the backend data store. This template demonstrates using the AWS CloudFormation bootstrap scripts to install the packages and files necessary to deploy the packages and files at instance launch time. **WARNING** This template creates one or more Amazon EC2 instances, an Elastic Load Balancer and an Amazon RDS DB instance. You will be billed for the AWS resources used if you create a stack from this template.</title>
<polygon fill="white" stroke="white" points="-4,5 -4,-544 1313,-544 1313,5 -4,5"/>
<!-- DBSecurityGroup -->
<g id="node1" class="node"><title>DBSecurityGroup</title>
<polygon fill="none" stroke="black" points="831,-324 695,-324 695,-288 831,-288 831,-324"/>
<text text-anchor="middle" x="763" y="-302.4" font-family="Times Roman,serif" font-size="14.00">DBSecurityGroup</text>
</g>
<!-- MySQLDatabase -->
<g id="node6" class="node"><title>MySQLDatabase</title>
<polygon fill="none" stroke="black" points="694,-252 564,-252 564,-216 694,-216 694,-252"/>
<text text-anchor="middle" x="629" y="-230.4" font-family="Times Roman,serif" font-size="14.00">MySQLDatabase</text>
</g>
<!-- DBSecurityGroup&#45;&gt;MySQLDatabase -->
<g id="edge48" class="edge"><title>DBSecurityGroup&#45;&gt;MySQLDatabase</title>
<path fill="none" stroke="black" d="M729.186,-287.831C711.729,-278.452 690.251,-266.911 671.665,-256.924"/>
<polygon fill="black" stroke="black" points="673.269,-253.813 662.803,-252.163 669.955,-259.979 673.269,-253.813"/>
</g>
<!-- WebServerSecurityGroup -->
<g id="node2" class="node"><title>WebServerSecurityGroup</title>
<polygon fill="none" stroke="black" points="887,-396 695,-396 695,-360 887,-360 887,-396"/>
<text text-anchor="middle" x="791" y="-374.4" font-family="Times Roman,serif" font-size="14.00">WebServerSecurityGroup</text>
</g>
<!-- WebServerSecurityGroup&#45;&gt;DBSecurityGroup -->
<g id="edge4" class="edge"><title>WebServerSecurityGroup&#45;&gt;DBSecurityGroup</title>
<path fill="none" stroke="black" d="M783.934,-359.831C780.874,-351.962 777.222,-342.571 773.832,-333.853"/>
<polygon fill="black" stroke="black" points="777.047,-332.465 770.161,-324.413 770.523,-335.002 777.047,-332.465"/>
</g>
<!-- LaunchConfig -->
<g id="node4" class="node"><title>LaunchConfig</title>
<polygon fill="none" stroke="black" points="797,-180 687,-180 687,-144 797,-144 797,-180"/>
<text text-anchor="middle" x="742" y="-158.4" font-family="Times Roman,serif" font-size="14.00">LaunchConfig</text>
</g>
<!-- WebServerSecurityGroup&#45;&gt;LaunchConfig -->
<g id="edge28" class="edge"><title>WebServerSecurityGroup&#45;&gt;LaunchConfig</title>
<path fill="none" stroke="black" d="M812.637,-359.969C832.12,-341.476 855.495,-312.09 840,-288 819.126,-255.549 785.131,-282.108 761,-252 747.096,-234.652 742.696,-209.555 741.574,-190.269"/>
<polygon fill="black" stroke="black" points="745.071,-190.119 741.249,-180.238 738.075,-190.346 745.071,-190.119"/>
</g>
<!-- WebServerGroup -->
<g id="node3" class="node"><title>WebServerGroup</title>
<polygon fill="none" stroke="black" points="1294,-108 1158,-108 1158,-72 1294,-72 1294,-108"/>
<text text-anchor="middle" x="1226" y="-86.4" font-family="Times Roman,serif" font-size="14.00">WebServerGroup</text>
</g>
<!-- LaunchConfig&#45;&gt;WebServerGroup -->
<g id="edge14" class="edge"><title>LaunchConfig&#45;&gt;WebServerGroup</title>
<path fill="none" stroke="black" d="M797.05,-153.811C882.957,-141.031 1049.23,-116.296 1147.62,-101.659"/>
<polygon fill="black" stroke="black" points="1148.43,-105.078 1157.81,-100.144 1147.4,-98.1538 1148.43,-105.078"/>
</g>
<!-- ElasticLoadBalancer -->
<g id="node5" class="node"><title>ElasticLoadBalancer</title>
<polygon fill="none" stroke="black" points="1020,-468 866,-468 866,-432 1020,-432 1020,-468"/>
<text text-anchor="middle" x="943" y="-446.4" font-family="Times Roman,serif" font-size="14.00">ElasticLoadBalancer</text>
</g>
<!-- ElasticLoadBalancer&#45;&gt;WebServerSecurityGroup -->
<g id="edge6" class="edge"><title>ElasticLoadBalancer&#45;&gt;WebServerSecurityGroup</title>
<path fill="none" stroke="black" d="M898.692,-431.831C877.708,-422.33 852.85,-410.612 832.267,-400.537"/>
<polygon fill="black" stroke="black" points="833.658,-397.321 823.141,-396.038 830.562,-403.599 833.658,-397.321"/>
</g>
<!-- ElasticLoadBalancer&#45;&gt;WebServerSecurityGroup -->
<g id="edge8" class="edge"><title>ElasticLoadBalancer&#45;&gt;WebServerSecurityGroup</title>
<path fill="none" stroke="black" d="M910.596,-431.831C891.292,-422.245 866.402,-410.401 844.298,-400.266"/>
<polygon fill="black" stroke="black" points="845.571,-396.999 835.02,-396.038 842.668,-403.369 845.571,-396.999"/>
</g>
<!-- ElasticLoadBalancer&#45;&gt;WebServerGroup -->
<g id="edge16" class="edge"><title>ElasticLoadBalancer&#45;&gt;WebServerGroup</title>
<path fill="none" stroke="black" d="M997.391,-431.893C1017.7,-423.272 1039.94,-411.417 1057,-396 1145.99,-315.583 1198.3,-176.956 1217.53,-117.925"/>
<polygon fill="black" stroke="black" points="1220.93,-118.773 1220.63,-108.183 1214.26,-116.647 1220.93,-118.773"/>
</g>
<!-- WebsiteURL -->
<g id="node21" class="node"><title>WebsiteURL</title>
<polygon fill="lightgrey" stroke="lightgrey" points="1168,-36 1092,-36 1080,-24 1080,-12 1092,-1.60583e-14 1168,-5.25802e-15 1180,-12 1180,-24 1168,-36"/>
<path fill="lightgrey" stroke="lightgrey" d="M1092,-36C1086,-36 1080,-30 1080,-24"/>
<path fill="lightgrey" stroke="lightgrey" d="M1080,-12C1080,-6 1086,-1.69109e-14 1092,-1.60583e-14"/>
<path fill="lightgrey" stroke="lightgrey" d="M1168,-5.25802e-15C1174,-4.40536e-15 1180,-6 1180,-12"/>
<path fill="lightgrey" stroke="lightgrey" d="M1180,-24C1180,-30 1174,-36 1168,-36"/>
<polyline fill="none" stroke="black" points="1168,-36 1092,-36 "/>
<path fill="none" stroke="black" d="M1092,-36C1086,-36 1080,-30 1080,-24"/>
<polyline fill="none" stroke="black" points="1080,-24 1080,-12 "/>
<path fill="none" stroke="black" d="M1080,-12C1080,-6 1086,-1.69109e-14 1092,-1.60583e-14"/>
<polyline fill="none" stroke="black" points="1092,-1.60583e-14 1168,-5.25802e-15 "/>
<path fill="none" stroke="black" d="M1168,-5.25802e-15C1174,-4.40536e-15 1180,-6 1180,-12"/>
<polyline fill="none" stroke="black" points="1180,-12 1180,-24 "/>
<path fill="none" stroke="black" d="M1180,-24C1180,-30 1174,-36 1168,-36"/>
<text text-anchor="middle" x="1130" y="-14.4" font-family="Times Roman,serif" font-size="14.00">WebsiteURL</text>
</g>
<!-- ElasticLoadBalancer&#45;&gt;WebsiteURL -->
<g id="edge64" class="edge"><title>ElasticLoadBalancer&#45;&gt;WebsiteURL</title>
<path fill="none" stroke="black" d="M980.517,-431.967C995.819,-423.001 1012.57,-410.873 1024,-396 1108.01,-286.719 1125.44,-114.19 1129.05,-46.549"/>
<polygon fill="black" stroke="black" points="1132.56,-46.41 1129.54,-36.2565 1125.57,-46.0808 1132.56,-46.41"/>
</g>
<!-- MySQLDatabase&#45;&gt;LaunchConfig -->
<g id="edge42" class="edge"><title>MySQLDatabase&#45;&gt;LaunchConfig</title>
<path fill="none" stroke="black" d="M651.562,-215.831C665.118,-206.622 682.7,-195.33 698.791,-185.471"/>
<polygon fill="black" stroke="black" points="700.807,-188.341 707.543,-180.163 697.177,-182.356 700.807,-188.341"/>
</g>
<!-- MySQLDatabase&#45;&gt;LaunchConfig -->
<g id="edge44" class="edge"><title>MySQLDatabase&#45;&gt;LaunchConfig</title>
<path fill="none" stroke="black" d="M663.467,-215.831C678.676,-206.707 696.35,-195.539 711.123,-185.745"/>
<polygon fill="black" stroke="black" points="713.091,-188.64 719.446,-180.163 709.192,-182.826 713.091,-188.64"/>
</g>
<!-- WaitCondition -->
<g id="node7" class="node"><title>WaitCondition</title>
<polygon fill="none" stroke="black" points="1087,-180 973,-180 973,-144 1087,-144 1087,-180"/>
<text text-anchor="middle" x="1030" y="-158.4" font-family="Times Roman,serif" font-size="14.00">WaitCondition</text>
</g>
<!-- WaitHandle -->
<g id="node8" class="node"><title>WaitHandle</title>
<polygon fill="none" stroke="black" points="1064,-252 968,-252 968,-216 1064,-216 1064,-252"/>
<text text-anchor="middle" x="1016" y="-230.4" font-family="Times Roman,serif" font-size="14.00">WaitHandle</text>
</g>
<!-- WaitHandle&#45;&gt;LaunchConfig -->
<g id="edge24" class="edge"><title>WaitHandle&#45;&gt;LaunchConfig</title>
<path fill="none" stroke="black" d="M967.866,-222.377C960.175,-220.213 952.354,-218.003 945,-216 898.887,-203.437 846.885,-190.177 806.993,-179.941"/>
<polygon fill="black" stroke="black" points="807.679,-176.504 797.123,-177.406 805.938,-183.284 807.679,-176.504"/>
</g>
<!-- WaitHandle&#45;&gt;LaunchConfig -->
<g id="edge18" class="edge"><title>WaitHandle&#45;&gt;LaunchConfig</title>
<path fill="none" stroke="black" d="M967.925,-217.353C966.267,-216.894 964.622,-216.442 963,-216 910.875,-201.799 851.224,-186.708 806.96,-176.1"/>
<polygon fill="black" stroke="black" points="807.729,-172.685 797.19,-173.772 806.107,-179.495 807.729,-172.685"/>
</g>
<!-- WaitHandle&#45;&gt;WaitCondition -->
<g id="edge62" class="edge"><title>WaitHandle&#45;&gt;WaitCondition</title>
<path fill="none" stroke="black" d="M1019.53,-215.831C1021.03,-208.131 1022.81,-198.974 1024.47,-190.417"/>
<polygon fill="black" stroke="black" points="1027.95,-190.897 1026.42,-180.413 1021.08,-189.561 1027.95,-190.897"/>
</g>
<!-- DBUsername -->
<g id="node10" class="node"><title>DBUsername</title>
<polygon fill="lightgrey" stroke="lightgrey" points="316,-540 234,-540 222,-528 222,-516 234,-504 316,-504 328,-516 328,-528 316,-540"/>
<path fill="lightgrey" stroke="lightgrey" d="M234,-540C228,-540 222,-534 222,-528"/>
<path fill="lightgrey" stroke="lightgrey" d="M222,-516C222,-510 228,-504 234,-504"/>
<path fill="lightgrey" stroke="lightgrey" d="M316,-504C322,-504 328,-510 328,-516"/>
<path fill="lightgrey" stroke="lightgrey" d="M328,-528C328,-534 322,-540 316,-540"/>
<polyline fill="none" stroke="black" points="316,-540 234,-540 "/>
<path fill="none" stroke="black" d="M234,-540C228,-540 222,-534 222,-528"/>
<polyline fill="none" stroke="black" points="222,-528 222,-516 "/>
<path fill="none" stroke="black" d="M222,-516C222,-510 228,-504 234,-504"/>
<polyline fill="none" stroke="black" points="234,-504 316,-504 "/>
<path fill="none" stroke="black" d="M316,-504C322,-504 328,-510 328,-516"/>
<polyline fill="none" stroke="black" points="328,-516 328,-528 "/>
<path fill="none" stroke="black" d="M328,-528C328,-534 322,-540 316,-540"/>
<text text-anchor="middle" x="275" y="-518.4" font-family="Times Roman,serif" font-size="14.00">DBUsername</text>
</g>
<!-- DBUsername&#45;&gt;LaunchConfig -->
<g id="edge38" class="edge"><title>DBUsername&#45;&gt;LaunchConfig</title>
<path fill="none" stroke="black" d="M281.574,-503.632C290.674,-476.522 306,-424.031 306,-378 306,-378 306,-378 306,-306 306,-228.851 555.248,-186.045 676.837,-169.752"/>
<polygon fill="black" stroke="black" points="677.324,-173.219 686.78,-168.441 676.408,-166.279 677.324,-173.219"/>
</g>
<!-- DBUsername&#45;&gt;MySQLDatabase -->
<g id="edge50" class="edge"><title>DBUsername&#45;&gt;MySQLDatabase</title>
<path fill="none" stroke="black" d="M294.403,-503.775C338.025,-463.149 447.798,-362.851 547,-288 560.973,-277.457 576.93,-266.684 591.031,-257.561"/>
<polygon fill="black" stroke="black" points="593.005,-260.453 599.536,-252.111 589.228,-254.559 593.005,-260.453"/>
</g>
<!-- MultiAZDatabase -->
<g id="node11" class="node"><title>MultiAZDatabase</title>
<polygon fill="lightgrey" stroke="lightgrey" points="910,-540 798,-540 786,-528 786,-516 798,-504 910,-504 922,-516 922,-528 910,-540"/>
<path fill="lightgrey" stroke="lightgrey" d="M798,-540C792,-540 786,-534 786,-528"/>
<path fill="lightgrey" stroke="lightgrey" d="M786,-516C786,-510 792,-504 798,-504"/>
<path fill="lightgrey" stroke="lightgrey" d="M910,-504C916,-504 922,-510 922,-516"/>
<path fill="lightgrey" stroke="lightgrey" d="M922,-528C922,-534 916,-540 910,-540"/>
<polyline fill="none" stroke="black" points="910,-540 798,-540 "/>
<path fill="none" stroke="black" d="M798,-540C792,-540 786,-534 786,-528"/>
<polyline fill="none" stroke="black" points="786,-528 786,-516 "/>
<path fill="none" stroke="black" d="M786,-516C786,-510 792,-504 798,-504"/>
<polyline fill="none" stroke="black" points="798,-504 910,-504 "/>
<path fill="none" stroke="black" d="M910,-504C916,-504 922,-510 922,-516"/>
<polyline fill="none" stroke="black" points="922,-516 922,-528 "/>
<path fill="none" stroke="black" d="M922,-528C922,-534 916,-540 910,-540"/>
<text text-anchor="middle" x="854" y="-518.4" font-family="Times Roman,serif" font-size="14.00">MultiAZDatabase</text>
</g>
<!-- MultiAZDatabase&#45;&gt;MySQLDatabase -->
<g id="edge46" class="edge"><title>MultiAZDatabase&#45;&gt;MySQLDatabase</title>
<path fill="none" stroke="black" d="M802.043,-503.96C755.103,-484.803 688.155,-449.778 653,-396 626.469,-355.414 624.636,-297.007 626.368,-262.536"/>
<polygon fill="black" stroke="black" points="629.882,-262.442 627.029,-252.238 622.896,-261.994 629.882,-262.442"/>
</g>
<!-- DBAllocatedStorage -->
<g id="node12" class="node"><title>DBAllocatedStorage</title>
<polygon fill="lightgrey" stroke="lightgrey" points="608,-540 478,-540 466,-528 466,-516 478,-504 608,-504 620,-516 620,-528 608,-540"/>
<path fill="lightgrey" stroke="lightgrey" d="M478,-540C472,-540 466,-534 466,-528"/>
<path fill="lightgrey" stroke="lightgrey" d="M466,-516C466,-510 472,-504 478,-504"/>
<path fill="lightgrey" stroke="lightgrey" d="M608,-504C614,-504 620,-510 620,-516"/>
<path fill="lightgrey" stroke="lightgrey" d="M620,-528C620,-534 614,-540 608,-540"/>
<polyline fill="none" stroke="black" points="608,-540 478,-540 "/>
<path fill="none" stroke="black" d="M478,-540C472,-540 466,-534 466,-528"/>
<polyline fill="none" stroke="black" points="466,-528 466,-516 "/>
<path fill="none" stroke="black" d="M466,-516C466,-510 472,-504 478,-504"/>
<polyline fill="none" stroke="black" points="478,-504 608,-504 "/>
<path fill="none" stroke="black" d="M608,-504C614,-504 620,-510 620,-516"/>
<polyline fill="none" stroke="black" points="620,-516 620,-528 "/>
<path fill="none" stroke="black" d="M620,-528C620,-534 614,-540 608,-540"/>
<text text-anchor="middle" x="543" y="-518.4" font-family="Times Roman,serif" font-size="14.00">DBAllocatedStorage</text>
</g>
<!-- DBAllocatedStorage&#45;&gt;MySQLDatabase -->
<g id="edge54" class="edge"><title>DBAllocatedStorage&#45;&gt;MySQLDatabase</title>
<path fill="none" stroke="black" d="M545.252,-503.819C550.635,-463.697 566.158,-365.023 597,-288 600.689,-278.788 605.802,-269.296 610.86,-260.89"/>
<polygon fill="black" stroke="black" points="613.923,-262.594 616.257,-252.26 607.988,-258.883 613.923,-262.594"/>
</g>
<!-- InstanceType -->
<g id="node13" class="node"><title>InstanceType</title>
<polygon fill="lightgrey" stroke="lightgrey" points="94,-540 12,-540 3.78956e-14,-528 1.89478e-14,-516 12,-504 94,-504 106,-516 106,-528 94,-540"/>
<path fill="lightgrey" stroke="lightgrey" d="M12,-540C6,-540 4.73695e-14,-534 3.78956e-14,-528"/>
<path fill="lightgrey" stroke="lightgrey" d="M1.89478e-14,-516C9.4739e-15,-510 6,-504 12,-504"/>
<path fill="lightgrey" stroke="lightgrey" d="M94,-504C100,-504 106,-510 106,-516"/>
<path fill="lightgrey" stroke="lightgrey" d="M106,-528C106,-534 100,-540 94,-540"/>
<polyline fill="none" stroke="black" points="94,-540 12,-540 "/>
<path fill="none" stroke="black" d="M12,-540C6,-540 4.73695e-14,-534 3.78956e-14,-528"/>
<polyline fill="none" stroke="black" points="3.78956e-14,-528 1.89478e-14,-516 "/>
<path fill="none" stroke="black" d="M1.89478e-14,-516C9.4739e-15,-510 6,-504 12,-504"/>
<polyline fill="none" stroke="black" points="12,-504 94,-504 "/>
<path fill="none" stroke="black" d="M94,-504C100,-504 106,-510 106,-516"/>
<polyline fill="none" stroke="black" points="106,-516 106,-528 "/>
<path fill="none" stroke="black" d="M106,-528C106,-534 100,-540 94,-540"/>
<text text-anchor="middle" x="53" y="-518.4" font-family="Times Roman,serif" font-size="14.00">InstanceType</text>
</g>
<!-- InstanceType&#45;&gt;LaunchConfig -->
<g id="edge30" class="edge"><title>InstanceType&#45;&gt;LaunchConfig</title>
<path fill="none" stroke="black" d="M53.9149,-503.65C60.1797,-476.562 76,-424.098 76,-378 76,-378 76,-378 76,-306 76,-241.097 130.768,-240.175 191,-216 277.106,-181.441 549.673,-168.134 676.302,-163.805"/>
<polygon fill="black" stroke="black" points="676.75,-167.292 686.628,-163.46 676.517,-160.296 676.75,-167.292"/>
</g>
<!-- InstanceType&#45;&gt;LaunchConfig -->
<g id="edge34" class="edge"><title>InstanceType&#45;&gt;LaunchConfig</title>
<path fill="none" stroke="black" d="M65.6578,-503.65C78.1797,-476.562 94,-424.098 94,-378 94,-378 94,-378 94,-306 94,-241.097 148.768,-240.175 209,-216 292.865,-182.34 553.613,-168.841 676.635,-164.161"/>
<polygon fill="black" stroke="black" points="676.814,-167.657 686.677,-163.787 676.553,-160.662 676.814,-167.657"/>
</g>
<!-- SSHLocation -->
<g id="node14" class="node"><title>SSHLocation</title>
<polygon fill="lightgrey" stroke="lightgrey" points="1032,-540 952,-540 940,-528 940,-516 952,-504 1032,-504 1044,-516 1044,-528 1032,-540"/>
<path fill="lightgrey" stroke="lightgrey" d="M952,-540C946,-540 940,-534 940,-528"/>
<path fill="lightgrey" stroke="lightgrey" d="M940,-516C940,-510 946,-504 952,-504"/>
<path fill="lightgrey" stroke="lightgrey" d="M1032,-504C1038,-504 1044,-510 1044,-516"/>
<path fill="lightgrey" stroke="lightgrey" d="M1044,-528C1044,-534 1038,-540 1032,-540"/>
<polyline fill="none" stroke="black" points="1032,-540 952,-540 "/>
<path fill="none" stroke="black" d="M952,-540C946,-540 940,-534 940,-528"/>
<polyline fill="none" stroke="black" points="940,-528 940,-516 "/>
<path fill="none" stroke="black" d="M940,-516C940,-510 946,-504 952,-504"/>
<polyline fill="none" stroke="black" points="952,-504 1032,-504 "/>
<path fill="none" stroke="black" d="M1032,-504C1038,-504 1044,-510 1044,-516"/>
<polyline fill="none" stroke="black" points="1044,-516 1044,-528 "/>
<path fill="none" stroke="black" d="M1044,-528C1044,-534 1038,-540 1032,-540"/>
<text text-anchor="middle" x="992" y="-518.4" font-family="Times Roman,serif" font-size="14.00">SSHLocation</text>
</g>
<!-- SSHLocation&#45;&gt;WebServerSecurityGroup -->
<g id="edge10" class="edge"><title>SSHLocation&#45;&gt;WebServerSecurityGroup</title>
<path fill="none" stroke="black" d="M939.764,-504.459C907.821,-493.098 870.568,-478.514 857,-468 835.052,-450.992 816.995,-424.823 805.35,-405.079"/>
<polygon fill="black" stroke="black" points="808.305,-403.196 800.31,-396.244 802.225,-406.665 808.305,-403.196"/>
</g>
<!-- KeyName -->
<g id="node15" class="node"><title>KeyName</title>
<polygon fill="lightgrey" stroke="lightgrey" points="192,-540 136,-540 124,-528 124,-516 136,-504 192,-504 204,-516 204,-528 192,-540"/>
<path fill="lightgrey" stroke="lightgrey" d="M136,-540C130,-540 124,-534 124,-528"/>
<path fill="lightgrey" stroke="lightgrey" d="M124,-516C124,-510 130,-504 136,-504"/>
<path fill="lightgrey" stroke="lightgrey" d="M192,-504C198,-504 204,-510 204,-516"/>
<path fill="lightgrey" stroke="lightgrey" d="M204,-528C204,-534 198,-540 192,-540"/>
<polyline fill="none" stroke="black" points="192,-540 136,-540 "/>
<path fill="none" stroke="black" d="M136,-540C130,-540 124,-534 124,-528"/>
<polyline fill="none" stroke="black" points="124,-528 124,-516 "/>
<path fill="none" stroke="black" d="M124,-516C124,-510 130,-504 136,-504"/>
<polyline fill="none" stroke="black" points="136,-504 192,-504 "/>
<path fill="none" stroke="black" d="M192,-504C198,-504 204,-510 204,-516"/>
<polyline fill="none" stroke="black" points="204,-516 204,-528 "/>
<path fill="none" stroke="black" d="M204,-528C204,-534 198,-540 192,-540"/>
<text text-anchor="middle" x="164" y="-518.4" font-family="Times Roman,serif" font-size="14.00">KeyName</text>
</g>
<!-- KeyName&#45;&gt;LaunchConfig -->
<g id="edge26" class="edge"><title>KeyName&#45;&gt;LaunchConfig</title>
<path fill="none" stroke="black" d="M164,-503.815C164,-476.498 164,-423.25 164,-378 164,-378 164,-378 164,-306 164,-201.307 525.561,-172.142 676.759,-164.523"/>
<polygon fill="black" stroke="black" points="677.023,-168.014 686.841,-164.031 676.682,-161.022 677.023,-168.014"/>
</g>
<!-- DBPassword -->
<g id="node16" class="node"><title>DBPassword</title>
<polygon fill="lightgrey" stroke="lightgrey" points="436,-540 358,-540 346,-528 346,-516 358,-504 436,-504 448,-516 448,-528 436,-540"/>
<path fill="lightgrey" stroke="lightgrey" d="M358,-540C352,-540 346,-534 346,-528"/>
<path fill="lightgrey" stroke="lightgrey" d="M346,-516C346,-510 352,-504 358,-504"/>
<path fill="lightgrey" stroke="lightgrey" d="M436,-504C442,-504 448,-510 448,-516"/>
<path fill="lightgrey" stroke="lightgrey" d="M448,-528C448,-534 442,-540 436,-540"/>
<polyline fill="none" stroke="black" points="436,-540 358,-540 "/>
<path fill="none" stroke="black" d="M358,-540C352,-540 346,-534 346,-528"/>
<polyline fill="none" stroke="black" points="346,-528 346,-516 "/>
<path fill="none" stroke="black" d="M346,-516C346,-510 352,-504 358,-504"/>
<polyline fill="none" stroke="black" points="358,-504 436,-504 "/>
<path fill="none" stroke="black" d="M436,-504C442,-504 448,-510 448,-516"/>
<polyline fill="none" stroke="black" points="448,-516 448,-528 "/>
<path fill="none" stroke="black" d="M448,-528C448,-534 442,-540 436,-540"/>
<text text-anchor="middle" x="397" y="-518.4" font-family="Times Roman,serif" font-size="14.00">DBPassword</text>
</g>
<!-- DBPassword&#45;&gt;LaunchConfig -->
<g id="edge40" class="edge"><title>DBPassword&#45;&gt;LaunchConfig</title>
<path fill="none" stroke="black" d="M398.658,-503.833C401.001,-476.539 405,-423.32 405,-378 405,-378 405,-378 405,-306 405,-247.487 578.968,-198.719 676.916,-175.899"/>
<polygon fill="black" stroke="black" points="677.769,-179.294 686.729,-173.64 676.198,-172.473 677.769,-179.294"/>
</g>
<!-- DBPassword&#45;&gt;MySQLDatabase -->
<g id="edge52" class="edge"><title>DBPassword&#45;&gt;MySQLDatabase</title>
<path fill="none" stroke="black" d="M410.564,-503.735C440.338,-463.852 514.027,-366.279 580,-288 587.95,-278.567 596.949,-268.49 605.045,-259.627"/>
<polygon fill="black" stroke="black" points="607.685,-261.927 611.878,-252.197 602.532,-257.188 607.685,-261.927"/>
</g>
<!-- DBInstanceClass -->
<g id="node17" class="node"><title>DBInstanceClass</title>
<polygon fill="lightgrey" stroke="lightgrey" points="756,-540 650,-540 638,-528 638,-516 650,-504 756,-504 768,-516 768,-528 756,-540"/>
<path fill="lightgrey" stroke="lightgrey" d="M650,-540C644,-540 638,-534 638,-528"/>
<path fill="lightgrey" stroke="lightgrey" d="M638,-516C638,-510 644,-504 650,-504"/>
<path fill="lightgrey" stroke="lightgrey" d="M756,-504C762,-504 768,-510 768,-516"/>
<path fill="lightgrey" stroke="lightgrey" d="M768,-528C768,-534 762,-540 756,-540"/>
<polyline fill="none" stroke="black" points="756,-540 650,-540 "/>
<path fill="none" stroke="black" d="M650,-540C644,-540 638,-534 638,-528"/>
<polyline fill="none" stroke="black" points="638,-528 638,-516 "/>
<path fill="none" stroke="black" d="M638,-516C638,-510 644,-504 650,-504"/>
<polyline fill="none" stroke="black" points="650,-504 756,-504 "/>
<path fill="none" stroke="black" d="M756,-504C762,-504 768,-510 768,-516"/>
<polyline fill="none" stroke="black" points="768,-516 768,-528 "/>
<path fill="none" stroke="black" d="M768,-528C768,-534 762,-540 756,-540"/>
<text text-anchor="middle" x="703" y="-518.4" font-family="Times Roman,serif" font-size="14.00">DBInstanceClass</text>
</g>
<!-- DBInstanceClass&#45;&gt;MySQLDatabase -->
<g id="edge56" class="edge"><title>DBInstanceClass&#45;&gt;MySQLDatabase</title>
<path fill="none" stroke="black" d="M655.008,-503.959C639.404,-495.536 623.841,-483.798 615,-468 577.953,-401.8 602.279,-307.943 618.244,-261.803"/>
<polygon fill="black" stroke="black" points="621.611,-262.78 621.692,-252.186 615.022,-260.417 621.611,-262.78"/>
</g>
<!-- DBName -->
<g id="node18" class="node"><title>DBName</title>
<polygon fill="lightgrey" stroke="lightgrey" points="1126,-540 1074,-540 1062,-528 1062,-516 1074,-504 1126,-504 1138,-516 1138,-528 1126,-540"/>
<path fill="lightgrey" stroke="lightgrey" d="M1074,-540C1068,-540 1062,-534 1062,-528"/>
<path fill="lightgrey" stroke="lightgrey" d="M1062,-516C1062,-510 1068,-504 1074,-504"/>
<path fill="lightgrey" stroke="lightgrey" d="M1126,-504C1132,-504 1138,-510 1138,-516"/>
<path fill="lightgrey" stroke="lightgrey" d="M1138,-528C1138,-534 1132,-540 1126,-540"/>
<polyline fill="none" stroke="black" points="1126,-540 1074,-540 "/>
<path fill="none" stroke="black" d="M1074,-540C1068,-540 1062,-534 1062,-528"/>
<polyline fill="none" stroke="black" points="1062,-528 1062,-516 "/>
<path fill="none" stroke="black" d="M1062,-516C1062,-510 1068,-504 1074,-504"/>
<polyline fill="none" stroke="black" points="1074,-504 1126,-504 "/>
<path fill="none" stroke="black" d="M1126,-504C1132,-504 1138,-510 1138,-516"/>
<polyline fill="none" stroke="black" points="1138,-516 1138,-528 "/>
<path fill="none" stroke="black" d="M1138,-528C1138,-534 1132,-540 1126,-540"/>
<text text-anchor="middle" x="1100" y="-518.4" font-family="Times Roman,serif" font-size="14.00">DBName</text>
</g>
<!-- DBName&#45;&gt;LaunchConfig -->
<g id="edge36" class="edge"><title>DBName&#45;&gt;LaunchConfig</title>
<path fill="none" stroke="black" d="M1094.56,-503.929C1077.43,-450.311 1019.19,-291.19 911,-216 880.17,-194.573 840.386,-181.309 807.163,-173.291"/>
<polygon fill="black" stroke="black" points="807.611,-169.803 797.08,-170.968 806.039,-176.624 807.611,-169.803"/>
</g>
<!-- DBName&#45;&gt;MySQLDatabase -->
<g id="edge58" class="edge"><title>DBName&#45;&gt;MySQLDatabase</title>
<path fill="none" stroke="black" d="M1061.98,-506.765C1058.96,-505.764 1055.94,-504.827 1053,-504 889.302,-458.043 802.555,-519.791 686,-396 667.433,-376.28 646.51,-302.955 635.928,-262.044"/>
<polygon fill="black" stroke="black" points="639.268,-260.98 633.407,-252.154 632.485,-262.709 639.268,-260.98"/>
</g>
<!-- WebServerCapacity -->
<g id="node19" class="node"><title>WebServerCapacity</title>
<polygon fill="lightgrey" stroke="lightgrey" points="1296,-540 1168,-540 1156,-528 1156,-516 1168,-504 1296,-504 1308,-516 1308,-528 1296,-540"/>
<path fill="lightgrey" stroke="lightgrey" d="M1168,-540C1162,-540 1156,-534 1156,-528"/>
<path fill="lightgrey" stroke="lightgrey" d="M1156,-516C1156,-510 1162,-504 1168,-504"/>
<path fill="lightgrey" stroke="lightgrey" d="M1296,-504C1302,-504 1308,-510 1308,-516"/>
<path fill="lightgrey" stroke="lightgrey" d="M1308,-528C1308,-534 1302,-540 1296,-540"/>
<polyline fill="none" stroke="black" points="1296,-540 1168,-540 "/>
<path fill="none" stroke="black" d="M1168,-540C1162,-540 1156,-534 1156,-528"/>
<polyline fill="none" stroke="black" points="1156,-528 1156,-516 "/>
<path fill="none" stroke="black" d="M1156,-516C1156,-510 1162,-504 1168,-504"/>
<polyline fill="none" stroke="black" points="1168,-504 1296,-504 "/>
<path fill="none" stroke="black" d="M1296,-504C1302,-504 1308,-510 1308,-516"/>
<polyline fill="none" stroke="black" points="1308,-516 1308,-528 "/>
<path fill="none" stroke="black" d="M1308,-528C1308,-534 1302,-540 1296,-540"/>
<text text-anchor="middle" x="1232" y="-518.4" font-family="Times Roman,serif" font-size="14.00">WebServerCapacity</text>
</g>
<!-- WebServerCapacity&#45;&gt;WebServerGroup -->
<g id="edge12" class="edge"><title>WebServerCapacity&#45;&gt;WebServerGroup</title>
<path fill="none" stroke="black" d="M1231.38,-503.817C1230.5,-476.504 1229,-423.26 1229,-378 1229,-378 1229,-378 1229,-234 1229,-193.867 1227.82,-147.457 1226.94,-118.414"/>
<polygon fill="black" stroke="black" points="1230.43,-118.069 1226.62,-108.183 1223.44,-118.287 1230.43,-118.069"/>
</g>
<!-- WebServerCapacity&#45;&gt;WaitCondition -->
<g id="edge60" class="edge"><title>WebServerCapacity&#45;&gt;WaitCondition</title>
<path fill="none" stroke="black" d="M1224.02,-503.733C1202.49,-455.204 1140.32,-319.691 1073,-216 1066.87,-206.555 1059.44,-196.768 1052.5,-188.162"/>
<polygon fill="black" stroke="black" points="1055.11,-185.822 1046.05,-180.324 1049.7,-190.27 1055.11,-185.822"/>
</g>
<!-- AWS::StackId -->
<g id="node30" class="node"><title>AWS::StackId</title>
<polygon fill="none" stroke="black" points="1015,-396 905,-396 905,-360 1015,-360 1015,-396"/>
<text text-anchor="middle" x="960" y="-374.4" font-family="Times Roman,serif" font-size="14.00">AWS::StackId</text>
</g>
<!-- AWS::StackId&#45;&gt;LaunchConfig -->
<g id="edge20" class="edge"><title>AWS::StackId&#45;&gt;LaunchConfig</title>
<path fill="none" stroke="black" d="M956.074,-359.783C948.036,-326.687 926.664,-256.387 883,-216 861.926,-196.508 833.081,-183.811 806.969,-175.662"/>
<polygon fill="black" stroke="black" points="807.698,-172.229 797.117,-172.757 805.718,-178.943 807.698,-172.229"/>
</g>
<!-- AWS::Region -->
<g id="node32" class="node"><title>AWS::Region</title>
<polygon fill="none" stroke="black" points="874,-252 770,-252 770,-216 874,-216 874,-252"/>
<text text-anchor="middle" x="822" y="-230.4" font-family="Times Roman,serif" font-size="14.00">AWS::Region</text>
</g>
<!-- AWS::Region&#45;&gt;LaunchConfig -->
<g id="edge32" class="edge"><title>AWS::Region&#45;&gt;LaunchConfig</title>
<path fill="none" stroke="black" d="M795.86,-215.831C785.349,-207.134 773.448,-196.578 763.45,-187.127"/>
<polygon fill="black" stroke="black" points="765.857,-184.585 756.229,-180.163 760.997,-189.624 765.857,-184.585"/>
</g>
<!-- AWS::Region&#45;&gt;LaunchConfig -->
<g id="edge22" class="edge"><title>AWS::Region&#45;&gt;LaunchConfig</title>
<path fill="none" stroke="black" d="M807.765,-215.831C798.862,-207.048 787.166,-196.371 776.063,-186.849"/>
<polygon fill="black" stroke="black" points="778.034,-183.933 768.133,-180.163 773.522,-189.284 778.034,-183.933"/>
</g>
</g>
</svg>
