<?xml version="1.0" encoding="UTF-8" standalone="no"?>
<!DOCTYPE svg PUBLIC "-//W3C//DTD SVG 1.1//EN"
 "http://www.w3.org/Graphics/SVG/1.1/DTD/svg11.dtd">
<!-- Generated by graphviz version 2.26.3 (20100126.1600)
 -->
<!-- Title: AWS CloudFormation Sample Template VPC_RDS_DB_Instance: Sample template showing how to create an RDS DBInstance in an existing Virtual Private Cloud (VPC). **WARNING** This template creates an Amazon Relational Database Service database instance. You will be billed for the AWS resources used if you create a stack from this template. Pages: 1 -->
<svg width="849pt" height="260pt"
 viewBox="0.00 0.00 849.00 260.00" xmlns="http://www.w3.org/2000/svg" xmlns:xlink="http://www.w3.org/1999/xlink">
<g id="graph1" class="graph" transform="scale(1 1) rotate(0) translate(4 256)">
<title>AWS CloudFormation Sample Template VPC_RDS_DB_Instance: Sample template showing how to create an RDS DBInstance in an existing Virtual Private Cloud (VPC). **WARNING** This template creates an Amazon Relational Database Service database instance. You will be billed for the AWS resources used if you create a stack from this template.</title>
<polygon fill="white" stroke="white" points="-4,5 -4,-256 846,-256 846,5 -4,5"/>
<!-- MyDB -->
<g id="node1" class="node"><title>MyDB</title>
<polygon fill="none" stroke="black" points="420,-108 362,-108 362,-72 420,-72 420,-108"/>
<text text-anchor="middle" x="391" y="-86.4" font-family="Times Roman,serif" font-size="14.00">MyDB</text>
</g>
<!-- JDBCConnectionString -->
<g id="node13" class="node"><title>JDBCConnectionString</title>
<polygon fill="lightgrey" stroke="lightgrey" points="465,-36 317,-36 305,-24 305,-12 317,-1.67721e-14 465,-4.54417e-15 477,-12 477,-24 465,-36"/>
<path fill="lightgrey" stroke="lightgrey" d="M317,-36C311,-36 305,-30 305,-24"/>
<path fill="lightgrey" stroke="lightgrey" d="M305,-12C305,-6 311,-1.72678e-14 317,-1.67721e-14"/>
<path fill="lightgrey" stroke="lightgrey" d="M465,-4.54417e-15C471,-4.04844e-15 477,-6 477,-12"/>
<path fill="lightgrey" stroke="lightgrey" d="M477,-24C477,-30 471,-36 465,-36"/>
<polyline fill="none" stroke="black" points="465,-36 317,-36 "/>
<path fill="none" stroke="black" d="M317,-36C311,-36 305,-30 305,-24"/>
<polyline fill="none" stroke="black" points="305,-24 305,-12 "/>
<path fill="none" stroke="black" d="M305,-12C305,-6 311,-1.72678e-14 317,-1.67721e-14"/>
<polyline fill="none" stroke="black" points="317,-1.67721e-14 465,-4.54417e-15 "/>
<path fill="none" stroke="black" d="M465,-4.54417e-15C471,-4.04844e-15 477,-6 477,-12"/>
<polyline fill="none" stroke="black" points="477,-12 477,-24 "/>
<path fill="none" stroke="black" d="M477,-24C477,-30 471,-36 465,-36"/>
<text text-anchor="middle" x="391" y="-14.4" font-family="Times Roman,serif" font-size="14.00">JDBCConnectionString</text>
</g>
<!-- MyDB&#45;&gt;JDBCConnectionString -->
<g id="edge24" class="edge"><title>MyDB&#45;&gt;JDBCConnectionString</title>
<path fill="none" stroke="black" d="M385.048,-71.8314C384.297,-64.131 384.076,-54.9743 384.385,-46.4166"/>
<polygon fill="black" stroke="black" points="387.879,-46.6161 385.024,-36.4133 380.893,-46.1697 387.879,-46.6161"/>
</g>
<!-- MyDB&#45;&gt;JDBCConnectionString -->
<g id="edge22" class="edge"><title>MyDB&#45;&gt;JDBCConnectionString</title>
<path fill="none" stroke="black" d="M396.952,-71.8314C397.703,-64.131 397.924,-54.9743 397.615,-46.4166"/>
<polygon fill="black" stroke="black" points="401.107,-46.1697 396.976,-36.4133 394.121,-46.6161 401.107,-46.1697"/>
</g>
<!-- MyDBSubnetGroup -->
<g id="node2" class="node"><title>MyDBSubnetGroup</title>
<polygon fill="none" stroke="black" points="235,-180 85,-180 85,-144 235,-144 235,-180"/>
<text text-anchor="middle" x="160" y="-158.4" font-family="Times Roman,serif" font-size="14.00">MyDBSubnetGroup</text>
</g>
<!-- MyDBSubnetGroup&#45;&gt;MyDB -->
<g id="edge14" class="edge"><title>MyDBSubnetGroup&#45;&gt;MyDB</title>
<path fill="none" stroke="black" d="M217.993,-143.924C259.894,-130.864 315.352,-113.579 352.052,-102.14"/>
<polygon fill="black" stroke="black" points="353.373,-105.394 361.879,-99.0768 351.29,-98.7111 353.373,-105.394"/>
</g>
<!-- myVPCSecurityGroup -->
<g id="node3" class="node"><title>myVPCSecurityGroup</title>
<polygon fill="none" stroke="black" points="419,-180 253,-180 253,-144 419,-144 419,-180"/>
<text text-anchor="middle" x="336" y="-158.4" font-family="Times Roman,serif" font-size="14.00">myVPCSecurityGroup</text>
</g>
<!-- myVPCSecurityGroup&#45;&gt;MyDB -->
<g id="edge8" class="edge"><title>myVPCSecurityGroup&#45;&gt;MyDB</title>
<path fill="none" stroke="black" d="M349.879,-143.831C356.214,-135.539 363.838,-125.557 370.793,-116.453"/>
<polygon fill="black" stroke="black" points="373.645,-118.485 376.934,-108.413 368.083,-114.235 373.645,-118.485"/>
</g>
<!-- DBUsername -->
<g id="node5" class="node"><title>DBUsername</title>
<polygon fill="lightgrey" stroke="lightgrey" points="447,-252 365,-252 353,-240 353,-228 365,-216 447,-216 459,-228 459,-240 447,-252"/>
<path fill="lightgrey" stroke="lightgrey" d="M365,-252C359,-252 353,-246 353,-240"/>
<path fill="lightgrey" stroke="lightgrey" d="M353,-228C353,-222 359,-216 365,-216"/>
<path fill="lightgrey" stroke="lightgrey" d="M447,-216C453,-216 459,-222 459,-228"/>
<path fill="lightgrey" stroke="lightgrey" d="M459,-240C459,-246 453,-252 447,-252"/>
<polyline fill="none" stroke="black" points="447,-252 365,-252 "/>
<path fill="none" stroke="black" d="M365,-252C359,-252 353,-246 353,-240"/>
<polyline fill="none" stroke="black" points="353,-240 353,-228 "/>
<path fill="none" stroke="black" d="M353,-228C353,-222 359,-216 365,-216"/>
<polyline fill="none" stroke="black" points="365,-216 447,-216 "/>
<path fill="none" stroke="black" d="M447,-216C453,-216 459,-222 459,-228"/>
<polyline fill="none" stroke="black" points="459,-228 459,-240 "/>
<path fill="none" stroke="black" d="M459,-240C459,-246 453,-252 447,-252"/>
<text text-anchor="middle" x="406" y="-230.4" font-family="Times Roman,serif" font-size="14.00">DBUsername</text>
</g>
<!-- DBUsername&#45;&gt;MyDB -->
<g id="edge4" class="edge"><title>DBUsername&#45;&gt;MyDB</title>
<path fill="none" stroke="black" d="M416.173,-215.895C425.117,-197.594 435.614,-168.584 428,-144 424.956,-134.17 419.436,-124.539 413.573,-116.195"/>
<polygon fill="black" stroke="black" points="416.231,-113.906 407.428,-108.011 410.634,-118.109 416.231,-113.906"/>
</g>
<!-- Subnets -->
<g id="node6" class="node"><title>Subnets</title>
<polygon fill="lightgrey" stroke="lightgrey" points="184,-252 136,-252 124,-240 124,-228 136,-216 184,-216 196,-228 196,-240 184,-252"/>
<path fill="lightgrey" stroke="lightgrey" d="M136,-252C130,-252 124,-246 124,-240"/>
<path fill="lightgrey" stroke="lightgrey" d="M124,-228C124,-222 130,-216 136,-216"/>
<path fill="lightgrey" stroke="lightgrey" d="M184,-216C190,-216 196,-222 196,-228"/>
<path fill="lightgrey" stroke="lightgrey" d="M196,-240C196,-246 190,-252 184,-252"/>
<polyline fill="none" stroke="black" points="184,-252 136,-252 "/>
<path fill="none" stroke="black" d="M136,-252C130,-252 124,-246 124,-240"/>
<polyline fill="none" stroke="black" points="124,-240 124,-228 "/>
<path fill="none" stroke="black" d="M124,-228C124,-222 130,-216 136,-216"/>
<polyline fill="none" stroke="black" points="136,-216 184,-216 "/>
<path fill="none" stroke="black" d="M184,-216C190,-216 196,-222 196,-228"/>
<polyline fill="none" stroke="black" points="196,-228 196,-240 "/>
<path fill="none" stroke="black" d="M196,-240C196,-246 190,-252 184,-252"/>
<text text-anchor="middle" x="160" y="-230.4" font-family="Times Roman,serif" font-size="14.00">Subnets</text>
</g>
<!-- Subnets&#45;&gt;MyDBSubnetGroup -->
<g id="edge18" class="edge"><title>Subnets&#45;&gt;MyDBSubnetGroup</title>
<path fill="none" stroke="black" d="M160,-215.831C160,-208.131 160,-198.974 160,-190.417"/>
<polygon fill="black" stroke="black" points="163.5,-190.413 160,-180.413 156.5,-190.413 163.5,-190.413"/>
</g>
<!-- VpcId -->
<g id="node7" class="node"><title>VpcId</title>
<polygon fill="lightgrey" stroke="lightgrey" points="323,-252 293,-252 281,-240 281,-228 293,-216 323,-216 335,-228 335,-240 323,-252"/>
<path fill="lightgrey" stroke="lightgrey" d="M293,-252C287,-252 281,-246 281,-240"/>
<path fill="lightgrey" stroke="lightgrey" d="M281,-228C281,-222 287,-216 293,-216"/>
<path fill="lightgrey" stroke="lightgrey" d="M323,-216C329,-216 335,-222 335,-228"/>
<path fill="lightgrey" stroke="lightgrey" d="M335,-240C335,-246 329,-252 323,-252"/>
<polyline fill="none" stroke="black" points="323,-252 293,-252 "/>
<path fill="none" stroke="black" d="M293,-252C287,-252 281,-246 281,-240"/>
<polyline fill="none" stroke="black" points="281,-240 281,-228 "/>
<path fill="none" stroke="black" d="M281,-228C281,-222 287,-216 293,-216"/>
<polyline fill="none" stroke="black" points="293,-216 323,-216 "/>
<path fill="none" stroke="black" d="M323,-216C329,-216 335,-222 335,-228"/>
<polyline fill="none" stroke="black" points="335,-228 335,-240 "/>
<path fill="none" stroke="black" d="M335,-240C335,-246 329,-252 323,-252"/>
<text text-anchor="middle" x="308" y="-230.4" font-family="Times Roman,serif" font-size="14.00">VpcId</text>
</g>
<!-- VpcId&#45;&gt;myVPCSecurityGroup -->
<g id="edge20" class="edge"><title>VpcId&#45;&gt;myVPCSecurityGroup</title>
<path fill="none" stroke="black" d="M315.066,-215.831C318.126,-207.962 321.778,-198.571 325.168,-189.853"/>
<polygon fill="black" stroke="black" points="328.477,-191.002 328.839,-180.413 321.953,-188.465 328.477,-191.002"/>
</g>
<!-- DBClass -->
<g id="node8" class="node"><title>DBClass</title>
<polygon fill="lightgrey" stroke="lightgrey" points="537,-252 489,-252 477,-240 477,-228 489,-216 537,-216 549,-228 549,-240 537,-252"/>
<path fill="lightgrey" stroke="lightgrey" d="M489,-252C483,-252 477,-246 477,-240"/>
<path fill="lightgrey" stroke="lightgrey" d="M477,-228C477,-222 483,-216 489,-216"/>
<path fill="lightgrey" stroke="lightgrey" d="M537,-216C543,-216 549,-222 549,-228"/>
<path fill="lightgrey" stroke="lightgrey" d="M549,-240C549,-246 543,-252 537,-252"/>
<polyline fill="none" stroke="black" points="537,-252 489,-252 "/>
<path fill="none" stroke="black" d="M489,-252C483,-252 477,-246 477,-240"/>
<polyline fill="none" stroke="black" points="477,-240 477,-228 "/>
<path fill="none" stroke="black" d="M477,-228C477,-222 483,-216 489,-216"/>
<polyline fill="none" stroke="black" points="489,-216 537,-216 "/>
<path fill="none" stroke="black" d="M537,-216C543,-216 549,-222 549,-228"/>
<polyline fill="none" stroke="black" points="549,-228 549,-240 "/>
<path fill="none" stroke="black" d="M549,-240C549,-246 543,-252 537,-252"/>
<text text-anchor="middle" x="513" y="-230.4" font-family="Times Roman,serif" font-size="14.00">DBClass</text>
</g>
<!-- DBClass&#45;&gt;MyDB -->
<g id="edge12" class="edge"><title>DBClass&#45;&gt;MyDB</title>
<path fill="none" stroke="black" d="M499.855,-215.969C486.172,-197.476 463.865,-168.09 443,-144 434.612,-134.316 424.986,-124.095 416.315,-115.182"/>
<polygon fill="black" stroke="black" points="418.808,-112.725 409.303,-108.043 413.814,-117.63 418.808,-112.725"/>
</g>
<!-- DBAllocatedStorage -->
<g id="node9" class="node"><title>DBAllocatedStorage</title>
<polygon fill="lightgrey" stroke="lightgrey" points="709,-252 579,-252 567,-240 567,-228 579,-216 709,-216 721,-228 721,-240 709,-252"/>
<path fill="lightgrey" stroke="lightgrey" d="M579,-252C573,-252 567,-246 567,-240"/>
<path fill="lightgrey" stroke="lightgrey" d="M567,-228C567,-222 573,-216 579,-216"/>
<path fill="lightgrey" stroke="lightgrey" d="M709,-216C715,-216 721,-222 721,-228"/>
<path fill="lightgrey" stroke="lightgrey" d="M721,-240C721,-246 715,-252 709,-252"/>
<polyline fill="none" stroke="black" points="709,-252 579,-252 "/>
<path fill="none" stroke="black" d="M579,-252C573,-252 567,-246 567,-240"/>
<polyline fill="none" stroke="black" points="567,-240 567,-228 "/>
<path fill="none" stroke="black" d="M567,-228C567,-222 573,-216 579,-216"/>
<polyline fill="none" stroke="black" points="579,-216 709,-216 "/>
<path fill="none" stroke="black" d="M709,-216C715,-216 721,-222 721,-228"/>
<polyline fill="none" stroke="black" points="721,-228 721,-240 "/>
<path fill="none" stroke="black" d="M721,-240C721,-246 715,-252 709,-252"/>
<text text-anchor="middle" x="644" y="-230.4" font-family="Times Roman,serif" font-size="14.00">DBAllocatedStorage</text>
</g>
<!-- DBAllocatedStorage&#45;&gt;MyDB -->
<g id="edge10" class="edge"><title>DBAllocatedStorage&#45;&gt;MyDB</title>
<path fill="none" stroke="black" d="M612.214,-215.908C565.611,-189.383 478.881,-140.019 428.985,-111.62"/>
<polygon fill="black" stroke="black" points="430.537,-108.476 420.114,-106.571 427.074,-114.559 430.537,-108.476"/>
</g>
<!-- DBPassword -->
<g id="node10" class="node"><title>DBPassword</title>
<polygon fill="lightgrey" stroke="lightgrey" points="829,-252 751,-252 739,-240 739,-228 751,-216 829,-216 841,-228 841,-240 829,-252"/>
<path fill="lightgrey" stroke="lightgrey" d="M751,-252C745,-252 739,-246 739,-240"/>
<path fill="lightgrey" stroke="lightgrey" d="M739,-228C739,-222 745,-216 751,-216"/>
<path fill="lightgrey" stroke="lightgrey" d="M829,-216C835,-216 841,-222 841,-228"/>
<path fill="lightgrey" stroke="lightgrey" d="M841,-240C841,-246 835,-252 829,-252"/>
<polyline fill="none" stroke="black" points="829,-252 751,-252 "/>
<path fill="none" stroke="black" d="M751,-252C745,-252 739,-246 739,-240"/>
<polyline fill="none" stroke="black" points="739,-240 739,-228 "/>
<path fill="none" stroke="black" d="M739,-228C739,-222 745,-216 751,-216"/>
<polyline fill="none" stroke="black" points="751,-216 829,-216 "/>
<path fill="none" stroke="black" d="M829,-216C835,-216 841,-222 841,-228"/>
<polyline fill="none" stroke="black" points="841,-228 841,-240 "/>
<path fill="none" stroke="black" d="M841,-240C841,-246 835,-252 829,-252"/>
<text text-anchor="middle" x="790" y="-230.4" font-family="Times Roman,serif" font-size="14.00">DBPassword</text>
</g>
<!-- DBPassword&#45;&gt;MyDB -->
<g id="edge6" class="edge"><title>DBPassword&#45;&gt;MyDB</title>
<path fill="none" stroke="black" d="M739.87,-215.908C659.31,-186.834 502.716,-130.318 429.931,-104.05"/>
<polygon fill="black" stroke="black" points="430.828,-100.653 420.234,-100.551 428.452,-107.238 430.828,-100.653"/>
</g>
<!-- DBName -->
<g id="node11" class="node"><title>DBName</title>
<polygon fill="lightgrey" stroke="lightgrey" points="64,-252 12,-252 2.84217e-14,-240 1.42109e-14,-228 12,-216 64,-216 76,-228 76,-240 64,-252"/>
<path fill="lightgrey" stroke="lightgrey" d="M12,-252C6,-252 3.55271e-14,-246 2.84217e-14,-240"/>
<path fill="lightgrey" stroke="lightgrey" d="M1.42109e-14,-228C7.10543e-15,-222 6,-216 12,-216"/>
<path fill="lightgrey" stroke="lightgrey" d="M64,-216C70,-216 76,-222 76,-228"/>
<path fill="lightgrey" stroke="lightgrey" d="M76,-240C76,-246 70,-252 64,-252"/>
<polyline fill="none" stroke="black" points="64,-252 12,-252 "/>
<path fill="none" stroke="black" d="M12,-252C6,-252 3.55271e-14,-246 2.84217e-14,-240"/>
<polyline fill="none" stroke="black" points="2.84217e-14,-240 1.42109e-14,-228 "/>
<path fill="none" stroke="black" d="M1.42109e-14,-228C7.10543e-15,-222 6,-216 12,-216"/>
<polyline fill="none" stroke="black" points="12,-216 64,-216 "/>
<path fill="none" stroke="black" d="M64,-216C70,-216 76,-222 76,-228"/>
<polyline fill="none" stroke="black" points="76,-228 76,-240 "/>
<path fill="none" stroke="black" d="M76,-240C76,-246 70,-252 64,-252"/>
<text text-anchor="middle" x="38" y="-230.4" font-family="Times Roman,serif" font-size="14.00">DBName</text>
</g>
<!-- DBName&#45;&gt;MyDB -->
<g id="edge16" class="edge"><title>DBName&#45;&gt;MyDB</title>
<path fill="none" stroke="black" d="M40.4697,-215.684C44.2865,-194.933 53.6752,-161.706 76,-144 118.056,-110.645 276.478,-96.8627 351.344,-92.1206"/>
<polygon fill="black" stroke="black" points="351.991,-95.5877 361.76,-91.4853 351.565,-88.6007 351.991,-95.5877"/>
</g>
<!-- DBName&#45;&gt;JDBCConnectionString -->
<g id="edge26" class="edge"><title>DBName&#45;&gt;JDBCConnectionString</title>
<path fill="none" stroke="black" d="M34.8271,-215.708C32.4705,-195.903 31.9996,-164.417 48,-144 80.4224,-102.627 214.591,-62.0212 305.198,-38.5248"/>
<polygon fill="black" stroke="black" points="306.108,-41.9047 314.922,-36.0253 304.365,-35.1251 306.108,-41.9047"/>
</g>
</g>
</svg>
