<?xml version="1.0" encoding="UTF-8" standalone="no"?>
<!DOCTYPE svg PUBLIC "-//W3C//DTD SVG 1.1//EN"
 "http://www.w3.org/Graphics/SVG/1.1/DTD/svg11.dtd">
<!-- Generated by graphviz version 2.26.3 (20100126.1600)
 -->
<!-- Title: AWS CloudFormation Sample Template RDS_MySQL_55: Sample template showing how to create a highly&#45;available, RDS DBInstance version 5.5 with alarming on important metrics that indicate the health of the database **WARNING** This template creates an Amazon Relational Database Service database instance and Amazon CloudWatch alarms. You will be billed for the AWS resources used if you create a stack from this template. Pages: 1 -->
<svg width="996pt" height="332pt"
 viewBox="0.00 0.00 996.00 332.00" xmlns="http://www.w3.org/2000/svg" xmlns:xlink="http://www.w3.org/1999/xlink">
<g id="graph1" class="graph" transform="scale(1 1) rotate(0) translate(4 328)">
<title>AWS CloudFormation Sample Template RDS_MySQL_55: Sample template showing how to create a highly&#45;available, RDS DBInstance version 5.5 with alarming on important metrics that indicate the health of the database **WARNING** This template creates an Amazon Relational Database Service database instance and Amazon CloudWatch alarms. You will be billed for the AWS resources used if you create a stack from this template.</title>
<polygon fill="white" stroke="white" points="-4,5 -4,-328 993,-328 993,5 -4,5"/>
<!-- DBSecurityGroup -->
<g id="node1" class="node"><title>DBSecurityGroup</title>
<polygon fill="none" stroke="black" points="970,-252 834,-252 834,-216 970,-216 970,-252"/>
<text text-anchor="middle" x="902" y="-230.4" font-family="Times Roman,serif" font-size="14.00">DBSecurityGroup</text>
</g>
<!-- MyDB -->
<g id="node5" class="node"><title>MyDB</title>
<polygon fill="none" stroke="black" points="661,-180 603,-180 603,-144 661,-144 661,-180"/>
<text text-anchor="middle" x="632" y="-158.4" font-family="Times Roman,serif" font-size="14.00">MyDB</text>
</g>
<!-- DBSecurityGroup&#45;&gt;MyDB -->
<g id="edge36" class="edge"><title>DBSecurityGroup&#45;&gt;MyDB</title>
<path fill="none" stroke="black" d="M834.216,-215.924C782.588,-202.157 713.352,-183.694 670.753,-172.334"/>
<polygon fill="black" stroke="black" points="671.609,-168.94 661.044,-169.745 669.805,-175.704 671.609,-168.94"/>
</g>
<!-- WriteIOPSHigh -->
<g id="node2" class="node"><title>WriteIOPSHigh</title>
<polygon fill="none" stroke="black" points="412,-108 292,-108 292,-72 412,-72 412,-108"/>
<text text-anchor="middle" x="352" y="-86.4" font-family="Times Roman,serif" font-size="14.00">WriteIOPSHigh</text>
</g>
<!-- CPUAlarmHigh -->
<g id="node3" class="node"><title>CPUAlarmHigh</title>
<polygon fill="none" stroke="black" points="548,-108 430,-108 430,-72 548,-72 548,-108"/>
<text text-anchor="middle" x="489" y="-86.4" font-family="Times Roman,serif" font-size="14.00">CPUAlarmHigh</text>
</g>
<!-- ReadIOPSHigh -->
<g id="node4" class="node"><title>ReadIOPSHigh</title>
<polygon fill="none" stroke="black" points="274,-108 158,-108 158,-72 274,-72 274,-108"/>
<text text-anchor="middle" x="216" y="-86.4" font-family="Times Roman,serif" font-size="14.00">ReadIOPSHigh</text>
</g>
<!-- MyDB&#45;&gt;WriteIOPSHigh -->
<g id="edge6" class="edge"><title>MyDB&#45;&gt;WriteIOPSHigh</title>
<path fill="none" stroke="black" d="M602.978,-154.618C564.118,-144.724 492.767,-126.522 422.161,-108.295"/>
<polygon fill="black" stroke="black" points="422.764,-104.836 412.206,-105.724 421.013,-111.613 422.764,-104.836"/>
</g>
<!-- MyDB&#45;&gt;CPUAlarmHigh -->
<g id="edge16" class="edge"><title>MyDB&#45;&gt;CPUAlarmHigh</title>
<path fill="none" stroke="black" d="M602.717,-147.256C582.895,-137.276 556.33,-123.9 533.86,-112.587"/>
<polygon fill="black" stroke="black" points="535.34,-109.413 524.834,-108.042 532.192,-115.666 535.34,-109.413"/>
</g>
<!-- MyDB&#45;&gt;ReadIOPSHigh -->
<g id="edge26" class="edge"><title>MyDB&#45;&gt;ReadIOPSHigh</title>
<path fill="none" stroke="black" d="M602.85,-158.581C544.279,-151.478 408.018,-133.78 284.054,-108.103"/>
<polygon fill="black" stroke="black" points="284.516,-104.624 274.011,-106 283.081,-111.476 284.516,-104.624"/>
</g>
<!-- FreeStorageSpace -->
<g id="node6" class="node"><title>FreeStorageSpace</title>
<polygon fill="none" stroke="black" points="140,-108 7.10543e-14,-108 0,-72 140,-72 140,-108"/>
<text text-anchor="middle" x="70" y="-86.4" font-family="Times Roman,serif" font-size="14.00">FreeStorageSpace</text>
</g>
<!-- MyDB&#45;&gt;FreeStorageSpace -->
<g id="edge48" class="edge"><title>MyDB&#45;&gt;FreeStorageSpace</title>
<path fill="none" stroke="black" d="M602.988,-159.903C529.084,-154.32 327.625,-137.576 150.167,-108.096"/>
<polygon fill="black" stroke="black" points="150.571,-104.615 140.129,-106.41 149.412,-111.518 150.571,-104.615"/>
</g>
<!-- JDBCConnectionString -->
<g id="node16" class="node"><title>JDBCConnectionString</title>
<polygon fill="lightgrey" stroke="lightgrey" points="650,-36 502,-36 490,-24 490,-12 502,-1.67721e-14 650,-4.54417e-15 662,-12 662,-24 650,-36"/>
<path fill="lightgrey" stroke="lightgrey" d="M502,-36C496,-36 490,-30 490,-24"/>
<path fill="lightgrey" stroke="lightgrey" d="M490,-12C490,-6 496,-1.72678e-14 502,-1.67721e-14"/>
<path fill="lightgrey" stroke="lightgrey" d="M650,-4.54417e-15C656,-4.04844e-15 662,-6 662,-12"/>
<path fill="lightgrey" stroke="lightgrey" d="M662,-24C662,-30 656,-36 650,-36"/>
<polyline fill="none" stroke="black" points="650,-36 502,-36 "/>
<path fill="none" stroke="black" d="M502,-36C496,-36 490,-30 490,-24"/>
<polyline fill="none" stroke="black" points="490,-24 490,-12 "/>
<path fill="none" stroke="black" d="M490,-12C490,-6 496,-1.72678e-14 502,-1.67721e-14"/>
<polyline fill="none" stroke="black" points="502,-1.67721e-14 650,-4.54417e-15 "/>
<path fill="none" stroke="black" d="M650,-4.54417e-15C656,-4.04844e-15 662,-6 662,-12"/>
<polyline fill="none" stroke="black" points="662,-12 662,-24 "/>
<path fill="none" stroke="black" d="M662,-24C662,-30 656,-36 650,-36"/>
<text text-anchor="middle" x="576" y="-14.4" font-family="Times Roman,serif" font-size="14.00">JDBCConnectionString</text>
</g>
<!-- MyDB&#45;&gt;JDBCConnectionString -->
<g id="edge58" class="edge"><title>MyDB&#45;&gt;JDBCConnectionString</title>
<path fill="none" stroke="black" d="M620.234,-143.762C608.17,-119.093 590.702,-74.8598 581.406,-45.9731"/>
<polygon fill="black" stroke="black" points="584.654,-44.6246 578.377,-36.0896 577.961,-46.6763 584.654,-44.6246"/>
</g>
<!-- MyDB&#45;&gt;JDBCConnectionString -->
<g id="edge60" class="edge"><title>MyDB&#45;&gt;JDBCConnectionString</title>
<path fill="none" stroke="black" d="M629.581,-143.762C622.395,-118.876 605.224,-74.0822 592.005,-45.2165"/>
<polygon fill="black" stroke="black" points="595.129,-43.6365 587.693,-36.0896 588.8,-46.6265 595.129,-43.6365"/>
</g>
<!-- DBPort -->
<g id="node17" class="node"><title>DBPort</title>
<polygon fill="lightgrey" stroke="lightgrey" points="734,-36 692,-36 680,-24 680,-12 692,-1.51798e-14 734,-6.13651e-15 746,-12 746,-24 734,-36"/>
<path fill="lightgrey" stroke="lightgrey" d="M692,-36C686,-36 680,-30 680,-24"/>
<path fill="lightgrey" stroke="lightgrey" d="M680,-12C680,-6 686,-1.64717e-14 692,-1.51798e-14"/>
<path fill="lightgrey" stroke="lightgrey" d="M734,-6.13651e-15C740,-4.84461e-15 746,-6 746,-12"/>
<path fill="lightgrey" stroke="lightgrey" d="M746,-24C746,-30 740,-36 734,-36"/>
<polyline fill="none" stroke="black" points="734,-36 692,-36 "/>
<path fill="none" stroke="black" d="M692,-36C686,-36 680,-30 680,-24"/>
<polyline fill="none" stroke="black" points="680,-24 680,-12 "/>
<path fill="none" stroke="black" d="M680,-12C680,-6 686,-1.64717e-14 692,-1.51798e-14"/>
<polyline fill="none" stroke="black" points="692,-1.51798e-14 734,-6.13651e-15 "/>
<path fill="none" stroke="black" d="M734,-6.13651e-15C740,-4.84461e-15 746,-6 746,-12"/>
<polyline fill="none" stroke="black" points="746,-12 746,-24 "/>
<path fill="none" stroke="black" d="M746,-24C746,-30 740,-36 734,-36"/>
<text text-anchor="middle" x="713" y="-14.4" font-family="Times Roman,serif" font-size="14.00">DBPort</text>
</g>
<!-- MyDB&#45;&gt;DBPort -->
<g id="edge64" class="edge"><title>MyDB&#45;&gt;DBPort</title>
<path fill="none" stroke="black" d="M642.259,-143.762C656.318,-118.768 681.673,-73.6924 697.902,-44.8409"/>
<polygon fill="black" stroke="black" points="700.972,-46.5213 702.825,-36.0896 694.871,-43.0895 700.972,-46.5213"/>
</g>
<!-- DBAddress -->
<g id="node18" class="node"><title>DBAddress</title>
<polygon fill="lightgrey" stroke="lightgrey" points="844,-36 776,-36 764,-24 764,-12 776,-1.591e-14 844,-5.4063e-15 856,-12 856,-24 844,-36"/>
<path fill="lightgrey" stroke="lightgrey" d="M776,-36C770,-36 764,-30 764,-24"/>
<path fill="lightgrey" stroke="lightgrey" d="M764,-12C764,-6 770,-1.68368e-14 776,-1.591e-14"/>
<path fill="lightgrey" stroke="lightgrey" d="M844,-5.4063e-15C850,-4.47951e-15 856,-6 856,-12"/>
<path fill="lightgrey" stroke="lightgrey" d="M856,-24C856,-30 850,-36 844,-36"/>
<polyline fill="none" stroke="black" points="844,-36 776,-36 "/>
<path fill="none" stroke="black" d="M776,-36C770,-36 764,-30 764,-24"/>
<polyline fill="none" stroke="black" points="764,-24 764,-12 "/>
<path fill="none" stroke="black" d="M764,-12C764,-6 770,-1.68368e-14 776,-1.591e-14"/>
<polyline fill="none" stroke="black" points="776,-1.591e-14 844,-5.4063e-15 "/>
<path fill="none" stroke="black" d="M844,-5.4063e-15C850,-4.47951e-15 856,-6 856,-12"/>
<polyline fill="none" stroke="black" points="856,-12 856,-24 "/>
<path fill="none" stroke="black" d="M856,-24C856,-30 850,-36 844,-36"/>
<text text-anchor="middle" x="810" y="-14.4" font-family="Times Roman,serif" font-size="14.00">DBAddress</text>
</g>
<!-- MyDB&#45;&gt;DBAddress -->
<g id="edge66" class="edge"><title>MyDB&#45;&gt;DBAddress</title>
<path fill="none" stroke="black" d="M654.544,-143.762C686.242,-118.119 744.069,-71.3372 779.559,-42.6262"/>
<polygon fill="black" stroke="black" points="782.066,-45.1002 787.639,-36.0896 777.663,-39.658 782.066,-45.1002"/>
</g>
<!-- EC2SecurityGroup -->
<g id="node8" class="node"><title>EC2SecurityGroup</title>
<polygon fill="lightgrey" stroke="lightgrey" points="976,-324 856,-324 844,-312 844,-300 856,-288 976,-288 988,-300 988,-312 976,-324"/>
<path fill="lightgrey" stroke="lightgrey" d="M856,-324C850,-324 844,-318 844,-312"/>
<path fill="lightgrey" stroke="lightgrey" d="M844,-300C844,-294 850,-288 856,-288"/>
<path fill="lightgrey" stroke="lightgrey" d="M976,-288C982,-288 988,-294 988,-300"/>
<path fill="lightgrey" stroke="lightgrey" d="M988,-312C988,-318 982,-324 976,-324"/>
<polyline fill="none" stroke="black" points="976,-324 856,-324 "/>
<path fill="none" stroke="black" d="M856,-324C850,-324 844,-318 844,-312"/>
<polyline fill="none" stroke="black" points="844,-312 844,-300 "/>
<path fill="none" stroke="black" d="M844,-300C844,-294 850,-288 856,-288"/>
<polyline fill="none" stroke="black" points="856,-288 976,-288 "/>
<path fill="none" stroke="black" d="M976,-288C982,-288 988,-294 988,-300"/>
<polyline fill="none" stroke="black" points="988,-300 988,-312 "/>
<path fill="none" stroke="black" d="M988,-312C988,-318 982,-324 976,-324"/>
<text text-anchor="middle" x="916" y="-302.4" font-family="Times Roman,serif" font-size="14.00">EC2SecurityGroup</text>
</g>
<!-- EC2SecurityGroup&#45;&gt;DBSecurityGroup -->
<g id="edge4" class="edge"><title>EC2SecurityGroup&#45;&gt;DBSecurityGroup</title>
<path fill="none" stroke="black" d="M912.467,-287.831C910.97,-280.131 909.189,-270.974 907.525,-262.417"/>
<polygon fill="black" stroke="black" points="910.925,-261.561 905.58,-252.413 904.053,-262.897 910.925,-261.561"/>
</g>
<!-- DBAllocatedStorage -->
<g id="node9" class="node"><title>DBAllocatedStorage</title>
<polygon fill="lightgrey" stroke="lightgrey" points="608,-324 478,-324 466,-312 466,-300 478,-288 608,-288 620,-300 620,-312 608,-324"/>
<path fill="lightgrey" stroke="lightgrey" d="M478,-324C472,-324 466,-318 466,-312"/>
<path fill="lightgrey" stroke="lightgrey" d="M466,-300C466,-294 472,-288 478,-288"/>
<path fill="lightgrey" stroke="lightgrey" d="M608,-288C614,-288 620,-294 620,-300"/>
<path fill="lightgrey" stroke="lightgrey" d="M620,-312C620,-318 614,-324 608,-324"/>
<polyline fill="none" stroke="black" points="608,-324 478,-324 "/>
<path fill="none" stroke="black" d="M478,-324C472,-324 466,-318 466,-312"/>
<polyline fill="none" stroke="black" points="466,-312 466,-300 "/>
<path fill="none" stroke="black" d="M466,-300C466,-294 472,-288 478,-288"/>
<polyline fill="none" stroke="black" points="478,-288 608,-288 "/>
<path fill="none" stroke="black" d="M608,-288C614,-288 620,-294 620,-300"/>
<polyline fill="none" stroke="black" points="620,-300 620,-312 "/>
<path fill="none" stroke="black" d="M620,-312C620,-318 614,-324 608,-324"/>
<text text-anchor="middle" x="543" y="-302.4" font-family="Times Roman,serif" font-size="14.00">DBAllocatedStorage</text>
</g>
<!-- DBAllocatedStorage&#45;&gt;MyDB -->
<g id="edge42" class="edge"><title>DBAllocatedStorage&#45;&gt;MyDB</title>
<path fill="none" stroke="black" d="M587.076,-287.972C602.359,-279.413 617.924,-267.58 627,-252 637.783,-233.489 638.464,-209.04 636.763,-190.296"/>
<polygon fill="black" stroke="black" points="640.228,-189.799 635.583,-180.277 633.276,-190.617 640.228,-189.799"/>
</g>
<!-- DBPassword -->
<g id="node10" class="node"><title>DBPassword</title>
<polygon fill="lightgrey" stroke="lightgrey" points="728,-324 650,-324 638,-312 638,-300 650,-288 728,-288 740,-300 740,-312 728,-324"/>
<path fill="lightgrey" stroke="lightgrey" d="M650,-324C644,-324 638,-318 638,-312"/>
<path fill="lightgrey" stroke="lightgrey" d="M638,-300C638,-294 644,-288 650,-288"/>
<path fill="lightgrey" stroke="lightgrey" d="M728,-288C734,-288 740,-294 740,-300"/>
<path fill="lightgrey" stroke="lightgrey" d="M740,-312C740,-318 734,-324 728,-324"/>
<polyline fill="none" stroke="black" points="728,-324 650,-324 "/>
<path fill="none" stroke="black" d="M650,-324C644,-324 638,-318 638,-312"/>
<polyline fill="none" stroke="black" points="638,-312 638,-300 "/>
<path fill="none" stroke="black" d="M638,-300C638,-294 644,-288 650,-288"/>
<polyline fill="none" stroke="black" points="650,-288 728,-288 "/>
<path fill="none" stroke="black" d="M728,-288C734,-288 740,-294 740,-300"/>
<polyline fill="none" stroke="black" points="740,-300 740,-312 "/>
<path fill="none" stroke="black" d="M740,-312C740,-318 734,-324 728,-324"/>
<text text-anchor="middle" x="689" y="-302.4" font-family="Times Roman,serif" font-size="14.00">DBPassword</text>
</g>
<!-- DBPassword&#45;&gt;MyDB -->
<g id="edge40" class="edge"><title>DBPassword&#45;&gt;MyDB</title>
<path fill="none" stroke="black" d="M685.772,-287.904C682.099,-269.36 675.248,-239.933 665,-216 661.062,-206.803 655.75,-197.316 650.54,-188.909"/>
<polygon fill="black" stroke="black" points="653.344,-186.799 644.996,-180.276 647.454,-190.582 653.344,-186.799"/>
</g>
<!-- DBUser -->
<g id="node11" class="node"><title>DBUser</title>
<polygon fill="lightgrey" stroke="lightgrey" points="814,-324 770,-324 758,-312 758,-300 770,-288 814,-288 826,-300 826,-312 814,-324"/>
<path fill="lightgrey" stroke="lightgrey" d="M770,-324C764,-324 758,-318 758,-312"/>
<path fill="lightgrey" stroke="lightgrey" d="M758,-300C758,-294 764,-288 770,-288"/>
<path fill="lightgrey" stroke="lightgrey" d="M814,-288C820,-288 826,-294 826,-300"/>
<path fill="lightgrey" stroke="lightgrey" d="M826,-312C826,-318 820,-324 814,-324"/>
<polyline fill="none" stroke="black" points="814,-324 770,-324 "/>
<path fill="none" stroke="black" d="M770,-324C764,-324 758,-318 758,-312"/>
<polyline fill="none" stroke="black" points="758,-312 758,-300 "/>
<path fill="none" stroke="black" d="M758,-300C758,-294 764,-288 770,-288"/>
<polyline fill="none" stroke="black" points="770,-288 814,-288 "/>
<path fill="none" stroke="black" d="M814,-288C820,-288 826,-294 826,-300"/>
<polyline fill="none" stroke="black" points="826,-300 826,-312 "/>
<path fill="none" stroke="black" d="M826,-312C826,-318 820,-324 814,-324"/>
<text text-anchor="middle" x="792" y="-302.4" font-family="Times Roman,serif" font-size="14.00">DBUser</text>
</g>
<!-- DBUser&#45;&gt;MyDB -->
<g id="edge38" class="edge"><title>DBUser&#45;&gt;MyDB</title>
<path fill="none" stroke="black" d="M771.736,-287.762C743.364,-262.227 691.702,-215.732 659.767,-186.991"/>
<polygon fill="black" stroke="black" points="661.874,-184.178 652.1,-180.09 657.191,-189.381 661.874,-184.178"/>
</g>
<!-- DBInstanceClass -->
<g id="node12" class="node"><title>DBInstanceClass</title>
<polygon fill="lightgrey" stroke="lightgrey" points="297,-324 191,-324 179,-312 179,-300 191,-288 297,-288 309,-300 309,-312 297,-324"/>
<path fill="lightgrey" stroke="lightgrey" d="M191,-324C185,-324 179,-318 179,-312"/>
<path fill="lightgrey" stroke="lightgrey" d="M179,-300C179,-294 185,-288 191,-288"/>
<path fill="lightgrey" stroke="lightgrey" d="M297,-288C303,-288 309,-294 309,-300"/>
<path fill="lightgrey" stroke="lightgrey" d="M309,-312C309,-318 303,-324 297,-324"/>
<polyline fill="none" stroke="black" points="297,-324 191,-324 "/>
<path fill="none" stroke="black" d="M191,-324C185,-324 179,-318 179,-312"/>
<polyline fill="none" stroke="black" points="179,-312 179,-300 "/>
<path fill="none" stroke="black" d="M179,-300C179,-294 185,-288 191,-288"/>
<polyline fill="none" stroke="black" points="191,-288 297,-288 "/>
<path fill="none" stroke="black" d="M297,-288C303,-288 309,-294 309,-300"/>
<polyline fill="none" stroke="black" points="309,-300 309,-312 "/>
<path fill="none" stroke="black" d="M309,-312C309,-318 303,-324 297,-324"/>
<text text-anchor="middle" x="244" y="-302.4" font-family="Times Roman,serif" font-size="14.00">DBInstanceClass</text>
</g>
<!-- DBInstanceClass&#45;&gt;WriteIOPSHigh -->
<g id="edge12" class="edge"><title>DBInstanceClass&#45;&gt;WriteIOPSHigh</title>
<path fill="none" stroke="black" d="M249.076,-287.955C264.568,-249.997 308.476,-161.713 333.855,-116.993"/>
<polygon fill="black" stroke="black" points="336.995,-118.554 338.972,-108.145 330.936,-115.049 336.995,-118.554"/>
</g>
<!-- DBInstanceClass&#45;&gt;WriteIOPSHigh -->
<g id="edge14" class="edge"><title>DBInstanceClass&#45;&gt;WriteIOPSHigh</title>
<path fill="none" stroke="black" d="M256.968,-287.955C279.341,-250.156 323.441,-162.451 342.908,-117.556"/>
<polygon fill="black" stroke="black" points="346.217,-118.719 346.883,-108.145 339.768,-115.996 346.217,-118.719"/>
</g>
<!-- DBInstanceClass&#45;&gt;CPUAlarmHigh -->
<g id="edge24" class="edge"><title>DBInstanceClass&#45;&gt;CPUAlarmHigh</title>
<path fill="none" stroke="black" d="M287.448,-287.963C333.366,-268.336 404.699,-232.56 448,-180 462.748,-162.099 470.933,-136.894 476.791,-117.709"/>
<polygon fill="black" stroke="black" points="480.175,-118.613 479.749,-108.026 473.48,-116.567 480.175,-118.613"/>
</g>
<!-- DBInstanceClass&#45;&gt;CPUAlarmHigh -->
<g id="edge22" class="edge"><title>DBInstanceClass&#45;&gt;CPUAlarmHigh</title>
<path fill="none" stroke="black" d="M301.176,-287.963C351.366,-268.336 422.699,-232.56 466,-180 480.68,-162.181 488.857,-137.126 491.815,-117.975"/>
<polygon fill="black" stroke="black" points="495.295,-118.354 492.93,-108.026 488.338,-117.574 495.295,-118.354"/>
</g>
<!-- DBInstanceClass&#45;&gt;ReadIOPSHigh -->
<g id="edge32" class="edge"><title>DBInstanceClass&#45;&gt;ReadIOPSHigh</title>
<path fill="none" stroke="black" d="M226.151,-287.577C220.199,-277.395 214.717,-264.34 212,-252 201.887,-206.078 202.847,-151.08 207.235,-118.422"/>
<polygon fill="black" stroke="black" points="210.739,-118.672 208.844,-108.248 203.825,-117.579 210.739,-118.672"/>
</g>
<!-- DBInstanceClass&#45;&gt;ReadIOPSHigh -->
<g id="edge34" class="edge"><title>DBInstanceClass&#45;&gt;ReadIOPSHigh</title>
<path fill="none" stroke="black" d="M242.106,-287.577C238.199,-277.395 232.717,-264.34 230,-252 219.887,-206.078 220.847,-151.08 220.229,-118.422"/>
<polygon fill="black" stroke="black" points="223.722,-118.145 219.94,-108.248 216.725,-118.344 223.722,-118.145"/>
</g>
<!-- DBInstanceClass&#45;&gt;MyDB -->
<g id="edge44" class="edge"><title>DBInstanceClass&#45;&gt;MyDB</title>
<path fill="none" stroke="black" d="M309.002,-296.023C356.148,-287.545 420.87,-273.312 475,-252 519.434,-234.506 566.45,-206.058 597.318,-185.832"/>
<polygon fill="black" stroke="black" points="599.565,-188.541 605.969,-180.1 595.699,-182.705 599.565,-188.541"/>
</g>
<!-- DBInstanceClass&#45;&gt;FreeStorageSpace -->
<g id="edge54" class="edge"><title>DBInstanceClass&#45;&gt;FreeStorageSpace</title>
<path fill="none" stroke="black" d="M225.518,-287.955C191.31,-249.838 119.503,-160.973 86.6832,-116.434"/>
<polygon fill="black" stroke="black" points="89.3709,-114.178 80.6617,-108.145 83.7075,-118.293 89.3709,-114.178"/>
</g>
<!-- DBInstanceClass&#45;&gt;FreeStorageSpace -->
<g id="edge56" class="edge"><title>DBInstanceClass&#45;&gt;FreeStorageSpace</title>
<path fill="none" stroke="black" d="M233.41,-287.955C206.093,-249.679 134.247,-160.232 95.4195,-115.879"/>
<polygon fill="black" stroke="black" points="97.8214,-113.312 88.572,-108.145 92.5803,-117.952 97.8214,-113.312"/>
</g>
<!-- DBName -->
<g id="node13" class="node"><title>DBName</title>
<polygon fill="lightgrey" stroke="lightgrey" points="433,-324 381,-324 369,-312 369,-300 381,-288 433,-288 445,-300 445,-312 433,-324"/>
<path fill="lightgrey" stroke="lightgrey" d="M381,-324C375,-324 369,-318 369,-312"/>
<path fill="lightgrey" stroke="lightgrey" d="M369,-300C369,-294 375,-288 381,-288"/>
<path fill="lightgrey" stroke="lightgrey" d="M433,-288C439,-288 445,-294 445,-300"/>
<path fill="lightgrey" stroke="lightgrey" d="M445,-312C445,-318 439,-324 433,-324"/>
<polyline fill="none" stroke="black" points="433,-324 381,-324 "/>
<path fill="none" stroke="black" d="M381,-324C375,-324 369,-318 369,-312"/>
<polyline fill="none" stroke="black" points="369,-312 369,-300 "/>
<path fill="none" stroke="black" d="M369,-300C369,-294 375,-288 381,-288"/>
<polyline fill="none" stroke="black" points="381,-288 433,-288 "/>
<path fill="none" stroke="black" d="M433,-288C439,-288 445,-294 445,-300"/>
<polyline fill="none" stroke="black" points="445,-300 445,-312 "/>
<path fill="none" stroke="black" d="M445,-312C445,-318 439,-324 433,-324"/>
<text text-anchor="middle" x="407" y="-302.4" font-family="Times Roman,serif" font-size="14.00">DBName</text>
</g>
<!-- DBName&#45;&gt;WriteIOPSHigh -->
<g id="edge10" class="edge"><title>DBName&#45;&gt;WriteIOPSHigh</title>
<path fill="none" stroke="black" d="M406.037,-287.545C404.004,-256.967 397.967,-194.192 381,-144 377.93,-134.918 373.429,-125.54 368.884,-117.2"/>
<polygon fill="black" stroke="black" points="371.802,-115.25 363.809,-108.295 365.72,-118.716 371.802,-115.25"/>
</g>
<!-- DBName&#45;&gt;CPUAlarmHigh -->
<g id="edge20" class="edge"><title>DBName&#45;&gt;CPUAlarmHigh</title>
<path fill="none" stroke="black" d="M435.074,-287.776C448.306,-278.232 463.641,-265.69 475,-252 498.106,-224.155 504.3,-215.122 513,-180 516.847,-164.469 516.321,-159.651 513,-144 511.102,-135.056 507.616,-125.794 503.879,-117.52"/>
<polygon fill="black" stroke="black" points="506.949,-115.829 499.456,-108.34 500.643,-118.868 506.949,-115.829"/>
</g>
<!-- DBName&#45;&gt;ReadIOPSHigh -->
<g id="edge30" class="edge"><title>DBName&#45;&gt;ReadIOPSHigh</title>
<path fill="none" stroke="black" d="M401.766,-287.838C390.617,-250.195 363.842,-165.386 343,-144 333.202,-133.946 305.764,-121.782 278.887,-111.546"/>
<polygon fill="black" stroke="black" points="280.027,-108.235 269.434,-108.012 277.576,-114.792 280.027,-108.235"/>
</g>
<!-- DBName&#45;&gt;MyDB -->
<g id="edge46" class="edge"><title>DBName&#45;&gt;MyDB</title>
<path fill="none" stroke="black" d="M445.113,-291.928C449.112,-290.557 453.129,-289.223 457,-288 514.986,-269.687 542.321,-290.973 589,-252 607.904,-236.217 619.075,-210.196 625.27,-190.182"/>
<polygon fill="black" stroke="black" points="628.698,-190.926 628.071,-180.35 621.965,-189.008 628.698,-190.926"/>
</g>
<!-- DBName&#45;&gt;FreeStorageSpace -->
<g id="edge52" class="edge"><title>DBName&#45;&gt;FreeStorageSpace</title>
<path fill="none" stroke="black" d="M378.847,-287.955C318.138,-249.044 174.92,-157.248 106.99,-113.709"/>
<polygon fill="black" stroke="black" points="108.617,-110.595 98.3097,-108.145 104.84,-116.488 108.617,-110.595"/>
</g>
<!-- DBName&#45;&gt;JDBCConnectionString -->
<g id="edge62" class="edge"><title>DBName&#45;&gt;JDBCConnectionString</title>
<path fill="none" stroke="black" d="M445.446,-291.538C464.642,-282.649 486.924,-269.562 502,-252 554.01,-191.414 569.529,-94.1341 574.111,-46.3502"/>
<polygon fill="black" stroke="black" points="577.62,-46.3898 574.995,-36.1256 570.646,-45.787 577.62,-46.3898"/>
</g>
<!-- AlarmTopic -->
<g id="node14" class="node"><title>AlarmTopic</title>
<polygon fill="lightgrey" stroke="lightgrey" points="99,-324 33,-324 21,-312 21,-300 33,-288 99,-288 111,-300 111,-312 99,-324"/>
<path fill="lightgrey" stroke="lightgrey" d="M33,-324C27,-324 21,-318 21,-312"/>
<path fill="lightgrey" stroke="lightgrey" d="M21,-300C21,-294 27,-288 33,-288"/>
<path fill="lightgrey" stroke="lightgrey" d="M99,-288C105,-288 111,-294 111,-300"/>
<path fill="lightgrey" stroke="lightgrey" d="M111,-312C111,-318 105,-324 99,-324"/>
<polyline fill="none" stroke="black" points="99,-324 33,-324 "/>
<path fill="none" stroke="black" d="M33,-324C27,-324 21,-318 21,-312"/>
<polyline fill="none" stroke="black" points="21,-312 21,-300 "/>
<path fill="none" stroke="black" d="M21,-300C21,-294 27,-288 33,-288"/>
<polyline fill="none" stroke="black" points="33,-288 99,-288 "/>
<path fill="none" stroke="black" d="M99,-288C105,-288 111,-294 111,-300"/>
<polyline fill="none" stroke="black" points="111,-300 111,-312 "/>
<path fill="none" stroke="black" d="M111,-312C111,-318 105,-324 99,-324"/>
<text text-anchor="middle" x="66" y="-302.4" font-family="Times Roman,serif" font-size="14.00">AlarmTopic</text>
</g>
<!-- AlarmTopic&#45;&gt;WriteIOPSHigh -->
<g id="edge8" class="edge"><title>AlarmTopic&#45;&gt;WriteIOPSHigh</title>
<path fill="none" stroke="black" d="M89.8923,-287.955C141.204,-249.203 261.967,-157.997 319.899,-114.244"/>
<polygon fill="black" stroke="black" points="322.104,-116.965 327.975,-108.145 317.885,-111.379 322.104,-116.965"/>
</g>
<!-- AlarmTopic&#45;&gt;CPUAlarmHigh -->
<g id="edge18" class="edge"><title>AlarmTopic&#45;&gt;CPUAlarmHigh</title>
<path fill="none" stroke="black" d="M103.267,-287.949C124.614,-277.548 151.874,-264.163 176,-252 272.661,-203.266 385.209,-144.52 445.52,-112.875"/>
<polygon fill="black" stroke="black" points="447.158,-115.968 454.385,-108.221 443.904,-109.77 447.158,-115.968"/>
</g>
<!-- AlarmTopic&#45;&gt;ReadIOPSHigh -->
<g id="edge28" class="edge"><title>AlarmTopic&#45;&gt;ReadIOPSHigh</title>
<path fill="none" stroke="black" d="M63.0169,-287.717C60.8086,-268.76 59.8488,-238.767 71,-216 93.0844,-170.91 139.34,-135.278 173.7,-113.573"/>
<polygon fill="black" stroke="black" points="175.922,-116.316 182.601,-108.092 172.251,-110.356 175.922,-116.316"/>
</g>
<!-- AlarmTopic&#45;&gt;FreeStorageSpace -->
<g id="edge50" class="edge"><title>AlarmTopic&#45;&gt;FreeStorageSpace</title>
<path fill="none" stroke="black" d="M51.3248,-287.709C44.2954,-277.772 36.6305,-264.903 33,-252 19.9993,-205.794 18.7987,-189.851 33,-144 36.0445,-134.17 41.5641,-124.539 47.4271,-116.195"/>
<polygon fill="black" stroke="black" points="50.3663,-118.109 53.5719,-108.011 44.7686,-113.906 50.3663,-118.109"/>
</g>
</g>
</svg>
