<?xml version="1.0" encoding="UTF-8" standalone="no"?>
<!DOCTYPE svg PUBLIC "-//W3C//DTD SVG 1.1//EN"
 "http://www.w3.org/Graphics/SVG/1.1/DTD/svg11.dtd">
<!-- Generated by graphviz version 2.26.3 (20100126.1600)
 -->
<!-- Title: AWS CloudFormation Sample Template RDS_with_DBParameterGroup: Sample template showing how to create an Amazon RDS Database Instance with a DBParameterGroup.**WARNING** This template creates an Amazon Relational Database Service database instance. You will be billed for the AWS resources used if you create a stack from this template. Pages: 1 -->
<svg width="342pt" height="188pt"
 viewBox="0.00 0.00 342.00 188.00" xmlns="http://www.w3.org/2000/svg" xmlns:xlink="http://www.w3.org/1999/xlink">
<g id="graph1" class="graph" transform="scale(1 1) rotate(0) translate(4 184)">
<title>AWS CloudFormation Sample Template RDS_with_DBParameterGroup: Sample template showing how to create an Amazon RDS Database Instance with a DBParameterGroup.**WARNING** This template creates an Amazon Relational Database Service database instance. You will be billed for the AWS resources used if you create a stack from this template.</title>
<polygon fill="white" stroke="white" points="-4,5 -4,-184 339,-184 339,5 -4,5"/>
<!-- MyRDSParamGroup -->
<g id="node1" class="node"><title>MyRDSParamGroup</title>
<polygon fill="none" stroke="black" points="152,-108 7.10543e-14,-108 0,-72 152,-72 152,-108"/>
<text text-anchor="middle" x="76" y="-86.4" font-family="Times Roman,serif" font-size="14.00">MyRDSParamGroup</text>
</g>
<!-- MyDB -->
<g id="node2" class="node"><title>MyDB</title>
<polygon fill="none" stroke="black" points="209,-36 151,-36 151,-1.77636e-14 209,-3.55271e-15 209,-36"/>
<text text-anchor="middle" x="180" y="-14.4" font-family="Times Roman,serif" font-size="14.00">MyDB</text>
</g>
<!-- MyRDSParamGroup&#45;&gt;MyDB -->
<g id="edge3" class="edge"><title>MyRDSParamGroup&#45;&gt;MyDB</title>
<path fill="none" stroke="black" d="M102.244,-71.8314C115.299,-62.7927 131.253,-51.7476 145.305,-42.0198"/>
<polygon fill="black" stroke="black" points="147.535,-44.7326 153.765,-36.1628 143.551,-38.9773 147.535,-44.7326"/>
</g>
<!-- DBUser -->
<g id="node4" class="node"><title>DBUser</title>
<polygon fill="lightgrey" stroke="lightgrey" points="202,-180 158,-180 146,-168 146,-156 158,-144 202,-144 214,-156 214,-168 202,-180"/>
<path fill="lightgrey" stroke="lightgrey" d="M158,-180C152,-180 146,-174 146,-168"/>
<path fill="lightgrey" stroke="lightgrey" d="M146,-156C146,-150 152,-144 158,-144"/>
<path fill="lightgrey" stroke="lightgrey" d="M202,-144C208,-144 214,-150 214,-156"/>
<path fill="lightgrey" stroke="lightgrey" d="M214,-168C214,-174 208,-180 202,-180"/>
<polyline fill="none" stroke="black" points="202,-180 158,-180 "/>
<path fill="none" stroke="black" d="M158,-180C152,-180 146,-174 146,-168"/>
<polyline fill="none" stroke="black" points="146,-168 146,-156 "/>
<path fill="none" stroke="black" d="M146,-156C146,-150 152,-144 158,-144"/>
<polyline fill="none" stroke="black" points="158,-144 202,-144 "/>
<path fill="none" stroke="black" d="M202,-144C208,-144 214,-150 214,-156"/>
<polyline fill="none" stroke="black" points="214,-156 214,-168 "/>
<path fill="none" stroke="black" d="M214,-168C214,-174 208,-180 202,-180"/>
<text text-anchor="middle" x="180" y="-158.4" font-family="Times Roman,serif" font-size="14.00">DBUser</text>
</g>
<!-- DBUser&#45;&gt;MyDB -->
<g id="edge5" class="edge"><title>DBUser&#45;&gt;MyDB</title>
<path fill="none" stroke="black" d="M180,-143.762C180,-119.201 180,-75.2474 180,-46.3541"/>
<polygon fill="black" stroke="black" points="183.5,-46.0896 180,-36.0896 176.5,-46.0897 183.5,-46.0896"/>
</g>
<!-- DBPassword -->
<g id="node5" class="node"><title>DBPassword</title>
<polygon fill="lightgrey" stroke="lightgrey" points="322,-180 244,-180 232,-168 232,-156 244,-144 322,-144 334,-156 334,-168 322,-180"/>
<path fill="lightgrey" stroke="lightgrey" d="M244,-180C238,-180 232,-174 232,-168"/>
<path fill="lightgrey" stroke="lightgrey" d="M232,-156C232,-150 238,-144 244,-144"/>
<path fill="lightgrey" stroke="lightgrey" d="M322,-144C328,-144 334,-150 334,-156"/>
<path fill="lightgrey" stroke="lightgrey" d="M334,-168C334,-174 328,-180 322,-180"/>
<polyline fill="none" stroke="black" points="322,-180 244,-180 "/>
<path fill="none" stroke="black" d="M244,-180C238,-180 232,-174 232,-168"/>
<polyline fill="none" stroke="black" points="232,-168 232,-156 "/>
<path fill="none" stroke="black" d="M232,-156C232,-150 238,-144 244,-144"/>
<polyline fill="none" stroke="black" points="244,-144 322,-144 "/>
<path fill="none" stroke="black" d="M322,-144C328,-144 334,-150 334,-156"/>
<polyline fill="none" stroke="black" points="334,-156 334,-168 "/>
<path fill="none" stroke="black" d="M334,-168C334,-174 328,-180 322,-180"/>
<text text-anchor="middle" x="283" y="-158.4" font-family="Times Roman,serif" font-size="14.00">DBPassword</text>
</g>
<!-- DBPassword&#45;&gt;MyDB -->
<g id="edge7" class="edge"><title>DBPassword&#45;&gt;MyDB</title>
<path fill="none" stroke="black" d="M269.955,-143.762C252,-118.66 219.556,-73.3017 198.931,-44.4671"/>
<polygon fill="black" stroke="black" points="201.604,-42.1869 192.939,-36.0896 195.91,-46.2594 201.604,-42.1869"/>
</g>
</g>
</svg>
