<?xml version="1.0" encoding="UTF-8" standalone="no"?>
<!DOCTYPE svg PUBLIC "-//W3C//DTD SVG 1.1//EN"
 "http://www.w3.org/Graphics/SVG/1.1/DTD/svg11.dtd">
<!-- Generated by graphviz version 2.26.3 (20100126.1600)
 -->
<!-- Title: AWS CloudFormation Sample Template RDS_MySQL_55_With_Tags: Sample template showing how to create an RDS DBInstance version 5.5 with tags and alarming on important metrics that indicate the health of the database **WARNING** This template creates an Amazon Relational Database Service database instance and Amazon CloudWatch alarms. You will be billed for the AWS resources used if you create a stack from this template. Pages: 1 -->
<svg width="610pt" height="188pt"
 viewBox="0.00 0.00 610.00 188.00" xmlns="http://www.w3.org/2000/svg" xmlns:xlink="http://www.w3.org/1999/xlink">
<g id="graph1" class="graph" transform="scale(1 1) rotate(0) translate(4 184)">
<title>AWS CloudFormation Sample Template RDS_MySQL_55_With_Tags: Sample template showing how to create an RDS DBInstance version 5.5 with tags and alarming on important metrics that indicate the health of the database **WARNING** This template creates an Amazon Relational Database Service database instance and Amazon CloudWatch alarms. You will be billed for the AWS resources used if you create a stack from this template.</title>
<polygon fill="white" stroke="white" points="-4,5 -4,-184 607,-184 607,5 -4,5"/>
<!-- MyDB -->
<g id="node1" class="node"><title>MyDB</title>
<polygon fill="none" stroke="black" points="366,-108 308,-108 308,-72 366,-72 366,-108"/>
<text text-anchor="middle" x="337" y="-86.4" font-family="Times Roman,serif" font-size="14.00">MyDB</text>
</g>
<!-- JDBCConnectionString -->
<g id="node9" class="node"><title>JDBCConnectionString</title>
<polygon fill="lightgrey" stroke="lightgrey" points="561,-36 413,-36 401,-24 401,-12 413,-1.67721e-14 561,-4.54417e-15 573,-12 573,-24 561,-36"/>
<path fill="lightgrey" stroke="lightgrey" d="M413,-36C407,-36 401,-30 401,-24"/>
<path fill="lightgrey" stroke="lightgrey" d="M401,-12C401,-6 407,-1.72678e-14 413,-1.67721e-14"/>
<path fill="lightgrey" stroke="lightgrey" d="M561,-4.54417e-15C567,-4.04844e-15 573,-6 573,-12"/>
<path fill="lightgrey" stroke="lightgrey" d="M573,-24C573,-30 567,-36 561,-36"/>
<polyline fill="none" stroke="black" points="561,-36 413,-36 "/>
<path fill="none" stroke="black" d="M413,-36C407,-36 401,-30 401,-24"/>
<polyline fill="none" stroke="black" points="401,-24 401,-12 "/>
<path fill="none" stroke="black" d="M401,-12C401,-6 407,-1.72678e-14 413,-1.67721e-14"/>
<polyline fill="none" stroke="black" points="413,-1.67721e-14 561,-4.54417e-15 "/>
<path fill="none" stroke="black" d="M561,-4.54417e-15C567,-4.04844e-15 573,-6 573,-12"/>
<polyline fill="none" stroke="black" points="573,-12 573,-24 "/>
<path fill="none" stroke="black" d="M573,-24C573,-30 567,-36 561,-36"/>
<text text-anchor="middle" x="487" y="-14.4" font-family="Times Roman,serif" font-size="14.00">JDBCConnectionString</text>
</g>
<!-- MyDB&#45;&gt;JDBCConnectionString -->
<g id="edge14" class="edge"><title>MyDB&#45;&gt;JDBCConnectionString</title>
<path fill="none" stroke="black" d="M366.348,-73.1192C385.691,-63.3288 411.467,-50.8807 434.263,-40.2924"/>
<polygon fill="black" stroke="black" points="435.878,-43.4019 443.491,-36.0336 432.944,-37.0461 435.878,-43.4019"/>
</g>
<!-- MyDB&#45;&gt;JDBCConnectionString -->
<g id="edge16" class="edge"><title>MyDB&#45;&gt;JDBCConnectionString</title>
<path fill="none" stroke="black" d="M366.215,-78.432C389.113,-68.2357 421.068,-53.0886 446.414,-40.5101"/>
<polygon fill="black" stroke="black" points="448.044,-43.6081 455.424,-36.0061 444.914,-37.3469 448.044,-43.6081"/>
</g>
<!-- DBPort -->
<g id="node10" class="node"><title>DBPort</title>
<polygon fill="lightgrey" stroke="lightgrey" points="261,-36 219,-36 207,-24 207,-12 219,-1.51798e-14 261,-6.13651e-15 273,-12 273,-24 261,-36"/>
<path fill="lightgrey" stroke="lightgrey" d="M219,-36C213,-36 207,-30 207,-24"/>
<path fill="lightgrey" stroke="lightgrey" d="M207,-12C207,-6 213,-1.64717e-14 219,-1.51798e-14"/>
<path fill="lightgrey" stroke="lightgrey" d="M261,-6.13651e-15C267,-4.84461e-15 273,-6 273,-12"/>
<path fill="lightgrey" stroke="lightgrey" d="M273,-24C273,-30 267,-36 261,-36"/>
<polyline fill="none" stroke="black" points="261,-36 219,-36 "/>
<path fill="none" stroke="black" d="M219,-36C213,-36 207,-30 207,-24"/>
<polyline fill="none" stroke="black" points="207,-24 207,-12 "/>
<path fill="none" stroke="black" d="M207,-12C207,-6 213,-1.64717e-14 219,-1.51798e-14"/>
<polyline fill="none" stroke="black" points="219,-1.51798e-14 261,-6.13651e-15 "/>
<path fill="none" stroke="black" d="M261,-6.13651e-15C267,-4.84461e-15 273,-6 273,-12"/>
<polyline fill="none" stroke="black" points="273,-12 273,-24 "/>
<path fill="none" stroke="black" d="M273,-24C273,-30 267,-36 261,-36"/>
<text text-anchor="middle" x="240" y="-14.4" font-family="Times Roman,serif" font-size="14.00">DBPort</text>
</g>
<!-- MyDB&#45;&gt;DBPort -->
<g id="edge20" class="edge"><title>MyDB&#45;&gt;DBPort</title>
<path fill="none" stroke="black" d="M312.523,-71.8314C300.461,-62.8779 285.746,-51.9558 272.731,-42.2955"/>
<polygon fill="black" stroke="black" points="274.585,-39.3127 264.469,-36.1628 270.413,-44.9335 274.585,-39.3127"/>
</g>
<!-- DBAddress -->
<g id="node11" class="node"><title>DBAddress</title>
<polygon fill="lightgrey" stroke="lightgrey" points="371,-36 303,-36 291,-24 291,-12 303,-1.591e-14 371,-5.4063e-15 383,-12 383,-24 371,-36"/>
<path fill="lightgrey" stroke="lightgrey" d="M303,-36C297,-36 291,-30 291,-24"/>
<path fill="lightgrey" stroke="lightgrey" d="M291,-12C291,-6 297,-1.68368e-14 303,-1.591e-14"/>
<path fill="lightgrey" stroke="lightgrey" d="M371,-5.4063e-15C377,-4.47951e-15 383,-6 383,-12"/>
<path fill="lightgrey" stroke="lightgrey" d="M383,-24C383,-30 377,-36 371,-36"/>
<polyline fill="none" stroke="black" points="371,-36 303,-36 "/>
<path fill="none" stroke="black" d="M303,-36C297,-36 291,-30 291,-24"/>
<polyline fill="none" stroke="black" points="291,-24 291,-12 "/>
<path fill="none" stroke="black" d="M291,-12C291,-6 297,-1.68368e-14 303,-1.591e-14"/>
<polyline fill="none" stroke="black" points="303,-1.591e-14 371,-5.4063e-15 "/>
<path fill="none" stroke="black" d="M371,-5.4063e-15C377,-4.47951e-15 383,-6 383,-12"/>
<polyline fill="none" stroke="black" points="383,-12 383,-24 "/>
<path fill="none" stroke="black" d="M383,-24C383,-30 377,-36 371,-36"/>
<text text-anchor="middle" x="337" y="-14.4" font-family="Times Roman,serif" font-size="14.00">DBAddress</text>
</g>
<!-- MyDB&#45;&gt;DBAddress -->
<g id="edge22" class="edge"><title>MyDB&#45;&gt;DBAddress</title>
<path fill="none" stroke="black" d="M337,-71.8314C337,-64.131 337,-54.9743 337,-46.4166"/>
<polygon fill="black" stroke="black" points="340.5,-46.4132 337,-36.4133 333.5,-46.4133 340.5,-46.4132"/>
</g>
<!-- DBUser -->
<g id="node3" class="node"><title>DBUser</title>
<polygon fill="lightgrey" stroke="lightgrey" points="56,-180 12,-180 2.36848e-14,-168 1.18424e-14,-156 12,-144 56,-144 68,-156 68,-168 56,-180"/>
<path fill="lightgrey" stroke="lightgrey" d="M12,-180C6,-180 2.96059e-14,-174 2.36848e-14,-168"/>
<path fill="lightgrey" stroke="lightgrey" d="M1.18424e-14,-156C5.92119e-15,-150 6,-144 12,-144"/>
<path fill="lightgrey" stroke="lightgrey" d="M56,-144C62,-144 68,-150 68,-156"/>
<path fill="lightgrey" stroke="lightgrey" d="M68,-168C68,-174 62,-180 56,-180"/>
<polyline fill="none" stroke="black" points="56,-180 12,-180 "/>
<path fill="none" stroke="black" d="M12,-180C6,-180 2.96059e-14,-174 2.36848e-14,-168"/>
<polyline fill="none" stroke="black" points="2.36848e-14,-168 1.18424e-14,-156 "/>
<path fill="none" stroke="black" d="M1.18424e-14,-156C5.92119e-15,-150 6,-144 12,-144"/>
<polyline fill="none" stroke="black" points="12,-144 56,-144 "/>
<path fill="none" stroke="black" d="M56,-144C62,-144 68,-150 68,-156"/>
<polyline fill="none" stroke="black" points="68,-156 68,-168 "/>
<path fill="none" stroke="black" d="M68,-168C68,-174 62,-180 56,-180"/>
<text text-anchor="middle" x="34" y="-158.4" font-family="Times Roman,serif" font-size="14.00">DBUser</text>
</g>
<!-- DBUser&#45;&gt;MyDB -->
<g id="edge4" class="edge"><title>DBUser&#45;&gt;MyDB</title>
<path fill="none" stroke="black" d="M68.0487,-147.053C71.0498,-145.947 74.0626,-144.911 77,-144 153.626,-120.246 246.211,-103.834 297.655,-95.7591"/>
<polygon fill="black" stroke="black" points="298.336,-99.1957 307.684,-94.2091 297.266,-92.2778 298.336,-99.1957"/>
</g>
<!-- DBInstanceClass -->
<g id="node4" class="node"><title>DBInstanceClass</title>
<polygon fill="lightgrey" stroke="lightgrey" points="204,-180 98,-180 86,-168 86,-156 98,-144 204,-144 216,-156 216,-168 204,-180"/>
<path fill="lightgrey" stroke="lightgrey" d="M98,-180C92,-180 86,-174 86,-168"/>
<path fill="lightgrey" stroke="lightgrey" d="M86,-156C86,-150 92,-144 98,-144"/>
<path fill="lightgrey" stroke="lightgrey" d="M204,-144C210,-144 216,-150 216,-156"/>
<path fill="lightgrey" stroke="lightgrey" d="M216,-168C216,-174 210,-180 204,-180"/>
<polyline fill="none" stroke="black" points="204,-180 98,-180 "/>
<path fill="none" stroke="black" d="M98,-180C92,-180 86,-174 86,-168"/>
<polyline fill="none" stroke="black" points="86,-168 86,-156 "/>
<path fill="none" stroke="black" d="M86,-156C86,-150 92,-144 98,-144"/>
<polyline fill="none" stroke="black" points="98,-144 204,-144 "/>
<path fill="none" stroke="black" d="M204,-144C210,-144 216,-150 216,-156"/>
<polyline fill="none" stroke="black" points="216,-156 216,-168 "/>
<path fill="none" stroke="black" d="M216,-168C216,-174 210,-180 204,-180"/>
<text text-anchor="middle" x="151" y="-158.4" font-family="Times Roman,serif" font-size="14.00">DBInstanceClass</text>
</g>
<!-- DBInstanceClass&#45;&gt;MyDB -->
<g id="edge10" class="edge"><title>DBInstanceClass&#45;&gt;MyDB</title>
<path fill="none" stroke="black" d="M197.936,-143.831C228.973,-131.817 269.168,-116.258 298.356,-104.959"/>
<polygon fill="black" stroke="black" points="299.741,-108.176 307.803,-101.302 297.214,-101.648 299.741,-108.176"/>
</g>
<!-- DBName -->
<g id="node5" class="node"><title>DBName</title>
<polygon fill="lightgrey" stroke="lightgrey" points="590,-180 538,-180 526,-168 526,-156 538,-144 590,-144 602,-156 602,-168 590,-180"/>
<path fill="lightgrey" stroke="lightgrey" d="M538,-180C532,-180 526,-174 526,-168"/>
<path fill="lightgrey" stroke="lightgrey" d="M526,-156C526,-150 532,-144 538,-144"/>
<path fill="lightgrey" stroke="lightgrey" d="M590,-144C596,-144 602,-150 602,-156"/>
<path fill="lightgrey" stroke="lightgrey" d="M602,-168C602,-174 596,-180 590,-180"/>
<polyline fill="none" stroke="black" points="590,-180 538,-180 "/>
<path fill="none" stroke="black" d="M538,-180C532,-180 526,-174 526,-168"/>
<polyline fill="none" stroke="black" points="526,-168 526,-156 "/>
<path fill="none" stroke="black" d="M526,-156C526,-150 532,-144 538,-144"/>
<polyline fill="none" stroke="black" points="538,-144 590,-144 "/>
<path fill="none" stroke="black" d="M590,-144C596,-144 602,-150 602,-156"/>
<polyline fill="none" stroke="black" points="602,-156 602,-168 "/>
<path fill="none" stroke="black" d="M602,-168C602,-174 596,-180 590,-180"/>
<text text-anchor="middle" x="564" y="-158.4" font-family="Times Roman,serif" font-size="14.00">DBName</text>
</g>
<!-- DBName&#45;&gt;MyDB -->
<g id="edge12" class="edge"><title>DBName&#45;&gt;MyDB</title>
<path fill="none" stroke="black" d="M525.867,-147.124C522.876,-146.04 519.895,-144.987 517,-144 468.874,-127.591 412.634,-111.148 375.995,-100.793"/>
<polygon fill="black" stroke="black" points="376.778,-97.3779 366.204,-98.0395 374.883,-104.116 376.778,-97.3779"/>
</g>
<!-- DBName&#45;&gt;JDBCConnectionString -->
<g id="edge18" class="edge"><title>DBName&#45;&gt;JDBCConnectionString</title>
<path fill="none" stroke="black" d="M554.248,-143.762C540.941,-118.876 516.988,-74.0822 501.553,-45.2165"/>
<polygon fill="black" stroke="black" points="504.475,-43.2577 496.673,-36.0896 498.302,-46.5585 504.475,-43.2577"/>
</g>
<!-- DBAllocatedStorage -->
<g id="node6" class="node"><title>DBAllocatedStorage</title>
<polygon fill="lightgrey" stroke="lightgrey" points="376,-180 246,-180 234,-168 234,-156 246,-144 376,-144 388,-156 388,-168 376,-180"/>
<path fill="lightgrey" stroke="lightgrey" d="M246,-180C240,-180 234,-174 234,-168"/>
<path fill="lightgrey" stroke="lightgrey" d="M234,-156C234,-150 240,-144 246,-144"/>
<path fill="lightgrey" stroke="lightgrey" d="M376,-144C382,-144 388,-150 388,-156"/>
<path fill="lightgrey" stroke="lightgrey" d="M388,-168C388,-174 382,-180 376,-180"/>
<polyline fill="none" stroke="black" points="376,-180 246,-180 "/>
<path fill="none" stroke="black" d="M246,-180C240,-180 234,-174 234,-168"/>
<polyline fill="none" stroke="black" points="234,-168 234,-156 "/>
<path fill="none" stroke="black" d="M234,-156C234,-150 240,-144 246,-144"/>
<polyline fill="none" stroke="black" points="246,-144 376,-144 "/>
<path fill="none" stroke="black" d="M376,-144C382,-144 388,-150 388,-156"/>
<polyline fill="none" stroke="black" points="388,-156 388,-168 "/>
<path fill="none" stroke="black" d="M388,-168C388,-174 382,-180 376,-180"/>
<text text-anchor="middle" x="311" y="-158.4" font-family="Times Roman,serif" font-size="14.00">DBAllocatedStorage</text>
</g>
<!-- DBAllocatedStorage&#45;&gt;MyDB -->
<g id="edge8" class="edge"><title>DBAllocatedStorage&#45;&gt;MyDB</title>
<path fill="none" stroke="black" d="M317.561,-143.831C320.403,-135.962 323.794,-126.571 326.942,-117.853"/>
<polygon fill="black" stroke="black" points="330.246,-119.008 330.351,-108.413 323.662,-116.63 330.246,-119.008"/>
</g>
<!-- DBPassword -->
<g id="node7" class="node"><title>DBPassword</title>
<polygon fill="lightgrey" stroke="lightgrey" points="496,-180 418,-180 406,-168 406,-156 418,-144 496,-144 508,-156 508,-168 496,-180"/>
<path fill="lightgrey" stroke="lightgrey" d="M418,-180C412,-180 406,-174 406,-168"/>
<path fill="lightgrey" stroke="lightgrey" d="M406,-156C406,-150 412,-144 418,-144"/>
<path fill="lightgrey" stroke="lightgrey" d="M496,-144C502,-144 508,-150 508,-156"/>
<path fill="lightgrey" stroke="lightgrey" d="M508,-168C508,-174 502,-180 496,-180"/>
<polyline fill="none" stroke="black" points="496,-180 418,-180 "/>
<path fill="none" stroke="black" d="M418,-180C412,-180 406,-174 406,-168"/>
<polyline fill="none" stroke="black" points="406,-168 406,-156 "/>
<path fill="none" stroke="black" d="M406,-156C406,-150 412,-144 418,-144"/>
<polyline fill="none" stroke="black" points="418,-144 496,-144 "/>
<path fill="none" stroke="black" d="M496,-144C502,-144 508,-150 508,-156"/>
<polyline fill="none" stroke="black" points="508,-156 508,-168 "/>
<path fill="none" stroke="black" d="M508,-168C508,-174 502,-180 496,-180"/>
<text text-anchor="middle" x="457" y="-158.4" font-family="Times Roman,serif" font-size="14.00">DBPassword</text>
</g>
<!-- DBPassword&#45;&gt;MyDB -->
<g id="edge6" class="edge"><title>DBPassword&#45;&gt;MyDB</title>
<path fill="none" stroke="black" d="M426.719,-143.831C411.019,-134.411 391.686,-122.812 374.993,-112.796"/>
<polygon fill="black" stroke="black" points="376.405,-109.561 366.03,-107.418 372.804,-115.564 376.405,-109.561"/>
</g>
</g>
</svg>
