<?xml version="1.0" encoding="UTF-8" standalone="no"?>
<!DOCTYPE svg PUBLIC "-//W3C//DTD SVG 1.1//EN"
 "http://www.w3.org/Graphics/SVG/1.1/DTD/svg11.dtd">
<!-- Generated by graphviz version 2.26.3 (20100126.1600)
 -->
<!-- Title: AWS CloudFormation Sample Template RDS_PIOPS: Sample template showing how to create an Amazon RDS Database Instance with provisioned IOPs.**WARNING** This template creates an Amazon Relational Database Service database instance. You will be billed for the AWS resources used if you create a stack from this template. Pages: 1 -->
<svg width="196pt" height="116pt"
 viewBox="0.00 0.00 196.00 116.00" xmlns="http://www.w3.org/2000/svg" xmlns:xlink="http://www.w3.org/1999/xlink">
<g id="graph1" class="graph" transform="scale(1 1) rotate(0) translate(4 112)">
<title>AWS CloudFormation Sample Template RDS_PIOPS: Sample template showing how to create an Amazon RDS Database Instance with provisioned IOPs.**WARNING** This template creates an Amazon Relational Database Service database instance. You will be billed for the AWS resources used if you create a stack from this template.</title>
<polygon fill="white" stroke="white" points="-4,5 -4,-112 193,-112 193,5 -4,5"/>
<!-- MyDB -->
<g id="node1" class="node"><title>MyDB</title>
<polygon fill="none" stroke="black" points="114,-36 56,-36 56,-1.77636e-14 114,-3.55271e-15 114,-36"/>
<text text-anchor="middle" x="85" y="-14.4" font-family="Times Roman,serif" font-size="14.00">MyDB</text>
</g>
<!-- DBUser -->
<g id="node3" class="node"><title>DBUser</title>
<polygon fill="lightgrey" stroke="lightgrey" points="56,-108 12,-108 2.36848e-14,-96 1.18424e-14,-84 12,-72 56,-72 68,-84 68,-96 56,-108"/>
<path fill="lightgrey" stroke="lightgrey" d="M12,-108C6,-108 2.96059e-14,-102 2.36848e-14,-96"/>
<path fill="lightgrey" stroke="lightgrey" d="M1.18424e-14,-84C5.92119e-15,-78 6,-72 12,-72"/>
<path fill="lightgrey" stroke="lightgrey" d="M56,-72C62,-72 68,-78 68,-84"/>
<path fill="lightgrey" stroke="lightgrey" d="M68,-96C68,-102 62,-108 56,-108"/>
<polyline fill="none" stroke="black" points="56,-108 12,-108 "/>
<path fill="none" stroke="black" d="M12,-108C6,-108 2.96059e-14,-102 2.36848e-14,-96"/>
<polyline fill="none" stroke="black" points="2.36848e-14,-96 1.18424e-14,-84 "/>
<path fill="none" stroke="black" d="M1.18424e-14,-84C5.92119e-15,-78 6,-72 12,-72"/>
<polyline fill="none" stroke="black" points="12,-72 56,-72 "/>
<path fill="none" stroke="black" d="M56,-72C62,-72 68,-78 68,-84"/>
<polyline fill="none" stroke="black" points="68,-84 68,-96 "/>
<path fill="none" stroke="black" d="M68,-96C68,-102 62,-108 56,-108"/>
<text text-anchor="middle" x="34" y="-86.4" font-family="Times Roman,serif" font-size="14.00">DBUser</text>
</g>
<!-- DBUser&#45;&gt;MyDB -->
<g id="edge3" class="edge"><title>DBUser&#45;&gt;MyDB</title>
<path fill="none" stroke="black" d="M46.8695,-71.8314C52.6835,-63.6232 59.6696,-53.7606 66.0646,-44.7323"/>
<polygon fill="black" stroke="black" points="69.0331,-46.5966 71.9573,-36.4133 63.321,-42.5505 69.0331,-46.5966"/>
</g>
<!-- DBPassword -->
<g id="node4" class="node"><title>DBPassword</title>
<polygon fill="lightgrey" stroke="lightgrey" points="176,-108 98,-108 86,-96 86,-84 98,-72 176,-72 188,-84 188,-96 176,-108"/>
<path fill="lightgrey" stroke="lightgrey" d="M98,-108C92,-108 86,-102 86,-96"/>
<path fill="lightgrey" stroke="lightgrey" d="M86,-84C86,-78 92,-72 98,-72"/>
<path fill="lightgrey" stroke="lightgrey" d="M176,-72C182,-72 188,-78 188,-84"/>
<path fill="lightgrey" stroke="lightgrey" d="M188,-96C188,-102 182,-108 176,-108"/>
<polyline fill="none" stroke="black" points="176,-108 98,-108 "/>
<path fill="none" stroke="black" d="M98,-108C92,-108 86,-102 86,-96"/>
<polyline fill="none" stroke="black" points="86,-96 86,-84 "/>
<path fill="none" stroke="black" d="M86,-84C86,-78 92,-72 98,-72"/>
<polyline fill="none" stroke="black" points="98,-72 176,-72 "/>
<path fill="none" stroke="black" d="M176,-72C182,-72 188,-78 188,-84"/>
<polyline fill="none" stroke="black" points="188,-84 188,-96 "/>
<path fill="none" stroke="black" d="M188,-96C188,-102 182,-108 176,-108"/>
<text text-anchor="middle" x="137" y="-86.4" font-family="Times Roman,serif" font-size="14.00">DBPassword</text>
</g>
<!-- DBPassword&#45;&gt;MyDB -->
<g id="edge5" class="edge"><title>DBPassword&#45;&gt;MyDB</title>
<path fill="none" stroke="black" d="M123.878,-71.8314C117.95,-63.6232 110.827,-53.7606 104.307,-44.7323"/>
<polygon fill="black" stroke="black" points="106.991,-42.4708 98.2985,-36.4133 101.316,-46.5693 106.991,-42.4708"/>
</g>
</g>
</svg>
