<?xml version="1.0" encoding="UTF-8" standalone="no"?>
<!DOCTYPE svg PUBLIC "-//W3C//DTD SVG 1.1//EN"
 "http://www.w3.org/Graphics/SVG/1.1/DTD/svg11.dtd">
<!-- Generated by graphviz version 2.26.3 (20100126.1600)
 -->
<!-- Title: AWS CloudFormation Sample Template Redmine_Single_instance: Redmine is a &#160;flexible project management web application which includes a gantt chart, calendar, wiki, forums, multiple roles, and email notification. This template installs a Redmine stack using a single EC2 instance with a local MySQL database for storage. It demonstrates using the AWS CloudFormation bootstrap scripts to install the packages and files necessary to deploy the Redmine, Rails, MySQL and all dependent packages at instance launch time. **WARNING** This template creates an Amazon EC2 instance. You will be billed for the AWS resources used if you create a stack from this template. Pages: 1 -->
<svg width="1068pt" height="260pt"
 viewBox="0.00 0.00 1068.00 260.00" xmlns="http://www.w3.org/2000/svg" xmlns:xlink="http://www.w3.org/1999/xlink">
<g id="graph1" class="graph" transform="scale(1 1) rotate(0) translate(4 256)">
<title>AWS CloudFormation Sample Template Redmine_Single_instance: Redmine is a &#160;flexible project management web application which includes a gantt chart, calendar, wiki, forums, multiple roles, and email notification. This template installs a Redmine stack using a single EC2 instance with a local MySQL database for storage. It demonstrates using the AWS CloudFormation bootstrap scripts to install the packages and files necessary to deploy the Redmine, Rails, MySQL and all dependent packages at instance launch time. **WARNING** This template creates an Amazon EC2 instance. You will be billed for the AWS resources used if you create a stack from this template.</title>
<polygon fill="white" stroke="white" points="-4,5 -4,-256 1065,-256 1065,5 -4,5"/>
<!-- WebServer -->
<g id="node1" class="node"><title>WebServer</title>
<polygon fill="none" stroke="black" points="640,-108 548,-108 548,-72 640,-72 640,-108"/>
<text text-anchor="middle" x="594" y="-86.4" font-family="Times Roman,serif" font-size="14.00">WebServer</text>
</g>
<!-- WebsiteURL -->
<g id="node14" class="node"><title>WebsiteURL</title>
<polygon fill="lightgrey" stroke="lightgrey" points="632,-36 556,-36 544,-24 544,-12 556,-1.60583e-14 632,-5.25802e-15 644,-12 644,-24 632,-36"/>
<path fill="lightgrey" stroke="lightgrey" d="M556,-36C550,-36 544,-30 544,-24"/>
<path fill="lightgrey" stroke="lightgrey" d="M544,-12C544,-6 550,-1.69109e-14 556,-1.60583e-14"/>
<path fill="lightgrey" stroke="lightgrey" d="M632,-5.25802e-15C638,-4.40536e-15 644,-6 644,-12"/>
<path fill="lightgrey" stroke="lightgrey" d="M644,-24C644,-30 638,-36 632,-36"/>
<polyline fill="none" stroke="black" points="632,-36 556,-36 "/>
<path fill="none" stroke="black" d="M556,-36C550,-36 544,-30 544,-24"/>
<polyline fill="none" stroke="black" points="544,-24 544,-12 "/>
<path fill="none" stroke="black" d="M544,-12C544,-6 550,-1.69109e-14 556,-1.60583e-14"/>
<polyline fill="none" stroke="black" points="556,-1.60583e-14 632,-5.25802e-15 "/>
<path fill="none" stroke="black" d="M632,-5.25802e-15C638,-4.40536e-15 644,-6 644,-12"/>
<polyline fill="none" stroke="black" points="644,-12 644,-24 "/>
<path fill="none" stroke="black" d="M644,-24C644,-30 638,-36 632,-36"/>
<text text-anchor="middle" x="594" y="-14.4" font-family="Times Roman,serif" font-size="14.00">WebsiteURL</text>
</g>
<!-- WebServer&#45;&gt;WebsiteURL -->
<g id="edge44" class="edge"><title>WebServer&#45;&gt;WebsiteURL</title>
<path fill="none" stroke="black" d="M594,-71.8314C594,-64.131 594,-54.9743 594,-46.4166"/>
<polygon fill="black" stroke="black" points="597.5,-46.4132 594,-36.4133 590.5,-46.4133 597.5,-46.4132"/>
</g>
<!-- WaitCondition -->
<g id="node2" class="node"><title>WaitCondition</title>
<polygon fill="none" stroke="black" points="1060,-108 946,-108 946,-72 1060,-72 1060,-108"/>
<text text-anchor="middle" x="1003" y="-86.4" font-family="Times Roman,serif" font-size="14.00">WaitCondition</text>
</g>
<!-- WebServerSecurityGroup -->
<g id="node3" class="node"><title>WebServerSecurityGroup</title>
<polygon fill="none" stroke="black" points="192,-180 7.10543e-14,-180 0,-144 192,-144 192,-180"/>
<text text-anchor="middle" x="96" y="-158.4" font-family="Times Roman,serif" font-size="14.00">WebServerSecurityGroup</text>
</g>
<!-- WebServerSecurityGroup&#45;&gt;WebServer -->
<g id="edge14" class="edge"><title>WebServerSecurityGroup&#45;&gt;WebServer</title>
<path fill="none" stroke="black" d="M192.019,-148.118C294.581,-133.29 453.676,-110.288 537.657,-98.146"/>
<polygon fill="black" stroke="black" points="538.368,-101.58 547.764,-96.6848 537.366,-94.6518 538.368,-101.58"/>
</g>
<!-- WaitHandle -->
<g id="node4" class="node"><title>WaitHandle</title>
<polygon fill="none" stroke="black" points="1051,-180 955,-180 955,-144 1051,-144 1051,-180"/>
<text text-anchor="middle" x="1003" y="-158.4" font-family="Times Roman,serif" font-size="14.00">WaitHandle</text>
</g>
<!-- WaitHandle&#45;&gt;WebServer -->
<g id="edge4" class="edge"><title>WaitHandle&#45;&gt;WebServer</title>
<path fill="none" stroke="black" d="M954.761,-148.714C948.782,-146.98 942.761,-145.343 937,-144 837.062,-120.7 718.746,-104.914 650.346,-96.6925"/>
<polygon fill="black" stroke="black" points="650.56,-93.1933 640.216,-95.4862 649.732,-100.144 650.56,-93.1933"/>
</g>
<!-- WaitHandle&#45;&gt;WebServer -->
<g id="edge10" class="edge"><title>WaitHandle&#45;&gt;WebServer</title>
<path fill="none" stroke="black" d="M955.303,-144.071C955.202,-144.047 955.101,-144.024 955,-144 848.831,-119.247 721.92,-102.974 650.269,-95.2429"/>
<polygon fill="black" stroke="black" points="650.421,-91.7395 640.108,-94.1642 649.682,-98.7004 650.421,-91.7395"/>
</g>
<!-- WaitHandle&#45;&gt;WaitCondition -->
<g id="edge40" class="edge"><title>WaitHandle&#45;&gt;WaitCondition</title>
<path fill="none" stroke="black" d="M1003,-143.831C1003,-136.131 1003,-126.974 1003,-118.417"/>
<polygon fill="black" stroke="black" points="1006.5,-118.413 1003,-108.413 999.5,-118.413 1006.5,-118.413"/>
</g>
<!-- DBUsername -->
<g id="node6" class="node"><title>DBUsername</title>
<polygon fill="lightgrey" stroke="lightgrey" points="221,-252 139,-252 127,-240 127,-228 139,-216 221,-216 233,-228 233,-240 221,-252"/>
<path fill="lightgrey" stroke="lightgrey" d="M139,-252C133,-252 127,-246 127,-240"/>
<path fill="lightgrey" stroke="lightgrey" d="M127,-228C127,-222 133,-216 139,-216"/>
<path fill="lightgrey" stroke="lightgrey" d="M221,-216C227,-216 233,-222 233,-228"/>
<path fill="lightgrey" stroke="lightgrey" d="M233,-240C233,-246 227,-252 221,-252"/>
<polyline fill="none" stroke="black" points="221,-252 139,-252 "/>
<path fill="none" stroke="black" d="M139,-252C133,-252 127,-246 127,-240"/>
<polyline fill="none" stroke="black" points="127,-240 127,-228 "/>
<path fill="none" stroke="black" d="M127,-228C127,-222 133,-216 139,-216"/>
<polyline fill="none" stroke="black" points="139,-216 221,-216 "/>
<path fill="none" stroke="black" d="M221,-216C227,-216 233,-222 233,-228"/>
<polyline fill="none" stroke="black" points="233,-228 233,-240 "/>
<path fill="none" stroke="black" d="M233,-240C233,-246 227,-252 221,-252"/>
<text text-anchor="middle" x="180" y="-230.4" font-family="Times Roman,serif" font-size="14.00">DBUsername</text>
</g>
<!-- DBUsername&#45;&gt;WebServer -->
<g id="edge26" class="edge"><title>DBUsername&#45;&gt;WebServer</title>
<path fill="none" stroke="black" d="M216.346,-215.977C260.115,-196.967 335.612,-166.682 402,-144 447.032,-128.614 499.153,-113.491 537.815,-103.181"/>
<polygon fill="black" stroke="black" points="539.067,-106.471 547.843,-100.535 537.281,-99.7022 539.067,-106.471"/>
</g>
<!-- DBUsername&#45;&gt;WebServer -->
<g id="edge36" class="edge"><title>DBUsername&#45;&gt;WebServer</title>
<path fill="none" stroke="black" d="M229.7,-215.977C278.115,-196.967 353.612,-166.682 420,-144 459.229,-130.597 503.836,-117.393 538.137,-107.397"/>
<polygon fill="black" stroke="black" points="539.355,-110.688 547.979,-104.534 537.399,-103.967 539.355,-110.688"/>
</g>
<!-- InstanceType -->
<g id="node7" class="node"><title>InstanceType</title>
<polygon fill="lightgrey" stroke="lightgrey" points="345,-252 263,-252 251,-240 251,-228 263,-216 345,-216 357,-228 357,-240 345,-252"/>
<path fill="lightgrey" stroke="lightgrey" d="M263,-252C257,-252 251,-246 251,-240"/>
<path fill="lightgrey" stroke="lightgrey" d="M251,-228C251,-222 257,-216 263,-216"/>
<path fill="lightgrey" stroke="lightgrey" d="M345,-216C351,-216 357,-222 357,-228"/>
<path fill="lightgrey" stroke="lightgrey" d="M357,-240C357,-246 351,-252 345,-252"/>
<polyline fill="none" stroke="black" points="345,-252 263,-252 "/>
<path fill="none" stroke="black" d="M263,-252C257,-252 251,-246 251,-240"/>
<polyline fill="none" stroke="black" points="251,-240 251,-228 "/>
<path fill="none" stroke="black" d="M251,-228C251,-222 257,-216 263,-216"/>
<polyline fill="none" stroke="black" points="263,-216 345,-216 "/>
<path fill="none" stroke="black" d="M345,-216C351,-216 357,-222 357,-228"/>
<polyline fill="none" stroke="black" points="357,-228 357,-240 "/>
<path fill="none" stroke="black" d="M357,-240C357,-246 351,-252 345,-252"/>
<text text-anchor="middle" x="304" y="-230.4" font-family="Times Roman,serif" font-size="14.00">InstanceType</text>
</g>
<!-- InstanceType&#45;&gt;WebServer -->
<g id="edge16" class="edge"><title>InstanceType&#45;&gt;WebServer</title>
<path fill="none" stroke="black" d="M335.777,-215.908C385.981,-189.665 483.72,-141.065 543.558,-112.532"/>
<polygon fill="black" stroke="black" points="545.292,-115.583 552.823,-108.131 542.289,-109.26 545.292,-115.583"/>
</g>
<!-- InstanceType&#45;&gt;WebServer -->
<g id="edge20" class="edge"><title>InstanceType&#45;&gt;WebServer</title>
<path fill="none" stroke="black" d="M345.094,-215.908C400.361,-189.773 497.794,-141.465 553.006,-112.885"/>
<polygon fill="black" stroke="black" points="554.891,-115.85 562.148,-108.131 551.661,-109.64 554.891,-115.85"/>
</g>
<!-- DBRootPassword -->
<g id="node8" class="node"><title>DBRootPassword</title>
<polygon fill="lightgrey" stroke="lightgrey" points="497,-252 387,-252 375,-240 375,-228 387,-216 497,-216 509,-228 509,-240 497,-252"/>
<path fill="lightgrey" stroke="lightgrey" d="M387,-252C381,-252 375,-246 375,-240"/>
<path fill="lightgrey" stroke="lightgrey" d="M375,-228C375,-222 381,-216 387,-216"/>
<path fill="lightgrey" stroke="lightgrey" d="M497,-216C503,-216 509,-222 509,-228"/>
<path fill="lightgrey" stroke="lightgrey" d="M509,-240C509,-246 503,-252 497,-252"/>
<polyline fill="none" stroke="black" points="497,-252 387,-252 "/>
<path fill="none" stroke="black" d="M387,-252C381,-252 375,-246 375,-240"/>
<polyline fill="none" stroke="black" points="375,-240 375,-228 "/>
<path fill="none" stroke="black" d="M375,-228C375,-222 381,-216 387,-216"/>
<polyline fill="none" stroke="black" points="387,-216 497,-216 "/>
<path fill="none" stroke="black" d="M497,-216C503,-216 509,-222 509,-228"/>
<polyline fill="none" stroke="black" points="509,-228 509,-240 "/>
<path fill="none" stroke="black" d="M509,-240C509,-246 503,-252 497,-252"/>
<text text-anchor="middle" x="442" y="-230.4" font-family="Times Roman,serif" font-size="14.00">DBRootPassword</text>
</g>
<!-- DBRootPassword&#45;&gt;WebServer -->
<g id="edge30" class="edge"><title>DBRootPassword&#45;&gt;WebServer</title>
<path fill="none" stroke="black" d="M456.578,-215.762C480.974,-190.227 529.857,-143.732 562.361,-114.991"/>
<polygon fill="black" stroke="black" points="565.027,-117.309 570.247,-108.09 560.417,-112.041 565.027,-117.309"/>
</g>
<!-- DBRootPassword&#45;&gt;WebServer -->
<g id="edge32" class="edge"><title>DBRootPassword&#45;&gt;WebServer</title>
<path fill="none" stroke="black" d="M465.924,-215.762C495.31,-190.335 544.292,-144.125 572.522,-115.357"/>
<polygon fill="black" stroke="black" points="575.118,-117.707 579.564,-108.09 570.091,-112.836 575.118,-117.707"/>
</g>
<!-- SSHLocation -->
<g id="node9" class="node"><title>SSHLocation</title>
<polygon fill="lightgrey" stroke="lightgrey" points="97,-252 17,-252 5,-240 5,-228 17,-216 97,-216 109,-228 109,-240 97,-252"/>
<path fill="lightgrey" stroke="lightgrey" d="M17,-252C11,-252 5,-246 5,-240"/>
<path fill="lightgrey" stroke="lightgrey" d="M5,-228C5,-222 11,-216 17,-216"/>
<path fill="lightgrey" stroke="lightgrey" d="M97,-216C103,-216 109,-222 109,-228"/>
<path fill="lightgrey" stroke="lightgrey" d="M109,-240C109,-246 103,-252 97,-252"/>
<polyline fill="none" stroke="black" points="97,-252 17,-252 "/>
<path fill="none" stroke="black" d="M17,-252C11,-252 5,-246 5,-240"/>
<polyline fill="none" stroke="black" points="5,-240 5,-228 "/>
<path fill="none" stroke="black" d="M5,-228C5,-222 11,-216 17,-216"/>
<polyline fill="none" stroke="black" points="17,-216 97,-216 "/>
<path fill="none" stroke="black" d="M97,-216C103,-216 109,-222 109,-228"/>
<polyline fill="none" stroke="black" points="109,-228 109,-240 "/>
<path fill="none" stroke="black" d="M109,-240C109,-246 103,-252 97,-252"/>
<text text-anchor="middle" x="57" y="-230.4" font-family="Times Roman,serif" font-size="14.00">SSHLocation</text>
</g>
<!-- SSHLocation&#45;&gt;WebServerSecurityGroup -->
<g id="edge42" class="edge"><title>SSHLocation&#45;&gt;WebServerSecurityGroup</title>
<path fill="none" stroke="black" d="M66.8413,-215.831C71.1957,-207.792 76.4098,-198.167 81.2169,-189.292"/>
<polygon fill="black" stroke="black" points="84.3408,-190.873 86.0261,-180.413 78.1857,-187.539 84.3408,-190.873"/>
</g>
<!-- KeyName -->
<g id="node10" class="node"><title>KeyName</title>
<polygon fill="lightgrey" stroke="lightgrey" points="595,-252 539,-252 527,-240 527,-228 539,-216 595,-216 607,-228 607,-240 595,-252"/>
<path fill="lightgrey" stroke="lightgrey" d="M539,-252C533,-252 527,-246 527,-240"/>
<path fill="lightgrey" stroke="lightgrey" d="M527,-228C527,-222 533,-216 539,-216"/>
<path fill="lightgrey" stroke="lightgrey" d="M595,-216C601,-216 607,-222 607,-228"/>
<path fill="lightgrey" stroke="lightgrey" d="M607,-240C607,-246 601,-252 595,-252"/>
<polyline fill="none" stroke="black" points="595,-252 539,-252 "/>
<path fill="none" stroke="black" d="M539,-252C533,-252 527,-246 527,-240"/>
<polyline fill="none" stroke="black" points="527,-240 527,-228 "/>
<path fill="none" stroke="black" d="M527,-228C527,-222 533,-216 539,-216"/>
<polyline fill="none" stroke="black" points="539,-216 595,-216 "/>
<path fill="none" stroke="black" d="M595,-216C601,-216 607,-222 607,-228"/>
<polyline fill="none" stroke="black" points="607,-228 607,-240 "/>
<path fill="none" stroke="black" d="M607,-240C607,-246 601,-252 595,-252"/>
<text text-anchor="middle" x="567" y="-230.4" font-family="Times Roman,serif" font-size="14.00">KeyName</text>
</g>
<!-- KeyName&#45;&gt;WebServer -->
<g id="edge12" class="edge"><title>KeyName&#45;&gt;WebServer</title>
<path fill="none" stroke="black" d="M565.925,-215.818C565.277,-197.458 565.453,-168.402 571,-144 573.013,-135.144 576.412,-125.909 579.988,-117.633"/>
<polygon fill="black" stroke="black" points="583.218,-118.987 584.195,-108.438 576.852,-116.075 583.218,-118.987"/>
</g>
<!-- DBPassword -->
<g id="node11" class="node"><title>DBPassword</title>
<polygon fill="lightgrey" stroke="lightgrey" points="715,-252 637,-252 625,-240 625,-228 637,-216 715,-216 727,-228 727,-240 715,-252"/>
<path fill="lightgrey" stroke="lightgrey" d="M637,-252C631,-252 625,-246 625,-240"/>
<path fill="lightgrey" stroke="lightgrey" d="M625,-228C625,-222 631,-216 637,-216"/>
<path fill="lightgrey" stroke="lightgrey" d="M715,-216C721,-216 727,-222 727,-228"/>
<path fill="lightgrey" stroke="lightgrey" d="M727,-240C727,-246 721,-252 715,-252"/>
<polyline fill="none" stroke="black" points="715,-252 637,-252 "/>
<path fill="none" stroke="black" d="M637,-252C631,-252 625,-246 625,-240"/>
<polyline fill="none" stroke="black" points="625,-240 625,-228 "/>
<path fill="none" stroke="black" d="M625,-228C625,-222 631,-216 637,-216"/>
<polyline fill="none" stroke="black" points="637,-216 715,-216 "/>
<path fill="none" stroke="black" d="M715,-216C721,-216 727,-222 727,-228"/>
<polyline fill="none" stroke="black" points="727,-228 727,-240 "/>
<path fill="none" stroke="black" d="M727,-240C727,-246 721,-252 715,-252"/>
<text text-anchor="middle" x="676" y="-230.4" font-family="Times Roman,serif" font-size="14.00">DBPassword</text>
</g>
<!-- DBPassword&#45;&gt;WebServer -->
<g id="edge28" class="edge"><title>DBPassword&#45;&gt;WebServer</title>
<path fill="none" stroke="black" d="M648.325,-215.964C637.499,-206.097 625.996,-193.214 618,-180 606.278,-160.628 597.694,-136.426 593.576,-118"/>
<polygon fill="black" stroke="black" points="597.013,-117.338 591.716,-108.162 590.134,-118.638 597.013,-117.338"/>
</g>
<!-- DBPassword&#45;&gt;WebServer -->
<g id="edge38" class="edge"><title>DBPassword&#45;&gt;WebServer</title>
<path fill="none" stroke="black" d="M664.377,-215.964C655.499,-206.097 643.996,-193.214 636,-180 624.223,-160.538 615.615,-136.201 608.779,-117.743"/>
<polygon fill="black" stroke="black" points="611.966,-116.277 605.154,-108.162 605.419,-118.754 611.966,-116.277"/>
</g>
<!-- DBName -->
<g id="node12" class="node"><title>DBName</title>
<polygon fill="lightgrey" stroke="lightgrey" points="809,-252 757,-252 745,-240 745,-228 757,-216 809,-216 821,-228 821,-240 809,-252"/>
<path fill="lightgrey" stroke="lightgrey" d="M757,-252C751,-252 745,-246 745,-240"/>
<path fill="lightgrey" stroke="lightgrey" d="M745,-228C745,-222 751,-216 757,-216"/>
<path fill="lightgrey" stroke="lightgrey" d="M809,-216C815,-216 821,-222 821,-228"/>
<path fill="lightgrey" stroke="lightgrey" d="M821,-240C821,-246 815,-252 809,-252"/>
<polyline fill="none" stroke="black" points="809,-252 757,-252 "/>
<path fill="none" stroke="black" d="M757,-252C751,-252 745,-246 745,-240"/>
<polyline fill="none" stroke="black" points="745,-240 745,-228 "/>
<path fill="none" stroke="black" d="M745,-228C745,-222 751,-216 757,-216"/>
<polyline fill="none" stroke="black" points="757,-216 809,-216 "/>
<path fill="none" stroke="black" d="M809,-216C815,-216 821,-222 821,-228"/>
<polyline fill="none" stroke="black" points="821,-228 821,-240 "/>
<path fill="none" stroke="black" d="M821,-240C821,-246 815,-252 809,-252"/>
<text text-anchor="middle" x="783" y="-230.4" font-family="Times Roman,serif" font-size="14.00">DBName</text>
</g>
<!-- DBName&#45;&gt;WebServer -->
<g id="edge24" class="edge"><title>DBName&#45;&gt;WebServer</title>
<path fill="none" stroke="black" d="M744.614,-220.806C723.504,-210.449 698.545,-195.272 678,-180 651.254,-160.118 623,-134.808 606.044,-116.095"/>
<polygon fill="black" stroke="black" points="608.476,-113.556 599.3,-108.26 603.171,-118.122 608.476,-113.556"/>
</g>
<!-- DBName&#45;&gt;WebServer -->
<g id="edge34" class="edge"><title>DBName&#45;&gt;WebServer</title>
<path fill="none" stroke="black" d="M767.166,-215.982C752.318,-206.02 731.548,-193.045 714,-180 686.534,-159.583 657.479,-133.442 634.17,-114.599"/>
<polygon fill="black" stroke="black" points="636.187,-111.732 626.177,-108.26 631.837,-117.216 636.187,-111.732"/>
</g>
<!-- DBName&#45;&gt;WebServer -->
<g id="edge22" class="edge"><title>DBName&#45;&gt;WebServer</title>
<path fill="none" stroke="black" d="M751.162,-215.982C734.318,-206.02 713.548,-193.045 696,-180 668.894,-159.85 640.24,-134.126 620.227,-115.343"/>
<polygon fill="black" stroke="black" points="622.409,-112.589 612.738,-108.26 617.598,-117.674 622.409,-112.589"/>
</g>
<!-- AWS::StackId -->
<g id="node16" class="node"><title>AWS::StackId</title>
<polygon fill="none" stroke="black" points="815,-180 705,-180 705,-144 815,-144 815,-180"/>
<text text-anchor="middle" x="760" y="-158.4" font-family="Times Roman,serif" font-size="14.00">AWS::StackId</text>
</g>
<!-- AWS::StackId&#45;&gt;WebServer -->
<g id="edge6" class="edge"><title>AWS::StackId&#45;&gt;WebServer</title>
<path fill="none" stroke="black" d="M718.111,-143.831C695.91,-134.202 668.458,-122.295 645.022,-112.13"/>
<polygon fill="black" stroke="black" points="646.155,-108.806 635.588,-108.038 643.369,-115.228 646.155,-108.806"/>
</g>
<!-- AWS::Region -->
<g id="node18" class="node"><title>AWS::Region</title>
<polygon fill="none" stroke="black" points="937,-180 833,-180 833,-144 937,-144 937,-180"/>
<text text-anchor="middle" x="885" y="-158.4" font-family="Times Roman,serif" font-size="14.00">AWS::Region</text>
</g>
<!-- AWS::Region&#45;&gt;WebServer -->
<g id="edge8" class="edge"><title>AWS::Region&#45;&gt;WebServer</title>
<path fill="none" stroke="black" d="M832.848,-148.915C826.81,-147.209 820.764,-145.526 815,-144 758.969,-129.168 694.714,-114.257 649.901,-103.873"/>
<polygon fill="black" stroke="black" points="650.611,-100.444 640.079,-101.596 649.03,-107.264 650.611,-100.444"/>
</g>
<!-- AWS::Region&#45;&gt;WebServer -->
<g id="edge18" class="edge"><title>AWS::Region&#45;&gt;WebServer</title>
<path fill="none" stroke="black" d="M833.321,-144.085C833.214,-144.057 833.107,-144.028 833,-144 770.995,-127.587 698.921,-111.076 650.163,-100.712"/>
<polygon fill="black" stroke="black" points="650.631,-97.2336 640.125,-98.5955 649.187,-104.083 650.631,-97.2336"/>
</g>
</g>
</svg>
