<?xml version="1.0" encoding="UTF-8" standalone="no"?>
<!DOCTYPE svg PUBLIC "-//W3C//DTD SVG 1.1//EN"
 "http://www.w3.org/Graphics/SVG/1.1/DTD/svg11.dtd">
<!-- Generated by graphviz version 2.26.3 (20100126.1600)
 -->
<!-- Title: AWS CloudFormation Sample Template Route53_RoundRobin: Sample template showing how to use weighted round robin (WRR) DNS entried via Amazon Route 53. This contrived sample uses weighted CNAME records to illustrate that the weighting influences the return records. It assumes that you already have a Hosted Zone registered with Amazon Route 53. **WARNING** This template creates one or more AWS resources. You will be billed for the AWS resources used if you create a stack from this template. Pages: 1 -->
<svg width="362pt" height="188pt"
 viewBox="0.00 0.00 362.00 188.00" xmlns="http://www.w3.org/2000/svg" xmlns:xlink="http://www.w3.org/1999/xlink">
<g id="graph1" class="graph" transform="scale(1 1) rotate(0) translate(4 184)">
<title>AWS CloudFormation Sample Template Route53_RoundRobin: Sample template showing how to use weighted round robin (WRR) DNS entried via Amazon Route 53. This contrived sample uses weighted CNAME records to illustrate that the weighting influences the return records. It assumes that you already have a Hosted Zone registered with Amazon Route 53. **WARNING** This template creates one or more AWS resources. You will be billed for the AWS resources used if you create a stack from this template.</title>
<polygon fill="white" stroke="white" points="-4,5 -4,-184 359,-184 359,5 -4,5"/>
<!-- myDNSRecord -->
<g id="node1" class="node"><title>myDNSRecord</title>
<polygon fill="none" stroke="black" points="221,-36 107,-36 107,-1.77636e-14 221,-3.55271e-15 221,-36"/>
<text text-anchor="middle" x="164" y="-14.4" font-family="Times Roman,serif" font-size="14.00">myDNSRecord</text>
</g>
<!-- HostedZone -->
<g id="node3" class="node"><title>HostedZone</title>
<polygon fill="lightgrey" stroke="lightgrey" points="88,-180 12,-180 2.84217e-14,-168 1.42109e-14,-156 12,-144 88,-144 100,-156 100,-168 88,-180"/>
<path fill="lightgrey" stroke="lightgrey" d="M12,-180C6,-180 3.55271e-14,-174 2.84217e-14,-168"/>
<path fill="lightgrey" stroke="lightgrey" d="M1.42109e-14,-156C7.10543e-15,-150 6,-144 12,-144"/>
<path fill="lightgrey" stroke="lightgrey" d="M88,-144C94,-144 100,-150 100,-156"/>
<path fill="lightgrey" stroke="lightgrey" d="M100,-168C100,-174 94,-180 88,-180"/>
<polyline fill="none" stroke="black" points="88,-180 12,-180 "/>
<path fill="none" stroke="black" d="M12,-180C6,-180 3.55271e-14,-174 2.84217e-14,-168"/>
<polyline fill="none" stroke="black" points="2.84217e-14,-168 1.42109e-14,-156 "/>
<path fill="none" stroke="black" d="M1.42109e-14,-156C7.10543e-15,-150 6,-144 12,-144"/>
<polyline fill="none" stroke="black" points="12,-144 88,-144 "/>
<path fill="none" stroke="black" d="M88,-144C94,-144 100,-150 100,-156"/>
<polyline fill="none" stroke="black" points="100,-156 100,-168 "/>
<path fill="none" stroke="black" d="M100,-168C100,-174 94,-180 88,-180"/>
<text text-anchor="middle" x="50" y="-158.4" font-family="Times Roman,serif" font-size="14.00">HostedZone</text>
</g>
<!-- HostedZone&#45;&gt;myDNSRecord -->
<g id="edge3" class="edge"><title>HostedZone&#45;&gt;myDNSRecord</title>
<path fill="none" stroke="black" d="M40.9286,-143.867C41.377,-124.487 51.6948,-93.6368 69,-72 78.4534,-60.1804 91.1563,-49.8404 104.371,-41.4582"/>
<polygon fill="black" stroke="black" points="106.314,-44.374 113.099,-36.2367 102.721,-38.3668 106.314,-44.374"/>
</g>
<!-- HostedZone&#45;&gt;myDNSRecord -->
<g id="edge9" class="edge"><title>HostedZone&#45;&gt;myDNSRecord</title>
<path fill="none" stroke="black" d="M54.1962,-143.867C59.377,-124.487 69.6948,-93.6368 87,-72 96.3634,-60.293 108.915,-50.0375 121.163,-41.6982"/>
<polygon fill="black" stroke="black" points="123.08,-44.6262 129.551,-36.2367 119.261,-38.76 123.08,-44.6262"/>
</g>
<!-- HostedZone&#45;&gt;myDNSRecord -->
<g id="edge17" class="edge"><title>HostedZone&#45;&gt;myDNSRecord</title>
<path fill="none" stroke="black" d="M67.4637,-143.867C77.377,-124.487 87.6948,-93.6368 105,-72 114.183,-60.5181 126.433,-50.4325 137.672,-42.1814"/>
<polygon fill="black" stroke="black" points="139.896,-44.8945 146.003,-36.2367 135.83,-39.1966 139.896,-44.8945"/>
</g>
<!-- AWS::StackName -->
<g id="node5" class="node"><title>AWS::StackName</title>
<polygon fill="none" stroke="black" points="232,-108 96,-108 96,-72 232,-72 232,-108"/>
<text text-anchor="middle" x="164" y="-86.4" font-family="Times Roman,serif" font-size="14.00">AWS::StackName</text>
</g>
<!-- AWS::StackName&#45;&gt;myDNSRecord -->
<g id="edge5" class="edge"><title>AWS::StackName&#45;&gt;myDNSRecord</title>
<path fill="none" stroke="black" d="M146.143,-71.8314C143.892,-64.131 143.229,-54.9743 144.155,-46.4166"/>
<polygon fill="black" stroke="black" points="147.627,-46.8934 146.072,-36.4133 140.752,-45.5757 147.627,-46.8934"/>
</g>
<!-- AWS::StackName&#45;&gt;myDNSRecord -->
<g id="edge11" class="edge"><title>AWS::StackName&#45;&gt;myDNSRecord</title>
<path fill="none" stroke="black" d="M158.048,-71.8314C157.297,-64.131 157.076,-54.9743 157.385,-46.4166"/>
<polygon fill="black" stroke="black" points="160.879,-46.6161 158.024,-36.4133 153.893,-46.1697 160.879,-46.6161"/>
</g>
<!-- AWS::StackName&#45;&gt;myDNSRecord -->
<g id="edge13" class="edge"><title>AWS::StackName&#45;&gt;myDNSRecord</title>
<path fill="none" stroke="black" d="M169.952,-71.8314C170.703,-64.131 170.924,-54.9743 170.615,-46.4166"/>
<polygon fill="black" stroke="black" points="174.107,-46.1697 169.976,-36.4133 167.121,-46.6161 174.107,-46.1697"/>
</g>
<!-- AWS::StackName&#45;&gt;myDNSRecord -->
<g id="edge19" class="edge"><title>AWS::StackName&#45;&gt;myDNSRecord</title>
<path fill="none" stroke="black" d="M181.857,-71.8314C184.108,-64.131 184.771,-54.9743 183.845,-46.4166"/>
<polygon fill="black" stroke="black" points="187.248,-45.5757 181.928,-36.4133 180.373,-46.8934 187.248,-45.5757"/>
</g>
<!-- AWS::Region -->
<g id="node7" class="node"><title>AWS::Region</title>
<polygon fill="none" stroke="black" points="354,-108 250,-108 250,-72 354,-72 354,-108"/>
<text text-anchor="middle" x="302" y="-86.4" font-family="Times Roman,serif" font-size="14.00">AWS::Region</text>
</g>
<!-- AWS::Region&#45;&gt;myDNSRecord -->
<g id="edge7" class="edge"><title>AWS::Region&#45;&gt;myDNSRecord</title>
<path fill="none" stroke="black" d="M261.224,-71.8314C242.418,-62.4942 220.287,-51.016 201.853,-41.0606"/>
<polygon fill="black" stroke="black" points="203.316,-37.8722 192.86,-36.1628 199.968,-44.0196 203.316,-37.8722"/>
</g>
<!-- AWS::Region&#45;&gt;myDNSRecord -->
<g id="edge15" class="edge"><title>AWS::Region&#45;&gt;myDNSRecord</title>
<path fill="none" stroke="black" d="M273.129,-71.8314C255.844,-62.3302 233.505,-50.6121 213.508,-40.5374"/>
<polygon fill="black" stroke="black" points="215.022,-37.381 204.512,-36.038 211.89,-43.6416 215.022,-37.381"/>
</g>
</g>
</svg>
