<?xml version="1.0" encoding="UTF-8" standalone="no"?>
<!DOCTYPE svg PUBLIC "-//W3C//DTD SVG 1.1//EN"
 "http://www.w3.org/Graphics/SVG/1.1/DTD/svg11.dtd">
<!-- Generated by graphviz version 2.26.3 (20100126.1600)
 -->
<!-- Title: AWS CloudFormation Sample Template Route53_A: Sample template showing how to create an Amazon Route 53 A record that maps to the public IP address of an EC2 instance. It assumes that you already have a Hosted Zone registered with Amazon Route 53. **WARNING** This template creates an Amazon EC2 instance. You will be billed for the AWS resources used if you create a stack from this template. Pages: 1 -->
<svg width="237pt" height="332pt"
 viewBox="0.00 0.00 237.00 332.00" xmlns="http://www.w3.org/2000/svg" xmlns:xlink="http://www.w3.org/1999/xlink">
<g id="graph1" class="graph" transform="scale(1 1) rotate(0) translate(4 328)">
<title>AWS CloudFormation Sample Template Route53_A: Sample template showing how to create an Amazon Route 53 A record that maps to the public IP address of an EC2 instance. It assumes that you already have a Hosted Zone registered with Amazon Route 53. **WARNING** This template creates an Amazon EC2 instance. You will be billed for the AWS resources used if you create a stack from this template.</title>
<polygon fill="white" stroke="white" points="-4,5 -4,-328 234,-328 234,5 -4,5"/>
<!-- Ec2Instance -->
<g id="node1" class="node"><title>Ec2Instance</title>
<polygon fill="none" stroke="black" points="187,-180 87,-180 87,-144 187,-144 187,-180"/>
<text text-anchor="middle" x="137" y="-158.4" font-family="Times Roman,serif" font-size="14.00">Ec2Instance</text>
</g>
<!-- myDNSRecord -->
<g id="node2" class="node"><title>myDNSRecord</title>
<polygon fill="none" stroke="black" points="194,-108 80,-108 80,-72 194,-72 194,-108"/>
<text text-anchor="middle" x="137" y="-86.4" font-family="Times Roman,serif" font-size="14.00">myDNSRecord</text>
</g>
<!-- Ec2Instance&#45;&gt;myDNSRecord -->
<g id="edge6" class="edge"><title>Ec2Instance&#45;&gt;myDNSRecord</title>
<path fill="none" stroke="black" d="M131.048,-143.831C130.297,-136.131 130.076,-126.974 130.385,-118.417"/>
<polygon fill="black" stroke="black" points="133.879,-118.616 131.024,-108.413 126.893,-118.17 133.879,-118.616"/>
</g>
<!-- Ec2Instance&#45;&gt;myDNSRecord -->
<g id="edge14" class="edge"><title>Ec2Instance&#45;&gt;myDNSRecord</title>
<path fill="none" stroke="black" d="M142.952,-143.831C143.703,-136.131 143.924,-126.974 143.615,-118.417"/>
<polygon fill="black" stroke="black" points="147.107,-118.17 142.976,-108.413 140.121,-118.616 147.107,-118.17"/>
</g>
<!-- DomainName -->
<g id="node6" class="node"><title>DomainName</title>
<polygon fill="lightgrey" stroke="lightgrey" points="180,-36 94,-36 82,-24 82,-12 94,-1.62133e-14 180,-5.10299e-15 192,-12 192,-24 180,-36"/>
<path fill="lightgrey" stroke="lightgrey" d="M94,-36C88,-36 82,-30 82,-24"/>
<path fill="lightgrey" stroke="lightgrey" d="M82,-12C82,-6 88,-1.69884e-14 94,-1.62133e-14"/>
<path fill="lightgrey" stroke="lightgrey" d="M180,-5.10299e-15C186,-4.32785e-15 192,-6 192,-12"/>
<path fill="lightgrey" stroke="lightgrey" d="M192,-24C192,-30 186,-36 180,-36"/>
<polyline fill="none" stroke="black" points="180,-36 94,-36 "/>
<path fill="none" stroke="black" d="M94,-36C88,-36 82,-30 82,-24"/>
<polyline fill="none" stroke="black" points="82,-24 82,-12 "/>
<path fill="none" stroke="black" d="M82,-12C82,-6 88,-1.69884e-14 94,-1.62133e-14"/>
<polyline fill="none" stroke="black" points="94,-1.62133e-14 180,-5.10299e-15 "/>
<path fill="none" stroke="black" d="M180,-5.10299e-15C186,-4.32785e-15 192,-6 192,-12"/>
<polyline fill="none" stroke="black" points="192,-12 192,-24 "/>
<path fill="none" stroke="black" d="M192,-24C192,-30 186,-36 180,-36"/>
<text text-anchor="middle" x="137" y="-14.4" font-family="Times Roman,serif" font-size="14.00">DomainName</text>
</g>
<!-- myDNSRecord&#45;&gt;DomainName -->
<g id="edge16" class="edge"><title>myDNSRecord&#45;&gt;DomainName</title>
<path fill="none" stroke="black" d="M137,-71.8314C137,-64.131 137,-54.9743 137,-46.4166"/>
<polygon fill="black" stroke="black" points="140.5,-46.4132 137,-36.4133 133.5,-46.4133 140.5,-46.4132"/>
</g>
<!-- HostedZone -->
<g id="node4" class="node"><title>HostedZone</title>
<polygon fill="lightgrey" stroke="lightgrey" points="88,-324 12,-324 2.84217e-14,-312 1.42109e-14,-300 12,-288 88,-288 100,-300 100,-312 88,-324"/>
<path fill="lightgrey" stroke="lightgrey" d="M12,-324C6,-324 3.55271e-14,-318 2.84217e-14,-312"/>
<path fill="lightgrey" stroke="lightgrey" d="M1.42109e-14,-300C7.10543e-15,-294 6,-288 12,-288"/>
<path fill="lightgrey" stroke="lightgrey" d="M88,-288C94,-288 100,-294 100,-300"/>
<path fill="lightgrey" stroke="lightgrey" d="M100,-312C100,-318 94,-324 88,-324"/>
<polyline fill="none" stroke="black" points="88,-324 12,-324 "/>
<path fill="none" stroke="black" d="M12,-324C6,-324 3.55271e-14,-318 2.84217e-14,-312"/>
<polyline fill="none" stroke="black" points="2.84217e-14,-312 1.42109e-14,-300 "/>
<path fill="none" stroke="black" d="M1.42109e-14,-300C7.10543e-15,-294 6,-288 12,-288"/>
<polyline fill="none" stroke="black" points="12,-288 88,-288 "/>
<path fill="none" stroke="black" d="M88,-288C94,-288 100,-294 100,-300"/>
<polyline fill="none" stroke="black" points="100,-300 100,-312 "/>
<path fill="none" stroke="black" d="M100,-312C100,-318 94,-324 88,-324"/>
<text text-anchor="middle" x="50" y="-302.4" font-family="Times Roman,serif" font-size="14.00">HostedZone</text>
</g>
<!-- HostedZone&#45;&gt;myDNSRecord -->
<g id="edge10" class="edge"><title>HostedZone&#45;&gt;myDNSRecord</title>
<path fill="none" stroke="black" d="M43.9926,-287.747C40.2232,-256.379 43.2565,-191.08 69,-144 75.0976,-132.849 84.3773,-122.768 94.1955,-114.418"/>
<polygon fill="black" stroke="black" points="96.4856,-117.069 102.134,-108.106 92.1289,-111.59 96.4856,-117.069"/>
</g>
<!-- HostedZone&#45;&gt;myDNSRecord -->
<g id="edge12" class="edge"><title>HostedZone&#45;&gt;myDNSRecord</title>
<path fill="none" stroke="black" d="M54.8636,-287.747C58.2232,-256.379 61.2565,-191.08 87,-144 92.9769,-133.069 102.011,-123.168 110.838,-114.916"/>
<polygon fill="black" stroke="black" points="113.335,-117.379 118.46,-108.106 108.671,-112.159 113.335,-117.379"/>
</g>
<!-- AWS::Region -->
<g id="node7" class="node"><title>AWS::Region</title>
<polygon fill="none" stroke="black" points="229,-252 125,-252 125,-216 229,-216 229,-252"/>
<text text-anchor="middle" x="177" y="-230.4" font-family="Times Roman,serif" font-size="14.00">AWS::Region</text>
</g>
<!-- AWS::Region&#45;&gt;Ec2Instance -->
<g id="edge4" class="edge"><title>AWS::Region&#45;&gt;Ec2Instance</title>
<path fill="none" stroke="black" d="M166.906,-215.831C162.44,-207.792 157.093,-198.167 152.162,-189.292"/>
<polygon fill="black" stroke="black" points="155.146,-187.455 147.23,-180.413 149.027,-190.855 155.146,-187.455"/>
</g>
<!-- AWS::Region&#45;&gt;myDNSRecord -->
<g id="edge8" class="edge"><title>AWS::Region&#45;&gt;myDNSRecord</title>
<path fill="none" stroke="black" d="M187.188,-215.738C196.175,-197.061 206.362,-167.53 196,-144 191.016,-132.682 182.359,-122.703 173.187,-114.502"/>
<polygon fill="black" stroke="black" points="175.355,-111.752 165.432,-108.04 170.874,-117.13 175.355,-111.752"/>
</g>
</g>
</svg>
