<?xml version="1.0" encoding="UTF-8" standalone="no"?>
<!DOCTYPE svg PUBLIC "-//W3C//DTD SVG 1.1//EN"
 "http://www.w3.org/Graphics/SVG/1.1/DTD/svg11.dtd">
<!-- Generated by graphviz version 2.26.3 (20100126.1600)
 -->
<!-- Title: AWS CloudFormation Sample Template Route53_CNAME: Sample template showing how to create an Amazon Route 53 CNAME record. &#160;It assumes that you already have a Hosted Zone registered with Amazon Route 53. **WARNING** This template creates one or more AWS resources. You will be billed for the AWS resources used if you create a stack from this template. Pages: 1 -->
<svg width="353pt" height="260pt"
 viewBox="0.00 0.00 353.00 260.00" xmlns="http://www.w3.org/2000/svg" xmlns:xlink="http://www.w3.org/1999/xlink">
<g id="graph1" class="graph" transform="scale(1 1) rotate(0) translate(4 256)">
<title>AWS CloudFormation Sample Template Route53_CNAME: Sample template showing how to create an Amazon Route 53 CNAME record. &#160;It assumes that you already have a Hosted Zone registered with Amazon Route 53. **WARNING** This template creates one or more AWS resources. You will be billed for the AWS resources used if you create a stack from this template.</title>
<polygon fill="white" stroke="white" points="-4,5 -4,-256 350,-256 350,5 -4,5"/>
<!-- myDNSRecord -->
<g id="node1" class="node"><title>myDNSRecord</title>
<polygon fill="none" stroke="black" points="159,-108 45,-108 45,-72 159,-72 159,-108"/>
<text text-anchor="middle" x="102" y="-86.4" font-family="Times Roman,serif" font-size="14.00">myDNSRecord</text>
</g>
<!-- CNAME -->
<g id="node5" class="node"><title>CNAME</title>
<polygon fill="lightgrey" stroke="lightgrey" points="124,-36 80,-36 68,-24 68,-12 80,-1.52558e-14 124,-6.06051e-15 136,-12 136,-24 124,-36"/>
<path fill="lightgrey" stroke="lightgrey" d="M80,-36C74,-36 68,-30 68,-24"/>
<path fill="lightgrey" stroke="lightgrey" d="M68,-12C68,-6 74,-1.65097e-14 80,-1.52558e-14"/>
<path fill="lightgrey" stroke="lightgrey" d="M124,-6.06051e-15C130,-4.80661e-15 136,-6 136,-12"/>
<path fill="lightgrey" stroke="lightgrey" d="M136,-24C136,-30 130,-36 124,-36"/>
<polyline fill="none" stroke="black" points="124,-36 80,-36 "/>
<path fill="none" stroke="black" d="M80,-36C74,-36 68,-30 68,-24"/>
<polyline fill="none" stroke="black" points="68,-24 68,-12 "/>
<path fill="none" stroke="black" d="M68,-12C68,-6 74,-1.65097e-14 80,-1.52558e-14"/>
<polyline fill="none" stroke="black" points="80,-1.52558e-14 124,-6.06051e-15 "/>
<path fill="none" stroke="black" d="M124,-6.06051e-15C130,-4.80661e-15 136,-6 136,-12"/>
<polyline fill="none" stroke="black" points="136,-12 136,-24 "/>
<path fill="none" stroke="black" d="M136,-24C136,-30 130,-36 124,-36"/>
<text text-anchor="middle" x="102" y="-14.4" font-family="Times Roman,serif" font-size="14.00">CNAME</text>
</g>
<!-- myDNSRecord&#45;&gt;CNAME -->
<g id="edge12" class="edge"><title>myDNSRecord&#45;&gt;CNAME</title>
<path fill="none" stroke="black" d="M102,-71.8314C102,-64.131 102,-54.9743 102,-46.4166"/>
<polygon fill="black" stroke="black" points="105.5,-46.4132 102,-36.4133 98.5001,-46.4133 105.5,-46.4132"/>
</g>
<!-- HostedZone -->
<g id="node3" class="node"><title>HostedZone</title>
<polygon fill="lightgrey" stroke="lightgrey" points="88,-252 12,-252 2.84217e-14,-240 1.42109e-14,-228 12,-216 88,-216 100,-228 100,-240 88,-252"/>
<path fill="lightgrey" stroke="lightgrey" d="M12,-252C6,-252 3.55271e-14,-246 2.84217e-14,-240"/>
<path fill="lightgrey" stroke="lightgrey" d="M1.42109e-14,-228C7.10543e-15,-222 6,-216 12,-216"/>
<path fill="lightgrey" stroke="lightgrey" d="M88,-216C94,-216 100,-222 100,-228"/>
<path fill="lightgrey" stroke="lightgrey" d="M100,-240C100,-246 94,-252 88,-252"/>
<polyline fill="none" stroke="black" points="88,-252 12,-252 "/>
<path fill="none" stroke="black" d="M12,-252C6,-252 3.55271e-14,-246 2.84217e-14,-240"/>
<polyline fill="none" stroke="black" points="2.84217e-14,-240 1.42109e-14,-228 "/>
<path fill="none" stroke="black" d="M1.42109e-14,-228C7.10543e-15,-222 6,-216 12,-216"/>
<polyline fill="none" stroke="black" points="12,-216 88,-216 "/>
<path fill="none" stroke="black" d="M88,-216C94,-216 100,-222 100,-228"/>
<polyline fill="none" stroke="black" points="100,-228 100,-240 "/>
<path fill="none" stroke="black" d="M100,-240C100,-246 94,-252 88,-252"/>
<text text-anchor="middle" x="50" y="-230.4" font-family="Times Roman,serif" font-size="14.00">HostedZone</text>
</g>
<!-- HostedZone&#45;&gt;myDNSRecord -->
<g id="edge8" class="edge"><title>HostedZone&#45;&gt;myDNSRecord</title>
<path fill="none" stroke="black" d="M48.1664,-215.861C51.1465,-197.534 59.7787,-168.504 69,-144 72.3079,-135.21 76.3191,-125.801 80.5191,-117.34"/>
<polygon fill="black" stroke="black" points="83.7329,-118.749 85.314,-108.273 77.5449,-115.477 83.7329,-118.749"/>
</g>
<!-- HostedZone&#45;&gt;myDNSRecord -->
<g id="edge10" class="edge"><title>HostedZone&#45;&gt;myDNSRecord</title>
<path fill="none" stroke="black" d="M61.7719,-215.861C69.1465,-197.534 77.7787,-168.504 87,-144 90.2723,-135.304 94.2329,-126.003 97.5868,-117.613"/>
<polygon fill="black" stroke="black" points="100.856,-118.863 101.168,-108.273 94.3197,-116.357 100.856,-118.863"/>
</g>
<!-- AWS::StackName -->
<g id="node6" class="node"><title>AWS::StackName</title>
<polygon fill="none" stroke="black" points="223,-180 87,-180 87,-144 223,-144 223,-180"/>
<text text-anchor="middle" x="155" y="-158.4" font-family="Times Roman,serif" font-size="14.00">AWS::StackName</text>
</g>
<!-- AWS::StackName&#45;&gt;myDNSRecord -->
<g id="edge4" class="edge"><title>AWS::StackName&#45;&gt;myDNSRecord</title>
<path fill="none" stroke="black" d="M141.626,-143.831C135.584,-135.623 128.324,-125.761 121.678,-116.732"/>
<polygon fill="black" stroke="black" points="124.301,-114.392 115.554,-108.413 118.664,-118.542 124.301,-114.392"/>
</g>
<!-- AWS::Region -->
<g id="node8" class="node"><title>AWS::Region</title>
<polygon fill="none" stroke="black" points="345,-180 241,-180 241,-144 345,-144 345,-180"/>
<text text-anchor="middle" x="293" y="-158.4" font-family="Times Roman,serif" font-size="14.00">AWS::Region</text>
</g>
<!-- AWS::Region&#45;&gt;myDNSRecord -->
<g id="edge6" class="edge"><title>AWS::Region&#45;&gt;myDNSRecord</title>
<path fill="none" stroke="black" d="M244.803,-143.831C218.803,-134.031 186.546,-121.871 159.272,-111.589"/>
<polygon fill="black" stroke="black" points="160.443,-108.29 149.851,-108.038 157.973,-114.84 160.443,-108.29"/>
</g>
</g>
</svg>
