<?xml version="1.0" encoding="UTF-8" standalone="no"?>
<!DOCTYPE svg PUBLIC "-//W3C//DTD SVG 1.1//EN"
 "http://www.w3.org/Graphics/SVG/1.1/DTD/svg11.dtd">
<!-- Generated by graphviz version 2.26.3 (20100126.1600)
 -->
<!-- Title: AWS CloudFormation Sample Template S3_Bucket_With_Tags: Sample template showing how to create a publicly accessible S3 bucket that has tags. **WARNING** This template creates an S3 bucket. You will be billed for the AWS resources used if you create a stack from this template. Pages: 1 -->
<svg width="112pt" height="116pt"
 viewBox="0.00 0.00 112.00 116.00" xmlns="http://www.w3.org/2000/svg" xmlns:xlink="http://www.w3.org/1999/xlink">
<g id="graph1" class="graph" transform="scale(1 1) rotate(0) translate(4 112)">
<title>AWS CloudFormation Sample Template S3_Bucket_With_Tags: Sample template showing how to create a publicly accessible S3 bucket that has tags. **WARNING** This template creates an S3 bucket. You will be billed for the AWS resources used if you create a stack from this template.</title>
<polygon fill="white" stroke="white" points="-4,5 -4,-112 109,-112 109,5 -4,5"/>
<!-- S3Bucket -->
<g id="node1" class="node"><title>S3Bucket</title>
<polygon fill="none" stroke="black" points="93,-108 11,-108 11,-72 93,-72 93,-108"/>
<text text-anchor="middle" x="52" y="-86.4" font-family="Times Roman,serif" font-size="14.00">S3Bucket</text>
</g>
<!-- BucketName -->
<g id="node3" class="node"><title>BucketName</title>
<polygon fill="lightgrey" stroke="lightgrey" points="92,-36 12,-36 2.36848e-14,-24 1.18424e-14,-12 12,-1.61239e-14 92,-5.19243e-15 104,-12 104,-24 92,-36"/>
<path fill="lightgrey" stroke="lightgrey" d="M12,-36C6,-36 2.96059e-14,-30 2.36848e-14,-24"/>
<path fill="lightgrey" stroke="lightgrey" d="M1.18424e-14,-12C5.92119e-15,-6 6,-1.69437e-14 12,-1.61239e-14"/>
<path fill="lightgrey" stroke="lightgrey" d="M92,-5.19243e-15C98,-4.37257e-15 104,-6 104,-12"/>
<path fill="lightgrey" stroke="lightgrey" d="M104,-24C104,-30 98,-36 92,-36"/>
<polyline fill="none" stroke="black" points="92,-36 12,-36 "/>
<path fill="none" stroke="black" d="M12,-36C6,-36 2.96059e-14,-30 2.36848e-14,-24"/>
<polyline fill="none" stroke="black" points="2.36848e-14,-24 1.18424e-14,-12 "/>
<path fill="none" stroke="black" d="M1.18424e-14,-12C5.92119e-15,-6 6,-1.69437e-14 12,-1.61239e-14"/>
<polyline fill="none" stroke="black" points="12,-1.61239e-14 92,-5.19243e-15 "/>
<path fill="none" stroke="black" d="M92,-5.19243e-15C98,-4.37257e-15 104,-6 104,-12"/>
<polyline fill="none" stroke="black" points="104,-12 104,-24 "/>
<path fill="none" stroke="black" d="M104,-24C104,-30 98,-36 92,-36"/>
<text text-anchor="middle" x="52" y="-14.4" font-family="Times Roman,serif" font-size="14.00">BucketName</text>
</g>
<!-- S3Bucket&#45;&gt;BucketName -->
<g id="edge3" class="edge"><title>S3Bucket&#45;&gt;BucketName</title>
<path fill="none" stroke="black" d="M52,-71.8314C52,-64.131 52,-54.9743 52,-46.4166"/>
<polygon fill="black" stroke="black" points="55.5001,-46.4132 52,-36.4133 48.5001,-46.4133 55.5001,-46.4132"/>
</g>
</g>
</svg>
