<?xml version="1.0" encoding="UTF-8" standalone="no"?>
<!DOCTYPE svg PUBLIC "-//W3C//DTD SVG 1.1//EN"
 "http://www.w3.org/Graphics/SVG/1.1/DTD/svg11.dtd">
<!-- Generated by graphviz version 2.26.3 (20100126.1600)
 -->
<!-- Title: AWS CloudFormation Sample Template S3_Website_Bucket_With_Retain_On_Delete: Sample template showing how to create a publicly accessible S3 bucket configured for website access with a deletion policy of retail on delete. **WARNING** This template creates an S3 bucket that will NOT be deleted when the stack is deleted. You will be billed for the AWS resources used if you create a stack from this template. Pages: 1 -->
<svg width="284pt" height="116pt"
 viewBox="0.00 0.00 284.00 116.00" xmlns="http://www.w3.org/2000/svg" xmlns:xlink="http://www.w3.org/1999/xlink">
<g id="graph1" class="graph" transform="scale(1 1) rotate(0) translate(4 112)">
<title>AWS CloudFormation Sample Template S3_Website_Bucket_With_Retain_On_Delete: Sample template showing how to create a publicly accessible S3 bucket configured for website access with a deletion policy of retail on delete. **WARNING** This template creates an S3 bucket that will NOT be deleted when the stack is deleted. You will be billed for the AWS resources used if you create a stack from this template.</title>
<polygon fill="white" stroke="white" points="-4,5 -4,-112 281,-112 281,5 -4,5"/>
<!-- S3Bucket -->
<g id="node1" class="node"><title>S3Bucket</title>
<polygon fill="none" stroke="black" points="164,-108 82,-108 82,-72 164,-72 164,-108"/>
<text text-anchor="middle" x="123" y="-86.4" font-family="Times Roman,serif" font-size="14.00">S3Bucket</text>
</g>
<!-- WebsiteURL -->
<g id="node3" class="node"><title>WebsiteURL</title>
<polygon fill="lightgrey" stroke="lightgrey" points="88,-36 12,-36 2.36848e-14,-24 1.18424e-14,-12 12,-1.60583e-14 88,-5.25802e-15 100,-12 100,-24 88,-36"/>
<path fill="lightgrey" stroke="lightgrey" d="M12,-36C6,-36 2.96059e-14,-30 2.36848e-14,-24"/>
<path fill="lightgrey" stroke="lightgrey" d="M1.18424e-14,-12C5.92119e-15,-6 6,-1.69109e-14 12,-1.60583e-14"/>
<path fill="lightgrey" stroke="lightgrey" d="M88,-5.25802e-15C94,-4.40536e-15 100,-6 100,-12"/>
<path fill="lightgrey" stroke="lightgrey" d="M100,-24C100,-30 94,-36 88,-36"/>
<polyline fill="none" stroke="black" points="88,-36 12,-36 "/>
<path fill="none" stroke="black" d="M12,-36C6,-36 2.96059e-14,-30 2.36848e-14,-24"/>
<polyline fill="none" stroke="black" points="2.36848e-14,-24 1.18424e-14,-12 "/>
<path fill="none" stroke="black" d="M1.18424e-14,-12C5.92119e-15,-6 6,-1.69109e-14 12,-1.60583e-14"/>
<polyline fill="none" stroke="black" points="12,-1.60583e-14 88,-5.25802e-15 "/>
<path fill="none" stroke="black" d="M88,-5.25802e-15C94,-4.40536e-15 100,-6 100,-12"/>
<polyline fill="none" stroke="black" points="100,-12 100,-24 "/>
<path fill="none" stroke="black" d="M100,-24C100,-30 94,-36 88,-36"/>
<text text-anchor="middle" x="50" y="-14.4" font-family="Times Roman,serif" font-size="14.00">WebsiteURL</text>
</g>
<!-- S3Bucket&#45;&gt;WebsiteURL -->
<g id="edge3" class="edge"><title>S3Bucket&#45;&gt;WebsiteURL</title>
<path fill="none" stroke="black" d="M104.579,-71.8314C95.8471,-63.219 85.2683,-52.7851 75.7577,-43.4048"/>
<polygon fill="black" stroke="black" points="77.9925,-40.6931 68.4151,-36.1628 73.077,-45.6769 77.9925,-40.6931"/>
</g>
<!-- S3BucketSecureURL -->
<g id="node4" class="node"><title>S3BucketSecureURL</title>
<polygon fill="lightgrey" stroke="lightgrey" points="264,-36 130,-36 118,-24 118,-12 130,-1.66843e-14 264,-4.63202e-15 276,-12 276,-24 264,-36"/>
<path fill="lightgrey" stroke="lightgrey" d="M130,-36C124,-36 118,-30 118,-24"/>
<path fill="lightgrey" stroke="lightgrey" d="M118,-12C118,-6 124,-1.72239e-14 130,-1.66843e-14"/>
<path fill="lightgrey" stroke="lightgrey" d="M264,-4.63202e-15C270,-4.09237e-15 276,-6 276,-12"/>
<path fill="lightgrey" stroke="lightgrey" d="M276,-24C276,-30 270,-36 264,-36"/>
<polyline fill="none" stroke="black" points="264,-36 130,-36 "/>
<path fill="none" stroke="black" d="M130,-36C124,-36 118,-30 118,-24"/>
<polyline fill="none" stroke="black" points="118,-24 118,-12 "/>
<path fill="none" stroke="black" d="M118,-12C118,-6 124,-1.72239e-14 130,-1.66843e-14"/>
<polyline fill="none" stroke="black" points="130,-1.66843e-14 264,-4.63202e-15 "/>
<path fill="none" stroke="black" d="M264,-4.63202e-15C270,-4.09237e-15 276,-6 276,-12"/>
<polyline fill="none" stroke="black" points="276,-12 276,-24 "/>
<path fill="none" stroke="black" d="M276,-24C276,-30 270,-36 264,-36"/>
<text text-anchor="middle" x="197" y="-14.4" font-family="Times Roman,serif" font-size="14.00">S3BucketSecureURL</text>
</g>
<!-- S3Bucket&#45;&gt;S3BucketSecureURL -->
<g id="edge5" class="edge"><title>S3Bucket&#45;&gt;S3BucketSecureURL</title>
<path fill="none" stroke="black" d="M141.673,-71.8314C150.525,-63.219 161.249,-52.7851 170.889,-43.4048"/>
<polygon fill="black" stroke="black" points="173.606,-45.645 178.333,-36.1628 168.725,-40.6279 173.606,-45.645"/>
</g>
</g>
</svg>
