<?xml version="1.0" encoding="UTF-8" standalone="no"?>
<!DOCTYPE svg PUBLIC "-//W3C//DTD SVG 1.1//EN"
 "http://www.w3.org/Graphics/SVG/1.1/DTD/svg11.dtd">
<!-- Generated by graphviz version 2.26.3 (20100126.1600)
 -->
<!-- Title: AWS CloudFormation Sample Template S3_With_CloudFront_Distribution: Sample template showing how to create a website with a custom DNS name, hosted on Amazon S3 and served via Amazone CloudFront. It assumes you already have a Hosted Zone registered with Amazon Route 53. **WARNING** This template creates an Amazon Route 53 DNS record, an S3 bucket and a CloudFront distribution. You will be billed for the AWS resources used if you create a stack from this template. Pages: 1 -->
<svg width="623pt" height="332pt"
 viewBox="0.00 0.00 623.00 332.00" xmlns="http://www.w3.org/2000/svg" xmlns:xlink="http://www.w3.org/1999/xlink">
<g id="graph1" class="graph" transform="scale(1 1) rotate(0) translate(4 328)">
<title>AWS CloudFormation Sample Template S3_With_CloudFront_Distribution: Sample template showing how to create a website with a custom DNS name, hosted on Amazon S3 and served via Amazone CloudFront. It assumes you already have a Hosted Zone registered with Amazon Route 53. **WARNING** This template creates an Amazon Route 53 DNS record, an S3 bucket and a CloudFront distribution. You will be billed for the AWS resources used if you create a stack from this template.</title>
<polygon fill="white" stroke="white" points="-4,5 -4,-328 620,-328 620,5 -4,5"/>
<!-- S3BucketForWebsiteContent -->
<g id="node1" class="node"><title>S3BucketForWebsiteContent</title>
<polygon fill="none" stroke="black" points="615,-252 401,-252 401,-216 615,-216 615,-252"/>
<text text-anchor="middle" x="508" y="-230.4" font-family="Times Roman,serif" font-size="14.00">S3BucketForWebsiteContent</text>
</g>
<!-- WebsiteCDN -->
<g id="node3" class="node"><title>WebsiteCDN</title>
<polygon fill="none" stroke="black" points="303,-180 199,-180 199,-144 303,-144 303,-180"/>
<text text-anchor="middle" x="251" y="-158.4" font-family="Times Roman,serif" font-size="14.00">WebsiteCDN</text>
</g>
<!-- S3BucketForWebsiteContent&#45;&gt;WebsiteCDN -->
<g id="edge20" class="edge"><title>S3BucketForWebsiteContent&#45;&gt;WebsiteCDN</title>
<path fill="none" stroke="black" d="M443.48,-215.924C403.455,-204.711 352.311,-190.383 312.804,-179.315"/>
<polygon fill="black" stroke="black" points="313.598,-175.903 303.025,-176.575 311.71,-182.643 313.598,-175.903"/>
</g>
<!-- BucketName -->
<g id="node8" class="node"><title>BucketName</title>
<polygon fill="lightgrey" stroke="lightgrey" points="548,-36 468,-36 456,-24 456,-12 468,-1.61239e-14 548,-5.19243e-15 560,-12 560,-24 548,-36"/>
<path fill="lightgrey" stroke="lightgrey" d="M468,-36C462,-36 456,-30 456,-24"/>
<path fill="lightgrey" stroke="lightgrey" d="M456,-12C456,-6 462,-1.69437e-14 468,-1.61239e-14"/>
<path fill="lightgrey" stroke="lightgrey" d="M548,-5.19243e-15C554,-4.37257e-15 560,-6 560,-12"/>
<path fill="lightgrey" stroke="lightgrey" d="M560,-24C560,-30 554,-36 548,-36"/>
<polyline fill="none" stroke="black" points="548,-36 468,-36 "/>
<path fill="none" stroke="black" d="M468,-36C462,-36 456,-30 456,-24"/>
<polyline fill="none" stroke="black" points="456,-24 456,-12 "/>
<path fill="none" stroke="black" d="M456,-12C456,-6 462,-1.69437e-14 468,-1.61239e-14"/>
<polyline fill="none" stroke="black" points="468,-1.61239e-14 548,-5.19243e-15 "/>
<path fill="none" stroke="black" d="M548,-5.19243e-15C554,-4.37257e-15 560,-6 560,-12"/>
<polyline fill="none" stroke="black" points="560,-12 560,-24 "/>
<path fill="none" stroke="black" d="M560,-24C560,-30 554,-36 548,-36"/>
<text text-anchor="middle" x="508" y="-14.4" font-family="Times Roman,serif" font-size="14.00">BucketName</text>
</g>
<!-- S3BucketForWebsiteContent&#45;&gt;BucketName -->
<g id="edge26" class="edge"><title>S3BucketForWebsiteContent&#45;&gt;BucketName</title>
<path fill="none" stroke="black" d="M508,-215.955C508,-178.394 508,-91.5541 508,-46.4103"/>
<polygon fill="black" stroke="black" points="511.5,-46.145 508,-36.1451 504.5,-46.1451 511.5,-46.145"/>
</g>
<!-- WebsiteDNSName -->
<g id="node2" class="node"><title>WebsiteDNSName</title>
<polygon fill="none" stroke="black" points="226,-108 84,-108 84,-72 226,-72 226,-108"/>
<text text-anchor="middle" x="155" y="-86.4" font-family="Times Roman,serif" font-size="14.00">WebsiteDNSName</text>
</g>
<!-- WebsiteURL -->
<g id="node7" class="node"><title>WebsiteURL</title>
<polygon fill="lightgrey" stroke="lightgrey" points="193,-36 117,-36 105,-24 105,-12 117,-1.60583e-14 193,-5.25802e-15 205,-12 205,-24 193,-36"/>
<path fill="lightgrey" stroke="lightgrey" d="M117,-36C111,-36 105,-30 105,-24"/>
<path fill="lightgrey" stroke="lightgrey" d="M105,-12C105,-6 111,-1.69109e-14 117,-1.60583e-14"/>
<path fill="lightgrey" stroke="lightgrey" d="M193,-5.25802e-15C199,-4.40536e-15 205,-6 205,-12"/>
<path fill="lightgrey" stroke="lightgrey" d="M205,-24C205,-30 199,-36 193,-36"/>
<polyline fill="none" stroke="black" points="193,-36 117,-36 "/>
<path fill="none" stroke="black" d="M117,-36C111,-36 105,-30 105,-24"/>
<polyline fill="none" stroke="black" points="105,-24 105,-12 "/>
<path fill="none" stroke="black" d="M105,-12C105,-6 111,-1.69109e-14 117,-1.60583e-14"/>
<polyline fill="none" stroke="black" points="117,-1.60583e-14 193,-5.25802e-15 "/>
<path fill="none" stroke="black" d="M193,-5.25802e-15C199,-4.40536e-15 205,-6 205,-12"/>
<polyline fill="none" stroke="black" points="205,-12 205,-24 "/>
<path fill="none" stroke="black" d="M205,-24C205,-30 199,-36 193,-36"/>
<text text-anchor="middle" x="155" y="-14.4" font-family="Times Roman,serif" font-size="14.00">WebsiteURL</text>
</g>
<!-- WebsiteDNSName&#45;&gt;WebsiteURL -->
<g id="edge24" class="edge"><title>WebsiteDNSName&#45;&gt;WebsiteURL</title>
<path fill="none" stroke="black" d="M155,-71.8314C155,-64.131 155,-54.9743 155,-46.4166"/>
<polygon fill="black" stroke="black" points="158.5,-46.4132 155,-36.4133 151.5,-46.4133 158.5,-46.4132"/>
</g>
<!-- WebsiteCDN&#45;&gt;WebsiteDNSName -->
<g id="edge12" class="edge"><title>WebsiteCDN&#45;&gt;WebsiteDNSName</title>
<path fill="none" stroke="black" d="M226.775,-143.831C214.837,-134.878 200.274,-123.956 187.394,-114.295"/>
<polygon fill="black" stroke="black" points="189.317,-111.363 179.217,-108.163 185.117,-116.963 189.317,-111.363"/>
</g>
<!-- HostedZone -->
<g id="node5" class="node"><title>HostedZone</title>
<polygon fill="lightgrey" stroke="lightgrey" points="88,-324 12,-324 2.84217e-14,-312 1.42109e-14,-300 12,-288 88,-288 100,-300 100,-312 88,-324"/>
<path fill="lightgrey" stroke="lightgrey" d="M12,-324C6,-324 3.55271e-14,-318 2.84217e-14,-312"/>
<path fill="lightgrey" stroke="lightgrey" d="M1.42109e-14,-300C7.10543e-15,-294 6,-288 12,-288"/>
<path fill="lightgrey" stroke="lightgrey" d="M88,-288C94,-288 100,-294 100,-300"/>
<path fill="lightgrey" stroke="lightgrey" d="M100,-312C100,-318 94,-324 88,-324"/>
<polyline fill="none" stroke="black" points="88,-324 12,-324 "/>
<path fill="none" stroke="black" d="M12,-324C6,-324 3.55271e-14,-318 2.84217e-14,-312"/>
<polyline fill="none" stroke="black" points="2.84217e-14,-312 1.42109e-14,-300 "/>
<path fill="none" stroke="black" d="M1.42109e-14,-300C7.10543e-15,-294 6,-288 12,-288"/>
<polyline fill="none" stroke="black" points="12,-288 88,-288 "/>
<path fill="none" stroke="black" d="M88,-288C94,-288 100,-294 100,-300"/>
<polyline fill="none" stroke="black" points="100,-300 100,-312 "/>
<path fill="none" stroke="black" d="M100,-312C100,-318 94,-324 88,-324"/>
<text text-anchor="middle" x="50" y="-302.4" font-family="Times Roman,serif" font-size="14.00">HostedZone</text>
</g>
<!-- HostedZone&#45;&gt;WebsiteDNSName -->
<g id="edge8" class="edge"><title>HostedZone&#45;&gt;WebsiteDNSName</title>
<path fill="none" stroke="black" d="M47.456,-287.932C49.8616,-269.41 58.1352,-240.001 69,-216 85.4326,-179.7 110.296,-141.032 129.309,-116.252"/>
<polygon fill="black" stroke="black" points="132.056,-118.42 135.512,-108.405 126.565,-114.079 132.056,-118.42"/>
</g>
<!-- HostedZone&#45;&gt;WebsiteDNSName -->
<g id="edge10" class="edge"><title>HostedZone&#45;&gt;WebsiteDNSName</title>
<path fill="none" stroke="black" d="M60.9786,-287.932C67.8616,-269.41 76.1352,-240.001 87,-216 103.218,-180.173 127.648,-142.04 142.689,-117.229"/>
<polygon fill="black" stroke="black" points="145.836,-118.785 147.957,-108.405 139.825,-115.197 145.836,-118.785"/>
</g>
<!-- HostedZone&#45;&gt;WebsiteCDN -->
<g id="edge18" class="edge"><title>HostedZone&#45;&gt;WebsiteCDN</title>
<path fill="none" stroke="black" d="M100.043,-297.089C147.496,-287.627 214.12,-271.378 232,-252 247.168,-235.561 251.426,-210.17 252.172,-190.543"/>
<polygon fill="black" stroke="black" points="255.674,-190.359 252.272,-180.326 248.674,-190.291 255.674,-190.359"/>
</g>
<!-- AWS::StackName -->
<g id="node9" class="node"><title>AWS::StackName</title>
<polygon fill="none" stroke="black" points="223,-252 87,-252 87,-216 223,-216 223,-252"/>
<text text-anchor="middle" x="155" y="-230.4" font-family="Times Roman,serif" font-size="14.00">AWS::StackName</text>
</g>
<!-- AWS::StackName&#45;&gt;WebsiteDNSName -->
<g id="edge4" class="edge"><title>AWS::StackName&#45;&gt;WebsiteDNSName</title>
<path fill="none" stroke="black" d="M155,-215.762C155,-191.201 155,-147.247 155,-118.354"/>
<polygon fill="black" stroke="black" points="158.5,-118.09 155,-108.09 151.5,-118.09 158.5,-118.09"/>
</g>
<!-- AWS::StackName&#45;&gt;WebsiteCDN -->
<g id="edge14" class="edge"><title>AWS::StackName&#45;&gt;WebsiteCDN</title>
<path fill="none" stroke="black" d="M179.225,-215.831C191.163,-206.878 205.726,-195.956 218.606,-186.295"/>
<polygon fill="black" stroke="black" points="220.883,-188.963 226.783,-180.163 216.683,-183.363 220.883,-188.963"/>
</g>
<!-- AWS::Region -->
<g id="node11" class="node"><title>AWS::Region</title>
<polygon fill="none" stroke="black" points="383,-252 279,-252 279,-216 383,-216 383,-252"/>
<text text-anchor="middle" x="331" y="-230.4" font-family="Times Roman,serif" font-size="14.00">AWS::Region</text>
</g>
<!-- AWS::Region&#45;&gt;WebsiteDNSName -->
<g id="edge6" class="edge"><title>AWS::Region&#45;&gt;WebsiteDNSName</title>
<path fill="none" stroke="black" d="M332.115,-215.815C332.332,-195.809 329.555,-163.863 312,-144 301.055,-131.616 268.41,-119.491 235.703,-109.877"/>
<polygon fill="black" stroke="black" points="236.614,-106.498 226.036,-107.106 234.685,-113.227 236.614,-106.498"/>
</g>
<!-- AWS::Region&#45;&gt;WebsiteCDN -->
<g id="edge16" class="edge"><title>AWS::Region&#45;&gt;WebsiteCDN</title>
<path fill="none" stroke="black" d="M304.86,-215.831C294.349,-207.134 282.448,-196.578 272.45,-187.127"/>
<polygon fill="black" stroke="black" points="274.857,-184.585 265.229,-180.163 269.997,-189.624 274.857,-184.585"/>
</g>
<!-- AWS::Region&#45;&gt;WebsiteCDN -->
<g id="edge22" class="edge"><title>AWS::Region&#45;&gt;WebsiteCDN</title>
<path fill="none" stroke="black" d="M316.765,-215.831C307.862,-207.048 296.166,-196.371 285.063,-186.849"/>
<polygon fill="black" stroke="black" points="287.034,-183.933 277.133,-180.163 282.522,-189.284 287.034,-183.933"/>
</g>
</g>
</svg>
