<?xml version="1.0" encoding="UTF-8" standalone="no"?>
<!DOCTYPE svg PUBLIC "-//W3C//DTD SVG 1.1//EN"
 "http://www.w3.org/Graphics/SVG/1.1/DTD/svg11.dtd">
<!-- Generated by graphviz version 2.26.3 (20100126.1600)
 -->
<!-- Title: AWS CloudFormation Sample Template S3Bucket_Auth_2: Simple test template showing how to get a file from a private S3 bucket onto an EC2 instance using authenticated GetObject requests. In this template the credentials to use to authenticate for the S3 bucket are defined in the files section. **WARNING** This template creates an Amazon EC2 instance. You will be billed for the AWS resources used if you create a stack from this template. Pages: 1 -->
<svg width="776pt" height="332pt"
 viewBox="0.00 0.00 776.00 332.00" xmlns="http://www.w3.org/2000/svg" xmlns:xlink="http://www.w3.org/1999/xlink">
<g id="graph1" class="graph" transform="scale(1 1) rotate(0) translate(4 328)">
<title>AWS CloudFormation Sample Template S3Bucket_Auth_2: Simple test template showing how to get a file from a private S3 bucket onto an EC2 instance using authenticated GetObject requests. In this template the credentials to use to authenticate for the S3 bucket are defined in the files section. **WARNING** This template creates an Amazon EC2 instance. You will be billed for the AWS resources used if you create a stack from this template.</title>
<polygon fill="white" stroke="white" points="-4,5 -4,-328 773,-328 773,5 -4,5"/>
<!-- CfnKeys -->
<g id="node1" class="node"><title>CfnKeys</title>
<polygon fill="none" stroke="black" points="407,-180 337,-180 337,-144 407,-144 407,-180"/>
<text text-anchor="middle" x="372" y="-158.4" font-family="Times Roman,serif" font-size="14.00">CfnKeys</text>
</g>
<!-- WebServer -->
<g id="node3" class="node"><title>WebServer</title>
<polygon fill="none" stroke="black" points="418,-108 326,-108 326,-72 418,-72 418,-108"/>
<text text-anchor="middle" x="372" y="-86.4" font-family="Times Roman,serif" font-size="14.00">WebServer</text>
</g>
<!-- CfnKeys&#45;&gt;WebServer -->
<g id="edge8" class="edge"><title>CfnKeys&#45;&gt;WebServer</title>
<path fill="none" stroke="black" d="M366.048,-143.831C365.297,-136.131 365.076,-126.974 365.385,-118.417"/>
<polygon fill="black" stroke="black" points="368.879,-118.616 366.024,-108.413 361.893,-118.17 368.879,-118.616"/>
</g>
<!-- CfnKeys&#45;&gt;WebServer -->
<g id="edge10" class="edge"><title>CfnKeys&#45;&gt;WebServer</title>
<path fill="none" stroke="black" d="M377.952,-143.831C378.703,-136.131 378.924,-126.974 378.615,-118.417"/>
<polygon fill="black" stroke="black" points="382.107,-118.17 377.976,-108.413 375.121,-118.616 382.107,-118.17"/>
</g>
<!-- CfnUser -->
<g id="node2" class="node"><title>CfnUser</title>
<polygon fill="none" stroke="black" points="362,-252 292,-252 292,-216 362,-216 362,-252"/>
<text text-anchor="middle" x="327" y="-230.4" font-family="Times Roman,serif" font-size="14.00">CfnUser</text>
</g>
<!-- CfnUser&#45;&gt;CfnKeys -->
<g id="edge4" class="edge"><title>CfnUser&#45;&gt;CfnKeys</title>
<path fill="none" stroke="black" d="M338.355,-215.831C343.433,-207.708 349.523,-197.964 355.118,-189.012"/>
<polygon fill="black" stroke="black" points="358.16,-190.748 360.492,-180.413 352.224,-187.038 358.16,-190.748"/>
</g>
<!-- BucketPolicy -->
<g id="node6" class="node"><title>BucketPolicy</title>
<polygon fill="none" stroke="black" points="319,-180 217,-180 217,-144 319,-144 319,-180"/>
<text text-anchor="middle" x="268" y="-158.4" font-family="Times Roman,serif" font-size="14.00">BucketPolicy</text>
</g>
<!-- CfnUser&#45;&gt;BucketPolicy -->
<g id="edge32" class="edge"><title>CfnUser&#45;&gt;BucketPolicy</title>
<path fill="none" stroke="black" d="M312.112,-215.831C305.247,-207.454 296.97,-197.353 289.449,-188.175"/>
<polygon fill="black" stroke="black" points="292.134,-185.93 283.089,-180.413 286.72,-190.366 292.134,-185.93"/>
</g>
<!-- WebsiteURL -->
<g id="node14" class="node"><title>WebsiteURL</title>
<polygon fill="lightgrey" stroke="lightgrey" points="410,-36 334,-36 322,-24 322,-12 334,-1.60583e-14 410,-5.25802e-15 422,-12 422,-24 410,-36"/>
<path fill="lightgrey" stroke="lightgrey" d="M334,-36C328,-36 322,-30 322,-24"/>
<path fill="lightgrey" stroke="lightgrey" d="M322,-12C322,-6 328,-1.69109e-14 334,-1.60583e-14"/>
<path fill="lightgrey" stroke="lightgrey" d="M410,-5.25802e-15C416,-4.40536e-15 422,-6 422,-12"/>
<path fill="lightgrey" stroke="lightgrey" d="M422,-24C422,-30 416,-36 410,-36"/>
<polyline fill="none" stroke="black" points="410,-36 334,-36 "/>
<path fill="none" stroke="black" d="M334,-36C328,-36 322,-30 322,-24"/>
<polyline fill="none" stroke="black" points="322,-24 322,-12 "/>
<path fill="none" stroke="black" d="M322,-12C322,-6 328,-1.69109e-14 334,-1.60583e-14"/>
<polyline fill="none" stroke="black" points="334,-1.60583e-14 410,-5.25802e-15 "/>
<path fill="none" stroke="black" d="M410,-5.25802e-15C416,-4.40536e-15 422,-6 422,-12"/>
<polyline fill="none" stroke="black" points="422,-12 422,-24 "/>
<path fill="none" stroke="black" d="M422,-24C422,-30 416,-36 410,-36"/>
<text text-anchor="middle" x="372" y="-14.4" font-family="Times Roman,serif" font-size="14.00">WebsiteURL</text>
</g>
<!-- WebServer&#45;&gt;WebsiteURL -->
<g id="edge38" class="edge"><title>WebServer&#45;&gt;WebsiteURL</title>
<path fill="none" stroke="black" d="M372,-71.8314C372,-64.131 372,-54.9743 372,-46.4166"/>
<polygon fill="black" stroke="black" points="375.5,-46.4132 372,-36.4133 368.5,-46.4133 375.5,-46.4132"/>
</g>
<!-- WebServerSecurityGroup -->
<g id="node4" class="node"><title>WebServerSecurityGroup</title>
<polygon fill="none" stroke="black" points="700,-252 508,-252 508,-216 700,-216 700,-252"/>
<text text-anchor="middle" x="604" y="-230.4" font-family="Times Roman,serif" font-size="14.00">WebServerSecurityGroup</text>
</g>
<!-- WebServerSecurityGroup&#45;&gt;WebServer -->
<g id="edge20" class="edge"><title>WebServerSecurityGroup&#45;&gt;WebServer</title>
<path fill="none" stroke="black" d="M603.355,-215.785C601.636,-195.445 595.733,-162.905 576,-144 554.937,-123.821 481.148,-107.852 428.375,-98.6636"/>
<polygon fill="black" stroke="black" points="428.899,-95.2025 418.453,-96.9722 427.723,-102.103 428.899,-95.2025"/>
</g>
<!-- WaitCondition -->
<g id="node5" class="node"><title>WaitCondition</title>
<polygon fill="none" stroke="black" points="114,-108 4.9738e-14,-108 0,-72 114,-72 114,-108"/>
<text text-anchor="middle" x="57" y="-86.4" font-family="Times Roman,serif" font-size="14.00">WaitCondition</text>
</g>
<!-- WaitHandle -->
<g id="node7" class="node"><title>WaitHandle</title>
<polygon fill="none" stroke="black" points="105,-180 9,-180 9,-144 105,-144 105,-180"/>
<text text-anchor="middle" x="57" y="-158.4" font-family="Times Roman,serif" font-size="14.00">WaitHandle</text>
</g>
<!-- WaitHandle&#45;&gt;WebServer -->
<g id="edge16" class="edge"><title>WaitHandle&#45;&gt;WebServer</title>
<path fill="none" stroke="black" d="M105.308,-147.609C109.924,-146.345 114.543,-145.121 119,-144 186.172,-127.104 264.228,-110.968 315.678,-100.808"/>
<polygon fill="black" stroke="black" points="316.465,-104.22 325.602,-98.8572 315.114,-97.3518 316.465,-104.22"/>
</g>
<!-- WaitHandle&#45;&gt;WaitCondition -->
<g id="edge30" class="edge"><title>WaitHandle&#45;&gt;WaitCondition</title>
<path fill="none" stroke="black" d="M57,-143.831C57,-136.131 57,-126.974 57,-118.417"/>
<polygon fill="black" stroke="black" points="60.5001,-118.413 57,-108.413 53.5001,-118.413 60.5001,-118.413"/>
</g>
<!-- SSHLocation -->
<g id="node9" class="node"><title>SSHLocation</title>
<polygon fill="lightgrey" stroke="lightgrey" points="644,-324 564,-324 552,-312 552,-300 564,-288 644,-288 656,-300 656,-312 644,-324"/>
<path fill="lightgrey" stroke="lightgrey" d="M564,-324C558,-324 552,-318 552,-312"/>
<path fill="lightgrey" stroke="lightgrey" d="M552,-300C552,-294 558,-288 564,-288"/>
<path fill="lightgrey" stroke="lightgrey" d="M644,-288C650,-288 656,-294 656,-300"/>
<path fill="lightgrey" stroke="lightgrey" d="M656,-312C656,-318 650,-324 644,-324"/>
<polyline fill="none" stroke="black" points="644,-324 564,-324 "/>
<path fill="none" stroke="black" d="M564,-324C558,-324 552,-318 552,-312"/>
<polyline fill="none" stroke="black" points="552,-312 552,-300 "/>
<path fill="none" stroke="black" d="M552,-300C552,-294 558,-288 564,-288"/>
<polyline fill="none" stroke="black" points="564,-288 644,-288 "/>
<path fill="none" stroke="black" d="M644,-288C650,-288 656,-294 656,-300"/>
<polyline fill="none" stroke="black" points="656,-300 656,-312 "/>
<path fill="none" stroke="black" d="M656,-312C656,-318 650,-324 644,-324"/>
<text text-anchor="middle" x="604" y="-302.4" font-family="Times Roman,serif" font-size="14.00">SSHLocation</text>
</g>
<!-- SSHLocation&#45;&gt;WebServerSecurityGroup -->
<g id="edge28" class="edge"><title>SSHLocation&#45;&gt;WebServerSecurityGroup</title>
<path fill="none" stroke="black" d="M604,-287.831C604,-280.131 604,-270.974 604,-262.417"/>
<polygon fill="black" stroke="black" points="607.5,-262.413 604,-252.413 600.5,-262.413 607.5,-262.413"/>
</g>
<!-- KeyName -->
<g id="node10" class="node"><title>KeyName</title>
<polygon fill="lightgrey" stroke="lightgrey" points="756,-324 700,-324 688,-312 688,-300 700,-288 756,-288 768,-300 768,-312 756,-324"/>
<path fill="lightgrey" stroke="lightgrey" d="M700,-324C694,-324 688,-318 688,-312"/>
<path fill="lightgrey" stroke="lightgrey" d="M688,-300C688,-294 694,-288 700,-288"/>
<path fill="lightgrey" stroke="lightgrey" d="M756,-288C762,-288 768,-294 768,-300"/>
<path fill="lightgrey" stroke="lightgrey" d="M768,-312C768,-318 762,-324 756,-324"/>
<polyline fill="none" stroke="black" points="756,-324 700,-324 "/>
<path fill="none" stroke="black" d="M700,-324C694,-324 688,-318 688,-312"/>
<polyline fill="none" stroke="black" points="688,-312 688,-300 "/>
<path fill="none" stroke="black" d="M688,-300C688,-294 694,-288 700,-288"/>
<polyline fill="none" stroke="black" points="700,-288 756,-288 "/>
<path fill="none" stroke="black" d="M756,-288C762,-288 768,-294 768,-300"/>
<polyline fill="none" stroke="black" points="768,-300 768,-312 "/>
<path fill="none" stroke="black" d="M768,-312C768,-318 762,-324 756,-324"/>
<text text-anchor="middle" x="728" y="-302.4" font-family="Times Roman,serif" font-size="14.00">KeyName</text>
</g>
<!-- KeyName&#45;&gt;WebServer -->
<g id="edge18" class="edge"><title>KeyName&#45;&gt;WebServer</title>
<path fill="none" stroke="black" d="M728.111,-287.873C727.388,-268.498 723.735,-237.652 709,-216 676.335,-168.001 653.29,-167.045 600,-144 543.997,-119.782 475.348,-105.405 428.098,-97.6516"/>
<polygon fill="black" stroke="black" points="428.483,-94.1688 418.057,-96.0506 427.381,-101.082 428.483,-94.1688"/>
</g>
<!-- InstanceType -->
<g id="node11" class="node"><title>InstanceType</title>
<polygon fill="lightgrey" stroke="lightgrey" points="173,-324 91,-324 79,-312 79,-300 91,-288 173,-288 185,-300 185,-312 173,-324"/>
<path fill="lightgrey" stroke="lightgrey" d="M91,-324C85,-324 79,-318 79,-312"/>
<path fill="lightgrey" stroke="lightgrey" d="M79,-300C79,-294 85,-288 91,-288"/>
<path fill="lightgrey" stroke="lightgrey" d="M173,-288C179,-288 185,-294 185,-300"/>
<path fill="lightgrey" stroke="lightgrey" d="M185,-312C185,-318 179,-324 173,-324"/>
<polyline fill="none" stroke="black" points="173,-324 91,-324 "/>
<path fill="none" stroke="black" d="M91,-324C85,-324 79,-318 79,-312"/>
<polyline fill="none" stroke="black" points="79,-312 79,-300 "/>
<path fill="none" stroke="black" d="M79,-300C79,-294 85,-288 91,-288"/>
<polyline fill="none" stroke="black" points="91,-288 173,-288 "/>
<path fill="none" stroke="black" d="M173,-288C179,-288 185,-294 185,-300"/>
<polyline fill="none" stroke="black" points="185,-300 185,-312 "/>
<path fill="none" stroke="black" d="M185,-312C185,-318 179,-324 173,-324"/>
<text text-anchor="middle" x="132" y="-302.4" font-family="Times Roman,serif" font-size="14.00">InstanceType</text>
</g>
<!-- InstanceType&#45;&gt;WebServer -->
<g id="edge26" class="edge"><title>InstanceType&#45;&gt;WebServer</title>
<path fill="none" stroke="black" d="M128.427,-287.816C128.683,-254.458 141.963,-183.306 184,-144 202.87,-126.356 267.479,-109.776 315.815,-99.7585"/>
<polygon fill="black" stroke="black" points="316.754,-103.139 325.86,-97.7225 315.364,-96.2788 316.754,-103.139"/>
</g>
<!-- InstanceType&#45;&gt;WebServer -->
<g id="edge22" class="edge"><title>InstanceType&#45;&gt;WebServer</title>
<path fill="none" stroke="black" d="M138.893,-287.816C146.683,-254.458 159.963,-183.306 202,-144 219.047,-128.06 273.422,-112.99 316.215,-102.841"/>
<polygon fill="black" stroke="black" points="317.039,-106.243 325.981,-100.561 315.447,-99.426 317.039,-106.243"/>
</g>
<!-- BucketName -->
<g id="node12" class="node"><title>BucketName</title>
<polygon fill="lightgrey" stroke="lightgrey" points="295,-324 215,-324 203,-312 203,-300 215,-288 295,-288 307,-300 307,-312 295,-324"/>
<path fill="lightgrey" stroke="lightgrey" d="M215,-324C209,-324 203,-318 203,-312"/>
<path fill="lightgrey" stroke="lightgrey" d="M203,-300C203,-294 209,-288 215,-288"/>
<path fill="lightgrey" stroke="lightgrey" d="M295,-288C301,-288 307,-294 307,-300"/>
<path fill="lightgrey" stroke="lightgrey" d="M307,-312C307,-318 301,-324 295,-324"/>
<polyline fill="none" stroke="black" points="295,-324 215,-324 "/>
<path fill="none" stroke="black" d="M215,-324C209,-324 203,-318 203,-312"/>
<polyline fill="none" stroke="black" points="203,-312 203,-300 "/>
<path fill="none" stroke="black" d="M203,-300C203,-294 209,-288 215,-288"/>
<polyline fill="none" stroke="black" points="215,-288 295,-288 "/>
<path fill="none" stroke="black" d="M295,-288C301,-288 307,-294 307,-300"/>
<polyline fill="none" stroke="black" points="307,-300 307,-312 "/>
<path fill="none" stroke="black" d="M307,-312C307,-318 301,-324 295,-324"/>
<text text-anchor="middle" x="255" y="-302.4" font-family="Times Roman,serif" font-size="14.00">BucketName</text>
</g>
<!-- BucketName&#45;&gt;WebServer -->
<g id="edge6" class="edge"><title>BucketName&#45;&gt;WebServer</title>
<path fill="none" stroke="black" d="M240.548,-287.986C216.853,-256.126 175.469,-188.96 208,-144 220.973,-126.07 273.544,-110.858 315.716,-101.194"/>
<polygon fill="black" stroke="black" points="316.636,-104.575 325.632,-98.9783 315.11,-97.7433 316.636,-104.575"/>
</g>
<!-- BucketName&#45;&gt;BucketPolicy -->
<g id="edge34" class="edge"><title>BucketName&#45;&gt;BucketPolicy</title>
<path fill="none" stroke="black" d="M251.973,-287.762C251.73,-263.093 255.457,-218.86 260.003,-189.973"/>
<polygon fill="black" stroke="black" points="263.457,-190.539 261.709,-180.09 256.559,-189.349 263.457,-190.539"/>
</g>
<!-- BucketName&#45;&gt;BucketPolicy -->
<g id="edge36" class="edge"><title>BucketName&#45;&gt;BucketPolicy</title>
<path fill="none" stroke="black" d="M261.32,-287.762C265.997,-263.201 270.24,-219.247 270.938,-190.354"/>
<polygon fill="black" stroke="black" points="274.44,-190.119 271.025,-180.09 267.44,-190.059 274.44,-190.119"/>
</g>
<!-- AWS::StackId -->
<g id="node19" class="node"><title>AWS::StackId</title>
<polygon fill="none" stroke="black" points="490,-252 380,-252 380,-216 490,-216 490,-252"/>
<text text-anchor="middle" x="435" y="-230.4" font-family="Times Roman,serif" font-size="14.00">AWS::StackId</text>
</g>
<!-- AWS::StackId&#45;&gt;WebServer -->
<g id="edge12" class="edge"><title>AWS::StackId&#45;&gt;WebServer</title>
<path fill="none" stroke="black" d="M433.709,-215.949C431.802,-197.182 427.157,-167.341 416,-144 411.257,-134.078 404.332,-124.391 397.373,-116.024"/>
<polygon fill="black" stroke="black" points="399.972,-113.679 390.761,-108.442 394.696,-118.28 399.972,-113.679"/>
</g>
<!-- AWS::Region -->
<g id="node21" class="node"><title>AWS::Region</title>
<polygon fill="none" stroke="black" points="567,-180 463,-180 463,-144 567,-144 567,-180"/>
<text text-anchor="middle" x="515" y="-158.4" font-family="Times Roman,serif" font-size="14.00">AWS::Region</text>
</g>
<!-- AWS::Region&#45;&gt;WebServer -->
<g id="edge24" class="edge"><title>AWS::Region&#45;&gt;WebServer</title>
<path fill="none" stroke="black" d="M472.963,-143.831C453.419,-134.452 430.37,-122.911 411.193,-112.924"/>
<polygon fill="black" stroke="black" points="412.603,-109.712 402.122,-108.163 409.349,-115.91 412.603,-109.712"/>
</g>
<!-- AWS::Region&#45;&gt;WebServer -->
<g id="edge14" class="edge"><title>AWS::Region&#45;&gt;WebServer</title>
<path fill="none" stroke="black" d="M484.867,-143.831C466.842,-134.287 443.561,-122.506 422.794,-112.401"/>
<polygon fill="black" stroke="black" points="424.292,-109.238 413.765,-108.038 421.246,-115.541 424.292,-109.238"/>
</g>
</g>
</svg>
