<?xml version="1.0" encoding="UTF-8" standalone="no"?>
<!DOCTYPE svg PUBLIC "-//W3C//DTD SVG 1.1//EN"
 "http://www.w3.org/Graphics/SVG/1.1/DTD/svg11.dtd">
<!-- Generated by graphviz version 2.26.3 (20100126.1600)
 -->
<!-- Title: AWS CloudFormation Sample Template SampleRailsApp: This sample template shows how to use AWS CloudFormation with the Amazon Linux AMI Cloud&#45;init feature to instantiate an application at runtime. The sample uses the WaitCondition resource to synchronize creation of the stack with the application becoming healthy. **WARNING** This template creates an Amazon EC2 instance and an Elastic IP Address. You will be billed for the AWS resources used if you create a stack from this template. Pages: 1 -->
<svg width="568pt" height="260pt"
 viewBox="0.00 0.00 568.00 260.00" xmlns="http://www.w3.org/2000/svg" xmlns:xlink="http://www.w3.org/1999/xlink">
<g id="graph1" class="graph" transform="scale(1 1) rotate(0) translate(4 256)">
<title>AWS CloudFormation Sample Template SampleRailsApp: This sample template shows how to use AWS CloudFormation with the Amazon Linux AMI Cloud&#45;init feature to instantiate an application at runtime. The sample uses the WaitCondition resource to synchronize creation of the stack with the application becoming healthy. **WARNING** This template creates an Amazon EC2 instance and an Elastic IP Address. You will be billed for the AWS resources used if you create a stack from this template.</title>
<polygon fill="white" stroke="white" points="-4,5 -4,-256 565,-256 565,5 -4,5"/>
<!-- InstanceSecurityGroup -->
<g id="node1" class="node"><title>InstanceSecurityGroup</title>
<polygon fill="none" stroke="black" points="174,-180 8.52651e-14,-180 0,-144 174,-144 174,-180"/>
<text text-anchor="middle" x="87" y="-158.4" font-family="Times Roman,serif" font-size="14.00">InstanceSecurityGroup</text>
</g>
<!-- Ec2Instance -->
<g id="node3" class="node"><title>Ec2Instance</title>
<polygon fill="none" stroke="black" points="292,-108 192,-108 192,-72 292,-72 292,-108"/>
<text text-anchor="middle" x="242" y="-86.4" font-family="Times Roman,serif" font-size="14.00">Ec2Instance</text>
</g>
<!-- InstanceSecurityGroup&#45;&gt;Ec2Instance -->
<g id="edge10" class="edge"><title>InstanceSecurityGroup&#45;&gt;Ec2Instance</title>
<path fill="none" stroke="black" d="M126.113,-143.831C146.751,-134.245 172.248,-122.401 194.067,-112.266"/>
<polygon fill="black" stroke="black" points="195.573,-115.425 203.168,-108.038 192.624,-109.077 195.573,-115.425"/>
</g>
<!-- WaitForInstance -->
<g id="node2" class="node"><title>WaitForInstance</title>
<polygon fill="none" stroke="black" points="520,-108 392,-108 392,-72 520,-72 520,-108"/>
<text text-anchor="middle" x="456" y="-86.4" font-family="Times Roman,serif" font-size="14.00">WaitForInstance</text>
</g>
<!-- WebsiteURL -->
<g id="node8" class="node"><title>WebsiteURL</title>
<polygon fill="lightgrey" stroke="lightgrey" points="280,-36 204,-36 192,-24 192,-12 204,-1.60583e-14 280,-5.25802e-15 292,-12 292,-24 280,-36"/>
<path fill="lightgrey" stroke="lightgrey" d="M204,-36C198,-36 192,-30 192,-24"/>
<path fill="lightgrey" stroke="lightgrey" d="M192,-12C192,-6 198,-1.69109e-14 204,-1.60583e-14"/>
<path fill="lightgrey" stroke="lightgrey" d="M280,-5.25802e-15C286,-4.40536e-15 292,-6 292,-12"/>
<path fill="lightgrey" stroke="lightgrey" d="M292,-24C292,-30 286,-36 280,-36"/>
<polyline fill="none" stroke="black" points="280,-36 204,-36 "/>
<path fill="none" stroke="black" d="M204,-36C198,-36 192,-30 192,-24"/>
<polyline fill="none" stroke="black" points="192,-24 192,-12 "/>
<path fill="none" stroke="black" d="M192,-12C192,-6 198,-1.69109e-14 204,-1.60583e-14"/>
<polyline fill="none" stroke="black" points="204,-1.60583e-14 280,-5.25802e-15 "/>
<path fill="none" stroke="black" d="M280,-5.25802e-15C286,-4.40536e-15 292,-6 292,-12"/>
<polyline fill="none" stroke="black" points="292,-12 292,-24 "/>
<path fill="none" stroke="black" d="M292,-24C292,-30 286,-36 280,-36"/>
<text text-anchor="middle" x="242" y="-14.4" font-family="Times Roman,serif" font-size="14.00">WebsiteURL</text>
</g>
<!-- Ec2Instance&#45;&gt;WebsiteURL -->
<g id="edge14" class="edge"><title>Ec2Instance&#45;&gt;WebsiteURL</title>
<path fill="none" stroke="black" d="M242,-71.8314C242,-64.131 242,-54.9743 242,-46.4166"/>
<polygon fill="black" stroke="black" points="245.5,-46.4132 242,-36.4133 238.5,-46.4133 245.5,-46.4132"/>
</g>
<!-- WaitForInstanceWaitHandle -->
<g id="node4" class="node"><title>WaitForInstanceWaitHandle</title>
<polygon fill="none" stroke="black" points="560,-180 352,-180 352,-144 560,-144 560,-180"/>
<text text-anchor="middle" x="456" y="-158.4" font-family="Times Roman,serif" font-size="14.00">WaitForInstanceWaitHandle</text>
</g>
<!-- WaitForInstanceWaitHandle&#45;&gt;WaitForInstance -->
<g id="edge4" class="edge"><title>WaitForInstanceWaitHandle&#45;&gt;WaitForInstance</title>
<path fill="none" stroke="black" d="M456,-143.831C456,-136.131 456,-126.974 456,-118.417"/>
<polygon fill="black" stroke="black" points="459.5,-118.413 456,-108.413 452.5,-118.413 459.5,-118.413"/>
</g>
<!-- WaitForInstanceWaitHandle&#45;&gt;Ec2Instance -->
<g id="edge6" class="edge"><title>WaitForInstanceWaitHandle&#45;&gt;Ec2Instance</title>
<path fill="none" stroke="black" d="M402.275,-143.924C371.644,-133.618 333.192,-120.681 301.629,-110.062"/>
<polygon fill="black" stroke="black" points="302.666,-106.718 292.072,-106.847 300.433,-113.353 302.666,-106.718"/>
</g>
<!-- KeyName -->
<g id="node6" class="node"><title>KeyName</title>
<polygon fill="lightgrey" stroke="lightgrey" points="230,-252 174,-252 162,-240 162,-228 174,-216 230,-216 242,-228 242,-240 230,-252"/>
<path fill="lightgrey" stroke="lightgrey" d="M174,-252C168,-252 162,-246 162,-240"/>
<path fill="lightgrey" stroke="lightgrey" d="M162,-228C162,-222 168,-216 174,-216"/>
<path fill="lightgrey" stroke="lightgrey" d="M230,-216C236,-216 242,-222 242,-228"/>
<path fill="lightgrey" stroke="lightgrey" d="M242,-240C242,-246 236,-252 230,-252"/>
<polyline fill="none" stroke="black" points="230,-252 174,-252 "/>
<path fill="none" stroke="black" d="M174,-252C168,-252 162,-246 162,-240"/>
<polyline fill="none" stroke="black" points="162,-240 162,-228 "/>
<path fill="none" stroke="black" d="M162,-228C162,-222 168,-216 174,-216"/>
<polyline fill="none" stroke="black" points="174,-216 230,-216 "/>
<path fill="none" stroke="black" d="M230,-216C236,-216 242,-222 242,-228"/>
<polyline fill="none" stroke="black" points="242,-228 242,-240 "/>
<path fill="none" stroke="black" d="M242,-240C242,-246 236,-252 230,-252"/>
<text text-anchor="middle" x="202" y="-230.4" font-family="Times Roman,serif" font-size="14.00">KeyName</text>
</g>
<!-- KeyName&#45;&gt;Ec2Instance -->
<g id="edge8" class="edge"><title>KeyName&#45;&gt;Ec2Instance</title>
<path fill="none" stroke="black" d="M204.935,-215.854C208.108,-197.522 213.707,-168.488 221,-144 223.6,-135.269 226.989,-125.958 230.283,-117.569"/>
<polygon fill="black" stroke="black" points="233.553,-118.819 234.053,-108.236 227.062,-116.197 233.553,-118.819"/>
</g>
<!-- AWS::Region -->
<g id="node13" class="node"><title>AWS::Region</title>
<polygon fill="none" stroke="black" points="334,-180 230,-180 230,-144 334,-144 334,-180"/>
<text text-anchor="middle" x="282" y="-158.4" font-family="Times Roman,serif" font-size="14.00">AWS::Region</text>
</g>
<!-- AWS::Region&#45;&gt;Ec2Instance -->
<g id="edge12" class="edge"><title>AWS::Region&#45;&gt;Ec2Instance</title>
<path fill="none" stroke="black" d="M271.906,-143.831C267.44,-135.792 262.093,-126.167 257.162,-117.292"/>
<polygon fill="black" stroke="black" points="260.146,-115.455 252.23,-108.413 254.027,-118.855 260.146,-115.455"/>
</g>
</g>
</svg>
