<?xml version="1.0" encoding="UTF-8" standalone="no"?>
<!DOCTYPE svg PUBLIC "-//W3C//DTD SVG 1.1//EN"
 "http://www.w3.org/Graphics/SVG/1.1/DTD/svg11.dtd">
<!-- Generated by graphviz version 2.26.3 (20100126.1600)
 -->
<!-- Title: This Template creates an SNS topic that can send messages to two SQS queues with appropriate permissions for one IAM user to publish to the topic and another to read messages from the queues. MySNSTopic is set up to publish to two subscribed endpoints, which are two SQS queues (MyQueue1 and MyQueue2). MyPublishUser is an IAM user that can publish to MySNSTopic using the Publish API. MyTopicPolicy assigns that permission to MyPublishUser. MyQueueUser is an IAM user that can read messages from the two SQS queues. MyQueuePolicy assigns those permissions to MyQueueUser. It also assigns permission for MySNSTopic to publish its notifications to the two queues. The template creates access keys for the two IAM users with MyPublishUserKey and MyQueueUserKey. &#160;Note that you will be billed for the AWS resources used if you create a stack from this template. Pages: 1 -->
<svg width="1127pt" height="404pt"
 viewBox="0.00 0.00 1127.00 404.00" xmlns="http://www.w3.org/2000/svg" xmlns:xlink="http://www.w3.org/1999/xlink">
<g id="graph1" class="graph" transform="scale(1 1) rotate(0) translate(4 400)">
<title>This Template creates an SNS topic that can send messages to two SQS queues with appropriate permissions for one IAM user to publish to the topic and another to read messages from the queues. MySNSTopic is set up to publish to two subscribed endpoints, which are two SQS queues (MyQueue1 and MyQueue2). MyPublishUser is an IAM user that can publish to MySNSTopic using the Publish API. MyTopicPolicy assigns that permission to MyPublishUser. MyQueueUser is an IAM user that can read messages from the two SQS queues. MyQueuePolicy assigns those permissions to MyQueueUser. It also assigns permission for MySNSTopic to publish its notifications to the two queues. The template creates access keys for the two IAM users with MyPublishUserKey and MyQueueUserKey. &#160;Note that you will be billed for the AWS resources used if you create a stack from this template.</title>
<polygon fill="white" stroke="white" points="-4,5 -4,-400 1124,-400 1124,5 -4,5"/>
<!-- MyQueuePolicy -->
<g id="node1" class="node"><title>MyQueuePolicy</title>
<polygon fill="none" stroke="black" points="672,-180 550,-180 550,-144 672,-144 672,-180"/>
<text text-anchor="middle" x="611" y="-158.4" font-family="Times Roman,serif" font-size="14.00">MyQueuePolicy</text>
</g>
<!-- MyRDMessageQueueGroup -->
<g id="node2" class="node"><title>MyRDMessageQueueGroup</title>
<polygon fill="none" stroke="black" points="843,-252 639,-252 639,-216 843,-216 843,-252"/>
<text text-anchor="middle" x="741" y="-230.4" font-family="Times Roman,serif" font-size="14.00">MyRDMessageQueueGroup</text>
</g>
<!-- AddUserToMyQueueGroup -->
<g id="node5" class="node"><title>AddUserToMyQueueGroup</title>
<polygon fill="none" stroke="black" points="842,-108 644,-108 644,-72 842,-72 842,-108"/>
<text text-anchor="middle" x="743" y="-86.4" font-family="Times Roman,serif" font-size="14.00">AddUserToMyQueueGroup</text>
</g>
<!-- MyRDMessageQueueGroup&#45;&gt;AddUserToMyQueueGroup -->
<g id="edge18" class="edge"><title>MyRDMessageQueueGroup&#45;&gt;AddUserToMyQueueGroup</title>
<path fill="none" stroke="black" d="M741.253,-215.762C741.594,-191.201 742.205,-147.247 742.606,-118.354"/>
<polygon fill="black" stroke="black" points="746.109,-118.137 742.749,-108.09 739.11,-118.04 746.109,-118.137"/>
</g>
<!-- MySNSTopic -->
<g id="node3" class="node"><title>MySNSTopic</title>
<polygon fill="none" stroke="black" points="545,-252 447,-252 447,-216 545,-216 545,-252"/>
<text text-anchor="middle" x="496" y="-230.4" font-family="Times Roman,serif" font-size="14.00">MySNSTopic</text>
</g>
<!-- MySNSTopic&#45;&gt;MyQueuePolicy -->
<g id="edge8" class="edge"><title>MySNSTopic&#45;&gt;MyQueuePolicy</title>
<path fill="none" stroke="black" d="M525.019,-215.831C539.729,-206.622 557.764,-195.33 573.512,-185.471"/>
<polygon fill="black" stroke="black" points="575.371,-188.436 581.99,-180.163 571.657,-182.503 575.371,-188.436"/>
</g>
<!-- MyPublishTopicGroup -->
<g id="node7" class="node"><title>MyPublishTopicGroup</title>
<polygon fill="none" stroke="black" points="475,-180 313,-180 313,-144 475,-144 475,-180"/>
<text text-anchor="middle" x="394" y="-158.4" font-family="Times Roman,serif" font-size="14.00">MyPublishTopicGroup</text>
</g>
<!-- MySNSTopic&#45;&gt;MyPublishTopicGroup -->
<g id="edge24" class="edge"><title>MySNSTopic&#45;&gt;MyPublishTopicGroup</title>
<path fill="none" stroke="black" d="M470.261,-215.831C457.456,-206.793 441.809,-195.748 428.028,-186.02"/>
<polygon fill="black" stroke="black" points="429.919,-183.07 419.731,-180.163 425.882,-188.789 429.919,-183.07"/>
</g>
<!-- MySNSTopicTopicARN -->
<g id="node17" class="node"><title>MySNSTopicTopicARN</title>
<polygon fill="lightgrey" stroke="lightgrey" points="591,-36 453,-36 441,-24 441,-12 453,-1.67109e-14 591,-4.60537e-15 603,-12 603,-24 591,-36"/>
<path fill="lightgrey" stroke="lightgrey" d="M453,-36C447,-36 441,-30 441,-24"/>
<path fill="lightgrey" stroke="lightgrey" d="M441,-12C441,-6 447,-1.72372e-14 453,-1.67109e-14"/>
<path fill="lightgrey" stroke="lightgrey" d="M591,-4.60537e-15C597,-4.07904e-15 603,-6 603,-12"/>
<path fill="lightgrey" stroke="lightgrey" d="M603,-24C603,-30 597,-36 591,-36"/>
<polyline fill="none" stroke="black" points="591,-36 453,-36 "/>
<path fill="none" stroke="black" d="M453,-36C447,-36 441,-30 441,-24"/>
<polyline fill="none" stroke="black" points="441,-24 441,-12 "/>
<path fill="none" stroke="black" d="M441,-12C441,-6 447,-1.72372e-14 453,-1.67109e-14"/>
<polyline fill="none" stroke="black" points="453,-1.67109e-14 591,-4.60537e-15 "/>
<path fill="none" stroke="black" d="M591,-4.60537e-15C597,-4.07904e-15 603,-6 603,-12"/>
<polyline fill="none" stroke="black" points="603,-12 603,-24 "/>
<path fill="none" stroke="black" d="M603,-24C603,-30 597,-36 591,-36"/>
<text text-anchor="middle" x="522" y="-14.4" font-family="Times Roman,serif" font-size="14.00">MySNSTopicTopicARN</text>
</g>
<!-- MySNSTopic&#45;&gt;MySNSTopicTopicARN -->
<g id="edge36" class="edge"><title>MySNSTopic&#45;&gt;MySNSTopicTopicARN</title>
<path fill="none" stroke="black" d="M498.172,-215.955C502.703,-178.314 513.19,-91.1867 518.615,-46.1246"/>
<polygon fill="black" stroke="black" points="522.096,-46.4917 519.816,-36.1451 515.146,-45.6551 522.096,-46.4917"/>
</g>
<!-- MyQueue1 -->
<g id="node4" class="node"><title>MyQueue1</title>
<polygon fill="none" stroke="black" points="787,-324 695,-324 695,-288 787,-288 787,-324"/>
<text text-anchor="middle" x="741" y="-302.4" font-family="Times Roman,serif" font-size="14.00">MyQueue1</text>
</g>
<!-- MyQueue1&#45;&gt;MyQueuePolicy -->
<g id="edge4" class="edge"><title>MyQueue1&#45;&gt;MyQueuePolicy</title>
<path fill="none" stroke="black" d="M694.828,-294.04C672.056,-285.835 646.093,-272.605 630,-252 616.316,-234.478 611.896,-209.397 610.711,-190.16"/>
<polygon fill="black" stroke="black" points="614.209,-190.026 610.348,-180.16 607.213,-190.28 614.209,-190.026"/>
</g>
<!-- MyQueue1&#45;&gt;MyRDMessageQueueGroup -->
<g id="edge10" class="edge"><title>MyQueue1&#45;&gt;MyRDMessageQueueGroup</title>
<path fill="none" stroke="black" d="M741,-287.831C741,-280.131 741,-270.974 741,-262.417"/>
<polygon fill="black" stroke="black" points="744.5,-262.413 741,-252.413 737.5,-262.413 744.5,-262.413"/>
</g>
<!-- MyQueue1&#45;&gt;MySNSTopic -->
<g id="edge14" class="edge"><title>MyQueue1&#45;&gt;MySNSTopic</title>
<path fill="none" stroke="black" d="M694.917,-292.457C655.309,-280.817 597.955,-263.962 555,-251.339"/>
<polygon fill="black" stroke="black" points="555.82,-247.932 545.239,-248.47 553.846,-254.648 555.82,-247.932"/>
</g>
<!-- MyQueue1Info -->
<g id="node19" class="node"><title>MyQueue1Info</title>
<polygon fill="lightgrey" stroke="lightgrey" points="927,-36 833,-36 821,-24 821,-12 833,-1.63184e-14 927,-4.99789e-15 939,-12 939,-24 927,-36"/>
<path fill="lightgrey" stroke="lightgrey" d="M833,-36C827,-36 821,-30 821,-24"/>
<path fill="lightgrey" stroke="lightgrey" d="M821,-12C821,-6 827,-1.7041e-14 833,-1.63184e-14"/>
<path fill="lightgrey" stroke="lightgrey" d="M927,-4.99789e-15C933,-4.2753e-15 939,-6 939,-12"/>
<path fill="lightgrey" stroke="lightgrey" d="M939,-24C939,-30 933,-36 927,-36"/>
<polyline fill="none" stroke="black" points="927,-36 833,-36 "/>
<path fill="none" stroke="black" d="M833,-36C827,-36 821,-30 821,-24"/>
<polyline fill="none" stroke="black" points="821,-24 821,-12 "/>
<path fill="none" stroke="black" d="M821,-12C821,-6 827,-1.7041e-14 833,-1.63184e-14"/>
<polyline fill="none" stroke="black" points="833,-1.63184e-14 927,-4.99789e-15 "/>
<path fill="none" stroke="black" d="M927,-4.99789e-15C933,-4.2753e-15 939,-6 939,-12"/>
<polyline fill="none" stroke="black" points="939,-12 939,-24 "/>
<path fill="none" stroke="black" d="M939,-24C939,-30 933,-36 927,-36"/>
<text text-anchor="middle" x="880" y="-14.4" font-family="Times Roman,serif" font-size="14.00">MyQueue1Info</text>
</g>
<!-- MyQueue1&#45;&gt;MyQueue1Info -->
<g id="edge42" class="edge"><title>MyQueue1&#45;&gt;MyQueue1Info</title>
<path fill="none" stroke="black" d="M787.063,-291.858C807.321,-283.646 829.455,-271.031 843,-252 887.351,-189.686 881.86,-93.6022 879.174,-46.2959"/>
<polygon fill="black" stroke="black" points="882.661,-45.9629 878.622,-36.1681 875.671,-46.3437 882.661,-45.9629"/>
</g>
<!-- MyQueue1&#45;&gt;MyQueue1Info -->
<g id="edge44" class="edge"><title>MyQueue1&#45;&gt;MyQueue1Info</title>
<path fill="none" stroke="black" d="M787.241,-297.349C813.383,-289.703 843.976,-275.92 861,-252 905.444,-189.555 899.836,-93.1975 890.104,-45.9978"/>
<polygon fill="black" stroke="black" points="893.495,-45.13 887.844,-36.1681 886.673,-46.698 893.495,-45.13"/>
</g>
<!-- MyPublishUserKey -->
<g id="node6" class="node"><title>MyPublishUserKey</title>
<polygon fill="none" stroke="black" points="164,-108 22,-108 22,-72 164,-72 164,-108"/>
<text text-anchor="middle" x="93" y="-86.4" font-family="Times Roman,serif" font-size="14.00">MyPublishUserKey</text>
</g>
<!-- MyPublishUserInfo -->
<g id="node20" class="node"><title>MyPublishUserInfo</title>
<polygon fill="lightgrey" stroke="lightgrey" points="132,-36 12,-36 3.78956e-14,-24 1.89478e-14,-12 12,-1.65793e-14 132,-4.73695e-15 144,-12 144,-24 132,-36"/>
<path fill="lightgrey" stroke="lightgrey" d="M12,-36C6,-36 4.73695e-14,-30 3.78956e-14,-24"/>
<path fill="lightgrey" stroke="lightgrey" d="M1.89478e-14,-12C9.4739e-15,-6 6,-1.71714e-14 12,-1.65793e-14"/>
<path fill="lightgrey" stroke="lightgrey" d="M132,-4.73695e-15C138,-4.14483e-15 144,-6 144,-12"/>
<path fill="lightgrey" stroke="lightgrey" d="M144,-24C144,-30 138,-36 132,-36"/>
<polyline fill="none" stroke="black" points="132,-36 12,-36 "/>
<path fill="none" stroke="black" d="M12,-36C6,-36 4.73695e-14,-30 3.78956e-14,-24"/>
<polyline fill="none" stroke="black" points="3.78956e-14,-24 1.89478e-14,-12 "/>
<path fill="none" stroke="black" d="M1.89478e-14,-12C9.4739e-15,-6 6,-1.71714e-14 12,-1.65793e-14"/>
<polyline fill="none" stroke="black" points="12,-1.65793e-14 132,-4.73695e-15 "/>
<path fill="none" stroke="black" d="M132,-4.73695e-15C138,-4.14483e-15 144,-6 144,-12"/>
<polyline fill="none" stroke="black" points="144,-12 144,-24 "/>
<path fill="none" stroke="black" d="M144,-24C144,-30 138,-36 132,-36"/>
<text text-anchor="middle" x="72" y="-14.4" font-family="Times Roman,serif" font-size="14.00">MyPublishUserInfo</text>
</g>
<!-- MyPublishUserKey&#45;&gt;MyPublishUserInfo -->
<g id="edge48" class="edge"><title>MyPublishUserKey&#45;&gt;MyPublishUserInfo</title>
<path fill="none" stroke="black" d="M81.7484,-71.8314C78.752,-64.131 75.8605,-54.9743 73.6731,-46.4166"/>
<polygon fill="black" stroke="black" points="77.0281,-45.3862 71.3945,-36.4133 70.2029,-46.9409 77.0281,-45.3862"/>
</g>
<!-- MyPublishUserKey&#45;&gt;MyPublishUserInfo -->
<g id="edge50" class="edge"><title>MyPublishUserKey&#45;&gt;MyPublishUserInfo</title>
<path fill="none" stroke="black" d="M93.6532,-71.8314C92.1248,-63.9617 89.5998,-54.5712 86.7178,-45.8533"/>
<polygon fill="black" stroke="black" points="90.006,-44.6536 83.3465,-36.4133 83.4137,-47.0079 90.006,-44.6536"/>
</g>
<!-- AddUserToMyPublishTopicGroup -->
<g id="node9" class="node"><title>AddUserToMyPublishTopicGroup</title>
<polygon fill="none" stroke="black" points="494,-108 258,-108 258,-72 494,-72 494,-108"/>
<text text-anchor="middle" x="376" y="-86.4" font-family="Times Roman,serif" font-size="14.00">AddUserToMyPublishTopicGroup</text>
</g>
<!-- MyPublishTopicGroup&#45;&gt;AddUserToMyPublishTopicGroup -->
<g id="edge28" class="edge"><title>MyPublishTopicGroup&#45;&gt;AddUserToMyPublishTopicGroup</title>
<path fill="none" stroke="black" d="M389.458,-143.831C387.512,-136.046 385.193,-126.773 383.034,-118.135"/>
<polygon fill="black" stroke="black" points="386.424,-117.266 380.603,-108.413 379.633,-118.964 386.424,-117.266"/>
</g>
<!-- MyPublishUser -->
<g id="node8" class="node"><title>MyPublishUser</title>
<polygon fill="none" stroke="black" points="152,-180 34,-180 34,-144 152,-144 152,-180"/>
<text text-anchor="middle" x="93" y="-158.4" font-family="Times Roman,serif" font-size="14.00">MyPublishUser</text>
</g>
<!-- MyPublishUser&#45;&gt;MyPublishUserKey -->
<g id="edge22" class="edge"><title>MyPublishUser&#45;&gt;MyPublishUserKey</title>
<path fill="none" stroke="black" d="M93,-143.831C93,-136.131 93,-126.974 93,-118.417"/>
<polygon fill="black" stroke="black" points="96.5001,-118.413 93,-108.413 89.5001,-118.413 96.5001,-118.413"/>
</g>
<!-- MyPublishUser&#45;&gt;AddUserToMyPublishTopicGroup -->
<g id="edge30" class="edge"><title>MyPublishUser&#45;&gt;AddUserToMyPublishTopicGroup</title>
<path fill="none" stroke="black" d="M152.326,-146.906C193.851,-136.342 249.825,-122.101 295.39,-110.509"/>
<polygon fill="black" stroke="black" points="296.413,-113.86 305.242,-108.002 294.687,-107.076 296.413,-113.86"/>
</g>
<!-- MyPublishUser&#45;&gt;MyPublishUserInfo -->
<g id="edge46" class="edge"><title>MyPublishUser&#45;&gt;MyPublishUserInfo</title>
<path fill="none" stroke="black" d="M50.532,-143.771C35.9156,-135.186 21.1789,-123.389 13,-108 5.49084,-93.8716 6.55176,-86.6431 13,-72 17.984,-60.6819 26.6412,-50.7031 35.8125,-42.5015"/>
<polygon fill="black" stroke="black" points="38.1256,-45.13 43.568,-36.0399 33.6448,-39.752 38.1256,-45.13"/>
</g>
<!-- MyQueueUser -->
<g id="node10" class="node"><title>MyQueueUser</title>
<polygon fill="none" stroke="black" points="1031,-180 917,-180 917,-144 1031,-144 1031,-180"/>
<text text-anchor="middle" x="974" y="-158.4" font-family="Times Roman,serif" font-size="14.00">MyQueueUser</text>
</g>
<!-- MyQueueUser&#45;&gt;AddUserToMyQueueGroup -->
<g id="edge20" class="edge"><title>MyQueueUser&#45;&gt;AddUserToMyQueueGroup</title>
<path fill="none" stroke="black" d="M916.899,-144.202C884.796,-134.196 844.525,-121.644 810.823,-111.14"/>
<polygon fill="black" stroke="black" points="811.637,-107.727 801.049,-108.093 809.554,-114.41 811.637,-107.727"/>
</g>
<!-- MyQueueUserKey -->
<g id="node12" class="node"><title>MyQueueUserKey</title>
<polygon fill="none" stroke="black" points="1118,-108 980,-108 980,-72 1118,-72 1118,-108"/>
<text text-anchor="middle" x="1049" y="-86.4" font-family="Times Roman,serif" font-size="14.00">MyQueueUserKey</text>
</g>
<!-- MyQueueUser&#45;&gt;MyQueueUserKey -->
<g id="edge34" class="edge"><title>MyQueueUser&#45;&gt;MyQueueUserKey</title>
<path fill="none" stroke="black" d="M992.926,-143.831C1001.99,-135.134 1012.98,-124.578 1022.83,-115.127"/>
<polygon fill="black" stroke="black" points="1025.29,-117.613 1030.08,-108.163 1020.44,-112.563 1025.29,-117.613"/>
</g>
<!-- MyQueueUserInfo -->
<g id="node21" class="node"><title>MyQueueUserInfo</title>
<polygon fill="lightgrey" stroke="lightgrey" points="1107,-36 991,-36 979,-24 979,-12 991,-1.65455e-14 1107,-4.77079e-15 1119,-12 1119,-24 1107,-36"/>
<path fill="lightgrey" stroke="lightgrey" d="M991,-36C985,-36 979,-30 979,-24"/>
<path fill="lightgrey" stroke="lightgrey" d="M979,-12C979,-6 985,-1.71545e-14 991,-1.65455e-14"/>
<path fill="lightgrey" stroke="lightgrey" d="M1107,-4.77079e-15C1113,-4.16175e-15 1119,-6 1119,-12"/>
<path fill="lightgrey" stroke="lightgrey" d="M1119,-24C1119,-30 1113,-36 1107,-36"/>
<polyline fill="none" stroke="black" points="1107,-36 991,-36 "/>
<path fill="none" stroke="black" d="M991,-36C985,-36 979,-30 979,-24"/>
<polyline fill="none" stroke="black" points="979,-24 979,-12 "/>
<path fill="none" stroke="black" d="M979,-12C979,-6 985,-1.71545e-14 991,-1.65455e-14"/>
<polyline fill="none" stroke="black" points="991,-1.65455e-14 1107,-4.77079e-15 "/>
<path fill="none" stroke="black" d="M1107,-4.77079e-15C1113,-4.16175e-15 1119,-6 1119,-12"/>
<polyline fill="none" stroke="black" points="1119,-12 1119,-24 "/>
<path fill="none" stroke="black" d="M1119,-24C1119,-30 1113,-36 1107,-36"/>
<text text-anchor="middle" x="1049" y="-14.4" font-family="Times Roman,serif" font-size="14.00">MyQueueUserInfo</text>
</g>
<!-- MyQueueUser&#45;&gt;MyQueueUserInfo -->
<g id="edge52" class="edge"><title>MyQueueUser&#45;&gt;MyQueueUserInfo</title>
<path fill="none" stroke="black" d="M968.417,-143.934C963.623,-124.887 959.173,-94.5722 971,-72 977.459,-59.6735 988.15,-49.6013 999.578,-41.6382"/>
<polygon fill="black" stroke="black" points="1001.48,-44.5771 1007.98,-36.2105 997.68,-38.6975 1001.48,-44.5771"/>
</g>
<!-- MyQueue2 -->
<g id="node11" class="node"><title>MyQueue2</title>
<polygon fill="none" stroke="black" points="542,-324 450,-324 450,-288 542,-288 542,-324"/>
<text text-anchor="middle" x="496" y="-302.4" font-family="Times Roman,serif" font-size="14.00">MyQueue2</text>
</g>
<!-- MyQueue2&#45;&gt;MyQueuePolicy -->
<g id="edge6" class="edge"><title>MyQueue2&#45;&gt;MyQueuePolicy</title>
<path fill="none" stroke="black" d="M517.946,-287.962C529.38,-277.995 543.191,-265.021 554,-252 570.371,-232.278 585.722,-207.534 596.359,-188.984"/>
<polygon fill="black" stroke="black" points="599.468,-190.597 601.329,-180.167 593.37,-187.16 599.468,-190.597"/>
</g>
<!-- MyQueue2&#45;&gt;MyRDMessageQueueGroup -->
<g id="edge12" class="edge"><title>MyQueue2&#45;&gt;MyRDMessageQueueGroup</title>
<path fill="none" stroke="black" d="M542.083,-292.457C578.014,-281.898 628.55,-267.047 669.692,-254.956"/>
<polygon fill="black" stroke="black" points="670.786,-258.282 679.394,-252.105 668.812,-251.566 670.786,-258.282"/>
</g>
<!-- MyQueue2&#45;&gt;MySNSTopic -->
<g id="edge16" class="edge"><title>MyQueue2&#45;&gt;MySNSTopic</title>
<path fill="none" stroke="black" d="M496,-287.831C496,-280.131 496,-270.974 496,-262.417"/>
<polygon fill="black" stroke="black" points="499.5,-262.413 496,-252.413 492.5,-262.413 499.5,-262.413"/>
</g>
<!-- MyQueue2Info -->
<g id="node18" class="node"><title>MyQueue2Info</title>
<polygon fill="lightgrey" stroke="lightgrey" points="268,-36 174,-36 162,-24 162,-12 174,-1.63184e-14 268,-4.99789e-15 280,-12 280,-24 268,-36"/>
<path fill="lightgrey" stroke="lightgrey" d="M174,-36C168,-36 162,-30 162,-24"/>
<path fill="lightgrey" stroke="lightgrey" d="M162,-12C162,-6 168,-1.7041e-14 174,-1.63184e-14"/>
<path fill="lightgrey" stroke="lightgrey" d="M268,-4.99789e-15C274,-4.2753e-15 280,-6 280,-12"/>
<path fill="lightgrey" stroke="lightgrey" d="M280,-24C280,-30 274,-36 268,-36"/>
<polyline fill="none" stroke="black" points="268,-36 174,-36 "/>
<path fill="none" stroke="black" d="M174,-36C168,-36 162,-30 162,-24"/>
<polyline fill="none" stroke="black" points="162,-24 162,-12 "/>
<path fill="none" stroke="black" d="M162,-12C162,-6 168,-1.7041e-14 174,-1.63184e-14"/>
<polyline fill="none" stroke="black" points="174,-1.63184e-14 268,-4.99789e-15 "/>
<path fill="none" stroke="black" d="M268,-4.99789e-15C274,-4.2753e-15 280,-6 280,-12"/>
<polyline fill="none" stroke="black" points="280,-12 280,-24 "/>
<path fill="none" stroke="black" d="M280,-24C280,-30 274,-36 268,-36"/>
<text text-anchor="middle" x="221" y="-14.4" font-family="Times Roman,serif" font-size="14.00">MyQueue2Info</text>
</g>
<!-- MyQueue2&#45;&gt;MyQueue2Info -->
<g id="edge38" class="edge"><title>MyQueue2&#45;&gt;MyQueue2Info</title>
<path fill="none" stroke="black" d="M451.262,-287.969C390.811,-259.105 285.795,-196.617 240,-108 229.889,-88.4348 222.671,-64.5666 219.405,-46.3273"/>
<polygon fill="black" stroke="black" points="222.852,-45.7053 217.948,-36.3138 215.925,-46.7137 222.852,-45.7053"/>
</g>
<!-- MyQueue2&#45;&gt;MyQueue2Info -->
<g id="edge40" class="edge"><title>MyQueue2&#45;&gt;MyQueue2Info</title>
<path fill="none" stroke="black" d="M462.848,-287.969C408.811,-259.105 303.795,-196.617 258,-108 247.795,-88.252 240.536,-64.12 234.625,-45.8174"/>
<polygon fill="black" stroke="black" points="237.943,-44.7017 231.47,-36.3138 231.299,-46.9073 237.943,-44.7017"/>
</g>
<!-- MyQueueUserKey&#45;&gt;MyQueueUserInfo -->
<g id="edge54" class="edge"><title>MyQueueUserKey&#45;&gt;MyQueueUserInfo</title>
<path fill="none" stroke="black" d="M1043.05,-71.8314C1042.3,-64.131 1042.08,-54.9743 1042.38,-46.4166"/>
<polygon fill="black" stroke="black" points="1045.88,-46.6161 1043.02,-36.4133 1038.89,-46.1697 1045.88,-46.6161"/>
</g>
<!-- MyQueueUserKey&#45;&gt;MyQueueUserInfo -->
<g id="edge56" class="edge"><title>MyQueueUserKey&#45;&gt;MyQueueUserInfo</title>
<path fill="none" stroke="black" d="M1054.95,-71.8314C1055.7,-64.131 1055.92,-54.9743 1055.62,-46.4166"/>
<polygon fill="black" stroke="black" points="1059.11,-46.1697 1054.98,-36.4133 1052.12,-46.6161 1059.11,-46.1697"/>
</g>
<!-- MyPublishUserPassword -->
<g id="node14" class="node"><title>MyPublishUserPassword</title>
<polygon fill="lightgrey" stroke="lightgrey" points="172,-396 14,-396 2,-384 2,-372 14,-360 172,-360 184,-372 184,-384 172,-396"/>
<path fill="lightgrey" stroke="lightgrey" d="M14,-396C8,-396 2,-390 2,-384"/>
<path fill="lightgrey" stroke="lightgrey" d="M2,-372C2,-366 8,-360 14,-360"/>
<path fill="lightgrey" stroke="lightgrey" d="M172,-360C178,-360 184,-366 184,-372"/>
<path fill="lightgrey" stroke="lightgrey" d="M184,-384C184,-390 178,-396 172,-396"/>
<polyline fill="none" stroke="black" points="172,-396 14,-396 "/>
<path fill="none" stroke="black" d="M14,-396C8,-396 2,-390 2,-384"/>
<polyline fill="none" stroke="black" points="2,-384 2,-372 "/>
<path fill="none" stroke="black" d="M2,-372C2,-366 8,-360 14,-360"/>
<polyline fill="none" stroke="black" points="14,-360 172,-360 "/>
<path fill="none" stroke="black" d="M172,-360C178,-360 184,-366 184,-372"/>
<polyline fill="none" stroke="black" points="184,-372 184,-384 "/>
<path fill="none" stroke="black" d="M184,-384C184,-390 178,-396 172,-396"/>
<text text-anchor="middle" x="93" y="-374.4" font-family="Times Roman,serif" font-size="14.00">MyPublishUserPassword</text>
</g>
<!-- MyPublishUserPassword&#45;&gt;MyPublishUser -->
<g id="edge26" class="edge"><title>MyPublishUserPassword&#45;&gt;MyPublishUser</title>
<path fill="none" stroke="black" d="M93,-359.955C93,-322.394 93,-235.554 93,-190.41"/>
<polygon fill="black" stroke="black" points="96.5001,-190.145 93,-180.145 89.5001,-190.145 96.5001,-190.145"/>
</g>
<!-- MyQueueUserPassword -->
<g id="node15" class="node"><title>MyQueueUserPassword</title>
<polygon fill="lightgrey" stroke="lightgrey" points="1051,-396 897,-396 885,-384 885,-372 897,-360 1051,-360 1063,-372 1063,-384 1051,-396"/>
<path fill="lightgrey" stroke="lightgrey" d="M897,-396C891,-396 885,-390 885,-384"/>
<path fill="lightgrey" stroke="lightgrey" d="M885,-372C885,-366 891,-360 897,-360"/>
<path fill="lightgrey" stroke="lightgrey" d="M1051,-360C1057,-360 1063,-366 1063,-372"/>
<path fill="lightgrey" stroke="lightgrey" d="M1063,-384C1063,-390 1057,-396 1051,-396"/>
<polyline fill="none" stroke="black" points="1051,-396 897,-396 "/>
<path fill="none" stroke="black" d="M897,-396C891,-396 885,-390 885,-384"/>
<polyline fill="none" stroke="black" points="885,-384 885,-372 "/>
<path fill="none" stroke="black" d="M885,-372C885,-366 891,-360 897,-360"/>
<polyline fill="none" stroke="black" points="897,-360 1051,-360 "/>
<path fill="none" stroke="black" d="M1051,-360C1057,-360 1063,-366 1063,-372"/>
<polyline fill="none" stroke="black" points="1063,-372 1063,-384 "/>
<path fill="none" stroke="black" d="M1063,-384C1063,-390 1057,-396 1051,-396"/>
<text text-anchor="middle" x="974" y="-374.4" font-family="Times Roman,serif" font-size="14.00">MyQueueUserPassword</text>
</g>
<!-- MyQueueUserPassword&#45;&gt;MyQueueUser -->
<g id="edge32" class="edge"><title>MyQueueUserPassword&#45;&gt;MyQueueUser</title>
<path fill="none" stroke="black" d="M974,-359.955C974,-322.394 974,-235.554 974,-190.41"/>
<polygon fill="black" stroke="black" points="977.5,-190.145 974,-180.145 970.5,-190.145 977.5,-190.145"/>
</g>
</g>
</svg>
