<?xml version="1.0" encoding="UTF-8" standalone="no"?>
<!DOCTYPE svg PUBLIC "-//W3C//DTD SVG 1.1//EN"
 "http://www.w3.org/Graphics/SVG/1.1/DTD/svg11.dtd">
<!-- Generated by graphviz version 2.26.3 (20100126.1600)
 -->
<!-- Title: AWS CloudFormation Sample Template SQS: Sample template showing how to create an SQS queue. **WARNING** This template creates an Amazon SQS Queue. You will be billed for the AWS resources used if you create a stack from this template. Pages: 1 -->
<svg width="208pt" height="116pt"
 viewBox="0.00 0.00 208.00 116.00" xmlns="http://www.w3.org/2000/svg" xmlns:xlink="http://www.w3.org/1999/xlink">
<g id="graph1" class="graph" transform="scale(1 1) rotate(0) translate(4 112)">
<title>AWS CloudFormation Sample Template SQS: Sample template showing how to create an SQS queue. **WARNING** This template creates an Amazon SQS Queue. You will be billed for the AWS resources used if you create a stack from this template.</title>
<polygon fill="white" stroke="white" points="-4,5 -4,-112 205,-112 205,5 -4,5"/>
<!-- MyQueue -->
<g id="node1" class="node"><title>MyQueue</title>
<polygon fill="none" stroke="black" points="140,-108 58,-108 58,-72 140,-72 140,-108"/>
<text text-anchor="middle" x="99" y="-86.4" font-family="Times Roman,serif" font-size="14.00">MyQueue</text>
</g>
<!-- QueueURL -->
<g id="node3" class="node"><title>QueueURL</title>
<polygon fill="lightgrey" stroke="lightgrey" points="78,-36 12,-36 2.36848e-14,-24 1.18424e-14,-12 12,-1.58688e-14 78,-5.44749e-15 90,-12 90,-24 78,-36"/>
<path fill="lightgrey" stroke="lightgrey" d="M12,-36C6,-36 2.96059e-14,-30 2.36848e-14,-24"/>
<path fill="lightgrey" stroke="lightgrey" d="M1.18424e-14,-12C5.92119e-15,-6 6,-1.68162e-14 12,-1.58688e-14"/>
<path fill="lightgrey" stroke="lightgrey" d="M78,-5.44749e-15C84,-4.5001e-15 90,-6 90,-12"/>
<path fill="lightgrey" stroke="lightgrey" d="M90,-24C90,-30 84,-36 78,-36"/>
<polyline fill="none" stroke="black" points="78,-36 12,-36 "/>
<path fill="none" stroke="black" d="M12,-36C6,-36 2.96059e-14,-30 2.36848e-14,-24"/>
<polyline fill="none" stroke="black" points="2.36848e-14,-24 1.18424e-14,-12 "/>
<path fill="none" stroke="black" d="M1.18424e-14,-12C5.92119e-15,-6 6,-1.68162e-14 12,-1.58688e-14"/>
<polyline fill="none" stroke="black" points="12,-1.58688e-14 78,-5.44749e-15 "/>
<path fill="none" stroke="black" d="M78,-5.44749e-15C84,-4.5001e-15 90,-6 90,-12"/>
<polyline fill="none" stroke="black" points="90,-12 90,-24 "/>
<path fill="none" stroke="black" d="M90,-24C90,-30 84,-36 78,-36"/>
<text text-anchor="middle" x="45" y="-14.4" font-family="Times Roman,serif" font-size="14.00">QueueURL</text>
</g>
<!-- MyQueue&#45;&gt;QueueURL -->
<g id="edge3" class="edge"><title>MyQueue&#45;&gt;QueueURL</title>
<path fill="none" stroke="black" d="M85.3735,-71.8314C79.154,-63.5386 71.6678,-53.557 64.84,-44.4533"/>
<polygon fill="black" stroke="black" points="67.61,-42.3133 58.81,-36.4133 62.01,-46.5133 67.61,-42.3133"/>
</g>
<!-- QueueARN -->
<g id="node4" class="node"><title>QueueARN</title>
<polygon fill="lightgrey" stroke="lightgrey" points="188,-36 120,-36 108,-24 108,-12 120,-1.591e-14 188,-5.4063e-15 200,-12 200,-24 188,-36"/>
<path fill="lightgrey" stroke="lightgrey" d="M120,-36C114,-36 108,-30 108,-24"/>
<path fill="lightgrey" stroke="lightgrey" d="M108,-12C108,-6 114,-1.68368e-14 120,-1.591e-14"/>
<path fill="lightgrey" stroke="lightgrey" d="M188,-5.4063e-15C194,-4.47951e-15 200,-6 200,-12"/>
<path fill="lightgrey" stroke="lightgrey" d="M200,-24C200,-30 194,-36 188,-36"/>
<polyline fill="none" stroke="black" points="188,-36 120,-36 "/>
<path fill="none" stroke="black" d="M120,-36C114,-36 108,-30 108,-24"/>
<polyline fill="none" stroke="black" points="108,-24 108,-12 "/>
<path fill="none" stroke="black" d="M108,-12C108,-6 114,-1.68368e-14 120,-1.591e-14"/>
<polyline fill="none" stroke="black" points="120,-1.591e-14 188,-5.4063e-15 "/>
<path fill="none" stroke="black" d="M188,-5.4063e-15C194,-4.47951e-15 200,-6 200,-12"/>
<polyline fill="none" stroke="black" points="200,-12 200,-24 "/>
<path fill="none" stroke="black" d="M200,-24C200,-30 194,-36 188,-36"/>
<text text-anchor="middle" x="154" y="-14.4" font-family="Times Roman,serif" font-size="14.00">QueueARN</text>
</g>
<!-- MyQueue&#45;&gt;QueueARN -->
<g id="edge5" class="edge"><title>MyQueue&#45;&gt;QueueARN</title>
<path fill="none" stroke="black" d="M112.879,-71.8314C119.214,-63.5386 126.838,-53.557 133.793,-44.4533"/>
<polygon fill="black" stroke="black" points="136.645,-46.4847 139.934,-36.4133 131.083,-42.2353 136.645,-46.4847"/>
</g>
</g>
</svg>
