<?xml version="1.0" encoding="UTF-8" standalone="no"?>
<!DOCTYPE svg PUBLIC "-//W3C//DTD SVG 1.1//EN"
 "http://www.w3.org/Graphics/SVG/1.1/DTD/svg11.dtd">
<!-- Generated by graphviz version 2.26.3 (20100126.1600)
 -->
<!-- Title: AWS CloudFormation Sample Template Tracks_Multi_AZ: Tracks is a web&#45;based application to help you implement David Allens Getting Things Done methodology. This template installs a highly&#45;available, scalable Tracks deployment using a multi&#45;az Amazon RDS database instance for storage. It demonstrates using the AWS CloudFormation bootstrap scripts to install the packages and files at instance launch time. **WARNING** This template creates an Amazon EC2 instance and an Amazon RDS database instance and an Elastic Load Balancer. You will be billed for the AWS resources used if you create a stack from this template. Pages: 1 -->
<svg width="1290pt" height="548pt"
 viewBox="0.00 0.00 1290.00 548.00" xmlns="http://www.w3.org/2000/svg" xmlns:xlink="http://www.w3.org/1999/xlink">
<g id="graph1" class="graph" transform="scale(1 1) rotate(0) translate(4 544)">
<title>AWS CloudFormation Sample Template Tracks_Multi_AZ: Tracks is a web&#45;based application to help you implement David Allens Getting Things Done methodology. This template installs a highly&#45;available, scalable Tracks deployment using a multi&#45;az Amazon RDS database instance for storage. It demonstrates using the AWS CloudFormation bootstrap scripts to install the packages and files at instance launch time. **WARNING** This template creates an Amazon EC2 instance and an Amazon RDS database instance and an Elastic Load Balancer. You will be billed for the AWS resources used if you create a stack from this template.</title>
<polygon fill="white" stroke="white" points="-4,5 -4,-544 1287,-544 1287,5 -4,5"/>
<!-- DBSecurityGroup -->
<g id="node1" class="node"><title>DBSecurityGroup</title>
<polygon fill="none" stroke="black" points="882,-324 746,-324 746,-288 882,-288 882,-324"/>
<text text-anchor="middle" x="814" y="-302.4" font-family="Times Roman,serif" font-size="14.00">DBSecurityGroup</text>
</g>
<!-- DBInstance -->
<g id="node7" class="node"><title>DBInstance</title>
<polygon fill="none" stroke="black" points="671,-252 575,-252 575,-216 671,-216 671,-252"/>
<text text-anchor="middle" x="623" y="-230.4" font-family="Times Roman,serif" font-size="14.00">DBInstance</text>
</g>
<!-- DBSecurityGroup&#45;&gt;DBInstance -->
<g id="edge48" class="edge"><title>DBSecurityGroup&#45;&gt;DBInstance</title>
<path fill="none" stroke="black" d="M765.803,-287.831C739.803,-278.031 707.546,-265.871 680.272,-255.589"/>
<polygon fill="black" stroke="black" points="681.443,-252.29 670.851,-252.038 678.973,-258.84 681.443,-252.29"/>
</g>
<!-- WebServerSecurityGroup -->
<g id="node2" class="node"><title>WebServerSecurityGroup</title>
<polygon fill="none" stroke="black" points="949,-396 757,-396 757,-360 949,-360 949,-396"/>
<text text-anchor="middle" x="853" y="-374.4" font-family="Times Roman,serif" font-size="14.00">WebServerSecurityGroup</text>
</g>
<!-- WebServerSecurityGroup&#45;&gt;DBSecurityGroup -->
<g id="edge4" class="edge"><title>WebServerSecurityGroup&#45;&gt;DBSecurityGroup</title>
<path fill="none" stroke="black" d="M843.159,-359.831C838.804,-351.792 833.59,-342.167 828.783,-333.292"/>
<polygon fill="black" stroke="black" points="831.814,-331.539 823.974,-324.413 825.659,-334.873 831.814,-331.539"/>
</g>
<!-- LaunchConfig -->
<g id="node4" class="node"><title>LaunchConfig</title>
<polygon fill="none" stroke="black" points="813,-180 703,-180 703,-144 813,-144 813,-180"/>
<text text-anchor="middle" x="758" y="-158.4" font-family="Times Roman,serif" font-size="14.00">LaunchConfig</text>
</g>
<!-- WebServerSecurityGroup&#45;&gt;LaunchConfig -->
<g id="edge28" class="edge"><title>WebServerSecurityGroup&#45;&gt;LaunchConfig</title>
<path fill="none" stroke="black" d="M870.264,-359.576C878.239,-349.8 886.848,-337.115 891,-324 906.11,-276.272 893.089,-252.664 859,-216 847.06,-203.158 831.36,-192.755 815.907,-184.635"/>
<polygon fill="black" stroke="black" points="817.378,-181.457 806.868,-180.117 814.248,-187.719 817.378,-181.457"/>
</g>
<!-- WebServerGroup -->
<g id="node3" class="node"><title>WebServerGroup</title>
<polygon fill="none" stroke="black" points="1269,-108 1133,-108 1133,-72 1269,-72 1269,-108"/>
<text text-anchor="middle" x="1201" y="-86.4" font-family="Times Roman,serif" font-size="14.00">WebServerGroup</text>
</g>
<!-- LaunchConfig&#45;&gt;WebServerGroup -->
<g id="edge14" class="edge"><title>LaunchConfig&#45;&gt;WebServerGroup</title>
<path fill="none" stroke="black" d="M813.211,-153.027C891.154,-140.359 1033.84,-117.169 1122.7,-102.726"/>
<polygon fill="black" stroke="black" points="1123.42,-106.155 1132.73,-101.096 1122.3,-99.2459 1123.42,-106.155"/>
</g>
<!-- ElasticLoadBalancer -->
<g id="node5" class="node"><title>ElasticLoadBalancer</title>
<polygon fill="none" stroke="black" points="1178,-468 1024,-468 1024,-432 1178,-432 1178,-468"/>
<text text-anchor="middle" x="1101" y="-446.4" font-family="Times Roman,serif" font-size="14.00">ElasticLoadBalancer</text>
</g>
<!-- ElasticLoadBalancer&#45;&gt;WebServerSecurityGroup -->
<g id="edge6" class="edge"><title>ElasticLoadBalancer&#45;&gt;WebServerSecurityGroup</title>
<path fill="none" stroke="black" d="M1032.8,-431.924C997.32,-421.91 954.186,-409.412 919.033,-398.97"/>
<polygon fill="black" stroke="black" points="919.925,-395.584 909.342,-396.083 917.927,-402.293 919.925,-395.584"/>
</g>
<!-- ElasticLoadBalancer&#45;&gt;WebServerSecurityGroup -->
<g id="edge8" class="edge"><title>ElasticLoadBalancer&#45;&gt;WebServerSecurityGroup</title>
<path fill="none" stroke="black" d="M1044.68,-431.924C1011.03,-421.868 967.841,-409.305 930.956,-398.836"/>
<polygon fill="black" stroke="black" points="931.806,-395.439 921.23,-396.083 929.899,-402.175 931.806,-395.439"/>
</g>
<!-- ElasticLoadBalancer&#45;&gt;WebServerGroup -->
<g id="edge16" class="edge"><title>ElasticLoadBalancer&#45;&gt;WebServerGroup</title>
<path fill="none" stroke="black" d="M1113.15,-431.786C1129.62,-405.286 1157,-354.015 1157,-306 1157,-306 1157,-306 1157,-234 1157,-191.909 1174.41,-145.799 1187.32,-117.377"/>
<polygon fill="black" stroke="black" points="1190.6,-118.638 1191.67,-108.097 1184.26,-115.669 1190.6,-118.638"/>
</g>
<!-- WebsiteURL -->
<g id="node21" class="node"><title>WebsiteURL</title>
<polygon fill="lightgrey" stroke="lightgrey" points="1143,-36 1067,-36 1055,-24 1055,-12 1067,-1.60583e-14 1143,-5.25802e-15 1155,-12 1155,-24 1143,-36"/>
<path fill="lightgrey" stroke="lightgrey" d="M1067,-36C1061,-36 1055,-30 1055,-24"/>
<path fill="lightgrey" stroke="lightgrey" d="M1055,-12C1055,-6 1061,-1.69109e-14 1067,-1.60583e-14"/>
<path fill="lightgrey" stroke="lightgrey" d="M1143,-5.25802e-15C1149,-4.40536e-15 1155,-6 1155,-12"/>
<path fill="lightgrey" stroke="lightgrey" d="M1155,-24C1155,-30 1149,-36 1143,-36"/>
<polyline fill="none" stroke="black" points="1143,-36 1067,-36 "/>
<path fill="none" stroke="black" d="M1067,-36C1061,-36 1055,-30 1055,-24"/>
<polyline fill="none" stroke="black" points="1055,-24 1055,-12 "/>
<path fill="none" stroke="black" d="M1055,-12C1055,-6 1061,-1.69109e-14 1067,-1.60583e-14"/>
<polyline fill="none" stroke="black" points="1067,-1.60583e-14 1143,-5.25802e-15 "/>
<path fill="none" stroke="black" d="M1143,-5.25802e-15C1149,-4.40536e-15 1155,-6 1155,-12"/>
<polyline fill="none" stroke="black" points="1155,-12 1155,-24 "/>
<path fill="none" stroke="black" d="M1155,-24C1155,-30 1149,-36 1143,-36"/>
<text text-anchor="middle" x="1105" y="-14.4" font-family="Times Roman,serif" font-size="14.00">WebsiteURL</text>
</g>
<!-- ElasticLoadBalancer&#45;&gt;WebsiteURL -->
<g id="edge60" class="edge"><title>ElasticLoadBalancer&#45;&gt;WebsiteURL</title>
<path fill="none" stroke="black" d="M1101.83,-431.819C1103,-404.509 1105,-351.267 1105,-306 1105,-306 1105,-306 1105,-162 1105,-121.876 1105,-75.4631 1105,-46.4177"/>
<polygon fill="black" stroke="black" points="1108.5,-46.1853 1105,-36.1854 1101.5,-46.1854 1108.5,-46.1853"/>
</g>
<!-- WaitCondition -->
<g id="node6" class="node"><title>WaitCondition</title>
<polygon fill="none" stroke="black" points="1077,-108 963,-108 963,-72 1077,-72 1077,-108"/>
<text text-anchor="middle" x="1020" y="-86.4" font-family="Times Roman,serif" font-size="14.00">WaitCondition</text>
</g>
<!-- DBInstance&#45;&gt;LaunchConfig -->
<g id="edge38" class="edge"><title>DBInstance&#45;&gt;LaunchConfig</title>
<path fill="none" stroke="black" d="M657.066,-215.831C674.653,-206.452 696.292,-194.911 715.017,-184.924"/>
<polygon fill="black" stroke="black" points="716.768,-187.957 723.945,-180.163 713.474,-181.781 716.768,-187.957"/>
</g>
<!-- WaitHandle -->
<g id="node8" class="node"><title>WaitHandle</title>
<polygon fill="none" stroke="black" points="1072,-252 976,-252 976,-216 1072,-216 1072,-252"/>
<text text-anchor="middle" x="1024" y="-230.4" font-family="Times Roman,serif" font-size="14.00">WaitHandle</text>
</g>
<!-- WaitHandle&#45;&gt;LaunchConfig -->
<g id="edge24" class="edge"><title>WaitHandle&#45;&gt;LaunchConfig</title>
<path fill="none" stroke="black" d="M975.851,-222.432C968.161,-220.263 960.344,-218.038 953,-216 909.737,-203.996 861.146,-191.11 823.229,-180.937"/>
<polygon fill="black" stroke="black" points="823.897,-177.493 813.332,-178.278 822.081,-184.253 823.897,-177.493"/>
</g>
<!-- WaitHandle&#45;&gt;LaunchConfig -->
<g id="edge18" class="edge"><title>WaitHandle&#45;&gt;LaunchConfig</title>
<path fill="none" stroke="black" d="M975.919,-217.373C974.263,-216.908 972.62,-216.45 971,-216 921.649,-202.307 865.366,-187.466 822.971,-176.814"/>
<polygon fill="black" stroke="black" points="823.604,-173.365 813.054,-174.336 821.907,-180.156 823.604,-173.365"/>
</g>
<!-- WaitHandle&#45;&gt;WaitCondition -->
<g id="edge44" class="edge"><title>WaitHandle&#45;&gt;WaitCondition</title>
<path fill="none" stroke="black" d="M1023.49,-215.762C1022.81,-191.201 1021.59,-147.247 1020.79,-118.354"/>
<polygon fill="black" stroke="black" points="1024.28,-117.989 1020.5,-108.09 1017.28,-118.183 1024.28,-117.989"/>
</g>
<!-- DBUsername -->
<g id="node10" class="node"><title>DBUsername</title>
<polygon fill="lightgrey" stroke="lightgrey" points="946,-540 864,-540 852,-528 852,-516 864,-504 946,-504 958,-516 958,-528 946,-540"/>
<path fill="lightgrey" stroke="lightgrey" d="M864,-540C858,-540 852,-534 852,-528"/>
<path fill="lightgrey" stroke="lightgrey" d="M852,-516C852,-510 858,-504 864,-504"/>
<path fill="lightgrey" stroke="lightgrey" d="M946,-504C952,-504 958,-510 958,-516"/>
<path fill="lightgrey" stroke="lightgrey" d="M958,-528C958,-534 952,-540 946,-540"/>
<polyline fill="none" stroke="black" points="946,-540 864,-540 "/>
<path fill="none" stroke="black" d="M864,-540C858,-540 852,-534 852,-528"/>
<polyline fill="none" stroke="black" points="852,-528 852,-516 "/>
<path fill="none" stroke="black" d="M852,-516C852,-510 858,-504 864,-504"/>
<polyline fill="none" stroke="black" points="864,-504 946,-504 "/>
<path fill="none" stroke="black" d="M946,-504C952,-504 958,-510 958,-516"/>
<polyline fill="none" stroke="black" points="958,-516 958,-528 "/>
<path fill="none" stroke="black" d="M958,-528C958,-534 952,-540 946,-540"/>
<text text-anchor="middle" x="905" y="-518.4" font-family="Times Roman,serif" font-size="14.00">DBUsername</text>
</g>
<!-- DBUsername&#45;&gt;LaunchConfig -->
<g id="edge40" class="edge"><title>DBUsername&#45;&gt;LaunchConfig</title>
<path fill="none" stroke="black" d="M851.914,-506.341C796.628,-486.374 718,-446.019 718,-378 718,-378 718,-378 718,-306 718,-264.222 733.824,-218.032 745.566,-189.507"/>
<polygon fill="black" stroke="black" points="748.835,-190.763 749.517,-180.19 742.391,-188.03 748.835,-190.763"/>
</g>
<!-- DBUsername&#45;&gt;DBInstance -->
<g id="edge50" class="edge"><title>DBUsername&#45;&gt;DBInstance</title>
<path fill="none" stroke="black" d="M851.929,-506.482C848.911,-505.634 845.918,-504.801 843,-504 781.462,-487.102 750.856,-511.324 704,-468 641.874,-410.557 669.82,-367.909 642,-288 639.073,-279.592 635.868,-270.457 632.938,-262.132"/>
<polygon fill="black" stroke="black" points="636.162,-260.752 629.537,-252.484 629.56,-263.079 636.162,-260.752"/>
</g>
<!-- DBClass -->
<g id="node11" class="node"><title>DBClass</title>
<polygon fill="lightgrey" stroke="lightgrey" points="822,-540 774,-540 762,-528 762,-516 774,-504 822,-504 834,-516 834,-528 822,-540"/>
<path fill="lightgrey" stroke="lightgrey" d="M774,-540C768,-540 762,-534 762,-528"/>
<path fill="lightgrey" stroke="lightgrey" d="M762,-516C762,-510 768,-504 774,-504"/>
<path fill="lightgrey" stroke="lightgrey" d="M822,-504C828,-504 834,-510 834,-516"/>
<path fill="lightgrey" stroke="lightgrey" d="M834,-528C834,-534 828,-540 822,-540"/>
<polyline fill="none" stroke="black" points="822,-540 774,-540 "/>
<path fill="none" stroke="black" d="M774,-540C768,-540 762,-534 762,-528"/>
<polyline fill="none" stroke="black" points="762,-528 762,-516 "/>
<path fill="none" stroke="black" d="M762,-516C762,-510 768,-504 774,-504"/>
<polyline fill="none" stroke="black" points="774,-504 822,-504 "/>
<path fill="none" stroke="black" d="M822,-504C828,-504 834,-510 834,-516"/>
<polyline fill="none" stroke="black" points="834,-516 834,-528 "/>
<path fill="none" stroke="black" d="M834,-528C834,-534 828,-540 822,-540"/>
<text text-anchor="middle" x="798" y="-518.4" font-family="Times Roman,serif" font-size="14.00">DBClass</text>
</g>
<!-- DBClass&#45;&gt;DBInstance -->
<g id="edge56" class="edge"><title>DBClass&#45;&gt;DBInstance</title>
<path fill="none" stroke="black" d="M761.874,-507.462C723.075,-491.813 666.817,-469.006 666,-468 640.611,-436.739 628.951,-317.332 624.836,-262.202"/>
<polygon fill="black" stroke="black" points="628.317,-261.803 624.112,-252.078 621.335,-262.302 628.317,-261.803"/>
</g>
<!-- DBAllocatedStorage -->
<g id="node12" class="node"><title>DBAllocatedStorage</title>
<polygon fill="lightgrey" stroke="lightgrey" points="578,-540 448,-540 436,-528 436,-516 448,-504 578,-504 590,-516 590,-528 578,-540"/>
<path fill="lightgrey" stroke="lightgrey" d="M448,-540C442,-540 436,-534 436,-528"/>
<path fill="lightgrey" stroke="lightgrey" d="M436,-516C436,-510 442,-504 448,-504"/>
<path fill="lightgrey" stroke="lightgrey" d="M578,-504C584,-504 590,-510 590,-516"/>
<path fill="lightgrey" stroke="lightgrey" d="M590,-528C590,-534 584,-540 578,-540"/>
<polyline fill="none" stroke="black" points="578,-540 448,-540 "/>
<path fill="none" stroke="black" d="M448,-540C442,-540 436,-534 436,-528"/>
<polyline fill="none" stroke="black" points="436,-528 436,-516 "/>
<path fill="none" stroke="black" d="M436,-516C436,-510 442,-504 448,-504"/>
<polyline fill="none" stroke="black" points="448,-504 578,-504 "/>
<path fill="none" stroke="black" d="M578,-504C584,-504 590,-510 590,-516"/>
<polyline fill="none" stroke="black" points="590,-516 590,-528 "/>
<path fill="none" stroke="black" d="M590,-528C590,-534 584,-540 578,-540"/>
<text text-anchor="middle" x="513" y="-518.4" font-family="Times Roman,serif" font-size="14.00">DBAllocatedStorage</text>
</g>
<!-- DBAllocatedStorage&#45;&gt;DBInstance -->
<g id="edge54" class="edge"><title>DBAllocatedStorage&#45;&gt;DBInstance</title>
<path fill="none" stroke="black" d="M519.881,-503.984C538.517,-455.193 590.062,-320.238 612.423,-261.693"/>
<polygon fill="black" stroke="black" points="615.823,-262.6 616.122,-252.009 609.284,-260.102 615.823,-262.6"/>
</g>
<!-- InstanceType -->
<g id="node13" class="node"><title>InstanceType</title>
<polygon fill="lightgrey" stroke="lightgrey" points="94,-540 12,-540 3.78956e-14,-528 1.89478e-14,-516 12,-504 94,-504 106,-516 106,-528 94,-540"/>
<path fill="lightgrey" stroke="lightgrey" d="M12,-540C6,-540 4.73695e-14,-534 3.78956e-14,-528"/>
<path fill="lightgrey" stroke="lightgrey" d="M1.89478e-14,-516C9.4739e-15,-510 6,-504 12,-504"/>
<path fill="lightgrey" stroke="lightgrey" d="M94,-504C100,-504 106,-510 106,-516"/>
<path fill="lightgrey" stroke="lightgrey" d="M106,-528C106,-534 100,-540 94,-540"/>
<polyline fill="none" stroke="black" points="94,-540 12,-540 "/>
<path fill="none" stroke="black" d="M12,-540C6,-540 4.73695e-14,-534 3.78956e-14,-528"/>
<polyline fill="none" stroke="black" points="3.78956e-14,-528 1.89478e-14,-516 "/>
<path fill="none" stroke="black" d="M1.89478e-14,-516C9.4739e-15,-510 6,-504 12,-504"/>
<polyline fill="none" stroke="black" points="12,-504 94,-504 "/>
<path fill="none" stroke="black" d="M94,-504C100,-504 106,-510 106,-516"/>
<polyline fill="none" stroke="black" points="106,-516 106,-528 "/>
<path fill="none" stroke="black" d="M106,-528C106,-534 100,-540 94,-540"/>
<text text-anchor="middle" x="53" y="-518.4" font-family="Times Roman,serif" font-size="14.00">InstanceType</text>
</g>
<!-- InstanceType&#45;&gt;LaunchConfig -->
<g id="edge30" class="edge"><title>InstanceType&#45;&gt;LaunchConfig</title>
<path fill="none" stroke="black" d="M53.9149,-503.65C60.1797,-476.562 76,-424.098 76,-378 76,-378 76,-378 76,-306 76,-240.747 131.359,-240.097 192,-216 281.005,-180.631 563.296,-167.712 692.469,-163.641"/>
<polygon fill="black" stroke="black" points="692.732,-167.135 702.62,-163.33 692.517,-160.138 692.732,-167.135"/>
</g>
<!-- InstanceType&#45;&gt;LaunchConfig -->
<g id="edge34" class="edge"><title>InstanceType&#45;&gt;LaunchConfig</title>
<path fill="none" stroke="black" d="M65.6578,-503.65C78.1797,-476.562 94,-424.098 94,-378 94,-378 94,-378 94,-306 94,-240.747 149.359,-240.097 210,-216 296.721,-181.539 566.931,-168.39 692.619,-163.972"/>
<polygon fill="black" stroke="black" points="692.996,-167.462 702.87,-163.62 692.755,-160.466 692.996,-167.462"/>
</g>
<!-- SSHLocation -->
<g id="node14" class="node"><title>SSHLocation</title>
<polygon fill="lightgrey" stroke="lightgrey" points="1068,-540 988,-540 976,-528 976,-516 988,-504 1068,-504 1080,-516 1080,-528 1068,-540"/>
<path fill="lightgrey" stroke="lightgrey" d="M988,-540C982,-540 976,-534 976,-528"/>
<path fill="lightgrey" stroke="lightgrey" d="M976,-516C976,-510 982,-504 988,-504"/>
<path fill="lightgrey" stroke="lightgrey" d="M1068,-504C1074,-504 1080,-510 1080,-516"/>
<path fill="lightgrey" stroke="lightgrey" d="M1080,-528C1080,-534 1074,-540 1068,-540"/>
<polyline fill="none" stroke="black" points="1068,-540 988,-540 "/>
<path fill="none" stroke="black" d="M988,-540C982,-540 976,-534 976,-528"/>
<polyline fill="none" stroke="black" points="976,-528 976,-516 "/>
<path fill="none" stroke="black" d="M976,-516C976,-510 982,-504 988,-504"/>
<polyline fill="none" stroke="black" points="988,-504 1068,-504 "/>
<path fill="none" stroke="black" d="M1068,-504C1074,-504 1080,-510 1080,-516"/>
<polyline fill="none" stroke="black" points="1080,-516 1080,-528 "/>
<path fill="none" stroke="black" d="M1080,-528C1080,-534 1074,-540 1068,-540"/>
<text text-anchor="middle" x="1028" y="-518.4" font-family="Times Roman,serif" font-size="14.00">SSHLocation</text>
</g>
<!-- SSHLocation&#45;&gt;WebServerSecurityGroup -->
<g id="edge10" class="edge"><title>SSHLocation&#45;&gt;WebServerSecurityGroup</title>
<path fill="none" stroke="black" d="M1005.84,-503.762C974.672,-478.119 917.82,-431.337 882.928,-402.626"/>
<polygon fill="black" stroke="black" points="884.93,-399.741 874.984,-396.09 880.482,-405.146 884.93,-399.741"/>
</g>
<!-- KeyName -->
<g id="node15" class="node"><title>KeyName</title>
<polygon fill="lightgrey" stroke="lightgrey" points="192,-540 136,-540 124,-528 124,-516 136,-504 192,-504 204,-516 204,-528 192,-540"/>
<path fill="lightgrey" stroke="lightgrey" d="M136,-540C130,-540 124,-534 124,-528"/>
<path fill="lightgrey" stroke="lightgrey" d="M124,-516C124,-510 130,-504 136,-504"/>
<path fill="lightgrey" stroke="lightgrey" d="M192,-504C198,-504 204,-510 204,-516"/>
<path fill="lightgrey" stroke="lightgrey" d="M204,-528C204,-534 198,-540 192,-540"/>
<polyline fill="none" stroke="black" points="192,-540 136,-540 "/>
<path fill="none" stroke="black" d="M136,-540C130,-540 124,-534 124,-528"/>
<polyline fill="none" stroke="black" points="124,-528 124,-516 "/>
<path fill="none" stroke="black" d="M124,-516C124,-510 130,-504 136,-504"/>
<polyline fill="none" stroke="black" points="136,-504 192,-504 "/>
<path fill="none" stroke="black" d="M192,-504C198,-504 204,-510 204,-516"/>
<polyline fill="none" stroke="black" points="204,-516 204,-528 "/>
<path fill="none" stroke="black" d="M204,-528C204,-534 198,-540 192,-540"/>
<text text-anchor="middle" x="164" y="-518.4" font-family="Times Roman,serif" font-size="14.00">KeyName</text>
</g>
<!-- KeyName&#45;&gt;LaunchConfig -->
<g id="edge26" class="edge"><title>KeyName&#45;&gt;LaunchConfig</title>
<path fill="none" stroke="black" d="M164,-503.815C164,-476.498 164,-423.25 164,-378 164,-378 164,-378 164,-306 164,-198.187 538.265,-170.801 692.632,-164.091"/>
<polygon fill="black" stroke="black" points="693.072,-167.576 702.917,-163.661 692.78,-160.582 693.072,-167.576"/>
</g>
<!-- DBPassword -->
<g id="node16" class="node"><title>DBPassword</title>
<polygon fill="lightgrey" stroke="lightgrey" points="312,-540 234,-540 222,-528 222,-516 234,-504 312,-504 324,-516 324,-528 312,-540"/>
<path fill="lightgrey" stroke="lightgrey" d="M234,-540C228,-540 222,-534 222,-528"/>
<path fill="lightgrey" stroke="lightgrey" d="M222,-516C222,-510 228,-504 234,-504"/>
<path fill="lightgrey" stroke="lightgrey" d="M312,-504C318,-504 324,-510 324,-516"/>
<path fill="lightgrey" stroke="lightgrey" d="M324,-528C324,-534 318,-540 312,-540"/>
<polyline fill="none" stroke="black" points="312,-540 234,-540 "/>
<path fill="none" stroke="black" d="M234,-540C228,-540 222,-534 222,-528"/>
<polyline fill="none" stroke="black" points="222,-528 222,-516 "/>
<path fill="none" stroke="black" d="M222,-516C222,-510 228,-504 234,-504"/>
<polyline fill="none" stroke="black" points="234,-504 312,-504 "/>
<path fill="none" stroke="black" d="M312,-504C318,-504 324,-510 324,-516"/>
<polyline fill="none" stroke="black" points="324,-516 324,-528 "/>
<path fill="none" stroke="black" d="M324,-528C324,-534 318,-540 312,-540"/>
<text text-anchor="middle" x="273" y="-518.4" font-family="Times Roman,serif" font-size="14.00">DBPassword</text>
</g>
<!-- DBPassword&#45;&gt;LaunchConfig -->
<g id="edge42" class="edge"><title>DBPassword&#45;&gt;LaunchConfig</title>
<path fill="none" stroke="black" d="M275.486,-503.855C279.001,-476.59 285,-423.407 285,-378 285,-378 285,-378 285,-306 285,-221.797 562.793,-182.082 692.603,-168.12"/>
<polygon fill="black" stroke="black" points="693.238,-171.572 702.815,-167.042 692.503,-164.611 693.238,-171.572"/>
</g>
<!-- DBPassword&#45;&gt;DBInstance -->
<g id="edge52" class="edge"><title>DBPassword&#45;&gt;DBInstance</title>
<path fill="none" stroke="black" d="M292.413,-503.889C336.041,-463.494 445.724,-363.634 544,-288 557.392,-277.694 572.614,-267.052 586.098,-257.969"/>
<polygon fill="black" stroke="black" points="588.298,-260.708 594.67,-252.244 584.41,-254.887 588.298,-260.708"/>
</g>
<!-- MultiAZDatabase -->
<g id="node17" class="node"><title>MultiAZDatabase</title>
<polygon fill="lightgrey" stroke="lightgrey" points="732,-540 620,-540 608,-528 608,-516 620,-504 732,-504 744,-516 744,-528 732,-540"/>
<path fill="lightgrey" stroke="lightgrey" d="M620,-540C614,-540 608,-534 608,-528"/>
<path fill="lightgrey" stroke="lightgrey" d="M608,-516C608,-510 614,-504 620,-504"/>
<path fill="lightgrey" stroke="lightgrey" d="M732,-504C738,-504 744,-510 744,-516"/>
<path fill="lightgrey" stroke="lightgrey" d="M744,-528C744,-534 738,-540 732,-540"/>
<polyline fill="none" stroke="black" points="732,-540 620,-540 "/>
<path fill="none" stroke="black" d="M620,-540C614,-540 608,-534 608,-528"/>
<polyline fill="none" stroke="black" points="608,-528 608,-516 "/>
<path fill="none" stroke="black" d="M608,-516C608,-510 614,-504 620,-504"/>
<polyline fill="none" stroke="black" points="620,-504 732,-504 "/>
<path fill="none" stroke="black" d="M732,-504C738,-504 744,-510 744,-516"/>
<polyline fill="none" stroke="black" points="744,-516 744,-528 "/>
<path fill="none" stroke="black" d="M744,-528C744,-534 738,-540 732,-540"/>
<text text-anchor="middle" x="676" y="-518.4" font-family="Times Roman,serif" font-size="14.00">MultiAZDatabase</text>
</g>
<!-- MultiAZDatabase&#45;&gt;DBInstance -->
<g id="edge46" class="edge"><title>MultiAZDatabase&#45;&gt;DBInstance</title>
<path fill="none" stroke="black" d="M653.907,-503.854C644.028,-494.327 633.408,-481.778 628,-468 600.581,-398.139 610.123,-307.284 617.566,-262.091"/>
<polygon fill="black" stroke="black" points="621.032,-262.588 619.295,-252.136 614.135,-261.389 621.032,-262.588"/>
</g>
<!-- DBName -->
<g id="node18" class="node"><title>DBName</title>
<polygon fill="lightgrey" stroke="lightgrey" points="406,-540 354,-540 342,-528 342,-516 354,-504 406,-504 418,-516 418,-528 406,-540"/>
<path fill="lightgrey" stroke="lightgrey" d="M354,-540C348,-540 342,-534 342,-528"/>
<path fill="lightgrey" stroke="lightgrey" d="M342,-516C342,-510 348,-504 354,-504"/>
<path fill="lightgrey" stroke="lightgrey" d="M406,-504C412,-504 418,-510 418,-516"/>
<path fill="lightgrey" stroke="lightgrey" d="M418,-528C418,-534 412,-540 406,-540"/>
<polyline fill="none" stroke="black" points="406,-540 354,-540 "/>
<path fill="none" stroke="black" d="M354,-540C348,-540 342,-534 342,-528"/>
<polyline fill="none" stroke="black" points="342,-528 342,-516 "/>
<path fill="none" stroke="black" d="M342,-516C342,-510 348,-504 354,-504"/>
<polyline fill="none" stroke="black" points="354,-504 406,-504 "/>
<path fill="none" stroke="black" d="M406,-504C412,-504 418,-510 418,-516"/>
<polyline fill="none" stroke="black" points="418,-516 418,-528 "/>
<path fill="none" stroke="black" d="M418,-528C418,-534 412,-540 406,-540"/>
<text text-anchor="middle" x="380" y="-518.4" font-family="Times Roman,serif" font-size="14.00">DBName</text>
</g>
<!-- DBName&#45;&gt;LaunchConfig -->
<g id="edge36" class="edge"><title>DBName&#45;&gt;LaunchConfig</title>
<path fill="none" stroke="black" d="M383.108,-503.878C387.502,-476.642 395,-423.495 395,-378 395,-378 395,-378 395,-306 395,-242.619 588.626,-195.008 693.051,-173.939"/>
<polygon fill="black" stroke="black" points="693.745,-177.37 702.868,-171.984 692.377,-170.505 693.745,-177.37"/>
</g>
<!-- DBName&#45;&gt;DBInstance -->
<g id="edge58" class="edge"><title>DBName&#45;&gt;DBInstance</title>
<path fill="none" stroke="black" d="M395.201,-503.984C436.795,-454.688 552.602,-317.434 601.147,-259.899"/>
<polygon fill="black" stroke="black" points="604.031,-261.909 607.805,-252.009 598.681,-257.395 604.031,-261.909"/>
</g>
<!-- WebServerCapacity -->
<g id="node19" class="node"><title>WebServerCapacity</title>
<polygon fill="lightgrey" stroke="lightgrey" points="1270,-540 1142,-540 1130,-528 1130,-516 1142,-504 1270,-504 1282,-516 1282,-528 1270,-540"/>
<path fill="lightgrey" stroke="lightgrey" d="M1142,-540C1136,-540 1130,-534 1130,-528"/>
<path fill="lightgrey" stroke="lightgrey" d="M1130,-516C1130,-510 1136,-504 1142,-504"/>
<path fill="lightgrey" stroke="lightgrey" d="M1270,-504C1276,-504 1282,-510 1282,-516"/>
<path fill="lightgrey" stroke="lightgrey" d="M1282,-528C1282,-534 1276,-540 1270,-540"/>
<polyline fill="none" stroke="black" points="1270,-540 1142,-540 "/>
<path fill="none" stroke="black" d="M1142,-540C1136,-540 1130,-534 1130,-528"/>
<polyline fill="none" stroke="black" points="1130,-528 1130,-516 "/>
<path fill="none" stroke="black" d="M1130,-516C1130,-510 1136,-504 1142,-504"/>
<polyline fill="none" stroke="black" points="1142,-504 1270,-504 "/>
<path fill="none" stroke="black" d="M1270,-504C1276,-504 1282,-510 1282,-516"/>
<polyline fill="none" stroke="black" points="1282,-516 1282,-528 "/>
<path fill="none" stroke="black" d="M1282,-528C1282,-534 1276,-540 1270,-540"/>
<text text-anchor="middle" x="1206" y="-518.4" font-family="Times Roman,serif" font-size="14.00">WebServerCapacity</text>
</g>
<!-- WebServerCapacity&#45;&gt;WebServerGroup -->
<g id="edge12" class="edge"><title>WebServerCapacity&#45;&gt;WebServerGroup</title>
<path fill="none" stroke="black" d="M1206,-503.815C1206,-476.498 1206,-423.25 1206,-378 1206,-378 1206,-378 1206,-234 1206,-193.852 1204.03,-147.445 1202.57,-118.408"/>
<polygon fill="black" stroke="black" points="1206.05,-117.983 1202.04,-108.178 1199.06,-118.347 1206.05,-117.983"/>
</g>
<!-- AWS::StackId -->
<g id="node30" class="node"><title>AWS::StackId</title>
<polygon fill="none" stroke="black" points="1077,-396 967,-396 967,-360 1077,-360 1077,-396"/>
<text text-anchor="middle" x="1022" y="-374.4" font-family="Times Roman,serif" font-size="14.00">AWS::StackId</text>
</g>
<!-- AWS::StackId&#45;&gt;LaunchConfig -->
<g id="edge20" class="edge"><title>AWS::StackId&#45;&gt;LaunchConfig</title>
<path fill="none" stroke="black" d="M1011.03,-359.75C990.461,-326.912 943.096,-257.44 887,-216 867.778,-201.8 844.266,-190.536 822.604,-182.05"/>
<polygon fill="black" stroke="black" points="823.721,-178.731 813.13,-178.465 821.244,-185.278 823.721,-178.731"/>
</g>
<!-- AWS::Region -->
<g id="node32" class="node"><title>AWS::Region</title>
<polygon fill="none" stroke="black" points="850,-252 746,-252 746,-216 850,-216 850,-252"/>
<text text-anchor="middle" x="798" y="-230.4" font-family="Times Roman,serif" font-size="14.00">AWS::Region</text>
</g>
<!-- AWS::Region&#45;&gt;LaunchConfig -->
<g id="edge32" class="edge"><title>AWS::Region&#45;&gt;LaunchConfig</title>
<path fill="none" stroke="black" d="M781.954,-215.831C776.76,-207.877 771.267,-198.369 766.735,-189.572"/>
<polygon fill="black" stroke="black" points="769.793,-187.857 762.254,-180.413 763.505,-190.934 769.793,-187.857"/>
</g>
<!-- AWS::Region&#45;&gt;LaunchConfig -->
<g id="edge22" class="edge"><title>AWS::Region&#45;&gt;LaunchConfig</title>
<path fill="none" stroke="black" d="M793.859,-215.831C790.137,-207.708 784.926,-197.964 779.566,-189.012"/>
<polygon fill="black" stroke="black" points="782.466,-187.048 774.206,-180.413 776.526,-190.751 782.466,-187.048"/>
</g>
</g>
</svg>
