<?xml version="1.0" encoding="UTF-8" standalone="no"?>
<!DOCTYPE svg PUBLIC "-//W3C//DTD SVG 1.1//EN"
 "http://www.w3.org/Graphics/SVG/1.1/DTD/svg11.dtd">
<!-- Generated by graphviz version 2.26.3 (20100126.1600)
 -->
<!-- Title: AWS CloudFormation Sample Template UpdateTutorial Part 4: Sample template that can be used to test EC2 updates. **WARNING** This template creates an Amazon Ec2 Instance. You will be billed for the AWS resources used if you create a stack from this template. Pages: 1 -->
<svg width="826pt" height="332pt"
 viewBox="0.00 0.00 826.00 332.00" xmlns="http://www.w3.org/2000/svg" xmlns:xlink="http://www.w3.org/1999/xlink">
<g id="graph1" class="graph" transform="scale(1 1) rotate(0) translate(4 328)">
<title>AWS CloudFormation Sample Template UpdateTutorial Part 4: Sample template that can be used to test EC2 updates. **WARNING** This template creates an Amazon Ec2 Instance. You will be billed for the AWS resources used if you create a stack from this template.</title>
<polygon fill="white" stroke="white" points="-4,5 -4,-328 823,-328 823,5 -4,5"/>
<!-- WebServerHost -->
<g id="node1" class="node"><title>WebServerHost</title>
<polygon fill="none" stroke="black" points="504,-180 380,-180 380,-144 504,-144 504,-180"/>
<text text-anchor="middle" x="442" y="-158.4" font-family="Times Roman,serif" font-size="14.00">WebServerHost</text>
</g>
<!-- Endpoint -->
<g id="node2" class="node"><title>Endpoint</title>
<polygon fill="none" stroke="black" points="481,-108 403,-108 403,-72 481,-72 481,-108"/>
<text text-anchor="middle" x="442" y="-86.4" font-family="Times Roman,serif" font-size="14.00">Endpoint</text>
</g>
<!-- WebServerHost&#45;&gt;Endpoint -->
<g id="edge30" class="edge"><title>WebServerHost&#45;&gt;Endpoint</title>
<path fill="none" stroke="black" d="M442,-143.831C442,-136.131 442,-126.974 442,-118.417"/>
<polygon fill="black" stroke="black" points="445.5,-118.413 442,-108.413 438.5,-118.413 445.5,-118.413"/>
</g>
<!-- WebsiteURL -->
<g id="node11" class="node"><title>WebsiteURL</title>
<polygon fill="lightgrey" stroke="lightgrey" points="480,-36 404,-36 392,-24 392,-12 404,-1.60583e-14 480,-5.25802e-15 492,-12 492,-24 480,-36"/>
<path fill="lightgrey" stroke="lightgrey" d="M404,-36C398,-36 392,-30 392,-24"/>
<path fill="lightgrey" stroke="lightgrey" d="M392,-12C392,-6 398,-1.69109e-14 404,-1.60583e-14"/>
<path fill="lightgrey" stroke="lightgrey" d="M480,-5.25802e-15C486,-4.40536e-15 492,-6 492,-12"/>
<path fill="lightgrey" stroke="lightgrey" d="M492,-24C492,-30 486,-36 480,-36"/>
<polyline fill="none" stroke="black" points="480,-36 404,-36 "/>
<path fill="none" stroke="black" d="M404,-36C398,-36 392,-30 392,-24"/>
<polyline fill="none" stroke="black" points="392,-24 392,-12 "/>
<path fill="none" stroke="black" d="M392,-12C392,-6 398,-1.69109e-14 404,-1.60583e-14"/>
<polyline fill="none" stroke="black" points="404,-1.60583e-14 480,-5.25802e-15 "/>
<path fill="none" stroke="black" d="M480,-5.25802e-15C486,-4.40536e-15 492,-6 492,-12"/>
<polyline fill="none" stroke="black" points="492,-12 492,-24 "/>
<path fill="none" stroke="black" d="M492,-24C492,-30 486,-36 480,-36"/>
<text text-anchor="middle" x="442" y="-14.4" font-family="Times Roman,serif" font-size="14.00">WebsiteURL</text>
</g>
<!-- Endpoint&#45;&gt;WebsiteURL -->
<g id="edge36" class="edge"><title>Endpoint&#45;&gt;WebsiteURL</title>
<path fill="none" stroke="black" d="M442,-71.8314C442,-64.131 442,-54.9743 442,-46.4166"/>
<polygon fill="black" stroke="black" points="445.5,-46.4132 442,-36.4133 438.5,-46.4133 445.5,-46.4132"/>
</g>
<!-- WebServerSecurityGroup -->
<g id="node3" class="node"><title>WebServerSecurityGroup</title>
<polygon fill="none" stroke="black" points="192,-252 7.10543e-14,-252 0,-216 192,-216 192,-252"/>
<text text-anchor="middle" x="96" y="-230.4" font-family="Times Roman,serif" font-size="14.00">WebServerSecurityGroup</text>
</g>
<!-- WebServerSecurityGroup&#45;&gt;WebServerHost -->
<g id="edge14" class="edge"><title>WebServerSecurityGroup&#45;&gt;WebServerHost</title>
<path fill="none" stroke="black" d="M182.864,-215.924C240.624,-203.905 315.582,-188.307 370.01,-176.98"/>
<polygon fill="black" stroke="black" points="370.848,-180.381 379.926,-174.917 369.422,-173.528 370.848,-180.381"/>
</g>
<!-- WebServerWaitHandle -->
<g id="node4" class="node"><title>WebServerWaitHandle</title>
<polygon fill="none" stroke="black" points="809,-252 637,-252 637,-216 809,-216 809,-252"/>
<text text-anchor="middle" x="723" y="-230.4" font-family="Times Roman,serif" font-size="14.00">WebServerWaitHandle</text>
</g>
<!-- WebServerWaitHandle&#45;&gt;WebServerHost -->
<g id="edge4" class="edge"><title>WebServerWaitHandle&#45;&gt;WebServerHost</title>
<path fill="none" stroke="black" d="M646.511,-215.924C605.248,-205.611 554.654,-192.662 514.086,-182.039"/>
<polygon fill="black" stroke="black" points="514.828,-178.615 504.267,-179.461 513.05,-185.386 514.828,-178.615"/>
</g>
<!-- WebServerWaitHandle&#45;&gt;WebServerHost -->
<g id="edge10" class="edge"><title>WebServerWaitHandle&#45;&gt;WebServerHost</title>
<path fill="none" stroke="black" d="M658.398,-215.924C615.374,-204.616 558.841,-190.14 514.317,-179.034"/>
<polygon fill="black" stroke="black" points="514.982,-175.593 504.432,-176.575 513.292,-182.386 514.982,-175.593"/>
</g>
<!-- WebServerWaitCondition -->
<g id="node5" class="node"><title>WebServerWaitCondition</title>
<polygon fill="none" stroke="black" points="818,-108 628,-108 628,-72 818,-72 818,-108"/>
<text text-anchor="middle" x="723" y="-86.4" font-family="Times Roman,serif" font-size="14.00">WebServerWaitCondition</text>
</g>
<!-- WebServerWaitHandle&#45;&gt;WebServerWaitCondition -->
<g id="edge34" class="edge"><title>WebServerWaitHandle&#45;&gt;WebServerWaitCondition</title>
<path fill="none" stroke="black" d="M723,-215.762C723,-191.201 723,-147.247 723,-118.354"/>
<polygon fill="black" stroke="black" points="726.5,-118.09 723,-108.09 719.5,-118.09 726.5,-118.09"/>
</g>
<!-- SSHLocation -->
<g id="node7" class="node"><title>SSHLocation</title>
<polygon fill="lightgrey" stroke="lightgrey" points="124,-324 44,-324 32,-312 32,-300 44,-288 124,-288 136,-300 136,-312 124,-324"/>
<path fill="lightgrey" stroke="lightgrey" d="M44,-324C38,-324 32,-318 32,-312"/>
<path fill="lightgrey" stroke="lightgrey" d="M32,-300C32,-294 38,-288 44,-288"/>
<path fill="lightgrey" stroke="lightgrey" d="M124,-288C130,-288 136,-294 136,-300"/>
<path fill="lightgrey" stroke="lightgrey" d="M136,-312C136,-318 130,-324 124,-324"/>
<polyline fill="none" stroke="black" points="124,-324 44,-324 "/>
<path fill="none" stroke="black" d="M44,-324C38,-324 32,-318 32,-312"/>
<polyline fill="none" stroke="black" points="32,-312 32,-300 "/>
<path fill="none" stroke="black" d="M32,-300C32,-294 38,-288 44,-288"/>
<polyline fill="none" stroke="black" points="44,-288 124,-288 "/>
<path fill="none" stroke="black" d="M124,-288C130,-288 136,-294 136,-300"/>
<polyline fill="none" stroke="black" points="136,-300 136,-312 "/>
<path fill="none" stroke="black" d="M136,-312C136,-318 130,-324 124,-324"/>
<text text-anchor="middle" x="84" y="-302.4" font-family="Times Roman,serif" font-size="14.00">SSHLocation</text>
</g>
<!-- SSHLocation&#45;&gt;WebServerSecurityGroup -->
<g id="edge32" class="edge"><title>SSHLocation&#45;&gt;WebServerSecurityGroup</title>
<path fill="none" stroke="black" d="M87.0281,-287.831C88.3115,-280.131 89.8376,-270.974 91.2639,-262.417"/>
<polygon fill="black" stroke="black" points="94.7394,-262.853 92.9311,-252.413 87.8347,-261.702 94.7394,-262.853"/>
</g>
<!-- WebServerKeyName -->
<g id="node8" class="node"><title>WebServerKeyName</title>
<polygon fill="lightgrey" stroke="lightgrey" points="300,-324 166,-324 154,-312 154,-300 166,-288 300,-288 312,-300 312,-312 300,-324"/>
<path fill="lightgrey" stroke="lightgrey" d="M166,-324C160,-324 154,-318 154,-312"/>
<path fill="lightgrey" stroke="lightgrey" d="M154,-300C154,-294 160,-288 166,-288"/>
<path fill="lightgrey" stroke="lightgrey" d="M300,-288C306,-288 312,-294 312,-300"/>
<path fill="lightgrey" stroke="lightgrey" d="M312,-312C312,-318 306,-324 300,-324"/>
<polyline fill="none" stroke="black" points="300,-324 166,-324 "/>
<path fill="none" stroke="black" d="M166,-324C160,-324 154,-318 154,-312"/>
<polyline fill="none" stroke="black" points="154,-312 154,-300 "/>
<path fill="none" stroke="black" d="M154,-300C154,-294 160,-288 166,-288"/>
<polyline fill="none" stroke="black" points="166,-288 300,-288 "/>
<path fill="none" stroke="black" d="M300,-288C306,-288 312,-294 312,-300"/>
<polyline fill="none" stroke="black" points="312,-300 312,-312 "/>
<path fill="none" stroke="black" d="M312,-312C312,-318 306,-324 300,-324"/>
<text text-anchor="middle" x="233" y="-302.4" font-family="Times Roman,serif" font-size="14.00">WebServerKeyName</text>
</g>
<!-- WebServerKeyName&#45;&gt;WebServerHost -->
<g id="edge12" class="edge"><title>WebServerKeyName&#45;&gt;WebServerHost</title>
<path fill="none" stroke="black" d="M259.47,-287.762C297.002,-261.903 365.735,-214.546 407.307,-185.903"/>
<polygon fill="black" stroke="black" points="409.496,-188.645 415.745,-180.09 405.524,-182.881 409.496,-188.645"/>
</g>
<!-- WebServerInstanceType -->
<g id="node9" class="node"><title>WebServerInstanceType</title>
<polygon fill="lightgrey" stroke="lightgrey" points="500,-324 342,-324 330,-312 330,-300 342,-288 500,-288 512,-300 512,-312 500,-324"/>
<path fill="lightgrey" stroke="lightgrey" d="M342,-324C336,-324 330,-318 330,-312"/>
<path fill="lightgrey" stroke="lightgrey" d="M330,-300C330,-294 336,-288 342,-288"/>
<path fill="lightgrey" stroke="lightgrey" d="M500,-288C506,-288 512,-294 512,-300"/>
<path fill="lightgrey" stroke="lightgrey" d="M512,-312C512,-318 506,-324 500,-324"/>
<polyline fill="none" stroke="black" points="500,-324 342,-324 "/>
<path fill="none" stroke="black" d="M342,-324C336,-324 330,-318 330,-312"/>
<polyline fill="none" stroke="black" points="330,-312 330,-300 "/>
<path fill="none" stroke="black" d="M330,-300C330,-294 336,-288 342,-288"/>
<polyline fill="none" stroke="black" points="342,-288 500,-288 "/>
<path fill="none" stroke="black" d="M500,-288C506,-288 512,-294 512,-300"/>
<polyline fill="none" stroke="black" points="512,-300 512,-312 "/>
<path fill="none" stroke="black" d="M512,-312C512,-318 506,-324 500,-324"/>
<text text-anchor="middle" x="421" y="-302.4" font-family="Times Roman,serif" font-size="14.00">WebServerInstanceType</text>
</g>
<!-- WebServerInstanceType&#45;&gt;WebServerHost -->
<g id="edge16" class="edge"><title>WebServerInstanceType&#45;&gt;WebServerHost</title>
<path fill="none" stroke="black" d="M393.431,-287.966C383.49,-278.289 373.745,-265.576 369,-252 363.721,-236.896 362.258,-230.51 369,-216 374.414,-204.349 383.717,-194.306 393.949,-186.151"/>
<polygon fill="black" stroke="black" points="396.309,-188.76 402.298,-180.02 392.166,-183.118 396.309,-188.76"/>
</g>
<!-- WebServerInstanceType&#45;&gt;WebServerHost -->
<g id="edge20" class="edge"><title>WebServerInstanceType&#45;&gt;WebServerHost</title>
<path fill="none" stroke="black" d="M409.577,-287.966C401.49,-278.289 391.745,-265.576 387,-252 381.721,-236.896 380.258,-230.51 387,-216 392.36,-204.464 401.533,-194.505 410.927,-186.393"/>
<polygon fill="black" stroke="black" points="413.225,-189.036 418.79,-180.02 408.818,-183.597 413.225,-189.036"/>
</g>
<!-- AWS::StackId -->
<g id="node13" class="node"><title>AWS::StackId</title>
<polygon fill="none" stroke="black" points="497,-252 387,-252 387,-216 497,-216 497,-252"/>
<text text-anchor="middle" x="442" y="-230.4" font-family="Times Roman,serif" font-size="14.00">AWS::StackId</text>
</g>
<!-- AWS::StackId&#45;&gt;WebServerHost -->
<g id="edge6" class="edge"><title>AWS::StackId&#45;&gt;WebServerHost</title>
<path fill="none" stroke="black" d="M430.095,-215.831C428.594,-208.131 428.153,-198.974 428.77,-190.417"/>
<polygon fill="black" stroke="black" points="432.252,-190.776 430.048,-180.413 425.309,-189.889 432.252,-190.776"/>
</g>
<!-- AWS::StackId&#45;&gt;WebServerHost -->
<g id="edge26" class="edge"><title>AWS::StackId&#45;&gt;WebServerHost</title>
<path fill="none" stroke="black" d="M453.905,-215.831C455.406,-208.131 455.847,-198.974 455.23,-190.417"/>
<polygon fill="black" stroke="black" points="458.691,-189.889 453.952,-180.413 451.748,-190.776 458.691,-189.889"/>
</g>
<!-- AWS::StackId&#45;&gt;WebServerHost -->
<g id="edge22" class="edge"><title>AWS::StackId&#45;&gt;WebServerHost</title>
<path fill="none" stroke="black" d="M442,-215.831C442,-208.131 442,-198.974 442,-190.417"/>
<polygon fill="black" stroke="black" points="445.5,-190.413 442,-180.413 438.5,-190.413 445.5,-190.413"/>
</g>
<!-- AWS::Region -->
<g id="node15" class="node"><title>AWS::Region</title>
<polygon fill="none" stroke="black" points="619,-252 515,-252 515,-216 619,-216 619,-252"/>
<text text-anchor="middle" x="567" y="-230.4" font-family="Times Roman,serif" font-size="14.00">AWS::Region</text>
</g>
<!-- AWS::Region&#45;&gt;WebServerHost -->
<g id="edge24" class="edge"><title>AWS::Region&#45;&gt;WebServerHost</title>
<path fill="none" stroke="black" d="M517.6,-215.831C499.092,-206.707 479.266,-195.539 464.055,-185.745"/>
<polygon fill="black" stroke="black" points="465.94,-182.795 455.677,-180.163 462.058,-188.62 465.94,-182.795"/>
</g>
<!-- AWS::Region&#45;&gt;WebServerHost -->
<g id="edge28" class="edge"><title>AWS::Region&#45;&gt;WebServerHost</title>
<path fill="none" stroke="black" d="M553.314,-215.831C539.659,-206.373 519.792,-194.718 500.327,-184.674"/>
<polygon fill="black" stroke="black" points="501.64,-181.416 491.135,-180.038 498.488,-187.666 501.64,-181.416"/>
</g>
<!-- AWS::Region&#45;&gt;WebServerHost -->
<g id="edge8" class="edge"><title>AWS::Region&#45;&gt;WebServerHost</title>
<path fill="none" stroke="black" d="M529.505,-215.831C512.619,-206.622 492.875,-195.33 476.375,-185.471"/>
<polygon fill="black" stroke="black" points="477.951,-182.334 467.581,-180.163 474.334,-188.327 477.951,-182.334"/>
</g>
<!-- AWS::Region&#45;&gt;WebServerHost -->
<g id="edge18" class="edge"><title>AWS::Region&#45;&gt;WebServerHost</title>
<path fill="none" stroke="black" d="M541.41,-215.831C526.179,-206.537 506.494,-195.121 488.628,-185.197"/>
<polygon fill="black" stroke="black" points="489.933,-181.92 479.485,-180.163 486.556,-188.052 489.933,-181.92"/>
</g>
</g>
</svg>
