<?xml version="1.0" encoding="UTF-8" standalone="no"?>
<!DOCTYPE svg PUBLIC "-//W3C//DTD SVG 1.1//EN"
 "http://www.w3.org/Graphics/SVG/1.1/DTD/svg11.dtd">
<!-- Generated by graphviz version 2.26.3 (20100126.1600)
 -->
<!-- Title: AWS CloudFormation Sample Template VPC_RDS_DB_Instance: Sample template showing how to create an RDS DBInstance in an existing Virtual Private Cloud (VPC). **WARNING** This template creates an Amazon Relational Database Service database instance. You will be billed for the AWS resources used if you create a stack from this template. Pages: 1 -->
<svg width="809pt" height="260pt"
 viewBox="0.00 0.00 809.00 260.00" xmlns="http://www.w3.org/2000/svg" xmlns:xlink="http://www.w3.org/1999/xlink">
<g id="graph1" class="graph" transform="scale(1 1) rotate(0) translate(4 256)">
<title>AWS CloudFormation Sample Template VPC_RDS_DB_Instance: Sample template showing how to create an RDS DBInstance in an existing Virtual Private Cloud (VPC). **WARNING** This template creates an Amazon Relational Database Service database instance. You will be billed for the AWS resources used if you create a stack from this template.</title>
<polygon fill="white" stroke="white" points="-4,5 -4,-256 806,-256 806,5 -4,5"/>
<!-- MyDBSecurityGroup -->
<g id="node1" class="node"><title>MyDBSecurityGroup</title>
<polygon fill="none" stroke="black" points="801,-180 643,-180 643,-144 801,-144 801,-180"/>
<text text-anchor="middle" x="722" y="-158.4" font-family="Times Roman,serif" font-size="14.00">MyDBSecurityGroup</text>
</g>
<!-- MyDB -->
<g id="node3" class="node"><title>MyDB</title>
<polygon fill="none" stroke="black" points="342,-108 284,-108 284,-72 342,-72 342,-108"/>
<text text-anchor="middle" x="313" y="-86.4" font-family="Times Roman,serif" font-size="14.00">MyDB</text>
</g>
<!-- MyDBSecurityGroup&#45;&gt;MyDB -->
<g id="edge8" class="edge"><title>MyDBSecurityGroup&#45;&gt;MyDB</title>
<path fill="none" stroke="black" d="M642.874,-146.563C638.182,-145.686 633.53,-144.825 629,-144 529.567,-125.884 412.192,-106.297 352.365,-96.4419"/>
<polygon fill="black" stroke="black" points="352.662,-92.944 342.227,-94.7745 351.526,-99.8511 352.662,-92.944"/>
</g>
<!-- MyDBSubnetGroup -->
<g id="node2" class="node"><title>MyDBSubnetGroup</title>
<polygon fill="none" stroke="black" points="254,-180 104,-180 104,-144 254,-144 254,-180"/>
<text text-anchor="middle" x="179" y="-158.4" font-family="Times Roman,serif" font-size="14.00">MyDBSubnetGroup</text>
</g>
<!-- MyDBSubnetGroup&#45;&gt;MyDB -->
<g id="edge18" class="edge"><title>MyDBSubnetGroup&#45;&gt;MyDB</title>
<path fill="none" stroke="black" d="M212.814,-143.831C231.689,-133.69 255.264,-121.022 274.804,-110.523"/>
<polygon fill="black" stroke="black" points="276.596,-113.534 283.748,-105.717 273.283,-107.367 276.596,-113.534"/>
</g>
<!-- JDBCConnectionString -->
<g id="node13" class="node"><title>JDBCConnectionString</title>
<polygon fill="lightgrey" stroke="lightgrey" points="387,-36 239,-36 227,-24 227,-12 239,-1.67721e-14 387,-4.54417e-15 399,-12 399,-24 387,-36"/>
<path fill="lightgrey" stroke="lightgrey" d="M239,-36C233,-36 227,-30 227,-24"/>
<path fill="lightgrey" stroke="lightgrey" d="M227,-12C227,-6 233,-1.72678e-14 239,-1.67721e-14"/>
<path fill="lightgrey" stroke="lightgrey" d="M387,-4.54417e-15C393,-4.04844e-15 399,-6 399,-12"/>
<path fill="lightgrey" stroke="lightgrey" d="M399,-24C399,-30 393,-36 387,-36"/>
<polyline fill="none" stroke="black" points="387,-36 239,-36 "/>
<path fill="none" stroke="black" d="M239,-36C233,-36 227,-30 227,-24"/>
<polyline fill="none" stroke="black" points="227,-24 227,-12 "/>
<path fill="none" stroke="black" d="M227,-12C227,-6 233,-1.72678e-14 239,-1.67721e-14"/>
<polyline fill="none" stroke="black" points="239,-1.67721e-14 387,-4.54417e-15 "/>
<path fill="none" stroke="black" d="M387,-4.54417e-15C393,-4.04844e-15 399,-6 399,-12"/>
<polyline fill="none" stroke="black" points="399,-12 399,-24 "/>
<path fill="none" stroke="black" d="M399,-24C399,-30 393,-36 387,-36"/>
<text text-anchor="middle" x="313" y="-14.4" font-family="Times Roman,serif" font-size="14.00">JDBCConnectionString</text>
</g>
<!-- MyDB&#45;&gt;JDBCConnectionString -->
<g id="edge24" class="edge"><title>MyDB&#45;&gt;JDBCConnectionString</title>
<path fill="none" stroke="black" d="M307.048,-71.8314C306.297,-64.131 306.076,-54.9743 306.385,-46.4166"/>
<polygon fill="black" stroke="black" points="309.879,-46.6161 307.024,-36.4133 302.893,-46.1697 309.879,-46.6161"/>
</g>
<!-- MyDB&#45;&gt;JDBCConnectionString -->
<g id="edge22" class="edge"><title>MyDB&#45;&gt;JDBCConnectionString</title>
<path fill="none" stroke="black" d="M318.952,-71.8314C319.703,-64.131 319.924,-54.9743 319.615,-46.4166"/>
<polygon fill="black" stroke="black" points="323.107,-46.1697 318.976,-36.4133 316.121,-46.6161 323.107,-46.1697"/>
</g>
<!-- DBUsername -->
<g id="node5" class="node"><title>DBUsername</title>
<polygon fill="lightgrey" stroke="lightgrey" points="278,-252 196,-252 184,-240 184,-228 196,-216 278,-216 290,-228 290,-240 278,-252"/>
<path fill="lightgrey" stroke="lightgrey" d="M196,-252C190,-252 184,-246 184,-240"/>
<path fill="lightgrey" stroke="lightgrey" d="M184,-228C184,-222 190,-216 196,-216"/>
<path fill="lightgrey" stroke="lightgrey" d="M278,-216C284,-216 290,-222 290,-228"/>
<path fill="lightgrey" stroke="lightgrey" d="M290,-240C290,-246 284,-252 278,-252"/>
<polyline fill="none" stroke="black" points="278,-252 196,-252 "/>
<path fill="none" stroke="black" d="M196,-252C190,-252 184,-246 184,-240"/>
<polyline fill="none" stroke="black" points="184,-240 184,-228 "/>
<path fill="none" stroke="black" d="M184,-228C184,-222 190,-216 196,-216"/>
<polyline fill="none" stroke="black" points="196,-216 278,-216 "/>
<path fill="none" stroke="black" d="M278,-216C284,-216 290,-222 290,-228"/>
<polyline fill="none" stroke="black" points="290,-228 290,-240 "/>
<path fill="none" stroke="black" d="M290,-240C290,-246 284,-252 278,-252"/>
<text text-anchor="middle" x="237" y="-230.4" font-family="Times Roman,serif" font-size="14.00">DBUsername</text>
</g>
<!-- DBUsername&#45;&gt;MyDB -->
<g id="edge10" class="edge"><title>DBUsername&#45;&gt;MyDB</title>
<path fill="none" stroke="black" d="M246.625,-215.762C259.76,-190.876 283.401,-146.082 298.636,-117.216"/>
<polygon fill="black" stroke="black" points="301.88,-118.567 303.453,-108.09 295.69,-115.3 301.88,-118.567"/>
</g>
<!-- Subnets -->
<g id="node6" class="node"><title>Subnets</title>
<polygon fill="lightgrey" stroke="lightgrey" points="154,-252 106,-252 94,-240 94,-228 106,-216 154,-216 166,-228 166,-240 154,-252"/>
<path fill="lightgrey" stroke="lightgrey" d="M106,-252C100,-252 94,-246 94,-240"/>
<path fill="lightgrey" stroke="lightgrey" d="M94,-228C94,-222 100,-216 106,-216"/>
<path fill="lightgrey" stroke="lightgrey" d="M154,-216C160,-216 166,-222 166,-228"/>
<path fill="lightgrey" stroke="lightgrey" d="M166,-240C166,-246 160,-252 154,-252"/>
<polyline fill="none" stroke="black" points="154,-252 106,-252 "/>
<path fill="none" stroke="black" d="M106,-252C100,-252 94,-246 94,-240"/>
<polyline fill="none" stroke="black" points="94,-240 94,-228 "/>
<path fill="none" stroke="black" d="M94,-228C94,-222 100,-216 106,-216"/>
<polyline fill="none" stroke="black" points="106,-216 154,-216 "/>
<path fill="none" stroke="black" d="M154,-216C160,-216 166,-222 166,-228"/>
<polyline fill="none" stroke="black" points="166,-228 166,-240 "/>
<path fill="none" stroke="black" d="M166,-240C166,-246 160,-252 154,-252"/>
<text text-anchor="middle" x="130" y="-230.4" font-family="Times Roman,serif" font-size="14.00">Subnets</text>
</g>
<!-- Subnets&#45;&gt;MyDBSubnetGroup -->
<g id="edge6" class="edge"><title>Subnets&#45;&gt;MyDBSubnetGroup</title>
<path fill="none" stroke="black" d="M142.365,-215.831C147.951,-207.623 154.663,-197.761 160.807,-188.732"/>
<polygon fill="black" stroke="black" points="163.736,-190.65 166.469,-180.413 157.949,-186.711 163.736,-190.65"/>
</g>
<!-- VpcId -->
<g id="node7" class="node"><title>VpcId</title>
<polygon fill="lightgrey" stroke="lightgrey" points="737,-252 707,-252 695,-240 695,-228 707,-216 737,-216 749,-228 749,-240 737,-252"/>
<path fill="lightgrey" stroke="lightgrey" d="M707,-252C701,-252 695,-246 695,-240"/>
<path fill="lightgrey" stroke="lightgrey" d="M695,-228C695,-222 701,-216 707,-216"/>
<path fill="lightgrey" stroke="lightgrey" d="M737,-216C743,-216 749,-222 749,-228"/>
<path fill="lightgrey" stroke="lightgrey" d="M749,-240C749,-246 743,-252 737,-252"/>
<polyline fill="none" stroke="black" points="737,-252 707,-252 "/>
<path fill="none" stroke="black" d="M707,-252C701,-252 695,-246 695,-240"/>
<polyline fill="none" stroke="black" points="695,-240 695,-228 "/>
<path fill="none" stroke="black" d="M695,-228C695,-222 701,-216 707,-216"/>
<polyline fill="none" stroke="black" points="707,-216 737,-216 "/>
<path fill="none" stroke="black" d="M737,-216C743,-216 749,-222 749,-228"/>
<polyline fill="none" stroke="black" points="749,-228 749,-240 "/>
<path fill="none" stroke="black" d="M749,-240C749,-246 743,-252 737,-252"/>
<text text-anchor="middle" x="722" y="-230.4" font-family="Times Roman,serif" font-size="14.00">VpcId</text>
</g>
<!-- VpcId&#45;&gt;MyDBSecurityGroup -->
<g id="edge4" class="edge"><title>VpcId&#45;&gt;MyDBSecurityGroup</title>
<path fill="none" stroke="black" d="M722,-215.831C722,-208.131 722,-198.974 722,-190.417"/>
<polygon fill="black" stroke="black" points="725.5,-190.413 722,-180.413 718.5,-190.413 725.5,-190.413"/>
</g>
<!-- DBClass -->
<g id="node8" class="node"><title>DBClass</title>
<polygon fill="lightgrey" stroke="lightgrey" points="368,-252 320,-252 308,-240 308,-228 320,-216 368,-216 380,-228 380,-240 368,-252"/>
<path fill="lightgrey" stroke="lightgrey" d="M320,-252C314,-252 308,-246 308,-240"/>
<path fill="lightgrey" stroke="lightgrey" d="M308,-228C308,-222 314,-216 320,-216"/>
<path fill="lightgrey" stroke="lightgrey" d="M368,-216C374,-216 380,-222 380,-228"/>
<path fill="lightgrey" stroke="lightgrey" d="M380,-240C380,-246 374,-252 368,-252"/>
<polyline fill="none" stroke="black" points="368,-252 320,-252 "/>
<path fill="none" stroke="black" d="M320,-252C314,-252 308,-246 308,-240"/>
<polyline fill="none" stroke="black" points="308,-240 308,-228 "/>
<path fill="none" stroke="black" d="M308,-228C308,-222 314,-216 320,-216"/>
<polyline fill="none" stroke="black" points="320,-216 368,-216 "/>
<path fill="none" stroke="black" d="M368,-216C374,-216 380,-222 380,-228"/>
<polyline fill="none" stroke="black" points="380,-228 380,-240 "/>
<path fill="none" stroke="black" d="M380,-240C380,-246 374,-252 368,-252"/>
<text text-anchor="middle" x="344" y="-230.4" font-family="Times Roman,serif" font-size="14.00">DBClass</text>
</g>
<!-- DBClass&#45;&gt;MyDB -->
<g id="edge16" class="edge"><title>DBClass&#45;&gt;MyDB</title>
<path fill="none" stroke="black" d="M340.074,-215.762C334.763,-191.093 325.241,-146.86 319.022,-117.973"/>
<polygon fill="black" stroke="black" points="322.421,-117.129 316.894,-108.09 315.577,-118.602 322.421,-117.129"/>
</g>
<!-- DBAllocatedStorage -->
<g id="node9" class="node"><title>DBAllocatedStorage</title>
<polygon fill="lightgrey" stroke="lightgrey" points="540,-252 410,-252 398,-240 398,-228 410,-216 540,-216 552,-228 552,-240 540,-252"/>
<path fill="lightgrey" stroke="lightgrey" d="M410,-252C404,-252 398,-246 398,-240"/>
<path fill="lightgrey" stroke="lightgrey" d="M398,-228C398,-222 404,-216 410,-216"/>
<path fill="lightgrey" stroke="lightgrey" d="M540,-216C546,-216 552,-222 552,-228"/>
<path fill="lightgrey" stroke="lightgrey" d="M552,-240C552,-246 546,-252 540,-252"/>
<polyline fill="none" stroke="black" points="540,-252 410,-252 "/>
<path fill="none" stroke="black" d="M410,-252C404,-252 398,-246 398,-240"/>
<polyline fill="none" stroke="black" points="398,-240 398,-228 "/>
<path fill="none" stroke="black" d="M398,-228C398,-222 404,-216 410,-216"/>
<polyline fill="none" stroke="black" points="410,-216 540,-216 "/>
<path fill="none" stroke="black" d="M540,-216C546,-216 552,-222 552,-228"/>
<polyline fill="none" stroke="black" points="552,-228 552,-240 "/>
<path fill="none" stroke="black" d="M552,-240C552,-246 546,-252 540,-252"/>
<text text-anchor="middle" x="475" y="-230.4" font-family="Times Roman,serif" font-size="14.00">DBAllocatedStorage</text>
</g>
<!-- DBAllocatedStorage&#45;&gt;MyDB -->
<g id="edge14" class="edge"><title>DBAllocatedStorage&#45;&gt;MyDB</title>
<path fill="none" stroke="black" d="M454.483,-215.762C425.756,-190.227 373.448,-143.732 341.114,-114.991"/>
<polygon fill="black" stroke="black" points="343.15,-112.117 333.351,-108.09 338.5,-117.349 343.15,-112.117"/>
</g>
<!-- DBPassword -->
<g id="node10" class="node"><title>DBPassword</title>
<polygon fill="lightgrey" stroke="lightgrey" points="660,-252 582,-252 570,-240 570,-228 582,-216 660,-216 672,-228 672,-240 660,-252"/>
<path fill="lightgrey" stroke="lightgrey" d="M582,-252C576,-252 570,-246 570,-240"/>
<path fill="lightgrey" stroke="lightgrey" d="M570,-228C570,-222 576,-216 582,-216"/>
<path fill="lightgrey" stroke="lightgrey" d="M660,-216C666,-216 672,-222 672,-228"/>
<path fill="lightgrey" stroke="lightgrey" d="M672,-240C672,-246 666,-252 660,-252"/>
<polyline fill="none" stroke="black" points="660,-252 582,-252 "/>
<path fill="none" stroke="black" d="M582,-252C576,-252 570,-246 570,-240"/>
<polyline fill="none" stroke="black" points="570,-240 570,-228 "/>
<path fill="none" stroke="black" d="M570,-228C570,-222 576,-216 582,-216"/>
<polyline fill="none" stroke="black" points="582,-216 660,-216 "/>
<path fill="none" stroke="black" d="M660,-216C666,-216 672,-222 672,-228"/>
<polyline fill="none" stroke="black" points="672,-228 672,-240 "/>
<path fill="none" stroke="black" d="M672,-240C672,-246 666,-252 660,-252"/>
<text text-anchor="middle" x="621" y="-230.4" font-family="Times Roman,serif" font-size="14.00">DBPassword</text>
</g>
<!-- DBPassword&#45;&gt;MyDB -->
<g id="edge12" class="edge"><title>DBPassword&#45;&gt;MyDB</title>
<path fill="none" stroke="black" d="M582.303,-215.908C523.074,-188.217 410.601,-135.632 351.494,-107.997"/>
<polygon fill="black" stroke="black" points="352.678,-104.687 342.137,-103.622 349.713,-111.028 352.678,-104.687"/>
</g>
<!-- DBName -->
<g id="node11" class="node"><title>DBName</title>
<polygon fill="lightgrey" stroke="lightgrey" points="64,-252 12,-252 2.84217e-14,-240 1.42109e-14,-228 12,-216 64,-216 76,-228 76,-240 64,-252"/>
<path fill="lightgrey" stroke="lightgrey" d="M12,-252C6,-252 3.55271e-14,-246 2.84217e-14,-240"/>
<path fill="lightgrey" stroke="lightgrey" d="M1.42109e-14,-228C7.10543e-15,-222 6,-216 12,-216"/>
<path fill="lightgrey" stroke="lightgrey" d="M64,-216C70,-216 76,-222 76,-228"/>
<path fill="lightgrey" stroke="lightgrey" d="M76,-240C76,-246 70,-252 64,-252"/>
<polyline fill="none" stroke="black" points="64,-252 12,-252 "/>
<path fill="none" stroke="black" d="M12,-252C6,-252 3.55271e-14,-246 2.84217e-14,-240"/>
<polyline fill="none" stroke="black" points="2.84217e-14,-240 1.42109e-14,-228 "/>
<path fill="none" stroke="black" d="M1.42109e-14,-228C7.10543e-15,-222 6,-216 12,-216"/>
<polyline fill="none" stroke="black" points="12,-216 64,-216 "/>
<path fill="none" stroke="black" d="M64,-216C70,-216 76,-222 76,-228"/>
<polyline fill="none" stroke="black" points="76,-228 76,-240 "/>
<path fill="none" stroke="black" d="M76,-240C76,-246 70,-252 64,-252"/>
<text text-anchor="middle" x="38" y="-230.4" font-family="Times Roman,serif" font-size="14.00">DBName</text>
</g>
<!-- DBName&#45;&gt;MyDB -->
<g id="edge20" class="edge"><title>DBName&#45;&gt;MyDB</title>
<path fill="none" stroke="black" d="M44.6399,-215.848C53.1225,-195.25 69.7933,-162.168 95,-144 123.379,-123.546 219.076,-105.235 273.78,-96.1126"/>
<polygon fill="black" stroke="black" points="274.516,-99.5387 283.817,-94.4651 273.382,-92.6312 274.516,-99.5387"/>
</g>
<!-- DBName&#45;&gt;JDBCConnectionString -->
<g id="edge26" class="edge"><title>DBName&#45;&gt;JDBCConnectionString</title>
<path fill="none" stroke="black" d="M38.3203,-215.82C39.5694,-196.114 44.2954,-164.713 61,-144 104.105,-90.5509 175.711,-57.8326 231.599,-39.1812"/>
<polygon fill="black" stroke="black" points="232.703,-42.5027 241.133,-36.0841 230.541,-35.8452 232.703,-42.5027"/>
</g>
</g>
</svg>
