<?xml version="1.0" encoding="UTF-8" standalone="no"?>
<!DOCTYPE svg PUBLIC "-//W3C//DTD SVG 1.1//EN"
 "http://www.w3.org/Graphics/SVG/1.1/DTD/svg11.dtd">
<!-- Generated by graphviz version 2.26.3 (20100126.1600)
 -->
<!-- Title: AWS CloudFormation Sample Template vpc_single_instance_in_subnet.template: Sample template showing how to create a VPC and add an EC2 instance with an Elastic IP address and a security group. **WARNING** This template creates an Amazon EC2 instance. You will be billed for the AWS resources used if you create a stack from this template. Pages: 1 -->
<svg width="2283pt" height="476pt"
 viewBox="0.00 0.00 2283.00 476.00" xmlns="http://www.w3.org/2000/svg" xmlns:xlink="http://www.w3.org/1999/xlink">
<g id="graph1" class="graph" transform="scale(1 1) rotate(0) translate(4 472)">
<title>AWS CloudFormation Sample Template vpc_single_instance_in_subnet.template: Sample template showing how to create a VPC and add an EC2 instance with an Elastic IP address and a security group. **WARNING** This template creates an Amazon EC2 instance. You will be billed for the AWS resources used if you create a stack from this template.</title>
<polygon fill="white" stroke="white" points="-4,5 -4,-472 2280,-472 2280,5 -4,5"/>
<!-- Subnet -->
<g id="node1" class="node"><title>Subnet</title>
<polygon fill="none" stroke="black" points="1594,-252 1528,-252 1528,-216 1594,-216 1594,-252"/>
<text text-anchor="middle" x="1561" y="-230.4" font-family="Times Roman,serif" font-size="14.00">Subnet</text>
</g>
<!-- SubnetRouteTableAssociation -->
<g id="node7" class="node"><title>SubnetRouteTableAssociation</title>
<polygon fill="none" stroke="black" points="1607,-180 1389,-180 1389,-144 1607,-144 1607,-180"/>
<text text-anchor="middle" x="1498" y="-158.4" font-family="Times Roman,serif" font-size="14.00">SubnetRouteTableAssociation</text>
</g>
<!-- Subnet&#45;&gt;SubnetRouteTableAssociation -->
<g id="edge22" class="edge"><title>Subnet&#45;&gt;SubnetRouteTableAssociation</title>
<path fill="none" stroke="black" d="M1545.1,-215.831C1537.77,-207.454 1528.93,-197.353 1520.9,-188.175"/>
<polygon fill="black" stroke="black" points="1523.33,-185.634 1514.11,-180.413 1518.06,-190.244 1523.33,-185.634"/>
</g>
<!-- SubnetNetworkAclAssociation -->
<g id="node15" class="node"><title>SubnetNetworkAclAssociation</title>
<polygon fill="none" stroke="black" points="1868,-108 1644,-108 1644,-72 1868,-72 1868,-108"/>
<text text-anchor="middle" x="1756" y="-86.4" font-family="Times Roman,serif" font-size="14.00">SubnetNetworkAclAssociation</text>
</g>
<!-- Subnet&#45;&gt;SubnetNetworkAclAssociation -->
<g id="edge40" class="edge"><title>Subnet&#45;&gt;SubnetNetworkAclAssociation</title>
<path fill="none" stroke="black" d="M1585.7,-215.762C1620.57,-190.011 1684.31,-142.942 1723.14,-114.264"/>
<polygon fill="black" stroke="black" points="1725.54,-116.846 1731.5,-108.09 1721.38,-111.215 1725.54,-116.846"/>
</g>
<!-- WebServerInstance -->
<g id="node18" class="node"><title>WebServerInstance</title>
<polygon fill="none" stroke="black" points="2024,-180 1872,-180 1872,-144 2024,-144 2024,-180"/>
<text text-anchor="middle" x="1948" y="-158.4" font-family="Times Roman,serif" font-size="14.00">WebServerInstance</text>
</g>
<!-- Subnet&#45;&gt;WebServerInstance -->
<g id="edge64" class="edge"><title>Subnet&#45;&gt;WebServerInstance</title>
<path fill="none" stroke="black" d="M1594.2,-218.885C1597.14,-217.816 1600.1,-216.833 1603,-216 1689.21,-191.202 1791.03,-177.03 1861.6,-169.485"/>
<polygon fill="black" stroke="black" points="1862.2,-172.941 1871.78,-168.419 1861.47,-165.979 1862.2,-172.941"/>
</g>
<!-- NetworkAcl -->
<g id="node2" class="node"><title>NetworkAcl</title>
<polygon fill="none" stroke="black" points="1220,-180 1124,-180 1124,-144 1220,-144 1220,-180"/>
<text text-anchor="middle" x="1172" y="-158.4" font-family="Times Roman,serif" font-size="14.00">NetworkAcl</text>
</g>
<!-- InboundResponsePortsNetworkAclEntry -->
<g id="node6" class="node"><title>InboundResponsePortsNetworkAclEntry</title>
<polygon fill="none" stroke="black" points="1058,-108 768,-108 768,-72 1058,-72 1058,-108"/>
<text text-anchor="middle" x="913" y="-86.4" font-family="Times Roman,serif" font-size="14.00">InboundResponsePortsNetworkAclEntry</text>
</g>
<!-- NetworkAcl&#45;&gt;InboundResponsePortsNetworkAclEntry -->
<g id="edge20" class="edge"><title>NetworkAcl&#45;&gt;InboundResponsePortsNetworkAclEntry</title>
<path fill="none" stroke="black" d="M1123.89,-148.626C1085.67,-138.002 1031.55,-122.957 987.706,-110.768"/>
<polygon fill="black" stroke="black" points="988.517,-107.361 977.945,-108.054 986.643,-114.105 988.517,-107.361"/>
</g>
<!-- InboundHTTPNetworkAclEntry -->
<g id="node8" class="node"><title>InboundHTTPNetworkAclEntry</title>
<polygon fill="none" stroke="black" points="1304,-108 1076,-108 1076,-72 1304,-72 1304,-108"/>
<text text-anchor="middle" x="1190" y="-86.4" font-family="Times Roman,serif" font-size="14.00">InboundHTTPNetworkAclEntry</text>
</g>
<!-- NetworkAcl&#45;&gt;InboundHTTPNetworkAclEntry -->
<g id="edge26" class="edge"><title>NetworkAcl&#45;&gt;InboundHTTPNetworkAclEntry</title>
<path fill="none" stroke="black" d="M1176.54,-143.831C1178.49,-136.046 1180.81,-126.773 1182.97,-118.135"/>
<polygon fill="black" stroke="black" points="1186.37,-118.964 1185.4,-108.413 1179.58,-117.266 1186.37,-118.964"/>
</g>
<!-- OutBoundResponsePortsNetworkAclEntry -->
<g id="node9" class="node"><title>OutBoundResponsePortsNetworkAclEntry</title>
<polygon fill="none" stroke="black" points="1626,-108 1322,-108 1322,-72 1626,-72 1626,-108"/>
<text text-anchor="middle" x="1474" y="-86.4" font-family="Times Roman,serif" font-size="14.00">OutBoundResponsePortsNetworkAclEntry</text>
</g>
<!-- NetworkAcl&#45;&gt;OutBoundResponsePortsNetworkAclEntry -->
<g id="edge28" class="edge"><title>NetworkAcl&#45;&gt;OutBoundResponsePortsNetworkAclEntry</title>
<path fill="none" stroke="black" d="M1220.19,-150.512C1265.34,-139.747 1333.84,-123.415 1388.31,-110.43"/>
<polygon fill="black" stroke="black" points="1389.39,-113.77 1398.3,-108.047 1387.77,-106.961 1389.39,-113.77"/>
</g>
<!-- InboundSSHNetworkAclEntry -->
<g id="node10" class="node"><title>InboundSSHNetworkAclEntry</title>
<polygon fill="none" stroke="black" points="220,-108 8.52651e-14,-108 0,-72 220,-72 220,-108"/>
<text text-anchor="middle" x="110" y="-86.4" font-family="Times Roman,serif" font-size="14.00">InboundSSHNetworkAclEntry</text>
</g>
<!-- NetworkAcl&#45;&gt;InboundSSHNetworkAclEntry -->
<g id="edge30" class="edge"><title>NetworkAcl&#45;&gt;InboundSSHNetworkAclEntry</title>
<path fill="none" stroke="black" d="M1123.79,-160.821C985.997,-157.114 578.56,-143.806 230.201,-108.07"/>
<polygon fill="black" stroke="black" points="230.478,-104.58 220.171,-107.033 229.758,-111.543 230.478,-104.58"/>
</g>
<!-- OutBoundHTTPSNetworkAclEntry -->
<g id="node11" class="node"><title>OutBoundHTTPSNetworkAclEntry</title>
<polygon fill="none" stroke="black" points="490,-108 238,-108 238,-72 490,-72 490,-108"/>
<text text-anchor="middle" x="364" y="-86.4" font-family="Times Roman,serif" font-size="14.00">OutBoundHTTPSNetworkAclEntry</text>
</g>
<!-- NetworkAcl&#45;&gt;OutBoundHTTPSNetworkAclEntry -->
<g id="edge32" class="edge"><title>NetworkAcl&#45;&gt;OutBoundHTTPSNetworkAclEntry</title>
<path fill="none" stroke="black" d="M1123.77,-159.003C1014.66,-152.033 740.328,-133.455 500.06,-108.083"/>
<polygon fill="black" stroke="black" points="500.403,-104.6 490.089,-107.024 499.663,-111.561 500.403,-104.6"/>
</g>
<!-- NetworkAcl&#45;&gt;SubnetNetworkAclAssociation -->
<g id="edge42" class="edge"><title>NetworkAcl&#45;&gt;SubnetNetworkAclAssociation</title>
<path fill="none" stroke="black" d="M1220.07,-149.849C1229.92,-147.657 1240.26,-145.572 1250,-144 1416.43,-117.139 1462.64,-128.207 1633.85,-108.094"/>
<polygon fill="black" stroke="black" points="1634.44,-111.547 1643.96,-106.887 1633.61,-104.596 1634.44,-111.547"/>
</g>
<!-- OutBoundHTTPNetworkAclEntry -->
<g id="node16" class="node"><title>OutBoundHTTPNetworkAclEntry</title>
<polygon fill="none" stroke="black" points="750,-108 508,-108 508,-72 750,-72 750,-108"/>
<text text-anchor="middle" x="629" y="-86.4" font-family="Times Roman,serif" font-size="14.00">OutBoundHTTPNetworkAclEntry</text>
</g>
<!-- NetworkAcl&#45;&gt;OutBoundHTTPNetworkAclEntry -->
<g id="edge44" class="edge"><title>NetworkAcl&#45;&gt;OutBoundHTTPNetworkAclEntry</title>
<path fill="none" stroke="black" d="M1123.98,-155.841C1048.76,-146.167 898.308,-126.713 760.027,-108.133"/>
<polygon fill="black" stroke="black" points="760.471,-104.662 750.093,-106.797 759.538,-111.599 760.471,-104.662"/>
</g>
<!-- WebServerWaitHandle -->
<g id="node3" class="node"><title>WebServerWaitHandle</title>
<polygon fill="none" stroke="black" points="2266,-252 2094,-252 2094,-216 2266,-216 2266,-252"/>
<text text-anchor="middle" x="2180" y="-230.4" font-family="Times Roman,serif" font-size="14.00">WebServerWaitHandle</text>
</g>
<!-- WebServerWaitCondition -->
<g id="node13" class="node"><title>WebServerWaitCondition</title>
<polygon fill="none" stroke="black" points="2275,-180 2085,-180 2085,-144 2275,-144 2275,-180"/>
<text text-anchor="middle" x="2180" y="-158.4" font-family="Times Roman,serif" font-size="14.00">WebServerWaitCondition</text>
</g>
<!-- WebServerWaitHandle&#45;&gt;WebServerWaitCondition -->
<g id="edge36" class="edge"><title>WebServerWaitHandle&#45;&gt;WebServerWaitCondition</title>
<path fill="none" stroke="black" d="M2180,-215.831C2180,-208.131 2180,-198.974 2180,-190.417"/>
<polygon fill="black" stroke="black" points="2183.5,-190.413 2180,-180.413 2176.5,-190.413 2183.5,-190.413"/>
</g>
<!-- WebServerWaitHandle&#45;&gt;WebServerInstance -->
<g id="edge50" class="edge"><title>WebServerWaitHandle&#45;&gt;WebServerInstance</title>
<path fill="none" stroke="black" d="M2115.81,-215.924C2082.85,-205.996 2042.89,-193.625 2010.22,-183.238"/>
<polygon fill="black" stroke="black" points="2010.91,-179.787 2000.32,-180.083 2008.79,-186.456 2010.91,-179.787"/>
</g>
<!-- WebServerWaitHandle&#45;&gt;WebServerInstance -->
<g id="edge56" class="edge"><title>WebServerWaitHandle&#45;&gt;WebServerInstance</title>
<path fill="none" stroke="black" d="M2127.7,-215.924C2096.55,-205.953 2056.57,-193.519 2022.21,-183.104"/>
<polygon fill="black" stroke="black" points="2022.8,-179.625 2012.21,-180.083 2020.77,-186.326 2022.8,-179.625"/>
</g>
<!-- RouteTable -->
<g id="node4" class="node"><title>RouteTable</title>
<polygon fill="none" stroke="black" points="1510,-252 1418,-252 1418,-216 1510,-216 1510,-252"/>
<text text-anchor="middle" x="1464" y="-230.4" font-family="Times Roman,serif" font-size="14.00">RouteTable</text>
</g>
<!-- Route -->
<g id="node5" class="node"><title>Route</title>
<polygon fill="none" stroke="black" points="1315,-180 1259,-180 1259,-144 1315,-144 1315,-180"/>
<text text-anchor="middle" x="1287" y="-158.4" font-family="Times Roman,serif" font-size="14.00">Route</text>
</g>
<!-- RouteTable&#45;&gt;Route -->
<g id="edge18" class="edge"><title>RouteTable&#45;&gt;Route</title>
<path fill="none" stroke="black" d="M1419.34,-215.831C1390.02,-203.906 1352.12,-188.489 1324.4,-177.212"/>
<polygon fill="black" stroke="black" points="1325.63,-173.935 1315.05,-173.409 1322.99,-180.419 1325.63,-173.935"/>
</g>
<!-- RouteTable&#45;&gt;SubnetRouteTableAssociation -->
<g id="edge24" class="edge"><title>RouteTable&#45;&gt;SubnetRouteTableAssociation</title>
<path fill="none" stroke="black" d="M1472.58,-215.831C1476.34,-207.877 1480.83,-198.369 1484.98,-189.572"/>
<polygon fill="black" stroke="black" points="1488.2,-190.95 1489.3,-180.413 1481.87,-187.961 1488.2,-190.95"/>
</g>
<!-- InternetGateway -->
<g id="node12" class="node"><title>InternetGateway</title>
<polygon fill="none" stroke="black" points="1406,-324 1270,-324 1270,-288 1406,-288 1406,-324"/>
<text text-anchor="middle" x="1338" y="-302.4" font-family="Times Roman,serif" font-size="14.00">InternetGateway</text>
</g>
<!-- InternetGateway&#45;&gt;Route -->
<g id="edge16" class="edge"><title>InternetGateway&#45;&gt;Route</title>
<path fill="none" stroke="black" d="M1302.07,-287.992C1288.48,-279.158 1274.5,-267.123 1267,-252 1257.19,-232.217 1263.76,-207.62 1271.91,-189.142"/>
<polygon fill="black" stroke="black" points="1275.08,-190.627 1276.23,-180.095 1268.76,-187.608 1275.08,-190.627"/>
</g>
<!-- AttachGateway -->
<g id="node20" class="node"><title>AttachGateway</title>
<polygon fill="none" stroke="black" points="1400,-252 1276,-252 1276,-216 1400,-216 1400,-252"/>
<text text-anchor="middle" x="1338" y="-230.4" font-family="Times Roman,serif" font-size="14.00">AttachGateway</text>
</g>
<!-- InternetGateway&#45;&gt;AttachGateway -->
<g id="edge82" class="edge"><title>InternetGateway&#45;&gt;AttachGateway</title>
<path fill="none" stroke="black" d="M1338,-287.831C1338,-280.131 1338,-270.974 1338,-262.417"/>
<polygon fill="black" stroke="black" points="1341.5,-262.413 1338,-252.413 1334.5,-262.413 1341.5,-262.413"/>
</g>
<!-- VPC -->
<g id="node14" class="node"><title>VPC</title>
<polygon fill="none" stroke="black" points="1492,-324 1438,-324 1438,-288 1492,-288 1492,-324"/>
<text text-anchor="middle" x="1465" y="-302.4" font-family="Times Roman,serif" font-size="14.00">VPC</text>
</g>
<!-- VPC&#45;&gt;Subnet -->
<g id="edge4" class="edge"><title>VPC&#45;&gt;Subnet</title>
<path fill="none" stroke="black" d="M1489.22,-287.831C1501.16,-278.878 1515.73,-267.956 1528.61,-258.295"/>
<polygon fill="black" stroke="black" points="1530.88,-260.963 1536.78,-252.163 1526.68,-255.363 1530.88,-260.963"/>
</g>
<!-- VPC&#45;&gt;NetworkAcl -->
<g id="edge8" class="edge"><title>VPC&#45;&gt;NetworkAcl</title>
<path fill="none" stroke="black" d="M1437.93,-295.658C1430.54,-293.001 1422.51,-290.258 1415,-288 1350.17,-268.507 1326.46,-284.366 1267,-252 1237.41,-235.89 1210.22,-208.239 1192.58,-187.826"/>
<polygon fill="black" stroke="black" points="1195.2,-185.507 1186.08,-180.124 1189.85,-190.023 1195.2,-185.507"/>
</g>
<!-- VPC&#45;&gt;RouteTable -->
<g id="edge12" class="edge"><title>VPC&#45;&gt;RouteTable</title>
<path fill="none" stroke="black" d="M1464.75,-287.831C1464.64,-280.131 1464.51,-270.974 1464.39,-262.417"/>
<polygon fill="black" stroke="black" points="1467.89,-262.364 1464.26,-252.413 1460.9,-262.461 1467.89,-262.364"/>
</g>
<!-- InstanceSecurityGroup -->
<g id="node17" class="node"><title>InstanceSecurityGroup</title>
<polygon fill="none" stroke="black" points="1786,-252 1612,-252 1612,-216 1786,-216 1786,-252"/>
<text text-anchor="middle" x="1699" y="-230.4" font-family="Times Roman,serif" font-size="14.00">InstanceSecurityGroup</text>
</g>
<!-- VPC&#45;&gt;InstanceSecurityGroup -->
<g id="edge48" class="edge"><title>VPC&#45;&gt;InstanceSecurityGroup</title>
<path fill="none" stroke="black" d="M1492.3,-297.6C1525.95,-287.245 1584.35,-269.276 1630.51,-255.074"/>
<polygon fill="black" stroke="black" points="1631.63,-258.391 1640.16,-252.104 1629.57,-251.7 1631.63,-258.391"/>
</g>
<!-- VPC&#45;&gt;AttachGateway -->
<g id="edge80" class="edge"><title>VPC&#45;&gt;AttachGateway</title>
<path fill="none" stroke="black" d="M1437.76,-290.554C1420.64,-280.852 1398.24,-268.154 1379.01,-257.248"/>
<polygon fill="black" stroke="black" points="1380.57,-254.108 1370.14,-252.221 1377.11,-260.198 1380.57,-254.108"/>
</g>
<!-- InstanceSecurityGroup&#45;&gt;WebServerInstance -->
<g id="edge60" class="edge"><title>InstanceSecurityGroup&#45;&gt;WebServerInstance</title>
<path fill="none" stroke="black" d="M1761.51,-215.924C1796.14,-205.91 1839.37,-193.412 1875.48,-182.97"/>
<polygon fill="black" stroke="black" points="1876.83,-186.223 1885.46,-180.083 1874.88,-179.499 1876.83,-186.223"/>
</g>
<!-- IPAddress -->
<g id="node19" class="node"><title>IPAddress</title>
<polygon fill="none" stroke="black" points="2041,-108 1959,-108 1959,-72 2041,-72 2041,-108"/>
<text text-anchor="middle" x="2000" y="-86.4" font-family="Times Roman,serif" font-size="14.00">IPAddress</text>
</g>
<!-- WebServerInstance&#45;&gt;IPAddress -->
<g id="edge78" class="edge"><title>WebServerInstance&#45;&gt;IPAddress</title>
<path fill="none" stroke="black" d="M1961.12,-143.831C1967.05,-135.623 1974.17,-125.761 1980.69,-116.732"/>
<polygon fill="black" stroke="black" points="1983.68,-118.569 1986.7,-108.413 1978.01,-114.471 1983.68,-118.569"/>
</g>
<!-- URL -->
<g id="node26" class="node"><title>URL</title>
<polygon fill="lightgrey" stroke="lightgrey" points="1946,-36 1916,-36 1904,-24 1904,-12 1916,-1.46056e-14 1946,-6.71068e-15 1958,-12 1958,-24 1946,-36"/>
<path fill="lightgrey" stroke="lightgrey" d="M1916,-36C1910,-36 1904,-30 1904,-24"/>
<path fill="lightgrey" stroke="lightgrey" d="M1904,-12C1904,-6 1910,-1.61846e-14 1916,-1.46056e-14"/>
<path fill="lightgrey" stroke="lightgrey" d="M1946,-6.71068e-15C1952,-5.1317e-15 1958,-6 1958,-12"/>
<path fill="lightgrey" stroke="lightgrey" d="M1958,-24C1958,-30 1952,-36 1946,-36"/>
<polyline fill="none" stroke="black" points="1946,-36 1916,-36 "/>
<path fill="none" stroke="black" d="M1916,-36C1910,-36 1904,-30 1904,-24"/>
<polyline fill="none" stroke="black" points="1904,-24 1904,-12 "/>
<path fill="none" stroke="black" d="M1904,-12C1904,-6 1910,-1.61846e-14 1916,-1.46056e-14"/>
<polyline fill="none" stroke="black" points="1916,-1.46056e-14 1946,-6.71068e-15 "/>
<path fill="none" stroke="black" d="M1946,-6.71068e-15C1952,-5.1317e-15 1958,-6 1958,-12"/>
<polyline fill="none" stroke="black" points="1958,-12 1958,-24 "/>
<path fill="none" stroke="black" d="M1958,-24C1958,-30 1952,-36 1946,-36"/>
<text text-anchor="middle" x="1931" y="-14.4" font-family="Times Roman,serif" font-size="14.00">URL</text>
</g>
<!-- WebServerInstance&#45;&gt;URL -->
<g id="edge84" class="edge"><title>WebServerInstance&#45;&gt;URL</title>
<path fill="none" stroke="black" d="M1945.85,-143.762C1942.95,-119.201 1937.76,-75.2474 1934.35,-46.3541"/>
<polygon fill="black" stroke="black" points="1937.78,-45.6103 1933.14,-36.0896 1930.83,-46.431 1937.78,-45.6103"/>
</g>
<!-- SSHLocation -->
<g id="node22" class="node"><title>SSHLocation</title>
<polygon fill="lightgrey" stroke="lightgrey" points="1946,-468 1866,-468 1854,-456 1854,-444 1866,-432 1946,-432 1958,-444 1958,-456 1946,-468"/>
<path fill="lightgrey" stroke="lightgrey" d="M1866,-468C1860,-468 1854,-462 1854,-456"/>
<path fill="lightgrey" stroke="lightgrey" d="M1854,-444C1854,-438 1860,-432 1866,-432"/>
<path fill="lightgrey" stroke="lightgrey" d="M1946,-432C1952,-432 1958,-438 1958,-444"/>
<path fill="lightgrey" stroke="lightgrey" d="M1958,-456C1958,-462 1952,-468 1946,-468"/>
<polyline fill="none" stroke="black" points="1946,-468 1866,-468 "/>
<path fill="none" stroke="black" d="M1866,-468C1860,-468 1854,-462 1854,-456"/>
<polyline fill="none" stroke="black" points="1854,-456 1854,-444 "/>
<path fill="none" stroke="black" d="M1854,-444C1854,-438 1860,-432 1866,-432"/>
<polyline fill="none" stroke="black" points="1866,-432 1946,-432 "/>
<path fill="none" stroke="black" d="M1946,-432C1952,-432 1958,-438 1958,-444"/>
<polyline fill="none" stroke="black" points="1958,-444 1958,-456 "/>
<path fill="none" stroke="black" d="M1958,-456C1958,-462 1952,-468 1946,-468"/>
<text text-anchor="middle" x="1906" y="-446.4" font-family="Times Roman,serif" font-size="14.00">SSHLocation</text>
</g>
<!-- SSHLocation&#45;&gt;InstanceSecurityGroup -->
<g id="edge46" class="edge"><title>SSHLocation&#45;&gt;InstanceSecurityGroup</title>
<path fill="none" stroke="black" d="M1888.71,-431.955C1851.95,-393.6 1765.95,-303.86 1723.54,-259.604"/>
<polygon fill="black" stroke="black" points="1725.84,-256.943 1716.39,-252.145 1720.78,-261.787 1725.84,-256.943"/>
</g>
<!-- KeyName -->
<g id="node23" class="node"><title>KeyName</title>
<polygon fill="lightgrey" stroke="lightgrey" points="2050,-468 1994,-468 1982,-456 1982,-444 1994,-432 2050,-432 2062,-444 2062,-456 2050,-468"/>
<path fill="lightgrey" stroke="lightgrey" d="M1994,-468C1988,-468 1982,-462 1982,-456"/>
<path fill="lightgrey" stroke="lightgrey" d="M1982,-444C1982,-438 1988,-432 1994,-432"/>
<path fill="lightgrey" stroke="lightgrey" d="M2050,-432C2056,-432 2062,-438 2062,-444"/>
<path fill="lightgrey" stroke="lightgrey" d="M2062,-456C2062,-462 2056,-468 2050,-468"/>
<polyline fill="none" stroke="black" points="2050,-468 1994,-468 "/>
<path fill="none" stroke="black" d="M1994,-468C1988,-468 1982,-462 1982,-456"/>
<polyline fill="none" stroke="black" points="1982,-456 1982,-444 "/>
<path fill="none" stroke="black" d="M1982,-444C1982,-438 1988,-432 1994,-432"/>
<polyline fill="none" stroke="black" points="1994,-432 2050,-432 "/>
<path fill="none" stroke="black" d="M2050,-432C2056,-432 2062,-438 2062,-444"/>
<polyline fill="none" stroke="black" points="2062,-444 2062,-456 "/>
<path fill="none" stroke="black" d="M2062,-456C2062,-462 2056,-468 2050,-468"/>
<text text-anchor="middle" x="2022" y="-446.4" font-family="Times Roman,serif" font-size="14.00">KeyName</text>
</g>
<!-- KeyName&#45;&gt;WebServerInstance -->
<g id="edge62" class="edge"><title>KeyName&#45;&gt;WebServerInstance</title>
<path fill="none" stroke="black" d="M2025.5,-431.822C2032.45,-390.867 2044.46,-289.244 2009,-216 2003.51,-204.662 1994.46,-194.677 1984.99,-186.476"/>
<polygon fill="black" stroke="black" points="1986.98,-183.584 1977,-180.016 1982.57,-189.026 1986.98,-183.584"/>
</g>
<!-- InstanceType -->
<g id="node24" class="node"><title>InstanceType</title>
<polygon fill="lightgrey" stroke="lightgrey" points="2174,-468 2092,-468 2080,-456 2080,-444 2092,-432 2174,-432 2186,-444 2186,-456 2174,-468"/>
<path fill="lightgrey" stroke="lightgrey" d="M2092,-468C2086,-468 2080,-462 2080,-456"/>
<path fill="lightgrey" stroke="lightgrey" d="M2080,-444C2080,-438 2086,-432 2092,-432"/>
<path fill="lightgrey" stroke="lightgrey" d="M2174,-432C2180,-432 2186,-438 2186,-444"/>
<path fill="lightgrey" stroke="lightgrey" d="M2186,-456C2186,-462 2180,-468 2174,-468"/>
<polyline fill="none" stroke="black" points="2174,-468 2092,-468 "/>
<path fill="none" stroke="black" d="M2092,-468C2086,-468 2080,-462 2080,-456"/>
<polyline fill="none" stroke="black" points="2080,-456 2080,-444 "/>
<path fill="none" stroke="black" d="M2080,-444C2080,-438 2086,-432 2092,-432"/>
<polyline fill="none" stroke="black" points="2092,-432 2174,-432 "/>
<path fill="none" stroke="black" d="M2174,-432C2180,-432 2186,-438 2186,-444"/>
<polyline fill="none" stroke="black" points="2186,-444 2186,-456 "/>
<path fill="none" stroke="black" d="M2186,-456C2186,-462 2180,-468 2174,-468"/>
<text text-anchor="middle" x="2133" y="-446.4" font-family="Times Roman,serif" font-size="14.00">InstanceType</text>
</g>
<!-- InstanceType&#45;&gt;WebServerInstance -->
<g id="edge68" class="edge"><title>InstanceType&#45;&gt;WebServerInstance</title>
<path fill="none" stroke="black" d="M2128.83,-431.988C2118.39,-390.061 2087.72,-284.317 2030,-216 2019.99,-204.152 2006.73,-193.903 1993.81,-185.615"/>
<polygon fill="black" stroke="black" points="1995.31,-182.43 1984.95,-180.194 1991.65,-188.4 1995.31,-182.43"/>
</g>
<!-- AWS::StackId -->
<g id="node28" class="node"><title>AWS::StackId</title>
<polygon fill="none" stroke="black" points="1616,-396 1506,-396 1506,-360 1616,-360 1616,-396"/>
<text text-anchor="middle" x="1561" y="-374.4" font-family="Times Roman,serif" font-size="14.00">AWS::StackId</text>
</g>
<!-- AWS::StackId&#45;&gt;Subnet -->
<g id="edge6" class="edge"><title>AWS::StackId&#45;&gt;Subnet</title>
<path fill="none" stroke="black" d="M1561,-359.762C1561,-335.201 1561,-291.247 1561,-262.354"/>
<polygon fill="black" stroke="black" points="1564.5,-262.09 1561,-252.09 1557.5,-262.09 1564.5,-262.09"/>
</g>
<!-- AWS::StackId&#45;&gt;NetworkAcl -->
<g id="edge10" class="edge"><title>AWS::StackId&#45;&gt;NetworkAcl</title>
<path fill="none" stroke="black" d="M1505.84,-373.538C1430.37,-366.525 1299.84,-350.873 1261,-324 1214.45,-291.79 1189.79,-227.042 1178.96,-189.897"/>
<polygon fill="black" stroke="black" points="1182.31,-188.899 1176.26,-180.202 1175.57,-190.774 1182.31,-188.899"/>
</g>
<!-- AWS::StackId&#45;&gt;RouteTable -->
<g id="edge14" class="edge"><title>AWS::StackId&#45;&gt;RouteTable</title>
<path fill="none" stroke="black" d="M1548.89,-359.683C1536.82,-341.465 1517.72,-312.738 1501,-288 1494.99,-279.102 1488.37,-269.415 1482.42,-260.734"/>
<polygon fill="black" stroke="black" points="1485.28,-258.716 1476.73,-252.455 1479.51,-262.679 1485.28,-258.716"/>
</g>
<!-- AWS::StackId&#45;&gt;InternetGateway -->
<g id="edge34" class="edge"><title>AWS::StackId&#45;&gt;InternetGateway</title>
<path fill="none" stroke="black" d="M1505.88,-360.202C1475.02,-350.239 1436.34,-337.752 1403.89,-327.275"/>
<polygon fill="black" stroke="black" points="1404.63,-323.835 1394.04,-324.093 1402.48,-330.496 1404.63,-323.835"/>
</g>
<!-- AWS::StackId&#45;&gt;VPC -->
<g id="edge38" class="edge"><title>AWS::StackId&#45;&gt;VPC</title>
<path fill="none" stroke="black" d="M1536.78,-359.831C1524.84,-350.878 1510.27,-339.956 1497.39,-330.295"/>
<polygon fill="black" stroke="black" points="1499.32,-327.363 1489.22,-324.163 1495.12,-332.963 1499.32,-327.363"/>
</g>
<!-- AWS::StackId&#45;&gt;WebServerInstance -->
<g id="edge52" class="edge"><title>AWS::StackId&#45;&gt;WebServerInstance</title>
<path fill="none" stroke="black" d="M1577.27,-359.831C1614.61,-335.697 1697.84,-291.504 1768,-252 1807.73,-229.628 1852.65,-203.052 1888.69,-184.605"/>
<polygon fill="black" stroke="black" points="1890.29,-187.717 1897.66,-180.098 1887.15,-181.463 1890.29,-187.717"/>
</g>
<!-- AWS::StackId&#45;&gt;WebServerInstance -->
<g id="edge58" class="edge"><title>AWS::StackId&#45;&gt;WebServerInstance</title>
<path fill="none" stroke="black" d="M1589.57,-359.831C1632.61,-335.697 1715.84,-291.504 1786,-252 1825.4,-229.817 1869.88,-203.502 1902.39,-185.076"/>
<polygon fill="black" stroke="black" points="1904.23,-188.056 1911.22,-180.098 1900.79,-181.957 1904.23,-188.056"/>
</g>
<!-- AWS::StackId&#45;&gt;WebServerInstance -->
<g id="edge70" class="edge"><title>AWS::StackId&#45;&gt;WebServerInstance</title>
<path fill="none" stroke="black" d="M1601.87,-359.831C1650.61,-335.697 1733.84,-291.504 1804,-252 1843.06,-230.007 1887.12,-203.951 1916.25,-185.55"/>
<polygon fill="black" stroke="black" points="1918.24,-188.43 1924.79,-180.098 1914.47,-182.531 1918.24,-188.43"/>
</g>
<!-- AWS::StackId&#45;&gt;WebServerInstance -->
<g id="edge74" class="edge"><title>AWS::StackId&#45;&gt;WebServerInstance</title>
<path fill="none" stroke="black" d="M1614.17,-359.831C1668.61,-335.697 1751.84,-291.504 1822,-252 1860.6,-230.264 1904.09,-204.561 1930.03,-186.199"/>
<polygon fill="black" stroke="black" points="1932.13,-189.004 1938.12,-180.27 1927.99,-183.358 1932.13,-189.004"/>
</g>
<!-- AWS::Region -->
<g id="node53" class="node"><title>AWS::Region</title>
<polygon fill="none" stroke="black" points="2000,-252 1896,-252 1896,-216 2000,-216 2000,-252"/>
<text text-anchor="middle" x="1948" y="-230.4" font-family="Times Roman,serif" font-size="14.00">AWS::Region</text>
</g>
<!-- AWS::Region&#45;&gt;WebServerInstance -->
<g id="edge54" class="edge"><title>AWS::Region&#45;&gt;WebServerInstance</title>
<path fill="none" stroke="black" d="M1930.14,-215.831C1927.89,-208.131 1927.23,-198.974 1928.15,-190.417"/>
<polygon fill="black" stroke="black" points="1931.63,-190.893 1930.07,-180.413 1924.75,-189.576 1931.63,-190.893"/>
</g>
<!-- AWS::Region&#45;&gt;WebServerInstance -->
<g id="edge66" class="edge"><title>AWS::Region&#45;&gt;WebServerInstance</title>
<path fill="none" stroke="black" d="M1942.05,-215.831C1941.3,-208.131 1941.08,-198.974 1941.38,-190.417"/>
<polygon fill="black" stroke="black" points="1944.88,-190.616 1942.02,-180.413 1937.89,-190.17 1944.88,-190.616"/>
</g>
<!-- AWS::Region&#45;&gt;WebServerInstance -->
<g id="edge72" class="edge"><title>AWS::Region&#45;&gt;WebServerInstance</title>
<path fill="none" stroke="black" d="M1953.95,-215.831C1954.7,-208.131 1954.92,-198.974 1954.62,-190.417"/>
<polygon fill="black" stroke="black" points="1958.11,-190.17 1953.98,-180.413 1951.12,-190.616 1958.11,-190.17"/>
</g>
<!-- AWS::Region&#45;&gt;WebServerInstance -->
<g id="edge76" class="edge"><title>AWS::Region&#45;&gt;WebServerInstance</title>
<path fill="none" stroke="black" d="M1965.86,-215.831C1968.11,-208.131 1968.77,-198.974 1967.85,-190.417"/>
<polygon fill="black" stroke="black" points="1971.25,-189.576 1965.93,-180.413 1964.37,-190.893 1971.25,-189.576"/>
</g>
</g>
</svg>
