<?xml version="1.0" encoding="UTF-8" standalone="no"?>
<!DOCTYPE svg PUBLIC "-//W3C//DTD SVG 1.1//EN"
 "http://www.w3.org/Graphics/SVG/1.1/DTD/svg11.dtd">
<!-- Generated by graphviz version 2.26.3 (20100126.1600)
 -->
<!-- Title: AWS CloudFormation Sample Template VPC_Instance_With_Association: Sample template showing how to create an instance in a VPC and associate is with an existing VPC&#45;based Elastic IP Address and VPC&#45;based security group. It assumes you already have a VPC with an EIP and a Security Group associated with the VPC. **WARNING** This template creates an Amazon EC2 instance. You will be billed for the AWS resources used if you create a stack from this template. Pages: 1 -->
<svg width="382pt" height="332pt"
 viewBox="0.00 0.00 382.00 332.00" xmlns="http://www.w3.org/2000/svg" xmlns:xlink="http://www.w3.org/1999/xlink">
<g id="graph1" class="graph" transform="scale(1 1) rotate(0) translate(4 328)">
<title>AWS CloudFormation Sample Template VPC_Instance_With_Association: Sample template showing how to create an instance in a VPC and associate is with an existing VPC&#45;based Elastic IP Address and VPC&#45;based security group. It assumes you already have a VPC with an EIP and a Security Group associated with the VPC. **WARNING** This template creates an Amazon EC2 instance. You will be billed for the AWS resources used if you create a stack from this template.</title>
<polygon fill="white" stroke="white" points="-4,5 -4,-328 379,-328 379,5 -4,5"/>
<!-- Ec2Instance -->
<g id="node1" class="node"><title>Ec2Instance</title>
<polygon fill="none" stroke="black" points="251,-180 151,-180 151,-144 251,-144 251,-180"/>
<text text-anchor="middle" x="201" y="-158.4" font-family="Times Roman,serif" font-size="14.00">Ec2Instance</text>
</g>
<!-- IPAssoc -->
<g id="node2" class="node"><title>IPAssoc</title>
<polygon fill="none" stroke="black" points="122,-108 54,-108 54,-72 122,-72 122,-108"/>
<text text-anchor="middle" x="88" y="-86.4" font-family="Times Roman,serif" font-size="14.00">IPAssoc</text>
</g>
<!-- Ec2Instance&#45;&gt;IPAssoc -->
<g id="edge10" class="edge"><title>Ec2Instance&#45;&gt;IPAssoc</title>
<path fill="none" stroke="black" d="M172.485,-143.831C158.166,-134.707 140.638,-123.539 125.266,-113.745"/>
<polygon fill="black" stroke="black" points="126.82,-110.585 116.506,-108.163 123.058,-116.488 126.82,-110.585"/>
</g>
<!-- InstanceId -->
<g id="node8" class="node"><title>InstanceId</title>
<polygon fill="lightgrey" stroke="lightgrey" points="202,-36 138,-36 126,-24 126,-12 138,-1.58257e-14 202,-5.49056e-15 214,-12 214,-24 202,-36"/>
<path fill="lightgrey" stroke="lightgrey" d="M138,-36C132,-36 126,-30 126,-24"/>
<path fill="lightgrey" stroke="lightgrey" d="M126,-12C126,-6 132,-1.67946e-14 138,-1.58257e-14"/>
<path fill="lightgrey" stroke="lightgrey" d="M202,-5.49056e-15C208,-4.52164e-15 214,-6 214,-12"/>
<path fill="lightgrey" stroke="lightgrey" d="M214,-24C214,-30 208,-36 202,-36"/>
<polyline fill="none" stroke="black" points="202,-36 138,-36 "/>
<path fill="none" stroke="black" d="M138,-36C132,-36 126,-30 126,-24"/>
<polyline fill="none" stroke="black" points="126,-24 126,-12 "/>
<path fill="none" stroke="black" d="M126,-12C126,-6 132,-1.67946e-14 138,-1.58257e-14"/>
<polyline fill="none" stroke="black" points="138,-1.58257e-14 202,-5.49056e-15 "/>
<path fill="none" stroke="black" d="M202,-5.49056e-15C208,-4.52164e-15 214,-6 214,-12"/>
<polyline fill="none" stroke="black" points="214,-12 214,-24 "/>
<path fill="none" stroke="black" d="M214,-24C214,-30 208,-36 202,-36"/>
<text text-anchor="middle" x="170" y="-14.4" font-family="Times Roman,serif" font-size="14.00">InstanceId</text>
</g>
<!-- Ec2Instance&#45;&gt;InstanceId -->
<g id="edge14" class="edge"><title>Ec2Instance&#45;&gt;InstanceId</title>
<path fill="none" stroke="black" d="M197.074,-143.762C191.763,-119.093 182.241,-74.8598 176.022,-45.9731"/>
<polygon fill="black" stroke="black" points="179.421,-45.129 173.894,-36.0896 172.577,-46.6023 179.421,-45.129"/>
</g>
<!-- InstanceIPAddress -->
<g id="node9" class="node"><title>InstanceIPAddress</title>
<polygon fill="lightgrey" stroke="lightgrey" points="362,-36 244,-36 232,-24 232,-12 244,-1.65627e-14 362,-4.75363e-15 374,-12 374,-24 362,-36"/>
<path fill="lightgrey" stroke="lightgrey" d="M244,-36C238,-36 232,-30 232,-24"/>
<path fill="lightgrey" stroke="lightgrey" d="M232,-12C232,-6 238,-1.71631e-14 244,-1.65627e-14"/>
<path fill="lightgrey" stroke="lightgrey" d="M362,-4.75363e-15C368,-4.15317e-15 374,-6 374,-12"/>
<path fill="lightgrey" stroke="lightgrey" d="M374,-24C374,-30 368,-36 362,-36"/>
<polyline fill="none" stroke="black" points="362,-36 244,-36 "/>
<path fill="none" stroke="black" d="M244,-36C238,-36 232,-30 232,-24"/>
<polyline fill="none" stroke="black" points="232,-24 232,-12 "/>
<path fill="none" stroke="black" d="M232,-12C232,-6 238,-1.71631e-14 244,-1.65627e-14"/>
<polyline fill="none" stroke="black" points="244,-1.65627e-14 362,-4.75363e-15 "/>
<path fill="none" stroke="black" d="M362,-4.75363e-15C368,-4.15317e-15 374,-6 374,-12"/>
<polyline fill="none" stroke="black" points="374,-12 374,-24 "/>
<path fill="none" stroke="black" d="M374,-24C374,-30 368,-36 362,-36"/>
<text text-anchor="middle" x="303" y="-14.4" font-family="Times Roman,serif" font-size="14.00">InstanceIPAddress</text>
</g>
<!-- Ec2Instance&#45;&gt;InstanceIPAddress -->
<g id="edge16" class="edge"><title>Ec2Instance&#45;&gt;InstanceIPAddress</title>
<path fill="none" stroke="black" d="M213.918,-143.762C231.699,-118.66 263.828,-73.3017 284.252,-44.4671"/>
<polygon fill="black" stroke="black" points="287.262,-46.273 290.187,-36.0896 281.55,-42.2268 287.262,-46.273"/>
</g>
<!-- SubnetId -->
<g id="node4" class="node"><title>SubnetId</title>
<polygon fill="lightgrey" stroke="lightgrey" points="180,-324 126,-324 114,-312 114,-300 126,-288 180,-288 192,-300 192,-312 180,-324"/>
<path fill="lightgrey" stroke="lightgrey" d="M126,-324C120,-324 114,-318 114,-312"/>
<path fill="lightgrey" stroke="lightgrey" d="M114,-300C114,-294 120,-288 126,-288"/>
<path fill="lightgrey" stroke="lightgrey" d="M180,-288C186,-288 192,-294 192,-300"/>
<path fill="lightgrey" stroke="lightgrey" d="M192,-312C192,-318 186,-324 180,-324"/>
<polyline fill="none" stroke="black" points="180,-324 126,-324 "/>
<path fill="none" stroke="black" d="M126,-324C120,-324 114,-318 114,-312"/>
<polyline fill="none" stroke="black" points="114,-312 114,-300 "/>
<path fill="none" stroke="black" d="M114,-300C114,-294 120,-288 126,-288"/>
<polyline fill="none" stroke="black" points="126,-288 180,-288 "/>
<path fill="none" stroke="black" d="M180,-288C186,-288 192,-294 192,-300"/>
<polyline fill="none" stroke="black" points="192,-300 192,-312 "/>
<path fill="none" stroke="black" d="M192,-312C192,-318 186,-324 180,-324"/>
<text text-anchor="middle" x="153" y="-302.4" font-family="Times Roman,serif" font-size="14.00">SubnetId</text>
</g>
<!-- SubnetId&#45;&gt;Ec2Instance -->
<g id="edge4" class="edge"><title>SubnetId&#45;&gt;Ec2Instance</title>
<path fill="none" stroke="black" d="M159.079,-287.762C167.338,-262.985 182.176,-218.471 191.802,-189.594"/>
<polygon fill="black" stroke="black" points="195.128,-190.683 194.97,-180.09 188.487,-188.47 195.128,-190.683"/>
</g>
<!-- SecurityGroupId -->
<g id="node5" class="node"><title>SecurityGroupId</title>
<polygon fill="lightgrey" stroke="lightgrey" points="326,-324 222,-324 210,-312 210,-300 222,-288 326,-288 338,-300 338,-312 326,-324"/>
<path fill="lightgrey" stroke="lightgrey" d="M222,-324C216,-324 210,-318 210,-312"/>
<path fill="lightgrey" stroke="lightgrey" d="M210,-300C210,-294 216,-288 222,-288"/>
<path fill="lightgrey" stroke="lightgrey" d="M326,-288C332,-288 338,-294 338,-300"/>
<path fill="lightgrey" stroke="lightgrey" d="M338,-312C338,-318 332,-324 326,-324"/>
<polyline fill="none" stroke="black" points="326,-324 222,-324 "/>
<path fill="none" stroke="black" d="M222,-324C216,-324 210,-318 210,-312"/>
<polyline fill="none" stroke="black" points="210,-312 210,-300 "/>
<path fill="none" stroke="black" d="M210,-300C210,-294 216,-288 222,-288"/>
<polyline fill="none" stroke="black" points="222,-288 326,-288 "/>
<path fill="none" stroke="black" d="M326,-288C332,-288 338,-294 338,-300"/>
<polyline fill="none" stroke="black" points="338,-300 338,-312 "/>
<path fill="none" stroke="black" d="M338,-312C338,-318 332,-324 326,-324"/>
<text text-anchor="middle" x="274" y="-302.4" font-family="Times Roman,serif" font-size="14.00">SecurityGroupId</text>
</g>
<!-- SecurityGroupId&#45;&gt;Ec2Instance -->
<g id="edge6" class="edge"><title>SecurityGroupId&#45;&gt;Ec2Instance</title>
<path fill="none" stroke="black" d="M264.754,-287.762C252.139,-262.876 229.431,-218.082 214.797,-189.216"/>
<polygon fill="black" stroke="black" points="217.814,-187.426 210.17,-180.09 211.57,-190.592 217.814,-187.426"/>
</g>
<!-- AllocationId -->
<g id="node6" class="node"><title>AllocationId</title>
<polygon fill="lightgrey" stroke="lightgrey" points="84,-324 12,-324 1.89478e-14,-312 9.4739e-15,-300 12,-288 84,-288 96,-300 96,-312 84,-324"/>
<path fill="lightgrey" stroke="lightgrey" d="M12,-324C6,-324 2.36848e-14,-318 1.89478e-14,-312"/>
<path fill="lightgrey" stroke="lightgrey" d="M9.4739e-15,-300C4.73695e-15,-294 6,-288 12,-288"/>
<path fill="lightgrey" stroke="lightgrey" d="M84,-288C90,-288 96,-294 96,-300"/>
<path fill="lightgrey" stroke="lightgrey" d="M96,-312C96,-318 90,-324 84,-324"/>
<polyline fill="none" stroke="black" points="84,-324 12,-324 "/>
<path fill="none" stroke="black" d="M12,-324C6,-324 2.36848e-14,-318 1.89478e-14,-312"/>
<polyline fill="none" stroke="black" points="1.89478e-14,-312 9.4739e-15,-300 "/>
<path fill="none" stroke="black" d="M9.4739e-15,-300C4.73695e-15,-294 6,-288 12,-288"/>
<polyline fill="none" stroke="black" points="12,-288 84,-288 "/>
<path fill="none" stroke="black" d="M84,-288C90,-288 96,-294 96,-300"/>
<polyline fill="none" stroke="black" points="96,-300 96,-312 "/>
<path fill="none" stroke="black" d="M96,-312C96,-318 90,-324 84,-324"/>
<text text-anchor="middle" x="48" y="-302.4" font-family="Times Roman,serif" font-size="14.00">AllocationId</text>
</g>
<!-- AllocationId&#45;&gt;IPAssoc -->
<g id="edge12" class="edge"><title>AllocationId&#45;&gt;IPAssoc</title>
<path fill="none" stroke="black" d="M51.3416,-287.955C58.3122,-250.314 74.4469,-163.187 82.7917,-118.125"/>
<polygon fill="black" stroke="black" points="86.2603,-118.615 84.6398,-108.145 79.3773,-117.341 86.2603,-118.615"/>
</g>
<!-- AWS::Region -->
<g id="node12" class="node"><title>AWS::Region</title>
<polygon fill="none" stroke="black" points="364,-252 260,-252 260,-216 364,-216 364,-252"/>
<text text-anchor="middle" x="312" y="-230.4" font-family="Times Roman,serif" font-size="14.00">AWS::Region</text>
</g>
<!-- AWS::Region&#45;&gt;Ec2Instance -->
<g id="edge8" class="edge"><title>AWS::Region&#45;&gt;Ec2Instance</title>
<path fill="none" stroke="black" d="M283.99,-215.831C269.924,-206.707 252.706,-195.539 237.607,-185.745"/>
<polygon fill="black" stroke="black" points="239.295,-182.668 229.001,-180.163 235.486,-188.541 239.295,-182.668"/>
</g>
</g>
</svg>
