<?xml version="1.0" encoding="UTF-8" standalone="no"?>
<!DOCTYPE svg PUBLIC "-//W3C//DTD SVG 1.1//EN"
 "http://www.w3.org/Graphics/SVG/1.1/DTD/svg11.dtd">
<!-- Generated by graphviz version 2.26.3 (20100126.1600)
 -->
<!-- Title: AWS CloudFormation Sample Template vpc_multiple_subnets.template: Sample template showing how to create a VPC with multiple subnets. The first subnet is public and contains the load balancer, the second subnet is private and contains an EC2 instance behind the load balancer. **WARNING** This template creates an Amazon EC2 instance. You will be billed for the AWS resources used if you create a stack from this template. Pages: 1 -->
<svg width="2894pt" height="548pt"
 viewBox="0.00 0.00 2894.00 548.00" xmlns="http://www.w3.org/2000/svg" xmlns:xlink="http://www.w3.org/1999/xlink">
<g id="graph1" class="graph" transform="scale(1 1) rotate(0) translate(4 544)">
<title>AWS CloudFormation Sample Template vpc_multiple_subnets.template: Sample template showing how to create a VPC with multiple subnets. The first subnet is public and contains the load balancer, the second subnet is private and contains an EC2 instance behind the load balancer. **WARNING** This template creates an Amazon EC2 instance. You will be billed for the AWS resources used if you create a stack from this template.</title>
<polygon fill="white" stroke="white" points="-4,5 -4,-544 2891,-544 2891,5 -4,5"/>
<!-- InboundDynamicPortsPublicNetworkAclEntry -->
<g id="node1" class="node"><title>InboundDynamicPortsPublicNetworkAclEntry</title>
<polygon fill="none" stroke="black" points="1264,-108 938,-108 938,-72 1264,-72 1264,-108"/>
<text text-anchor="middle" x="1101" y="-86.4" font-family="Times Roman,serif" font-size="14.00">InboundDynamicPortsPublicNetworkAclEntry</text>
</g>
<!-- PublicRoute -->
<g id="node2" class="node"><title>PublicRoute</title>
<polygon fill="none" stroke="black" points="1580,-252 1482,-252 1482,-216 1580,-216 1580,-252"/>
<text text-anchor="middle" x="1531" y="-230.4" font-family="Times Roman,serif" font-size="14.00">PublicRoute</text>
</g>
<!-- PublicSubnet -->
<g id="node3" class="node"><title>PublicSubnet</title>
<polygon fill="none" stroke="black" points="2014,-324 1908,-324 1908,-288 2014,-288 2014,-324"/>
<text text-anchor="middle" x="1961" y="-302.4" font-family="Times Roman,serif" font-size="14.00">PublicSubnet</text>
</g>
<!-- PublicSubnetNetworkAclAssociation -->
<g id="node5" class="node"><title>PublicSubnetNetworkAclAssociation</title>
<polygon fill="none" stroke="black" points="1546,-108 1282,-108 1282,-72 1546,-72 1546,-108"/>
<text text-anchor="middle" x="1414" y="-86.4" font-family="Times Roman,serif" font-size="14.00">PublicSubnetNetworkAclAssociation</text>
</g>
<!-- PublicSubnet&#45;&gt;PublicSubnetNetworkAclAssociation -->
<g id="edge16" class="edge"><title>PublicSubnet&#45;&gt;PublicSubnetNetworkAclAssociation</title>
<path fill="none" stroke="black" d="M1953.52,-287.887C1944.08,-267.328 1925.91,-234.281 1900,-216 1840.54,-174.048 1651.88,-133.218 1527.86,-109.894"/>
<polygon fill="black" stroke="black" points="1528.41,-106.435 1517.93,-108.038 1527.12,-113.316 1528.41,-106.435"/>
</g>
<!-- PublicSubnetRouteTableAssociation -->
<g id="node14" class="node"><title>PublicSubnetRouteTableAssociation</title>
<polygon fill="none" stroke="black" points="1858,-252 1598,-252 1598,-216 1858,-216 1858,-252"/>
<text text-anchor="middle" x="1728" y="-230.4" font-family="Times Roman,serif" font-size="14.00">PublicSubnetRouteTableAssociation</text>
</g>
<!-- PublicSubnet&#45;&gt;PublicSubnetRouteTableAssociation -->
<g id="edge48" class="edge"><title>PublicSubnet&#45;&gt;PublicSubnetRouteTableAssociation</title>
<path fill="none" stroke="black" d="M1907.84,-289.572C1874.81,-279.367 1832.03,-266.147 1796.48,-255.162"/>
<polygon fill="black" stroke="black" points="1797.25,-251.735 1786.66,-252.127 1795.18,-258.423 1797.25,-251.735"/>
</g>
<!-- ElasticLoadBalancer -->
<g id="node21" class="node"><title>ElasticLoadBalancer</title>
<polygon fill="none" stroke="black" points="2213,-252 2059,-252 2059,-216 2213,-216 2213,-252"/>
<text text-anchor="middle" x="2136" y="-230.4" font-family="Times Roman,serif" font-size="14.00">ElasticLoadBalancer</text>
</g>
<!-- PublicSubnet&#45;&gt;ElasticLoadBalancer -->
<g id="edge78" class="edge"><title>PublicSubnet&#45;&gt;ElasticLoadBalancer</title>
<path fill="none" stroke="black" d="M2005.16,-287.831C2028.77,-278.116 2058.02,-266.083 2082.87,-255.859"/>
<polygon fill="black" stroke="black" points="2084.24,-259.08 2092.16,-252.038 2081.58,-252.606 2084.24,-259.08"/>
</g>
<!-- OutBoundDynamicPortPublicNetworkAclEntry -->
<g id="node4" class="node"><title>OutBoundDynamicPortPublicNetworkAclEntry</title>
<polygon fill="none" stroke="black" points="334,-108 1.42109e-13,-108 0,-72 334,-72 334,-108"/>
<text text-anchor="middle" x="167" y="-86.4" font-family="Times Roman,serif" font-size="14.00">OutBoundDynamicPortPublicNetworkAclEntry</text>
</g>
<!-- InternetGateway -->
<g id="node6" class="node"><title>InternetGateway</title>
<polygon fill="none" stroke="black" points="1708,-396 1572,-396 1572,-360 1708,-360 1708,-396"/>
<text text-anchor="middle" x="1640" y="-374.4" font-family="Times Roman,serif" font-size="14.00">InternetGateway</text>
</g>
<!-- InternetGateway&#45;&gt;PublicRoute -->
<g id="edge6" class="edge"><title>InternetGateway&#45;&gt;PublicRoute</title>
<path fill="none" stroke="black" d="M1609.41,-359.947C1595.63,-350.609 1580.01,-338.191 1569,-324 1554.61,-305.46 1544.67,-280.668 1538.58,-261.799"/>
<polygon fill="black" stroke="black" points="1541.86,-260.543 1535.59,-252.003 1535.16,-262.589 1541.86,-260.543"/>
</g>
<!-- AttachGateway -->
<g id="node16" class="node"><title>AttachGateway</title>
<polygon fill="none" stroke="black" points="1702,-324 1578,-324 1578,-288 1702,-288 1702,-324"/>
<text text-anchor="middle" x="1640" y="-302.4" font-family="Times Roman,serif" font-size="14.00">AttachGateway</text>
</g>
<!-- InternetGateway&#45;&gt;AttachGateway -->
<g id="edge56" class="edge"><title>InternetGateway&#45;&gt;AttachGateway</title>
<path fill="none" stroke="black" d="M1640,-359.831C1640,-352.131 1640,-342.974 1640,-334.417"/>
<polygon fill="black" stroke="black" points="1643.5,-334.413 1640,-324.413 1636.5,-334.413 1643.5,-334.413"/>
</g>
<!-- OutboundHTTPPublicNetworkAclEntry -->
<g id="node7" class="node"><title>OutboundHTTPPublicNetworkAclEntry</title>
<polygon fill="none" stroke="black" points="634,-108 352,-108 352,-72 634,-72 634,-108"/>
<text text-anchor="middle" x="493" y="-86.4" font-family="Times Roman,serif" font-size="14.00">OutboundHTTPPublicNetworkAclEntry</text>
</g>
<!-- PrivateSubnetNetworkAclAssociation -->
<g id="node8" class="node"><title>PrivateSubnetNetworkAclAssociation</title>
<polygon fill="none" stroke="black" points="2366,-108 2094,-108 2094,-72 2366,-72 2366,-108"/>
<text text-anchor="middle" x="2230" y="-86.4" font-family="Times Roman,serif" font-size="14.00">PrivateSubnetNetworkAclAssociation</text>
</g>
<!-- InboundPrivateNetworkAclEntry -->
<g id="node9" class="node"><title>InboundPrivateNetworkAclEntry</title>
<polygon fill="none" stroke="black" points="2076,-108 1836,-108 1836,-72 2076,-72 2076,-108"/>
<text text-anchor="middle" x="1956" y="-86.4" font-family="Times Roman,serif" font-size="14.00">InboundPrivateNetworkAclEntry</text>
</g>
<!-- PrivateNetworkAcl -->
<g id="node10" class="node"><title>PrivateNetworkAcl</title>
<polygon fill="none" stroke="black" points="2098,-180 1952,-180 1952,-144 2098,-144 2098,-180"/>
<text text-anchor="middle" x="2025" y="-158.4" font-family="Times Roman,serif" font-size="14.00">PrivateNetworkAcl</text>
</g>
<!-- PrivateNetworkAcl&#45;&gt;PrivateSubnetNetworkAclAssociation -->
<g id="edge26" class="edge"><title>PrivateNetworkAcl&#45;&gt;PrivateSubnetNetworkAclAssociation</title>
<path fill="none" stroke="black" d="M2076.47,-143.924C2104.49,-134.081 2139.35,-121.839 2168.76,-111.507"/>
<polygon fill="black" stroke="black" points="2170.24,-114.699 2178.51,-108.083 2167.92,-108.095 2170.24,-114.699"/>
</g>
<!-- PrivateNetworkAcl&#45;&gt;InboundPrivateNetworkAclEntry -->
<g id="edge28" class="edge"><title>PrivateNetworkAcl&#45;&gt;InboundPrivateNetworkAclEntry</title>
<path fill="none" stroke="black" d="M2007.59,-143.831C1999.48,-135.369 1989.68,-125.149 1980.82,-115.897"/>
<polygon fill="black" stroke="black" points="1983.09,-113.211 1973.65,-108.413 1978.04,-118.055 1983.09,-113.211"/>
</g>
<!-- OutBoundPrivateNetworkAclEntry -->
<g id="node23" class="node"><title>OutBoundPrivateNetworkAclEntry</title>
<polygon fill="none" stroke="black" points="1818,-108 1564,-108 1564,-72 1818,-72 1818,-108"/>
<text text-anchor="middle" x="1691" y="-86.4" font-family="Times Roman,serif" font-size="14.00">OutBoundPrivateNetworkAclEntry</text>
</g>
<!-- PrivateNetworkAcl&#45;&gt;OutBoundPrivateNetworkAclEntry -->
<g id="edge86" class="edge"><title>PrivateNetworkAcl&#45;&gt;OutBoundPrivateNetworkAclEntry</title>
<path fill="none" stroke="black" d="M1951.7,-146.199C1902.63,-135.622 1837.61,-121.604 1784.77,-110.214"/>
<polygon fill="black" stroke="black" points="1785.23,-106.733 1774.72,-108.047 1783.75,-113.575 1785.23,-106.733"/>
</g>
<!-- LaunchConfig -->
<g id="node11" class="node"><title>LaunchConfig</title>
<polygon fill="none" stroke="black" points="2714,-180 2604,-180 2604,-144 2714,-144 2714,-180"/>
<text text-anchor="middle" x="2659" y="-158.4" font-family="Times Roman,serif" font-size="14.00">LaunchConfig</text>
</g>
<!-- WebServerGroup -->
<g id="node20" class="node"><title>WebServerGroup</title>
<polygon fill="none" stroke="black" points="2558,-108 2422,-108 2422,-72 2558,-72 2558,-108"/>
<text text-anchor="middle" x="2490" y="-86.4" font-family="Times Roman,serif" font-size="14.00">WebServerGroup</text>
</g>
<!-- LaunchConfig&#45;&gt;WebServerGroup -->
<g id="edge74" class="edge"><title>LaunchConfig&#45;&gt;WebServerGroup</title>
<path fill="none" stroke="black" d="M2616.35,-143.831C2593.65,-134.159 2565.55,-122.189 2541.63,-111.994"/>
<polygon fill="black" stroke="black" points="2542.91,-108.738 2532.34,-108.038 2540.17,-115.177 2542.91,-108.738"/>
</g>
<!-- PrivateSubnet -->
<g id="node12" class="node"><title>PrivateSubnet</title>
<polygon fill="none" stroke="black" points="2548,-180 2432,-180 2432,-144 2548,-144 2548,-180"/>
<text text-anchor="middle" x="2490" y="-158.4" font-family="Times Roman,serif" font-size="14.00">PrivateSubnet</text>
</g>
<!-- PrivateSubnet&#45;&gt;PrivateSubnetNetworkAclAssociation -->
<g id="edge24" class="edge"><title>PrivateSubnet&#45;&gt;PrivateSubnetNetworkAclAssociation</title>
<path fill="none" stroke="black" d="M2431.97,-145.931C2394.51,-135.555 2345.39,-121.953 2304.97,-110.761"/>
<polygon fill="black" stroke="black" points="2305.73,-107.341 2295.16,-108.045 2303.87,-114.087 2305.73,-107.341"/>
</g>
<!-- PrivateSubnetRouteTableAssociation -->
<g id="node18" class="node"><title>PrivateSubnetRouteTableAssociation</title>
<polygon fill="none" stroke="black" points="2844,-108 2576,-108 2576,-72 2844,-72 2844,-108"/>
<text text-anchor="middle" x="2710" y="-86.4" font-family="Times Roman,serif" font-size="14.00">PrivateSubnetRouteTableAssociation</text>
</g>
<!-- PrivateSubnet&#45;&gt;PrivateSubnetRouteTableAssociation -->
<g id="edge60" class="edge"><title>PrivateSubnet&#45;&gt;PrivateSubnetRouteTableAssociation</title>
<path fill="none" stroke="black" d="M2545.23,-143.924C2575.57,-133.996 2613.37,-121.625 2645.11,-111.238"/>
<polygon fill="black" stroke="black" points="2646.33,-114.52 2654.75,-108.083 2644.15,-107.867 2646.33,-114.52"/>
</g>
<!-- PrivateSubnet&#45;&gt;WebServerGroup -->
<g id="edge72" class="edge"><title>PrivateSubnet&#45;&gt;WebServerGroup</title>
<path fill="none" stroke="black" d="M2484.05,-143.831C2483.3,-136.131 2483.08,-126.974 2483.38,-118.417"/>
<polygon fill="black" stroke="black" points="2486.88,-118.616 2484.02,-108.413 2479.89,-118.17 2486.88,-118.616"/>
</g>
<!-- PrivateSubnet&#45;&gt;WebServerGroup -->
<g id="edge76" class="edge"><title>PrivateSubnet&#45;&gt;WebServerGroup</title>
<path fill="none" stroke="black" d="M2495.95,-143.831C2496.7,-136.131 2496.92,-126.974 2496.62,-118.417"/>
<polygon fill="black" stroke="black" points="2500.11,-118.17 2495.98,-108.413 2493.12,-118.616 2500.11,-118.17"/>
</g>
<!-- InboundHTTPPublicNetworkAclEntry -->
<g id="node13" class="node"><title>InboundHTTPPublicNetworkAclEntry</title>
<polygon fill="none" stroke="black" points="920,-108 652,-108 652,-72 920,-72 920,-108"/>
<text text-anchor="middle" x="786" y="-86.4" font-family="Times Roman,serif" font-size="14.00">InboundHTTPPublicNetworkAclEntry</text>
</g>
<!-- VPC -->
<g id="node15" class="node"><title>VPC</title>
<polygon fill="none" stroke="black" points="2025,-396 1971,-396 1971,-360 2025,-360 2025,-396"/>
<text text-anchor="middle" x="1998" y="-374.4" font-family="Times Roman,serif" font-size="14.00">VPC</text>
</g>
<!-- VPC&#45;&gt;PublicSubnet -->
<g id="edge10" class="edge"><title>VPC&#45;&gt;PublicSubnet</title>
<path fill="none" stroke="black" d="M1988.66,-359.831C1984.58,-351.877 1979.69,-342.369 1975.17,-333.572"/>
<polygon fill="black" stroke="black" points="1978.15,-331.708 1970.46,-324.413 1971.92,-334.907 1978.15,-331.708"/>
</g>
<!-- VPC&#45;&gt;PrivateNetworkAcl -->
<g id="edge30" class="edge"><title>VPC&#45;&gt;PrivateNetworkAcl</title>
<path fill="none" stroke="black" d="M2008.83,-359.7C2014.21,-349.553 2020.17,-336.493 2023,-324 2033.39,-278.16 2031.07,-223.137 2028.2,-190.452"/>
<polygon fill="black" stroke="black" points="2031.67,-189.89 2027.23,-180.269 2024.7,-190.557 2031.67,-189.89"/>
</g>
<!-- VPC&#45;&gt;PrivateSubnet -->
<g id="edge42" class="edge"><title>VPC&#45;&gt;PrivateSubnet</title>
<path fill="none" stroke="black" d="M2023.98,-359.85C2051.92,-340.733 2098.01,-310.361 2140,-288 2175.13,-269.293 2188.84,-274.013 2222,-252 2241.38,-239.133 2239.5,-227.002 2260,-216 2322.7,-182.35 2346.76,-196.409 2416,-180 2417.93,-179.543 2419.89,-179.077 2421.86,-178.606"/>
<polygon fill="black" stroke="black" points="2422.94,-181.948 2431.85,-176.214 2421.31,-175.14 2422.94,-181.948"/>
</g>
<!-- VPC&#45;&gt;AttachGateway -->
<g id="edge54" class="edge"><title>VPC&#45;&gt;AttachGateway</title>
<path fill="none" stroke="black" d="M1970.98,-373.495C1921.61,-365.139 1813.34,-346.242 1712.35,-324.233"/>
<polygon fill="black" stroke="black" points="1712.8,-320.75 1702.29,-322.024 1711.3,-327.587 1712.8,-320.75"/>
</g>
<!-- LoadBalancerSecurityGroup -->
<g id="node17" class="node"><title>LoadBalancerSecurityGroup</title>
<polygon fill="none" stroke="black" points="2357,-324 2149,-324 2149,-288 2357,-288 2357,-324"/>
<text text-anchor="middle" x="2253" y="-302.4" font-family="Times Roman,serif" font-size="14.00">LoadBalancerSecurityGroup</text>
</g>
<!-- VPC&#45;&gt;LoadBalancerSecurityGroup -->
<g id="edge58" class="edge"><title>VPC&#45;&gt;LoadBalancerSecurityGroup</title>
<path fill="none" stroke="black" d="M2025.29,-370.295C2061.74,-360.002 2127.72,-341.374 2179.3,-326.809"/>
<polygon fill="black" stroke="black" points="2180.41,-330.132 2189.08,-324.047 2178.51,-323.396 2180.41,-330.132"/>
</g>
<!-- PublicRouteTable -->
<g id="node19" class="node"><title>PublicRouteTable</title>
<polygon fill="none" stroke="black" points="1852,-324 1720,-324 1720,-288 1852,-288 1852,-324"/>
<text text-anchor="middle" x="1786" y="-302.4" font-family="Times Roman,serif" font-size="14.00">PublicRouteTable</text>
</g>
<!-- VPC&#45;&gt;PublicRouteTable -->
<g id="edge64" class="edge"><title>VPC&#45;&gt;PublicRouteTable</title>
<path fill="none" stroke="black" d="M1970.72,-368.735C1940.07,-358.327 1889.32,-341.089 1848.76,-327.314"/>
<polygon fill="black" stroke="black" points="1849.81,-323.975 1839.21,-324.073 1847.56,-330.603 1849.81,-323.975"/>
</g>
<!-- PublicNetworkAcl -->
<g id="node22" class="node"><title>PublicNetworkAcl</title>
<polygon fill="none" stroke="black" points="1169,-180 1033,-180 1033,-144 1169,-144 1169,-180"/>
<text text-anchor="middle" x="1101" y="-158.4" font-family="Times Roman,serif" font-size="14.00">PublicNetworkAcl</text>
</g>
<!-- VPC&#45;&gt;PublicNetworkAcl -->
<g id="edge82" class="edge"><title>VPC&#45;&gt;PublicNetworkAcl</title>
<path fill="none" stroke="black" d="M1970.63,-369.64C1948.28,-361.453 1917.46,-346.84 1899,-324 1867.53,-285.065 1906.04,-247.345 1867,-216 1814.27,-173.656 1363.88,-164.512 1179.35,-162.541"/>
<polygon fill="black" stroke="black" points="1179.21,-159.039 1169.18,-162.436 1179.14,-166.039 1179.21,-159.039"/>
</g>
<!-- InstanceSecurityGroup -->
<g id="node24" class="node"><title>InstanceSecurityGroup</title>
<polygon fill="none" stroke="black" points="2443,-252 2269,-252 2269,-216 2443,-216 2443,-252"/>
<text text-anchor="middle" x="2356" y="-230.4" font-family="Times Roman,serif" font-size="14.00">InstanceSecurityGroup</text>
</g>
<!-- VPC&#45;&gt;InstanceSecurityGroup -->
<g id="edge90" class="edge"><title>VPC&#45;&gt;InstanceSecurityGroup</title>
<path fill="none" stroke="black" d="M2025.18,-376.036C2106.5,-369.888 2343.65,-349.866 2366,-324 2380.6,-307.107 2375.92,-281.261 2368.86,-261.594"/>
<polygon fill="black" stroke="black" points="2372.09,-260.243 2365.17,-252.227 2365.58,-262.814 2372.09,-260.243"/>
</g>
<!-- PrivateRouteTable -->
<g id="node25" class="node"><title>PrivateRouteTable</title>
<polygon fill="none" stroke="black" points="2622,-324 2480,-324 2480,-288 2622,-288 2622,-324"/>
<text text-anchor="middle" x="2551" y="-302.4" font-family="Times Roman,serif" font-size="14.00">PrivateRouteTable</text>
</g>
<!-- VPC&#45;&gt;PrivateRouteTable -->
<g id="edge92" class="edge"><title>VPC&#45;&gt;PrivateRouteTable</title>
<path fill="none" stroke="black" d="M2025.05,-374.479C2105.06,-364.06 2342.94,-333.089 2469.57,-316.603"/>
<polygon fill="black" stroke="black" points="2470.14,-320.058 2479.6,-315.296 2469.24,-313.116 2470.14,-320.058"/>
</g>
<!-- LoadBalancerSecurityGroup&#45;&gt;ElasticLoadBalancer -->
<g id="edge80" class="edge"><title>LoadBalancerSecurityGroup&#45;&gt;ElasticLoadBalancer</title>
<path fill="none" stroke="black" d="M2223.48,-287.831C2208.51,-278.622 2190.16,-267.33 2174.14,-257.471"/>
<polygon fill="black" stroke="black" points="2175.87,-254.423 2165.51,-252.163 2172.2,-260.385 2175.87,-254.423"/>
</g>
<!-- LoadBalancerSecurityGroup&#45;&gt;InstanceSecurityGroup -->
<g id="edge88" class="edge"><title>LoadBalancerSecurityGroup&#45;&gt;InstanceSecurityGroup</title>
<path fill="none" stroke="black" d="M2278.99,-287.831C2291.92,-278.793 2307.72,-267.748 2321.64,-258.02"/>
<polygon fill="black" stroke="black" points="2323.83,-260.761 2330.02,-252.163 2319.82,-255.024 2323.83,-260.761"/>
</g>
<!-- PublicRouteTable&#45;&gt;PublicRoute -->
<g id="edge8" class="edge"><title>PublicRouteTable&#45;&gt;PublicRoute</title>
<path fill="none" stroke="black" d="M1719.73,-288.426C1683.83,-278.767 1638.49,-266.347 1589.79,-252.191"/>
<polygon fill="black" stroke="black" points="1590.59,-248.778 1580.01,-249.337 1588.63,-255.498 1590.59,-248.778"/>
</g>
<!-- PublicRouteTable&#45;&gt;PublicSubnetRouteTableAssociation -->
<g id="edge50" class="edge"><title>PublicRouteTable&#45;&gt;PublicSubnetRouteTableAssociation</title>
<path fill="none" stroke="black" d="M1771.36,-287.831C1764.68,-279.539 1756.64,-269.557 1749.31,-260.453"/>
<polygon fill="black" stroke="black" points="1751.83,-258.005 1742.83,-252.413 1746.38,-262.396 1751.83,-258.005"/>
</g>
<!-- ElasticLoadBalancer&#45;&gt;WebServerGroup -->
<g id="edge70" class="edge"><title>ElasticLoadBalancer&#45;&gt;WebServerGroup</title>
<path fill="none" stroke="black" d="M2213.17,-217.844C2281.75,-203.343 2372.34,-183.772 2380,-180 2402.36,-168.993 2403.74,-159.821 2423,-144 2434.8,-134.309 2447.85,-123.75 2459.28,-114.56"/>
<polygon fill="black" stroke="black" points="2461.67,-117.132 2467.28,-108.142 2457.29,-111.673 2461.67,-117.132"/>
</g>
<!-- URL -->
<g id="node30" class="node"><title>URL</title>
<polygon fill="lightgrey" stroke="lightgrey" points="2409,-36 2379,-36 2367,-24 2367,-12 2379,-1.46056e-14 2409,-6.71068e-15 2421,-12 2421,-24 2409,-36"/>
<path fill="lightgrey" stroke="lightgrey" d="M2379,-36C2373,-36 2367,-30 2367,-24"/>
<path fill="lightgrey" stroke="lightgrey" d="M2367,-12C2367,-6 2373,-1.61846e-14 2379,-1.46056e-14"/>
<path fill="lightgrey" stroke="lightgrey" d="M2409,-6.71068e-15C2415,-5.1317e-15 2421,-6 2421,-12"/>
<path fill="lightgrey" stroke="lightgrey" d="M2421,-24C2421,-30 2415,-36 2409,-36"/>
<polyline fill="none" stroke="black" points="2409,-36 2379,-36 "/>
<path fill="none" stroke="black" d="M2379,-36C2373,-36 2367,-30 2367,-24"/>
<polyline fill="none" stroke="black" points="2367,-24 2367,-12 "/>
<path fill="none" stroke="black" d="M2367,-12C2367,-6 2373,-1.61846e-14 2379,-1.46056e-14"/>
<polyline fill="none" stroke="black" points="2379,-1.46056e-14 2409,-6.71068e-15 "/>
<path fill="none" stroke="black" d="M2409,-6.71068e-15C2415,-5.1317e-15 2421,-6 2421,-12"/>
<polyline fill="none" stroke="black" points="2421,-12 2421,-24 "/>
<path fill="none" stroke="black" d="M2421,-24C2421,-30 2415,-36 2409,-36"/>
<text text-anchor="middle" x="2394" y="-14.4" font-family="Times Roman,serif" font-size="14.00">URL</text>
</g>
<!-- ElasticLoadBalancer&#45;&gt;URL -->
<g id="edge96" class="edge"><title>ElasticLoadBalancer&#45;&gt;URL</title>
<path fill="none" stroke="black" d="M2203.18,-215.961C2257.83,-197.755 2332.6,-164.146 2375,-108 2388.34,-90.3409 2392.8,-65.4287 2394.09,-46.29"/>
<polygon fill="black" stroke="black" points="2397.6,-46.1997 2394.52,-36.0611 2390.61,-45.9047 2397.6,-46.1997"/>
</g>
<!-- PublicNetworkAcl&#45;&gt;InboundDynamicPortsPublicNetworkAclEntry -->
<g id="edge4" class="edge"><title>PublicNetworkAcl&#45;&gt;InboundDynamicPortsPublicNetworkAclEntry</title>
<path fill="none" stroke="black" d="M1101,-143.831C1101,-136.131 1101,-126.974 1101,-118.417"/>
<polygon fill="black" stroke="black" points="1104.5,-118.413 1101,-108.413 1097.5,-118.413 1104.5,-118.413"/>
</g>
<!-- PublicNetworkAcl&#45;&gt;OutBoundDynamicPortPublicNetworkAclEntry -->
<g id="edge14" class="edge"><title>PublicNetworkAcl&#45;&gt;OutBoundDynamicPortPublicNetworkAclEntry</title>
<path fill="none" stroke="black" d="M1033,-157.86C901.934,-149.727 604.995,-130.554 344.245,-108.094"/>
<polygon fill="black" stroke="black" points="344.469,-104.601 334.205,-107.226 343.866,-111.575 344.469,-104.601"/>
</g>
<!-- PublicNetworkAcl&#45;&gt;PublicSubnetNetworkAclAssociation -->
<g id="edge18" class="edge"><title>PublicNetworkAcl&#45;&gt;PublicSubnetNetworkAclAssociation</title>
<path fill="none" stroke="black" d="M1169.3,-146.288C1215.26,-135.718 1276.27,-121.682 1325.88,-110.271"/>
<polygon fill="black" stroke="black" points="1326.68,-113.678 1335.64,-108.025 1325.11,-106.856 1326.68,-113.678"/>
</g>
<!-- PublicNetworkAcl&#45;&gt;OutboundHTTPPublicNetworkAclEntry -->
<g id="edge22" class="edge"><title>PublicNetworkAcl&#45;&gt;OutboundHTTPPublicNetworkAclEntry</title>
<path fill="none" stroke="black" d="M1032.71,-153.993C945.305,-143.735 788.885,-125.343 644.681,-108.199"/>
<polygon fill="black" stroke="black" points="644.664,-104.672 634.321,-106.967 643.838,-111.623 644.664,-104.672"/>
</g>
<!-- PublicNetworkAcl&#45;&gt;InboundHTTPPublicNetworkAclEntry -->
<g id="edge46" class="edge"><title>PublicNetworkAcl&#45;&gt;InboundHTTPPublicNetworkAclEntry</title>
<path fill="none" stroke="black" d="M1032.65,-146.377C986.339,-135.792 924.695,-121.702 874.62,-110.256"/>
<polygon fill="black" stroke="black" points="875.296,-106.82 864.767,-108.004 873.736,-113.644 875.296,-106.82"/>
</g>
<!-- InstanceSecurityGroup&#45;&gt;LaunchConfig -->
<g id="edge34" class="edge"><title>InstanceSecurityGroup&#45;&gt;LaunchConfig</title>
<path fill="none" stroke="black" d="M2432.07,-215.924C2481.99,-204.063 2546.57,-188.716 2594.07,-177.43"/>
<polygon fill="black" stroke="black" points="2595.01,-180.803 2603.93,-175.085 2593.39,-173.992 2595.01,-180.803"/>
</g>
<!-- PrivateRouteTable&#45;&gt;PrivateSubnetRouteTableAssociation -->
<g id="edge62" class="edge"><title>PrivateRouteTable&#45;&gt;PrivateSubnetRouteTableAssociation</title>
<path fill="none" stroke="black" d="M2551.16,-287.961C2552.37,-255.463 2559.3,-186.517 2595,-144 2606.32,-130.515 2621.77,-120.19 2637.66,-112.364"/>
<polygon fill="black" stroke="black" points="2639.43,-115.404 2647.04,-108.04 2636.5,-109.047 2639.43,-115.404"/>
</g>
<!-- InstanceCount -->
<g id="node27" class="node"><title>InstanceCount</title>
<polygon fill="lightgrey" stroke="lightgrey" points="2874,-540 2782,-540 2770,-528 2770,-516 2782,-504 2874,-504 2886,-516 2886,-528 2874,-540"/>
<path fill="lightgrey" stroke="lightgrey" d="M2782,-540C2776,-540 2770,-534 2770,-528"/>
<path fill="lightgrey" stroke="lightgrey" d="M2770,-516C2770,-510 2776,-504 2782,-504"/>
<path fill="lightgrey" stroke="lightgrey" d="M2874,-504C2880,-504 2886,-510 2886,-516"/>
<path fill="lightgrey" stroke="lightgrey" d="M2886,-528C2886,-534 2880,-540 2874,-540"/>
<polyline fill="none" stroke="black" points="2874,-540 2782,-540 "/>
<path fill="none" stroke="black" d="M2782,-540C2776,-540 2770,-534 2770,-528"/>
<polyline fill="none" stroke="black" points="2770,-528 2770,-516 "/>
<path fill="none" stroke="black" d="M2770,-516C2770,-510 2776,-504 2782,-504"/>
<polyline fill="none" stroke="black" points="2782,-504 2874,-504 "/>
<path fill="none" stroke="black" d="M2874,-504C2880,-504 2886,-510 2886,-516"/>
<polyline fill="none" stroke="black" points="2886,-516 2886,-528 "/>
<path fill="none" stroke="black" d="M2886,-528C2886,-534 2880,-540 2874,-540"/>
<text text-anchor="middle" x="2828" y="-518.4" font-family="Times Roman,serif" font-size="14.00">InstanceCount</text>
</g>
<!-- InstanceCount&#45;&gt;WebServerGroup -->
<g id="edge68" class="edge"><title>InstanceCount&#45;&gt;WebServerGroup</title>
<path fill="none" stroke="black" d="M2828,-503.815C2828,-476.498 2828,-423.25 2828,-378 2828,-378 2828,-378 2828,-234 2828,-108.335 2699.01,-135.678 2567.87,-108.089"/>
<polygon fill="black" stroke="black" points="2568.54,-104.653 2558.02,-105.911 2567.03,-111.488 2568.54,-104.653"/>
</g>
<!-- InstanceType -->
<g id="node28" class="node"><title>InstanceType</title>
<polygon fill="lightgrey" stroke="lightgrey" points="2700,-540 2618,-540 2606,-528 2606,-516 2618,-504 2700,-504 2712,-516 2712,-528 2700,-540"/>
<path fill="lightgrey" stroke="lightgrey" d="M2618,-540C2612,-540 2606,-534 2606,-528"/>
<path fill="lightgrey" stroke="lightgrey" d="M2606,-516C2606,-510 2612,-504 2618,-504"/>
<path fill="lightgrey" stroke="lightgrey" d="M2700,-504C2706,-504 2712,-510 2712,-516"/>
<path fill="lightgrey" stroke="lightgrey" d="M2712,-528C2712,-534 2706,-540 2700,-540"/>
<polyline fill="none" stroke="black" points="2700,-540 2618,-540 "/>
<path fill="none" stroke="black" d="M2618,-540C2612,-540 2606,-534 2606,-528"/>
<polyline fill="none" stroke="black" points="2606,-528 2606,-516 "/>
<path fill="none" stroke="black" d="M2606,-516C2606,-510 2612,-504 2618,-504"/>
<polyline fill="none" stroke="black" points="2618,-504 2700,-504 "/>
<path fill="none" stroke="black" d="M2700,-504C2706,-504 2712,-510 2712,-516"/>
<polyline fill="none" stroke="black" points="2712,-516 2712,-528 "/>
<path fill="none" stroke="black" d="M2712,-528C2712,-534 2706,-540 2700,-540"/>
<text text-anchor="middle" x="2659" y="-518.4" font-family="Times Roman,serif" font-size="14.00">InstanceType</text>
</g>
<!-- InstanceType&#45;&gt;LaunchConfig -->
<g id="edge36" class="edge"><title>InstanceType&#45;&gt;LaunchConfig</title>
<path fill="none" stroke="black" d="M2653.18,-503.815C2650,-476.498 2650,-423.25 2650,-378 2650,-378 2650,-378 2650,-306 2650,-265.876 2650,-219.463 2652.22,-190.418"/>
<polygon fill="black" stroke="black" points="2655.73,-190.469 2653.18,-180.185 2648.76,-189.813 2655.73,-190.469"/>
</g>
<!-- InstanceType&#45;&gt;LaunchConfig -->
<g id="edge40" class="edge"><title>InstanceType&#45;&gt;LaunchConfig</title>
<path fill="none" stroke="black" d="M2664.82,-503.815C2668,-476.498 2668,-423.25 2668,-378 2668,-378 2668,-378 2668,-306 2668,-265.876 2668,-219.463 2665.78,-190.418"/>
<polygon fill="black" stroke="black" points="2669.24,-189.813 2664.82,-180.185 2662.27,-190.469 2669.24,-189.813"/>
</g>
<!-- AWS::StackId -->
<g id="node35" class="node"><title>AWS::StackId</title>
<polygon fill="none" stroke="black" points="1938,-468 1828,-468 1828,-432 1938,-432 1938,-468"/>
<text text-anchor="middle" x="1883" y="-446.4" font-family="Times Roman,serif" font-size="14.00">AWS::StackId</text>
</g>
<!-- AWS::StackId&#45;&gt;PublicSubnet -->
<g id="edge12" class="edge"><title>AWS::StackId&#45;&gt;PublicSubnet</title>
<path fill="none" stroke="black" d="M1892.88,-431.762C1906.36,-406.876 1930.62,-362.082 1946.26,-333.216"/>
<polygon fill="black" stroke="black" points="1949.52,-334.55 1951.2,-324.09 1943.36,-331.216 1949.52,-334.55"/>
</g>
<!-- AWS::StackId&#45;&gt;InternetGateway -->
<g id="edge20" class="edge"><title>AWS::StackId&#45;&gt;InternetGateway</title>
<path fill="none" stroke="black" d="M1827.86,-433.662C1793.15,-423.379 1748.03,-410.008 1710.7,-398.948"/>
<polygon fill="black" stroke="black" points="1711.48,-395.527 1700.89,-396.042 1709.49,-402.239 1711.48,-395.527"/>
</g>
<!-- AWS::StackId&#45;&gt;PrivateNetworkAcl -->
<g id="edge32" class="edge"><title>AWS::StackId&#45;&gt;PrivateNetworkAcl</title>
<path fill="none" stroke="black" d="M1827.94,-446.139C1748.19,-439.65 1605.44,-424.394 1563,-396 1488.66,-346.261 1412.91,-282.253 1473,-216 1503.84,-182 1794.96,-168.691 1941.53,-164.112"/>
<polygon fill="black" stroke="black" points="1941.94,-167.602 1951.83,-163.798 1941.73,-160.605 1941.94,-167.602"/>
</g>
<!-- AWS::StackId&#45;&gt;PrivateSubnet -->
<g id="edge44" class="edge"><title>AWS::StackId&#45;&gt;PrivateSubnet</title>
<path fill="none" stroke="black" d="M1938.11,-446.377C2034.85,-437.895 2238.78,-410.386 2385,-324 2422.63,-301.765 2428.25,-288.695 2452,-252 2464.6,-232.538 2474.58,-208.201 2481.14,-189.744"/>
<polygon fill="black" stroke="black" points="2484.49,-190.757 2484.43,-180.162 2477.87,-188.483 2484.49,-190.757"/>
</g>
<!-- AWS::StackId&#45;&gt;VPC -->
<g id="edge52" class="edge"><title>AWS::StackId&#45;&gt;VPC</title>
<path fill="none" stroke="black" d="M1912.02,-431.831C1927.29,-422.271 1946.15,-410.465 1962.31,-400.348"/>
<polygon fill="black" stroke="black" points="1964.35,-403.2 1970.96,-394.926 1960.63,-397.266 1964.35,-403.2"/>
</g>
<!-- AWS::StackId&#45;&gt;PublicRouteTable -->
<g id="edge66" class="edge"><title>AWS::StackId&#45;&gt;PublicRouteTable</title>
<path fill="none" stroke="black" d="M1870.71,-431.762C1853.81,-406.66 1823.25,-361.302 1803.83,-332.467"/>
<polygon fill="black" stroke="black" points="1806.68,-330.428 1798.19,-324.09 1800.87,-334.339 1806.68,-330.428"/>
</g>
<!-- AWS::StackId&#45;&gt;PublicNetworkAcl -->
<g id="edge84" class="edge"><title>AWS::StackId&#45;&gt;PublicNetworkAcl</title>
<path fill="none" stroke="black" d="M1827.64,-444.525C1738.76,-435.305 1568.39,-415.746 1511,-396 1359.7,-343.94 1200.71,-235.189 1133.76,-186.494"/>
<polygon fill="black" stroke="black" points="1135.45,-183.39 1125.31,-180.309 1131.31,-189.039 1135.45,-183.39"/>
</g>
<!-- AWS::StackId&#45;&gt;PrivateRouteTable -->
<g id="edge94" class="edge"><title>AWS::StackId&#45;&gt;PrivateRouteTable</title>
<path fill="none" stroke="black" d="M1938.12,-447.113C2074.33,-439.664 2419.22,-418.78 2466,-396 2494.87,-381.941 2519,-353.635 2534.08,-332.501"/>
<polygon fill="black" stroke="black" points="2536.99,-334.449 2539.79,-324.231 2531.23,-330.473 2536.99,-334.449"/>
</g>
<!-- AWS::Region -->
<g id="node49" class="node"><title>AWS::Region</title>
<polygon fill="none" stroke="black" points="2800,-468 2696,-468 2696,-432 2800,-432 2800,-468"/>
<text text-anchor="middle" x="2748" y="-446.4" font-family="Times Roman,serif" font-size="14.00">AWS::Region</text>
</g>
<!-- AWS::Region&#45;&gt;LaunchConfig -->
<g id="edge38" class="edge"><title>AWS::Region&#45;&gt;LaunchConfig</title>
<path fill="none" stroke="black" d="M2743.72,-431.848C2734.19,-392.187 2709.85,-295.024 2682,-216 2678.93,-207.296 2675.16,-197.993 2671.56,-189.603"/>
<polygon fill="black" stroke="black" points="2674.69,-188.02 2667.47,-180.265 2668.27,-190.829 2674.69,-188.02"/>
</g>
</g>
</svg>
