<?xml version="1.0" encoding="UTF-8" standalone="no"?>
<!DOCTYPE svg PUBLIC "-//W3C//DTD SVG 1.1//EN"
 "http://www.w3.org/Graphics/SVG/1.1/DTD/svg11.dtd">
<!-- Generated by graphviz version 2.26.3 (20100126.1600)
 -->
<!-- Title: AWS CloudFormation Sample Template VPC_EC2_Instance_with_EIP_and_Security_Group: Sample template showing how to create an instance with an Elastic IP address and a security group in an existing VPC. It assumes you have already created a VPC. **WARNING** This template creates an Amazon EC2 instance. You will be billed for the AWS resources used if you create a stack from this template. Pages: 1 -->
<svg width="481pt" height="260pt"
 viewBox="0.00 0.00 481.00 260.00" xmlns="http://www.w3.org/2000/svg" xmlns:xlink="http://www.w3.org/1999/xlink">
<g id="graph1" class="graph" transform="scale(1 1) rotate(0) translate(4 256)">
<title>AWS CloudFormation Sample Template VPC_EC2_Instance_with_EIP_and_Security_Group: Sample template showing how to create an instance with an Elastic IP address and a security group in an existing VPC. It assumes you have already created a VPC. **WARNING** This template creates an Amazon EC2 instance. You will be billed for the AWS resources used if you create a stack from this template.</title>
<polygon fill="white" stroke="white" points="-4,5 -4,-256 478,-256 478,5 -4,5"/>
<!-- InstanceSecurityGroup -->
<g id="node1" class="node"><title>InstanceSecurityGroup</title>
<polygon fill="none" stroke="black" points="460,-180 286,-180 286,-144 460,-144 460,-180"/>
<text text-anchor="middle" x="373" y="-158.4" font-family="Times Roman,serif" font-size="14.00">InstanceSecurityGroup</text>
</g>
<!-- Ec2Instance -->
<g id="node3" class="node"><title>Ec2Instance</title>
<polygon fill="none" stroke="black" points="226,-108 126,-108 126,-72 226,-72 226,-108"/>
<text text-anchor="middle" x="176" y="-86.4" font-family="Times Roman,serif" font-size="14.00">Ec2Instance</text>
</g>
<!-- InstanceSecurityGroup&#45;&gt;Ec2Instance -->
<g id="edge14" class="edge"><title>InstanceSecurityGroup&#45;&gt;Ec2Instance</title>
<path fill="none" stroke="black" d="M323.543,-143.924C296.729,-134.124 263.405,-121.945 235.215,-111.642"/>
<polygon fill="black" stroke="black" points="236.071,-108.229 225.477,-108.083 233.668,-114.803 236.071,-108.229"/>
</g>
<!-- IPAddress -->
<g id="node2" class="node"><title>IPAddress</title>
<polygon fill="none" stroke="black" points="157,-36 75,-36 75,-1.77636e-14 157,-3.55271e-15 157,-36"/>
<text text-anchor="middle" x="116" y="-14.4" font-family="Times Roman,serif" font-size="14.00">IPAddress</text>
</g>
<!-- IPAddress&#45;&gt;IPAddress -->
<g id="edge20" class="edge"><title>IPAddress&#45;&gt;IPAddress</title>
<path fill="none" stroke="black" d="M157.083,-31.3146C167.336,-30.3835 175,-25.9453 175,-18 175,-12.91 171.855,-9.25939 166.899,-7.04806"/>
<polygon fill="black" stroke="black" points="167.625,-3.62292 157.083,-4.68539 165.986,-10.4285 167.625,-3.62292"/>
</g>
<!-- Ec2Instance&#45;&gt;IPAddress -->
<g id="edge8" class="edge"><title>Ec2Instance&#45;&gt;IPAddress</title>
<path fill="none" stroke="black" d="M160.859,-71.8314C153.878,-63.454 145.461,-53.3531 137.812,-44.1749"/>
<polygon fill="black" stroke="black" points="140.435,-41.8548 131.344,-36.4133 135.057,-46.3362 140.435,-41.8548"/>
</g>
<!-- InstanceId -->
<g id="node10" class="node"><title>InstanceId</title>
<polygon fill="lightgrey" stroke="lightgrey" points="269,-36 205,-36 193,-24 193,-12 205,-1.58257e-14 269,-5.49056e-15 281,-12 281,-24 269,-36"/>
<path fill="lightgrey" stroke="lightgrey" d="M205,-36C199,-36 193,-30 193,-24"/>
<path fill="lightgrey" stroke="lightgrey" d="M193,-12C193,-6 199,-1.67946e-14 205,-1.58257e-14"/>
<path fill="lightgrey" stroke="lightgrey" d="M269,-5.49056e-15C275,-4.52164e-15 281,-6 281,-12"/>
<path fill="lightgrey" stroke="lightgrey" d="M281,-24C281,-30 275,-36 269,-36"/>
<polyline fill="none" stroke="black" points="269,-36 205,-36 "/>
<path fill="none" stroke="black" d="M205,-36C199,-36 193,-30 193,-24"/>
<polyline fill="none" stroke="black" points="193,-24 193,-12 "/>
<path fill="none" stroke="black" d="M193,-12C193,-6 199,-1.67946e-14 205,-1.58257e-14"/>
<polyline fill="none" stroke="black" points="205,-1.58257e-14 269,-5.49056e-15 "/>
<path fill="none" stroke="black" d="M269,-5.49056e-15C275,-4.52164e-15 281,-6 281,-12"/>
<polyline fill="none" stroke="black" points="281,-12 281,-24 "/>
<path fill="none" stroke="black" d="M281,-24C281,-30 275,-36 269,-36"/>
<text text-anchor="middle" x="237" y="-14.4" font-family="Times Roman,serif" font-size="14.00">InstanceId</text>
</g>
<!-- Ec2Instance&#45;&gt;InstanceId -->
<g id="edge18" class="edge"><title>Ec2Instance&#45;&gt;InstanceId</title>
<path fill="none" stroke="black" d="M191.393,-71.8314C198.49,-63.454 207.048,-53.3531 214.824,-44.1749"/>
<polygon fill="black" stroke="black" points="217.606,-46.3056 221.4,-36.4133 212.265,-41.7807 217.606,-46.3056"/>
</g>
<!-- SubnetId -->
<g id="node5" class="node"><title>SubnetId</title>
<polygon fill="lightgrey" stroke="lightgrey" points="66,-252 12,-252 2.36848e-14,-240 1.18424e-14,-228 12,-216 66,-216 78,-228 78,-240 66,-252"/>
<path fill="lightgrey" stroke="lightgrey" d="M12,-252C6,-252 2.96059e-14,-246 2.36848e-14,-240"/>
<path fill="lightgrey" stroke="lightgrey" d="M1.18424e-14,-228C5.92119e-15,-222 6,-216 12,-216"/>
<path fill="lightgrey" stroke="lightgrey" d="M66,-216C72,-216 78,-222 78,-228"/>
<path fill="lightgrey" stroke="lightgrey" d="M78,-240C78,-246 72,-252 66,-252"/>
<polyline fill="none" stroke="black" points="66,-252 12,-252 "/>
<path fill="none" stroke="black" d="M12,-252C6,-252 2.96059e-14,-246 2.36848e-14,-240"/>
<polyline fill="none" stroke="black" points="2.36848e-14,-240 1.18424e-14,-228 "/>
<path fill="none" stroke="black" d="M1.18424e-14,-228C5.92119e-15,-222 6,-216 12,-216"/>
<polyline fill="none" stroke="black" points="12,-216 66,-216 "/>
<path fill="none" stroke="black" d="M66,-216C72,-216 78,-222 78,-228"/>
<polyline fill="none" stroke="black" points="78,-228 78,-240 "/>
<path fill="none" stroke="black" d="M78,-240C78,-246 72,-252 66,-252"/>
<text text-anchor="middle" x="39" y="-230.4" font-family="Times Roman,serif" font-size="14.00">SubnetId</text>
</g>
<!-- SubnetId&#45;&gt;Ec2Instance -->
<g id="edge10" class="edge"><title>SubnetId&#45;&gt;Ec2Instance</title>
<path fill="none" stroke="black" d="M56.3511,-215.762C80.542,-190.335 124.506,-144.125 151.876,-115.357"/>
<polygon fill="black" stroke="black" points="154.433,-117.747 158.79,-108.09 149.361,-112.922 154.433,-117.747"/>
</g>
<!-- VpcId -->
<g id="node6" class="node"><title>VpcId</title>
<polygon fill="lightgrey" stroke="lightgrey" points="339,-252 309,-252 297,-240 297,-228 309,-216 339,-216 351,-228 351,-240 339,-252"/>
<path fill="lightgrey" stroke="lightgrey" d="M309,-252C303,-252 297,-246 297,-240"/>
<path fill="lightgrey" stroke="lightgrey" d="M297,-228C297,-222 303,-216 309,-216"/>
<path fill="lightgrey" stroke="lightgrey" d="M339,-216C345,-216 351,-222 351,-228"/>
<path fill="lightgrey" stroke="lightgrey" d="M351,-240C351,-246 345,-252 339,-252"/>
<polyline fill="none" stroke="black" points="339,-252 309,-252 "/>
<path fill="none" stroke="black" d="M309,-252C303,-252 297,-246 297,-240"/>
<polyline fill="none" stroke="black" points="297,-240 297,-228 "/>
<path fill="none" stroke="black" d="M297,-228C297,-222 303,-216 309,-216"/>
<polyline fill="none" stroke="black" points="309,-216 339,-216 "/>
<path fill="none" stroke="black" d="M339,-216C345,-216 351,-222 351,-228"/>
<polyline fill="none" stroke="black" points="351,-228 351,-240 "/>
<path fill="none" stroke="black" d="M351,-240C351,-246 345,-252 339,-252"/>
<text text-anchor="middle" x="324" y="-230.4" font-family="Times Roman,serif" font-size="14.00">VpcId</text>
</g>
<!-- VpcId&#45;&gt;InstanceSecurityGroup -->
<g id="edge6" class="edge"><title>VpcId&#45;&gt;InstanceSecurityGroup</title>
<path fill="none" stroke="black" d="M336.365,-215.831C341.951,-207.623 348.663,-197.761 354.807,-188.732"/>
<polygon fill="black" stroke="black" points="357.736,-190.65 360.469,-180.413 351.949,-186.711 357.736,-190.65"/>
</g>
<!-- SSHLocation -->
<g id="node7" class="node"><title>SSHLocation</title>
<polygon fill="lightgrey" stroke="lightgrey" points="461,-252 381,-252 369,-240 369,-228 381,-216 461,-216 473,-228 473,-240 461,-252"/>
<path fill="lightgrey" stroke="lightgrey" d="M381,-252C375,-252 369,-246 369,-240"/>
<path fill="lightgrey" stroke="lightgrey" d="M369,-228C369,-222 375,-216 381,-216"/>
<path fill="lightgrey" stroke="lightgrey" d="M461,-216C467,-216 473,-222 473,-228"/>
<path fill="lightgrey" stroke="lightgrey" d="M473,-240C473,-246 467,-252 461,-252"/>
<polyline fill="none" stroke="black" points="461,-252 381,-252 "/>
<path fill="none" stroke="black" d="M381,-252C375,-252 369,-246 369,-240"/>
<polyline fill="none" stroke="black" points="369,-240 369,-228 "/>
<path fill="none" stroke="black" d="M369,-228C369,-222 375,-216 381,-216"/>
<polyline fill="none" stroke="black" points="381,-216 461,-216 "/>
<path fill="none" stroke="black" d="M461,-216C467,-216 473,-222 473,-228"/>
<polyline fill="none" stroke="black" points="473,-228 473,-240 "/>
<path fill="none" stroke="black" d="M473,-240C473,-246 467,-252 461,-252"/>
<text text-anchor="middle" x="421" y="-230.4" font-family="Times Roman,serif" font-size="14.00">SSHLocation</text>
</g>
<!-- SSHLocation&#45;&gt;InstanceSecurityGroup -->
<g id="edge4" class="edge"><title>SSHLocation&#45;&gt;InstanceSecurityGroup</title>
<path fill="none" stroke="black" d="M408.888,-215.831C403.472,-207.708 396.976,-197.964 391.008,-189.012"/>
<polygon fill="black" stroke="black" points="393.735,-186.792 385.276,-180.413 387.91,-190.675 393.735,-186.792"/>
</g>
<!-- KeyName -->
<g id="node8" class="node"><title>KeyName</title>
<polygon fill="lightgrey" stroke="lightgrey" points="164,-252 108,-252 96,-240 96,-228 108,-216 164,-216 176,-228 176,-240 164,-252"/>
<path fill="lightgrey" stroke="lightgrey" d="M108,-252C102,-252 96,-246 96,-240"/>
<path fill="lightgrey" stroke="lightgrey" d="M96,-228C96,-222 102,-216 108,-216"/>
<path fill="lightgrey" stroke="lightgrey" d="M164,-216C170,-216 176,-222 176,-228"/>
<path fill="lightgrey" stroke="lightgrey" d="M176,-240C176,-246 170,-252 164,-252"/>
<polyline fill="none" stroke="black" points="164,-252 108,-252 "/>
<path fill="none" stroke="black" d="M108,-252C102,-252 96,-246 96,-240"/>
<polyline fill="none" stroke="black" points="96,-240 96,-228 "/>
<path fill="none" stroke="black" d="M96,-228C96,-222 102,-216 108,-216"/>
<polyline fill="none" stroke="black" points="108,-216 164,-216 "/>
<path fill="none" stroke="black" d="M164,-216C170,-216 176,-222 176,-228"/>
<polyline fill="none" stroke="black" points="176,-228 176,-240 "/>
<path fill="none" stroke="black" d="M176,-240C176,-246 170,-252 164,-252"/>
<text text-anchor="middle" x="136" y="-230.4" font-family="Times Roman,serif" font-size="14.00">KeyName</text>
</g>
<!-- KeyName&#45;&gt;Ec2Instance -->
<g id="edge12" class="edge"><title>KeyName&#45;&gt;Ec2Instance</title>
<path fill="none" stroke="black" d="M138.935,-215.854C142.108,-197.522 147.707,-168.488 155,-144 157.6,-135.269 160.989,-125.958 164.283,-117.569"/>
<polygon fill="black" stroke="black" points="167.553,-118.819 168.053,-108.236 161.062,-116.197 167.553,-118.819"/>
</g>
<!-- AWS::Region -->
<g id="node17" class="node"><title>AWS::Region</title>
<polygon fill="none" stroke="black" points="268,-180 164,-180 164,-144 268,-144 268,-180"/>
<text text-anchor="middle" x="216" y="-158.4" font-family="Times Roman,serif" font-size="14.00">AWS::Region</text>
</g>
<!-- AWS::Region&#45;&gt;Ec2Instance -->
<g id="edge16" class="edge"><title>AWS::Region&#45;&gt;Ec2Instance</title>
<path fill="none" stroke="black" d="M205.906,-143.831C201.44,-135.792 196.093,-126.167 191.162,-117.292"/>
<polygon fill="black" stroke="black" points="194.146,-115.455 186.23,-108.413 188.027,-118.855 194.146,-115.455"/>
</g>
</g>
</svg>
