<?xml version="1.0" encoding="UTF-8" standalone="no"?>
<!DOCTYPE svg PUBLIC "-//W3C//DTD SVG 1.1//EN"
 "http://www.w3.org/Graphics/SVG/1.1/DTD/svg11.dtd">
<!-- Generated by graphviz version 2.26.3 (20100126.1600)
 -->
<!-- Title: AWS CloudFormation Sample Template VPC_AutoScaling_and_ElasticLoadBalancer: Create a load balanced, Auto Scaled sample website in an existing Virtual Private Cloud (VPC). This example creates an Auto Scaling group behind a load balancer with a simple health check using a basic getting start AMI that has a simple Apache Web Server&#45;based PHP page. The web site is available on port 80, however, the instances can be configured to listen on any port (8888 by default). **WARNING** This template creates one or more Amazon EC2 instances and an Elastic Load Balancer. You will be billed for the AWS resources used if you create a stack from this template. Pages: 1 -->
<svg width="882pt" height="404pt"
 viewBox="0.00 0.00 882.00 404.00" xmlns="http://www.w3.org/2000/svg" xmlns:xlink="http://www.w3.org/1999/xlink">
<g id="graph1" class="graph" transform="scale(1 1) rotate(0) translate(4 400)">
<title>AWS CloudFormation Sample Template VPC_AutoScaling_and_ElasticLoadBalancer: Create a load balanced, Auto Scaled sample website in an existing Virtual Private Cloud (VPC). This example creates an Auto Scaling group behind a load balancer with a simple health check using a basic getting start AMI that has a simple Apache Web Server&#45;based PHP page. The web site is available on port 80, however, the instances can be configured to listen on any port (8888 by default). **WARNING** This template creates one or more Amazon EC2 instances and an Elastic Load Balancer. You will be billed for the AWS resources used if you create a stack from this template.</title>
<polygon fill="white" stroke="white" points="-4,5 -4,-400 879,-400 879,5 -4,5"/>
<!-- ElasticLoadBalancer -->
<g id="node1" class="node"><title>ElasticLoadBalancer</title>
<polygon fill="none" stroke="black" points="647,-252 493,-252 493,-216 647,-216 647,-252"/>
<text text-anchor="middle" x="570" y="-230.4" font-family="Times Roman,serif" font-size="14.00">ElasticLoadBalancer</text>
</g>
<!-- WebServerGroup -->
<g id="node4" class="node"><title>WebServerGroup</title>
<polygon fill="none" stroke="black" points="743,-108 607,-108 607,-72 743,-72 743,-108"/>
<text text-anchor="middle" x="675" y="-86.4" font-family="Times Roman,serif" font-size="14.00">WebServerGroup</text>
</g>
<!-- ElasticLoadBalancer&#45;&gt;WebServerGroup -->
<g id="edge28" class="edge"><title>ElasticLoadBalancer&#45;&gt;WebServerGroup</title>
<path fill="none" stroke="black" d="M583.298,-215.762C601.602,-190.66 634.676,-145.302 655.701,-116.467"/>
<polygon fill="black" stroke="black" points="658.746,-118.232 661.81,-108.09 653.09,-114.108 658.746,-118.232"/>
</g>
<!-- URL -->
<g id="node14" class="node"><title>URL</title>
<polygon fill="lightgrey" stroke="lightgrey" points="585,-36 555,-36 543,-24 543,-12 555,-1.46056e-14 585,-6.71068e-15 597,-12 597,-24 585,-36"/>
<path fill="lightgrey" stroke="lightgrey" d="M555,-36C549,-36 543,-30 543,-24"/>
<path fill="lightgrey" stroke="lightgrey" d="M543,-12C543,-6 549,-1.61846e-14 555,-1.46056e-14"/>
<path fill="lightgrey" stroke="lightgrey" d="M585,-6.71068e-15C591,-5.1317e-15 597,-6 597,-12"/>
<path fill="lightgrey" stroke="lightgrey" d="M597,-24C597,-30 591,-36 585,-36"/>
<polyline fill="none" stroke="black" points="585,-36 555,-36 "/>
<path fill="none" stroke="black" d="M555,-36C549,-36 543,-30 543,-24"/>
<polyline fill="none" stroke="black" points="543,-24 543,-12 "/>
<path fill="none" stroke="black" d="M543,-12C543,-6 549,-1.61846e-14 555,-1.46056e-14"/>
<polyline fill="none" stroke="black" points="555,-1.46056e-14 585,-6.71068e-15 "/>
<path fill="none" stroke="black" d="M585,-6.71068e-15C591,-5.1317e-15 597,-6 597,-12"/>
<polyline fill="none" stroke="black" points="597,-12 597,-24 "/>
<path fill="none" stroke="black" d="M597,-24C597,-30 591,-36 585,-36"/>
<text text-anchor="middle" x="570" y="-14.4" font-family="Times Roman,serif" font-size="14.00">URL</text>
</g>
<!-- ElasticLoadBalancer&#45;&gt;URL -->
<g id="edge46" class="edge"><title>ElasticLoadBalancer&#45;&gt;URL</title>
<path fill="none" stroke="black" d="M570,-215.955C570,-178.394 570,-91.5541 570,-46.4103"/>
<polygon fill="black" stroke="black" points="573.5,-46.145 570,-36.1451 566.5,-46.1451 573.5,-46.145"/>
</g>
<!-- LoadBalancerSecurityGroup -->
<g id="node2" class="node"><title>LoadBalancerSecurityGroup</title>
<polygon fill="none" stroke="black" points="495,-324 287,-324 287,-288 495,-288 495,-324"/>
<text text-anchor="middle" x="391" y="-302.4" font-family="Times Roman,serif" font-size="14.00">LoadBalancerSecurityGroup</text>
</g>
<!-- LoadBalancerSecurityGroup&#45;&gt;ElasticLoadBalancer -->
<g id="edge8" class="edge"><title>LoadBalancerSecurityGroup&#45;&gt;ElasticLoadBalancer</title>
<path fill="none" stroke="black" d="M436.169,-287.831C460.322,-278.116 490.238,-266.083 515.656,-255.859"/>
<polygon fill="black" stroke="black" points="517.184,-259.017 525.156,-252.038 514.572,-252.523 517.184,-259.017"/>
</g>
<!-- InstanceSecurityGroup -->
<g id="node3" class="node"><title>InstanceSecurityGroup</title>
<polygon fill="none" stroke="black" points="352,-252 178,-252 178,-216 352,-216 352,-252"/>
<text text-anchor="middle" x="265" y="-230.4" font-family="Times Roman,serif" font-size="14.00">InstanceSecurityGroup</text>
</g>
<!-- LoadBalancerSecurityGroup&#45;&gt;InstanceSecurityGroup -->
<g id="edge20" class="edge"><title>LoadBalancerSecurityGroup&#45;&gt;InstanceSecurityGroup</title>
<path fill="none" stroke="black" d="M359.205,-287.831C342.939,-278.537 322.961,-267.121 305.595,-257.197"/>
<polygon fill="black" stroke="black" points="307.204,-254.085 296.785,-252.163 303.731,-260.163 307.204,-254.085"/>
</g>
<!-- LaunchConfig -->
<g id="node5" class="node"><title>LaunchConfig</title>
<polygon fill="none" stroke="black" points="258,-180 148,-180 148,-144 258,-144 258,-180"/>
<text text-anchor="middle" x="203" y="-158.4" font-family="Times Roman,serif" font-size="14.00">LaunchConfig</text>
</g>
<!-- InstanceSecurityGroup&#45;&gt;LaunchConfig -->
<g id="edge38" class="edge"><title>InstanceSecurityGroup&#45;&gt;LaunchConfig</title>
<path fill="none" stroke="black" d="M249.355,-215.831C242.141,-207.454 233.443,-197.353 225.54,-188.175"/>
<polygon fill="black" stroke="black" points="228.033,-185.707 218.856,-180.413 222.729,-190.275 228.033,-185.707"/>
</g>
<!-- LaunchConfig&#45;&gt;WebServerGroup -->
<g id="edge32" class="edge"><title>LaunchConfig&#45;&gt;WebServerGroup</title>
<path fill="none" stroke="black" d="M258.068,-153.6C341.799,-140.827 501.468,-116.471 597.073,-101.887"/>
<polygon fill="black" stroke="black" points="597.619,-105.345 606.976,-100.376 596.563,-98.4246 597.619,-105.345"/>
</g>
<!-- Subnets -->
<g id="node7" class="node"><title>Subnets</title>
<polygon fill="lightgrey" stroke="lightgrey" points="649,-396 601,-396 589,-384 589,-372 601,-360 649,-360 661,-372 661,-384 649,-396"/>
<path fill="lightgrey" stroke="lightgrey" d="M601,-396C595,-396 589,-390 589,-384"/>
<path fill="lightgrey" stroke="lightgrey" d="M589,-372C589,-366 595,-360 601,-360"/>
<path fill="lightgrey" stroke="lightgrey" d="M649,-360C655,-360 661,-366 661,-372"/>
<path fill="lightgrey" stroke="lightgrey" d="M661,-384C661,-390 655,-396 649,-396"/>
<polyline fill="none" stroke="black" points="649,-396 601,-396 "/>
<path fill="none" stroke="black" d="M601,-396C595,-396 589,-390 589,-384"/>
<polyline fill="none" stroke="black" points="589,-384 589,-372 "/>
<path fill="none" stroke="black" d="M589,-372C589,-366 595,-360 601,-360"/>
<polyline fill="none" stroke="black" points="601,-360 649,-360 "/>
<path fill="none" stroke="black" d="M649,-360C655,-360 661,-366 661,-372"/>
<polyline fill="none" stroke="black" points="661,-372 661,-384 "/>
<path fill="none" stroke="black" d="M661,-384C661,-390 655,-396 649,-396"/>
<text text-anchor="middle" x="625" y="-374.4" font-family="Times Roman,serif" font-size="14.00">Subnets</text>
</g>
<!-- Subnets&#45;&gt;ElasticLoadBalancer -->
<g id="edge4" class="edge"><title>Subnets&#45;&gt;ElasticLoadBalancer</title>
<path fill="none" stroke="black" d="M618.945,-359.951C612.736,-341.694 602.648,-312.717 593,-288 589.645,-279.403 585.785,-270.131 582.197,-261.737"/>
<polygon fill="black" stroke="black" points="585.335,-260.174 578.158,-252.38 578.908,-262.948 585.335,-260.174"/>
</g>
<!-- Subnets&#45;&gt;WebServerGroup -->
<g id="edge30" class="edge"><title>Subnets&#45;&gt;WebServerGroup</title>
<path fill="none" stroke="black" d="M630.239,-359.791C637.072,-335.429 648.981,-290.793 656,-252 664.425,-205.434 669.947,-150.632 672.766,-118.189"/>
<polygon fill="black" stroke="black" points="676.265,-118.347 673.619,-108.088 669.29,-117.758 676.265,-118.347"/>
</g>
<!-- VpcId -->
<g id="node8" class="node"><title>VpcId</title>
<polygon fill="lightgrey" stroke="lightgrey" points="277,-396 247,-396 235,-384 235,-372 247,-360 277,-360 289,-372 289,-384 277,-396"/>
<path fill="lightgrey" stroke="lightgrey" d="M247,-396C241,-396 235,-390 235,-384"/>
<path fill="lightgrey" stroke="lightgrey" d="M235,-372C235,-366 241,-360 247,-360"/>
<path fill="lightgrey" stroke="lightgrey" d="M277,-360C283,-360 289,-366 289,-372"/>
<path fill="lightgrey" stroke="lightgrey" d="M289,-384C289,-390 283,-396 277,-396"/>
<polyline fill="none" stroke="black" points="277,-396 247,-396 "/>
<path fill="none" stroke="black" d="M247,-396C241,-396 235,-390 235,-384"/>
<polyline fill="none" stroke="black" points="235,-384 235,-372 "/>
<path fill="none" stroke="black" d="M235,-372C235,-366 241,-360 247,-360"/>
<polyline fill="none" stroke="black" points="247,-360 277,-360 "/>
<path fill="none" stroke="black" d="M277,-360C283,-360 289,-366 289,-372"/>
<polyline fill="none" stroke="black" points="289,-372 289,-384 "/>
<path fill="none" stroke="black" d="M289,-384C289,-390 283,-396 277,-396"/>
<text text-anchor="middle" x="262" y="-374.4" font-family="Times Roman,serif" font-size="14.00">VpcId</text>
</g>
<!-- VpcId&#45;&gt;LoadBalancerSecurityGroup -->
<g id="edge12" class="edge"><title>VpcId&#45;&gt;LoadBalancerSecurityGroup</title>
<path fill="none" stroke="black" d="M289.043,-362.906C306.597,-353.108 329.817,-340.149 349.663,-329.072"/>
<polygon fill="black" stroke="black" points="351.485,-332.063 358.512,-324.133 348.074,-325.951 351.485,-332.063"/>
</g>
<!-- VpcId&#45;&gt;InstanceSecurityGroup -->
<g id="edge24" class="edge"><title>VpcId&#45;&gt;InstanceSecurityGroup</title>
<path fill="none" stroke="black" d="M246.448,-359.846C238.995,-349.947 230.865,-337.07 227,-324 222.463,-308.657 222.171,-303.254 227,-288 230.082,-278.266 235.618,-268.77 241.529,-260.523"/>
<polygon fill="black" stroke="black" points="244.431,-262.49 247.736,-252.424 238.875,-258.232 244.431,-262.49"/>
</g>
<!-- AZs -->
<g id="node9" class="node"><title>AZs</title>
<polygon fill="lightgrey" stroke="lightgrey" points="728,-396 698,-396 686,-384 686,-372 698,-360 728,-360 740,-372 740,-384 728,-396"/>
<path fill="lightgrey" stroke="lightgrey" d="M698,-396C692,-396 686,-390 686,-384"/>
<path fill="lightgrey" stroke="lightgrey" d="M686,-372C686,-366 692,-360 698,-360"/>
<path fill="lightgrey" stroke="lightgrey" d="M728,-360C734,-360 740,-366 740,-372"/>
<path fill="lightgrey" stroke="lightgrey" d="M740,-384C740,-390 734,-396 728,-396"/>
<polyline fill="none" stroke="black" points="728,-396 698,-396 "/>
<path fill="none" stroke="black" d="M698,-396C692,-396 686,-390 686,-384"/>
<polyline fill="none" stroke="black" points="686,-384 686,-372 "/>
<path fill="none" stroke="black" d="M686,-372C686,-366 692,-360 698,-360"/>
<polyline fill="none" stroke="black" points="698,-360 728,-360 "/>
<path fill="none" stroke="black" d="M728,-360C734,-360 740,-366 740,-372"/>
<polyline fill="none" stroke="black" points="740,-372 740,-384 "/>
<path fill="none" stroke="black" d="M740,-384C740,-390 734,-396 728,-396"/>
<text text-anchor="middle" x="713" y="-374.4" font-family="Times Roman,serif" font-size="14.00">AZs</text>
</g>
<!-- AZs&#45;&gt;WebServerGroup -->
<g id="edge34" class="edge"><title>AZs&#45;&gt;WebServerGroup</title>
<path fill="none" stroke="black" d="M712.083,-359.963C709.875,-320.528 703.349,-223.784 689,-144 687.481,-135.555 685.337,-126.488 683.182,-118.241"/>
<polygon fill="black" stroke="black" points="686.492,-117.074 680.493,-108.341 679.737,-118.909 686.492,-117.074"/>
</g>
<!-- InstanceCount -->
<g id="node10" class="node"><title>InstanceCount</title>
<polygon fill="lightgrey" stroke="lightgrey" points="862,-396 770,-396 758,-384 758,-372 770,-360 862,-360 874,-372 874,-384 862,-396"/>
<path fill="lightgrey" stroke="lightgrey" d="M770,-396C764,-396 758,-390 758,-384"/>
<path fill="lightgrey" stroke="lightgrey" d="M758,-372C758,-366 764,-360 770,-360"/>
<path fill="lightgrey" stroke="lightgrey" d="M862,-360C868,-360 874,-366 874,-372"/>
<path fill="lightgrey" stroke="lightgrey" d="M874,-384C874,-390 868,-396 862,-396"/>
<polyline fill="none" stroke="black" points="862,-396 770,-396 "/>
<path fill="none" stroke="black" d="M770,-396C764,-396 758,-390 758,-384"/>
<polyline fill="none" stroke="black" points="758,-384 758,-372 "/>
<path fill="none" stroke="black" d="M758,-372C758,-366 764,-360 770,-360"/>
<polyline fill="none" stroke="black" points="770,-360 862,-360 "/>
<path fill="none" stroke="black" d="M862,-360C868,-360 874,-366 874,-372"/>
<polyline fill="none" stroke="black" points="874,-372 874,-384 "/>
<path fill="none" stroke="black" d="M874,-384C874,-390 868,-396 862,-396"/>
<text text-anchor="middle" x="816" y="-374.4" font-family="Times Roman,serif" font-size="14.00">InstanceCount</text>
</g>
<!-- InstanceCount&#45;&gt;WebServerGroup -->
<g id="edge26" class="edge"><title>InstanceCount&#45;&gt;WebServerGroup</title>
<path fill="none" stroke="black" d="M807.894,-359.9C790.074,-320.343 745.82,-223.372 705,-144 700.461,-135.175 695.284,-125.675 690.523,-117.14"/>
<polygon fill="black" stroke="black" points="693.524,-115.336 685.57,-108.336 687.423,-118.768 693.524,-115.336"/>
</g>
<!-- WebServerPort -->
<g id="node11" class="node"><title>WebServerPort</title>
<polygon fill="lightgrey" stroke="lightgrey" points="440,-396 342,-396 330,-384 330,-372 342,-360 440,-360 452,-372 452,-384 440,-396"/>
<path fill="lightgrey" stroke="lightgrey" d="M342,-396C336,-396 330,-390 330,-384"/>
<path fill="lightgrey" stroke="lightgrey" d="M330,-372C330,-366 336,-360 342,-360"/>
<path fill="lightgrey" stroke="lightgrey" d="M440,-360C446,-360 452,-366 452,-372"/>
<path fill="lightgrey" stroke="lightgrey" d="M452,-384C452,-390 446,-396 440,-396"/>
<polyline fill="none" stroke="black" points="440,-396 342,-396 "/>
<path fill="none" stroke="black" d="M342,-396C336,-396 330,-390 330,-384"/>
<polyline fill="none" stroke="black" points="330,-384 330,-372 "/>
<path fill="none" stroke="black" d="M330,-372C330,-366 336,-360 342,-360"/>
<polyline fill="none" stroke="black" points="342,-360 440,-360 "/>
<path fill="none" stroke="black" d="M440,-360C446,-360 452,-366 452,-372"/>
<polyline fill="none" stroke="black" points="452,-372 452,-384 "/>
<path fill="none" stroke="black" d="M452,-384C452,-390 446,-396 440,-396"/>
<text text-anchor="middle" x="391" y="-374.4" font-family="Times Roman,serif" font-size="14.00">WebServerPort</text>
</g>
<!-- WebServerPort&#45;&gt;ElasticLoadBalancer -->
<g id="edge6" class="edge"><title>WebServerPort&#45;&gt;ElasticLoadBalancer</title>
<path fill="none" stroke="black" d="M452.345,-365.336C478.456,-357.389 507.486,-344.572 528,-324 544.612,-307.342 552.94,-281.639 558.583,-261.959"/>
<polygon fill="black" stroke="black" points="561.962,-262.872 561.319,-252.296 555.227,-260.964 561.962,-262.872"/>
</g>
<!-- WebServerPort&#45;&gt;ElasticLoadBalancer -->
<g id="edge10" class="edge"><title>WebServerPort&#45;&gt;ElasticLoadBalancer</title>
<path fill="none" stroke="black" d="M452.082,-369.713C483.93,-362.414 521.192,-348.878 546,-324 562.459,-307.494 570.786,-282.109 573.479,-262.502"/>
<polygon fill="black" stroke="black" points="576.987,-262.573 574.411,-252.296 570.016,-261.936 576.987,-262.573"/>
</g>
<!-- WebServerPort&#45;&gt;LoadBalancerSecurityGroup -->
<g id="edge14" class="edge"><title>WebServerPort&#45;&gt;LoadBalancerSecurityGroup</title>
<path fill="none" stroke="black" d="M385.048,-359.831C384.297,-352.131 384.076,-342.974 384.385,-334.417"/>
<polygon fill="black" stroke="black" points="387.879,-334.616 385.024,-324.413 380.893,-334.17 387.879,-334.616"/>
</g>
<!-- WebServerPort&#45;&gt;LoadBalancerSecurityGroup -->
<g id="edge16" class="edge"><title>WebServerPort&#45;&gt;LoadBalancerSecurityGroup</title>
<path fill="none" stroke="black" d="M396.952,-359.831C397.703,-352.131 397.924,-342.974 397.615,-334.417"/>
<polygon fill="black" stroke="black" points="401.107,-334.17 396.976,-324.413 394.121,-334.616 401.107,-334.17"/>
</g>
<!-- WebServerPort&#45;&gt;InstanceSecurityGroup -->
<g id="edge18" class="edge"><title>WebServerPort&#45;&gt;InstanceSecurityGroup</title>
<path fill="none" stroke="black" d="M329.714,-364.693C307.072,-356.518 283.494,-343.704 269,-324 255.976,-306.296 253.273,-281.23 254.965,-262.046"/>
<polygon fill="black" stroke="black" points="258.441,-262.458 256.319,-252.078 251.504,-261.515 258.441,-262.458"/>
</g>
<!-- WebServerPort&#45;&gt;InstanceSecurityGroup -->
<g id="edge22" class="edge"><title>WebServerPort&#45;&gt;InstanceSecurityGroup</title>
<path fill="none" stroke="black" d="M334.757,-359.881C316.976,-351.744 298.918,-340.201 287,-324 274.037,-306.377 271.298,-281.462 270.086,-262.313"/>
<polygon fill="black" stroke="black" points="273.566,-261.861 269.499,-252.078 266.578,-262.262 273.566,-261.861"/>
</g>
<!-- WebServerPort&#45;&gt;LaunchConfig -->
<g id="edge36" class="edge"><title>WebServerPort&#45;&gt;LaunchConfig</title>
<path fill="none" stroke="black" d="M452.232,-363.014C472.229,-354.901 492.288,-342.577 504,-324 512.533,-310.465 512.393,-301.622 504,-288 454.192,-207.156 340.569,-178.161 268.05,-167.777"/>
<polygon fill="black" stroke="black" points="268.48,-164.303 258.101,-166.432 267.542,-171.24 268.48,-164.303"/>
</g>
<!-- InstanceType -->
<g id="node12" class="node"><title>InstanceType</title>
<polygon fill="lightgrey" stroke="lightgrey" points="182,-396 100,-396 88,-384 88,-372 100,-360 182,-360 194,-372 194,-384 182,-396"/>
<path fill="lightgrey" stroke="lightgrey" d="M100,-396C94,-396 88,-390 88,-384"/>
<path fill="lightgrey" stroke="lightgrey" d="M88,-372C88,-366 94,-360 100,-360"/>
<path fill="lightgrey" stroke="lightgrey" d="M182,-360C188,-360 194,-366 194,-372"/>
<path fill="lightgrey" stroke="lightgrey" d="M194,-384C194,-390 188,-396 182,-396"/>
<polyline fill="none" stroke="black" points="182,-396 100,-396 "/>
<path fill="none" stroke="black" d="M100,-396C94,-396 88,-390 88,-384"/>
<polyline fill="none" stroke="black" points="88,-384 88,-372 "/>
<path fill="none" stroke="black" d="M88,-372C88,-366 94,-360 100,-360"/>
<polyline fill="none" stroke="black" points="100,-360 182,-360 "/>
<path fill="none" stroke="black" d="M182,-360C188,-360 194,-366 194,-372"/>
<polyline fill="none" stroke="black" points="194,-372 194,-384 "/>
<path fill="none" stroke="black" d="M194,-384C194,-390 188,-396 182,-396"/>
<text text-anchor="middle" x="141" y="-374.4" font-family="Times Roman,serif" font-size="14.00">InstanceType</text>
</g>
<!-- InstanceType&#45;&gt;LaunchConfig -->
<g id="edge40" class="edge"><title>InstanceType&#45;&gt;LaunchConfig</title>
<path fill="none" stroke="black" d="M136.345,-359.897C134.748,-329.301 140.872,-265.828 160,-216 163.692,-206.381 169.189,-196.625 175.123,-188.1"/>
<polygon fill="black" stroke="black" points="177.968,-190.141 181.153,-180.036 172.362,-185.949 177.968,-190.141"/>
</g>
<!-- InstanceType&#45;&gt;LaunchConfig -->
<g id="edge44" class="edge"><title>InstanceType&#45;&gt;LaunchConfig</title>
<path fill="none" stroke="black" d="M147.329,-359.897C152.748,-329.301 158.872,-265.828 178,-216 181.615,-206.582 186.961,-197.031 191.943,-188.634"/>
<polygon fill="black" stroke="black" points="194.959,-190.411 197.107,-180.036 188.958,-186.806 194.959,-190.411"/>
</g>
<!-- AWS::Region -->
<g id="node34" class="node"><title>AWS::Region</title>
<polygon fill="none" stroke="black" points="104,-324 4.26326e-14,-324 0,-288 104,-288 104,-324"/>
<text text-anchor="middle" x="52" y="-302.4" font-family="Times Roman,serif" font-size="14.00">AWS::Region</text>
</g>
<!-- AWS::Region&#45;&gt;LaunchConfig -->
<g id="edge42" class="edge"><title>AWS::Region&#45;&gt;LaunchConfig</title>
<path fill="none" stroke="black" d="M62.4535,-287.894C74.2334,-268.538 94.7928,-237.707 118,-216 130.371,-204.429 145.554,-193.881 159.648,-185.24"/>
<polygon fill="black" stroke="black" points="161.45,-188.24 168.248,-180.113 157.866,-182.227 161.45,-188.24"/>
</g>
</g>
</svg>
