<?xml version="1.0" encoding="UTF-8" standalone="no"?>
<!DOCTYPE svg PUBLIC "-//W3C//DTD SVG 1.1//EN"
 "http://www.w3.org/Graphics/SVG/1.1/DTD/svg11.dtd">
<!-- Generated by graphviz version 2.26.3 (20100126.1600)
 -->
<!-- Title: AWS CloudFormation Sample Template VPC_WordPress_Single_Instance_With_RDS: WordPress is web software you can use to create a beautiful website or blog. This template installs a single&#45;instance WordPress deployment using an Amazon RDS database instance for storage in an existing Virtual Private Cloud (VPC). It demonstrates using the AWS CloudFormation bootstrap scripts to install packages and files at instance launch time. **WARNING** This template creates an Amazon EC2 instance and an Amazon RDS database instance. You will be billed for the AWS resources used if you create a stack from this template. Pages: 1 -->
<svg width="1379pt" height="476pt"
 viewBox="0.00 0.00 1379.00 476.00" xmlns="http://www.w3.org/2000/svg" xmlns:xlink="http://www.w3.org/1999/xlink">
<g id="graph1" class="graph" transform="scale(1 1) rotate(0) translate(4 472)">
<title>AWS CloudFormation Sample Template VPC_WordPress_Single_Instance_With_RDS: WordPress is web software you can use to create a beautiful website or blog. This template installs a single&#45;instance WordPress deployment using an Amazon RDS database instance for storage in an existing Virtual Private Cloud (VPC). It demonstrates using the AWS CloudFormation bootstrap scripts to install packages and files at instance launch time. **WARNING** This template creates an Amazon EC2 instance and an Amazon RDS database instance. You will be billed for the AWS resources used if you create a stack from this template.</title>
<polygon fill="white" stroke="white" points="-4,5 -4,-472 1376,-472 1376,5 -4,5"/>
<!-- DBSecurityGroup -->
<g id="node1" class="node"><title>DBSecurityGroup</title>
<polygon fill="none" stroke="black" points="492,-324 356,-324 356,-288 492,-288 492,-324"/>
<text text-anchor="middle" x="424" y="-302.4" font-family="Times Roman,serif" font-size="14.00">DBSecurityGroup</text>
</g>
<!-- DBInstance -->
<g id="node7" class="node"><title>DBInstance</title>
<polygon fill="none" stroke="black" points="619,-252 523,-252 523,-216 619,-216 619,-252"/>
<text text-anchor="middle" x="571" y="-230.4" font-family="Times Roman,serif" font-size="14.00">DBInstance</text>
</g>
<!-- DBSecurityGroup&#45;&gt;DBInstance -->
<g id="edge44" class="edge"><title>DBSecurityGroup&#45;&gt;DBInstance</title>
<path fill="none" stroke="black" d="M461.094,-287.831C480.493,-278.33 504.417,-266.612 524.986,-256.537"/>
<polygon fill="black" stroke="black" points="526.731,-259.58 534.172,-252.038 523.652,-253.293 526.731,-259.58"/>
</g>
<!-- MyDBSubnetGroup -->
<g id="node2" class="node"><title>MyDBSubnetGroup</title>
<polygon fill="none" stroke="black" points="698,-324 548,-324 548,-288 698,-288 698,-324"/>
<text text-anchor="middle" x="623" y="-302.4" font-family="Times Roman,serif" font-size="14.00">MyDBSubnetGroup</text>
</g>
<!-- MyDBSubnetGroup&#45;&gt;DBInstance -->
<g id="edge54" class="edge"><title>MyDBSubnetGroup&#45;&gt;DBInstance</title>
<path fill="none" stroke="black" d="M609.878,-287.831C603.95,-279.623 596.827,-269.761 590.307,-260.732"/>
<polygon fill="black" stroke="black" points="592.991,-258.471 584.298,-252.413 587.316,-262.569 592.991,-258.471"/>
</g>
<!-- WebServerSecurityGroup -->
<g id="node3" class="node"><title>WebServerSecurityGroup</title>
<polygon fill="none" stroke="black" points="454,-396 262,-396 262,-360 454,-360 454,-396"/>
<text text-anchor="middle" x="358" y="-374.4" font-family="Times Roman,serif" font-size="14.00">WebServerSecurityGroup</text>
</g>
<!-- WebServerSecurityGroup&#45;&gt;DBSecurityGroup -->
<g id="edge6" class="edge"><title>WebServerSecurityGroup&#45;&gt;DBSecurityGroup</title>
<path fill="none" stroke="black" d="M374.655,-359.831C382.411,-351.369 391.78,-341.149 400.261,-331.897"/>
<polygon fill="black" stroke="black" points="402.944,-334.15 407.121,-324.413 397.784,-329.42 402.944,-334.15"/>
</g>
<!-- WebServer -->
<g id="node4" class="node"><title>WebServer</title>
<polygon fill="none" stroke="black" points="1045,-180 953,-180 953,-144 1045,-144 1045,-180"/>
<text text-anchor="middle" x="999" y="-158.4" font-family="Times Roman,serif" font-size="14.00">WebServer</text>
</g>
<!-- WebServerSecurityGroup&#45;&gt;WebServer -->
<g id="edge20" class="edge"><title>WebServerSecurityGroup&#45;&gt;WebServer</title>
<path fill="none" stroke="black" d="M349.262,-359.84C341.317,-340.438 332.812,-309.567 347,-288 391.421,-220.474 435.869,-236.699 514,-216 593.734,-194.877 832.767,-174.646 942.637,-166.17"/>
<polygon fill="black" stroke="black" points="943.153,-169.641 952.857,-165.387 942.619,-162.662 943.153,-169.641"/>
</g>
<!-- IPAddress -->
<g id="node6" class="node"><title>IPAddress</title>
<polygon fill="none" stroke="black" points="1040,-108 958,-108 958,-72 1040,-72 1040,-108"/>
<text text-anchor="middle" x="999" y="-86.4" font-family="Times Roman,serif" font-size="14.00">IPAddress</text>
</g>
<!-- WebServer&#45;&gt;IPAddress -->
<g id="edge42" class="edge"><title>WebServer&#45;&gt;IPAddress</title>
<path fill="none" stroke="black" d="M999,-143.831C999,-136.131 999,-126.974 999,-118.417"/>
<polygon fill="black" stroke="black" points="1002.5,-118.413 999,-108.413 995.5,-118.413 1002.5,-118.413"/>
</g>
<!-- WaitCondition -->
<g id="node5" class="node"><title>WaitCondition</title>
<polygon fill="none" stroke="black" points="1371,-108 1257,-108 1257,-72 1371,-72 1371,-108"/>
<text text-anchor="middle" x="1314" y="-86.4" font-family="Times Roman,serif" font-size="14.00">WaitCondition</text>
</g>
<!-- WebsiteURL -->
<g id="node22" class="node"><title>WebsiteURL</title>
<polygon fill="lightgrey" stroke="lightgrey" points="1037,-36 961,-36 949,-24 949,-12 961,-1.60583e-14 1037,-5.25802e-15 1049,-12 1049,-24 1037,-36"/>
<path fill="lightgrey" stroke="lightgrey" d="M961,-36C955,-36 949,-30 949,-24"/>
<path fill="lightgrey" stroke="lightgrey" d="M949,-12C949,-6 955,-1.69109e-14 961,-1.60583e-14"/>
<path fill="lightgrey" stroke="lightgrey" d="M1037,-5.25802e-15C1043,-4.40536e-15 1049,-6 1049,-12"/>
<path fill="lightgrey" stroke="lightgrey" d="M1049,-24C1049,-30 1043,-36 1037,-36"/>
<polyline fill="none" stroke="black" points="1037,-36 961,-36 "/>
<path fill="none" stroke="black" d="M961,-36C955,-36 949,-30 949,-24"/>
<polyline fill="none" stroke="black" points="949,-24 949,-12 "/>
<path fill="none" stroke="black" d="M949,-12C949,-6 955,-1.69109e-14 961,-1.60583e-14"/>
<polyline fill="none" stroke="black" points="961,-1.60583e-14 1037,-5.25802e-15 "/>
<path fill="none" stroke="black" d="M1037,-5.25802e-15C1043,-4.40536e-15 1049,-6 1049,-12"/>
<polyline fill="none" stroke="black" points="1049,-12 1049,-24 "/>
<path fill="none" stroke="black" d="M1049,-24C1049,-30 1043,-36 1037,-36"/>
<text text-anchor="middle" x="999" y="-14.4" font-family="Times Roman,serif" font-size="14.00">WebsiteURL</text>
</g>
<!-- IPAddress&#45;&gt;WebsiteURL -->
<g id="edge58" class="edge"><title>IPAddress&#45;&gt;WebsiteURL</title>
<path fill="none" stroke="black" d="M999,-71.8314C999,-64.131 999,-54.9743 999,-46.4166"/>
<polygon fill="black" stroke="black" points="1002.5,-46.4132 999,-36.4133 995.5,-46.4133 1002.5,-46.4132"/>
</g>
<!-- DBInstance&#45;&gt;WebServer -->
<g id="edge38" class="edge"><title>DBInstance&#45;&gt;WebServer</title>
<path fill="none" stroke="black" d="M619.265,-225.881C699.095,-212.451 858.208,-185.685 942.91,-171.436"/>
<polygon fill="black" stroke="black" points="943.579,-174.872 952.86,-169.762 942.418,-167.969 943.579,-174.872"/>
</g>
<!-- WaitHandle -->
<g id="node8" class="node"><title>WaitHandle</title>
<polygon fill="none" stroke="black" points="1362,-252 1266,-252 1266,-216 1362,-216 1362,-252"/>
<text text-anchor="middle" x="1314" y="-230.4" font-family="Times Roman,serif" font-size="14.00">WaitHandle</text>
</g>
<!-- WaitHandle&#45;&gt;WebServer -->
<g id="edge18" class="edge"><title>WaitHandle&#45;&gt;WebServer</title>
<path fill="none" stroke="black" d="M1265.69,-219.609C1261.08,-218.345 1256.46,-217.121 1252,-216 1184.83,-199.104 1106.77,-182.968 1055.32,-172.808"/>
<polygon fill="black" stroke="black" points="1055.89,-169.352 1045.4,-170.857 1054.54,-176.22 1055.89,-169.352"/>
</g>
<!-- WaitHandle&#45;&gt;WaitCondition -->
<g id="edge40" class="edge"><title>WaitHandle&#45;&gt;WaitCondition</title>
<path fill="none" stroke="black" d="M1314,-215.762C1314,-191.201 1314,-147.247 1314,-118.354"/>
<polygon fill="black" stroke="black" points="1317.5,-118.09 1314,-108.09 1310.5,-118.09 1317.5,-118.09"/>
</g>
<!-- DBUsername -->
<g id="node10" class="node"><title>DBUsername</title>
<polygon fill="lightgrey" stroke="lightgrey" points="876,-468 794,-468 782,-456 782,-444 794,-432 876,-432 888,-444 888,-456 876,-468"/>
<path fill="lightgrey" stroke="lightgrey" d="M794,-468C788,-468 782,-462 782,-456"/>
<path fill="lightgrey" stroke="lightgrey" d="M782,-444C782,-438 788,-432 794,-432"/>
<path fill="lightgrey" stroke="lightgrey" d="M876,-432C882,-432 888,-438 888,-444"/>
<path fill="lightgrey" stroke="lightgrey" d="M888,-456C888,-462 882,-468 876,-468"/>
<polyline fill="none" stroke="black" points="876,-468 794,-468 "/>
<path fill="none" stroke="black" d="M794,-468C788,-468 782,-462 782,-456"/>
<polyline fill="none" stroke="black" points="782,-456 782,-444 "/>
<path fill="none" stroke="black" d="M782,-444C782,-438 788,-432 794,-432"/>
<polyline fill="none" stroke="black" points="794,-432 876,-432 "/>
<path fill="none" stroke="black" d="M876,-432C882,-432 888,-438 888,-444"/>
<polyline fill="none" stroke="black" points="888,-444 888,-456 "/>
<path fill="none" stroke="black" d="M888,-456C888,-462 882,-468 876,-468"/>
<text text-anchor="middle" x="835" y="-446.4" font-family="Times Roman,serif" font-size="14.00">DBUsername</text>
</g>
<!-- DBUsername&#45;&gt;WebServer -->
<g id="edge34" class="edge"><title>DBUsername&#45;&gt;WebServer</title>
<path fill="none" stroke="black" d="M849.405,-431.988C857.349,-421.712 867.161,-408.436 875,-396 920.357,-324.042 964.918,-233.878 986.145,-189.404"/>
<polygon fill="black" stroke="black" points="989.424,-190.659 990.551,-180.125 983.1,-187.657 989.424,-190.659"/>
</g>
<!-- DBUsername&#45;&gt;DBInstance -->
<g id="edge46" class="edge"><title>DBUsername&#45;&gt;DBInstance</title>
<path fill="none" stroke="black" d="M828.007,-431.84C814.274,-398.52 780.643,-327.431 730,-288 700.711,-265.196 661.224,-251.717 628.928,-243.929"/>
<polygon fill="black" stroke="black" points="629.685,-240.512 619.156,-241.691 628.122,-247.335 629.685,-240.512"/>
</g>
<!-- WebServerSubnetId -->
<g id="node11" class="node"><title>WebServerSubnetId</title>
<polygon fill="lightgrey" stroke="lightgrey" points="1048,-468 918,-468 906,-456 906,-444 918,-432 1048,-432 1060,-444 1060,-456 1048,-468"/>
<path fill="lightgrey" stroke="lightgrey" d="M918,-468C912,-468 906,-462 906,-456"/>
<path fill="lightgrey" stroke="lightgrey" d="M906,-444C906,-438 912,-432 918,-432"/>
<path fill="lightgrey" stroke="lightgrey" d="M1048,-432C1054,-432 1060,-438 1060,-444"/>
<path fill="lightgrey" stroke="lightgrey" d="M1060,-456C1060,-462 1054,-468 1048,-468"/>
<polyline fill="none" stroke="black" points="1048,-468 918,-468 "/>
<path fill="none" stroke="black" d="M918,-468C912,-468 906,-462 906,-456"/>
<polyline fill="none" stroke="black" points="906,-456 906,-444 "/>
<path fill="none" stroke="black" d="M906,-444C906,-438 912,-432 918,-432"/>
<polyline fill="none" stroke="black" points="918,-432 1048,-432 "/>
<path fill="none" stroke="black" d="M1048,-432C1054,-432 1060,-438 1060,-444"/>
<polyline fill="none" stroke="black" points="1060,-444 1060,-456 "/>
<path fill="none" stroke="black" d="M1060,-456C1060,-462 1054,-468 1048,-468"/>
<text text-anchor="middle" x="983" y="-446.4" font-family="Times Roman,serif" font-size="14.00">WebServerSubnetId</text>
</g>
<!-- WebServerSubnetId&#45;&gt;WebServer -->
<g id="edge24" class="edge"><title>WebServerSubnetId&#45;&gt;WebServer</title>
<path fill="none" stroke="black" d="M981.662,-431.988C979.061,-392.604 974.457,-295.951 985,-216 986.122,-207.493 988.144,-198.407 990.309,-190.162"/>
<polygon fill="black" stroke="black" points="993.751,-190.846 993.07,-180.273 987.009,-188.963 993.751,-190.846"/>
</g>
<!-- VpcId -->
<g id="node12" class="node"><title>VpcId</title>
<polygon fill="lightgrey" stroke="lightgrey" points="374,-468 344,-468 332,-456 332,-444 344,-432 374,-432 386,-444 386,-456 374,-468"/>
<path fill="lightgrey" stroke="lightgrey" d="M344,-468C338,-468 332,-462 332,-456"/>
<path fill="lightgrey" stroke="lightgrey" d="M332,-444C332,-438 338,-432 344,-432"/>
<path fill="lightgrey" stroke="lightgrey" d="M374,-432C380,-432 386,-438 386,-444"/>
<path fill="lightgrey" stroke="lightgrey" d="M386,-456C386,-462 380,-468 374,-468"/>
<polyline fill="none" stroke="black" points="374,-468 344,-468 "/>
<path fill="none" stroke="black" d="M344,-468C338,-468 332,-462 332,-456"/>
<polyline fill="none" stroke="black" points="332,-456 332,-444 "/>
<path fill="none" stroke="black" d="M332,-444C332,-438 338,-432 344,-432"/>
<polyline fill="none" stroke="black" points="344,-432 374,-432 "/>
<path fill="none" stroke="black" d="M374,-432C380,-432 386,-438 386,-444"/>
<polyline fill="none" stroke="black" points="386,-444 386,-456 "/>
<path fill="none" stroke="black" d="M386,-456C386,-462 380,-468 374,-468"/>
<text text-anchor="middle" x="359" y="-446.4" font-family="Times Roman,serif" font-size="14.00">VpcId</text>
</g>
<!-- VpcId&#45;&gt;DBSecurityGroup -->
<g id="edge4" class="edge"><title>VpcId&#45;&gt;DBSecurityGroup</title>
<path fill="none" stroke="black" d="M386.214,-436.302C416.651,-420.918 461.881,-397.842 463,-396 475.345,-375.681 462.624,-350.755 448.507,-332.292"/>
<polygon fill="black" stroke="black" points="451.033,-329.851 442.007,-324.303 445.603,-334.269 451.033,-329.851"/>
</g>
<!-- VpcId&#45;&gt;WebServerSecurityGroup -->
<g id="edge12" class="edge"><title>VpcId&#45;&gt;WebServerSecurityGroup</title>
<path fill="none" stroke="black" d="M358.748,-431.831C358.641,-424.131 358.514,-414.974 358.395,-406.417"/>
<polygon fill="black" stroke="black" points="361.894,-406.364 358.256,-396.413 354.895,-406.461 361.894,-406.364"/>
</g>
<!-- DBClass -->
<g id="node13" class="node"><title>DBClass</title>
<polygon fill="lightgrey" stroke="lightgrey" points="60,-468 12,-468 2.36848e-14,-456 1.18424e-14,-444 12,-432 60,-432 72,-444 72,-456 60,-468"/>
<path fill="lightgrey" stroke="lightgrey" d="M12,-468C6,-468 2.96059e-14,-462 2.36848e-14,-456"/>
<path fill="lightgrey" stroke="lightgrey" d="M1.18424e-14,-444C5.92119e-15,-438 6,-432 12,-432"/>
<path fill="lightgrey" stroke="lightgrey" d="M60,-432C66,-432 72,-438 72,-444"/>
<path fill="lightgrey" stroke="lightgrey" d="M72,-456C72,-462 66,-468 60,-468"/>
<polyline fill="none" stroke="black" points="60,-468 12,-468 "/>
<path fill="none" stroke="black" d="M12,-468C6,-468 2.96059e-14,-462 2.36848e-14,-456"/>
<polyline fill="none" stroke="black" points="2.36848e-14,-456 1.18424e-14,-444 "/>
<path fill="none" stroke="black" d="M1.18424e-14,-444C5.92119e-15,-438 6,-432 12,-432"/>
<polyline fill="none" stroke="black" points="12,-432 60,-432 "/>
<path fill="none" stroke="black" d="M60,-432C66,-432 72,-438 72,-444"/>
<polyline fill="none" stroke="black" points="72,-444 72,-456 "/>
<path fill="none" stroke="black" d="M72,-456C72,-462 66,-468 60,-468"/>
<text text-anchor="middle" x="36" y="-446.4" font-family="Times Roman,serif" font-size="14.00">DBClass</text>
</g>
<!-- DBClass&#45;&gt;DBInstance -->
<g id="edge52" class="edge"><title>DBClass&#45;&gt;DBInstance</title>
<path fill="none" stroke="black" d="M57.3545,-431.869C98.5004,-397.947 192.867,-324.982 285,-288 360.204,-257.814 453.422,-244.256 512.572,-238.339"/>
<polygon fill="black" stroke="black" points="513.226,-241.793 522.847,-237.354 512.558,-234.825 513.226,-241.793"/>
</g>
<!-- DBPassword -->
<g id="node14" class="node"><title>DBPassword</title>
<polygon fill="lightgrey" stroke="lightgrey" points="180,-468 102,-468 90,-456 90,-444 102,-432 180,-432 192,-444 192,-456 180,-468"/>
<path fill="lightgrey" stroke="lightgrey" d="M102,-468C96,-468 90,-462 90,-456"/>
<path fill="lightgrey" stroke="lightgrey" d="M90,-444C90,-438 96,-432 102,-432"/>
<path fill="lightgrey" stroke="lightgrey" d="M180,-432C186,-432 192,-438 192,-444"/>
<path fill="lightgrey" stroke="lightgrey" d="M192,-456C192,-462 186,-468 180,-468"/>
<polyline fill="none" stroke="black" points="180,-468 102,-468 "/>
<path fill="none" stroke="black" d="M102,-468C96,-468 90,-462 90,-456"/>
<polyline fill="none" stroke="black" points="90,-456 90,-444 "/>
<path fill="none" stroke="black" d="M90,-444C90,-438 96,-432 102,-432"/>
<polyline fill="none" stroke="black" points="102,-432 180,-432 "/>
<path fill="none" stroke="black" d="M180,-432C186,-432 192,-438 192,-444"/>
<polyline fill="none" stroke="black" points="192,-444 192,-456 "/>
<path fill="none" stroke="black" d="M192,-456C192,-462 186,-468 180,-468"/>
<text text-anchor="middle" x="141" y="-446.4" font-family="Times Roman,serif" font-size="14.00">DBPassword</text>
</g>
<!-- DBPassword&#45;&gt;WebServer -->
<g id="edge36" class="edge"><title>DBPassword&#45;&gt;WebServer</title>
<path fill="none" stroke="black" d="M149.225,-431.83C158.426,-412.696 174.611,-382.309 194,-360 261.433,-282.411 279.505,-254.052 375,-216 477.511,-175.153 809.701,-165.132 942.947,-162.733"/>
<polygon fill="black" stroke="black" points="943.01,-166.233 952.948,-162.561 942.889,-159.234 943.01,-166.233"/>
</g>
<!-- DBPassword&#45;&gt;DBInstance -->
<g id="edge48" class="edge"><title>DBPassword&#45;&gt;DBInstance</title>
<path fill="none" stroke="black" d="M158.404,-431.74C191.702,-397.93 268.155,-325.611 347,-288 400.147,-262.648 466.234,-248.597 512.809,-241.233"/>
<polygon fill="black" stroke="black" points="513.376,-244.687 522.734,-239.718 512.32,-237.767 513.376,-244.687"/>
</g>
<!-- DBAllocatedStorage -->
<g id="node15" class="node"><title>DBAllocatedStorage</title>
<polygon fill="lightgrey" stroke="lightgrey" points="546,-468 416,-468 404,-456 404,-444 416,-432 546,-432 558,-444 558,-456 546,-468"/>
<path fill="lightgrey" stroke="lightgrey" d="M416,-468C410,-468 404,-462 404,-456"/>
<path fill="lightgrey" stroke="lightgrey" d="M404,-444C404,-438 410,-432 416,-432"/>
<path fill="lightgrey" stroke="lightgrey" d="M546,-432C552,-432 558,-438 558,-444"/>
<path fill="lightgrey" stroke="lightgrey" d="M558,-456C558,-462 552,-468 546,-468"/>
<polyline fill="none" stroke="black" points="546,-468 416,-468 "/>
<path fill="none" stroke="black" d="M416,-468C410,-468 404,-462 404,-456"/>
<polyline fill="none" stroke="black" points="404,-456 404,-444 "/>
<path fill="none" stroke="black" d="M404,-444C404,-438 410,-432 416,-432"/>
<polyline fill="none" stroke="black" points="416,-432 546,-432 "/>
<path fill="none" stroke="black" d="M546,-432C552,-432 558,-438 558,-444"/>
<polyline fill="none" stroke="black" points="558,-444 558,-456 "/>
<path fill="none" stroke="black" d="M558,-456C558,-462 552,-468 546,-468"/>
<text text-anchor="middle" x="481" y="-446.4" font-family="Times Roman,serif" font-size="14.00">DBAllocatedStorage</text>
</g>
<!-- DBAllocatedStorage&#45;&gt;DBInstance -->
<g id="edge50" class="edge"><title>DBAllocatedStorage&#45;&gt;DBInstance</title>
<path fill="none" stroke="black" d="M486.336,-431.566C495.456,-401.019 515.364,-338.286 539,-288 543.289,-278.874 548.659,-269.291 553.767,-260.772"/>
<polygon fill="black" stroke="black" points="556.892,-262.372 559.144,-252.019 550.927,-258.708 556.892,-262.372"/>
</g>
<!-- DBName -->
<g id="node16" class="node"><title>DBName</title>
<polygon fill="lightgrey" stroke="lightgrey" points="752,-468 700,-468 688,-456 688,-444 700,-432 752,-432 764,-444 764,-456 752,-468"/>
<path fill="lightgrey" stroke="lightgrey" d="M700,-468C694,-468 688,-462 688,-456"/>
<path fill="lightgrey" stroke="lightgrey" d="M688,-444C688,-438 694,-432 700,-432"/>
<path fill="lightgrey" stroke="lightgrey" d="M752,-432C758,-432 764,-438 764,-444"/>
<path fill="lightgrey" stroke="lightgrey" d="M764,-456C764,-462 758,-468 752,-468"/>
<polyline fill="none" stroke="black" points="752,-468 700,-468 "/>
<path fill="none" stroke="black" d="M700,-468C694,-468 688,-462 688,-456"/>
<polyline fill="none" stroke="black" points="688,-456 688,-444 "/>
<path fill="none" stroke="black" d="M688,-444C688,-438 694,-432 700,-432"/>
<polyline fill="none" stroke="black" points="700,-432 752,-432 "/>
<path fill="none" stroke="black" d="M752,-432C758,-432 764,-438 764,-444"/>
<polyline fill="none" stroke="black" points="764,-444 764,-456 "/>
<path fill="none" stroke="black" d="M764,-456C764,-462 758,-468 752,-468"/>
<text text-anchor="middle" x="726" y="-446.4" font-family="Times Roman,serif" font-size="14.00">DBName</text>
</g>
<!-- DBName&#45;&gt;WebServer -->
<g id="edge32" class="edge"><title>DBName&#45;&gt;WebServer</title>
<path fill="none" stroke="black" d="M743.077,-431.984C789.902,-382.587 920.445,-244.871 974.784,-187.547"/>
<polygon fill="black" stroke="black" points="977.59,-189.674 981.929,-180.009 972.509,-184.859 977.59,-189.674"/>
</g>
<!-- DBName&#45;&gt;DBInstance -->
<g id="edge56" class="edge"><title>DBName&#45;&gt;DBInstance</title>
<path fill="none" stroke="black" d="M729.396,-431.759C734.361,-399.241 739.766,-330.676 707,-288 688.33,-263.683 657.04,-250.292 629.177,-242.93"/>
<polygon fill="black" stroke="black" points="629.64,-239.441 619.096,-240.482 627.988,-246.243 629.64,-239.441"/>
</g>
<!-- SSHLocation -->
<g id="node17" class="node"><title>SSHLocation</title>
<polygon fill="lightgrey" stroke="lightgrey" points="302,-468 222,-468 210,-456 210,-444 222,-432 302,-432 314,-444 314,-456 302,-468"/>
<path fill="lightgrey" stroke="lightgrey" d="M222,-468C216,-468 210,-462 210,-456"/>
<path fill="lightgrey" stroke="lightgrey" d="M210,-444C210,-438 216,-432 222,-432"/>
<path fill="lightgrey" stroke="lightgrey" d="M302,-432C308,-432 314,-438 314,-444"/>
<path fill="lightgrey" stroke="lightgrey" d="M314,-456C314,-462 308,-468 302,-468"/>
<polyline fill="none" stroke="black" points="302,-468 222,-468 "/>
<path fill="none" stroke="black" d="M222,-468C216,-468 210,-462 210,-456"/>
<polyline fill="none" stroke="black" points="210,-456 210,-444 "/>
<path fill="none" stroke="black" d="M210,-444C210,-438 216,-432 222,-432"/>
<polyline fill="none" stroke="black" points="222,-432 302,-432 "/>
<path fill="none" stroke="black" d="M302,-432C308,-432 314,-438 314,-444"/>
<polyline fill="none" stroke="black" points="314,-444 314,-456 "/>
<path fill="none" stroke="black" d="M314,-456C314,-462 308,-468 302,-468"/>
<text text-anchor="middle" x="262" y="-446.4" font-family="Times Roman,serif" font-size="14.00">SSHLocation</text>
</g>
<!-- SSHLocation&#45;&gt;WebServerSecurityGroup -->
<g id="edge10" class="edge"><title>SSHLocation&#45;&gt;WebServerSecurityGroup</title>
<path fill="none" stroke="black" d="M286.225,-431.831C298.163,-422.878 312.726,-411.956 325.606,-402.295"/>
<polygon fill="black" stroke="black" points="327.883,-404.963 333.783,-396.163 323.683,-399.363 327.883,-404.963"/>
</g>
<!-- KeyName -->
<g id="node18" class="node"><title>KeyName</title>
<polygon fill="lightgrey" stroke="lightgrey" points="1146,-468 1090,-468 1078,-456 1078,-444 1090,-432 1146,-432 1158,-444 1158,-456 1146,-468"/>
<path fill="lightgrey" stroke="lightgrey" d="M1090,-468C1084,-468 1078,-462 1078,-456"/>
<path fill="lightgrey" stroke="lightgrey" d="M1078,-444C1078,-438 1084,-432 1090,-432"/>
<path fill="lightgrey" stroke="lightgrey" d="M1146,-432C1152,-432 1158,-438 1158,-444"/>
<path fill="lightgrey" stroke="lightgrey" d="M1158,-456C1158,-462 1152,-468 1146,-468"/>
<polyline fill="none" stroke="black" points="1146,-468 1090,-468 "/>
<path fill="none" stroke="black" d="M1090,-468C1084,-468 1078,-462 1078,-456"/>
<polyline fill="none" stroke="black" points="1078,-456 1078,-444 "/>
<path fill="none" stroke="black" d="M1078,-444C1078,-438 1084,-432 1090,-432"/>
<polyline fill="none" stroke="black" points="1090,-432 1146,-432 "/>
<path fill="none" stroke="black" d="M1146,-432C1152,-432 1158,-438 1158,-444"/>
<polyline fill="none" stroke="black" points="1158,-444 1158,-456 "/>
<path fill="none" stroke="black" d="M1158,-456C1158,-462 1152,-468 1146,-468"/>
<text text-anchor="middle" x="1118" y="-446.4" font-family="Times Roman,serif" font-size="14.00">KeyName</text>
</g>
<!-- KeyName&#45;&gt;WebServer -->
<g id="edge22" class="edge"><title>KeyName&#45;&gt;WebServer</title>
<path fill="none" stroke="black" d="M1100.1,-431.663C1091.1,-421.714 1080.52,-408.847 1073,-396 1033.13,-327.924 1012.22,-235.913 1003.71,-190.202"/>
<polygon fill="black" stroke="black" points="1007.11,-189.358 1001.89,-180.137 1000.22,-190.599 1007.11,-189.358"/>
</g>
<!-- DBSubnets -->
<g id="node19" class="node"><title>DBSubnets</title>
<polygon fill="lightgrey" stroke="lightgrey" points="658,-468 588,-468 576,-456 576,-444 588,-432 658,-432 670,-444 670,-456 658,-468"/>
<path fill="lightgrey" stroke="lightgrey" d="M588,-468C582,-468 576,-462 576,-456"/>
<path fill="lightgrey" stroke="lightgrey" d="M576,-444C576,-438 582,-432 588,-432"/>
<path fill="lightgrey" stroke="lightgrey" d="M658,-432C664,-432 670,-438 670,-444"/>
<path fill="lightgrey" stroke="lightgrey" d="M670,-456C670,-462 664,-468 658,-468"/>
<polyline fill="none" stroke="black" points="658,-468 588,-468 "/>
<path fill="none" stroke="black" d="M588,-468C582,-468 576,-462 576,-456"/>
<polyline fill="none" stroke="black" points="576,-456 576,-444 "/>
<path fill="none" stroke="black" d="M576,-444C576,-438 582,-432 588,-432"/>
<polyline fill="none" stroke="black" points="588,-432 658,-432 "/>
<path fill="none" stroke="black" d="M658,-432C664,-432 670,-438 670,-444"/>
<polyline fill="none" stroke="black" points="670,-444 670,-456 "/>
<path fill="none" stroke="black" d="M670,-456C670,-462 664,-468 658,-468"/>
<text text-anchor="middle" x="623" y="-446.4" font-family="Times Roman,serif" font-size="14.00">DBSubnets</text>
</g>
<!-- DBSubnets&#45;&gt;MyDBSubnetGroup -->
<g id="edge8" class="edge"><title>DBSubnets&#45;&gt;MyDBSubnetGroup</title>
<path fill="none" stroke="black" d="M623,-431.762C623,-407.201 623,-363.247 623,-334.354"/>
<polygon fill="black" stroke="black" points="626.5,-334.09 623,-324.09 619.5,-334.09 626.5,-334.09"/>
</g>
<!-- InstanceType -->
<g id="node20" class="node"><title>InstanceType</title>
<polygon fill="lightgrey" stroke="lightgrey" points="1270,-468 1188,-468 1176,-456 1176,-444 1188,-432 1270,-432 1282,-444 1282,-456 1270,-468"/>
<path fill="lightgrey" stroke="lightgrey" d="M1188,-468C1182,-468 1176,-462 1176,-456"/>
<path fill="lightgrey" stroke="lightgrey" d="M1176,-444C1176,-438 1182,-432 1188,-432"/>
<path fill="lightgrey" stroke="lightgrey" d="M1270,-432C1276,-432 1282,-438 1282,-444"/>
<path fill="lightgrey" stroke="lightgrey" d="M1282,-456C1282,-462 1276,-468 1270,-468"/>
<polyline fill="none" stroke="black" points="1270,-468 1188,-468 "/>
<path fill="none" stroke="black" d="M1188,-468C1182,-468 1176,-462 1176,-456"/>
<polyline fill="none" stroke="black" points="1176,-456 1176,-444 "/>
<path fill="none" stroke="black" d="M1176,-444C1176,-438 1182,-432 1188,-432"/>
<polyline fill="none" stroke="black" points="1188,-432 1270,-432 "/>
<path fill="none" stroke="black" d="M1270,-432C1276,-432 1282,-438 1282,-444"/>
<polyline fill="none" stroke="black" points="1282,-444 1282,-456 "/>
<path fill="none" stroke="black" d="M1282,-456C1282,-462 1276,-468 1270,-468"/>
<text text-anchor="middle" x="1229" y="-446.4" font-family="Times Roman,serif" font-size="14.00">InstanceType</text>
</g>
<!-- InstanceType&#45;&gt;WebServer -->
<g id="edge28" class="edge"><title>InstanceType&#45;&gt;WebServer</title>
<path fill="none" stroke="black" d="M1224.57,-431.702C1219.37,-388.223 1211.39,-277.745 1152,-216 1137.99,-201.436 1092.97,-187.071 1055.29,-176.822"/>
<polygon fill="black" stroke="black" points="1055.96,-173.378 1045.39,-174.176 1054.15,-180.14 1055.96,-173.378"/>
</g>
<!-- InstanceType&#45;&gt;WebServer -->
<g id="edge30" class="edge"><title>InstanceType&#45;&gt;WebServer</title>
<path fill="none" stroke="black" d="M1233.66,-431.702C1237.37,-388.223 1229.39,-277.745 1170,-216 1154.18,-199.547 1098.76,-183.347 1055.16,-173.05"/>
<polygon fill="black" stroke="black" points="1055.74,-169.592 1045.21,-170.754 1054.17,-176.413 1055.74,-169.592"/>
</g>
<!-- AWS::StackId -->
<g id="node28" class="node"><title>AWS::StackId</title>
<polygon fill="none" stroke="black" points="1192,-396 1082,-396 1082,-360 1192,-360 1192,-396"/>
<text text-anchor="middle" x="1137" y="-374.4" font-family="Times Roman,serif" font-size="14.00">AWS::StackId</text>
</g>
<!-- AWS::StackId&#45;&gt;WebServer -->
<g id="edge14" class="edge"><title>AWS::StackId&#45;&gt;WebServer</title>
<path fill="none" stroke="black" d="M1143.62,-359.776C1154.05,-327.585 1170.21,-259.919 1140,-216 1129.75,-201.095 1089.56,-186.566 1054.7,-176.339"/>
<polygon fill="black" stroke="black" points="1055.62,-172.96 1045.04,-173.572 1053.69,-179.69 1055.62,-172.96"/>
</g>
<!-- AWS::Region -->
<g id="node30" class="node"><title>AWS::Region</title>
<polygon fill="none" stroke="black" points="1131,-252 1027,-252 1027,-216 1131,-216 1131,-252"/>
<text text-anchor="middle" x="1079" y="-230.4" font-family="Times Roman,serif" font-size="14.00">AWS::Region</text>
</g>
<!-- AWS::Region&#45;&gt;WebServer -->
<g id="edge26" class="edge"><title>AWS::Region&#45;&gt;WebServer</title>
<path fill="none" stroke="black" d="M1052.86,-215.831C1042.35,-207.134 1030.45,-196.578 1020.45,-187.127"/>
<polygon fill="black" stroke="black" points="1022.86,-184.585 1013.23,-180.163 1018,-189.624 1022.86,-184.585"/>
</g>
<!-- AWS::Region&#45;&gt;WebServer -->
<g id="edge16" class="edge"><title>AWS::Region&#45;&gt;WebServer</title>
<path fill="none" stroke="black" d="M1064.77,-215.831C1055.86,-207.048 1044.17,-196.371 1033.06,-186.849"/>
<polygon fill="black" stroke="black" points="1035.03,-183.933 1025.13,-180.163 1030.52,-189.284 1035.03,-183.933"/>
</g>
</g>
</svg>
