<?xml version="1.0" encoding="UTF-8" standalone="no"?>
<!DOCTYPE svg PUBLIC "-//W3C//DTD SVG 1.1//EN"
 "http://www.w3.org/Graphics/SVG/1.1/DTD/svg11.dtd">
<!-- Generated by graphviz version 2.26.3 (20100126.1600)
 -->
<!-- Title: Example template showing how the WaitCondition and WaitConditionHandle are configured. With this template, the stack will not complete until either the WaitCondition timeout occurs, or you manually signal the WaitCondition object using the URL created by the WaitConditionHandle. You can use CURL or some other equivalent mechanism to signal the WaitCondition. To find the URL, use cfn&#45;describe&#45;stack&#45;resources or the AWS Management Console to display the PhysicalResourceId of the WaitConditionHandle &#45; this is the URL to use to signal. For details of the signal request see the AWS CloudFormation User Guide at http://docs.amazonwebservices.com/AWSCloudFormation/latest/UserGuide/ Pages: 1 -->
<svg width="144pt" height="188pt"
 viewBox="0.00 0.00 144.00 188.00" xmlns="http://www.w3.org/2000/svg" xmlns:xlink="http://www.w3.org/1999/xlink">
<g id="graph1" class="graph" transform="scale(1 1) rotate(0) translate(4 184)">
<title>Example template showing how the WaitCondition and WaitConditionHandle are configured. With this template, the stack will not complete until either the WaitCondition timeout occurs, or you manually signal the WaitCondition object using the URL created by the WaitConditionHandle. You can use CURL or some other equivalent mechanism to signal the WaitCondition. To find the URL, use cfn&#45;describe&#45;stack&#45;resources or the AWS Management Console to display the PhysicalResourceId of the WaitConditionHandle &#45; this is the URL to use to signal. For details of the signal request see the AWS CloudFormation User Guide at http://docs.amazonwebservices.com/AWSCloudFormation/latest/UserGuide/</title>
<polygon fill="white" stroke="white" points="-4,5 -4,-184 141,-184 141,5 -4,5"/>
<!-- myWaitCondition -->
<g id="node1" class="node"><title>myWaitCondition</title>
<polygon fill="none" stroke="black" points="136,-108 7.10543e-14,-108 0,-72 136,-72 136,-108"/>
<text text-anchor="middle" x="68" y="-86.4" font-family="Times Roman,serif" font-size="14.00">myWaitCondition</text>
</g>
<!-- ApplicationData -->
<g id="node4" class="node"><title>ApplicationData</title>
<polygon fill="lightgrey" stroke="lightgrey" points="119,-36 17,-36 5,-24 5,-12 17,-1.64102e-14 119,-4.90613e-15 131,-12 131,-24 119,-36"/>
<path fill="lightgrey" stroke="lightgrey" d="M17,-36C11,-36 5,-30 5,-24"/>
<path fill="lightgrey" stroke="lightgrey" d="M5,-12C5,-6 11,-1.70869e-14 17,-1.64102e-14"/>
<path fill="lightgrey" stroke="lightgrey" d="M119,-4.90613e-15C125,-4.22942e-15 131,-6 131,-12"/>
<path fill="lightgrey" stroke="lightgrey" d="M131,-24C131,-30 125,-36 119,-36"/>
<polyline fill="none" stroke="black" points="119,-36 17,-36 "/>
<path fill="none" stroke="black" d="M17,-36C11,-36 5,-30 5,-24"/>
<polyline fill="none" stroke="black" points="5,-24 5,-12 "/>
<path fill="none" stroke="black" d="M5,-12C5,-6 11,-1.70869e-14 17,-1.64102e-14"/>
<polyline fill="none" stroke="black" points="17,-1.64102e-14 119,-4.90613e-15 "/>
<path fill="none" stroke="black" d="M119,-4.90613e-15C125,-4.22942e-15 131,-6 131,-12"/>
<polyline fill="none" stroke="black" points="131,-12 131,-24 "/>
<path fill="none" stroke="black" d="M131,-24C131,-30 125,-36 119,-36"/>
<text text-anchor="middle" x="68" y="-14.4" font-family="Times Roman,serif" font-size="14.00">ApplicationData</text>
</g>
<!-- myWaitCondition&#45;&gt;ApplicationData -->
<g id="edge5" class="edge"><title>myWaitCondition&#45;&gt;ApplicationData</title>
<path fill="none" stroke="black" d="M68,-71.8314C68,-64.131 68,-54.9743 68,-46.4166"/>
<polygon fill="black" stroke="black" points="71.5001,-46.4132 68,-36.4133 64.5001,-46.4133 71.5001,-46.4132"/>
</g>
<!-- myWaitHandle -->
<g id="node2" class="node"><title>myWaitHandle</title>
<polygon fill="none" stroke="black" points="127,-180 9,-180 9,-144 127,-144 127,-180"/>
<text text-anchor="middle" x="68" y="-158.4" font-family="Times Roman,serif" font-size="14.00">myWaitHandle</text>
</g>
<!-- myWaitHandle&#45;&gt;myWaitCondition -->
<g id="edge3" class="edge"><title>myWaitHandle&#45;&gt;myWaitCondition</title>
<path fill="none" stroke="black" d="M68,-143.831C68,-136.131 68,-126.974 68,-118.417"/>
<polygon fill="black" stroke="black" points="71.5001,-118.413 68,-108.413 64.5001,-118.413 71.5001,-118.413"/>
</g>
</g>
</svg>
