<?xml version="1.0" encoding="UTF-8" standalone="no"?>
<!DOCTYPE svg PUBLIC "-//W3C//DTD SVG 1.1//EN"
 "http://www.w3.org/Graphics/SVG/1.1/DTD/svg11.dtd">
<!-- Generated by graphviz version 2.26.3 (20100126.1600)
 -->
<!-- Title: This template creates a single server installation of Microsoft SharePoint Foundation 2010. **WARNING** This template creates Amazon EC2 Windows instance and related resources. You will be billed for the AWS resources used if you create a stack from this template. Also, you are solely responsible for complying with the license terms for the software downloaded and installed by this template. By creating a stack from this template, you are agreeing to such terms. Pages: 1 -->
<svg width="1015pt" height="404pt"
 viewBox="0.00 0.00 1015.00 404.00" xmlns="http://www.w3.org/2000/svg" xmlns:xlink="http://www.w3.org/1999/xlink">
<g id="graph1" class="graph" transform="scale(1 1) rotate(0) translate(4 400)">
<title>This template creates a single server installation of Microsoft SharePoint Foundation 2010. **WARNING** This template creates Amazon EC2 Windows instance and related resources. You will be billed for the AWS resources used if you create a stack from this template. Also, you are solely responsible for complying with the license terms for the software downloaded and installed by this template. By creating a stack from this template, you are agreeing to such terms.</title>
<polygon fill="white" stroke="white" points="-4,5 -4,-400 1012,-400 1012,5 -4,5"/>
<!-- IAMUser -->
<g id="node1" class="node"><title>IAMUser</title>
<polygon fill="none" stroke="black" points="74,-324 3.55271e-14,-324 0,-288 74,-288 74,-324"/>
<text text-anchor="middle" x="37" y="-302.4" font-family="Times Roman,serif" font-size="14.00">IAMUser</text>
</g>
<!-- IAMUserAccessKey -->
<g id="node6" class="node"><title>IAMUserAccessKey</title>
<polygon fill="none" stroke="black" points="322,-252 178,-252 178,-216 322,-216 322,-252"/>
<text text-anchor="middle" x="250" y="-230.4" font-family="Times Roman,serif" font-size="14.00">IAMUserAccessKey</text>
</g>
<!-- IAMUser&#45;&gt;IAMUserAccessKey -->
<g id="edge8" class="edge"><title>IAMUser&#45;&gt;IAMUserAccessKey</title>
<path fill="none" stroke="black" d="M74.0849,-291.267C77.0929,-290.14 80.0924,-289.038 83,-288 115.239,-276.492 151.343,-264.685 181.712,-255.058"/>
<polygon fill="black" stroke="black" points="182.876,-258.36 191.358,-252.012 180.768,-251.685 182.876,-258.36"/>
</g>
<!-- SharePointFoundationWaitHandle -->
<g id="node2" class="node"><title>SharePointFoundationWaitHandle</title>
<polygon fill="none" stroke="black" points="998,-252 748,-252 748,-216 998,-216 998,-252"/>
<text text-anchor="middle" x="873" y="-230.4" font-family="Times Roman,serif" font-size="14.00">SharePointFoundationWaitHandle</text>
</g>
<!-- SharePointFoundationWaitCondition -->
<g id="node3" class="node"><title>SharePointFoundationWaitCondition</title>
<polygon fill="none" stroke="black" points="1007,-108 739,-108 739,-72 1007,-72 1007,-108"/>
<text text-anchor="middle" x="873" y="-86.4" font-family="Times Roman,serif" font-size="14.00">SharePointFoundationWaitCondition</text>
</g>
<!-- SharePointFoundationWaitHandle&#45;&gt;SharePointFoundationWaitCondition -->
<g id="edge4" class="edge"><title>SharePointFoundationWaitHandle&#45;&gt;SharePointFoundationWaitCondition</title>
<path fill="none" stroke="black" d="M873,-215.762C873,-191.201 873,-147.247 873,-118.354"/>
<polygon fill="black" stroke="black" points="876.5,-118.09 873,-108.09 869.5,-118.09 876.5,-118.09"/>
</g>
<!-- SharePointFoundation -->
<g id="node7" class="node"><title>SharePointFoundation</title>
<polygon fill="none" stroke="black" points="577,-180 407,-180 407,-144 577,-144 577,-180"/>
<text text-anchor="middle" x="492" y="-158.4" font-family="Times Roman,serif" font-size="14.00">SharePointFoundation</text>
</g>
<!-- SharePointFoundationWaitHandle&#45;&gt;SharePointFoundation -->
<g id="edge18" class="edge"><title>SharePointFoundationWaitHandle&#45;&gt;SharePointFoundation</title>
<path fill="none" stroke="black" d="M777.349,-215.924C719.213,-204.938 645.254,-190.961 587.199,-179.99"/>
<polygon fill="black" stroke="black" points="587.766,-176.536 577.29,-178.118 586.466,-183.414 587.766,-176.536"/>
</g>
<!-- SharePointFoundationEIP -->
<g id="node4" class="node"><title>SharePointFoundationEIP</title>
<polygon fill="none" stroke="black" points="588,-108 396,-108 396,-72 588,-72 588,-108"/>
<text text-anchor="middle" x="492" y="-86.4" font-family="Times Roman,serif" font-size="14.00">SharePointFoundationEIP</text>
</g>
<!-- SharePointFoundationURL -->
<g id="node12" class="node"><title>SharePointFoundationURL</title>
<polygon fill="lightgrey" stroke="lightgrey" points="579,-36 405,-36 393,-24 393,-12 405,-1.69023e-14 579,-4.41398e-15 591,-12 591,-24 579,-36"/>
<path fill="lightgrey" stroke="lightgrey" d="M405,-36C399,-36 393,-30 393,-24"/>
<path fill="lightgrey" stroke="lightgrey" d="M393,-12C393,-6 399,-1.73329e-14 405,-1.69023e-14"/>
<path fill="lightgrey" stroke="lightgrey" d="M579,-4.41398e-15C585,-3.98335e-15 591,-6 591,-12"/>
<path fill="lightgrey" stroke="lightgrey" d="M591,-24C591,-30 585,-36 579,-36"/>
<polyline fill="none" stroke="black" points="579,-36 405,-36 "/>
<path fill="none" stroke="black" d="M405,-36C399,-36 393,-30 393,-24"/>
<polyline fill="none" stroke="black" points="393,-24 393,-12 "/>
<path fill="none" stroke="black" d="M393,-12C393,-6 399,-1.73329e-14 405,-1.69023e-14"/>
<polyline fill="none" stroke="black" points="405,-1.69023e-14 579,-4.41398e-15 "/>
<path fill="none" stroke="black" d="M579,-4.41398e-15C585,-3.98335e-15 591,-6 591,-12"/>
<polyline fill="none" stroke="black" points="591,-12 591,-24 "/>
<path fill="none" stroke="black" d="M591,-24C591,-30 585,-36 579,-36"/>
<text text-anchor="middle" x="492" y="-14.4" font-family="Times Roman,serif" font-size="14.00">SharePointFoundationURL</text>
</g>
<!-- SharePointFoundationEIP&#45;&gt;SharePointFoundationURL -->
<g id="edge42" class="edge"><title>SharePointFoundationEIP&#45;&gt;SharePointFoundationURL</title>
<path fill="none" stroke="black" d="M492,-71.8314C492,-64.131 492,-54.9743 492,-46.4166"/>
<polygon fill="black" stroke="black" points="495.5,-46.4132 492,-36.4133 488.5,-46.4133 495.5,-46.4132"/>
</g>
<!-- SharePointFoundationSecurityGroup -->
<g id="node5" class="node"><title>SharePointFoundationSecurityGroup</title>
<polygon fill="none" stroke="black" points="360,-324 92,-324 92,-288 360,-288 360,-324"/>
<text text-anchor="middle" x="226" y="-302.4" font-family="Times Roman,serif" font-size="14.00">SharePointFoundationSecurityGroup</text>
</g>
<!-- SharePointFoundationSecurityGroup&#45;&gt;SharePointFoundation -->
<g id="edge22" class="edge"><title>SharePointFoundationSecurityGroup&#45;&gt;SharePointFoundation</title>
<path fill="none" stroke="black" d="M266.064,-287.99C286.154,-278.32 310.506,-265.604 331,-252 351.766,-238.216 352.924,-229.305 374,-216 393.242,-203.853 415.669,-192.885 435.773,-184.057"/>
<polygon fill="black" stroke="black" points="437.328,-187.198 445.127,-180.027 434.558,-180.769 437.328,-187.198"/>
</g>
<!-- IAMUserAccessKey&#45;&gt;SharePointFoundation -->
<g id="edge34" class="edge"><title>IAMUserAccessKey&#45;&gt;SharePointFoundation</title>
<path fill="none" stroke="black" d="M292.925,-215.924C323.765,-205.868 365.745,-193.305 403.406,-182.836"/>
<polygon fill="black" stroke="black" points="404.679,-186.116 413.388,-180.083 402.818,-179.368 404.679,-186.116"/>
</g>
<!-- IAMUserAccessKey&#45;&gt;SharePointFoundation -->
<g id="edge36" class="edge"><title>IAMUserAccessKey&#45;&gt;SharePointFoundation</title>
<path fill="none" stroke="black" d="M322.196,-217.662C359.896,-207.466 404.824,-194.235 439.293,-183.231"/>
<polygon fill="black" stroke="black" points="440.735,-186.443 449.178,-180.042 438.586,-179.781 440.735,-186.443"/>
</g>
<!-- IAMUserAccessKey&#45;&gt;SharePointFoundation -->
<g id="edge12" class="edge"><title>IAMUserAccessKey&#45;&gt;SharePointFoundation</title>
<path fill="none" stroke="black" d="M304.811,-215.924C337.486,-205.91 379.41,-193.412 415.32,-182.97"/>
<polygon fill="black" stroke="black" points="416.647,-186.23 425.277,-180.083 414.697,-179.506 416.647,-186.23"/>
</g>
<!-- IAMUserAccessKey&#45;&gt;SharePointFoundation -->
<g id="edge14" class="edge"><title>IAMUserAccessKey&#45;&gt;SharePointFoundation</title>
<path fill="none" stroke="black" d="M316.698,-215.924C351.191,-205.953 393.072,-193.519 427.275,-183.104"/>
<polygon fill="black" stroke="black" points="428.623,-186.352 437.165,-180.083 426.578,-179.657 428.623,-186.352"/>
</g>
<!-- SharePointFoundation&#45;&gt;SharePointFoundationEIP -->
<g id="edge6" class="edge"><title>SharePointFoundation&#45;&gt;SharePointFoundationEIP</title>
<path fill="none" stroke="black" d="M492,-143.831C492,-136.131 492,-126.974 492,-118.417"/>
<polygon fill="black" stroke="black" points="495.5,-118.413 492,-108.413 488.5,-118.413 495.5,-118.413"/>
</g>
<!-- InstanceType -->
<g id="node9" class="node"><title>InstanceType</title>
<polygon fill="lightgrey" stroke="lightgrey" points="399,-396 317,-396 305,-384 305,-372 317,-360 399,-360 411,-372 411,-384 399,-396"/>
<path fill="lightgrey" stroke="lightgrey" d="M317,-396C311,-396 305,-390 305,-384"/>
<path fill="lightgrey" stroke="lightgrey" d="M305,-372C305,-366 311,-360 317,-360"/>
<path fill="lightgrey" stroke="lightgrey" d="M399,-360C405,-360 411,-366 411,-372"/>
<path fill="lightgrey" stroke="lightgrey" d="M411,-384C411,-390 405,-396 399,-396"/>
<polyline fill="none" stroke="black" points="399,-396 317,-396 "/>
<path fill="none" stroke="black" d="M317,-396C311,-396 305,-390 305,-384"/>
<polyline fill="none" stroke="black" points="305,-384 305,-372 "/>
<path fill="none" stroke="black" d="M305,-372C305,-366 311,-360 317,-360"/>
<polyline fill="none" stroke="black" points="317,-360 399,-360 "/>
<path fill="none" stroke="black" d="M399,-360C405,-360 411,-366 411,-372"/>
<polyline fill="none" stroke="black" points="411,-372 411,-384 "/>
<path fill="none" stroke="black" d="M411,-384C411,-390 405,-396 399,-396"/>
<text text-anchor="middle" x="358" y="-374.4" font-family="Times Roman,serif" font-size="14.00">InstanceType</text>
</g>
<!-- InstanceType&#45;&gt;SharePointFoundation -->
<g id="edge24" class="edge"><title>InstanceType&#45;&gt;SharePointFoundation</title>
<path fill="none" stroke="black" d="M362.862,-359.8C376.797,-329.59 413.091,-267.33 446,-216 451.857,-206.865 458.492,-197.032 464.977,-188.293"/>
<polygon fill="black" stroke="black" points="467.797,-190.368 471.118,-180.307 462.248,-186.1 467.797,-190.368"/>
</g>
<!-- InstanceType&#45;&gt;SharePointFoundation -->
<g id="edge28" class="edge"><title>InstanceType&#45;&gt;SharePointFoundation</title>
<path fill="none" stroke="black" d="M373.958,-359.8C394.797,-329.59 431.091,-267.33 464,-216 469.736,-207.053 476.219,-197.437 481.698,-188.834"/>
<polygon fill="black" stroke="black" points="484.689,-190.653 486.972,-180.307 478.736,-186.971 484.689,-190.653"/>
</g>
<!-- KeyPairName -->
<g id="node10" class="node"><title>KeyPairName</title>
<polygon fill="lightgrey" stroke="lightgrey" points="523,-396 441,-396 429,-384 429,-372 441,-360 523,-360 535,-372 535,-384 523,-396"/>
<path fill="lightgrey" stroke="lightgrey" d="M441,-396C435,-396 429,-390 429,-384"/>
<path fill="lightgrey" stroke="lightgrey" d="M429,-372C429,-366 435,-360 441,-360"/>
<path fill="lightgrey" stroke="lightgrey" d="M523,-360C529,-360 535,-366 535,-372"/>
<path fill="lightgrey" stroke="lightgrey" d="M535,-384C535,-390 529,-396 523,-396"/>
<polyline fill="none" stroke="black" points="523,-396 441,-396 "/>
<path fill="none" stroke="black" d="M441,-396C435,-396 429,-390 429,-384"/>
<polyline fill="none" stroke="black" points="429,-384 429,-372 "/>
<path fill="none" stroke="black" d="M429,-372C429,-366 435,-360 441,-360"/>
<polyline fill="none" stroke="black" points="441,-360 523,-360 "/>
<path fill="none" stroke="black" d="M523,-360C529,-360 535,-366 535,-372"/>
<polyline fill="none" stroke="black" points="535,-372 535,-384 "/>
<path fill="none" stroke="black" d="M535,-384C535,-390 529,-396 523,-396"/>
<text text-anchor="middle" x="482" y="-374.4" font-family="Times Roman,serif" font-size="14.00">KeyPairName</text>
</g>
<!-- KeyPairName&#45;&gt;SharePointFoundation -->
<g id="edge20" class="edge"><title>KeyPairName&#45;&gt;SharePointFoundation</title>
<path fill="none" stroke="black" d="M475.633,-359.744C466.004,-329.453 450.152,-267.08 463,-216 465.339,-206.702 469.623,-197.261 474.194,-188.928"/>
<polygon fill="black" stroke="black" points="477.355,-190.456 479.388,-180.058 471.314,-186.919 477.355,-190.456"/>
</g>
<!-- AWS::StackName -->
<g id="node16" class="node"><title>AWS::StackName</title>
<polygon fill="none" stroke="black" points="608,-252 472,-252 472,-216 608,-216 608,-252"/>
<text text-anchor="middle" x="540" y="-230.4" font-family="Times Roman,serif" font-size="14.00">AWS::StackName</text>
</g>
<!-- AWS::StackName&#45;&gt;SharePointFoundation -->
<g id="edge30" class="edge"><title>AWS::StackName&#45;&gt;SharePointFoundation</title>
<path fill="none" stroke="black" d="M515.983,-215.831C509.057,-207.792 502.227,-198.167 497.052,-189.292"/>
<polygon fill="black" stroke="black" points="500.113,-187.594 492.323,-180.413 493.935,-190.885 500.113,-187.594"/>
</g>
<!-- AWS::StackName&#45;&gt;SharePointFoundation -->
<g id="edge38" class="edge"><title>AWS::StackName&#45;&gt;SharePointFoundation</title>
<path fill="none" stroke="black" d="M539.792,-215.831C535.88,-207.539 529.614,-197.557 522.704,-188.453"/>
<polygon fill="black" stroke="black" points="525.227,-186.005 516.228,-180.413 519.775,-190.396 525.227,-186.005"/>
</g>
<!-- AWS::StackName&#45;&gt;SharePointFoundation -->
<g id="edge10" class="edge"><title>AWS::StackName&#45;&gt;SharePointFoundation</title>
<path fill="none" stroke="black" d="M527.888,-215.831C522.472,-207.708 515.976,-197.964 510.008,-189.012"/>
<polygon fill="black" stroke="black" points="512.735,-186.792 504.276,-180.413 506.91,-190.675 512.735,-186.792"/>
</g>
<!-- AWS::Region -->
<g id="node20" class="node"><title>AWS::Region</title>
<polygon fill="none" stroke="black" points="730,-252 626,-252 626,-216 730,-216 730,-252"/>
<text text-anchor="middle" x="678" y="-230.4" font-family="Times Roman,serif" font-size="14.00">AWS::Region</text>
</g>
<!-- AWS::Region&#45;&gt;SharePointFoundation -->
<g id="edge26" class="edge"><title>AWS::Region&#45;&gt;SharePointFoundation</title>
<path fill="none" stroke="black" d="M625.763,-220.118C595.278,-209.919 558.119,-195.854 530.283,-184.115"/>
<polygon fill="black" stroke="black" points="531.422,-180.795 520.852,-180.07 528.663,-187.228 531.422,-180.795"/>
</g>
<!-- AWS::Region&#45;&gt;SharePointFoundation -->
<g id="edge32" class="edge"><title>AWS::Region&#45;&gt;SharePointFoundation</title>
<path fill="none" stroke="black" d="M637.017,-215.831C612.653,-206.031 581.338,-193.871 554.017,-183.589"/>
<polygon fill="black" stroke="black" points="555.13,-180.269 544.538,-180.038 552.674,-186.824 555.13,-180.269"/>
</g>
<!-- AWS::Region&#45;&gt;SharePointFoundation -->
<g id="edge40" class="edge"><title>AWS::Region&#45;&gt;SharePointFoundation</title>
<path fill="none" stroke="black" d="M648.922,-215.831C626.37,-205.988 595.076,-193.765 566.128,-183.455"/>
<polygon fill="black" stroke="black" points="567.012,-180.055 556.417,-180.038 564.688,-186.659 567.012,-180.055"/>
</g>
<!-- AWS::Region&#45;&gt;SharePointFoundation -->
<g id="edge16" class="edge"><title>AWS::Region&#45;&gt;SharePointFoundation</title>
<path fill="none" stroke="black" d="M625.61,-216.017C599.457,-206.267 568.021,-194.14 542.18,-183.849"/>
<polygon fill="black" stroke="black" points="543.157,-180.47 532.572,-180.003 540.555,-186.969 543.157,-180.47"/>
</g>
</g>
</svg>
