<?xml version="1.0" encoding="UTF-8" standalone="no"?>
<!DOCTYPE svg PUBLIC "-//W3C//DTD SVG 1.1//EN"
 "http://www.w3.org/Graphics/SVG/1.1/DTD/svg11.dtd">
<!-- Generated by graphviz version 2.26.3 (20100126.1600)
 -->
<!-- Title: This template creates a single server installation of Active Directory. Domain Administrator password will be the one retrieved from the instance. For adding members to the domain, ensure that they are launched in domain member security group created by this template and then configure them to use this instance&#39;s elastic IP as the DNS server. **WARNING** This template creates Amazon EC2 Windows instance and related resources. You will be billed for the AWS resources used if you create a stack from this template. Pages: 1 -->
<svg width="3287pt" height="404pt"
 viewBox="0.00 0.00 3287.00 404.00" xmlns="http://www.w3.org/2000/svg" xmlns:xlink="http://www.w3.org/1999/xlink">
<g id="graph1" class="graph" transform="scale(1 1) rotate(0) translate(4 400)">
<title>This template creates a single server installation of Active Directory. Domain Administrator password will be the one retrieved from the instance. For adding members to the domain, ensure that they are launched in domain member security group created by this template and then configure them to use this instance&#39;s elastic IP as the DNS server. **WARNING** This template creates Amazon EC2 Windows instance and related resources. You will be billed for the AWS resources used if you create a stack from this template.</title>
<polygon fill="white" stroke="white" points="-4,5 -4,-400 3284,-400 3284,5 -4,5"/>
<!-- DomainControllerWaitHandle -->
<g id="node1" class="node"><title>DomainControllerWaitHandle</title>
<polygon fill="none" stroke="black" points="2370,-252 2152,-252 2152,-216 2370,-216 2370,-252"/>
<text text-anchor="middle" x="2261" y="-230.4" font-family="Times Roman,serif" font-size="14.00">DomainControllerWaitHandle</text>
</g>
<!-- DomainController -->
<g id="node2" class="node"><title>DomainController</title>
<polygon fill="none" stroke="black" points="2805,-180 2667,-180 2667,-144 2805,-144 2805,-180"/>
<text text-anchor="middle" x="2736" y="-158.4" font-family="Times Roman,serif" font-size="14.00">DomainController</text>
</g>
<!-- DomainControllerWaitHandle&#45;&gt;DomainController -->
<g id="edge34" class="edge"><title>DomainControllerWaitHandle&#45;&gt;DomainController</title>
<path fill="none" stroke="black" d="M2370.29,-217.324C2373.22,-216.878 2376.13,-216.436 2379,-216 2474.59,-201.48 2584.59,-184.853 2656.94,-173.93"/>
<polygon fill="black" stroke="black" points="2657.52,-177.381 2666.89,-172.427 2656.48,-170.46 2657.52,-177.381"/>
</g>
<!-- DomainControllerWaitCondition -->
<g id="node12" class="node"><title>DomainControllerWaitCondition</title>
<polygon fill="none" stroke="black" points="2388,-108 2152,-108 2152,-72 2388,-72 2388,-108"/>
<text text-anchor="middle" x="2270" y="-86.4" font-family="Times Roman,serif" font-size="14.00">DomainControllerWaitCondition</text>
</g>
<!-- DomainControllerWaitHandle&#45;&gt;DomainControllerWaitCondition -->
<g id="edge72" class="edge"><title>DomainControllerWaitHandle&#45;&gt;DomainControllerWaitCondition</title>
<path fill="none" stroke="black" d="M2262.14,-215.762C2263.67,-191.201 2266.42,-147.247 2268.23,-118.354"/>
<polygon fill="black" stroke="black" points="2271.74,-118.288 2268.87,-108.09 2264.75,-117.852 2271.74,-118.288"/>
</g>
<!-- DomainControllerEndpoint -->
<g id="node4" class="node"><title>DomainControllerEndpoint</title>
<polygon fill="none" stroke="black" points="2836,-108 2636,-108 2636,-72 2836,-72 2836,-108"/>
<text text-anchor="middle" x="2736" y="-86.4" font-family="Times Roman,serif" font-size="14.00">DomainControllerEndpoint</text>
</g>
<!-- DomainController&#45;&gt;DomainControllerEndpoint -->
<g id="edge42" class="edge"><title>DomainController&#45;&gt;DomainControllerEndpoint</title>
<path fill="none" stroke="black" d="M2736,-143.831C2736,-136.131 2736,-126.974 2736,-118.417"/>
<polygon fill="black" stroke="black" points="2739.5,-118.413 2736,-108.413 2732.5,-118.413 2739.5,-118.413"/>
</g>
<!-- IAMUser -->
<g id="node3" class="node"><title>IAMUser</title>
<polygon fill="none" stroke="black" points="2773,-324 2699,-324 2699,-288 2773,-288 2773,-324"/>
<text text-anchor="middle" x="2736" y="-302.4" font-family="Times Roman,serif" font-size="14.00">IAMUser</text>
</g>
<!-- IAMUserAccessKey -->
<g id="node14" class="node"><title>IAMUserAccessKey</title>
<polygon fill="none" stroke="black" points="2808,-252 2664,-252 2664,-216 2808,-216 2808,-252"/>
<text text-anchor="middle" x="2736" y="-230.4" font-family="Times Roman,serif" font-size="14.00">IAMUserAccessKey</text>
</g>
<!-- IAMUser&#45;&gt;IAMUserAccessKey -->
<g id="edge106" class="edge"><title>IAMUser&#45;&gt;IAMUserAccessKey</title>
<path fill="none" stroke="black" d="M2736,-287.831C2736,-280.131 2736,-270.974 2736,-262.417"/>
<polygon fill="black" stroke="black" points="2739.5,-262.413 2736,-252.413 2732.5,-262.413 2739.5,-262.413"/>
</g>
<!-- DomainControllerElasticIP -->
<g id="node24" class="node"><title>DomainControllerElasticIP</title>
<polygon fill="lightgrey" stroke="lightgrey" points="2822,-36 2650,-36 2638,-24 2638,-12 2650,-1.68935e-14 2822,-4.42277e-15 2834,-12 2834,-24 2822,-36"/>
<path fill="lightgrey" stroke="lightgrey" d="M2650,-36C2644,-36 2638,-30 2638,-24"/>
<path fill="lightgrey" stroke="lightgrey" d="M2638,-12C2638,-6 2644,-1.73285e-14 2650,-1.68935e-14"/>
<path fill="lightgrey" stroke="lightgrey" d="M2822,-4.42277e-15C2828,-3.98774e-15 2834,-6 2834,-12"/>
<path fill="lightgrey" stroke="lightgrey" d="M2834,-24C2834,-30 2828,-36 2822,-36"/>
<polyline fill="none" stroke="black" points="2822,-36 2650,-36 "/>
<path fill="none" stroke="black" d="M2650,-36C2644,-36 2638,-30 2638,-24"/>
<polyline fill="none" stroke="black" points="2638,-24 2638,-12 "/>
<path fill="none" stroke="black" d="M2638,-12C2638,-6 2644,-1.73285e-14 2650,-1.68935e-14"/>
<polyline fill="none" stroke="black" points="2650,-1.68935e-14 2822,-4.42277e-15 "/>
<path fill="none" stroke="black" d="M2822,-4.42277e-15C2828,-3.98774e-15 2834,-6 2834,-12"/>
<polyline fill="none" stroke="black" points="2834,-12 2834,-24 "/>
<path fill="none" stroke="black" d="M2834,-24C2834,-30 2828,-36 2822,-36"/>
<text text-anchor="middle" x="2736" y="-14.4" font-family="Times Roman,serif" font-size="14.00">DomainControllerElasticIP</text>
</g>
<!-- DomainControllerEndpoint&#45;&gt;DomainControllerElasticIP -->
<g id="edge110" class="edge"><title>DomainControllerEndpoint&#45;&gt;DomainControllerElasticIP</title>
<path fill="none" stroke="black" d="M2736,-71.8314C2736,-64.131 2736,-54.9743 2736,-46.4166"/>
<polygon fill="black" stroke="black" points="2739.5,-46.4132 2736,-36.4133 2732.5,-46.4133 2739.5,-46.4132"/>
</g>
<!-- DomainMemberSecurityGroupIngress7 -->
<g id="node5" class="node"><title>DomainMemberSecurityGroupIngress7</title>
<polygon fill="none" stroke="black" points="586,-180 302,-180 302,-144 586,-144 586,-180"/>
<text text-anchor="middle" x="444" y="-158.4" font-family="Times Roman,serif" font-size="14.00">DomainMemberSecurityGroupIngress7</text>
</g>
<!-- DomainMemberSecurityGroupIngress6 -->
<g id="node6" class="node"><title>DomainMemberSecurityGroupIngress6</title>
<polygon fill="none" stroke="black" points="888,-180 604,-180 604,-144 888,-144 888,-180"/>
<text text-anchor="middle" x="746" y="-158.4" font-family="Times Roman,serif" font-size="14.00">DomainMemberSecurityGroupIngress6</text>
</g>
<!-- DomainMemberSecurityGroupIngress5 -->
<g id="node7" class="node"><title>DomainMemberSecurityGroupIngress5</title>
<polygon fill="none" stroke="black" points="1190,-180 906,-180 906,-144 1190,-144 1190,-180"/>
<text text-anchor="middle" x="1048" y="-158.4" font-family="Times Roman,serif" font-size="14.00">DomainMemberSecurityGroupIngress5</text>
</g>
<!-- DomainMemberSecurityGroupIngress4 -->
<g id="node8" class="node"><title>DomainMemberSecurityGroupIngress4</title>
<polygon fill="none" stroke="black" points="1492,-180 1208,-180 1208,-144 1492,-144 1492,-180"/>
<text text-anchor="middle" x="1350" y="-158.4" font-family="Times Roman,serif" font-size="14.00">DomainMemberSecurityGroupIngress4</text>
</g>
<!-- DomainMemberSecurityGroupIngress3 -->
<g id="node9" class="node"><title>DomainMemberSecurityGroupIngress3</title>
<polygon fill="none" stroke="black" points="1794,-180 1510,-180 1510,-144 1794,-144 1794,-180"/>
<text text-anchor="middle" x="1652" y="-158.4" font-family="Times Roman,serif" font-size="14.00">DomainMemberSecurityGroupIngress3</text>
</g>
<!-- DomainMemberSecurityGroupIngress2 -->
<g id="node10" class="node"><title>DomainMemberSecurityGroupIngress2</title>
<polygon fill="none" stroke="black" points="2096,-180 1812,-180 1812,-144 2096,-144 2096,-180"/>
<text text-anchor="middle" x="1954" y="-158.4" font-family="Times Roman,serif" font-size="14.00">DomainMemberSecurityGroupIngress2</text>
</g>
<!-- DomainMemberSecurityGroupIngress1 -->
<g id="node11" class="node"><title>DomainMemberSecurityGroupIngress1</title>
<polygon fill="none" stroke="black" points="284,-180 1.13687e-13,-180 0,-144 284,-144 284,-180"/>
<text text-anchor="middle" x="142" y="-158.4" font-family="Times Roman,serif" font-size="14.00">DomainMemberSecurityGroupIngress1</text>
</g>
<!-- DomainControllerSecurityGroup -->
<g id="node13" class="node"><title>DomainControllerSecurityGroup</title>
<polygon fill="none" stroke="black" points="1314,-252 1076,-252 1076,-216 1314,-216 1314,-252"/>
<text text-anchor="middle" x="1195" y="-230.4" font-family="Times Roman,serif" font-size="14.00">DomainControllerSecurityGroup</text>
</g>
<!-- DomainControllerSecurityGroup&#45;&gt;DomainController -->
<g id="edge14" class="edge"><title>DomainControllerSecurityGroup&#45;&gt;DomainController</title>
<path fill="none" stroke="black" d="M1314.32,-228.425C1616.08,-214.326 2403.61,-177.53 2656.55,-165.712"/>
<polygon fill="black" stroke="black" points="2656.93,-169.198 2666.76,-165.235 2656.6,-162.206 2656.93,-169.198"/>
</g>
<!-- DomainControllerSecurityGroup&#45;&gt;DomainMemberSecurityGroupIngress7 -->
<g id="edge46" class="edge"><title>DomainControllerSecurityGroup&#45;&gt;DomainMemberSecurityGroupIngress7</title>
<path fill="none" stroke="black" d="M1075.94,-224.304C957.109,-214.393 769.021,-198.069 596.293,-180.12"/>
<polygon fill="black" stroke="black" points="596.56,-176.629 586.251,-179.073 595.834,-183.592 596.56,-176.629"/>
</g>
<!-- DomainControllerSecurityGroup&#45;&gt;DomainMemberSecurityGroupIngress6 -->
<g id="edge50" class="edge"><title>DomainControllerSecurityGroup&#45;&gt;DomainMemberSecurityGroupIngress6</title>
<path fill="none" stroke="black" d="M1082.57,-215.971C1017.46,-205.531 935.447,-192.379 868.677,-181.672"/>
<polygon fill="black" stroke="black" points="868.947,-178.171 858.519,-180.043 867.839,-185.082 868.947,-178.171"/>
</g>
<!-- DomainControllerSecurityGroup&#45;&gt;DomainMemberSecurityGroupIngress5 -->
<g id="edge54" class="edge"><title>DomainControllerSecurityGroup&#45;&gt;DomainMemberSecurityGroupIngress5</title>
<path fill="none" stroke="black" d="M1157.91,-215.831C1138.51,-206.33 1114.58,-194.612 1094.01,-184.537"/>
<polygon fill="black" stroke="black" points="1095.35,-181.293 1084.83,-180.038 1092.27,-187.58 1095.35,-181.293"/>
</g>
<!-- DomainControllerSecurityGroup&#45;&gt;DomainMemberSecurityGroupIngress4 -->
<g id="edge58" class="edge"><title>DomainControllerSecurityGroup&#45;&gt;DomainMemberSecurityGroupIngress4</title>
<path fill="none" stroke="black" d="M1234.11,-215.831C1254.75,-206.245 1280.25,-194.401 1302.07,-184.266"/>
<polygon fill="black" stroke="black" points="1303.57,-187.425 1311.17,-180.038 1300.62,-181.077 1303.57,-187.425"/>
</g>
<!-- DomainControllerSecurityGroup&#45;&gt;DomainMemberSecurityGroupIngress3 -->
<g id="edge62" class="edge"><title>DomainControllerSecurityGroup&#45;&gt;DomainMemberSecurityGroupIngress3</title>
<path fill="none" stroke="black" d="M1309.44,-215.971C1375.84,-205.509 1459.52,-192.325 1527.56,-181.606"/>
<polygon fill="black" stroke="black" points="1528.14,-185.057 1537.48,-180.043 1527.05,-178.142 1528.14,-185.057"/>
</g>
<!-- DomainControllerSecurityGroup&#45;&gt;DomainMemberSecurityGroupIngress2 -->
<g id="edge66" class="edge"><title>DomainControllerSecurityGroup&#45;&gt;DomainMemberSecurityGroupIngress2</title>
<path fill="none" stroke="black" d="M1314.22,-224.477C1434.54,-214.62 1625.97,-198.27 1801.54,-180.136"/>
<polygon fill="black" stroke="black" points="1802.16,-183.59 1811.75,-179.078 1801.44,-176.628 1802.16,-183.59"/>
</g>
<!-- DomainControllerSecurityGroup&#45;&gt;DomainMemberSecurityGroupIngress1 -->
<g id="edge70" class="edge"><title>DomainControllerSecurityGroup&#45;&gt;DomainMemberSecurityGroupIngress1</title>
<path fill="none" stroke="black" d="M1075.91,-229.106C905.192,-221.588 580.799,-205.44 294.411,-180.098"/>
<polygon fill="black" stroke="black" points="294.511,-176.593 284.24,-179.192 293.89,-183.565 294.511,-176.593"/>
</g>
<!-- IAMUserAccessKey&#45;&gt;DomainController -->
<g id="edge6" class="edge"><title>IAMUserAccessKey&#45;&gt;DomainController</title>
<path fill="none" stroke="black" d="M2718.14,-215.831C2715.89,-208.131 2715.23,-198.974 2716.15,-190.417"/>
<polygon fill="black" stroke="black" points="2719.63,-190.893 2718.07,-180.413 2712.75,-189.576 2719.63,-190.893"/>
</g>
<!-- IAMUserAccessKey&#45;&gt;DomainController -->
<g id="edge26" class="edge"><title>IAMUserAccessKey&#45;&gt;DomainController</title>
<path fill="none" stroke="black" d="M2741.95,-215.831C2742.7,-208.131 2742.92,-198.974 2742.62,-190.417"/>
<polygon fill="black" stroke="black" points="2746.11,-190.17 2741.98,-180.413 2739.12,-190.616 2746.11,-190.17"/>
</g>
<!-- IAMUserAccessKey&#45;&gt;DomainController -->
<g id="edge28" class="edge"><title>IAMUserAccessKey&#45;&gt;DomainController</title>
<path fill="none" stroke="black" d="M2753.86,-215.831C2756.11,-208.131 2756.77,-198.974 2755.85,-190.417"/>
<polygon fill="black" stroke="black" points="2759.25,-189.576 2753.93,-180.413 2752.37,-190.893 2759.25,-189.576"/>
</g>
<!-- IAMUserAccessKey&#45;&gt;DomainController -->
<g id="edge8" class="edge"><title>IAMUserAccessKey&#45;&gt;DomainController</title>
<path fill="none" stroke="black" d="M2730.05,-215.831C2729.3,-208.131 2729.08,-198.974 2729.38,-190.417"/>
<polygon fill="black" stroke="black" points="2732.88,-190.616 2730.02,-180.413 2725.89,-190.17 2732.88,-190.616"/>
</g>
<!-- DomainMemberSecurityGroup -->
<g id="node15" class="node"><title>DomainMemberSecurityGroup</title>
<polygon fill="none" stroke="black" points="1307,-324 1083,-324 1083,-288 1307,-288 1307,-324"/>
<text text-anchor="middle" x="1195" y="-302.4" font-family="Times Roman,serif" font-size="14.00">DomainMemberSecurityGroup</text>
</g>
<!-- DomainMemberSecurityGroup&#45;&gt;DomainMemberSecurityGroupIngress7 -->
<g id="edge44" class="edge"><title>DomainMemberSecurityGroup&#45;&gt;DomainMemberSecurityGroupIngress7</title>
<path fill="none" stroke="black" d="M1100.68,-287.948C1045.89,-277.46 975.542,-263.989 913,-252 787.367,-227.917 642.811,-200.172 547.776,-181.927"/>
<polygon fill="black" stroke="black" points="548.356,-178.474 537.876,-180.026 547.036,-185.349 548.356,-178.474"/>
</g>
<!-- DomainMemberSecurityGroup&#45;&gt;DomainMemberSecurityGroupIngress6 -->
<g id="edge48" class="edge"><title>DomainMemberSecurityGroup&#45;&gt;DomainMemberSecurityGroupIngress6</title>
<path fill="none" stroke="black" d="M1138.59,-287.908C1055.39,-261.224 900.108,-211.424 811.82,-183.109"/>
<polygon fill="black" stroke="black" points="812.772,-179.739 802.181,-180.018 810.634,-186.405 812.772,-179.739"/>
</g>
<!-- DomainMemberSecurityGroup&#45;&gt;DomainMemberSecurityGroupIngress5 -->
<g id="edge52" class="edge"><title>DomainMemberSecurityGroup&#45;&gt;DomainMemberSecurityGroupIngress5</title>
<path fill="none" stroke="black" d="M1119.43,-287.908C1099.85,-279.869 1080.51,-268.372 1067,-252 1052.85,-234.851 1048.47,-209.737 1047.42,-190.393"/>
<polygon fill="black" stroke="black" points="1050.92,-190.225 1047.14,-180.327 1043.92,-190.421 1050.92,-190.225"/>
</g>
<!-- DomainMemberSecurityGroup&#45;&gt;DomainMemberSecurityGroupIngress4 -->
<g id="edge56" class="edge"><title>DomainMemberSecurityGroup&#45;&gt;DomainMemberSecurityGroupIngress4</title>
<path fill="none" stroke="black" d="M1267.71,-287.974C1287.93,-279.878 1308.34,-268.333 1323,-252 1338.26,-234.997 1344.91,-209.659 1347.79,-190.196"/>
<polygon fill="black" stroke="black" points="1351.29,-190.431 1349.04,-180.078 1344.34,-189.574 1351.29,-190.431"/>
</g>
<!-- DomainMemberSecurityGroup&#45;&gt;DomainMemberSecurityGroupIngress3 -->
<g id="edge60" class="edge"><title>DomainMemberSecurityGroup&#45;&gt;DomainMemberSecurityGroupIngress3</title>
<path fill="none" stroke="black" d="M1252.42,-287.908C1337.19,-261.197 1495.47,-211.323 1585.28,-183.023"/>
<polygon fill="black" stroke="black" points="1586.33,-186.361 1594.82,-180.018 1584.23,-179.685 1586.33,-186.361"/>
</g>
<!-- DomainMemberSecurityGroup&#45;&gt;DomainMemberSecurityGroupIngress2 -->
<g id="edge64" class="edge"><title>DomainMemberSecurityGroup&#45;&gt;DomainMemberSecurityGroupIngress2</title>
<path fill="none" stroke="black" d="M1289.98,-287.981C1432.48,-260.944 1700.69,-210.059 1848.9,-181.94"/>
<polygon fill="black" stroke="black" points="1849.75,-185.341 1858.92,-180.039 1848.44,-178.464 1849.75,-185.341"/>
</g>
<!-- DomainMemberSecurityGroup&#45;&gt;DomainMemberSecurityGroupIngress1 -->
<g id="edge68" class="edge"><title>DomainMemberSecurityGroup&#45;&gt;DomainMemberSecurityGroupIngress1</title>
<path fill="none" stroke="black" d="M1082.56,-294.187C987.88,-283.955 848.927,-268.272 728,-252 566.062,-230.21 379.624,-200.836 261.343,-181.663"/>
<polygon fill="black" stroke="black" points="261.608,-178.16 251.177,-180.013 260.487,-185.07 261.608,-178.16"/>
</g>
<!-- DomainMemberSecurityGroup&#45;&gt;DomainControllerSecurityGroup -->
<g id="edge74" class="edge"><title>DomainMemberSecurityGroup&#45;&gt;DomainControllerSecurityGroup</title>
<path fill="none" stroke="black" d="M1105.71,-287.831C1092.88,-279.048 1090.37,-268.371 1098.2,-258.849"/>
<polygon fill="black" stroke="black" points="1100.57,-261.421 1105.72,-252.163 1095.92,-256.188 1100.57,-261.421"/>
</g>
<!-- DomainMemberSecurityGroup&#45;&gt;DomainControllerSecurityGroup -->
<g id="edge76" class="edge"><title>DomainMemberSecurityGroup&#45;&gt;DomainControllerSecurityGroup</title>
<path fill="none" stroke="black" d="M1117.62,-287.831C1106.71,-279.219 1104.41,-268.785 1110.72,-259.405"/>
<polygon fill="black" stroke="black" points="1113.26,-261.815 1117.63,-252.163 1108.19,-256.983 1113.26,-261.815"/>
</g>
<!-- DomainMemberSecurityGroup&#45;&gt;DomainControllerSecurityGroup -->
<g id="edge78" class="edge"><title>DomainMemberSecurityGroup&#45;&gt;DomainControllerSecurityGroup</title>
<path fill="none" stroke="black" d="M1129.52,-287.831C1120.57,-279.475 1118.47,-269.403 1123.23,-260.243"/>
<polygon fill="black" stroke="black" points="1126.14,-262.201 1129.53,-252.163 1120.62,-257.896 1126.14,-262.201"/>
</g>
<!-- DomainMemberSecurityGroup&#45;&gt;DomainControllerSecurityGroup -->
<g id="edge80" class="edge"><title>DomainMemberSecurityGroup&#45;&gt;DomainControllerSecurityGroup</title>
<path fill="none" stroke="black" d="M1141.43,-287.831C1134.3,-279.708 1132.48,-269.964 1135.97,-261.012"/>
<polygon fill="black" stroke="black" points="1138.99,-262.772 1141.22,-252.413 1133.02,-259.124 1138.99,-262.772"/>
</g>
<!-- DomainMemberSecurityGroup&#45;&gt;DomainControllerSecurityGroup -->
<g id="edge82" class="edge"><title>DomainMemberSecurityGroup&#45;&gt;DomainControllerSecurityGroup</title>
<path fill="none" stroke="black" d="M1153.33,-287.831C1147.91,-279.877 1146.44,-270.369 1148.92,-261.572"/>
<polygon fill="black" stroke="black" points="1152.14,-262.958 1153.17,-252.413 1145.79,-260.012 1152.14,-262.958"/>
</g>
<!-- DomainMemberSecurityGroup&#45;&gt;DomainControllerSecurityGroup -->
<g id="edge84" class="edge"><title>DomainMemberSecurityGroup&#45;&gt;DomainControllerSecurityGroup</title>
<path fill="none" stroke="black" d="M1165.24,-287.831C1161.44,-280.046 1160.36,-270.773 1161.98,-262.135"/>
<polygon fill="black" stroke="black" points="1165.37,-263.005 1165.12,-252.413 1158.71,-260.851 1165.37,-263.005"/>
</g>
<!-- DomainMemberSecurityGroup&#45;&gt;DomainControllerSecurityGroup -->
<g id="edge86" class="edge"><title>DomainMemberSecurityGroup&#45;&gt;DomainControllerSecurityGroup</title>
<path fill="none" stroke="black" d="M1177.14,-287.831C1174.89,-280.131 1174.23,-270.974 1175.15,-262.417"/>
<polygon fill="black" stroke="black" points="1178.63,-262.893 1177.07,-252.413 1171.75,-261.576 1178.63,-262.893"/>
</g>
<!-- DomainMemberSecurityGroup&#45;&gt;DomainControllerSecurityGroup -->
<g id="edge88" class="edge"><title>DomainMemberSecurityGroup&#45;&gt;DomainControllerSecurityGroup</title>
<path fill="none" stroke="black" d="M1189.05,-287.831C1188.3,-280.131 1188.08,-270.974 1188.38,-262.417"/>
<polygon fill="black" stroke="black" points="1191.88,-262.616 1189.02,-252.413 1184.89,-262.17 1191.88,-262.616"/>
</g>
<!-- DomainMemberSecurityGroup&#45;&gt;DomainControllerSecurityGroup -->
<g id="edge90" class="edge"><title>DomainMemberSecurityGroup&#45;&gt;DomainControllerSecurityGroup</title>
<path fill="none" stroke="black" d="M1200.95,-287.831C1201.7,-280.131 1201.92,-270.974 1201.62,-262.417"/>
<polygon fill="black" stroke="black" points="1205.11,-262.17 1200.98,-252.413 1198.12,-262.616 1205.11,-262.17"/>
</g>
<!-- DomainMemberSecurityGroup&#45;&gt;DomainControllerSecurityGroup -->
<g id="edge92" class="edge"><title>DomainMemberSecurityGroup&#45;&gt;DomainControllerSecurityGroup</title>
<path fill="none" stroke="black" d="M1212.86,-287.831C1215.11,-280.131 1215.77,-270.974 1214.85,-262.417"/>
<polygon fill="black" stroke="black" points="1218.25,-261.576 1212.93,-252.413 1211.37,-262.893 1218.25,-261.576"/>
</g>
<!-- DomainMemberSecurityGroup&#45;&gt;DomainControllerSecurityGroup -->
<g id="edge94" class="edge"><title>DomainMemberSecurityGroup&#45;&gt;DomainControllerSecurityGroup</title>
<path fill="none" stroke="black" d="M1224.76,-287.831C1228.56,-280.046 1229.64,-270.773 1228.02,-262.135"/>
<polygon fill="black" stroke="black" points="1231.29,-260.851 1224.88,-252.413 1224.63,-263.005 1231.29,-260.851"/>
</g>
<!-- DomainMemberSecurityGroup&#45;&gt;DomainControllerSecurityGroup -->
<g id="edge96" class="edge"><title>DomainMemberSecurityGroup&#45;&gt;DomainControllerSecurityGroup</title>
<path fill="none" stroke="black" d="M1236.67,-287.831C1242.09,-279.877 1243.56,-270.369 1241.08,-261.572"/>
<polygon fill="black" stroke="black" points="1244.21,-260.012 1236.83,-252.413 1237.86,-262.958 1244.21,-260.012"/>
</g>
<!-- DomainMemberSecurityGroup&#45;&gt;DomainControllerSecurityGroup -->
<g id="edge98" class="edge"><title>DomainMemberSecurityGroup&#45;&gt;DomainControllerSecurityGroup</title>
<path fill="none" stroke="black" d="M1248.57,-287.831C1255.7,-279.708 1257.52,-269.964 1254.03,-261.012"/>
<polygon fill="black" stroke="black" points="1256.98,-259.124 1248.78,-252.413 1251.01,-262.772 1256.98,-259.124"/>
</g>
<!-- DomainMemberSecurityGroup&#45;&gt;DomainControllerSecurityGroup -->
<g id="edge100" class="edge"><title>DomainMemberSecurityGroup&#45;&gt;DomainControllerSecurityGroup</title>
<path fill="none" stroke="black" d="M1260.48,-287.831C1269.43,-279.475 1271.53,-269.403 1266.77,-260.243"/>
<polygon fill="black" stroke="black" points="1269.38,-257.896 1260.47,-252.163 1263.86,-262.201 1269.38,-257.896"/>
</g>
<!-- DomainMemberSecurityGroup&#45;&gt;DomainControllerSecurityGroup -->
<g id="edge102" class="edge"><title>DomainMemberSecurityGroup&#45;&gt;DomainControllerSecurityGroup</title>
<path fill="none" stroke="black" d="M1272.38,-287.831C1283.29,-279.219 1285.59,-268.785 1279.28,-259.405"/>
<polygon fill="black" stroke="black" points="1281.81,-256.983 1272.37,-252.163 1276.74,-261.815 1281.81,-256.983"/>
</g>
<!-- DomainMemberSecurityGroup&#45;&gt;DomainControllerSecurityGroup -->
<g id="edge104" class="edge"><title>DomainMemberSecurityGroup&#45;&gt;DomainControllerSecurityGroup</title>
<path fill="none" stroke="black" d="M1284.29,-287.831C1297.12,-279.048 1299.63,-268.371 1291.8,-258.849"/>
<polygon fill="black" stroke="black" points="1294.08,-256.188 1284.28,-252.163 1289.43,-261.421 1294.08,-256.188"/>
</g>
<!-- DomainNetBIOSName -->
<g id="node17" class="node"><title>DomainNetBIOSName</title>
<polygon fill="lightgrey" stroke="lightgrey" points="2434,-396 2290,-396 2278,-384 2278,-372 2290,-360 2434,-360 2446,-372 2446,-384 2434,-396"/>
<path fill="lightgrey" stroke="lightgrey" d="M2290,-396C2284,-396 2278,-390 2278,-384"/>
<path fill="lightgrey" stroke="lightgrey" d="M2278,-372C2278,-366 2284,-360 2290,-360"/>
<path fill="lightgrey" stroke="lightgrey" d="M2434,-360C2440,-360 2446,-366 2446,-372"/>
<path fill="lightgrey" stroke="lightgrey" d="M2446,-384C2446,-390 2440,-396 2434,-396"/>
<polyline fill="none" stroke="black" points="2434,-396 2290,-396 "/>
<path fill="none" stroke="black" d="M2290,-396C2284,-396 2278,-390 2278,-384"/>
<polyline fill="none" stroke="black" points="2278,-384 2278,-372 "/>
<path fill="none" stroke="black" d="M2278,-372C2278,-366 2284,-360 2290,-360"/>
<polyline fill="none" stroke="black" points="2290,-360 2434,-360 "/>
<path fill="none" stroke="black" d="M2434,-360C2440,-360 2446,-366 2446,-372"/>
<polyline fill="none" stroke="black" points="2446,-372 2446,-384 "/>
<path fill="none" stroke="black" d="M2446,-384C2446,-390 2440,-396 2434,-396"/>
<text text-anchor="middle" x="2362" y="-374.4" font-family="Times Roman,serif" font-size="14.00">DomainNetBIOSName</text>
</g>
<!-- DomainNetBIOSName&#45;&gt;DomainController -->
<g id="edge38" class="edge"><title>DomainNetBIOSName&#45;&gt;DomainController</title>
<path fill="none" stroke="black" d="M2446.36,-371.453C2561.13,-361.897 2755.32,-343.171 2782,-324 2822.98,-294.555 2840.81,-260.487 2817,-216 2810.33,-203.53 2799.36,-193.442 2787.62,-185.511"/>
<polygon fill="black" stroke="black" points="2789.32,-182.447 2778.99,-180.115 2785.61,-188.383 2789.32,-182.447"/>
</g>
<!-- DomainAdmin -->
<g id="node23" class="node"><title>DomainAdmin</title>
<polygon fill="lightgrey" stroke="lightgrey" points="2168,-36 2080,-36 2068,-24 2068,-12 2080,-1.6241e-14 2168,-5.07531e-15 2180,-12 2180,-24 2168,-36"/>
<path fill="lightgrey" stroke="lightgrey" d="M2080,-36C2074,-36 2068,-30 2068,-24"/>
<path fill="lightgrey" stroke="lightgrey" d="M2068,-12C2068,-6 2074,-1.70023e-14 2080,-1.6241e-14"/>
<path fill="lightgrey" stroke="lightgrey" d="M2168,-5.07531e-15C2174,-4.31401e-15 2180,-6 2180,-12"/>
<path fill="lightgrey" stroke="lightgrey" d="M2180,-24C2180,-30 2174,-36 2168,-36"/>
<polyline fill="none" stroke="black" points="2168,-36 2080,-36 "/>
<path fill="none" stroke="black" d="M2080,-36C2074,-36 2068,-30 2068,-24"/>
<polyline fill="none" stroke="black" points="2068,-24 2068,-12 "/>
<path fill="none" stroke="black" d="M2068,-12C2068,-6 2074,-1.70023e-14 2080,-1.6241e-14"/>
<polyline fill="none" stroke="black" points="2080,-1.6241e-14 2168,-5.07531e-15 "/>
<path fill="none" stroke="black" d="M2168,-5.07531e-15C2174,-4.31401e-15 2180,-6 2180,-12"/>
<polyline fill="none" stroke="black" points="2180,-12 2180,-24 "/>
<path fill="none" stroke="black" d="M2180,-24C2180,-30 2174,-36 2168,-36"/>
<text text-anchor="middle" x="2124" y="-14.4" font-family="Times Roman,serif" font-size="14.00">DomainAdmin</text>
</g>
<!-- DomainNetBIOSName&#45;&gt;DomainAdmin -->
<g id="edge108" class="edge"><title>DomainNetBIOSName&#45;&gt;DomainAdmin</title>
<path fill="none" stroke="black" d="M2277.76,-362.797C2209.29,-345.015 2124,-308.01 2124,-234 2124,-234 2124,-234 2124,-162 2124,-121.876 2124,-75.4631 2124,-46.4177"/>
<polygon fill="black" stroke="black" points="2127.5,-46.1853 2124,-36.1854 2120.5,-46.1854 2127.5,-46.1853"/>
</g>
<!-- RestoreModePassword -->
<g id="node18" class="node"><title>RestoreModePassword</title>
<polygon fill="lightgrey" stroke="lightgrey" points="2985,-396 2839,-396 2827,-384 2827,-372 2839,-360 2985,-360 2997,-372 2997,-384 2985,-396"/>
<path fill="lightgrey" stroke="lightgrey" d="M2839,-396C2833,-396 2827,-390 2827,-384"/>
<path fill="lightgrey" stroke="lightgrey" d="M2827,-372C2827,-366 2833,-360 2839,-360"/>
<path fill="lightgrey" stroke="lightgrey" d="M2985,-360C2991,-360 2997,-366 2997,-372"/>
<path fill="lightgrey" stroke="lightgrey" d="M2997,-384C2997,-390 2991,-396 2985,-396"/>
<polyline fill="none" stroke="black" points="2985,-396 2839,-396 "/>
<path fill="none" stroke="black" d="M2839,-396C2833,-396 2827,-390 2827,-384"/>
<polyline fill="none" stroke="black" points="2827,-384 2827,-372 "/>
<path fill="none" stroke="black" d="M2827,-372C2827,-366 2833,-360 2839,-360"/>
<polyline fill="none" stroke="black" points="2839,-360 2985,-360 "/>
<path fill="none" stroke="black" d="M2985,-360C2991,-360 2997,-366 2997,-372"/>
<polyline fill="none" stroke="black" points="2997,-372 2997,-384 "/>
<path fill="none" stroke="black" d="M2997,-384C2997,-390 2991,-396 2985,-396"/>
<text text-anchor="middle" x="2912" y="-374.4" font-family="Times Roman,serif" font-size="14.00">RestoreModePassword</text>
</g>
<!-- RestoreModePassword&#45;&gt;DomainController -->
<g id="edge40" class="edge"><title>RestoreModePassword&#45;&gt;DomainController</title>
<path fill="none" stroke="black" d="M2912.61,-359.778C2912.72,-326.985 2908.28,-257.583 2872,-216 2857.08,-198.903 2836.02,-187.162 2814.91,-179.122"/>
<polygon fill="black" stroke="black" points="2815.83,-175.733 2805.23,-175.682 2813.48,-182.329 2815.83,-175.733"/>
</g>
<!-- DomainDNSName -->
<g id="node19" class="node"><title>DomainDNSName</title>
<polygon fill="lightgrey" stroke="lightgrey" points="3143,-396 3027,-396 3015,-384 3015,-372 3027,-360 3143,-360 3155,-372 3155,-384 3143,-396"/>
<path fill="lightgrey" stroke="lightgrey" d="M3027,-396C3021,-396 3015,-390 3015,-384"/>
<path fill="lightgrey" stroke="lightgrey" d="M3015,-372C3015,-366 3021,-360 3027,-360"/>
<path fill="lightgrey" stroke="lightgrey" d="M3143,-360C3149,-360 3155,-366 3155,-372"/>
<path fill="lightgrey" stroke="lightgrey" d="M3155,-384C3155,-390 3149,-396 3143,-396"/>
<polyline fill="none" stroke="black" points="3143,-396 3027,-396 "/>
<path fill="none" stroke="black" d="M3027,-396C3021,-396 3015,-390 3015,-384"/>
<polyline fill="none" stroke="black" points="3015,-384 3015,-372 "/>
<path fill="none" stroke="black" d="M3015,-372C3015,-366 3021,-360 3027,-360"/>
<polyline fill="none" stroke="black" points="3027,-360 3143,-360 "/>
<path fill="none" stroke="black" d="M3143,-360C3149,-360 3155,-366 3155,-372"/>
<polyline fill="none" stroke="black" points="3155,-372 3155,-384 "/>
<path fill="none" stroke="black" d="M3155,-384C3155,-390 3149,-396 3143,-396"/>
<text text-anchor="middle" x="3085" y="-374.4" font-family="Times Roman,serif" font-size="14.00">DomainDNSName</text>
</g>
<!-- DomainDNSName&#45;&gt;DomainController -->
<g id="edge36" class="edge"><title>DomainDNSName&#45;&gt;DomainController</title>
<path fill="none" stroke="black" d="M3068.51,-359.864C3037.65,-326.899 2967.75,-256.804 2896,-216 2870.92,-201.738 2841.48,-190.46 2814.73,-181.981"/>
<polygon fill="black" stroke="black" points="2815.6,-178.587 2805.01,-178.984 2813.54,-185.276 2815.6,-178.587"/>
</g>
<!-- InstanceType -->
<g id="node20" class="node"><title>InstanceType</title>
<polygon fill="lightgrey" stroke="lightgrey" points="3267,-396 3185,-396 3173,-384 3173,-372 3185,-360 3267,-360 3279,-372 3279,-384 3267,-396"/>
<path fill="lightgrey" stroke="lightgrey" d="M3185,-396C3179,-396 3173,-390 3173,-384"/>
<path fill="lightgrey" stroke="lightgrey" d="M3173,-372C3173,-366 3179,-360 3185,-360"/>
<path fill="lightgrey" stroke="lightgrey" d="M3267,-360C3273,-360 3279,-366 3279,-372"/>
<path fill="lightgrey" stroke="lightgrey" d="M3279,-384C3279,-390 3273,-396 3267,-396"/>
<polyline fill="none" stroke="black" points="3267,-396 3185,-396 "/>
<path fill="none" stroke="black" d="M3185,-396C3179,-396 3173,-390 3173,-384"/>
<polyline fill="none" stroke="black" points="3173,-384 3173,-372 "/>
<path fill="none" stroke="black" d="M3173,-372C3173,-366 3179,-360 3185,-360"/>
<polyline fill="none" stroke="black" points="3185,-360 3267,-360 "/>
<path fill="none" stroke="black" d="M3267,-360C3273,-360 3279,-366 3279,-372"/>
<polyline fill="none" stroke="black" points="3279,-372 3279,-384 "/>
<path fill="none" stroke="black" d="M3279,-384C3279,-390 3273,-396 3267,-396"/>
<text text-anchor="middle" x="3226" y="-374.4" font-family="Times Roman,serif" font-size="14.00">InstanceType</text>
</g>
<!-- InstanceType&#45;&gt;DomainController -->
<g id="edge16" class="edge"><title>InstanceType&#45;&gt;DomainController</title>
<path fill="none" stroke="black" d="M3193.45,-359.746C3139.66,-326.902 3028.75,-257.42 2927,-216 2891.22,-201.437 2850.27,-189.589 2815.43,-180.741"/>
<polygon fill="black" stroke="black" points="2815.86,-177.24 2805.31,-178.209 2814.16,-184.031 2815.86,-177.24"/>
</g>
<!-- InstanceType&#45;&gt;DomainController -->
<g id="edge20" class="edge"><title>InstanceType&#45;&gt;DomainController</title>
<path fill="none" stroke="black" d="M3204.04,-359.746C3157.66,-326.902 3046.75,-257.42 2945,-216 2903.54,-199.125 2855.13,-185.895 2815.28,-176.754"/>
<polygon fill="black" stroke="black" points="2815.87,-173.299 2805.35,-174.519 2814.33,-180.128 2815.87,-173.299"/>
</g>
<!-- KeyPairName -->
<g id="node21" class="node"><title>KeyPairName</title>
<polygon fill="lightgrey" stroke="lightgrey" points="2797,-396 2715,-396 2703,-384 2703,-372 2715,-360 2797,-360 2809,-372 2809,-384 2797,-396"/>
<path fill="lightgrey" stroke="lightgrey" d="M2715,-396C2709,-396 2703,-390 2703,-384"/>
<path fill="lightgrey" stroke="lightgrey" d="M2703,-372C2703,-366 2709,-360 2715,-360"/>
<path fill="lightgrey" stroke="lightgrey" d="M2797,-360C2803,-360 2809,-366 2809,-372"/>
<path fill="lightgrey" stroke="lightgrey" d="M2809,-384C2809,-390 2803,-396 2797,-396"/>
<polyline fill="none" stroke="black" points="2797,-396 2715,-396 "/>
<path fill="none" stroke="black" d="M2715,-396C2709,-396 2703,-390 2703,-384"/>
<polyline fill="none" stroke="black" points="2703,-384 2703,-372 "/>
<path fill="none" stroke="black" d="M2703,-372C2703,-366 2709,-360 2715,-360"/>
<polyline fill="none" stroke="black" points="2715,-360 2797,-360 "/>
<path fill="none" stroke="black" d="M2797,-360C2803,-360 2809,-366 2809,-372"/>
<polyline fill="none" stroke="black" points="2809,-372 2809,-384 "/>
<path fill="none" stroke="black" d="M2809,-384C2809,-390 2803,-396 2797,-396"/>
<text text-anchor="middle" x="2756" y="-374.4" font-family="Times Roman,serif" font-size="14.00">KeyPairName</text>
</g>
<!-- KeyPairName&#45;&gt;DomainController -->
<g id="edge12" class="edge"><title>KeyPairName&#45;&gt;DomainController</title>
<path fill="none" stroke="black" d="M2808.66,-359.924C2824.82,-351.618 2840.76,-339.963 2850,-324 2874.04,-282.457 2875.67,-256.561 2850,-216 2841.42,-202.437 2828.41,-192.215 2814.2,-184.531"/>
<polygon fill="black" stroke="black" points="2815.75,-181.39 2805.24,-180.068 2812.63,-187.657 2815.75,-181.39"/>
</g>
<!-- DomainAdminPassword -->
<g id="node25" class="node"><title>DomainAdminPassword</title>
<polygon fill="lightgrey" stroke="lightgrey" points="3018,-36 2864,-36 2852,-24 2852,-12 2864,-1.68055e-14 3018,-4.51075e-15 3030,-12 3030,-24 3018,-36"/>
<path fill="lightgrey" stroke="lightgrey" d="M2864,-36C2858,-36 2852,-30 2852,-24"/>
<path fill="lightgrey" stroke="lightgrey" d="M2852,-12C2852,-6 2858,-1.72846e-14 2864,-1.68055e-14"/>
<path fill="lightgrey" stroke="lightgrey" d="M3018,-4.51075e-15C3024,-4.03173e-15 3030,-6 3030,-12"/>
<path fill="lightgrey" stroke="lightgrey" d="M3030,-24C3030,-30 3024,-36 3018,-36"/>
<polyline fill="none" stroke="black" points="3018,-36 2864,-36 "/>
<path fill="none" stroke="black" d="M2864,-36C2858,-36 2852,-30 2852,-24"/>
<polyline fill="none" stroke="black" points="2852,-24 2852,-12 "/>
<path fill="none" stroke="black" d="M2852,-12C2852,-6 2858,-1.72846e-14 2864,-1.68055e-14"/>
<polyline fill="none" stroke="black" points="2864,-1.68055e-14 3018,-4.51075e-15 "/>
<path fill="none" stroke="black" d="M3018,-4.51075e-15C3024,-4.03173e-15 3030,-6 3030,-12"/>
<polyline fill="none" stroke="black" points="3030,-12 3030,-24 "/>
<path fill="none" stroke="black" d="M3030,-24C3030,-30 3024,-36 3018,-36"/>
<text text-anchor="middle" x="2941" y="-14.4" font-family="Times Roman,serif" font-size="14.00">DomainAdminPassword</text>
</g>
<!-- AWS::StackName -->
<g id="node26" class="node"><title>AWS::StackName</title>
<polygon fill="none" stroke="black" points="2524,-252 2388,-252 2388,-216 2524,-216 2524,-252"/>
<text text-anchor="middle" x="2456" y="-230.4" font-family="Times Roman,serif" font-size="14.00">AWS::StackName</text>
</g>
<!-- AWS::StackName&#45;&gt;DomainController -->
<g id="edge4" class="edge"><title>AWS::StackName&#45;&gt;DomainController</title>
<path fill="none" stroke="black" d="M2514.41,-215.924C2555.82,-204.709 2611.61,-190.377 2656.96,-179.308"/>
<polygon fill="black" stroke="black" points="2657.87,-182.688 2666.77,-176.926 2656.22,-175.886 2657.87,-182.688"/>
</g>
<!-- AWS::StackName&#45;&gt;DomainController -->
<g id="edge30" class="edge"><title>AWS::StackName&#45;&gt;DomainController</title>
<path fill="none" stroke="black" d="M2524.12,-219.343C2567.84,-208.793 2624.16,-194.415 2667.87,-182.696"/>
<polygon fill="black" stroke="black" points="2668.81,-186.066 2677.56,-180.085 2666.99,-179.307 2668.81,-186.066"/>
</g>
<!-- AWS::StackName&#45;&gt;DomainController -->
<g id="edge22" class="edge"><title>AWS::StackName&#45;&gt;DomainController</title>
<path fill="none" stroke="black" d="M2524.14,-216.479C2564.15,-206.19 2614.91,-193.138 2656.71,-182.389"/>
<polygon fill="black" stroke="black" points="2657.77,-185.731 2666.58,-179.85 2656.03,-178.951 2657.77,-185.731"/>
</g>
<!-- AWS::Region -->
<g id="node30" class="node"><title>AWS::Region</title>
<polygon fill="none" stroke="black" points="2646,-252 2542,-252 2542,-216 2646,-216 2646,-252"/>
<text text-anchor="middle" x="2594" y="-230.4" font-family="Times Roman,serif" font-size="14.00">AWS::Region</text>
</g>
<!-- AWS::Region&#45;&gt;DomainController -->
<g id="edge24" class="edge"><title>AWS::Region&#45;&gt;DomainController</title>
<path fill="none" stroke="black" d="M2611.98,-215.831C2628.08,-206.245 2651.1,-194.401 2673.21,-184.266"/>
<polygon fill="black" stroke="black" points="2674.92,-187.332 2682.61,-180.038 2672.05,-180.949 2674.92,-187.332"/>
</g>
<!-- AWS::Region&#45;&gt;DomainController -->
<g id="edge32" class="edge"><title>AWS::Region&#45;&gt;DomainController</title>
<path fill="none" stroke="black" d="M2646.01,-216.571C2667.52,-207.144 2691.2,-195.377 2709.34,-185.186"/>
<polygon fill="black" stroke="black" points="2711.37,-188.055 2718.27,-180.021 2707.86,-181.994 2711.37,-188.055"/>
</g>
<!-- AWS::Region&#45;&gt;DomainController -->
<g id="edge10" class="edge"><title>AWS::Region&#45;&gt;DomainController</title>
<path fill="none" stroke="black" d="M2623.88,-215.831C2641.69,-206.33 2664.68,-194.612 2685.24,-184.537"/>
<polygon fill="black" stroke="black" points="2687.03,-187.561 2694.49,-180.038 2683.96,-181.267 2687.03,-187.561"/>
</g>
<!-- AWS::Region&#45;&gt;DomainController -->
<g id="edge18" class="edge"><title>AWS::Region&#45;&gt;DomainController</title>
<path fill="none" stroke="black" d="M2635.78,-215.831C2655.2,-206.452 2678.09,-194.911 2697.13,-184.924"/>
<polygon fill="black" stroke="black" points="2698.93,-187.931 2706.13,-180.163 2695.65,-181.743 2698.93,-187.931"/>
</g>
</g>
</svg>
