<?xml version="1.0" encoding="UTF-8" standalone="no"?>
<!DOCTYPE svg PUBLIC "-//W3C//DTD SVG 1.1//EN"
 "http://www.w3.org/Graphics/SVG/1.1/DTD/svg11.dtd">
<!-- Generated by graphviz version 2.26.3 (20100126.1600)
 -->
<!-- Title: AWS CloudFormation Sample Template WordPress_Multi_AZ: WordPress is web software you can use to create a beautiful website or blog. This template installs a highly&#45;available, scalable WordPress deployment using a multi&#45;az Amazon RDS database instance for storage. It demonstrates using the AWS CloudFormation bootstrap scripts to install packages and files at instance launch time. **WARNING** This template creates an Amazon EC2 instance, an Elastic Load Balancer and an Amazon RDS database instance. You will be billed for the AWS resources used if you create a stack from this template. Pages: 1 -->
<svg width="1332pt" height="548pt"
 viewBox="0.00 0.00 1332.00 548.00" xmlns="http://www.w3.org/2000/svg" xmlns:xlink="http://www.w3.org/1999/xlink">
<g id="graph1" class="graph" transform="scale(1 1) rotate(0) translate(4 544)">
<title>AWS CloudFormation Sample Template WordPress_Multi_AZ: WordPress is web software you can use to create a beautiful website or blog. This template installs a highly&#45;available, scalable WordPress deployment using a multi&#45;az Amazon RDS database instance for storage. It demonstrates using the AWS CloudFormation bootstrap scripts to install packages and files at instance launch time. **WARNING** This template creates an Amazon EC2 instance, an Elastic Load Balancer and an Amazon RDS database instance. You will be billed for the AWS resources used if you create a stack from this template.</title>
<polygon fill="white" stroke="white" points="-4,5 -4,-544 1329,-544 1329,5 -4,5"/>
<!-- DBSecurityGroup -->
<g id="node1" class="node"><title>DBSecurityGroup</title>
<polygon fill="none" stroke="black" points="934,-324 798,-324 798,-288 934,-288 934,-324"/>
<text text-anchor="middle" x="866" y="-302.4" font-family="Times Roman,serif" font-size="14.00">DBSecurityGroup</text>
</g>
<!-- DBInstance -->
<g id="node7" class="node"><title>DBInstance</title>
<polygon fill="none" stroke="black" points="607,-252 511,-252 511,-216 607,-216 607,-252"/>
<text text-anchor="middle" x="559" y="-230.4" font-family="Times Roman,serif" font-size="14.00">DBInstance</text>
</g>
<!-- DBSecurityGroup&#45;&gt;DBInstance -->
<g id="edge46" class="edge"><title>DBSecurityGroup&#45;&gt;DBInstance</title>
<path fill="none" stroke="black" d="M797.867,-290.021C743.713,-277.32 668.773,-259.745 617.354,-247.686"/>
<polygon fill="black" stroke="black" points="617.931,-244.226 607.396,-245.35 616.333,-251.041 617.931,-244.226"/>
</g>
<!-- WebServerSecurityGroup -->
<g id="node2" class="node"><title>WebServerSecurityGroup</title>
<polygon fill="none" stroke="black" points="996,-396 804,-396 804,-360 996,-360 996,-396"/>
<text text-anchor="middle" x="900" y="-374.4" font-family="Times Roman,serif" font-size="14.00">WebServerSecurityGroup</text>
</g>
<!-- WebServerSecurityGroup&#45;&gt;DBSecurityGroup -->
<g id="edge4" class="edge"><title>WebServerSecurityGroup&#45;&gt;DBSecurityGroup</title>
<path fill="none" stroke="black" d="M891.42,-359.831C887.664,-351.877 883.174,-342.369 879.02,-333.572"/>
<polygon fill="black" stroke="black" points="882.13,-331.961 874.695,-324.413 875.8,-334.95 882.13,-331.961"/>
</g>
<!-- LaunchConfig -->
<g id="node4" class="node"><title>LaunchConfig</title>
<polygon fill="none" stroke="black" points="816,-180 706,-180 706,-144 816,-144 816,-180"/>
<text text-anchor="middle" x="761" y="-158.4" font-family="Times Roman,serif" font-size="14.00">LaunchConfig</text>
</g>
<!-- WebServerSecurityGroup&#45;&gt;LaunchConfig -->
<g id="edge26" class="edge"><title>WebServerSecurityGroup&#45;&gt;LaunchConfig</title>
<path fill="none" stroke="black" d="M919.496,-359.966C928.51,-350.289 938.255,-337.576 943,-324 959.518,-276.741 947.662,-250.09 911,-216 887.701,-194.336 855.083,-181.239 826.213,-173.385"/>
<polygon fill="black" stroke="black" points="826.734,-169.905 816.178,-170.819 825,-176.687 826.734,-169.905"/>
</g>
<!-- WebServerGroup -->
<g id="node3" class="node"><title>WebServerGroup</title>
<polygon fill="none" stroke="black" points="1316,-108 1180,-108 1180,-72 1316,-72 1316,-108"/>
<text text-anchor="middle" x="1248" y="-86.4" font-family="Times Roman,serif" font-size="14.00">WebServerGroup</text>
</g>
<!-- LaunchConfig&#45;&gt;WebServerGroup -->
<g id="edge14" class="edge"><title>LaunchConfig&#45;&gt;WebServerGroup</title>
<path fill="none" stroke="black" d="M816.177,-154.186C888.836,-143.851 1020.56,-124.961 1133,-108 1144.86,-106.21 1157.41,-104.283 1169.69,-102.377"/>
<polygon fill="black" stroke="black" points="1170.57,-105.782 1179.91,-100.785 1169.49,-98.8652 1170.57,-105.782"/>
</g>
<!-- ElasticLoadBalancer -->
<g id="node5" class="node"><title>ElasticLoadBalancer</title>
<polygon fill="none" stroke="black" points="1217,-468 1063,-468 1063,-432 1217,-432 1217,-468"/>
<text text-anchor="middle" x="1140" y="-446.4" font-family="Times Roman,serif" font-size="14.00">ElasticLoadBalancer</text>
</g>
<!-- ElasticLoadBalancer&#45;&gt;WebServerSecurityGroup -->
<g id="edge6" class="edge"><title>ElasticLoadBalancer&#45;&gt;WebServerSecurityGroup</title>
<path fill="none" stroke="black" d="M1073.8,-431.924C1039.59,-421.953 998.053,-409.519 964.139,-399.104"/>
<polygon fill="black" stroke="black" points="964.92,-395.682 954.333,-396.083 962.859,-402.372 964.92,-395.682"/>
</g>
<!-- ElasticLoadBalancer&#45;&gt;WebServerSecurityGroup -->
<g id="edge8" class="edge"><title>ElasticLoadBalancer&#45;&gt;WebServerSecurityGroup</title>
<path fill="none" stroke="black" d="M1085.69,-431.924C1053.29,-421.91 1011.72,-409.412 976.097,-398.97"/>
<polygon fill="black" stroke="black" points="976.802,-395.529 966.221,-396.083 974.838,-402.248 976.802,-395.529"/>
</g>
<!-- ElasticLoadBalancer&#45;&gt;WebServerGroup -->
<g id="edge16" class="edge"><title>ElasticLoadBalancer&#45;&gt;WebServerGroup</title>
<path fill="none" stroke="black" d="M1153.02,-431.912C1170.67,-405.566 1200,-354.479 1200,-306 1200,-306 1200,-306 1200,-234 1200,-191.804 1218.78,-146.058 1232.84,-117.71"/>
<polygon fill="black" stroke="black" points="1236.15,-118.94 1237.58,-108.443 1229.91,-115.752 1236.15,-118.94"/>
</g>
<!-- WebsiteURL -->
<g id="node21" class="node"><title>WebsiteURL</title>
<polygon fill="lightgrey" stroke="lightgrey" points="1190,-36 1114,-36 1102,-24 1102,-12 1114,-1.60583e-14 1190,-5.25802e-15 1202,-12 1202,-24 1190,-36"/>
<path fill="lightgrey" stroke="lightgrey" d="M1114,-36C1108,-36 1102,-30 1102,-24"/>
<path fill="lightgrey" stroke="lightgrey" d="M1102,-12C1102,-6 1108,-1.69109e-14 1114,-1.60583e-14"/>
<path fill="lightgrey" stroke="lightgrey" d="M1190,-5.25802e-15C1196,-4.40536e-15 1202,-6 1202,-12"/>
<path fill="lightgrey" stroke="lightgrey" d="M1202,-24C1202,-30 1196,-36 1190,-36"/>
<polyline fill="none" stroke="black" points="1190,-36 1114,-36 "/>
<path fill="none" stroke="black" d="M1114,-36C1108,-36 1102,-30 1102,-24"/>
<polyline fill="none" stroke="black" points="1102,-24 1102,-12 "/>
<path fill="none" stroke="black" d="M1102,-12C1102,-6 1108,-1.69109e-14 1114,-1.60583e-14"/>
<polyline fill="none" stroke="black" points="1114,-1.60583e-14 1190,-5.25802e-15 "/>
<path fill="none" stroke="black" d="M1190,-5.25802e-15C1196,-4.40536e-15 1202,-6 1202,-12"/>
<polyline fill="none" stroke="black" points="1202,-12 1202,-24 "/>
<path fill="none" stroke="black" d="M1202,-24C1202,-30 1196,-36 1190,-36"/>
<text text-anchor="middle" x="1152" y="-14.4" font-family="Times Roman,serif" font-size="14.00">WebsiteURL</text>
</g>
<!-- ElasticLoadBalancer&#45;&gt;WebsiteURL -->
<g id="edge58" class="edge"><title>ElasticLoadBalancer&#45;&gt;WebsiteURL</title>
<path fill="none" stroke="black" d="M1142.49,-431.855C1146,-404.59 1152,-351.407 1152,-306 1152,-306 1152,-306 1152,-162 1152,-121.876 1152,-75.4631 1152,-46.4177"/>
<polygon fill="black" stroke="black" points="1155.5,-46.1853 1152,-36.1854 1148.5,-46.1854 1155.5,-46.1853"/>
</g>
<!-- WaitCondition -->
<g id="node6" class="node"><title>WaitCondition</title>
<polygon fill="none" stroke="black" points="1124,-108 1010,-108 1010,-72 1124,-72 1124,-108"/>
<text text-anchor="middle" x="1067" y="-86.4" font-family="Times Roman,serif" font-size="14.00">WaitCondition</text>
</g>
<!-- DBInstance&#45;&gt;LaunchConfig -->
<g id="edge40" class="edge"><title>DBInstance&#45;&gt;LaunchConfig</title>
<path fill="none" stroke="black" d="M607.127,-216.846C635.242,-206.825 670.969,-194.09 700.918,-183.415"/>
<polygon fill="black" stroke="black" points="702.178,-186.682 710.422,-180.028 699.828,-180.088 702.178,-186.682"/>
</g>
<!-- WaitHandle -->
<g id="node8" class="node"><title>WaitHandle</title>
<polygon fill="none" stroke="black" points="1124,-252 1028,-252 1028,-216 1124,-216 1124,-252"/>
<text text-anchor="middle" x="1076" y="-230.4" font-family="Times Roman,serif" font-size="14.00">WaitHandle</text>
</g>
<!-- WaitHandle&#45;&gt;LaunchConfig -->
<g id="edge22" class="edge"><title>WaitHandle&#45;&gt;LaunchConfig</title>
<path fill="none" stroke="black" d="M1027.69,-219.609C1023.08,-218.345 1018.46,-217.121 1014,-216 950.503,-200.029 877.28,-184.736 826,-174.528"/>
<polygon fill="black" stroke="black" points="826.535,-171.067 816.046,-172.556 825.174,-177.933 826.535,-171.067"/>
</g>
<!-- WaitHandle&#45;&gt;WaitCondition -->
<g id="edge42" class="edge"><title>WaitHandle&#45;&gt;WaitCondition</title>
<path fill="none" stroke="black" d="M1074.86,-215.762C1073.33,-191.201 1070.58,-147.247 1068.77,-118.354"/>
<polygon fill="black" stroke="black" points="1072.25,-117.852 1068.13,-108.09 1065.26,-118.288 1072.25,-117.852"/>
</g>
<!-- DBUsername -->
<g id="node10" class="node"><title>DBUsername</title>
<polygon fill="lightgrey" stroke="lightgrey" points="822,-540 740,-540 728,-528 728,-516 740,-504 822,-504 834,-516 834,-528 822,-540"/>
<path fill="lightgrey" stroke="lightgrey" d="M740,-540C734,-540 728,-534 728,-528"/>
<path fill="lightgrey" stroke="lightgrey" d="M728,-516C728,-510 734,-504 740,-504"/>
<path fill="lightgrey" stroke="lightgrey" d="M822,-504C828,-504 834,-510 834,-516"/>
<path fill="lightgrey" stroke="lightgrey" d="M834,-528C834,-534 828,-540 822,-540"/>
<polyline fill="none" stroke="black" points="822,-540 740,-540 "/>
<path fill="none" stroke="black" d="M740,-540C734,-540 728,-534 728,-528"/>
<polyline fill="none" stroke="black" points="728,-528 728,-516 "/>
<path fill="none" stroke="black" d="M728,-516C728,-510 734,-504 740,-504"/>
<polyline fill="none" stroke="black" points="740,-504 822,-504 "/>
<path fill="none" stroke="black" d="M822,-504C828,-504 834,-510 834,-516"/>
<polyline fill="none" stroke="black" points="834,-516 834,-528 "/>
<path fill="none" stroke="black" d="M834,-528C834,-534 828,-540 822,-540"/>
<text text-anchor="middle" x="781" y="-518.4" font-family="Times Roman,serif" font-size="14.00">DBUsername</text>
</g>
<!-- DBUsername&#45;&gt;LaunchConfig -->
<g id="edge36" class="edge"><title>DBUsername&#45;&gt;LaunchConfig</title>
<path fill="none" stroke="black" d="M763.395,-503.836C754.65,-493.934 744.576,-481.058 738,-468 719.379,-431.026 714,-419.398 714,-378 714,-378 714,-378 714,-306 714,-263.656 732.593,-217.612 746.391,-189.273"/>
<polygon fill="black" stroke="black" points="749.676,-190.53 751.033,-180.023 743.419,-187.391 749.676,-190.53"/>
</g>
<!-- DBUsername&#45;&gt;DBInstance -->
<g id="edge48" class="edge"><title>DBUsername&#45;&gt;DBInstance</title>
<path fill="none" stroke="black" d="M746.934,-503.97C731.397,-494.637 713.5,-482.216 700,-468 635.914,-400.513 641.576,-367.385 593,-288 587.593,-279.163 581.599,-269.576 576.169,-260.967"/>
<polygon fill="black" stroke="black" points="579.066,-259.001 570.762,-252.421 573.151,-262.744 579.066,-259.001"/>
</g>
<!-- DBClass -->
<g id="node11" class="node"><title>DBClass</title>
<polygon fill="lightgrey" stroke="lightgrey" points="372,-540 324,-540 312,-528 312,-516 324,-504 372,-504 384,-516 384,-528 372,-540"/>
<path fill="lightgrey" stroke="lightgrey" d="M324,-540C318,-540 312,-534 312,-528"/>
<path fill="lightgrey" stroke="lightgrey" d="M312,-516C312,-510 318,-504 324,-504"/>
<path fill="lightgrey" stroke="lightgrey" d="M372,-504C378,-504 384,-510 384,-516"/>
<path fill="lightgrey" stroke="lightgrey" d="M384,-528C384,-534 378,-540 372,-540"/>
<polyline fill="none" stroke="black" points="372,-540 324,-540 "/>
<path fill="none" stroke="black" d="M324,-540C318,-540 312,-534 312,-528"/>
<polyline fill="none" stroke="black" points="312,-528 312,-516 "/>
<path fill="none" stroke="black" d="M312,-516C312,-510 318,-504 324,-504"/>
<polyline fill="none" stroke="black" points="324,-504 372,-504 "/>
<path fill="none" stroke="black" d="M372,-504C378,-504 384,-510 384,-516"/>
<polyline fill="none" stroke="black" points="384,-516 384,-528 "/>
<path fill="none" stroke="black" d="M384,-528C384,-534 378,-540 372,-540"/>
<text text-anchor="middle" x="348" y="-518.4" font-family="Times Roman,serif" font-size="14.00">DBClass</text>
</g>
<!-- DBClass&#45;&gt;DBInstance -->
<g id="edge54" class="edge"><title>DBClass&#45;&gt;DBInstance</title>
<path fill="none" stroke="black" d="M361.199,-503.984C397.241,-454.789 497.461,-317.997 539.765,-260.254"/>
<polygon fill="black" stroke="black" points="542.719,-262.144 545.806,-252.009 537.073,-258.007 542.719,-262.144"/>
</g>
<!-- DBAllocatedStorage -->
<g id="node12" class="node"><title>DBAllocatedStorage</title>
<polygon fill="lightgrey" stroke="lightgrey" points="544,-540 414,-540 402,-528 402,-516 414,-504 544,-504 556,-516 556,-528 544,-540"/>
<path fill="lightgrey" stroke="lightgrey" d="M414,-540C408,-540 402,-534 402,-528"/>
<path fill="lightgrey" stroke="lightgrey" d="M402,-516C402,-510 408,-504 414,-504"/>
<path fill="lightgrey" stroke="lightgrey" d="M544,-504C550,-504 556,-510 556,-516"/>
<path fill="lightgrey" stroke="lightgrey" d="M556,-528C556,-534 550,-540 544,-540"/>
<polyline fill="none" stroke="black" points="544,-540 414,-540 "/>
<path fill="none" stroke="black" d="M414,-540C408,-540 402,-534 402,-528"/>
<polyline fill="none" stroke="black" points="402,-528 402,-516 "/>
<path fill="none" stroke="black" d="M402,-516C402,-510 408,-504 414,-504"/>
<polyline fill="none" stroke="black" points="414,-504 544,-504 "/>
<path fill="none" stroke="black" d="M544,-504C550,-504 556,-510 556,-516"/>
<polyline fill="none" stroke="black" points="556,-516 556,-528 "/>
<path fill="none" stroke="black" d="M556,-528C556,-534 550,-540 544,-540"/>
<text text-anchor="middle" x="479" y="-518.4" font-family="Times Roman,serif" font-size="14.00">DBAllocatedStorage</text>
</g>
<!-- DBAllocatedStorage&#45;&gt;DBInstance -->
<g id="edge52" class="edge"><title>DBAllocatedStorage&#45;&gt;DBInstance</title>
<path fill="none" stroke="black" d="M484.004,-503.984C497.558,-455.193 535.045,-320.238 551.308,-261.693"/>
<polygon fill="black" stroke="black" points="554.693,-262.581 553.998,-252.009 547.949,-260.707 554.693,-262.581"/>
</g>
<!-- DBName -->
<g id="node13" class="node"><title>DBName</title>
<polygon fill="lightgrey" stroke="lightgrey" points="162,-540 110,-540 98,-528 98,-516 110,-504 162,-504 174,-516 174,-528 162,-540"/>
<path fill="lightgrey" stroke="lightgrey" d="M110,-540C104,-540 98,-534 98,-528"/>
<path fill="lightgrey" stroke="lightgrey" d="M98,-516C98,-510 104,-504 110,-504"/>
<path fill="lightgrey" stroke="lightgrey" d="M162,-504C168,-504 174,-510 174,-516"/>
<path fill="lightgrey" stroke="lightgrey" d="M174,-528C174,-534 168,-540 162,-540"/>
<polyline fill="none" stroke="black" points="162,-540 110,-540 "/>
<path fill="none" stroke="black" d="M110,-540C104,-540 98,-534 98,-528"/>
<polyline fill="none" stroke="black" points="98,-528 98,-516 "/>
<path fill="none" stroke="black" d="M98,-516C98,-510 104,-504 110,-504"/>
<polyline fill="none" stroke="black" points="110,-504 162,-504 "/>
<path fill="none" stroke="black" d="M162,-504C168,-504 174,-510 174,-516"/>
<polyline fill="none" stroke="black" points="174,-516 174,-528 "/>
<path fill="none" stroke="black" d="M174,-528C174,-534 168,-540 162,-540"/>
<text text-anchor="middle" x="136" y="-518.4" font-family="Times Roman,serif" font-size="14.00">DBName</text>
</g>
<!-- DBName&#45;&gt;LaunchConfig -->
<g id="edge34" class="edge"><title>DBName&#45;&gt;LaunchConfig</title>
<path fill="none" stroke="black" d="M139.108,-503.878C143.502,-476.642 151,-423.495 151,-378 151,-378 151,-378 151,-306 151,-194.999 538.434,-169.464 695.767,-163.671"/>
<polygon fill="black" stroke="black" points="695.92,-167.167 705.791,-163.317 695.673,-160.172 695.92,-167.167"/>
</g>
<!-- DBName&#45;&gt;DBInstance -->
<g id="edge56" class="edge"><title>DBName&#45;&gt;DBInstance</title>
<path fill="none" stroke="black" d="M154.501,-503.949C174.084,-485.181 206.218,-455.341 236,-432 325.65,-361.739 349.421,-345.062 448,-288 467.525,-276.698 489.763,-265.56 509.18,-256.361"/>
<polygon fill="black" stroke="black" points="510.893,-259.424 518.461,-252.01 507.921,-253.086 510.893,-259.424"/>
</g>
<!-- SSHLocation -->
<g id="node14" class="node"><title>SSHLocation</title>
<polygon fill="lightgrey" stroke="lightgrey" points="1068,-540 988,-540 976,-528 976,-516 988,-504 1068,-504 1080,-516 1080,-528 1068,-540"/>
<path fill="lightgrey" stroke="lightgrey" d="M988,-540C982,-540 976,-534 976,-528"/>
<path fill="lightgrey" stroke="lightgrey" d="M976,-516C976,-510 982,-504 988,-504"/>
<path fill="lightgrey" stroke="lightgrey" d="M1068,-504C1074,-504 1080,-510 1080,-516"/>
<path fill="lightgrey" stroke="lightgrey" d="M1080,-528C1080,-534 1074,-540 1068,-540"/>
<polyline fill="none" stroke="black" points="1068,-540 988,-540 "/>
<path fill="none" stroke="black" d="M988,-540C982,-540 976,-534 976,-528"/>
<polyline fill="none" stroke="black" points="976,-528 976,-516 "/>
<path fill="none" stroke="black" d="M976,-516C976,-510 982,-504 988,-504"/>
<polyline fill="none" stroke="black" points="988,-504 1068,-504 "/>
<path fill="none" stroke="black" d="M1068,-504C1074,-504 1080,-510 1080,-516"/>
<polyline fill="none" stroke="black" points="1080,-516 1080,-528 "/>
<path fill="none" stroke="black" d="M1080,-528C1080,-534 1074,-540 1068,-540"/>
<text text-anchor="middle" x="1028" y="-518.4" font-family="Times Roman,serif" font-size="14.00">SSHLocation</text>
</g>
<!-- SSHLocation&#45;&gt;WebServerSecurityGroup -->
<g id="edge10" class="edge"><title>SSHLocation&#45;&gt;WebServerSecurityGroup</title>
<path fill="none" stroke="black" d="M1011.79,-503.762C989.283,-478.444 948.461,-432.518 922.867,-403.725"/>
<polygon fill="black" stroke="black" points="925.339,-401.238 916.08,-396.09 920.107,-405.889 925.339,-401.238"/>
</g>
<!-- KeyName -->
<g id="node15" class="node"><title>KeyName</title>
<polygon fill="lightgrey" stroke="lightgrey" points="68,-540 12,-540 2.84217e-14,-528 1.42109e-14,-516 12,-504 68,-504 80,-516 80,-528 68,-540"/>
<path fill="lightgrey" stroke="lightgrey" d="M12,-540C6,-540 3.55271e-14,-534 2.84217e-14,-528"/>
<path fill="lightgrey" stroke="lightgrey" d="M1.42109e-14,-516C7.10543e-15,-510 6,-504 12,-504"/>
<path fill="lightgrey" stroke="lightgrey" d="M68,-504C74,-504 80,-510 80,-516"/>
<path fill="lightgrey" stroke="lightgrey" d="M80,-528C80,-534 74,-540 68,-540"/>
<polyline fill="none" stroke="black" points="68,-540 12,-540 "/>
<path fill="none" stroke="black" d="M12,-540C6,-540 3.55271e-14,-534 2.84217e-14,-528"/>
<polyline fill="none" stroke="black" points="2.84217e-14,-528 1.42109e-14,-516 "/>
<path fill="none" stroke="black" d="M1.42109e-14,-516C7.10543e-15,-510 6,-504 12,-504"/>
<polyline fill="none" stroke="black" points="12,-504 68,-504 "/>
<path fill="none" stroke="black" d="M68,-504C74,-504 80,-510 80,-516"/>
<polyline fill="none" stroke="black" points="80,-516 80,-528 "/>
<path fill="none" stroke="black" d="M80,-528C80,-534 74,-540 68,-540"/>
<text text-anchor="middle" x="40" y="-518.4" font-family="Times Roman,serif" font-size="14.00">KeyName</text>
</g>
<!-- KeyName&#45;&gt;LaunchConfig -->
<g id="edge24" class="edge"><title>KeyName&#45;&gt;LaunchConfig</title>
<path fill="none" stroke="black" d="M40,-503.815C40,-476.498 40,-423.25 40,-378 40,-378 40,-378 40,-306 40,-228.635 115.532,-240.245 189,-216 281.571,-185.451 566.225,-170.072 695.688,-164.506"/>
<polygon fill="black" stroke="black" points="696.014,-167.996 705.857,-164.076 695.718,-161.002 696.014,-167.996"/>
</g>
<!-- DBPassword -->
<g id="node16" class="node"><title>DBPassword</title>
<polygon fill="lightgrey" stroke="lightgrey" points="282,-540 204,-540 192,-528 192,-516 204,-504 282,-504 294,-516 294,-528 282,-540"/>
<path fill="lightgrey" stroke="lightgrey" d="M204,-540C198,-540 192,-534 192,-528"/>
<path fill="lightgrey" stroke="lightgrey" d="M192,-516C192,-510 198,-504 204,-504"/>
<path fill="lightgrey" stroke="lightgrey" d="M282,-504C288,-504 294,-510 294,-516"/>
<path fill="lightgrey" stroke="lightgrey" d="M294,-528C294,-534 288,-540 282,-540"/>
<polyline fill="none" stroke="black" points="282,-540 204,-540 "/>
<path fill="none" stroke="black" d="M204,-540C198,-540 192,-534 192,-528"/>
<polyline fill="none" stroke="black" points="192,-528 192,-516 "/>
<path fill="none" stroke="black" d="M192,-516C192,-510 198,-504 204,-504"/>
<polyline fill="none" stroke="black" points="204,-504 282,-504 "/>
<path fill="none" stroke="black" d="M282,-504C288,-504 294,-510 294,-516"/>
<polyline fill="none" stroke="black" points="294,-516 294,-528 "/>
<path fill="none" stroke="black" d="M294,-528C294,-534 288,-540 282,-540"/>
<text text-anchor="middle" x="243" y="-518.4" font-family="Times Roman,serif" font-size="14.00">DBPassword</text>
</g>
<!-- DBPassword&#45;&gt;LaunchConfig -->
<g id="edge38" class="edge"><title>DBPassword&#45;&gt;LaunchConfig</title>
<path fill="none" stroke="black" d="M244.45,-503.828C246.501,-476.53 250,-423.303 250,-378 250,-378 250,-378 250,-306 250,-214.394 558.083,-178.228 695.816,-166.637"/>
<polygon fill="black" stroke="black" points="696.15,-170.122 705.829,-165.813 695.575,-163.145 696.15,-170.122"/>
</g>
<!-- DBPassword&#45;&gt;DBInstance -->
<g id="edge50" class="edge"><title>DBPassword&#45;&gt;DBInstance</title>
<path fill="none" stroke="black" d="M261.038,-503.776C301.091,-463.567 400.948,-364.73 490,-288 501.591,-278.012 514.726,-267.537 526.402,-258.499"/>
<polygon fill="black" stroke="black" points="528.805,-261.066 534.603,-252.199 524.541,-255.515 528.805,-261.066"/>
</g>
<!-- MultiAZDatabase -->
<g id="node17" class="node"><title>MultiAZDatabase</title>
<polygon fill="lightgrey" stroke="lightgrey" points="698,-540 586,-540 574,-528 574,-516 586,-504 698,-504 710,-516 710,-528 698,-540"/>
<path fill="lightgrey" stroke="lightgrey" d="M586,-540C580,-540 574,-534 574,-528"/>
<path fill="lightgrey" stroke="lightgrey" d="M574,-516C574,-510 580,-504 586,-504"/>
<path fill="lightgrey" stroke="lightgrey" d="M698,-504C704,-504 710,-510 710,-516"/>
<path fill="lightgrey" stroke="lightgrey" d="M710,-528C710,-534 704,-540 698,-540"/>
<polyline fill="none" stroke="black" points="698,-540 586,-540 "/>
<path fill="none" stroke="black" d="M586,-540C580,-540 574,-534 574,-528"/>
<polyline fill="none" stroke="black" points="574,-528 574,-516 "/>
<path fill="none" stroke="black" d="M574,-516C574,-510 580,-504 586,-504"/>
<polyline fill="none" stroke="black" points="586,-504 698,-504 "/>
<path fill="none" stroke="black" d="M698,-504C704,-504 710,-510 710,-516"/>
<polyline fill="none" stroke="black" points="710,-516 710,-528 "/>
<path fill="none" stroke="black" d="M710,-528C710,-534 704,-540 698,-540"/>
<text text-anchor="middle" x="642" y="-518.4" font-family="Times Roman,serif" font-size="14.00">MultiAZDatabase</text>
</g>
<!-- MultiAZDatabase&#45;&gt;DBInstance -->
<g id="edge44" class="edge"><title>MultiAZDatabase&#45;&gt;DBInstance</title>
<path fill="none" stroke="black" d="M636.808,-503.984C622.747,-455.193 583.853,-320.238 566.981,-261.693"/>
<polygon fill="black" stroke="black" points="570.322,-260.649 564.19,-252.009 563.596,-262.587 570.322,-260.649"/>
</g>
<!-- InstanceType -->
<g id="node18" class="node"><title>InstanceType</title>
<polygon fill="lightgrey" stroke="lightgrey" points="946,-540 864,-540 852,-528 852,-516 864,-504 946,-504 958,-516 958,-528 946,-540"/>
<path fill="lightgrey" stroke="lightgrey" d="M864,-540C858,-540 852,-534 852,-528"/>
<path fill="lightgrey" stroke="lightgrey" d="M852,-516C852,-510 858,-504 864,-504"/>
<path fill="lightgrey" stroke="lightgrey" d="M946,-504C952,-504 958,-510 958,-516"/>
<path fill="lightgrey" stroke="lightgrey" d="M958,-528C958,-534 952,-540 946,-540"/>
<polyline fill="none" stroke="black" points="946,-540 864,-540 "/>
<path fill="none" stroke="black" d="M864,-540C858,-540 852,-534 852,-528"/>
<polyline fill="none" stroke="black" points="852,-528 852,-516 "/>
<path fill="none" stroke="black" d="M852,-516C852,-510 858,-504 864,-504"/>
<polyline fill="none" stroke="black" points="864,-504 946,-504 "/>
<path fill="none" stroke="black" d="M946,-504C952,-504 958,-510 958,-516"/>
<polyline fill="none" stroke="black" points="958,-516 958,-528 "/>
<path fill="none" stroke="black" d="M958,-528C958,-534 952,-540 946,-540"/>
<text text-anchor="middle" x="905" y="-518.4" font-family="Times Roman,serif" font-size="14.00">InstanceType</text>
</g>
<!-- InstanceType&#45;&gt;LaunchConfig -->
<g id="edge28" class="edge"><title>InstanceType&#45;&gt;LaunchConfig</title>
<path fill="none" stroke="black" d="M859.598,-503.911C814.385,-481.11 752,-437.574 752,-378 752,-378 752,-378 752,-306 752,-265.876 752,-219.463 754.218,-190.418"/>
<polygon fill="black" stroke="black" points="757.728,-190.469 755.181,-180.185 750.759,-189.813 757.728,-190.469"/>
</g>
<!-- InstanceType&#45;&gt;LaunchConfig -->
<g id="edge32" class="edge"><title>InstanceType&#45;&gt;LaunchConfig</title>
<path fill="none" stroke="black" d="M872.465,-503.911C832.385,-481.11 770,-437.574 770,-378 770,-378 770,-378 770,-306 770,-265.876 770,-219.463 767.782,-190.418"/>
<polygon fill="black" stroke="black" points="771.241,-189.813 766.819,-180.185 764.272,-190.469 771.241,-189.813"/>
</g>
<!-- WebServerCapacity -->
<g id="node19" class="node"><title>WebServerCapacity</title>
<polygon fill="lightgrey" stroke="lightgrey" points="1312,-540 1184,-540 1172,-528 1172,-516 1184,-504 1312,-504 1324,-516 1324,-528 1312,-540"/>
<path fill="lightgrey" stroke="lightgrey" d="M1184,-540C1178,-540 1172,-534 1172,-528"/>
<path fill="lightgrey" stroke="lightgrey" d="M1172,-516C1172,-510 1178,-504 1184,-504"/>
<path fill="lightgrey" stroke="lightgrey" d="M1312,-504C1318,-504 1324,-510 1324,-516"/>
<path fill="lightgrey" stroke="lightgrey" d="M1324,-528C1324,-534 1318,-540 1312,-540"/>
<polyline fill="none" stroke="black" points="1312,-540 1184,-540 "/>
<path fill="none" stroke="black" d="M1184,-540C1178,-540 1172,-534 1172,-528"/>
<polyline fill="none" stroke="black" points="1172,-528 1172,-516 "/>
<path fill="none" stroke="black" d="M1172,-516C1172,-510 1178,-504 1184,-504"/>
<polyline fill="none" stroke="black" points="1184,-504 1312,-504 "/>
<path fill="none" stroke="black" d="M1312,-504C1318,-504 1324,-510 1324,-516"/>
<polyline fill="none" stroke="black" points="1324,-516 1324,-528 "/>
<path fill="none" stroke="black" d="M1324,-528C1324,-534 1318,-540 1312,-540"/>
<text text-anchor="middle" x="1248" y="-518.4" font-family="Times Roman,serif" font-size="14.00">WebServerCapacity</text>
</g>
<!-- WebServerCapacity&#45;&gt;WebServerGroup -->
<g id="edge12" class="edge"><title>WebServerCapacity&#45;&gt;WebServerGroup</title>
<path fill="none" stroke="black" d="M1248,-503.815C1248,-476.498 1248,-423.25 1248,-378 1248,-378 1248,-378 1248,-234 1248,-193.876 1248,-147.463 1248,-118.418"/>
<polygon fill="black" stroke="black" points="1251.5,-118.185 1248,-108.185 1244.5,-118.185 1251.5,-118.185"/>
</g>
<!-- AWS::StackId -->
<g id="node29" class="node"><title>AWS::StackId</title>
<polygon fill="none" stroke="black" points="1124,-396 1014,-396 1014,-360 1124,-360 1124,-396"/>
<text text-anchor="middle" x="1069" y="-374.4" font-family="Times Roman,serif" font-size="14.00">AWS::StackId</text>
</g>
<!-- AWS::StackId&#45;&gt;LaunchConfig -->
<g id="edge18" class="edge"><title>AWS::StackId&#45;&gt;LaunchConfig</title>
<path fill="none" stroke="black" d="M1059.44,-359.959C1040.8,-326.516 996.356,-254.782 939,-216 905.255,-193.183 861.548,-179.741 825.89,-171.975"/>
<polygon fill="black" stroke="black" points="826.564,-168.54 816.061,-169.932 825.139,-175.393 826.564,-168.54"/>
</g>
<!-- AWS::Region -->
<g id="node31" class="node"><title>AWS::Region</title>
<polygon fill="none" stroke="black" points="902,-252 798,-252 798,-216 902,-216 902,-252"/>
<text text-anchor="middle" x="850" y="-230.4" font-family="Times Roman,serif" font-size="14.00">AWS::Region</text>
</g>
<!-- AWS::Region&#45;&gt;LaunchConfig -->
<g id="edge30" class="edge"><title>AWS::Region&#45;&gt;LaunchConfig</title>
<path fill="none" stroke="black" d="M821.589,-215.831C809.877,-207.048 796.511,-196.371 785.262,-186.849"/>
<polygon fill="black" stroke="black" points="787.361,-184.037 777.499,-180.163 782.792,-189.341 787.361,-184.037"/>
</g>
<!-- AWS::Region&#45;&gt;LaunchConfig -->
<g id="edge20" class="edge"><title>AWS::Region&#45;&gt;LaunchConfig</title>
<path fill="none" stroke="black" d="M833.494,-215.831C823.299,-206.878 809.955,-195.956 797.454,-186.295"/>
<polygon fill="black" stroke="black" points="799.479,-183.438 789.403,-180.163 795.237,-189.007 799.479,-183.438"/>
</g>
</g>
</svg>
