<?xml version="1.0" encoding="UTF-8" standalone="no"?>
<!DOCTYPE svg PUBLIC "-//W3C//DTD SVG 1.1//EN"
 "http://www.w3.org/Graphics/SVG/1.1/DTD/svg11.dtd">
<!-- Generated by graphviz version 2.26.3 (20100126.1600)
 -->
<!-- Title: This template demonstrates using Opscode Chef Solo to deploy the WordPress application. It uses embedded templates to build an Auto Scaling group and a Amazon Relational Database Service database instance. **WARNING** This template creates one or more Amazon EC2 instances, an Amazon RDS database instance and CloudWatch alarms. You will be billed for the AWS resources used if you create a stack from this template. Pages: 1 -->
<svg width="1016pt" height="332pt"
 viewBox="0.00 0.00 1016.00 332.00" xmlns="http://www.w3.org/2000/svg" xmlns:xlink="http://www.w3.org/1999/xlink">
<g id="graph1" class="graph" transform="scale(1 1) rotate(0) translate(4 328)">
<title>This template demonstrates using Opscode Chef Solo to deploy the WordPress application. It uses embedded templates to build an Auto Scaling group and a Amazon Relational Database Service database instance. **WARNING** This template creates one or more Amazon EC2 instances, an Amazon RDS database instance and CloudWatch alarms. You will be billed for the AWS resources used if you create a stack from this template.</title>
<polygon fill="white" stroke="white" points="-4,5 -4,-328 1013,-328 1013,5 -4,5"/>
<!-- WordPressFrontEnd -->
<g id="node1" class="node"><title>WordPressFrontEnd</title>
<polygon fill="none" stroke="black" points="638,-108 486,-108 486,-72 638,-72 638,-108"/>
<text text-anchor="middle" x="562" y="-86.4" font-family="Times Roman,serif" font-size="14.00">WordPressFrontEnd</text>
</g>
<!-- URL -->
<g id="node14" class="node"><title>URL</title>
<polygon fill="lightgrey" stroke="lightgrey" points="577,-36 547,-36 535,-24 535,-12 547,-1.46056e-14 577,-6.71068e-15 589,-12 589,-24 577,-36"/>
<path fill="lightgrey" stroke="lightgrey" d="M547,-36C541,-36 535,-30 535,-24"/>
<path fill="lightgrey" stroke="lightgrey" d="M535,-12C535,-6 541,-1.61846e-14 547,-1.46056e-14"/>
<path fill="lightgrey" stroke="lightgrey" d="M577,-6.71068e-15C583,-5.1317e-15 589,-6 589,-12"/>
<path fill="lightgrey" stroke="lightgrey" d="M589,-24C589,-30 583,-36 577,-36"/>
<polyline fill="none" stroke="black" points="577,-36 547,-36 "/>
<path fill="none" stroke="black" d="M547,-36C541,-36 535,-30 535,-24"/>
<polyline fill="none" stroke="black" points="535,-24 535,-12 "/>
<path fill="none" stroke="black" d="M535,-12C535,-6 541,-1.61846e-14 547,-1.46056e-14"/>
<polyline fill="none" stroke="black" points="547,-1.46056e-14 577,-6.71068e-15 "/>
<path fill="none" stroke="black" d="M577,-6.71068e-15C583,-5.1317e-15 589,-6 589,-12"/>
<polyline fill="none" stroke="black" points="589,-12 589,-24 "/>
<path fill="none" stroke="black" d="M589,-24C589,-30 583,-36 577,-36"/>
<text text-anchor="middle" x="562" y="-14.4" font-family="Times Roman,serif" font-size="14.00">URL</text>
</g>
<!-- WordPressFrontEnd&#45;&gt;URL -->
<g id="edge40" class="edge"><title>WordPressFrontEnd&#45;&gt;URL</title>
<path fill="none" stroke="black" d="M562,-71.8314C562,-64.131 562,-54.9743 562,-46.4166"/>
<polygon fill="black" stroke="black" points="565.5,-46.4132 562,-36.4133 558.5,-46.4133 565.5,-46.4132"/>
</g>
<!-- EC2SecurityGroup -->
<g id="node2" class="node"><title>EC2SecurityGroup</title>
<polygon fill="none" stroke="black" points="144,-252 5.68434e-14,-252 0,-216 144,-216 144,-252"/>
<text text-anchor="middle" x="72" y="-230.4" font-family="Times Roman,serif" font-size="14.00">EC2SecurityGroup</text>
</g>
<!-- EC2SecurityGroup&#45;&gt;WordPressFrontEnd -->
<g id="edge8" class="edge"><title>EC2SecurityGroup&#45;&gt;WordPressFrontEnd</title>
<path fill="none" stroke="black" d="M96.9987,-215.843C126.873,-195.081 179.103,-161.686 229,-144 309.73,-115.385 406.895,-101.841 475.372,-95.4871"/>
<polygon fill="black" stroke="black" points="476.037,-98.9417 485.685,-94.5644 475.413,-91.9695 476.037,-98.9417"/>
</g>
<!-- WordpressDatabase -->
<g id="node4" class="node"><title>WordpressDatabase</title>
<polygon fill="none" stroke="black" points="467,-180 313,-180 313,-144 467,-144 467,-180"/>
<text text-anchor="middle" x="390" y="-158.4" font-family="Times Roman,serif" font-size="14.00">WordpressDatabase</text>
</g>
<!-- EC2SecurityGroup&#45;&gt;WordpressDatabase -->
<g id="edge30" class="edge"><title>EC2SecurityGroup&#45;&gt;WordpressDatabase</title>
<path fill="none" stroke="black" d="M144.159,-217.662C191.317,-206.985 253.177,-192.979 303.045,-181.688"/>
<polygon fill="black" stroke="black" points="303.871,-185.09 312.851,-179.468 302.325,-178.262 303.871,-185.09"/>
</g>
<!-- AlarmTopic -->
<g id="node3" class="node"><title>AlarmTopic</title>
<polygon fill="none" stroke="black" points="252,-252 162,-252 162,-216 252,-216 252,-252"/>
<text text-anchor="middle" x="207" y="-230.4" font-family="Times Roman,serif" font-size="14.00">AlarmTopic</text>
</g>
<!-- AlarmTopic&#45;&gt;WordPressFrontEnd -->
<g id="edge14" class="edge"><title>AlarmTopic&#45;&gt;WordPressFrontEnd</title>
<path fill="none" stroke="black" d="M213.693,-215.927C222.401,-195.082 239.684,-161.448 266,-144 299.68,-121.669 400.772,-106.605 475.488,-98.1823"/>
<polygon fill="black" stroke="black" points="476.291,-101.615 485.846,-97.0377 475.522,-94.6573 476.291,-101.615"/>
</g>
<!-- AlarmTopic&#45;&gt;WordpressDatabase -->
<g id="edge38" class="edge"><title>AlarmTopic&#45;&gt;WordpressDatabase</title>
<path fill="none" stroke="black" d="M252.236,-216.202C277.122,-206.411 308.205,-194.182 334.544,-183.819"/>
<polygon fill="black" stroke="black" points="335.989,-187.011 344.013,-180.093 333.426,-180.497 335.989,-187.011"/>
</g>
<!-- WordpressDatabase&#45;&gt;WordPressFrontEnd -->
<g id="edge18" class="edge"><title>WordpressDatabase&#45;&gt;WordPressFrontEnd</title>
<path fill="none" stroke="black" d="M433.403,-143.831C456.509,-134.159 485.104,-122.189 509.458,-111.994"/>
<polygon fill="black" stroke="black" points="511.036,-115.128 518.909,-108.038 508.333,-108.671 511.036,-115.128"/>
</g>
<!-- DatabaseUser -->
<g id="node6" class="node"><title>DatabaseUser</title>
<polygon fill="lightgrey" stroke="lightgrey" points="266,-324 178,-324 166,-312 166,-300 178,-288 266,-288 278,-300 278,-312 266,-324"/>
<path fill="lightgrey" stroke="lightgrey" d="M178,-324C172,-324 166,-318 166,-312"/>
<path fill="lightgrey" stroke="lightgrey" d="M166,-300C166,-294 172,-288 178,-288"/>
<path fill="lightgrey" stroke="lightgrey" d="M266,-288C272,-288 278,-294 278,-300"/>
<path fill="lightgrey" stroke="lightgrey" d="M278,-312C278,-318 272,-324 266,-324"/>
<polyline fill="none" stroke="black" points="266,-324 178,-324 "/>
<path fill="none" stroke="black" d="M178,-324C172,-324 166,-318 166,-312"/>
<polyline fill="none" stroke="black" points="166,-312 166,-300 "/>
<path fill="none" stroke="black" d="M166,-300C166,-294 172,-288 178,-288"/>
<polyline fill="none" stroke="black" points="178,-288 266,-288 "/>
<path fill="none" stroke="black" d="M266,-288C272,-288 278,-294 278,-300"/>
<polyline fill="none" stroke="black" points="278,-300 278,-312 "/>
<path fill="none" stroke="black" d="M278,-312C278,-318 272,-324 266,-324"/>
<text text-anchor="middle" x="222" y="-302.4" font-family="Times Roman,serif" font-size="14.00">DatabaseUser</text>
</g>
<!-- DatabaseUser&#45;&gt;WordPressFrontEnd -->
<g id="edge22" class="edge"><title>DatabaseUser&#45;&gt;WordPressFrontEnd</title>
<path fill="none" stroke="black" d="M236.908,-287.76C244.732,-277.631 254.097,-264.569 261,-252 285.869,-206.715 264.455,-177.248 304,-144 329.768,-122.336 411.136,-107.737 475.683,-99.2378"/>
<polygon fill="black" stroke="black" points="476.415,-102.673 485.887,-97.926 475.523,-95.7297 476.415,-102.673"/>
</g>
<!-- DatabaseUser&#45;&gt;WordpressDatabase -->
<g id="edge34" class="edge"><title>DatabaseUser&#45;&gt;WordpressDatabase</title>
<path fill="none" stroke="black" d="M247.514,-287.916C261.524,-277.726 279.041,-264.557 294,-252 318.76,-231.216 345.479,-205.91 364.426,-187.433"/>
<polygon fill="black" stroke="black" points="367.099,-189.713 371.79,-180.213 362.199,-184.715 367.099,-189.713"/>
</g>
<!-- OperatorEmail -->
<g id="node7" class="node"><title>OperatorEmail</title>
<polygon fill="lightgrey" stroke="lightgrey" points="136,-324 44,-324 32,-312 32,-300 44,-288 136,-288 148,-300 148,-312 136,-324"/>
<path fill="lightgrey" stroke="lightgrey" d="M44,-324C38,-324 32,-318 32,-312"/>
<path fill="lightgrey" stroke="lightgrey" d="M32,-300C32,-294 38,-288 44,-288"/>
<path fill="lightgrey" stroke="lightgrey" d="M136,-288C142,-288 148,-294 148,-300"/>
<path fill="lightgrey" stroke="lightgrey" d="M148,-312C148,-318 142,-324 136,-324"/>
<polyline fill="none" stroke="black" points="136,-324 44,-324 "/>
<path fill="none" stroke="black" d="M44,-324C38,-324 32,-318 32,-312"/>
<polyline fill="none" stroke="black" points="32,-312 32,-300 "/>
<path fill="none" stroke="black" d="M32,-300C32,-294 38,-288 44,-288"/>
<polyline fill="none" stroke="black" points="44,-288 136,-288 "/>
<path fill="none" stroke="black" d="M136,-288C142,-288 148,-294 148,-300"/>
<polyline fill="none" stroke="black" points="148,-300 148,-312 "/>
<path fill="none" stroke="black" d="M148,-312C148,-318 142,-324 136,-324"/>
<text text-anchor="middle" x="90" y="-302.4" font-family="Times Roman,serif" font-size="14.00">OperatorEmail</text>
</g>
<!-- OperatorEmail&#45;&gt;AlarmTopic -->
<g id="edge24" class="edge"><title>OperatorEmail&#45;&gt;AlarmTopic</title>
<path fill="none" stroke="black" d="M119.524,-287.831C134.489,-278.622 152.839,-267.33 168.86,-257.471"/>
<polygon fill="black" stroke="black" points="170.803,-260.385 177.485,-252.163 167.134,-254.423 170.803,-260.385"/>
</g>
<!-- HighlyAvailable -->
<g id="node8" class="node"><title>HighlyAvailable</title>
<polygon fill="lightgrey" stroke="lightgrey" points="536,-324 438,-324 426,-312 426,-300 438,-288 536,-288 548,-300 548,-312 536,-324"/>
<path fill="lightgrey" stroke="lightgrey" d="M438,-324C432,-324 426,-318 426,-312"/>
<path fill="lightgrey" stroke="lightgrey" d="M426,-300C426,-294 432,-288 438,-288"/>
<path fill="lightgrey" stroke="lightgrey" d="M536,-288C542,-288 548,-294 548,-300"/>
<path fill="lightgrey" stroke="lightgrey" d="M548,-312C548,-318 542,-324 536,-324"/>
<polyline fill="none" stroke="black" points="536,-324 438,-324 "/>
<path fill="none" stroke="black" d="M438,-324C432,-324 426,-318 426,-312"/>
<polyline fill="none" stroke="black" points="426,-312 426,-300 "/>
<path fill="none" stroke="black" d="M426,-300C426,-294 432,-288 438,-288"/>
<polyline fill="none" stroke="black" points="438,-288 536,-288 "/>
<path fill="none" stroke="black" d="M536,-288C542,-288 548,-294 548,-300"/>
<polyline fill="none" stroke="black" points="548,-300 548,-312 "/>
<path fill="none" stroke="black" d="M548,-312C548,-318 542,-324 536,-324"/>
<text text-anchor="middle" x="487" y="-302.4" font-family="Times Roman,serif" font-size="14.00">HighlyAvailable</text>
</g>
<!-- HighlyAvailable&#45;&gt;WordPressFrontEnd -->
<g id="edge16" class="edge"><title>HighlyAvailable&#45;&gt;WordPressFrontEnd</title>
<path fill="none" stroke="black" d="M533.475,-287.972C548.879,-279.507 564.299,-267.737 573,-252 596.239,-209.968 583.673,-152.129 572.668,-118.14"/>
<polygon fill="black" stroke="black" points="575.887,-116.734 569.344,-108.401 569.262,-118.996 575.887,-116.734"/>
</g>
<!-- HighlyAvailable&#45;&gt;WordpressDatabase -->
<g id="edge28" class="edge"><title>HighlyAvailable&#45;&gt;WordpressDatabase</title>
<path fill="none" stroke="black" d="M455.956,-287.761C442.612,-278.54 427.851,-266.271 418,-252 405.274,-233.565 398.152,-209.11 394.279,-190.345"/>
<polygon fill="black" stroke="black" points="397.681,-189.498 392.402,-180.312 390.801,-190.785 397.681,-189.498"/>
</g>
<!-- DatabasePassword -->
<g id="node9" class="node"><title>DatabasePassword</title>
<polygon fill="lightgrey" stroke="lightgrey" points="700,-324 578,-324 566,-312 566,-300 578,-288 700,-288 712,-300 712,-312 700,-324"/>
<path fill="lightgrey" stroke="lightgrey" d="M578,-324C572,-324 566,-318 566,-312"/>
<path fill="lightgrey" stroke="lightgrey" d="M566,-300C566,-294 572,-288 578,-288"/>
<path fill="lightgrey" stroke="lightgrey" d="M700,-288C706,-288 712,-294 712,-300"/>
<path fill="lightgrey" stroke="lightgrey" d="M712,-312C712,-318 706,-324 700,-324"/>
<polyline fill="none" stroke="black" points="700,-324 578,-324 "/>
<path fill="none" stroke="black" d="M578,-324C572,-324 566,-318 566,-312"/>
<polyline fill="none" stroke="black" points="566,-312 566,-300 "/>
<path fill="none" stroke="black" d="M566,-300C566,-294 572,-288 578,-288"/>
<polyline fill="none" stroke="black" points="578,-288 700,-288 "/>
<path fill="none" stroke="black" d="M700,-288C706,-288 712,-294 712,-300"/>
<polyline fill="none" stroke="black" points="712,-300 712,-312 "/>
<path fill="none" stroke="black" d="M712,-312C712,-318 706,-324 700,-324"/>
<text text-anchor="middle" x="639" y="-302.4" font-family="Times Roman,serif" font-size="14.00">DatabasePassword</text>
</g>
<!-- DatabasePassword&#45;&gt;WordPressFrontEnd -->
<g id="edge20" class="edge"><title>DatabasePassword&#45;&gt;WordPressFrontEnd</title>
<path fill="none" stroke="black" d="M636.047,-287.911C630.655,-257.335 617.725,-193.89 596,-144 591.929,-134.652 586.392,-125.046 580.967,-116.576"/>
<polygon fill="black" stroke="black" points="583.867,-114.617 575.422,-108.219 578.035,-118.487 583.867,-114.617"/>
</g>
<!-- DatabasePassword&#45;&gt;WordpressDatabase -->
<g id="edge32" class="edge"><title>DatabasePassword&#45;&gt;WordpressDatabase</title>
<path fill="none" stroke="black" d="M567.449,-287.957C518.539,-275.197 460.845,-259.139 451,-252 439.129,-243.391 419.197,-212.079 405.362,-188.794"/>
<polygon fill="black" stroke="black" points="408.29,-186.868 400.208,-180.017 402.254,-190.413 408.29,-186.868"/>
</g>
<!-- KeyName -->
<g id="node10" class="node"><title>KeyName</title>
<polygon fill="lightgrey" stroke="lightgrey" points="798,-324 742,-324 730,-312 730,-300 742,-288 798,-288 810,-300 810,-312 798,-324"/>
<path fill="lightgrey" stroke="lightgrey" d="M742,-324C736,-324 730,-318 730,-312"/>
<path fill="lightgrey" stroke="lightgrey" d="M730,-300C730,-294 736,-288 742,-288"/>
<path fill="lightgrey" stroke="lightgrey" d="M798,-288C804,-288 810,-294 810,-300"/>
<path fill="lightgrey" stroke="lightgrey" d="M810,-312C810,-318 804,-324 798,-324"/>
<polyline fill="none" stroke="black" points="798,-324 742,-324 "/>
<path fill="none" stroke="black" d="M742,-324C736,-324 730,-318 730,-312"/>
<polyline fill="none" stroke="black" points="730,-312 730,-300 "/>
<path fill="none" stroke="black" d="M730,-300C730,-294 736,-288 742,-288"/>
<polyline fill="none" stroke="black" points="742,-288 798,-288 "/>
<path fill="none" stroke="black" d="M798,-288C804,-288 810,-294 810,-300"/>
<polyline fill="none" stroke="black" points="810,-300 810,-312 "/>
<path fill="none" stroke="black" d="M810,-312C810,-318 804,-324 798,-324"/>
<text text-anchor="middle" x="770" y="-302.4" font-family="Times Roman,serif" font-size="14.00">KeyName</text>
</g>
<!-- KeyName&#45;&gt;WordPressFrontEnd -->
<g id="edge10" class="edge"><title>KeyName&#45;&gt;WordPressFrontEnd</title>
<path fill="none" stroke="black" d="M753.056,-287.879C724.851,-257.781 666.387,-195.679 616,-144 606.817,-134.581 596.64,-124.352 587.62,-115.355"/>
<polygon fill="black" stroke="black" points="589.919,-112.705 580.362,-108.133 584.982,-117.667 589.919,-112.705"/>
</g>
<!-- DatabaseType -->
<g id="node11" class="node"><title>DatabaseType</title>
<polygon fill="lightgrey" stroke="lightgrey" points="396,-324 308,-324 296,-312 296,-300 308,-288 396,-288 408,-300 408,-312 396,-324"/>
<path fill="lightgrey" stroke="lightgrey" d="M308,-324C302,-324 296,-318 296,-312"/>
<path fill="lightgrey" stroke="lightgrey" d="M296,-300C296,-294 302,-288 308,-288"/>
<path fill="lightgrey" stroke="lightgrey" d="M396,-288C402,-288 408,-294 408,-300"/>
<path fill="lightgrey" stroke="lightgrey" d="M408,-312C408,-318 402,-324 396,-324"/>
<polyline fill="none" stroke="black" points="396,-324 308,-324 "/>
<path fill="none" stroke="black" d="M308,-324C302,-324 296,-318 296,-312"/>
<polyline fill="none" stroke="black" points="296,-312 296,-300 "/>
<path fill="none" stroke="black" d="M296,-300C296,-294 302,-288 308,-288"/>
<polyline fill="none" stroke="black" points="308,-288 396,-288 "/>
<path fill="none" stroke="black" d="M396,-288C402,-288 408,-294 408,-300"/>
<polyline fill="none" stroke="black" points="408,-300 408,-312 "/>
<path fill="none" stroke="black" d="M408,-312C408,-318 402,-324 396,-324"/>
<text text-anchor="middle" x="352" y="-302.4" font-family="Times Roman,serif" font-size="14.00">DatabaseType</text>
</g>
<!-- DatabaseType&#45;&gt;WordpressDatabase -->
<g id="edge36" class="edge"><title>DatabaseType&#45;&gt;WordpressDatabase</title>
<path fill="none" stroke="black" d="M356.813,-287.762C363.323,-263.093 374.995,-218.86 382.618,-189.973"/>
<polygon fill="black" stroke="black" points="386.059,-190.652 385.226,-180.09 379.291,-188.866 386.059,-190.652"/>
</g>
<!-- InstanceType -->
<g id="node12" class="node"><title>InstanceType</title>
<polygon fill="lightgrey" stroke="lightgrey" points="922,-324 840,-324 828,-312 828,-300 840,-288 922,-288 934,-300 934,-312 922,-324"/>
<path fill="lightgrey" stroke="lightgrey" d="M840,-324C834,-324 828,-318 828,-312"/>
<path fill="lightgrey" stroke="lightgrey" d="M828,-300C828,-294 834,-288 840,-288"/>
<path fill="lightgrey" stroke="lightgrey" d="M922,-288C928,-288 934,-294 934,-300"/>
<path fill="lightgrey" stroke="lightgrey" d="M934,-312C934,-318 928,-324 922,-324"/>
<polyline fill="none" stroke="black" points="922,-324 840,-324 "/>
<path fill="none" stroke="black" d="M840,-324C834,-324 828,-318 828,-312"/>
<polyline fill="none" stroke="black" points="828,-312 828,-300 "/>
<path fill="none" stroke="black" d="M828,-300C828,-294 834,-288 840,-288"/>
<polyline fill="none" stroke="black" points="840,-288 922,-288 "/>
<path fill="none" stroke="black" d="M922,-288C928,-288 934,-294 934,-300"/>
<polyline fill="none" stroke="black" points="934,-300 934,-312 "/>
<path fill="none" stroke="black" d="M934,-312C934,-318 928,-324 922,-324"/>
<text text-anchor="middle" x="881" y="-302.4" font-family="Times Roman,serif" font-size="14.00">InstanceType</text>
</g>
<!-- InstanceType&#45;&gt;WordPressFrontEnd -->
<g id="edge12" class="edge"><title>InstanceType&#45;&gt;WordPressFrontEnd</title>
<path fill="none" stroke="black" d="M855.452,-287.989C812.49,-257.79 722.924,-195.221 646,-144 630.823,-133.894 613.939,-122.978 599.312,-113.623"/>
<polygon fill="black" stroke="black" points="600.844,-110.449 590.532,-108.021 597.079,-116.35 600.844,-110.449"/>
</g>
<!-- AWS::Region -->
<g id="node15" class="node"><title>AWS::Region</title>
<polygon fill="none" stroke="black" points="564,-252 460,-252 460,-216 564,-216 564,-252"/>
<text text-anchor="middle" x="512" y="-230.4" font-family="Times Roman,serif" font-size="14.00">AWS::Region</text>
</g>
<!-- AWS::Region&#45;&gt;WordPressFrontEnd -->
<g id="edge4" class="edge"><title>AWS::Region&#45;&gt;WordPressFrontEnd</title>
<path fill="none" stroke="black" d="M518.333,-215.762C526.936,-190.985 542.392,-146.471 552.419,-117.594"/>
<polygon fill="black" stroke="black" points="555.745,-118.684 555.719,-108.09 549.132,-116.388 555.745,-118.684"/>
</g>
<!-- AWS::Region&#45;&gt;WordpressDatabase -->
<g id="edge26" class="edge"><title>AWS::Region&#45;&gt;WordpressDatabase</title>
<path fill="none" stroke="black" d="M481.214,-215.831C465.61,-206.622 446.476,-195.33 429.77,-185.471"/>
<polygon fill="black" stroke="black" points="431.167,-182.231 420.776,-180.163 427.609,-188.26 431.167,-182.231"/>
</g>
<!-- AWS::StackName -->
<g id="node17" class="node"><title>AWS::StackName</title>
<polygon fill="none" stroke="black" points="1008,-180 872,-180 872,-144 1008,-144 1008,-180"/>
<text text-anchor="middle" x="940" y="-158.4" font-family="Times Roman,serif" font-size="14.00">AWS::StackName</text>
</g>
<!-- AWS::StackName&#45;&gt;WordPressFrontEnd -->
<g id="edge6" class="edge"><title>AWS::StackName&#45;&gt;WordPressFrontEnd</title>
<path fill="none" stroke="black" d="M871.582,-146.79C866.989,-145.828 862.43,-144.89 858,-144 787.559,-129.848 707.365,-115.315 648.233,-104.896"/>
<polygon fill="black" stroke="black" points="648.643,-101.414 638.188,-103.13 647.43,-108.308 648.643,-101.414"/>
</g>
</g>
</svg>
