<?xml version="1.0" encoding="UTF-8" standalone="no"?>
<!DOCTYPE svg PUBLIC "-//W3C//DTD SVG 1.1//EN"
 "http://www.w3.org/Graphics/SVG/1.1/DTD/svg11.dtd">
<!-- Generated by graphviz version 2.26.3 (20100126.1600)
 -->
<!-- Title: Sample template to bring up WordPress using the Puppet client to install server roles. A WaitCondition is used to hold up the stack creation until the application is deployed. **WARNING** This template creates one or more Amazon EC2 instances and CloudWatch alarms. You will be billed for the AWS resources used if you create a stack from this template. Pages: 1 -->
<svg width="1269pt" height="404pt"
 viewBox="0.00 0.00 1269.00 404.00" xmlns="http://www.w3.org/2000/svg" xmlns:xlink="http://www.w3.org/1999/xlink">
<g id="graph1" class="graph" transform="scale(1 1) rotate(0) translate(4 400)">
<title>Sample template to bring up WordPress using the Puppet client to install server roles. A WaitCondition is used to hold up the stack creation until the application is deployed. **WARNING** This template creates one or more Amazon EC2 instances and CloudWatch alarms. You will be billed for the AWS resources used if you create a stack from this template.</title>
<polygon fill="white" stroke="white" points="-4,5 -4,-400 1266,-400 1266,5 -4,5"/>
<!-- DBSecurityGroup -->
<g id="node1" class="node"><title>DBSecurityGroup</title>
<polygon fill="none" stroke="black" points="530,-252 394,-252 394,-216 530,-216 530,-252"/>
<text text-anchor="middle" x="462" y="-230.4" font-family="Times Roman,serif" font-size="14.00">DBSecurityGroup</text>
</g>
<!-- WordPressDatabase -->
<g id="node4" class="node"><title>WordPressDatabase</title>
<polygon fill="none" stroke="black" points="338,-180 184,-180 184,-144 338,-144 338,-180"/>
<text text-anchor="middle" x="261" y="-158.4" font-family="Times Roman,serif" font-size="14.00">WordPressDatabase</text>
</g>
<!-- DBSecurityGroup&#45;&gt;WordPressDatabase -->
<g id="edge10" class="edge"><title>DBSecurityGroup&#45;&gt;WordPressDatabase</title>
<path fill="none" stroke="black" d="M411.539,-215.924C384.061,-206.081 349.883,-193.839 321.041,-183.507"/>
<polygon fill="black" stroke="black" points="322.077,-180.16 311.482,-180.083 319.716,-186.75 322.077,-180.16"/>
</g>
<!-- ApplicationWaitCondition -->
<g id="node2" class="node"><title>ApplicationWaitCondition</title>
<polygon fill="none" stroke="black" points="1261,-108 1071,-108 1071,-72 1261,-72 1261,-108"/>
<text text-anchor="middle" x="1166" y="-86.4" font-family="Times Roman,serif" font-size="14.00">ApplicationWaitCondition</text>
</g>
<!-- EC2SecurityGroup -->
<g id="node3" class="node"><title>EC2SecurityGroup</title>
<polygon fill="none" stroke="black" points="548,-324 404,-324 404,-288 548,-288 548,-324"/>
<text text-anchor="middle" x="476" y="-302.4" font-family="Times Roman,serif" font-size="14.00">EC2SecurityGroup</text>
</g>
<!-- EC2SecurityGroup&#45;&gt;DBSecurityGroup -->
<g id="edge4" class="edge"><title>EC2SecurityGroup&#45;&gt;DBSecurityGroup</title>
<path fill="none" stroke="black" d="M472.467,-287.831C470.97,-280.131 469.189,-270.974 467.525,-262.417"/>
<polygon fill="black" stroke="black" points="470.925,-261.561 465.58,-252.413 464.053,-262.897 470.925,-261.561"/>
</g>
<!-- WebServer -->
<g id="node6" class="node"><title>WebServer</title>
<polygon fill="none" stroke="black" points="828,-108 736,-108 736,-72 828,-72 828,-108"/>
<text text-anchor="middle" x="782" y="-86.4" font-family="Times Roman,serif" font-size="14.00">WebServer</text>
</g>
<!-- EC2SecurityGroup&#45;&gt;WebServer -->
<g id="edge28" class="edge"><title>EC2SecurityGroup&#45;&gt;WebServer</title>
<path fill="none" stroke="black" d="M502.567,-287.898C514.958,-278.383 529.116,-265.829 539,-252 569.042,-209.967 543.425,-178.369 582,-144 603.21,-125.103 674.398,-108.966 725.809,-99.3777"/>
<polygon fill="black" stroke="black" points="726.599,-102.791 735.806,-97.5486 725.34,-95.9055 726.599,-102.791"/>
</g>
<!-- WordPressDatabase&#45;&gt;WebServer -->
<g id="edge38" class="edge"><title>WordPressDatabase&#45;&gt;WebServer</title>
<path fill="none" stroke="black" d="M338.379,-146.31C342.982,-145.496 347.548,-144.719 352,-144 485.379,-122.461 643.213,-104.57 725.568,-95.8062"/>
<polygon fill="black" stroke="black" points="726.137,-99.2656 735.713,-94.7323 725.4,-92.3045 726.137,-99.2656"/>
</g>
<!-- ApplicationWaitHandle -->
<g id="node5" class="node"><title>ApplicationWaitHandle</title>
<polygon fill="none" stroke="black" points="1252,-180 1080,-180 1080,-144 1252,-144 1252,-180"/>
<text text-anchor="middle" x="1166" y="-158.4" font-family="Times Roman,serif" font-size="14.00">ApplicationWaitHandle</text>
</g>
<!-- ApplicationWaitHandle&#45;&gt;ApplicationWaitCondition -->
<g id="edge6" class="edge"><title>ApplicationWaitHandle&#45;&gt;ApplicationWaitCondition</title>
<path fill="none" stroke="black" d="M1166,-143.831C1166,-136.131 1166,-126.974 1166,-118.417"/>
<polygon fill="black" stroke="black" points="1169.5,-118.413 1166,-108.413 1162.5,-118.413 1169.5,-118.413"/>
</g>
<!-- ApplicationWaitHandle&#45;&gt;WebServer -->
<g id="edge22" class="edge"><title>ApplicationWaitHandle&#45;&gt;WebServer</title>
<path fill="none" stroke="black" d="M1079.82,-145.842C1005.83,-131.969 901.356,-112.379 837.839,-100.47"/>
<polygon fill="black" stroke="black" points="838.481,-97.0293 828.007,-98.6263 837.191,-103.909 838.481,-97.0293"/>
</g>
<!-- WebsiteURL -->
<g id="node17" class="node"><title>WebsiteURL</title>
<polygon fill="lightgrey" stroke="lightgrey" points="765,-36 689,-36 677,-24 677,-12 689,-1.60583e-14 765,-5.25802e-15 777,-12 777,-24 765,-36"/>
<path fill="lightgrey" stroke="lightgrey" d="M689,-36C683,-36 677,-30 677,-24"/>
<path fill="lightgrey" stroke="lightgrey" d="M677,-12C677,-6 683,-1.69109e-14 689,-1.60583e-14"/>
<path fill="lightgrey" stroke="lightgrey" d="M765,-5.25802e-15C771,-4.40536e-15 777,-6 777,-12"/>
<path fill="lightgrey" stroke="lightgrey" d="M777,-24C777,-30 771,-36 765,-36"/>
<polyline fill="none" stroke="black" points="765,-36 689,-36 "/>
<path fill="none" stroke="black" d="M689,-36C683,-36 677,-30 677,-24"/>
<polyline fill="none" stroke="black" points="677,-24 677,-12 "/>
<path fill="none" stroke="black" d="M677,-12C677,-6 683,-1.69109e-14 689,-1.60583e-14"/>
<polyline fill="none" stroke="black" points="689,-1.60583e-14 765,-5.25802e-15 "/>
<path fill="none" stroke="black" d="M765,-5.25802e-15C771,-4.40536e-15 777,-6 777,-12"/>
<polyline fill="none" stroke="black" points="777,-12 777,-24 "/>
<path fill="none" stroke="black" d="M777,-24C777,-30 771,-36 765,-36"/>
<text text-anchor="middle" x="727" y="-14.4" font-family="Times Roman,serif" font-size="14.00">WebsiteURL</text>
</g>
<!-- WebServer&#45;&gt;WebsiteURL -->
<g id="edge44" class="edge"><title>WebServer&#45;&gt;WebsiteURL</title>
<path fill="none" stroke="black" d="M768.121,-71.8314C761.786,-63.5386 754.162,-53.557 747.207,-44.4533"/>
<polygon fill="black" stroke="black" points="749.917,-42.2353 741.066,-36.4133 744.355,-46.4847 749.917,-42.2353"/>
</g>
<!-- InstallURL -->
<g id="node18" class="node"><title>InstallURL</title>
<polygon fill="lightgrey" stroke="lightgrey" points="869,-36 807,-36 795,-24 795,-12 807,-1.57807e-14 869,-5.53562e-15 881,-12 881,-24 869,-36"/>
<path fill="lightgrey" stroke="lightgrey" d="M807,-36C801,-36 795,-30 795,-24"/>
<path fill="lightgrey" stroke="lightgrey" d="M795,-12C795,-6 801,-1.67721e-14 807,-1.57807e-14"/>
<path fill="lightgrey" stroke="lightgrey" d="M869,-5.53562e-15C875,-4.54417e-15 881,-6 881,-12"/>
<path fill="lightgrey" stroke="lightgrey" d="M881,-24C881,-30 875,-36 869,-36"/>
<polyline fill="none" stroke="black" points="869,-36 807,-36 "/>
<path fill="none" stroke="black" d="M807,-36C801,-36 795,-30 795,-24"/>
<polyline fill="none" stroke="black" points="795,-24 795,-12 "/>
<path fill="none" stroke="black" d="M795,-12C795,-6 801,-1.67721e-14 807,-1.57807e-14"/>
<polyline fill="none" stroke="black" points="807,-1.57807e-14 869,-5.53562e-15 "/>
<path fill="none" stroke="black" d="M869,-5.53562e-15C875,-4.54417e-15 881,-6 881,-12"/>
<polyline fill="none" stroke="black" points="881,-12 881,-24 "/>
<path fill="none" stroke="black" d="M881,-24C881,-30 875,-36 869,-36"/>
<text text-anchor="middle" x="838" y="-14.4" font-family="Times Roman,serif" font-size="14.00">InstallURL</text>
</g>
<!-- WebServer&#45;&gt;InstallURL -->
<g id="edge46" class="edge"><title>WebServer&#45;&gt;InstallURL</title>
<path fill="none" stroke="black" d="M796.131,-71.8314C802.581,-63.5386 810.345,-53.557 817.425,-44.4533"/>
<polygon fill="black" stroke="black" points="820.302,-46.4556 823.679,-36.4133 814.776,-42.158 820.302,-46.4556"/>
</g>
<!-- SSHLocation -->
<g id="node8" class="node"><title>SSHLocation</title>
<polygon fill="lightgrey" stroke="lightgrey" points="516,-396 436,-396 424,-384 424,-372 436,-360 516,-360 528,-372 528,-384 516,-396"/>
<path fill="lightgrey" stroke="lightgrey" d="M436,-396C430,-396 424,-390 424,-384"/>
<path fill="lightgrey" stroke="lightgrey" d="M424,-372C424,-366 430,-360 436,-360"/>
<path fill="lightgrey" stroke="lightgrey" d="M516,-360C522,-360 528,-366 528,-372"/>
<path fill="lightgrey" stroke="lightgrey" d="M528,-384C528,-390 522,-396 516,-396"/>
<polyline fill="none" stroke="black" points="516,-396 436,-396 "/>
<path fill="none" stroke="black" d="M436,-396C430,-396 424,-390 424,-384"/>
<polyline fill="none" stroke="black" points="424,-384 424,-372 "/>
<path fill="none" stroke="black" d="M424,-372C424,-366 430,-360 436,-360"/>
<polyline fill="none" stroke="black" points="436,-360 516,-360 "/>
<path fill="none" stroke="black" d="M516,-360C522,-360 528,-366 528,-372"/>
<polyline fill="none" stroke="black" points="528,-372 528,-384 "/>
<path fill="none" stroke="black" d="M528,-384C528,-390 522,-396 516,-396"/>
<text text-anchor="middle" x="476" y="-374.4" font-family="Times Roman,serif" font-size="14.00">SSHLocation</text>
</g>
<!-- SSHLocation&#45;&gt;EC2SecurityGroup -->
<g id="edge8" class="edge"><title>SSHLocation&#45;&gt;EC2SecurityGroup</title>
<path fill="none" stroke="black" d="M476,-359.831C476,-352.131 476,-342.974 476,-334.417"/>
<polygon fill="black" stroke="black" points="479.5,-334.413 476,-324.413 472.5,-334.413 479.5,-334.413"/>
</g>
<!-- DatabaseUser -->
<g id="node9" class="node"><title>DatabaseUser</title>
<polygon fill="lightgrey" stroke="lightgrey" points="100,-396 12,-396 2.84217e-14,-384 1.42109e-14,-372 12,-360 100,-360 112,-372 112,-384 100,-396"/>
<path fill="lightgrey" stroke="lightgrey" d="M12,-396C6,-396 3.55271e-14,-390 2.84217e-14,-384"/>
<path fill="lightgrey" stroke="lightgrey" d="M1.42109e-14,-372C7.10543e-15,-366 6,-360 12,-360"/>
<path fill="lightgrey" stroke="lightgrey" d="M100,-360C106,-360 112,-366 112,-372"/>
<path fill="lightgrey" stroke="lightgrey" d="M112,-384C112,-390 106,-396 100,-396"/>
<polyline fill="none" stroke="black" points="100,-396 12,-396 "/>
<path fill="none" stroke="black" d="M12,-396C6,-396 3.55271e-14,-390 2.84217e-14,-384"/>
<polyline fill="none" stroke="black" points="2.84217e-14,-384 1.42109e-14,-372 "/>
<path fill="none" stroke="black" d="M1.42109e-14,-372C7.10543e-15,-366 6,-360 12,-360"/>
<polyline fill="none" stroke="black" points="12,-360 100,-360 "/>
<path fill="none" stroke="black" d="M100,-360C106,-360 112,-366 112,-372"/>
<polyline fill="none" stroke="black" points="112,-372 112,-384 "/>
<path fill="none" stroke="black" d="M112,-384C112,-390 106,-396 100,-396"/>
<text text-anchor="middle" x="56" y="-374.4" font-family="Times Roman,serif" font-size="14.00">DatabaseUser</text>
</g>
<!-- DatabaseUser&#45;&gt;WordPressDatabase -->
<g id="edge12" class="edge"><title>DatabaseUser&#45;&gt;WordPressDatabase</title>
<path fill="none" stroke="black" d="M73.1256,-359.955C109.528,-321.6 194.697,-231.86 236.7,-187.604"/>
<polygon fill="black" stroke="black" points="239.434,-189.808 243.779,-180.145 234.356,-184.989 239.434,-189.808"/>
</g>
<!-- DatabaseUser&#45;&gt;WebServer -->
<g id="edge42" class="edge"><title>DatabaseUser&#45;&gt;WebServer</title>
<path fill="none" stroke="black" d="M59.1359,-359.738C67.9975,-314.326 97.7889,-196.205 175,-144 219.997,-113.576 583.412,-97.2141 725.425,-91.9316"/>
<polygon fill="black" stroke="black" points="725.798,-95.4203 735.663,-91.5557 725.541,-88.425 725.798,-95.4203"/>
</g>
<!-- DatabaseType -->
<g id="node10" class="node"><title>DatabaseType</title>
<polygon fill="lightgrey" stroke="lightgrey" points="230,-396 142,-396 130,-384 130,-372 142,-360 230,-360 242,-372 242,-384 230,-396"/>
<path fill="lightgrey" stroke="lightgrey" d="M142,-396C136,-396 130,-390 130,-384"/>
<path fill="lightgrey" stroke="lightgrey" d="M130,-372C130,-366 136,-360 142,-360"/>
<path fill="lightgrey" stroke="lightgrey" d="M230,-360C236,-360 242,-366 242,-372"/>
<path fill="lightgrey" stroke="lightgrey" d="M242,-384C242,-390 236,-396 230,-396"/>
<polyline fill="none" stroke="black" points="230,-396 142,-396 "/>
<path fill="none" stroke="black" d="M142,-396C136,-396 130,-390 130,-384"/>
<polyline fill="none" stroke="black" points="130,-384 130,-372 "/>
<path fill="none" stroke="black" d="M130,-372C130,-366 136,-360 142,-360"/>
<polyline fill="none" stroke="black" points="142,-360 230,-360 "/>
<path fill="none" stroke="black" d="M230,-360C236,-360 242,-366 242,-372"/>
<polyline fill="none" stroke="black" points="242,-372 242,-384 "/>
<path fill="none" stroke="black" d="M242,-384C242,-390 236,-396 230,-396"/>
<text text-anchor="middle" x="186" y="-374.4" font-family="Times Roman,serif" font-size="14.00">DatabaseType</text>
</g>
<!-- DatabaseType&#45;&gt;WordPressDatabase -->
<g id="edge16" class="edge"><title>DatabaseType&#45;&gt;WordPressDatabase</title>
<path fill="none" stroke="black" d="M192.265,-359.955C205.363,-322.235 235.716,-234.819 251.333,-189.84"/>
<polygon fill="black" stroke="black" points="254.726,-190.74 254.7,-180.145 248.113,-188.444 254.726,-190.74"/>
</g>
<!-- DatabasePassword -->
<g id="node11" class="node"><title>DatabasePassword</title>
<polygon fill="lightgrey" stroke="lightgrey" points="394,-396 272,-396 260,-384 260,-372 272,-360 394,-360 406,-372 406,-384 394,-396"/>
<path fill="lightgrey" stroke="lightgrey" d="M272,-396C266,-396 260,-390 260,-384"/>
<path fill="lightgrey" stroke="lightgrey" d="M260,-372C260,-366 266,-360 272,-360"/>
<path fill="lightgrey" stroke="lightgrey" d="M394,-360C400,-360 406,-366 406,-372"/>
<path fill="lightgrey" stroke="lightgrey" d="M406,-384C406,-390 400,-396 394,-396"/>
<polyline fill="none" stroke="black" points="394,-396 272,-396 "/>
<path fill="none" stroke="black" d="M272,-396C266,-396 260,-390 260,-384"/>
<polyline fill="none" stroke="black" points="260,-384 260,-372 "/>
<path fill="none" stroke="black" d="M260,-372C260,-366 266,-360 272,-360"/>
<polyline fill="none" stroke="black" points="272,-360 394,-360 "/>
<path fill="none" stroke="black" d="M394,-360C400,-360 406,-366 406,-372"/>
<polyline fill="none" stroke="black" points="406,-372 406,-384 "/>
<path fill="none" stroke="black" d="M406,-384C406,-390 400,-396 394,-396"/>
<text text-anchor="middle" x="333" y="-374.4" font-family="Times Roman,serif" font-size="14.00">DatabasePassword</text>
</g>
<!-- DatabasePassword&#45;&gt;WordPressDatabase -->
<g id="edge14" class="edge"><title>DatabasePassword&#45;&gt;WordPressDatabase</title>
<path fill="none" stroke="black" d="M326.985,-359.955C314.412,-322.235 285.273,-234.819 270.28,-189.84"/>
<polygon fill="black" stroke="black" points="273.531,-188.525 267.048,-180.145 266.89,-190.739 273.531,-188.525"/>
</g>
<!-- DatabasePassword&#45;&gt;WebServer -->
<g id="edge40" class="edge"><title>DatabasePassword&#45;&gt;WebServer</title>
<path fill="none" stroke="black" d="M334.007,-359.762C336.759,-326.943 346.998,-257.5 385,-216 431.4,-165.33 627.658,-120.459 725.733,-100.696"/>
<polygon fill="black" stroke="black" points="726.645,-104.083 735.766,-98.6932 725.274,-97.2188 726.645,-104.083"/>
</g>
<!-- KeyName -->
<g id="node12" class="node"><title>KeyName</title>
<polygon fill="lightgrey" stroke="lightgrey" points="614,-396 558,-396 546,-384 546,-372 558,-360 614,-360 626,-372 626,-384 614,-396"/>
<path fill="lightgrey" stroke="lightgrey" d="M558,-396C552,-396 546,-390 546,-384"/>
<path fill="lightgrey" stroke="lightgrey" d="M546,-372C546,-366 552,-360 558,-360"/>
<path fill="lightgrey" stroke="lightgrey" d="M614,-360C620,-360 626,-366 626,-372"/>
<path fill="lightgrey" stroke="lightgrey" d="M626,-384C626,-390 620,-396 614,-396"/>
<polyline fill="none" stroke="black" points="614,-396 558,-396 "/>
<path fill="none" stroke="black" d="M558,-396C552,-396 546,-390 546,-384"/>
<polyline fill="none" stroke="black" points="546,-384 546,-372 "/>
<path fill="none" stroke="black" d="M546,-372C546,-366 552,-360 558,-360"/>
<polyline fill="none" stroke="black" points="558,-360 614,-360 "/>
<path fill="none" stroke="black" d="M614,-360C620,-360 626,-366 626,-372"/>
<polyline fill="none" stroke="black" points="626,-372 626,-384 "/>
<path fill="none" stroke="black" d="M626,-384C626,-390 620,-396 614,-396"/>
<text text-anchor="middle" x="586" y="-374.4" font-family="Times Roman,serif" font-size="14.00">KeyName</text>
</g>
<!-- KeyName&#45;&gt;WebServer -->
<g id="edge24" class="edge"><title>KeyName&#45;&gt;WebServer</title>
<path fill="none" stroke="black" d="M598.261,-359.984C631.672,-310.89 724.454,-174.558 763.89,-116.611"/>
<polygon fill="black" stroke="black" points="767.011,-118.245 769.744,-108.009 761.224,-114.307 767.011,-118.245"/>
</g>
<!-- PuppetMasterDNSName -->
<g id="node13" class="node"><title>PuppetMasterDNSName</title>
<polygon fill="lightgrey" stroke="lightgrey" points="814,-396 656,-396 644,-384 644,-372 656,-360 814,-360 826,-372 826,-384 814,-396"/>
<path fill="lightgrey" stroke="lightgrey" d="M656,-396C650,-396 644,-390 644,-384"/>
<path fill="lightgrey" stroke="lightgrey" d="M644,-372C644,-366 650,-360 656,-360"/>
<path fill="lightgrey" stroke="lightgrey" d="M814,-360C820,-360 826,-366 826,-372"/>
<path fill="lightgrey" stroke="lightgrey" d="M826,-384C826,-390 820,-396 814,-396"/>
<polyline fill="none" stroke="black" points="814,-396 656,-396 "/>
<path fill="none" stroke="black" d="M656,-396C650,-396 644,-390 644,-384"/>
<polyline fill="none" stroke="black" points="644,-384 644,-372 "/>
<path fill="none" stroke="black" d="M644,-372C644,-366 650,-360 656,-360"/>
<polyline fill="none" stroke="black" points="656,-360 814,-360 "/>
<path fill="none" stroke="black" d="M814,-360C820,-360 826,-366 826,-372"/>
<polyline fill="none" stroke="black" points="826,-372 826,-384 "/>
<path fill="none" stroke="black" d="M826,-384C826,-390 820,-396 814,-396"/>
<text text-anchor="middle" x="735" y="-374.4" font-family="Times Roman,serif" font-size="14.00">PuppetMasterDNSName</text>
</g>
<!-- PuppetMasterDNSName&#45;&gt;WebServer -->
<g id="edge36" class="edge"><title>PuppetMasterDNSName&#45;&gt;WebServer</title>
<path fill="none" stroke="black" d="M735.024,-359.768C735.475,-319.949 738.754,-222.495 759,-144 761.305,-135.064 764.857,-125.693 768.486,-117.312"/>
<polygon fill="black" stroke="black" points="771.76,-118.567 772.711,-108.015 765.388,-115.671 771.76,-118.567"/>
</g>
<!-- InstanceType -->
<g id="node14" class="node"><title>InstanceType</title>
<polygon fill="lightgrey" stroke="lightgrey" points="938,-396 856,-396 844,-384 844,-372 856,-360 938,-360 950,-372 950,-384 938,-396"/>
<path fill="lightgrey" stroke="lightgrey" d="M856,-396C850,-396 844,-390 844,-384"/>
<path fill="lightgrey" stroke="lightgrey" d="M844,-372C844,-366 850,-360 856,-360"/>
<path fill="lightgrey" stroke="lightgrey" d="M938,-360C944,-360 950,-366 950,-372"/>
<path fill="lightgrey" stroke="lightgrey" d="M950,-384C950,-390 944,-396 938,-396"/>
<polyline fill="none" stroke="black" points="938,-396 856,-396 "/>
<path fill="none" stroke="black" d="M856,-396C850,-396 844,-390 844,-384"/>
<polyline fill="none" stroke="black" points="844,-384 844,-372 "/>
<path fill="none" stroke="black" d="M844,-372C844,-366 850,-360 856,-360"/>
<polyline fill="none" stroke="black" points="856,-360 938,-360 "/>
<path fill="none" stroke="black" d="M938,-360C944,-360 950,-366 950,-372"/>
<polyline fill="none" stroke="black" points="950,-372 950,-384 "/>
<path fill="none" stroke="black" d="M950,-384C950,-390 944,-396 938,-396"/>
<text text-anchor="middle" x="897" y="-374.4" font-family="Times Roman,serif" font-size="14.00">InstanceType</text>
</g>
<!-- InstanceType&#45;&gt;WebServer -->
<g id="edge30" class="edge"><title>InstanceType&#45;&gt;WebServer</title>
<path fill="none" stroke="black" d="M883.096,-359.993C862.751,-325.542 826.313,-247.7 801,-180 793.371,-159.595 786.104,-136.075 782.152,-118.196"/>
<polygon fill="black" stroke="black" points="785.539,-117.275 780.188,-108.131 778.668,-118.616 785.539,-117.275"/>
</g>
<!-- InstanceType&#45;&gt;WebServer -->
<g id="edge34" class="edge"><title>InstanceType&#45;&gt;WebServer</title>
<path fill="none" stroke="black" d="M893.443,-359.993C880.751,-325.542 844.313,-247.7 819,-180 811.299,-159.404 803.968,-135.633 797.439,-117.694"/>
<polygon fill="black" stroke="black" points="800.626,-116.228 793.794,-108.131 794.085,-118.721 800.626,-116.228"/>
</g>
<!-- PuppetClientSecurityGroup -->
<g id="node15" class="node"><title>PuppetClientSecurityGroup</title>
<polygon fill="lightgrey" stroke="lightgrey" points="1162,-396 980,-396 968,-384 968,-372 980,-360 1162,-360 1174,-372 1174,-384 1162,-396"/>
<path fill="lightgrey" stroke="lightgrey" d="M980,-396C974,-396 968,-390 968,-384"/>
<path fill="lightgrey" stroke="lightgrey" d="M968,-372C968,-366 974,-360 980,-360"/>
<path fill="lightgrey" stroke="lightgrey" d="M1162,-360C1168,-360 1174,-366 1174,-372"/>
<path fill="lightgrey" stroke="lightgrey" d="M1174,-384C1174,-390 1168,-396 1162,-396"/>
<polyline fill="none" stroke="black" points="1162,-396 980,-396 "/>
<path fill="none" stroke="black" d="M980,-396C974,-396 968,-390 968,-384"/>
<polyline fill="none" stroke="black" points="968,-384 968,-372 "/>
<path fill="none" stroke="black" d="M968,-372C968,-366 974,-360 980,-360"/>
<polyline fill="none" stroke="black" points="980,-360 1162,-360 "/>
<path fill="none" stroke="black" d="M1162,-360C1168,-360 1174,-366 1174,-372"/>
<polyline fill="none" stroke="black" points="1174,-372 1174,-384 "/>
<path fill="none" stroke="black" d="M1174,-384C1174,-390 1168,-396 1162,-396"/>
<text text-anchor="middle" x="1071" y="-374.4" font-family="Times Roman,serif" font-size="14.00">PuppetClientSecurityGroup</text>
</g>
<!-- PuppetClientSecurityGroup&#45;&gt;WebServer -->
<g id="edge26" class="edge"><title>PuppetClientSecurityGroup&#45;&gt;WebServer</title>
<path fill="none" stroke="black" d="M1068.16,-359.971C1059.93,-314.572 1031.57,-195.498 954,-144 919.113,-120.84 873.712,-107.138 838.315,-99.3348"/>
<polygon fill="black" stroke="black" points="838.652,-95.829 828.145,-97.1929 837.209,-102.679 838.652,-95.829"/>
</g>
<!-- AWS::Region -->
<g id="node26" class="node"><title>AWS::Region</title>
<polygon fill="none" stroke="black" points="923,-180 819,-180 819,-144 923,-144 923,-180"/>
<text text-anchor="middle" x="871" y="-158.4" font-family="Times Roman,serif" font-size="14.00">AWS::Region</text>
</g>
<!-- AWS::Region&#45;&gt;WebServer -->
<g id="edge32" class="edge"><title>AWS::Region&#45;&gt;WebServer</title>
<path fill="none" stroke="black" d="M842.589,-143.831C830.877,-135.048 817.511,-124.371 806.262,-114.849"/>
<polygon fill="black" stroke="black" points="808.361,-112.037 798.499,-108.163 803.792,-117.341 808.361,-112.037"/>
</g>
<!-- AWS::Region&#45;&gt;WebServer -->
<g id="edge18" class="edge"><title>AWS::Region&#45;&gt;WebServer</title>
<path fill="none" stroke="black" d="M854.494,-143.831C844.299,-134.878 830.955,-123.956 818.454,-114.295"/>
<polygon fill="black" stroke="black" points="820.479,-111.438 810.403,-108.163 816.237,-117.007 820.479,-111.438"/>
</g>
<!-- AWS::StackId -->
<g id="node28" class="node"><title>AWS::StackId</title>
<polygon fill="none" stroke="black" points="1006,-252 896,-252 896,-216 1006,-216 1006,-252"/>
<text text-anchor="middle" x="951" y="-230.4" font-family="Times Roman,serif" font-size="14.00">AWS::StackId</text>
</g>
<!-- AWS::StackId&#45;&gt;WebServer -->
<g id="edge20" class="edge"><title>AWS::StackId&#45;&gt;WebServer</title>
<path fill="none" stroke="black" d="M952.063,-215.862C952.232,-195.897 949.413,-163.988 932,-144 908.459,-116.977 870.356,-103.475 838.445,-96.7305"/>
<polygon fill="black" stroke="black" points="838.812,-93.2364 828.329,-94.7694 837.48,-100.109 838.812,-93.2364"/>
</g>
</g>
</svg>
