<?xml version="1.0" encoding="UTF-8" standalone="no"?>
<!DOCTYPE svg PUBLIC "-//W3C//DTD SVG 1.1//EN"
 "http://www.w3.org/Graphics/SVG/1.1/DTD/svg11.dtd">
<!-- Generated by graphviz version 2.26.3 (20100126.1600)
 -->
<!-- Title: Install a WordPress deployment using an Amazon RDS database instance for storage. This template demonstrates using the AWS CloudFormation bootstrap scripts to install Chef Solo and then Chef Solo is used to install a simple WordPress recipe. **WARNING** This template creates an Amazon EC2 instance and an RDS database. You will be billed for the AWS resources used if you create a stack from this template. Pages: 1 -->
<svg width="1478pt" height="620pt"
 viewBox="0.00 0.00 1478.00 620.00" xmlns="http://www.w3.org/2000/svg" xmlns:xlink="http://www.w3.org/1999/xlink">
<g id="graph1" class="graph" transform="scale(1 1) rotate(0) translate(4 616)">
<title>Install a WordPress deployment using an Amazon RDS database instance for storage. This template demonstrates using the AWS CloudFormation bootstrap scripts to install Chef Solo and then Chef Solo is used to install a simple WordPress recipe. **WARNING** This template creates an Amazon EC2 instance and an RDS database. You will be billed for the AWS resources used if you create a stack from this template.</title>
<polygon fill="white" stroke="white" points="-4,5 -4,-616 1475,-616 1475,5 -4,5"/>
<!-- FrontendGroup -->
<g id="node1" class="node"><title>FrontendGroup</title>
<polygon fill="none" stroke="black" points="1243,-396 1121,-396 1121,-360 1243,-360 1243,-396"/>
<text text-anchor="middle" x="1182" y="-374.4" font-family="Times Roman,serif" font-size="14.00">FrontendGroup</text>
</g>
<!-- DBSecurityGroup -->
<g id="node2" class="node"><title>DBSecurityGroup</title>
<polygon fill="none" stroke="black" points="1009,-324 873,-324 873,-288 1009,-288 1009,-324"/>
<text text-anchor="middle" x="941" y="-302.4" font-family="Times Roman,serif" font-size="14.00">DBSecurityGroup</text>
</g>
<!-- FrontendGroup&#45;&gt;DBSecurityGroup -->
<g id="edge8" class="edge"><title>FrontendGroup&#45;&gt;DBSecurityGroup</title>
<path fill="none" stroke="black" d="M1121.5,-359.924C1087.98,-349.91 1046.14,-337.412 1011.19,-326.97"/>
<polygon fill="black" stroke="black" points="1012.11,-323.592 1001.53,-324.083 1010.11,-330.299 1012.11,-323.592"/>
</g>
<!-- LaunchConfig -->
<g id="node5" class="node"><title>LaunchConfig</title>
<polygon fill="none" stroke="black" points="615,-180 505,-180 505,-144 615,-144 615,-180"/>
<text text-anchor="middle" x="560" y="-158.4" font-family="Times Roman,serif" font-size="14.00">LaunchConfig</text>
</g>
<!-- FrontendGroup&#45;&gt;LaunchConfig -->
<g id="edge34" class="edge"><title>FrontendGroup&#45;&gt;LaunchConfig</title>
<path fill="none" stroke="black" d="M1175.3,-359.783C1161.45,-325.037 1126.13,-249.756 1069,-216 1031.57,-193.882 753.913,-174.023 625.187,-165.895"/>
<polygon fill="black" stroke="black" points="625.264,-162.393 615.064,-165.261 624.826,-169.38 625.264,-162.393"/>
</g>
<!-- DBInstance -->
<g id="node10" class="node"><title>DBInstance</title>
<polygon fill="none" stroke="black" points="779,-252 683,-252 683,-216 779,-216 779,-252"/>
<text text-anchor="middle" x="731" y="-230.4" font-family="Times Roman,serif" font-size="14.00">DBInstance</text>
</g>
<!-- DBSecurityGroup&#45;&gt;DBInstance -->
<g id="edge58" class="edge"><title>DBSecurityGroup&#45;&gt;DBInstance</title>
<path fill="none" stroke="black" d="M888.279,-287.924C858.021,-277.55 819.986,-264.51 788.899,-253.851"/>
<polygon fill="black" stroke="black" points="789.664,-250.413 779.069,-250.481 787.394,-257.035 789.664,-250.413"/>
</g>
<!-- CfnUser -->
<g id="node3" class="node"><title>CfnUser</title>
<polygon fill="none" stroke="black" points="513,-468 443,-468 443,-432 513,-432 513,-468"/>
<text text-anchor="middle" x="478" y="-446.4" font-family="Times Roman,serif" font-size="14.00">CfnUser</text>
</g>
<!-- HostKeys -->
<g id="node8" class="node"><title>HostKeys</title>
<polygon fill="none" stroke="black" points="513,-252 433,-252 433,-216 513,-216 513,-252"/>
<text text-anchor="middle" x="473" y="-230.4" font-family="Times Roman,serif" font-size="14.00">HostKeys</text>
</g>
<!-- CfnUser&#45;&gt;HostKeys -->
<g id="edge52" class="edge"><title>CfnUser&#45;&gt;HostKeys</title>
<path fill="none" stroke="black" d="M477.582,-431.955C476.713,-394.394 474.703,-307.554 473.658,-262.41"/>
<polygon fill="black" stroke="black" points="477.151,-262.061 473.42,-252.145 470.152,-262.223 477.151,-262.061"/>
</g>
<!-- WebServerGroup -->
<g id="node4" class="node"><title>WebServerGroup</title>
<polygon fill="none" stroke="black" points="1199,-108 1063,-108 1063,-72 1199,-72 1199,-108"/>
<text text-anchor="middle" x="1131" y="-86.4" font-family="Times Roman,serif" font-size="14.00">WebServerGroup</text>
</g>
<!-- LaunchConfig&#45;&gt;WebServerGroup -->
<g id="edge16" class="edge"><title>LaunchConfig&#45;&gt;WebServerGroup</title>
<path fill="none" stroke="black" d="M615.009,-155.064C716.992,-142.204 935.664,-114.631 1052.92,-99.8453"/>
<polygon fill="black" stroke="black" points="1053.43,-103.309 1062.91,-98.5857 1052.55,-96.3644 1053.43,-103.309"/>
</g>
<!-- SSHGroup -->
<g id="node6" class="node"><title>SSHGroup</title>
<polygon fill="none" stroke="black" points="450,-396 362,-396 362,-360 450,-360 450,-396"/>
<text text-anchor="middle" x="406" y="-374.4" font-family="Times Roman,serif" font-size="14.00">SSHGroup</text>
</g>
<!-- SSHGroup&#45;&gt;LaunchConfig -->
<g id="edge32" class="edge"><title>SSHGroup&#45;&gt;LaunchConfig</title>
<path fill="none" stroke="black" d="M402.469,-359.773C397.269,-327.277 391.387,-258.746 424,-216 441.08,-193.614 468.864,-180.489 494.882,-172.804"/>
<polygon fill="black" stroke="black" points="496.014,-176.123 504.741,-170.116 494.173,-169.369 496.014,-176.123"/>
</g>
<!-- ElasticLoadBalancer -->
<g id="node7" class="node"><title>ElasticLoadBalancer</title>
<polygon fill="none" stroke="black" points="1312,-468 1158,-468 1158,-432 1312,-432 1312,-468"/>
<text text-anchor="middle" x="1235" y="-446.4" font-family="Times Roman,serif" font-size="14.00">ElasticLoadBalancer</text>
</g>
<!-- ElasticLoadBalancer&#45;&gt;FrontendGroup -->
<g id="edge4" class="edge"><title>ElasticLoadBalancer&#45;&gt;FrontendGroup</title>
<path fill="none" stroke="black" d="M1215.67,-431.831C1208.83,-423.623 1201.37,-413.761 1195.13,-404.732"/>
<polygon fill="black" stroke="black" points="1198.04,-402.788 1189.58,-396.413 1192.22,-406.674 1198.04,-402.788"/>
</g>
<!-- ElasticLoadBalancer&#45;&gt;FrontendGroup -->
<g id="edge6" class="edge"><title>ElasticLoadBalancer&#45;&gt;FrontendGroup</title>
<path fill="none" stroke="black" d="M1227.58,-431.831C1222.28,-423.539 1215.13,-413.557 1208.01,-404.453"/>
<polygon fill="black" stroke="black" points="1210.53,-402.005 1201.53,-396.413 1205.08,-406.396 1210.53,-402.005"/>
</g>
<!-- ElasticLoadBalancer&#45;&gt;WebServerGroup -->
<g id="edge12" class="edge"><title>ElasticLoadBalancer&#45;&gt;WebServerGroup</title>
<path fill="none" stroke="black" d="M1242.63,-431.726C1253.2,-404.732 1271,-352.385 1271,-306 1271,-306 1271,-306 1271,-234 1271,-179.102 1218.04,-137.262 1177.27,-113.184"/>
<polygon fill="black" stroke="black" points="1178.93,-110.104 1168.52,-108.172 1175.46,-116.179 1178.93,-110.104"/>
</g>
<!-- WebsiteURL -->
<g id="node23" class="node"><title>WebsiteURL</title>
<polygon fill="lightgrey" stroke="lightgrey" points="1458,-36 1382,-36 1370,-24 1370,-12 1382,-1.60583e-14 1458,-5.25802e-15 1470,-12 1470,-24 1458,-36"/>
<path fill="lightgrey" stroke="lightgrey" d="M1382,-36C1376,-36 1370,-30 1370,-24"/>
<path fill="lightgrey" stroke="lightgrey" d="M1370,-12C1370,-6 1376,-1.69109e-14 1382,-1.60583e-14"/>
<path fill="lightgrey" stroke="lightgrey" d="M1458,-5.25802e-15C1464,-4.40536e-15 1470,-6 1470,-12"/>
<path fill="lightgrey" stroke="lightgrey" d="M1470,-24C1470,-30 1464,-36 1458,-36"/>
<polyline fill="none" stroke="black" points="1458,-36 1382,-36 "/>
<path fill="none" stroke="black" d="M1382,-36C1376,-36 1370,-30 1370,-24"/>
<polyline fill="none" stroke="black" points="1370,-24 1370,-12 "/>
<path fill="none" stroke="black" d="M1370,-12C1370,-6 1376,-1.69109e-14 1382,-1.60583e-14"/>
<polyline fill="none" stroke="black" points="1382,-1.60583e-14 1458,-5.25802e-15 "/>
<path fill="none" stroke="black" d="M1458,-5.25802e-15C1464,-4.40536e-15 1470,-6 1470,-12"/>
<polyline fill="none" stroke="black" points="1470,-12 1470,-24 "/>
<path fill="none" stroke="black" d="M1470,-24C1470,-30 1464,-36 1458,-36"/>
<text text-anchor="middle" x="1420" y="-14.4" font-family="Times Roman,serif" font-size="14.00">WebsiteURL</text>
</g>
<!-- ElasticLoadBalancer&#45;&gt;WebsiteURL -->
<g id="edge68" class="edge"><title>ElasticLoadBalancer&#45;&gt;WebsiteURL</title>
<path fill="none" stroke="black" d="M1263.99,-431.975C1276.92,-422.643 1291.37,-410.222 1301,-396 1378.81,-281.042 1407.89,-112.484 1416.72,-46.2272"/>
<polygon fill="black" stroke="black" points="1420.21,-46.5031 1418.01,-36.1396 1413.27,-45.6144 1420.21,-46.5031"/>
</g>
<!-- InstallURL -->
<g id="node24" class="node"><title>InstallURL</title>
<polygon fill="lightgrey" stroke="lightgrey" points="1340,-36 1278,-36 1266,-24 1266,-12 1278,-1.57807e-14 1340,-5.53562e-15 1352,-12 1352,-24 1340,-36"/>
<path fill="lightgrey" stroke="lightgrey" d="M1278,-36C1272,-36 1266,-30 1266,-24"/>
<path fill="lightgrey" stroke="lightgrey" d="M1266,-12C1266,-6 1272,-1.67721e-14 1278,-1.57807e-14"/>
<path fill="lightgrey" stroke="lightgrey" d="M1340,-5.53562e-15C1346,-4.54417e-15 1352,-6 1352,-12"/>
<path fill="lightgrey" stroke="lightgrey" d="M1352,-24C1352,-30 1346,-36 1340,-36"/>
<polyline fill="none" stroke="black" points="1340,-36 1278,-36 "/>
<path fill="none" stroke="black" d="M1278,-36C1272,-36 1266,-30 1266,-24"/>
<polyline fill="none" stroke="black" points="1266,-24 1266,-12 "/>
<path fill="none" stroke="black" d="M1266,-12C1266,-6 1272,-1.67721e-14 1278,-1.57807e-14"/>
<polyline fill="none" stroke="black" points="1278,-1.57807e-14 1340,-5.53562e-15 "/>
<path fill="none" stroke="black" d="M1340,-5.53562e-15C1346,-4.54417e-15 1352,-6 1352,-12"/>
<polyline fill="none" stroke="black" points="1352,-12 1352,-24 "/>
<path fill="none" stroke="black" d="M1352,-24C1352,-30 1346,-36 1340,-36"/>
<text text-anchor="middle" x="1309" y="-14.4" font-family="Times Roman,serif" font-size="14.00">InstallURL</text>
</g>
<!-- ElasticLoadBalancer&#45;&gt;InstallURL -->
<g id="edge70" class="edge"><title>ElasticLoadBalancer&#45;&gt;InstallURL</title>
<path fill="none" stroke="black" d="M1251.42,-431.976C1273.22,-406.106 1309,-356.032 1309,-306 1309,-306 1309,-306 1309,-162 1309,-121.876 1309,-75.4631 1309,-46.4177"/>
<polygon fill="black" stroke="black" points="1312.5,-46.1853 1309,-36.1854 1305.5,-46.1854 1312.5,-46.1853"/>
</g>
<!-- HostKeys&#45;&gt;LaunchConfig -->
<g id="edge24" class="edge"><title>HostKeys&#45;&gt;LaunchConfig</title>
<path fill="none" stroke="black" d="M489.001,-215.831C498.853,-206.963 511.74,-196.164 523.871,-186.572"/>
<polygon fill="black" stroke="black" points="526.362,-189.068 532.101,-180.163 522.061,-183.545 526.362,-189.068"/>
</g>
<!-- HostKeys&#45;&gt;LaunchConfig -->
<g id="edge22" class="edge"><title>HostKeys&#45;&gt;LaunchConfig</title>
<path fill="none" stroke="black" d="M500.906,-215.831C512.375,-207.048 525.444,-196.371 536.428,-186.849"/>
<polygon fill="black" stroke="black" points="538.823,-189.404 544.005,-180.163 534.191,-184.155 538.823,-189.404"/>
</g>
<!-- WaitCondition -->
<g id="node9" class="node"><title>WaitCondition</title>
<polygon fill="none" stroke="black" points="177,-108 63,-108 63,-72 177,-72 177,-108"/>
<text text-anchor="middle" x="120" y="-86.4" font-family="Times Roman,serif" font-size="14.00">WaitCondition</text>
</g>
<!-- DBInstance&#45;&gt;LaunchConfig -->
<g id="edge42" class="edge"><title>DBInstance&#45;&gt;LaunchConfig</title>
<path fill="none" stroke="black" d="M687.849,-215.831C664.878,-206.159 636.449,-194.189 612.237,-183.994"/>
<polygon fill="black" stroke="black" points="613.415,-180.693 602.84,-180.038 610.698,-187.144 613.415,-180.693"/>
</g>
<!-- WaitHandle -->
<g id="node11" class="node"><title>WaitHandle</title>
<polygon fill="none" stroke="black" points="168,-252 72,-252 72,-216 168,-216 168,-252"/>
<text text-anchor="middle" x="120" y="-230.4" font-family="Times Roman,serif" font-size="14.00">WaitHandle</text>
</g>
<!-- WaitHandle&#45;&gt;LaunchConfig -->
<g id="edge28" class="edge"><title>WaitHandle&#45;&gt;LaunchConfig</title>
<path fill="none" stroke="black" d="M168.233,-219.285C172.864,-218.088 177.508,-216.968 182,-216 290.467,-192.628 418.686,-176.735 494.46,-168.531"/>
<polygon fill="black" stroke="black" points="495.226,-171.969 504.797,-167.425 494.481,-165.009 495.226,-171.969"/>
</g>
<!-- WaitHandle&#45;&gt;WaitCondition -->
<g id="edge54" class="edge"><title>WaitHandle&#45;&gt;WaitCondition</title>
<path fill="none" stroke="black" d="M120,-215.762C120,-191.201 120,-147.247 120,-118.354"/>
<polygon fill="black" stroke="black" points="123.5,-118.09 120,-108.09 116.5,-118.09 123.5,-118.09"/>
</g>
<!-- FrontendType -->
<g id="node13" class="node"><title>FrontendType</title>
<polygon fill="lightgrey" stroke="lightgrey" points="248,-612 162,-612 150,-600 150,-588 162,-576 248,-576 260,-588 260,-600 248,-612"/>
<path fill="lightgrey" stroke="lightgrey" d="M162,-612C156,-612 150,-606 150,-600"/>
<path fill="lightgrey" stroke="lightgrey" d="M150,-588C150,-582 156,-576 162,-576"/>
<path fill="lightgrey" stroke="lightgrey" d="M248,-576C254,-576 260,-582 260,-588"/>
<path fill="lightgrey" stroke="lightgrey" d="M260,-600C260,-606 254,-612 248,-612"/>
<polyline fill="none" stroke="black" points="248,-612 162,-612 "/>
<path fill="none" stroke="black" d="M162,-612C156,-612 150,-606 150,-600"/>
<polyline fill="none" stroke="black" points="150,-600 150,-588 "/>
<path fill="none" stroke="black" d="M150,-588C150,-582 156,-576 162,-576"/>
<polyline fill="none" stroke="black" points="162,-576 248,-576 "/>
<path fill="none" stroke="black" d="M248,-576C254,-576 260,-582 260,-588"/>
<polyline fill="none" stroke="black" points="260,-588 260,-600 "/>
<path fill="none" stroke="black" d="M260,-600C260,-606 254,-612 248,-612"/>
<text text-anchor="middle" x="205" y="-590.4" font-family="Times Roman,serif" font-size="14.00">FrontendType</text>
</g>
<!-- FrontendType&#45;&gt;LaunchConfig -->
<g id="edge36" class="edge"><title>FrontendType&#45;&gt;LaunchConfig</title>
<path fill="none" stroke="black" d="M199.181,-575.815C196,-548.498 196,-495.25 196,-450 196,-450 196,-450 196,-306 196,-243.019 390.297,-194.412 495.05,-173.382"/>
<polygon fill="black" stroke="black" points="495.768,-176.808 504.898,-171.433 494.409,-169.941 495.768,-176.808"/>
</g>
<!-- FrontendType&#45;&gt;LaunchConfig -->
<g id="edge40" class="edge"><title>FrontendType&#45;&gt;LaunchConfig</title>
<path fill="none" stroke="black" d="M210.819,-575.815C214,-548.498 214,-495.25 214,-450 214,-450 214,-450 214,-306 214,-245.316 394.382,-197.977 494.725,-175.792"/>
<polygon fill="black" stroke="black" points="495.748,-179.151 504.769,-173.596 494.253,-172.313 495.748,-179.151"/>
</g>
<!-- DBClass -->
<g id="node14" class="node"><title>DBClass</title>
<polygon fill="lightgrey" stroke="lightgrey" points="761,-612 713,-612 701,-600 701,-588 713,-576 761,-576 773,-588 773,-600 761,-612"/>
<path fill="lightgrey" stroke="lightgrey" d="M713,-612C707,-612 701,-606 701,-600"/>
<path fill="lightgrey" stroke="lightgrey" d="M701,-588C701,-582 707,-576 713,-576"/>
<path fill="lightgrey" stroke="lightgrey" d="M761,-576C767,-576 773,-582 773,-588"/>
<path fill="lightgrey" stroke="lightgrey" d="M773,-600C773,-606 767,-612 761,-612"/>
<polyline fill="none" stroke="black" points="761,-612 713,-612 "/>
<path fill="none" stroke="black" d="M713,-612C707,-612 701,-606 701,-600"/>
<polyline fill="none" stroke="black" points="701,-600 701,-588 "/>
<path fill="none" stroke="black" d="M701,-588C701,-582 707,-576 713,-576"/>
<polyline fill="none" stroke="black" points="713,-576 761,-576 "/>
<path fill="none" stroke="black" d="M761,-576C767,-576 773,-582 773,-588"/>
<polyline fill="none" stroke="black" points="773,-588 773,-600 "/>
<path fill="none" stroke="black" d="M773,-600C773,-606 767,-612 761,-612"/>
<text text-anchor="middle" x="737" y="-590.4" font-family="Times Roman,serif" font-size="14.00">DBClass</text>
</g>
<!-- DBClass&#45;&gt;DBInstance -->
<g id="edge64" class="edge"><title>DBClass&#45;&gt;DBInstance</title>
<path fill="none" stroke="black" d="M735.757,-575.825C733.999,-548.521 731,-495.289 731,-450 731,-450 731,-450 731,-378 731,-337.876 731,-291.463 731,-262.418"/>
<polygon fill="black" stroke="black" points="734.5,-262.185 731,-252.185 727.5,-262.185 734.5,-262.185"/>
</g>
<!-- MaxSize -->
<g id="node15" class="node"><title>MaxSize</title>
<polygon fill="lightgrey" stroke="lightgrey" points="1410,-612 1360,-612 1348,-600 1348,-588 1360,-576 1410,-576 1422,-588 1422,-600 1410,-612"/>
<path fill="lightgrey" stroke="lightgrey" d="M1360,-612C1354,-612 1348,-606 1348,-600"/>
<path fill="lightgrey" stroke="lightgrey" d="M1348,-588C1348,-582 1354,-576 1360,-576"/>
<path fill="lightgrey" stroke="lightgrey" d="M1410,-576C1416,-576 1422,-582 1422,-588"/>
<path fill="lightgrey" stroke="lightgrey" d="M1422,-600C1422,-606 1416,-612 1410,-612"/>
<polyline fill="none" stroke="black" points="1410,-612 1360,-612 "/>
<path fill="none" stroke="black" d="M1360,-612C1354,-612 1348,-606 1348,-600"/>
<polyline fill="none" stroke="black" points="1348,-600 1348,-588 "/>
<path fill="none" stroke="black" d="M1348,-588C1348,-582 1354,-576 1360,-576"/>
<polyline fill="none" stroke="black" points="1360,-576 1410,-576 "/>
<path fill="none" stroke="black" d="M1410,-576C1416,-576 1422,-582 1422,-588"/>
<polyline fill="none" stroke="black" points="1422,-588 1422,-600 "/>
<path fill="none" stroke="black" d="M1422,-600C1422,-606 1416,-612 1410,-612"/>
<text text-anchor="middle" x="1385" y="-590.4" font-family="Times Roman,serif" font-size="14.00">MaxSize</text>
</g>
<!-- MaxSize&#45;&gt;WebServerGroup -->
<g id="edge14" class="edge"><title>MaxSize&#45;&gt;WebServerGroup</title>
<path fill="none" stroke="black" d="M1385,-575.815C1385,-548.498 1385,-495.25 1385,-450 1385,-450 1385,-450 1385,-306 1385,-205.801 1268.87,-142.35 1193.66,-111.761"/>
<polygon fill="black" stroke="black" points="1194.83,-108.461 1184.25,-108.017 1192.24,-114.965 1194.83,-108.461"/>
</g>
<!-- KeyName -->
<g id="node16" class="node"><title>KeyName</title>
<polygon fill="lightgrey" stroke="lightgrey" points="465,-612 409,-612 397,-600 397,-588 409,-576 465,-576 477,-588 477,-600 465,-612"/>
<path fill="lightgrey" stroke="lightgrey" d="M409,-612C403,-612 397,-606 397,-600"/>
<path fill="lightgrey" stroke="lightgrey" d="M397,-588C397,-582 403,-576 409,-576"/>
<path fill="lightgrey" stroke="lightgrey" d="M465,-576C471,-576 477,-582 477,-588"/>
<path fill="lightgrey" stroke="lightgrey" d="M477,-600C477,-606 471,-612 465,-612"/>
<polyline fill="none" stroke="black" points="465,-612 409,-612 "/>
<path fill="none" stroke="black" d="M409,-612C403,-612 397,-606 397,-600"/>
<polyline fill="none" stroke="black" points="397,-600 397,-588 "/>
<path fill="none" stroke="black" d="M397,-588C397,-582 403,-576 409,-576"/>
<polyline fill="none" stroke="black" points="409,-576 465,-576 "/>
<path fill="none" stroke="black" d="M465,-576C471,-576 477,-582 477,-588"/>
<polyline fill="none" stroke="black" points="477,-588 477,-600 "/>
<path fill="none" stroke="black" d="M477,-600C477,-606 471,-612 465,-612"/>
<text text-anchor="middle" x="437" y="-590.4" font-family="Times Roman,serif" font-size="14.00">KeyName</text>
</g>
<!-- KeyName&#45;&gt;LaunchConfig -->
<g id="edge30" class="edge"><title>KeyName&#45;&gt;LaunchConfig</title>
<path fill="none" stroke="black" d="M461.911,-575.871C492.678,-551.171 541,-503.813 541,-450 541,-450 541,-450 541,-306 541,-265.528 548.468,-219.204 554.04,-190.272"/>
<polygon fill="black" stroke="black" points="557.548,-190.575 556.063,-180.084 550.682,-189.211 557.548,-190.575"/>
</g>
<!-- DBPassword -->
<g id="node17" class="node"><title>DBPassword</title>
<polygon fill="lightgrey" stroke="lightgrey" points="585,-612 507,-612 495,-600 495,-588 507,-576 585,-576 597,-588 597,-600 585,-612"/>
<path fill="lightgrey" stroke="lightgrey" d="M507,-612C501,-612 495,-606 495,-600"/>
<path fill="lightgrey" stroke="lightgrey" d="M495,-588C495,-582 501,-576 507,-576"/>
<path fill="lightgrey" stroke="lightgrey" d="M585,-576C591,-576 597,-582 597,-588"/>
<path fill="lightgrey" stroke="lightgrey" d="M597,-600C597,-606 591,-612 585,-612"/>
<polyline fill="none" stroke="black" points="585,-612 507,-612 "/>
<path fill="none" stroke="black" d="M507,-612C501,-612 495,-606 495,-600"/>
<polyline fill="none" stroke="black" points="495,-600 495,-588 "/>
<path fill="none" stroke="black" d="M495,-588C495,-582 501,-576 507,-576"/>
<polyline fill="none" stroke="black" points="507,-576 585,-576 "/>
<path fill="none" stroke="black" d="M585,-576C591,-576 597,-582 597,-588"/>
<polyline fill="none" stroke="black" points="597,-588 597,-600 "/>
<path fill="none" stroke="black" d="M597,-600C597,-606 591,-612 585,-612"/>
<text text-anchor="middle" x="546" y="-590.4" font-family="Times Roman,serif" font-size="14.00">DBPassword</text>
</g>
<!-- DBPassword&#45;&gt;LaunchConfig -->
<g id="edge44" class="edge"><title>DBPassword&#45;&gt;LaunchConfig</title>
<path fill="none" stroke="black" d="M552.998,-575.668C562.685,-548.603 579,-496.167 579,-450 579,-450 579,-450 579,-306 579,-265.528 571.532,-219.204 565.96,-190.272"/>
<polygon fill="black" stroke="black" points="569.318,-189.211 563.937,-180.084 562.452,-190.575 569.318,-189.211"/>
</g>
<!-- DBPassword&#45;&gt;DBInstance -->
<g id="edge62" class="edge"><title>DBPassword&#45;&gt;DBInstance</title>
<path fill="none" stroke="black" d="M564.614,-575.715C574,-565.779 585.047,-552.91 593,-540 656.459,-436.983 639.962,-395.235 696,-288 700.762,-278.888 706.623,-269.348 712.178,-260.866"/>
<polygon fill="black" stroke="black" points="715.143,-262.729 717.797,-252.472 709.326,-258.835 715.143,-262.729"/>
</g>
<!-- DBUser -->
<g id="node18" class="node"><title>DBUser</title>
<polygon fill="lightgrey" stroke="lightgrey" points="671,-612 627,-612 615,-600 615,-588 627,-576 671,-576 683,-588 683,-600 671,-612"/>
<path fill="lightgrey" stroke="lightgrey" d="M627,-612C621,-612 615,-606 615,-600"/>
<path fill="lightgrey" stroke="lightgrey" d="M615,-588C615,-582 621,-576 627,-576"/>
<path fill="lightgrey" stroke="lightgrey" d="M671,-576C677,-576 683,-582 683,-588"/>
<path fill="lightgrey" stroke="lightgrey" d="M683,-600C683,-606 677,-612 671,-612"/>
<polyline fill="none" stroke="black" points="671,-612 627,-612 "/>
<path fill="none" stroke="black" d="M627,-612C621,-612 615,-606 615,-600"/>
<polyline fill="none" stroke="black" points="615,-600 615,-588 "/>
<path fill="none" stroke="black" d="M615,-588C615,-582 621,-576 627,-576"/>
<polyline fill="none" stroke="black" points="627,-576 671,-576 "/>
<path fill="none" stroke="black" d="M671,-576C677,-576 683,-582 683,-588"/>
<polyline fill="none" stroke="black" points="683,-588 683,-600 "/>
<path fill="none" stroke="black" d="M683,-600C683,-606 677,-612 671,-612"/>
<text text-anchor="middle" x="649" y="-590.4" font-family="Times Roman,serif" font-size="14.00">DBUser</text>
</g>
<!-- DBUser&#45;&gt;LaunchConfig -->
<g id="edge46" class="edge"><title>DBUser&#45;&gt;LaunchConfig</title>
<path fill="none" stroke="black" d="M648.11,-575.807C644.973,-520.417 632.116,-349.492 588,-216 585.015,-206.966 580.663,-197.603 576.276,-189.261"/>
<polygon fill="black" stroke="black" points="579.262,-187.427 571.379,-180.348 573.127,-190.798 579.262,-187.427"/>
</g>
<!-- DBUser&#45;&gt;DBInstance -->
<g id="edge60" class="edge"><title>DBUser&#45;&gt;DBInstance</title>
<path fill="none" stroke="black" d="M658.331,-575.903C671.247,-549.13 693,-497.054 693,-450 693,-450 693,-450 693,-378 693,-336.368 708.033,-290.14 719.188,-261.567"/>
<polygon fill="black" stroke="black" points="722.458,-262.817 722.941,-252.233 715.963,-260.206 722.458,-262.817"/>
</g>
<!-- MultiAZDatabase -->
<g id="node19" class="node"><title>MultiAZDatabase</title>
<polygon fill="lightgrey" stroke="lightgrey" points="915,-612 803,-612 791,-600 791,-588 803,-576 915,-576 927,-588 927,-600 915,-612"/>
<path fill="lightgrey" stroke="lightgrey" d="M803,-612C797,-612 791,-606 791,-600"/>
<path fill="lightgrey" stroke="lightgrey" d="M791,-588C791,-582 797,-576 803,-576"/>
<path fill="lightgrey" stroke="lightgrey" d="M915,-576C921,-576 927,-582 927,-588"/>
<path fill="lightgrey" stroke="lightgrey" d="M927,-600C927,-606 921,-612 915,-612"/>
<polyline fill="none" stroke="black" points="915,-612 803,-612 "/>
<path fill="none" stroke="black" d="M803,-612C797,-612 791,-606 791,-600"/>
<polyline fill="none" stroke="black" points="791,-600 791,-588 "/>
<path fill="none" stroke="black" d="M791,-588C791,-582 797,-576 803,-576"/>
<polyline fill="none" stroke="black" points="803,-576 915,-576 "/>
<path fill="none" stroke="black" d="M915,-576C921,-576 927,-582 927,-588"/>
<polyline fill="none" stroke="black" points="927,-588 927,-600 "/>
<path fill="none" stroke="black" d="M927,-600C927,-606 921,-612 915,-612"/>
<text text-anchor="middle" x="859" y="-590.4" font-family="Times Roman,serif" font-size="14.00">MultiAZDatabase</text>
</g>
<!-- MultiAZDatabase&#45;&gt;DBInstance -->
<g id="edge56" class="edge"><title>MultiAZDatabase&#45;&gt;DBInstance</title>
<path fill="none" stroke="black" d="M829.388,-575.922C816.484,-566.658 802.228,-554.308 793,-540 770.562,-505.211 769,-491.398 769,-450 769,-450 769,-450 769,-378 769,-336.368 753.967,-290.14 742.812,-261.567"/>
<polygon fill="black" stroke="black" points="746.037,-260.206 739.059,-252.233 739.542,-262.817 746.037,-260.206"/>
</g>
<!-- DBName -->
<g id="node20" class="node"><title>DBName</title>
<polygon fill="lightgrey" stroke="lightgrey" points="1009,-612 957,-612 945,-600 945,-588 957,-576 1009,-576 1021,-588 1021,-600 1009,-612"/>
<path fill="lightgrey" stroke="lightgrey" d="M957,-612C951,-612 945,-606 945,-600"/>
<path fill="lightgrey" stroke="lightgrey" d="M945,-588C945,-582 951,-576 957,-576"/>
<path fill="lightgrey" stroke="lightgrey" d="M1009,-576C1015,-576 1021,-582 1021,-588"/>
<path fill="lightgrey" stroke="lightgrey" d="M1021,-600C1021,-606 1015,-612 1009,-612"/>
<polyline fill="none" stroke="black" points="1009,-612 957,-612 "/>
<path fill="none" stroke="black" d="M957,-612C951,-612 945,-606 945,-600"/>
<polyline fill="none" stroke="black" points="945,-600 945,-588 "/>
<path fill="none" stroke="black" d="M945,-588C945,-582 951,-576 957,-576"/>
<polyline fill="none" stroke="black" points="957,-576 1009,-576 "/>
<path fill="none" stroke="black" d="M1009,-576C1015,-576 1021,-582 1021,-588"/>
<polyline fill="none" stroke="black" points="1021,-588 1021,-600 "/>
<path fill="none" stroke="black" d="M1021,-600C1021,-606 1015,-612 1009,-612"/>
<text text-anchor="middle" x="983" y="-590.4" font-family="Times Roman,serif" font-size="14.00">DBName</text>
</g>
<!-- DBName&#45;&gt;LaunchConfig -->
<g id="edge48" class="edge"><title>DBName&#45;&gt;LaunchConfig</title>
<path fill="none" stroke="black" d="M946.381,-575.891C905.498,-552.791 845,-508.692 845,-450 845,-450 845,-450 845,-306 845,-208.115 709.416,-176.754 625.281,-166.716"/>
<polygon fill="black" stroke="black" points="625.617,-163.232 615.289,-165.594 624.836,-170.188 625.617,-163.232"/>
</g>
<!-- DBName&#45;&gt;DBInstance -->
<g id="edge66" class="edge"><title>DBName&#45;&gt;DBInstance</title>
<path fill="none" stroke="black" d="M944.823,-579.249C941.842,-578.137 938.875,-577.043 936,-576 889.624,-559.175 864.647,-576.078 831,-540 802.765,-509.725 807,-491.398 807,-450 807,-450 807,-450 807,-378 807,-332.656 777.162,-287.6 754.877,-260.273"/>
<polygon fill="black" stroke="black" points="757.359,-257.786 748.246,-252.381 751.999,-262.289 757.359,-257.786"/>
</g>
<!-- GroupSize -->
<g id="node21" class="node"><title>GroupSize</title>
<polygon fill="lightgrey" stroke="lightgrey" points="76,-612 12,-612 2.84217e-14,-600 1.42109e-14,-588 12,-576 76,-576 88,-588 88,-600 76,-612"/>
<path fill="lightgrey" stroke="lightgrey" d="M12,-612C6,-612 3.55271e-14,-606 2.84217e-14,-600"/>
<path fill="lightgrey" stroke="lightgrey" d="M1.42109e-14,-588C7.10543e-15,-582 6,-576 12,-576"/>
<path fill="lightgrey" stroke="lightgrey" d="M76,-576C82,-576 88,-582 88,-588"/>
<path fill="lightgrey" stroke="lightgrey" d="M88,-600C88,-606 82,-612 76,-612"/>
<polyline fill="none" stroke="black" points="76,-612 12,-612 "/>
<path fill="none" stroke="black" d="M12,-612C6,-612 3.55271e-14,-606 2.84217e-14,-600"/>
<polyline fill="none" stroke="black" points="2.84217e-14,-600 1.42109e-14,-588 "/>
<path fill="none" stroke="black" d="M1.42109e-14,-588C7.10543e-15,-582 6,-576 12,-576"/>
<polyline fill="none" stroke="black" points="12,-576 76,-576 "/>
<path fill="none" stroke="black" d="M76,-576C82,-576 88,-582 88,-588"/>
<polyline fill="none" stroke="black" points="88,-588 88,-600 "/>
<path fill="none" stroke="black" d="M88,-600C88,-606 82,-612 76,-612"/>
<text text-anchor="middle" x="44" y="-590.4" font-family="Times Roman,serif" font-size="14.00">GroupSize</text>
</g>
<!-- GroupSize&#45;&gt;WebServerGroup -->
<g id="edge10" class="edge"><title>GroupSize&#45;&gt;WebServerGroup</title>
<path fill="none" stroke="black" d="M44,-575.815C44,-548.498 44,-495.25 44,-450 44,-450 44,-450 44,-234 44,-132.198 802.947,-99.9833 1052.51,-92.1421"/>
<polygon fill="black" stroke="black" points="1052.7,-95.6379 1062.59,-91.83 1052.49,-88.6412 1052.7,-95.6379"/>
</g>
<!-- AWS::Region -->
<g id="node32" class="node"><title>AWS::Region</title>
<polygon fill="none" stroke="black" points="1121,-540 1017,-540 1017,-504 1121,-504 1121,-540"/>
<text text-anchor="middle" x="1069" y="-518.4" font-family="Times Roman,serif" font-size="14.00">AWS::Region</text>
</g>
<!-- AWS::Region&#45;&gt;WebServerGroup -->
<g id="edge18" class="edge"><title>AWS::Region&#45;&gt;WebServerGroup</title>
<path fill="none" stroke="black" d="M1071.59,-503.987C1081.24,-436.745 1115.2,-200.079 1126.96,-118.158"/>
<polygon fill="black" stroke="black" points="1130.45,-118.485 1128.4,-108.089 1123.52,-117.491 1130.45,-118.485"/>
</g>
<!-- AWS::Region&#45;&gt;LaunchConfig -->
<g id="edge26" class="edge"><title>AWS::Region&#45;&gt;LaunchConfig</title>
<path fill="none" stroke="black" d="M1058.42,-503.962C1048.5,-476.834 1037,-423.824 1037,-378 1037,-378 1037,-378 1037,-306 1037,-220.427 756.508,-181.765 625.65,-168.125"/>
<polygon fill="black" stroke="black" points="625.66,-164.608 615.356,-167.072 624.948,-171.572 625.66,-164.608"/>
</g>
<!-- AWS::Region&#45;&gt;LaunchConfig -->
<g id="edge38" class="edge"><title>AWS::Region&#45;&gt;LaunchConfig</title>
<path fill="none" stroke="black" d="M1070.05,-503.962C1066.5,-476.834 1055,-423.824 1055,-378 1055,-378 1055,-378 1055,-306 1055,-218.197 759.699,-179.782 625.206,-167.109"/>
<polygon fill="black" stroke="black" points="625.31,-163.604 615.031,-166.171 624.667,-170.575 625.31,-163.604"/>
</g>
<!-- AWS::Region&#45;&gt;ElasticLoadBalancer -->
<g id="edge50" class="edge"><title>AWS::Region&#45;&gt;ElasticLoadBalancer</title>
<path fill="none" stroke="black" d="M1110.89,-503.831C1133.09,-494.202 1160.54,-482.295 1183.98,-472.13"/>
<polygon fill="black" stroke="black" points="1185.63,-475.228 1193.41,-468.038 1182.85,-468.806 1185.63,-475.228"/>
</g>
<!-- AWS::StackName -->
<g id="node34" class="node"><title>AWS::StackName</title>
<polygon fill="none" stroke="black" points="378,-324 242,-324 242,-288 378,-288 378,-324"/>
<text text-anchor="middle" x="310" y="-302.4" font-family="Times Roman,serif" font-size="14.00">AWS::StackName</text>
</g>
<!-- AWS::StackName&#45;&gt;LaunchConfig -->
<g id="edge20" class="edge"><title>AWS::StackName&#45;&gt;LaunchConfig</title>
<path fill="none" stroke="black" d="M321.871,-287.838C336.028,-267.546 361.514,-235.051 391,-216 422.3,-195.777 461.762,-182.608 494.679,-174.342"/>
<polygon fill="black" stroke="black" points="495.768,-177.68 504.668,-171.932 494.126,-170.875 495.768,-177.68"/>
</g>
</g>
</svg>
