<?xml version="1.0" encoding="UTF-8" standalone="no"?>
<!DOCTYPE svg PUBLIC "-//W3C//DTD SVG 1.1//EN"
 "http://www.w3.org/Graphics/SVG/1.1/DTD/svg11.dtd">
<!-- Generated by graphviz version 2.26.3 (20100126.1600)
 -->
<!-- Title: Sample template to bring up an Opscode Chef Client using the BootStrap Chef RubyGems installation. A WaitCondition is used to hold up the stack creation until the application is deployed. **WARNING** This template creates one or more Amazon EC2 instances. You will be billed for the AWS resources used if you create a stack from this template. Pages: 1 -->
<svg width="906pt" height="332pt"
 viewBox="0.00 0.00 906.00 332.00" xmlns="http://www.w3.org/2000/svg" xmlns:xlink="http://www.w3.org/1999/xlink">
<g id="graph1" class="graph" transform="scale(1 1) rotate(0) translate(4 328)">
<title>Sample template to bring up an Opscode Chef Client using the BootStrap Chef RubyGems installation. A WaitCondition is used to hold up the stack creation until the application is deployed. **WARNING** This template creates one or more Amazon EC2 instances. You will be billed for the AWS resources used if you create a stack from this template.</title>
<polygon fill="white" stroke="white" points="-4,5 -4,-328 903,-328 903,5 -4,5"/>
<!-- ChefClientWaitHandle -->
<g id="node1" class="node"><title>ChefClientWaitHandle</title>
<polygon fill="none" stroke="black" points="177,-180 9,-180 9,-144 177,-144 177,-180"/>
<text text-anchor="middle" x="93" y="-158.4" font-family="Times Roman,serif" font-size="14.00">ChefClientWaitHandle</text>
</g>
<!-- ChefClientWaitCondition -->
<g id="node4" class="node"><title>ChefClientWaitCondition</title>
<polygon fill="none" stroke="black" points="186,-108 7.10543e-14,-108 0,-72 186,-72 186,-108"/>
<text text-anchor="middle" x="93" y="-86.4" font-family="Times Roman,serif" font-size="14.00">ChefClientWaitCondition</text>
</g>
<!-- ChefClientWaitHandle&#45;&gt;ChefClientWaitCondition -->
<g id="edge4" class="edge"><title>ChefClientWaitHandle&#45;&gt;ChefClientWaitCondition</title>
<path fill="none" stroke="black" d="M93,-143.831C93,-136.131 93,-126.974 93,-118.417"/>
<polygon fill="black" stroke="black" points="96.5001,-118.413 93,-108.413 89.5001,-118.413 96.5001,-118.413"/>
</g>
<!-- ChefClient -->
<g id="node6" class="node"><title>ChefClient</title>
<polygon fill="none" stroke="black" points="562,-108 474,-108 474,-72 562,-72 562,-108"/>
<text text-anchor="middle" x="518" y="-86.4" font-family="Times Roman,serif" font-size="14.00">ChefClient</text>
</g>
<!-- ChefClientWaitHandle&#45;&gt;ChefClient -->
<g id="edge30" class="edge"><title>ChefClientWaitHandle&#45;&gt;ChefClient</title>
<path fill="none" stroke="black" d="M177.103,-144.858C178.747,-144.568 180.381,-144.282 182,-144 280.868,-126.758 396.808,-107.944 463.508,-97.7037"/>
<polygon fill="black" stroke="black" points="464.423,-101.105 473.78,-96.1354 463.367,-94.1848 464.423,-101.105"/>
</g>
<!-- ChefClientWaitHandle&#45;&gt;ChefClient -->
<g id="edge14" class="edge"><title>ChefClientWaitHandle&#45;&gt;ChefClient</title>
<path fill="none" stroke="black" d="M177.105,-148.055C184.864,-146.666 192.587,-145.293 200,-144 292.624,-127.847 400.231,-110.314 463.617,-99.744"/>
<polygon fill="black" stroke="black" points="464.496,-103.146 473.782,-98.0448 463.342,-96.2415 464.496,-103.146"/>
</g>
<!-- EC2SecurityGroup -->
<g id="node2" class="node"><title>EC2SecurityGroup</title>
<polygon fill="none" stroke="black" points="207,-252 63,-252 63,-216 207,-216 207,-252"/>
<text text-anchor="middle" x="135" y="-230.4" font-family="Times Roman,serif" font-size="14.00">EC2SecurityGroup</text>
</g>
<!-- EC2SecurityGroup&#45;&gt;ChefClient -->
<g id="edge34" class="edge"><title>EC2SecurityGroup&#45;&gt;ChefClient</title>
<path fill="none" stroke="black" d="M152.309,-215.95C176.934,-190.352 219.605,-146.324 224,-144 264.805,-122.428 390.854,-104.762 463.98,-95.9897"/>
<polygon fill="black" stroke="black" points="464.414,-99.4629 473.933,-94.8114 463.591,-92.5114 464.414,-99.4629"/>
</g>
<!-- ChefClientUser -->
<g id="node3" class="node"><title>ChefClientUser</title>
<polygon fill="none" stroke="black" points="345,-252 225,-252 225,-216 345,-216 345,-252"/>
<text text-anchor="middle" x="285" y="-230.4" font-family="Times Roman,serif" font-size="14.00">ChefClientUser</text>
</g>
<!-- HostKeys -->
<g id="node5" class="node"><title>HostKeys</title>
<polygon fill="none" stroke="black" points="313,-180 233,-180 233,-144 313,-144 313,-180"/>
<text text-anchor="middle" x="273" y="-158.4" font-family="Times Roman,serif" font-size="14.00">HostKeys</text>
</g>
<!-- ChefClientUser&#45;&gt;HostKeys -->
<g id="edge6" class="edge"><title>ChefClientUser&#45;&gt;HostKeys</title>
<path fill="none" stroke="black" d="M281.972,-215.831C280.688,-208.131 279.162,-198.974 277.736,-190.417"/>
<polygon fill="black" stroke="black" points="281.165,-189.702 276.069,-180.413 274.261,-190.853 281.165,-189.702"/>
</g>
<!-- BucketPolicy -->
<g id="node7" class="node"><title>BucketPolicy</title>
<polygon fill="none" stroke="black" points="433,-180 331,-180 331,-144 433,-144 433,-180"/>
<text text-anchor="middle" x="382" y="-158.4" font-family="Times Roman,serif" font-size="14.00">BucketPolicy</text>
</g>
<!-- ChefClientUser&#45;&gt;BucketPolicy -->
<g id="edge44" class="edge"><title>ChefClientUser&#45;&gt;BucketPolicy</title>
<path fill="none" stroke="black" d="M309.477,-215.831C321.539,-206.878 336.254,-195.956 349.269,-186.295"/>
<polygon fill="black" stroke="black" points="351.587,-188.933 357.531,-180.163 347.415,-183.313 351.587,-188.933"/>
</g>
<!-- HostKeys&#45;&gt;ChefClient -->
<g id="edge10" class="edge"><title>HostKeys&#45;&gt;ChefClient</title>
<path fill="none" stroke="black" d="M294.741,-144.083C294.827,-144.055 294.914,-144.028 295,-144 350.89,-126.07 416.876,-108.647 463.658,-98.6395"/>
<polygon fill="black" stroke="black" points="464.559,-102.027 473.634,-96.5589 463.13,-95.1743 464.559,-102.027"/>
</g>
<!-- HostKeys&#45;&gt;ChefClient -->
<g id="edge12" class="edge"><title>HostKeys&#45;&gt;ChefClient</title>
<path fill="none" stroke="black" d="M312.741,-144.083C312.827,-144.055 312.914,-144.028 313,-144 363.454,-127.814 422.135,-112.042 463.859,-101.764"/>
<polygon fill="black" stroke="black" points="464.932,-105.105 473.819,-99.3367 463.275,-98.3038 464.932,-105.105"/>
</g>
<!-- HostKeys&#45;&gt;ChefClient -->
<g id="edge20" class="edge"><title>HostKeys&#45;&gt;ChefClient</title>
<path fill="none" stroke="black" d="M313.072,-150.087C319.106,-147.972 325.218,-145.855 331,-144 375.58,-129.698 426.584,-115.719 464.134,-105.569"/>
<polygon fill="black" stroke="black" points="465.122,-108.927 473.864,-102.942 463.297,-102.169 465.122,-108.927"/>
</g>
<!-- HostKeys&#45;&gt;ChefClient -->
<g id="edge22" class="edge"><title>HostKeys&#45;&gt;ChefClient</title>
<path fill="none" stroke="black" d="M313.142,-155.573C325.896,-151.973 338.04,-147.516 349,-144 387.389,-131.684 430.541,-119.608 464.165,-110.01"/>
<polygon fill="black" stroke="black" points="465.18,-113.36 473.83,-107.242 463.253,-106.63 465.18,-113.36"/>
</g>
<!-- WebsiteURL -->
<g id="node15" class="node"><title>WebsiteURL</title>
<polygon fill="lightgrey" stroke="lightgrey" points="500,-36 424,-36 412,-24 412,-12 424,-1.60583e-14 500,-5.25802e-15 512,-12 512,-24 500,-36"/>
<path fill="lightgrey" stroke="lightgrey" d="M424,-36C418,-36 412,-30 412,-24"/>
<path fill="lightgrey" stroke="lightgrey" d="M412,-12C412,-6 418,-1.69109e-14 424,-1.60583e-14"/>
<path fill="lightgrey" stroke="lightgrey" d="M500,-5.25802e-15C506,-4.40536e-15 512,-6 512,-12"/>
<path fill="lightgrey" stroke="lightgrey" d="M512,-24C512,-30 506,-36 500,-36"/>
<polyline fill="none" stroke="black" points="500,-36 424,-36 "/>
<path fill="none" stroke="black" d="M424,-36C418,-36 412,-30 412,-24"/>
<polyline fill="none" stroke="black" points="412,-24 412,-12 "/>
<path fill="none" stroke="black" d="M412,-12C412,-6 418,-1.69109e-14 424,-1.60583e-14"/>
<polyline fill="none" stroke="black" points="424,-1.60583e-14 500,-5.25802e-15 "/>
<path fill="none" stroke="black" d="M500,-5.25802e-15C506,-4.40536e-15 512,-6 512,-12"/>
<polyline fill="none" stroke="black" points="512,-12 512,-24 "/>
<path fill="none" stroke="black" d="M512,-24C512,-30 506,-36 500,-36"/>
<text text-anchor="middle" x="462" y="-14.4" font-family="Times Roman,serif" font-size="14.00">WebsiteURL</text>
</g>
<!-- ChefClient&#45;&gt;WebsiteURL -->
<g id="edge50" class="edge"><title>ChefClient&#45;&gt;WebsiteURL</title>
<path fill="none" stroke="black" d="M503.869,-71.8314C497.419,-63.5386 489.655,-53.557 482.575,-44.4533"/>
<polygon fill="black" stroke="black" points="485.224,-42.158 476.321,-36.4133 479.698,-46.4556 485.224,-42.158"/>
</g>
<!-- InstallURL -->
<g id="node16" class="node"><title>InstallURL</title>
<polygon fill="lightgrey" stroke="lightgrey" points="604,-36 542,-36 530,-24 530,-12 542,-1.57807e-14 604,-5.53562e-15 616,-12 616,-24 604,-36"/>
<path fill="lightgrey" stroke="lightgrey" d="M542,-36C536,-36 530,-30 530,-24"/>
<path fill="lightgrey" stroke="lightgrey" d="M530,-12C530,-6 536,-1.67721e-14 542,-1.57807e-14"/>
<path fill="lightgrey" stroke="lightgrey" d="M604,-5.53562e-15C610,-4.54417e-15 616,-6 616,-12"/>
<path fill="lightgrey" stroke="lightgrey" d="M616,-24C616,-30 610,-36 604,-36"/>
<polyline fill="none" stroke="black" points="604,-36 542,-36 "/>
<path fill="none" stroke="black" d="M542,-36C536,-36 530,-30 530,-24"/>
<polyline fill="none" stroke="black" points="530,-24 530,-12 "/>
<path fill="none" stroke="black" d="M530,-12C530,-6 536,-1.67721e-14 542,-1.57807e-14"/>
<polyline fill="none" stroke="black" points="542,-1.57807e-14 604,-5.53562e-15 "/>
<path fill="none" stroke="black" d="M604,-5.53562e-15C610,-4.54417e-15 616,-6 616,-12"/>
<polyline fill="none" stroke="black" points="616,-12 616,-24 "/>
<path fill="none" stroke="black" d="M616,-24C616,-30 610,-36 604,-36"/>
<text text-anchor="middle" x="573" y="-14.4" font-family="Times Roman,serif" font-size="14.00">InstallURL</text>
</g>
<!-- ChefClient&#45;&gt;InstallURL -->
<g id="edge52" class="edge"><title>ChefClient&#45;&gt;InstallURL</title>
<path fill="none" stroke="black" d="M531.879,-71.8314C538.214,-63.5386 545.838,-53.557 552.793,-44.4533"/>
<polygon fill="black" stroke="black" points="555.645,-46.4847 558.934,-36.4133 550.083,-42.2353 555.645,-46.4847"/>
</g>
<!-- ChefServerPrivateKeyBucket -->
<g id="node9" class="node"><title>ChefServerPrivateKeyBucket</title>
<polygon fill="lightgrey" stroke="lightgrey" points="312,-324 122,-324 110,-312 110,-300 122,-288 312,-288 324,-300 324,-312 312,-324"/>
<path fill="lightgrey" stroke="lightgrey" d="M122,-324C116,-324 110,-318 110,-312"/>
<path fill="lightgrey" stroke="lightgrey" d="M110,-300C110,-294 116,-288 122,-288"/>
<path fill="lightgrey" stroke="lightgrey" d="M312,-288C318,-288 324,-294 324,-300"/>
<path fill="lightgrey" stroke="lightgrey" d="M324,-312C324,-318 318,-324 312,-324"/>
<polyline fill="none" stroke="black" points="312,-324 122,-324 "/>
<path fill="none" stroke="black" d="M122,-324C116,-324 110,-318 110,-312"/>
<polyline fill="none" stroke="black" points="110,-312 110,-300 "/>
<path fill="none" stroke="black" d="M110,-300C110,-294 116,-288 122,-288"/>
<polyline fill="none" stroke="black" points="122,-288 312,-288 "/>
<path fill="none" stroke="black" d="M312,-288C318,-288 324,-294 324,-300"/>
<polyline fill="none" stroke="black" points="324,-300 324,-312 "/>
<path fill="none" stroke="black" d="M324,-312C324,-318 318,-324 312,-324"/>
<text text-anchor="middle" x="217" y="-302.4" font-family="Times Roman,serif" font-size="14.00">ChefServerPrivateKeyBucket</text>
</g>
<!-- ChefServerPrivateKeyBucket&#45;&gt;ChefClient -->
<g id="edge26" class="edge"><title>ChefServerPrivateKeyBucket&#45;&gt;ChefClient</title>
<path fill="none" stroke="black" d="M306.068,-287.953C333.243,-279.793 362.201,-268.218 386,-252 438.702,-216.085 481.267,-153.106 502.767,-117.167"/>
<polygon fill="black" stroke="black" points="505.975,-118.615 508.018,-108.219 499.938,-115.072 505.975,-118.615"/>
</g>
<!-- ChefServerPrivateKeyBucket&#45;&gt;BucketPolicy -->
<g id="edge46" class="edge"><title>ChefServerPrivateKeyBucket&#45;&gt;BucketPolicy</title>
<path fill="none" stroke="black" d="M288.5,-287.917C308.955,-279.886 329.777,-268.391 345,-252 360.669,-235.129 367.573,-209.613 372.107,-190.054"/>
<polygon fill="black" stroke="black" points="375.55,-190.697 374.359,-180.17 368.725,-189.142 375.55,-190.697"/>
</g>
<!-- ChefServerPrivateKeyBucket&#45;&gt;BucketPolicy -->
<g id="edge48" class="edge"><title>ChefServerPrivateKeyBucket&#45;&gt;BucketPolicy</title>
<path fill="none" stroke="black" d="M305.781,-287.917C326.955,-279.886 347.777,-268.391 363,-252 378.597,-235.206 385.509,-209.848 387.096,-190.325"/>
<polygon fill="black" stroke="black" points="390.6,-190.286 387.452,-180.17 383.604,-190.041 390.6,-190.286"/>
</g>
<!-- KeyName -->
<g id="node10" class="node"><title>KeyName</title>
<polygon fill="lightgrey" stroke="lightgrey" points="410,-324 354,-324 342,-312 342,-300 354,-288 410,-288 422,-300 422,-312 410,-324"/>
<path fill="lightgrey" stroke="lightgrey" d="M354,-324C348,-324 342,-318 342,-312"/>
<path fill="lightgrey" stroke="lightgrey" d="M342,-300C342,-294 348,-288 354,-288"/>
<path fill="lightgrey" stroke="lightgrey" d="M410,-288C416,-288 422,-294 422,-300"/>
<path fill="lightgrey" stroke="lightgrey" d="M422,-312C422,-318 416,-324 410,-324"/>
<polyline fill="none" stroke="black" points="410,-324 354,-324 "/>
<path fill="none" stroke="black" d="M354,-324C348,-324 342,-318 342,-312"/>
<polyline fill="none" stroke="black" points="342,-312 342,-300 "/>
<path fill="none" stroke="black" d="M342,-300C342,-294 348,-288 354,-288"/>
<polyline fill="none" stroke="black" points="354,-288 410,-288 "/>
<path fill="none" stroke="black" d="M410,-288C416,-288 422,-294 422,-300"/>
<polyline fill="none" stroke="black" points="422,-300 422,-312 "/>
<path fill="none" stroke="black" d="M422,-312C422,-318 416,-324 410,-324"/>
<text text-anchor="middle" x="382" y="-302.4" font-family="Times Roman,serif" font-size="14.00">KeyName</text>
</g>
<!-- KeyName&#45;&gt;ChefClient -->
<g id="edge32" class="edge"><title>KeyName&#45;&gt;ChefClient</title>
<path fill="none" stroke="black" d="M422.283,-291.107C440.827,-282.352 461.631,-269.511 475,-252 505.195,-212.452 514.237,-153.459 516.913,-118.642"/>
<polygon fill="black" stroke="black" points="520.433,-118.445 517.577,-108.243 513.447,-118 520.433,-118.445"/>
</g>
<!-- ChefServerSecurityGroup -->
<g id="node11" class="node"><title>ChefServerSecurityGroup</title>
<polygon fill="lightgrey" stroke="lightgrey" points="622,-324 452,-324 440,-312 440,-300 452,-288 622,-288 634,-300 634,-312 622,-324"/>
<path fill="lightgrey" stroke="lightgrey" d="M452,-324C446,-324 440,-318 440,-312"/>
<path fill="lightgrey" stroke="lightgrey" d="M440,-300C440,-294 446,-288 452,-288"/>
<path fill="lightgrey" stroke="lightgrey" d="M622,-288C628,-288 634,-294 634,-300"/>
<path fill="lightgrey" stroke="lightgrey" d="M634,-312C634,-318 628,-324 622,-324"/>
<polyline fill="none" stroke="black" points="622,-324 452,-324 "/>
<path fill="none" stroke="black" d="M452,-324C446,-324 440,-318 440,-312"/>
<polyline fill="none" stroke="black" points="440,-312 440,-300 "/>
<path fill="none" stroke="black" d="M440,-300C440,-294 446,-288 452,-288"/>
<polyline fill="none" stroke="black" points="452,-288 622,-288 "/>
<path fill="none" stroke="black" d="M622,-288C628,-288 634,-294 634,-300"/>
<polyline fill="none" stroke="black" points="634,-300 634,-312 "/>
<path fill="none" stroke="black" d="M634,-312C634,-318 628,-324 622,-324"/>
<text text-anchor="middle" x="537" y="-302.4" font-family="Times Roman,serif" font-size="14.00">ChefServerSecurityGroup</text>
</g>
<!-- ChefServerSecurityGroup&#45;&gt;ChefClient -->
<g id="edge36" class="edge"><title>ChefServerSecurityGroup&#45;&gt;ChefClient</title>
<path fill="none" stroke="black" d="M535.413,-287.955C532.102,-250.314 524.438,-163.187 520.474,-118.125"/>
<polygon fill="black" stroke="black" points="523.959,-117.8 519.596,-108.145 516.986,-118.413 523.959,-117.8"/>
</g>
<!-- InstanceType -->
<g id="node12" class="node"><title>InstanceType</title>
<polygon fill="lightgrey" stroke="lightgrey" points="746,-324 664,-324 652,-312 652,-300 664,-288 746,-288 758,-300 758,-312 746,-324"/>
<path fill="lightgrey" stroke="lightgrey" d="M664,-324C658,-324 652,-318 652,-312"/>
<path fill="lightgrey" stroke="lightgrey" d="M652,-300C652,-294 658,-288 664,-288"/>
<path fill="lightgrey" stroke="lightgrey" d="M746,-288C752,-288 758,-294 758,-300"/>
<path fill="lightgrey" stroke="lightgrey" d="M758,-312C758,-318 752,-324 746,-324"/>
<polyline fill="none" stroke="black" points="746,-324 664,-324 "/>
<path fill="none" stroke="black" d="M664,-324C658,-324 652,-318 652,-312"/>
<polyline fill="none" stroke="black" points="652,-312 652,-300 "/>
<path fill="none" stroke="black" d="M652,-300C652,-294 658,-288 664,-288"/>
<polyline fill="none" stroke="black" points="664,-288 746,-288 "/>
<path fill="none" stroke="black" d="M746,-288C752,-288 758,-294 758,-300"/>
<polyline fill="none" stroke="black" points="758,-300 758,-312 "/>
<path fill="none" stroke="black" d="M758,-312C758,-318 752,-324 746,-324"/>
<text text-anchor="middle" x="705" y="-302.4" font-family="Times Roman,serif" font-size="14.00">InstanceType</text>
</g>
<!-- InstanceType&#45;&gt;ChefClient -->
<g id="edge38" class="edge"><title>InstanceType&#45;&gt;ChefClient</title>
<path fill="none" stroke="black" d="M658.93,-287.937C641.466,-278.753 622.436,-266.463 608,-252 567.838,-211.765 536.856,-152.211 523.666,-117.633"/>
<polygon fill="black" stroke="black" points="526.945,-116.409 520.288,-108.166 520.352,-118.761 526.945,-116.409"/>
</g>
<!-- InstanceType&#45;&gt;ChefClient -->
<g id="edge42" class="edge"><title>InstanceType&#45;&gt;ChefClient</title>
<path fill="none" stroke="black" d="M675.34,-287.937C659.466,-278.753 640.436,-266.463 626,-252 585.666,-211.592 554.59,-151.7 535.921,-117.189"/>
<polygon fill="black" stroke="black" points="538.856,-115.261 530.987,-108.166 532.714,-118.619 538.856,-115.261"/>
</g>
<!-- ChefServerURL -->
<g id="node13" class="node"><title>ChefServerURL</title>
<polygon fill="lightgrey" stroke="lightgrey" points="886,-324 788,-324 776,-312 776,-300 788,-288 886,-288 898,-300 898,-312 886,-324"/>
<path fill="lightgrey" stroke="lightgrey" d="M788,-324C782,-324 776,-318 776,-312"/>
<path fill="lightgrey" stroke="lightgrey" d="M776,-300C776,-294 782,-288 788,-288"/>
<path fill="lightgrey" stroke="lightgrey" d="M886,-288C892,-288 898,-294 898,-300"/>
<path fill="lightgrey" stroke="lightgrey" d="M898,-312C898,-318 892,-324 886,-324"/>
<polyline fill="none" stroke="black" points="886,-324 788,-324 "/>
<path fill="none" stroke="black" d="M788,-324C782,-324 776,-318 776,-312"/>
<polyline fill="none" stroke="black" points="776,-312 776,-300 "/>
<path fill="none" stroke="black" d="M776,-300C776,-294 782,-288 788,-288"/>
<polyline fill="none" stroke="black" points="788,-288 886,-288 "/>
<path fill="none" stroke="black" d="M886,-288C892,-288 898,-294 898,-300"/>
<polyline fill="none" stroke="black" points="898,-300 898,-312 "/>
<path fill="none" stroke="black" d="M898,-312C898,-318 892,-324 886,-324"/>
<text text-anchor="middle" x="837" y="-302.4" font-family="Times Roman,serif" font-size="14.00">ChefServerURL</text>
</g>
<!-- ChefServerURL&#45;&gt;ChefClient -->
<g id="edge28" class="edge"><title>ChefServerURL&#45;&gt;ChefClient</title>
<path fill="none" stroke="black" d="M789.925,-287.927C768.804,-278.098 744.082,-265.261 723,-252 653.877,-208.52 579.107,-148.653 541.701,-115.21"/>
<polygon fill="black" stroke="black" points="543.628,-112.231 533.874,-108.094 538.919,-117.411 543.628,-112.231"/>
</g>
<!-- ChefServerURL&#45;&gt;ChefClient -->
<g id="edge8" class="edge"><title>ChefServerURL&#45;&gt;ChefClient</title>
<path fill="none" stroke="black" d="M805.763,-287.805C786.601,-277.993 761.995,-265.207 741,-252 671.297,-208.154 595.85,-147.646 552.845,-114.373"/>
<polygon fill="black" stroke="black" points="554.747,-111.42 544.688,-108.094 550.478,-116.967 554.747,-111.42"/>
</g>
<!-- AWS::Region -->
<g id="node23" class="node"><title>AWS::Region</title>
<polygon fill="none" stroke="black" points="781,-180 677,-180 677,-144 781,-144 781,-180"/>
<text text-anchor="middle" x="729" y="-158.4" font-family="Times Roman,serif" font-size="14.00">AWS::Region</text>
</g>
<!-- AWS::Region&#45;&gt;ChefClient -->
<g id="edge24" class="edge"><title>AWS::Region&#45;&gt;ChefClient</title>
<path fill="none" stroke="black" d="M676.854,-147.947C643.744,-137.592 601.413,-123.32 568.617,-111.531"/>
<polygon fill="black" stroke="black" points="569.797,-108.236 559.202,-108.119 567.411,-114.817 569.797,-108.236"/>
</g>
<!-- AWS::Region&#45;&gt;ChefClient -->
<g id="edge40" class="edge"><title>AWS::Region&#45;&gt;ChefClient</title>
<path fill="none" stroke="black" d="M687.915,-143.924C654.704,-131.778 608.139,-115.977 571.965,-104.623"/>
<polygon fill="black" stroke="black" points="572.646,-101.17 562.058,-101.546 570.569,-107.855 572.646,-101.17"/>
</g>
<!-- AWS::Region&#45;&gt;ChefClient -->
<g id="edge16" class="edge"><title>AWS::Region&#45;&gt;ChefClient</title>
<path fill="none" stroke="black" d="M676.843,-144.202C644.88,-133.296 604.054,-119.364 571.795,-108.357"/>
<polygon fill="black" stroke="black" points="572.672,-104.958 562.078,-105.041 570.412,-111.583 572.672,-104.958"/>
</g>
<!-- AWS::StackName -->
<g id="node25" class="node"><title>AWS::StackName</title>
<polygon fill="none" stroke="black" points="877,-252 741,-252 741,-216 877,-216 877,-252"/>
<text text-anchor="middle" x="809" y="-230.4" font-family="Times Roman,serif" font-size="14.00">AWS::StackName</text>
</g>
<!-- AWS::StackName&#45;&gt;ChefClient -->
<g id="edge18" class="edge"><title>AWS::StackName&#45;&gt;ChefClient</title>
<path fill="none" stroke="black" d="M810.586,-215.726C811.276,-195.332 808.971,-162.744 790,-144 759.847,-114.209 642.482,-99.8517 572.149,-93.7916"/>
<polygon fill="black" stroke="black" points="572.385,-90.2993 562.129,-92.9568 571.804,-97.2751 572.385,-90.2993"/>
</g>
</g>
</svg>
