<?xml version="1.0" encoding="UTF-8" standalone="no"?>
<!DOCTYPE svg PUBLIC "-//W3C//DTD SVG 1.1//EN"
 "http://www.w3.org/Graphics/SVG/1.1/DTD/svg11.dtd">
<!-- Generated by graphviz version 2.26.3 (20100126.1600)
 -->
<!-- Title: AWS CloudFormation Sample Template WordPress_Single_Instance_With_RDS: WordPress is web software you can use to create a beautiful website or blog. This template installs a single&#45;instance WordPress deployment using an Amazon RDS database instance for storage. It demonstrates using the AWS CloudFormation bootstrap scripts to install packages and files at instance launch time. **WARNING** This template creates an Amazon EC2 instance and an Amazon RDS database instance. You will be billed for the AWS resources used if you create a stack from this template. Pages: 1 -->
<svg width="1065pt" height="404pt"
 viewBox="0.00 0.00 1065.00 404.00" xmlns="http://www.w3.org/2000/svg" xmlns:xlink="http://www.w3.org/1999/xlink">
<g id="graph1" class="graph" transform="scale(1 1) rotate(0) translate(4 400)">
<title>AWS CloudFormation Sample Template WordPress_Single_Instance_With_RDS: WordPress is web software you can use to create a beautiful website or blog. This template installs a single&#45;instance WordPress deployment using an Amazon RDS database instance for storage. It demonstrates using the AWS CloudFormation bootstrap scripts to install packages and files at instance launch time. **WARNING** This template creates an Amazon EC2 instance and an Amazon RDS database instance. You will be billed for the AWS resources used if you create a stack from this template.</title>
<polygon fill="white" stroke="white" points="-4,5 -4,-400 1062,-400 1062,5 -4,5"/>
<!-- DBSecurityGroup -->
<g id="node1" class="node"><title>DBSecurityGroup</title>
<polygon fill="none" stroke="black" points="260,-252 124,-252 124,-216 260,-216 260,-252"/>
<text text-anchor="middle" x="192" y="-230.4" font-family="Times Roman,serif" font-size="14.00">DBSecurityGroup</text>
</g>
<!-- DBInstance -->
<g id="node5" class="node"><title>DBInstance</title>
<polygon fill="none" stroke="black" points="478,-180 382,-180 382,-144 478,-144 478,-180"/>
<text text-anchor="middle" x="430" y="-158.4" font-family="Times Roman,serif" font-size="14.00">DBInstance</text>
</g>
<!-- DBSecurityGroup&#45;&gt;DBInstance -->
<g id="edge34" class="edge"><title>DBSecurityGroup&#45;&gt;DBInstance</title>
<path fill="none" stroke="black" d="M251.75,-215.924C288.502,-204.806 335.377,-190.626 371.832,-179.597"/>
<polygon fill="black" stroke="black" points="373.263,-182.821 381.821,-176.575 371.236,-176.121 373.263,-182.821"/>
</g>
<!-- WebServerSecurityGroup -->
<g id="node2" class="node"><title>WebServerSecurityGroup</title>
<polygon fill="none" stroke="black" points="192,-324 7.10543e-14,-324 0,-288 192,-288 192,-324"/>
<text text-anchor="middle" x="96" y="-302.4" font-family="Times Roman,serif" font-size="14.00">WebServerSecurityGroup</text>
</g>
<!-- WebServerSecurityGroup&#45;&gt;DBSecurityGroup -->
<g id="edge4" class="edge"><title>WebServerSecurityGroup&#45;&gt;DBSecurityGroup</title>
<path fill="none" stroke="black" d="M120.225,-287.831C132.163,-278.878 146.726,-267.956 159.606,-258.295"/>
<polygon fill="black" stroke="black" points="161.883,-260.963 167.783,-252.163 157.683,-255.363 161.883,-260.963"/>
</g>
<!-- WebServer -->
<g id="node3" class="node"><title>WebServer</title>
<polygon fill="none" stroke="black" points="777,-108 685,-108 685,-72 777,-72 777,-108"/>
<text text-anchor="middle" x="731" y="-86.4" font-family="Times Roman,serif" font-size="14.00">WebServer</text>
</g>
<!-- WebServerSecurityGroup&#45;&gt;WebServer -->
<g id="edge16" class="edge"><title>WebServerSecurityGroup&#45;&gt;WebServer</title>
<path fill="none" stroke="black" d="M95.2396,-287.755C95.3743,-267.991 98.4968,-236.541 115,-216 163.586,-155.526 199.265,-164.797 274,-144 348.208,-123.35 569.91,-103.171 674.807,-94.4694"/>
<polygon fill="black" stroke="black" points="675.209,-97.9482 684.888,-93.6387 674.634,-90.9718 675.209,-97.9482"/>
</g>
<!-- WebsiteURL -->
<g id="node17" class="node"><title>WebsiteURL</title>
<polygon fill="lightgrey" stroke="lightgrey" points="769,-36 693,-36 681,-24 681,-12 693,-1.60583e-14 769,-5.25802e-15 781,-12 781,-24 769,-36"/>
<path fill="lightgrey" stroke="lightgrey" d="M693,-36C687,-36 681,-30 681,-24"/>
<path fill="lightgrey" stroke="lightgrey" d="M681,-12C681,-6 687,-1.69109e-14 693,-1.60583e-14"/>
<path fill="lightgrey" stroke="lightgrey" d="M769,-5.25802e-15C775,-4.40536e-15 781,-6 781,-12"/>
<path fill="lightgrey" stroke="lightgrey" d="M781,-24C781,-30 775,-36 769,-36"/>
<polyline fill="none" stroke="black" points="769,-36 693,-36 "/>
<path fill="none" stroke="black" d="M693,-36C687,-36 681,-30 681,-24"/>
<polyline fill="none" stroke="black" points="681,-24 681,-12 "/>
<path fill="none" stroke="black" d="M681,-12C681,-6 687,-1.69109e-14 693,-1.60583e-14"/>
<polyline fill="none" stroke="black" points="693,-1.60583e-14 769,-5.25802e-15 "/>
<path fill="none" stroke="black" d="M769,-5.25802e-15C775,-4.40536e-15 781,-6 781,-12"/>
<polyline fill="none" stroke="black" points="781,-12 781,-24 "/>
<path fill="none" stroke="black" d="M781,-24C781,-30 775,-36 769,-36"/>
<text text-anchor="middle" x="731" y="-14.4" font-family="Times Roman,serif" font-size="14.00">WebsiteURL</text>
</g>
<!-- WebServer&#45;&gt;WebsiteURL -->
<g id="edge46" class="edge"><title>WebServer&#45;&gt;WebsiteURL</title>
<path fill="none" stroke="black" d="M731,-71.8314C731,-64.131 731,-54.9743 731,-46.4166"/>
<polygon fill="black" stroke="black" points="734.5,-46.4132 731,-36.4133 727.5,-46.4133 734.5,-46.4132"/>
</g>
<!-- WaitCondition -->
<g id="node4" class="node"><title>WaitCondition</title>
<polygon fill="none" stroke="black" points="1057,-108 943,-108 943,-72 1057,-72 1057,-108"/>
<text text-anchor="middle" x="1000" y="-86.4" font-family="Times Roman,serif" font-size="14.00">WaitCondition</text>
</g>
<!-- DBInstance&#45;&gt;WebServer -->
<g id="edge30" class="edge"><title>DBInstance&#45;&gt;WebServer</title>
<path fill="none" stroke="black" d="M478.027,-150.512C531.576,-137.703 618.087,-117.009 674.756,-103.454"/>
<polygon fill="black" stroke="black" points="675.716,-106.823 684.627,-101.093 674.087,-100.015 675.716,-106.823"/>
</g>
<!-- WaitHandle -->
<g id="node6" class="node"><title>WaitHandle</title>
<polygon fill="none" stroke="black" points="1048,-180 952,-180 952,-144 1048,-144 1048,-180"/>
<text text-anchor="middle" x="1000" y="-158.4" font-family="Times Roman,serif" font-size="14.00">WaitHandle</text>
</g>
<!-- WaitHandle&#45;&gt;WebServer -->
<g id="edge12" class="edge"><title>WaitHandle&#45;&gt;WebServer</title>
<path fill="none" stroke="black" d="M951.856,-146.586C948.864,-145.694 945.894,-144.825 943,-144 890.417,-129.014 829.933,-113.806 787.063,-103.365"/>
<polygon fill="black" stroke="black" points="787.648,-99.9054 777.105,-100.948 785.997,-106.708 787.648,-99.9054"/>
</g>
<!-- WaitHandle&#45;&gt;WaitCondition -->
<g id="edge32" class="edge"><title>WaitHandle&#45;&gt;WaitCondition</title>
<path fill="none" stroke="black" d="M1000,-143.831C1000,-136.131 1000,-126.974 1000,-118.417"/>
<polygon fill="black" stroke="black" points="1003.5,-118.413 1000,-108.413 996.5,-118.413 1003.5,-118.413"/>
</g>
<!-- DBUsername -->
<g id="node8" class="node"><title>DBUsername</title>
<polygon fill="lightgrey" stroke="lightgrey" points="233,-396 151,-396 139,-384 139,-372 151,-360 233,-360 245,-372 245,-384 233,-396"/>
<path fill="lightgrey" stroke="lightgrey" d="M151,-396C145,-396 139,-390 139,-384"/>
<path fill="lightgrey" stroke="lightgrey" d="M139,-372C139,-366 145,-360 151,-360"/>
<path fill="lightgrey" stroke="lightgrey" d="M233,-360C239,-360 245,-366 245,-372"/>
<path fill="lightgrey" stroke="lightgrey" d="M245,-384C245,-390 239,-396 233,-396"/>
<polyline fill="none" stroke="black" points="233,-396 151,-396 "/>
<path fill="none" stroke="black" d="M151,-396C145,-396 139,-390 139,-384"/>
<polyline fill="none" stroke="black" points="139,-384 139,-372 "/>
<path fill="none" stroke="black" d="M139,-372C139,-366 145,-360 151,-360"/>
<polyline fill="none" stroke="black" points="151,-360 233,-360 "/>
<path fill="none" stroke="black" d="M233,-360C239,-360 245,-366 245,-372"/>
<polyline fill="none" stroke="black" points="245,-372 245,-384 "/>
<path fill="none" stroke="black" d="M245,-384C245,-390 239,-396 233,-396"/>
<text text-anchor="middle" x="192" y="-374.4" font-family="Times Roman,serif" font-size="14.00">DBUsername</text>
</g>
<!-- DBUsername&#45;&gt;WebServer -->
<g id="edge26" class="edge"><title>DBUsername&#45;&gt;WebServer</title>
<path fill="none" stroke="black" d="M203.383,-359.983C235.367,-309.946 326.721,-171.182 373,-144 423.049,-114.604 587.212,-99.5172 674.788,-93.3931"/>
<polygon fill="black" stroke="black" points="675.08,-96.8814 684.818,-92.7075 674.603,-89.8977 675.08,-96.8814"/>
</g>
<!-- DBUsername&#45;&gt;DBInstance -->
<g id="edge36" class="edge"><title>DBUsername&#45;&gt;DBInstance</title>
<path fill="none" stroke="black" d="M241.348,-359.946C261.497,-351.073 284.195,-339.022 302,-324 347.254,-285.819 342.484,-261.807 380,-216 387.764,-206.52 396.728,-196.564 404.904,-187.82"/>
<polygon fill="black" stroke="black" points="407.508,-190.16 411.835,-180.489 402.422,-185.35 407.508,-190.16"/>
</g>
<!-- DBClass -->
<g id="node9" class="node"><title>DBClass</title>
<polygon fill="lightgrey" stroke="lightgrey" points="323,-396 275,-396 263,-384 263,-372 275,-360 323,-360 335,-372 335,-384 323,-396"/>
<path fill="lightgrey" stroke="lightgrey" d="M275,-396C269,-396 263,-390 263,-384"/>
<path fill="lightgrey" stroke="lightgrey" d="M263,-372C263,-366 269,-360 275,-360"/>
<path fill="lightgrey" stroke="lightgrey" d="M323,-360C329,-360 335,-366 335,-372"/>
<path fill="lightgrey" stroke="lightgrey" d="M335,-384C335,-390 329,-396 323,-396"/>
<polyline fill="none" stroke="black" points="323,-396 275,-396 "/>
<path fill="none" stroke="black" d="M275,-396C269,-396 263,-390 263,-384"/>
<polyline fill="none" stroke="black" points="263,-384 263,-372 "/>
<path fill="none" stroke="black" d="M263,-372C263,-366 269,-360 275,-360"/>
<polyline fill="none" stroke="black" points="275,-360 323,-360 "/>
<path fill="none" stroke="black" d="M323,-360C329,-360 335,-366 335,-372"/>
<polyline fill="none" stroke="black" points="335,-372 335,-384 "/>
<path fill="none" stroke="black" d="M335,-384C335,-390 329,-396 323,-396"/>
<text text-anchor="middle" x="299" y="-374.4" font-family="Times Roman,serif" font-size="14.00">DBClass</text>
</g>
<!-- DBClass&#45;&gt;DBInstance -->
<g id="edge42" class="edge"><title>DBClass&#45;&gt;DBInstance</title>
<path fill="none" stroke="black" d="M313.709,-359.976C321.835,-349.696 331.894,-336.42 340,-324 369.769,-278.388 399.523,-222.259 416.264,-189.468"/>
<polygon fill="black" stroke="black" points="419.425,-190.974 420.829,-180.473 413.183,-187.806 419.425,-190.974"/>
</g>
<!-- DBAllocatedStorage -->
<g id="node10" class="node"><title>DBAllocatedStorage</title>
<polygon fill="lightgrey" stroke="lightgrey" points="495,-396 365,-396 353,-384 353,-372 365,-360 495,-360 507,-372 507,-384 495,-396"/>
<path fill="lightgrey" stroke="lightgrey" d="M365,-396C359,-396 353,-390 353,-384"/>
<path fill="lightgrey" stroke="lightgrey" d="M353,-372C353,-366 359,-360 365,-360"/>
<path fill="lightgrey" stroke="lightgrey" d="M495,-360C501,-360 507,-366 507,-372"/>
<path fill="lightgrey" stroke="lightgrey" d="M507,-384C507,-390 501,-396 495,-396"/>
<polyline fill="none" stroke="black" points="495,-396 365,-396 "/>
<path fill="none" stroke="black" d="M365,-396C359,-396 353,-390 353,-384"/>
<polyline fill="none" stroke="black" points="353,-384 353,-372 "/>
<path fill="none" stroke="black" d="M353,-372C353,-366 359,-360 365,-360"/>
<polyline fill="none" stroke="black" points="365,-360 495,-360 "/>
<path fill="none" stroke="black" d="M495,-360C501,-360 507,-366 507,-372"/>
<polyline fill="none" stroke="black" points="507,-372 507,-384 "/>
<path fill="none" stroke="black" d="M507,-384C507,-390 501,-396 495,-396"/>
<text text-anchor="middle" x="430" y="-374.4" font-family="Times Roman,serif" font-size="14.00">DBAllocatedStorage</text>
</g>
<!-- DBAllocatedStorage&#45;&gt;DBInstance -->
<g id="edge40" class="edge"><title>DBAllocatedStorage&#45;&gt;DBInstance</title>
<path fill="none" stroke="black" d="M430,-359.955C430,-322.394 430,-235.554 430,-190.41"/>
<polygon fill="black" stroke="black" points="433.5,-190.145 430,-180.145 426.5,-190.145 433.5,-190.145"/>
</g>
<!-- DBName -->
<g id="node11" class="node"><title>DBName</title>
<polygon fill="lightgrey" stroke="lightgrey" points="589,-396 537,-396 525,-384 525,-372 537,-360 589,-360 601,-372 601,-384 589,-396"/>
<path fill="lightgrey" stroke="lightgrey" d="M537,-396C531,-396 525,-390 525,-384"/>
<path fill="lightgrey" stroke="lightgrey" d="M525,-372C525,-366 531,-360 537,-360"/>
<path fill="lightgrey" stroke="lightgrey" d="M589,-360C595,-360 601,-366 601,-372"/>
<path fill="lightgrey" stroke="lightgrey" d="M601,-384C601,-390 595,-396 589,-396"/>
<polyline fill="none" stroke="black" points="589,-396 537,-396 "/>
<path fill="none" stroke="black" d="M537,-396C531,-396 525,-390 525,-384"/>
<polyline fill="none" stroke="black" points="525,-384 525,-372 "/>
<path fill="none" stroke="black" d="M525,-372C525,-366 531,-360 537,-360"/>
<polyline fill="none" stroke="black" points="537,-360 589,-360 "/>
<path fill="none" stroke="black" d="M589,-360C595,-360 601,-366 601,-372"/>
<polyline fill="none" stroke="black" points="601,-372 601,-384 "/>
<path fill="none" stroke="black" d="M601,-384C601,-390 595,-396 589,-396"/>
<text text-anchor="middle" x="563" y="-374.4" font-family="Times Roman,serif" font-size="14.00">DBName</text>
</g>
<!-- DBName&#45;&gt;WebServer -->
<g id="edge24" class="edge"><title>DBName&#45;&gt;WebServer</title>
<path fill="none" stroke="black" d="M573.528,-359.765C596.306,-320.338 651.91,-224.239 699,-144 704.104,-135.303 709.699,-125.839 714.763,-117.297"/>
<polygon fill="black" stroke="black" points="717.907,-118.857 720.002,-108.471 711.888,-115.284 717.907,-118.857"/>
</g>
<!-- DBName&#45;&gt;DBInstance -->
<g id="edge44" class="edge"><title>DBName&#45;&gt;DBInstance</title>
<path fill="none" stroke="black" d="M551.889,-359.955C528.468,-321.917 473.929,-233.343 446.448,-188.713"/>
<polygon fill="black" stroke="black" points="449.396,-186.825 441.173,-180.145 443.436,-190.495 449.396,-186.825"/>
</g>
<!-- SSHLocation -->
<g id="node12" class="node"><title>SSHLocation</title>
<polygon fill="lightgrey" stroke="lightgrey" points="109,-396 29,-396 17,-384 17,-372 29,-360 109,-360 121,-372 121,-384 109,-396"/>
<path fill="lightgrey" stroke="lightgrey" d="M29,-396C23,-396 17,-390 17,-384"/>
<path fill="lightgrey" stroke="lightgrey" d="M17,-372C17,-366 23,-360 29,-360"/>
<path fill="lightgrey" stroke="lightgrey" d="M109,-360C115,-360 121,-366 121,-372"/>
<path fill="lightgrey" stroke="lightgrey" d="M121,-384C121,-390 115,-396 109,-396"/>
<polyline fill="none" stroke="black" points="109,-396 29,-396 "/>
<path fill="none" stroke="black" d="M29,-396C23,-396 17,-390 17,-384"/>
<polyline fill="none" stroke="black" points="17,-384 17,-372 "/>
<path fill="none" stroke="black" d="M17,-372C17,-366 23,-360 29,-360"/>
<polyline fill="none" stroke="black" points="29,-360 109,-360 "/>
<path fill="none" stroke="black" d="M109,-360C115,-360 121,-366 121,-372"/>
<polyline fill="none" stroke="black" points="121,-372 121,-384 "/>
<path fill="none" stroke="black" d="M121,-384C121,-390 115,-396 109,-396"/>
<text text-anchor="middle" x="69" y="-374.4" font-family="Times Roman,serif" font-size="14.00">SSHLocation</text>
</g>
<!-- SSHLocation&#45;&gt;WebServerSecurityGroup -->
<g id="edge6" class="edge"><title>SSHLocation&#45;&gt;WebServerSecurityGroup</title>
<path fill="none" stroke="black" d="M75.8132,-359.831C78.7644,-351.962 82.2858,-342.571 85.555,-333.853"/>
<polygon fill="black" stroke="black" points="88.8609,-335.006 89.095,-324.413 82.3066,-332.548 88.8609,-335.006"/>
</g>
<!-- KeyName -->
<g id="node13" class="node"><title>KeyName</title>
<polygon fill="lightgrey" stroke="lightgrey" points="807,-396 751,-396 739,-384 739,-372 751,-360 807,-360 819,-372 819,-384 807,-396"/>
<path fill="lightgrey" stroke="lightgrey" d="M751,-396C745,-396 739,-390 739,-384"/>
<path fill="lightgrey" stroke="lightgrey" d="M739,-372C739,-366 745,-360 751,-360"/>
<path fill="lightgrey" stroke="lightgrey" d="M807,-360C813,-360 819,-366 819,-372"/>
<path fill="lightgrey" stroke="lightgrey" d="M819,-384C819,-390 813,-396 807,-396"/>
<polyline fill="none" stroke="black" points="807,-396 751,-396 "/>
<path fill="none" stroke="black" d="M751,-396C745,-396 739,-390 739,-384"/>
<polyline fill="none" stroke="black" points="739,-384 739,-372 "/>
<path fill="none" stroke="black" d="M739,-372C739,-366 745,-360 751,-360"/>
<polyline fill="none" stroke="black" points="751,-360 807,-360 "/>
<path fill="none" stroke="black" d="M807,-360C813,-360 819,-366 819,-372"/>
<polyline fill="none" stroke="black" points="819,-372 819,-384 "/>
<path fill="none" stroke="black" d="M819,-384C819,-390 813,-396 807,-396"/>
<text text-anchor="middle" x="779" y="-374.4" font-family="Times Roman,serif" font-size="14.00">KeyName</text>
</g>
<!-- KeyName&#45;&gt;WebServer -->
<g id="edge14" class="edge"><title>KeyName&#45;&gt;WebServer</title>
<path fill="none" stroke="black" d="M757.258,-359.807C747.559,-350.27 737.17,-337.724 732,-324 705.551,-253.784 716.745,-163.086 725.033,-118.008"/>
<polygon fill="black" stroke="black" points="728.491,-118.562 726.95,-108.08 721.618,-117.235 728.491,-118.562"/>
</g>
<!-- DBPassword -->
<g id="node14" class="node"><title>DBPassword</title>
<polygon fill="lightgrey" stroke="lightgrey" points="709,-396 631,-396 619,-384 619,-372 631,-360 709,-360 721,-372 721,-384 709,-396"/>
<path fill="lightgrey" stroke="lightgrey" d="M631,-396C625,-396 619,-390 619,-384"/>
<path fill="lightgrey" stroke="lightgrey" d="M619,-372C619,-366 625,-360 631,-360"/>
<path fill="lightgrey" stroke="lightgrey" d="M709,-360C715,-360 721,-366 721,-372"/>
<path fill="lightgrey" stroke="lightgrey" d="M721,-384C721,-390 715,-396 709,-396"/>
<polyline fill="none" stroke="black" points="709,-396 631,-396 "/>
<path fill="none" stroke="black" d="M631,-396C625,-396 619,-390 619,-384"/>
<polyline fill="none" stroke="black" points="619,-384 619,-372 "/>
<path fill="none" stroke="black" d="M619,-372C619,-366 625,-360 631,-360"/>
<polyline fill="none" stroke="black" points="631,-360 709,-360 "/>
<path fill="none" stroke="black" d="M709,-360C715,-360 721,-366 721,-372"/>
<polyline fill="none" stroke="black" points="721,-372 721,-384 "/>
<path fill="none" stroke="black" d="M721,-384C721,-390 715,-396 709,-396"/>
<text text-anchor="middle" x="670" y="-374.4" font-family="Times Roman,serif" font-size="14.00">DBPassword</text>
</g>
<!-- DBPassword&#45;&gt;WebServer -->
<g id="edge28" class="edge"><title>DBPassword&#45;&gt;WebServer</title>
<path fill="none" stroke="black" d="M672.241,-359.877C677.359,-320.274 691.099,-223.218 712,-144 714.271,-135.392 717.279,-126.196 720.23,-117.878"/>
<polygon fill="black" stroke="black" points="723.598,-118.86 723.749,-108.266 717.025,-116.453 723.598,-118.86"/>
</g>
<!-- DBPassword&#45;&gt;DBInstance -->
<g id="edge38" class="edge"><title>DBPassword&#45;&gt;DBInstance</title>
<path fill="none" stroke="black" d="M649.951,-359.955C607.157,-321.441 506.796,-231.116 457.84,-187.056"/>
<polygon fill="black" stroke="black" points="459.936,-184.233 450.161,-180.145 455.253,-189.436 459.936,-184.233"/>
</g>
<!-- InstanceType -->
<g id="node15" class="node"><title>InstanceType</title>
<polygon fill="lightgrey" stroke="lightgrey" points="931,-396 849,-396 837,-384 837,-372 849,-360 931,-360 943,-372 943,-384 931,-396"/>
<path fill="lightgrey" stroke="lightgrey" d="M849,-396C843,-396 837,-390 837,-384"/>
<path fill="lightgrey" stroke="lightgrey" d="M837,-372C837,-366 843,-360 849,-360"/>
<path fill="lightgrey" stroke="lightgrey" d="M931,-360C937,-360 943,-366 943,-372"/>
<path fill="lightgrey" stroke="lightgrey" d="M943,-384C943,-390 937,-396 931,-396"/>
<polyline fill="none" stroke="black" points="931,-396 849,-396 "/>
<path fill="none" stroke="black" d="M849,-396C843,-396 837,-390 837,-384"/>
<polyline fill="none" stroke="black" points="837,-384 837,-372 "/>
<path fill="none" stroke="black" d="M837,-372C837,-366 843,-360 849,-360"/>
<polyline fill="none" stroke="black" points="849,-360 931,-360 "/>
<path fill="none" stroke="black" d="M931,-360C937,-360 943,-366 943,-372"/>
<polyline fill="none" stroke="black" points="943,-372 943,-384 "/>
<path fill="none" stroke="black" d="M943,-384C943,-390 937,-396 931,-396"/>
<text text-anchor="middle" x="890" y="-374.4" font-family="Times Roman,serif" font-size="14.00">InstanceType</text>
</g>
<!-- InstanceType&#45;&gt;WebServer -->
<g id="edge18" class="edge"><title>InstanceType&#45;&gt;WebServer</title>
<path fill="none" stroke="black" d="M864.012,-359.738C837.574,-336.703 797.842,-294.893 774,-252 749.72,-208.319 734.82,-151.616 730.105,-118.183"/>
<polygon fill="black" stroke="black" points="733.575,-117.716 728.933,-108.191 726.622,-118.531 733.575,-117.716"/>
</g>
<!-- InstanceType&#45;&gt;WebServer -->
<g id="edge22" class="edge"><title>InstanceType&#45;&gt;WebServer</title>
<path fill="none" stroke="black" d="M876.648,-359.738C855.574,-336.703 815.842,-294.893 792,-252 767.72,-208.319 752.82,-151.616 742.909,-118.183"/>
<polygon fill="black" stroke="black" points="746.127,-116.735 739.861,-108.191 739.432,-118.778 746.127,-116.735"/>
</g>
<!-- AWS::StackId -->
<g id="node20" class="node"><title>AWS::StackId</title>
<polygon fill="none" stroke="black" points="902,-252 792,-252 792,-216 902,-216 902,-252"/>
<text text-anchor="middle" x="847" y="-230.4" font-family="Times Roman,serif" font-size="14.00">AWS::StackId</text>
</g>
<!-- AWS::StackId&#45;&gt;WebServer -->
<g id="edge8" class="edge"><title>AWS::StackId&#45;&gt;WebServer</title>
<path fill="none" stroke="black" d="M833.578,-215.814C819.903,-197.451 797.934,-168.393 778,-144 770.413,-134.716 761.87,-124.761 754.169,-115.959"/>
<polygon fill="black" stroke="black" points="756.619,-113.445 747.385,-108.252 751.365,-118.071 756.619,-113.445"/>
</g>
<!-- AWS::Region -->
<g id="node22" class="node"><title>AWS::Region</title>
<polygon fill="none" stroke="black" points="934,-180 830,-180 830,-144 934,-144 934,-180"/>
<text text-anchor="middle" x="882" y="-158.4" font-family="Times Roman,serif" font-size="14.00">AWS::Region</text>
</g>
<!-- AWS::Region&#45;&gt;WebServer -->
<g id="edge10" class="edge"><title>AWS::Region&#45;&gt;WebServer</title>
<path fill="none" stroke="black" d="M837.944,-143.831C817.092,-134.33 792.397,-122.612 771.954,-112.537"/>
<polygon fill="black" stroke="black" points="773.403,-109.349 762.89,-108.038 770.291,-115.619 773.403,-109.349"/>
</g>
<!-- AWS::Region&#45;&gt;WebServer -->
<g id="edge20" class="edge"><title>AWS::Region&#45;&gt;WebServer</title>
<path fill="none" stroke="black" d="M849.849,-143.831C830.677,-134.245 805.952,-122.401 783.989,-112.266"/>
<polygon fill="black" stroke="black" points="785.318,-109.025 774.769,-108.038 782.4,-115.388 785.318,-109.025"/>
</g>
</g>
</svg>
