<?xml version="1.0" encoding="UTF-8" standalone="no"?>
<!DOCTYPE svg PUBLIC "-//W3C//DTD SVG 1.1//EN"
 "http://www.w3.org/Graphics/SVG/1.1/DTD/svg11.dtd">
<!-- Generated by graphviz version 2.26.3 (20100126.1600)
 -->
<!-- Title: Install a single&#45;instance WordPress deployment using an Amazon RDS database instance for storage. This template demonstrates using the AWS CloudFormation bootstrap scripts to install packages and files at instance launch time. **WARNING** This template creates an Amazon EC2 instance and an Amazon RDS database instance. You will be billed for the AWS resources used if you create a stack from this template. Pages: 1 -->
<svg width="833pt" height="404pt"
 viewBox="0.00 0.00 833.00 404.00" xmlns="http://www.w3.org/2000/svg" xmlns:xlink="http://www.w3.org/1999/xlink">
<g id="graph1" class="graph" transform="scale(1 1) rotate(0) translate(4 400)">
<title>Install a single&#45;instance WordPress deployment using an Amazon RDS database instance for storage. This template demonstrates using the AWS CloudFormation bootstrap scripts to install packages and files at instance launch time. **WARNING** This template creates an Amazon EC2 instance and an Amazon RDS database instance. You will be billed for the AWS resources used if you create a stack from this template.</title>
<polygon fill="white" stroke="white" points="-4,5 -4,-400 830,-400 830,5 -4,5"/>
<!-- DBSecurityGroup -->
<g id="node1" class="node"><title>DBSecurityGroup</title>
<polygon fill="none" stroke="black" points="366,-252 230,-252 230,-216 366,-216 366,-252"/>
<text text-anchor="middle" x="298" y="-230.4" font-family="Times Roman,serif" font-size="14.00">DBSecurityGroup</text>
</g>
<!-- DBInstance -->
<g id="node5" class="node"><title>DBInstance</title>
<polygon fill="none" stroke="black" points="298,-180 202,-180 202,-144 298,-144 298,-180"/>
<text text-anchor="middle" x="250" y="-158.4" font-family="Times Roman,serif" font-size="14.00">DBInstance</text>
</g>
<!-- DBSecurityGroup&#45;&gt;DBInstance -->
<g id="edge34" class="edge"><title>DBSecurityGroup&#45;&gt;DBInstance</title>
<path fill="none" stroke="black" d="M285.888,-215.831C280.472,-207.708 273.976,-197.964 268.008,-189.012"/>
<polygon fill="black" stroke="black" points="270.735,-186.792 262.276,-180.413 264.91,-190.675 270.735,-186.792"/>
</g>
<!-- FrontendGroup -->
<g id="node2" class="node"><title>FrontendGroup</title>
<polygon fill="none" stroke="black" points="388,-324 266,-324 266,-288 388,-288 388,-324"/>
<text text-anchor="middle" x="327" y="-302.4" font-family="Times Roman,serif" font-size="14.00">FrontendGroup</text>
</g>
<!-- FrontendGroup&#45;&gt;DBSecurityGroup -->
<g id="edge4" class="edge"><title>FrontendGroup&#45;&gt;DBSecurityGroup</title>
<path fill="none" stroke="black" d="M319.682,-287.831C316.512,-279.962 312.73,-270.571 309.219,-261.853"/>
<polygon fill="black" stroke="black" points="312.399,-260.381 305.416,-252.413 305.906,-262.997 312.399,-260.381"/>
</g>
<!-- WebServer -->
<g id="node3" class="node"><title>WebServer</title>
<polygon fill="none" stroke="black" points="564,-108 472,-108 472,-72 564,-72 564,-108"/>
<text text-anchor="middle" x="518" y="-86.4" font-family="Times Roman,serif" font-size="14.00">WebServer</text>
</g>
<!-- FrontendGroup&#45;&gt;WebServer -->
<g id="edge16" class="edge"><title>FrontendGroup&#45;&gt;WebServer</title>
<path fill="none" stroke="black" d="M344.513,-287.531C353.898,-277.336 365.457,-264.282 375,-252 410.545,-206.249 408.337,-186.231 448,-144 458.146,-133.197 470.598,-122.86 482.172,-114.176"/>
<polygon fill="black" stroke="black" points="484.392,-116.888 490.399,-108.161 480.261,-111.237 484.392,-116.888"/>
</g>
<!-- WebsiteURL -->
<g id="node16" class="node"><title>WebsiteURL</title>
<polygon fill="lightgrey" stroke="lightgrey" points="501,-36 425,-36 413,-24 413,-12 425,-1.60583e-14 501,-5.25802e-15 513,-12 513,-24 501,-36"/>
<path fill="lightgrey" stroke="lightgrey" d="M425,-36C419,-36 413,-30 413,-24"/>
<path fill="lightgrey" stroke="lightgrey" d="M413,-12C413,-6 419,-1.69109e-14 425,-1.60583e-14"/>
<path fill="lightgrey" stroke="lightgrey" d="M501,-5.25802e-15C507,-4.40536e-15 513,-6 513,-12"/>
<path fill="lightgrey" stroke="lightgrey" d="M513,-24C513,-30 507,-36 501,-36"/>
<polyline fill="none" stroke="black" points="501,-36 425,-36 "/>
<path fill="none" stroke="black" d="M425,-36C419,-36 413,-30 413,-24"/>
<polyline fill="none" stroke="black" points="413,-24 413,-12 "/>
<path fill="none" stroke="black" d="M413,-12C413,-6 419,-1.69109e-14 425,-1.60583e-14"/>
<polyline fill="none" stroke="black" points="425,-1.60583e-14 501,-5.25802e-15 "/>
<path fill="none" stroke="black" d="M501,-5.25802e-15C507,-4.40536e-15 513,-6 513,-12"/>
<polyline fill="none" stroke="black" points="513,-12 513,-24 "/>
<path fill="none" stroke="black" d="M513,-24C513,-30 507,-36 501,-36"/>
<text text-anchor="middle" x="463" y="-14.4" font-family="Times Roman,serif" font-size="14.00">WebsiteURL</text>
</g>
<!-- WebServer&#45;&gt;WebsiteURL -->
<g id="edge44" class="edge"><title>WebServer&#45;&gt;WebsiteURL</title>
<path fill="none" stroke="black" d="M504.121,-71.8314C497.786,-63.5386 490.162,-53.557 483.207,-44.4533"/>
<polygon fill="black" stroke="black" points="485.917,-42.2353 477.066,-36.4133 480.355,-46.4847 485.917,-42.2353"/>
</g>
<!-- InstallURL -->
<g id="node17" class="node"><title>InstallURL</title>
<polygon fill="lightgrey" stroke="lightgrey" points="605,-36 543,-36 531,-24 531,-12 543,-1.57807e-14 605,-5.53562e-15 617,-12 617,-24 605,-36"/>
<path fill="lightgrey" stroke="lightgrey" d="M543,-36C537,-36 531,-30 531,-24"/>
<path fill="lightgrey" stroke="lightgrey" d="M531,-12C531,-6 537,-1.67721e-14 543,-1.57807e-14"/>
<path fill="lightgrey" stroke="lightgrey" d="M605,-5.53562e-15C611,-4.54417e-15 617,-6 617,-12"/>
<path fill="lightgrey" stroke="lightgrey" d="M617,-24C617,-30 611,-36 605,-36"/>
<polyline fill="none" stroke="black" points="605,-36 543,-36 "/>
<path fill="none" stroke="black" d="M543,-36C537,-36 531,-30 531,-24"/>
<polyline fill="none" stroke="black" points="531,-24 531,-12 "/>
<path fill="none" stroke="black" d="M531,-12C531,-6 537,-1.67721e-14 543,-1.57807e-14"/>
<polyline fill="none" stroke="black" points="543,-1.57807e-14 605,-5.53562e-15 "/>
<path fill="none" stroke="black" d="M605,-5.53562e-15C611,-4.54417e-15 617,-6 617,-12"/>
<polyline fill="none" stroke="black" points="617,-12 617,-24 "/>
<path fill="none" stroke="black" d="M617,-24C617,-30 611,-36 605,-36"/>
<text text-anchor="middle" x="574" y="-14.4" font-family="Times Roman,serif" font-size="14.00">InstallURL</text>
</g>
<!-- WebServer&#45;&gt;InstallURL -->
<g id="edge46" class="edge"><title>WebServer&#45;&gt;InstallURL</title>
<path fill="none" stroke="black" d="M532.131,-71.8314C538.581,-63.5386 546.345,-53.557 553.425,-44.4533"/>
<polygon fill="black" stroke="black" points="556.302,-46.4556 559.679,-36.4133 550.776,-42.158 556.302,-46.4556"/>
</g>
<!-- WaitCondition -->
<g id="node4" class="node"><title>WaitCondition</title>
<polygon fill="none" stroke="black" points="825,-108 711,-108 711,-72 825,-72 825,-108"/>
<text text-anchor="middle" x="768" y="-86.4" font-family="Times Roman,serif" font-size="14.00">WaitCondition</text>
</g>
<!-- DBInstance&#45;&gt;WebServer -->
<g id="edge30" class="edge"><title>DBInstance&#45;&gt;WebServer</title>
<path fill="none" stroke="black" d="M298.223,-149.045C344.326,-136.659 413.799,-117.994 462.255,-104.976"/>
<polygon fill="black" stroke="black" points="463.207,-108.345 471.956,-102.37 461.39,-101.585 463.207,-108.345"/>
</g>
<!-- WaitHandle -->
<g id="node6" class="node"><title>WaitHandle</title>
<polygon fill="none" stroke="black" points="816,-180 720,-180 720,-144 816,-144 816,-180"/>
<text text-anchor="middle" x="768" y="-158.4" font-family="Times Roman,serif" font-size="14.00">WaitHandle</text>
</g>
<!-- WaitHandle&#45;&gt;WebServer -->
<g id="edge12" class="edge"><title>WaitHandle&#45;&gt;WebServer</title>
<path fill="none" stroke="black" d="M719.94,-148.032C715.23,-146.668 710.523,-145.306 706,-144 661.675,-131.2 611.448,-116.777 574.067,-106.059"/>
<polygon fill="black" stroke="black" points="574.944,-102.67 564.367,-103.278 573.015,-109.399 574.944,-102.67"/>
</g>
<!-- WaitHandle&#45;&gt;WaitCondition -->
<g id="edge32" class="edge"><title>WaitHandle&#45;&gt;WaitCondition</title>
<path fill="none" stroke="black" d="M768,-143.831C768,-136.131 768,-126.974 768,-118.417"/>
<polygon fill="black" stroke="black" points="771.5,-118.413 768,-108.413 764.5,-118.413 771.5,-118.413"/>
</g>
<!-- DBClass -->
<g id="node8" class="node"><title>DBClass</title>
<polygon fill="lightgrey" stroke="lightgrey" points="240,-396 192,-396 180,-384 180,-372 192,-360 240,-360 252,-372 252,-384 240,-396"/>
<path fill="lightgrey" stroke="lightgrey" d="M192,-396C186,-396 180,-390 180,-384"/>
<path fill="lightgrey" stroke="lightgrey" d="M180,-372C180,-366 186,-360 192,-360"/>
<path fill="lightgrey" stroke="lightgrey" d="M240,-360C246,-360 252,-366 252,-372"/>
<path fill="lightgrey" stroke="lightgrey" d="M252,-384C252,-390 246,-396 240,-396"/>
<polyline fill="none" stroke="black" points="240,-396 192,-396 "/>
<path fill="none" stroke="black" d="M192,-396C186,-396 180,-390 180,-384"/>
<polyline fill="none" stroke="black" points="180,-384 180,-372 "/>
<path fill="none" stroke="black" d="M180,-372C180,-366 186,-360 192,-360"/>
<polyline fill="none" stroke="black" points="192,-360 240,-360 "/>
<path fill="none" stroke="black" d="M240,-360C246,-360 252,-366 252,-372"/>
<polyline fill="none" stroke="black" points="252,-372 252,-384 "/>
<path fill="none" stroke="black" d="M252,-384C252,-390 246,-396 240,-396"/>
<text text-anchor="middle" x="216" y="-374.4" font-family="Times Roman,serif" font-size="14.00">DBClass</text>
</g>
<!-- DBClass&#45;&gt;DBInstance -->
<g id="edge40" class="edge"><title>DBClass&#45;&gt;DBInstance</title>
<path fill="none" stroke="black" d="M213.878,-359.626C210.951,-329.165 207.452,-266.553 221,-216 223.482,-206.74 227.809,-197.309 232.374,-188.975"/>
<polygon fill="black" stroke="black" points="235.535,-190.502 237.545,-180.099 229.487,-186.978 235.535,-190.502"/>
</g>
<!-- DBName -->
<g id="node9" class="node"><title>DBName</title>
<polygon fill="lightgrey" stroke="lightgrey" points="64,-396 12,-396 2.84217e-14,-384 1.42109e-14,-372 12,-360 64,-360 76,-372 76,-384 64,-396"/>
<path fill="lightgrey" stroke="lightgrey" d="M12,-396C6,-396 3.55271e-14,-390 2.84217e-14,-384"/>
<path fill="lightgrey" stroke="lightgrey" d="M1.42109e-14,-372C7.10543e-15,-366 6,-360 12,-360"/>
<path fill="lightgrey" stroke="lightgrey" d="M64,-360C70,-360 76,-366 76,-372"/>
<path fill="lightgrey" stroke="lightgrey" d="M76,-384C76,-390 70,-396 64,-396"/>
<polyline fill="none" stroke="black" points="64,-396 12,-396 "/>
<path fill="none" stroke="black" d="M12,-396C6,-396 3.55271e-14,-390 2.84217e-14,-384"/>
<polyline fill="none" stroke="black" points="2.84217e-14,-384 1.42109e-14,-372 "/>
<path fill="none" stroke="black" d="M1.42109e-14,-372C7.10543e-15,-366 6,-360 12,-360"/>
<polyline fill="none" stroke="black" points="12,-360 64,-360 "/>
<path fill="none" stroke="black" d="M64,-360C70,-360 76,-366 76,-372"/>
<polyline fill="none" stroke="black" points="76,-372 76,-384 "/>
<path fill="none" stroke="black" d="M76,-384C76,-390 70,-396 64,-396"/>
<text text-anchor="middle" x="38" y="-374.4" font-family="Times Roman,serif" font-size="14.00">DBName</text>
</g>
<!-- DBName&#45;&gt;WebServer -->
<g id="edge24" class="edge"><title>DBName&#45;&gt;WebServer</title>
<path fill="none" stroke="black" d="M41.4251,-359.922C50.9827,-314.935 82.4385,-197.72 159,-144 206.768,-110.483 373.256,-97.201 461.729,-92.4167"/>
<polygon fill="black" stroke="black" points="462.055,-95.9045 471.859,-91.8877 461.69,-88.9141 462.055,-95.9045"/>
</g>
<!-- DBName&#45;&gt;DBInstance -->
<g id="edge42" class="edge"><title>DBName&#45;&gt;DBInstance</title>
<path fill="none" stroke="black" d="M53.267,-359.797C79.3458,-329.054 134.645,-265.37 186,-216 196.439,-205.964 208.444,-195.563 219.216,-186.6"/>
<polygon fill="black" stroke="black" points="221.67,-189.113 227.166,-180.056 217.221,-183.708 221.67,-189.113"/>
</g>
<!-- SSHLocation -->
<g id="node10" class="node"><title>SSHLocation</title>
<polygon fill="lightgrey" stroke="lightgrey" points="367,-396 287,-396 275,-384 275,-372 287,-360 367,-360 379,-372 379,-384 367,-396"/>
<path fill="lightgrey" stroke="lightgrey" d="M287,-396C281,-396 275,-390 275,-384"/>
<path fill="lightgrey" stroke="lightgrey" d="M275,-372C275,-366 281,-360 287,-360"/>
<path fill="lightgrey" stroke="lightgrey" d="M367,-360C373,-360 379,-366 379,-372"/>
<path fill="lightgrey" stroke="lightgrey" d="M379,-384C379,-390 373,-396 367,-396"/>
<polyline fill="none" stroke="black" points="367,-396 287,-396 "/>
<path fill="none" stroke="black" d="M287,-396C281,-396 275,-390 275,-384"/>
<polyline fill="none" stroke="black" points="275,-384 275,-372 "/>
<path fill="none" stroke="black" d="M275,-372C275,-366 281,-360 287,-360"/>
<polyline fill="none" stroke="black" points="287,-360 367,-360 "/>
<path fill="none" stroke="black" d="M367,-360C373,-360 379,-366 379,-372"/>
<polyline fill="none" stroke="black" points="379,-372 379,-384 "/>
<path fill="none" stroke="black" d="M379,-384C379,-390 373,-396 367,-396"/>
<text text-anchor="middle" x="327" y="-374.4" font-family="Times Roman,serif" font-size="14.00">SSHLocation</text>
</g>
<!-- SSHLocation&#45;&gt;FrontendGroup -->
<g id="edge6" class="edge"><title>SSHLocation&#45;&gt;FrontendGroup</title>
<path fill="none" stroke="black" d="M327,-359.831C327,-352.131 327,-342.974 327,-334.417"/>
<polygon fill="black" stroke="black" points="330.5,-334.413 327,-324.413 323.5,-334.413 330.5,-334.413"/>
</g>
<!-- KeyName -->
<g id="node11" class="node"><title>KeyName</title>
<polygon fill="lightgrey" stroke="lightgrey" points="600,-396 544,-396 532,-384 532,-372 544,-360 600,-360 612,-372 612,-384 600,-396"/>
<path fill="lightgrey" stroke="lightgrey" d="M544,-396C538,-396 532,-390 532,-384"/>
<path fill="lightgrey" stroke="lightgrey" d="M532,-372C532,-366 538,-360 544,-360"/>
<path fill="lightgrey" stroke="lightgrey" d="M600,-360C606,-360 612,-366 612,-372"/>
<path fill="lightgrey" stroke="lightgrey" d="M612,-384C612,-390 606,-396 600,-396"/>
<polyline fill="none" stroke="black" points="600,-396 544,-396 "/>
<path fill="none" stroke="black" d="M544,-396C538,-396 532,-390 532,-384"/>
<polyline fill="none" stroke="black" points="532,-384 532,-372 "/>
<path fill="none" stroke="black" d="M532,-372C532,-366 538,-360 544,-360"/>
<polyline fill="none" stroke="black" points="544,-360 600,-360 "/>
<path fill="none" stroke="black" d="M600,-360C606,-360 612,-366 612,-372"/>
<polyline fill="none" stroke="black" points="612,-372 612,-384 "/>
<path fill="none" stroke="black" d="M612,-384C612,-390 606,-396 600,-396"/>
<text text-anchor="middle" x="572" y="-374.4" font-family="Times Roman,serif" font-size="14.00">KeyName</text>
</g>
<!-- KeyName&#45;&gt;WebServer -->
<g id="edge14" class="edge"><title>KeyName&#45;&gt;WebServer</title>
<path fill="none" stroke="black" d="M590.158,-359.729C598.549,-349.991 607.612,-337.295 612,-324 637.072,-248.03 652.075,-213.239 612,-144 603.252,-128.886 588.496,-117.634 573.237,-109.43"/>
<polygon fill="black" stroke="black" points="574.748,-106.272 564.236,-104.946 571.626,-112.538 574.748,-106.272"/>
</g>
<!-- DBPassword -->
<g id="node12" class="node"><title>DBPassword</title>
<polygon fill="lightgrey" stroke="lightgrey" points="497,-396 419,-396 407,-384 407,-372 419,-360 497,-360 509,-372 509,-384 497,-396"/>
<path fill="lightgrey" stroke="lightgrey" d="M419,-396C413,-396 407,-390 407,-384"/>
<path fill="lightgrey" stroke="lightgrey" d="M407,-372C407,-366 413,-360 419,-360"/>
<path fill="lightgrey" stroke="lightgrey" d="M497,-360C503,-360 509,-366 509,-372"/>
<path fill="lightgrey" stroke="lightgrey" d="M509,-384C509,-390 503,-396 497,-396"/>
<polyline fill="none" stroke="black" points="497,-396 419,-396 "/>
<path fill="none" stroke="black" d="M419,-396C413,-396 407,-390 407,-384"/>
<polyline fill="none" stroke="black" points="407,-384 407,-372 "/>
<path fill="none" stroke="black" d="M407,-372C407,-366 413,-360 419,-360"/>
<polyline fill="none" stroke="black" points="419,-360 497,-360 "/>
<path fill="none" stroke="black" d="M497,-360C503,-360 509,-366 509,-372"/>
<polyline fill="none" stroke="black" points="509,-372 509,-384 "/>
<path fill="none" stroke="black" d="M509,-384C509,-390 503,-396 497,-396"/>
<text text-anchor="middle" x="458" y="-374.4" font-family="Times Roman,serif" font-size="14.00">DBPassword</text>
</g>
<!-- DBPassword&#45;&gt;WebServer -->
<g id="edge28" class="edge"><title>DBPassword&#45;&gt;WebServer</title>
<path fill="none" stroke="black" d="M484.849,-359.939C514.361,-338.29 560.092,-298.987 579,-252 596.919,-207.47 598.708,-187.767 579,-144 573.873,-132.615 565.028,-122.66 555.639,-114.503"/>
<polygon fill="black" stroke="black" points="557.672,-111.646 547.694,-108.083 553.272,-117.09 557.672,-111.646"/>
</g>
<!-- DBPassword&#45;&gt;DBInstance -->
<g id="edge38" class="edge"><title>DBPassword&#45;&gt;DBInstance</title>
<path fill="none" stroke="black" d="M453.186,-359.951C443.576,-327.128 419.059,-257.256 375,-216 356.202,-198.398 330.767,-185.998 307.748,-177.56"/>
<polygon fill="black" stroke="black" points="308.652,-174.169 298.057,-174.183 306.348,-180.779 308.652,-174.169"/>
</g>
<!-- DBUser -->
<g id="node13" class="node"><title>DBUser</title>
<polygon fill="lightgrey" stroke="lightgrey" points="150,-396 106,-396 94,-384 94,-372 106,-360 150,-360 162,-372 162,-384 150,-396"/>
<path fill="lightgrey" stroke="lightgrey" d="M106,-396C100,-396 94,-390 94,-384"/>
<path fill="lightgrey" stroke="lightgrey" d="M94,-372C94,-366 100,-360 106,-360"/>
<path fill="lightgrey" stroke="lightgrey" d="M150,-360C156,-360 162,-366 162,-372"/>
<path fill="lightgrey" stroke="lightgrey" d="M162,-384C162,-390 156,-396 150,-396"/>
<polyline fill="none" stroke="black" points="150,-396 106,-396 "/>
<path fill="none" stroke="black" d="M106,-396C100,-396 94,-390 94,-384"/>
<polyline fill="none" stroke="black" points="94,-384 94,-372 "/>
<path fill="none" stroke="black" d="M94,-372C94,-366 100,-360 106,-360"/>
<polyline fill="none" stroke="black" points="106,-360 150,-360 "/>
<path fill="none" stroke="black" d="M150,-360C156,-360 162,-366 162,-372"/>
<polyline fill="none" stroke="black" points="162,-372 162,-384 "/>
<path fill="none" stroke="black" d="M162,-384C162,-390 156,-396 150,-396"/>
<text text-anchor="middle" x="128" y="-374.4" font-family="Times Roman,serif" font-size="14.00">DBUser</text>
</g>
<!-- DBUser&#45;&gt;WebServer -->
<g id="edge26" class="edge"><title>DBUser&#45;&gt;WebServer</title>
<path fill="none" stroke="black" d="M126.948,-359.974C125.442,-315.619 128.304,-200.68 193,-144 232.091,-109.752 379.457,-96.916 461.676,-92.3504"/>
<polygon fill="black" stroke="black" points="462.054,-95.8353 471.854,-91.8089 461.682,-88.8452 462.054,-95.8353"/>
</g>
<!-- DBUser&#45;&gt;DBInstance -->
<g id="edge36" class="edge"><title>DBUser&#45;&gt;DBInstance</title>
<path fill="none" stroke="black" d="M135.911,-359.97C149.554,-329.48 179.035,-266.16 210,-216 215.7,-206.767 222.537,-197.116 228.933,-188.569"/>
<polygon fill="black" stroke="black" points="231.846,-190.521 235.124,-180.447 226.279,-186.278 231.846,-190.521"/>
</g>
<!-- InstanceType -->
<g id="node14" class="node"><title>InstanceType</title>
<polygon fill="lightgrey" stroke="lightgrey" points="724,-396 642,-396 630,-384 630,-372 642,-360 724,-360 736,-372 736,-384 724,-396"/>
<path fill="lightgrey" stroke="lightgrey" d="M642,-396C636,-396 630,-390 630,-384"/>
<path fill="lightgrey" stroke="lightgrey" d="M630,-372C630,-366 636,-360 642,-360"/>
<path fill="lightgrey" stroke="lightgrey" d="M724,-360C730,-360 736,-366 736,-372"/>
<path fill="lightgrey" stroke="lightgrey" d="M736,-384C736,-390 730,-396 724,-396"/>
<polyline fill="none" stroke="black" points="724,-396 642,-396 "/>
<path fill="none" stroke="black" d="M642,-396C636,-396 630,-390 630,-384"/>
<polyline fill="none" stroke="black" points="630,-384 630,-372 "/>
<path fill="none" stroke="black" d="M630,-372C630,-366 636,-360 642,-360"/>
<polyline fill="none" stroke="black" points="642,-360 724,-360 "/>
<path fill="none" stroke="black" d="M724,-360C730,-360 736,-366 736,-372"/>
<polyline fill="none" stroke="black" points="736,-372 736,-384 "/>
<path fill="none" stroke="black" d="M736,-384C736,-390 730,-396 724,-396"/>
<text text-anchor="middle" x="683" y="-374.4" font-family="Times Roman,serif" font-size="14.00">InstanceType</text>
</g>
<!-- InstanceType&#45;&gt;WebServer -->
<g id="edge18" class="edge"><title>InstanceType&#45;&gt;WebServer</title>
<path fill="none" stroke="black" d="M679.757,-359.924C677.494,-317.401 677.115,-209.678 625,-144 611.829,-127.402 592.369,-115.676 573.601,-107.495"/>
<polygon fill="black" stroke="black" points="574.762,-104.189 564.181,-103.646 572.114,-110.669 574.762,-104.189"/>
</g>
<!-- InstanceType&#45;&gt;WebServer -->
<g id="edge22" class="edge"><title>InstanceType&#45;&gt;WebServer</title>
<path fill="none" stroke="black" d="M688.914,-359.924C695.494,-317.401 695.115,-209.678 643,-144 626.056,-122.647 598.703,-109.357 573.822,-101.307"/>
<polygon fill="black" stroke="black" points="574.659,-97.9035 564.074,-98.3712 572.64,-104.606 574.659,-97.9035"/>
</g>
<!-- AWS::StackId -->
<g id="node20" class="node"><title>AWS::StackId</title>
<polygon fill="none" stroke="black" points="570,-252 460,-252 460,-216 570,-216 570,-252"/>
<text text-anchor="middle" x="515" y="-230.4" font-family="Times Roman,serif" font-size="14.00">AWS::StackId</text>
</g>
<!-- AWS::StackId&#45;&gt;WebServer -->
<g id="edge8" class="edge"><title>AWS::StackId&#45;&gt;WebServer</title>
<path fill="none" stroke="black" d="M487.039,-215.862C475.446,-206.662 463.26,-194.381 457,-180 450.614,-165.33 450.431,-158.589 457,-144 462.127,-132.615 470.972,-122.66 480.361,-114.503"/>
<polygon fill="black" stroke="black" points="482.728,-117.09 488.306,-108.083 478.328,-111.646 482.728,-117.09"/>
</g>
<!-- AWS::Region -->
<g id="node22" class="node"><title>AWS::Region</title>
<polygon fill="none" stroke="black" points="570,-180 466,-180 466,-144 570,-144 570,-180"/>
<text text-anchor="middle" x="518" y="-158.4" font-family="Times Roman,serif" font-size="14.00">AWS::Region</text>
</g>
<!-- AWS::Region&#45;&gt;WebServer -->
<g id="edge10" class="edge"><title>AWS::Region&#45;&gt;WebServer</title>
<path fill="none" stroke="black" d="M512.048,-143.831C511.297,-136.131 511.076,-126.974 511.385,-118.417"/>
<polygon fill="black" stroke="black" points="514.879,-118.616 512.024,-108.413 507.893,-118.17 514.879,-118.616"/>
</g>
<!-- AWS::Region&#45;&gt;WebServer -->
<g id="edge20" class="edge"><title>AWS::Region&#45;&gt;WebServer</title>
<path fill="none" stroke="black" d="M523.952,-143.831C524.703,-136.131 524.924,-126.974 524.615,-118.417"/>
<polygon fill="black" stroke="black" points="528.107,-118.17 523.976,-108.413 521.121,-118.616 528.107,-118.17"/>
</g>
</g>
</svg>
